# Converted from Decimation Beardie model: mgSuppressor.bmodel
# Coordinates retain the original Beardie model units.
mtllib mg_suppressor.mtl
usemtl mg_suppressor_material
o suppressor
v 28.5 5.19 -0.2999999
v 33.5 5.19 -0.2999999
v 33.5 3.69 -0.2999999
v 28.5 3.69 -0.2999999
v 28.5 5.19 0.3000001
v 33.5 5.19 0.3000001
v 33.5 3.69 0.3000001
v 28.5 3.69 0.3000001
vt 0.096875 0.934375
vt 0.0875 0.934375
vt 0.0875 0.98125
vt 0.096875 0.98125
f 7/1 3/2 2/3 6/4
vt 0.009375 0.934375
vt 0 0.934375
vt 0 0.98125
vt 0.009375 0.98125
f 4/5 8/6 5/7 1/8
vt 0.0875 0.98125
vt 0.009375 0.98125
vt 0.009375 1
vt 0.0875 1
f 2/9 1/10 5/11 6/12
vt 0.165625 1
vt 0.0875 1
vt 0.0875 0.98125
vt 0.165625 0.98125
f 7/13 8/14 4/15 3/16
vt 0.0875 0.934375
vt 0.009375 0.934375
vt 0.009375 0.98125
vt 0.0875 0.98125
f 3/17 4/18 1/19 2/20
vt 0.175 0.934375
vt 0.096875 0.934375
vt 0.096875 0.98125
vt 0.175 0.98125
f 8/21 7/22 6/23 5/24
o suppressor_1
v 28.5 5.19 0.3000001
v 33.5 5.19 0.3000001
v 33.5 3.69 0.3000001
v 28.5 3.69 0.3000001
v 28.5 4.94 0.7500001
v 33.5 4.94 0.7500001
v 33.5 3.94 0.7500001
v 28.5 3.94 0.7500001
vt 0.0921875 0.9390625
vt 0.08515625 0.9390625
vt 0.08515625 0.9859375
vt 0.0921875 0.9859375
f 15/25 11/26 10/27 14/28
vt 0.00703125 0.9390625
vt 0 0.9390625
vt 0 0.9859375
vt 0.00703125 0.9859375
f 12/29 16/30 13/31 9/32
vt 0.08515625 0.9859375
vt 0.00703125 0.9859375
vt 0.00703125 1
vt 0.08515625 1
f 10/33 9/34 13/35 14/36
vt 0.16328125 1
vt 0.08515625 1
vt 0.08515625 0.9859375
vt 0.16328125 0.9859375
f 15/37 16/38 12/39 11/40
vt 0.08515625 0.9390625
vt 0.00703125 0.9390625
vt 0.00703125 0.9859375
vt 0.08515625 0.9859375
f 11/41 12/42 9/43 10/44
vt 0.1703125 0.9390625
vt 0.0921875 0.9390625
vt 0.0921875 0.9859375
vt 0.1703125 0.9859375
f 16/45 15/46 14/47 13/48
o suppressor_2
v 28.5 4.94 -0.7499999
v 33.5 4.94 -0.7499999
v 33.5 3.94 -0.7499999
v 28.5 3.94 -0.7499999
v 28.5 5.19 -0.2999999
v 33.5 5.19 -0.2999999
v 33.5 3.69 -0.2999999
v 28.5 3.69 -0.2999999
vt 0.0921875 0.9390625
vt 0.08515625 0.9390625
vt 0.08515625 0.9859375
vt 0.0921875 0.9859375
f 23/49 19/50 18/51 22/52
vt 0.00703125 0.9390625
vt 0 0.9390625
vt 0 0.9859375
vt 0.00703125 0.9859375
f 20/53 24/54 21/55 17/56
vt 0.08515625 0.9859375
vt 0.00703125 0.9859375
vt 0.00703125 1
vt 0.08515625 1
f 18/57 17/58 21/59 22/60
vt 0.16328125 1
vt 0.08515625 1
vt 0.08515625 0.9859375
vt 0.16328125 0.9859375
f 23/61 24/62 20/63 19/64
vt 0.08515625 0.9390625
vt 0.00703125 0.9390625
vt 0.00703125 0.9859375
vt 0.08515625 0.9859375
f 19/65 20/66 17/67 18/68
vt 0.1703125 0.9390625
vt 0.0921875 0.9390625
vt 0.0921875 0.9859375
vt 0.1703125 0.9859375
f 24/69 23/70 22/71 21/72
