# Converted from Decimation Beardie model: machete.bmodel
# Coordinates retain the original Beardie model units.
mtllib machete.mtl
usemtl machete_material
o gunModel0
v 1.42059 23.18759 0
v 11.36581 22.1423 0
v 8.648068 -3.715265 0
v -1.297151 -2.66998 0
v 1.42059 23.18759 2
v 11.36581 22.1423 2
v 8.648068 -3.715265 2
v -1.297151 -2.66998 2
vt 0.1171875 0.7734375
vt 0.1015625 0.7734375
vt 0.1015625 0.9765625
vt 0.1171875 0.9765625
f 7/1 3/2 2/3 6/4
vt 0.0234375 0.7734375
vt 0.0078125 0.7734375
vt 0.0078125 0.9765625
vt 0.0234375 0.9765625
f 4/5 8/6 5/7 1/8
vt 0.1015625 0.9765625
vt 0.0234375 0.9765625
vt 0.0234375 0.9921875
vt 0.1015625 0.9921875
f 2/9 1/10 5/11 6/12
vt 0.1796875 0.9921875
vt 0.1015625 0.9921875
vt 0.1015625 0.9765625
vt 0.1796875 0.9765625
f 7/13 8/14 4/15 3/16
vt 0.1015625 0.7734375
vt 0.0234375 0.7734375
vt 0.0234375 0.9765625
vt 0.1015625 0.9765625
f 3/17 4/18 1/19 2/20
vt 0.1953125 0.7734375
vt 0.1171875 0.7734375
vt 0.1171875 0.9765625
vt 0.1953125 0.9765625
f 8/21 7/22 6/23 5/24
o gunModel1
v 2.680936 -3.088094 0
v 8.648068 -3.715265 0
v 10.32353 -6.907888 0
v 2.367351 -6.07166 0
v 2.680936 -3.088094 2
v 8.648068 -3.715265 2
v 10.32353 -6.907888 2
v 2.367351 -6.07166 2
vt 0.3359375 0.953125
vt 0.3203125 0.953125
vt 0.3203125 0.9765625
vt 0.3359375 0.9765625
f 15/25 11/26 10/27 14/28
vt 0.2734375 0.953125
vt 0.2578125 0.953125
vt 0.2578125 0.9765625
vt 0.2734375 0.9765625
f 12/29 16/30 13/31 9/32
vt 0.3203125 0.9765625
vt 0.2734375 0.9765625
vt 0.2734375 0.9921875
vt 0.3203125 0.9921875
f 10/33 9/34 13/35 14/36
vt 0.3671875 0.9921875
vt 0.3203125 0.9921875
vt 0.3203125 0.9765625
vt 0.3671875 0.9765625
f 15/37 16/38 12/39 11/40
vt 0.3203125 0.953125
vt 0.2734375 0.953125
vt 0.2734375 0.9765625
vt 0.3203125 0.9765625
f 11/41 12/42 9/43 10/44
vt 0.3828125 0.953125
vt 0.3359375 0.953125
vt 0.3359375 0.9765625
vt 0.3828125 0.9765625
f 16/45 15/46 14/47 13/48
o gunModel2
v 1.74018 -12.03879 0
v 7.707311 -12.66596 0
v 5.613739 -13.45143 0
v 1.635651 -13.03331 0
v 1.74018 -12.03879 2
v 7.707311 -12.66596 2
v 5.613739 -13.45143 2
v 1.635651 -13.03331 2
vt 0.5078125 0.96875
vt 0.4921875 0.96875
vt 0.4921875 0.9765625
vt 0.5078125 0.9765625
f 23/49 19/50 18/51 22/52
vt 0.4609375 0.96875
vt 0.4453125 0.96875
vt 0.4453125 0.9765625
vt 0.4609375 0.9765625
f 20/53 24/54 21/55 17/56
vt 0.4921875 0.9765625
vt 0.4609375 0.9765625
vt 0.4609375 0.9921875
vt 0.4921875 0.9921875
f 18/57 17/58 21/59 22/60
vt 0.5234375 0.9921875
vt 0.4921875 0.9921875
vt 0.4921875 0.9765625
vt 0.5234375 0.9765625
f 23/61 24/62 20/63 19/64
vt 0.4921875 0.96875
vt 0.4609375 0.96875
vt 0.4609375 0.9765625
vt 0.4921875 0.9765625
f 19/65 20/66 17/67 18/68
vt 0.5390625 0.96875
vt 0.5078125 0.96875
vt 0.5078125 0.9765625
vt 0.5390625 0.9765625
f 24/69 23/70 22/71 21/72
o gunModel3
v 2.053765 -9.055226 0
v 10.00994 -9.891454 0
v 7.707311 -12.66596 0
v 1.74018 -12.03879 0
v 2.053765 -9.055226 2
v 10.00994 -9.891454 2
v 7.707311 -12.66596 2
v 1.74018 -12.03879 2
vt 0.6484375 0.953125
vt 0.6328125 0.953125
vt 0.6328125 0.9765625
vt 0.6484375 0.9765625
f 31/73 27/74 26/75 30/76
vt 0.5859375 0.953125
vt 0.5703125 0.953125
vt 0.5703125 0.9765625
vt 0.5859375 0.9765625
f 28/77 32/78 29/79 25/80
vt 0.6328125 0.9765625
vt 0.5859375 0.9765625
vt 0.5859375 0.9921875
vt 0.6328125 0.9921875
f 26/81 25/82 29/83 30/84
vt 0.6796875 0.9921875
vt 0.6328125 0.9921875
vt 0.6328125 0.9765625
vt 0.6796875 0.9765625
f 31/85 32/86 28/87 27/88
vt 0.6328125 0.953125
vt 0.5859375 0.953125
vt 0.5859375 0.9765625
vt 0.6328125 0.9765625
f 27/89 28/90 25/91 26/92
vt 0.6953125 0.953125
vt 0.6484375 0.953125
vt 0.6484375 0.9765625
vt 0.6953125 0.9765625
f 32/93 31/94 30/95 29/96
o gunModel4
v 2.367351 -6.07166 0
v 10.32353 -6.907888 0
v 10.00994 -9.891454 0
v 2.053765 -9.055226 0
v 2.367351 -6.07166 2
v 10.32353 -6.907888 2
v 10.00994 -9.891454 2
v 2.053765 -9.055226 2
vt 0.8515625 0.953125
vt 0.8359375 0.953125
vt 0.8359375 0.9765625
vt 0.8515625 0.9765625
f 39/97 35/98 34/99 38/100
vt 0.7734375 0.953125
vt 0.7578125 0.953125
vt 0.7578125 0.9765625
vt 0.7734375 0.9765625
f 36/101 40/102 37/103 33/104
vt 0.8359375 0.9765625
vt 0.7734375 0.9765625
vt 0.7734375 0.9921875
vt 0.8359375 0.9921875
f 34/105 33/106 37/107 38/108
vt 0.8984375 0.9921875
vt 0.8359375 0.9921875
vt 0.8359375 0.9765625
vt 0.8984375 0.9765625
f 39/109 40/110 36/111 35/112
vt 0.8359375 0.953125
vt 0.7734375 0.953125
vt 0.7734375 0.9765625
vt 0.8359375 0.9765625
f 35/113 36/114 33/115 34/116
vt 0.9140625 0.953125
vt 0.8515625 0.953125
vt 0.8515625 0.9765625
vt 0.9140625 0.9765625
f 40/117 39/118 38/119 37/120
o gunModel5
v -1.297151 -2.66998 0
v 2.680936 -3.088094 0
v 1.74018 -12.03879 0
v -3.23243 -11.51615 0
v -1.297151 -2.66998 2
v 2.680936 -3.088094 2
v 1.74018 -12.03879 2
v -3.23243 -11.51615 2
vt 0.3203125 0.84375
vt 0.3046875 0.84375
vt 0.3046875 0.9140625
vt 0.3203125 0.9140625
f 47/121 43/122 42/123 46/124
vt 0.2734375 0.84375
vt 0.2578125 0.84375
vt 0.2578125 0.9140625
vt 0.2734375 0.9140625
f 44/125 48/126 45/127 41/128
vt 0.3046875 0.9140625
vt 0.2734375 0.9140625
vt 0.2734375 0.9296875
vt 0.3046875 0.9296875
f 42/129 41/130 45/131 46/132
vt 0.3359375 0.9296875
vt 0.3046875 0.9296875
vt 0.3046875 0.9140625
vt 0.3359375 0.9140625
f 47/133 48/134 44/135 43/136
vt 0.3046875 0.84375
vt 0.2734375 0.84375
vt 0.2734375 0.9140625
vt 0.3046875 0.9140625
f 43/137 44/138 41/139 42/140
vt 0.3515625 0.84375
vt 0.3203125 0.84375
vt 0.3203125 0.9140625
vt 0.3515625 0.9140625
f 48/141 47/142 46/143 45/144
o gunModel6
v -3.23243 -11.51615 0
v 1.74018 -12.03879 0
v 1.635651 -13.03331 0
v -0.3533925 -12.82426 0
v -3.23243 -11.51615 2
v 1.74018 -12.03879 2
v 1.635651 -13.03331 2
v -0.3533925 -12.82426 2
vt 0.4296875 0.90625
vt 0.4140625 0.90625
vt 0.4140625 0.9140625
vt 0.4296875 0.9140625
f 55/145 51/146 50/147 54/148
vt 0.3984375 0.90625
vt 0.3828125 0.90625
vt 0.3828125 0.9140625
vt 0.3984375 0.9140625
f 52/149 56/150 53/151 49/152
vt 0.4140625 0.9140625
vt 0.3984375 0.9140625
vt 0.3984375 0.9296875
vt 0.4140625 0.9296875
f 50/153 49/154 53/155 54/156
vt 0.4296875 0.9296875
vt 0.4140625 0.9296875
vt 0.4140625 0.9140625
vt 0.4296875 0.9140625
f 55/157 56/158 52/159 51/160
vt 0.4140625 0.90625
vt 0.3984375 0.90625
vt 0.3984375 0.9140625
vt 0.4140625 0.9140625
f 51/161 52/162 49/163 50/164
vt 0.4453125 0.90625
vt 0.4296875 0.90625
vt 0.4296875 0.9140625
vt 0.4453125 0.9140625
f 56/165 55/166 54/167 53/168
o gunModel7
v 1.42059 23.18759 2
v 11.36581 22.1423 2
v 8.648068 -3.715265 2
v -1.297151 -2.66998 2
v 2.415112 23.08306 3
v 10.37129 22.24683 3
v 7.653546 -3.610737 3
v -0.3026293 -2.774509 3
vt 0.6015625 0.71875
vt 0.59375 0.71875
vt 0.59375 0.921875
vt 0.6015625 0.921875
f 63/169 59/170 58/171 62/172
vt 0.515625 0.71875
vt 0.5078125 0.71875
vt 0.5078125 0.921875
vt 0.515625 0.921875
f 60/173 64/174 61/175 57/176
vt 0.59375 0.921875
vt 0.515625 0.921875
vt 0.515625 0.9296875
vt 0.59375 0.9296875
f 58/177 57/178 61/179 62/180
vt 0.671875 0.9296875
vt 0.59375 0.9296875
vt 0.59375 0.921875
vt 0.671875 0.921875
f 63/181 64/182 60/183 59/184
vt 0.59375 0.71875
vt 0.515625 0.71875
vt 0.515625 0.921875
vt 0.59375 0.921875
f 59/185 60/186 57/187 58/188
vt 0.6796875 0.71875
vt 0.6015625 0.71875
vt 0.6015625 0.921875
vt 0.6796875 0.921875
f 64/189 63/190 62/191 61/192
o gunModel8
v 2.680936 -3.088094 2
v 8.648068 -3.715265 2
v 10.32353 -6.907888 2
v 2.367351 -6.07166 2
v 2.680936 -3.088094 3
v 7.653546 -3.610737 3
v 9.329004 -6.803359 3
v 2.367351 -6.07166 3
vt 0.7578125 0.8984375
vt 0.75 0.8984375
vt 0.75 0.921875
vt 0.7578125 0.921875
f 71/193 67/194 66/195 70/196
vt 0.703125 0.8984375
vt 0.6953125 0.8984375
vt 0.6953125 0.921875
vt 0.703125 0.921875
f 68/197 72/198 69/199 65/200
vt 0.75 0.921875
vt 0.703125 0.921875
vt 0.703125 0.9296875
vt 0.75 0.9296875
f 66/201 65/202 69/203 70/204
vt 0.796875 0.9296875
vt 0.75 0.9296875
vt 0.75 0.921875
vt 0.796875 0.921875
f 71/205 72/206 68/207 67/208
vt 0.75 0.8984375
vt 0.703125 0.8984375
vt 0.703125 0.921875
vt 0.75 0.921875
f 67/209 68/210 65/211 66/212
vt 0.8046875 0.8984375
vt 0.7578125 0.8984375
vt 0.7578125 0.921875
vt 0.8046875 0.921875
f 72/213 71/214 70/215 69/216
o gunModel9
v 1.74018 -12.03879 2
v 7.707311 -12.66596 2
v 5.613739 -13.45143 2
v 1.635651 -13.03331 2
v 1.74018 -12.03879 3
v 6.712789 -12.56143 3
v 4.619217 -13.3469 3
v 1.635651 -13.03331 3
vt 0.8671875 0.9140625
vt 0.859375 0.9140625
vt 0.859375 0.921875
vt 0.8671875 0.921875
f 79/217 75/218 74/219 78/220
vt 0.828125 0.9140625
vt 0.8203125 0.9140625
vt 0.8203125 0.921875
vt 0.828125 0.921875
f 76/221 80/222 77/223 73/224
vt 0.859375 0.921875
vt 0.828125 0.921875
vt 0.828125 0.9296875
vt 0.859375 0.9296875
f 74/225 73/226 77/227 78/228
vt 0.890625 0.9296875
vt 0.859375 0.9296875
vt 0.859375 0.921875
vt 0.890625 0.921875
f 79/229 80/230 76/231 75/232
vt 0.859375 0.9140625
vt 0.828125 0.9140625
vt 0.828125 0.921875
vt 0.859375 0.921875
f 75/233 76/234 73/235 74/236
vt 0.8984375 0.9140625
vt 0.8671875 0.9140625
vt 0.8671875 0.921875
vt 0.8984375 0.921875
f 80/237 79/238 78/239 77/240
o gunModel10
v 2.053765 -9.055226 2
v 10.00994 -9.891454 2
v 7.707311 -12.66596 2
v 1.74018 -12.03879 2
v 2.053765 -9.055226 3
v 9.015419 -9.786925 3
v 6.712789 -12.56143 3
v 1.74018 -12.03879 3
vt 0.4453125 0.8359375
vt 0.4375 0.8359375
vt 0.4375 0.859375
vt 0.4453125 0.859375
f 87/241 83/242 82/243 86/244
vt 0.390625 0.8359375
vt 0.3828125 0.8359375
vt 0.3828125 0.859375
vt 0.390625 0.859375
f 84/245 88/246 85/247 81/248
vt 0.4375 0.859375
vt 0.390625 0.859375
vt 0.390625 0.8671875
vt 0.4375 0.8671875
f 82/249 81/250 85/251 86/252
vt 0.484375 0.8671875
vt 0.4375 0.8671875
vt 0.4375 0.859375
vt 0.484375 0.859375
f 87/253 88/254 84/255 83/256
vt 0.4375 0.8359375
vt 0.390625 0.8359375
vt 0.390625 0.859375
vt 0.4375 0.859375
f 83/257 84/258 81/259 82/260
vt 0.4921875 0.8359375
vt 0.4453125 0.8359375
vt 0.4453125 0.859375
vt 0.4921875 0.859375
f 88/261 87/262 86/263 85/264
o gunModel11
v 2.367351 -6.07166 2
v 10.32353 -6.907888 2
v 10.00994 -9.891454 2
v 2.053765 -9.055226 2
v 2.367351 -6.07166 3
v 9.329004 -6.803359 3
v 9.015419 -9.786925 3
v 2.053765 -9.055226 3
vt 0.7734375 0.8359375
vt 0.765625 0.8359375
vt 0.765625 0.859375
vt 0.7734375 0.859375
f 95/265 91/266 90/267 94/268
vt 0.703125 0.8359375
vt 0.6953125 0.8359375
vt 0.6953125 0.859375
vt 0.703125 0.859375
f 92/269 96/270 93/271 89/272
vt 0.765625 0.859375
vt 0.703125 0.859375
vt 0.703125 0.8671875
vt 0.765625 0.8671875
f 90/273 89/274 93/275 94/276
vt 0.828125 0.8671875
vt 0.765625 0.8671875
vt 0.765625 0.859375
vt 0.828125 0.859375
f 95/277 96/278 92/279 91/280
vt 0.765625 0.8359375
vt 0.703125 0.8359375
vt 0.703125 0.859375
vt 0.765625 0.859375
f 91/281 92/282 89/283 90/284
vt 0.8359375 0.8359375
vt 0.7734375 0.8359375
vt 0.7734375 0.859375
vt 0.8359375 0.859375
f 96/285 95/286 94/287 93/288
o gunModel12
v -1.297151 -2.66998 2
v 2.680936 -3.088094 2
v 1.74018 -12.03879 2
v -3.23243 -11.51615 2
v -0.3026293 -2.774509 3
v 2.680936 -3.088094 3
v 1.74018 -12.03879 3
v -2.237908 -11.62068 3
vt 0.9296875 0.7890625
vt 0.921875 0.7890625
vt 0.921875 0.859375
vt 0.9296875 0.859375
f 103/289 99/290 98/291 102/292
vt 0.890625 0.7890625
vt 0.8828125 0.7890625
vt 0.8828125 0.859375
vt 0.890625 0.859375
f 100/293 104/294 101/295 97/296
vt 0.921875 0.859375
vt 0.890625 0.859375
vt 0.890625 0.8671875
vt 0.921875 0.8671875
f 98/297 97/298 101/299 102/300
vt 0.953125 0.8671875
vt 0.921875 0.8671875
vt 0.921875 0.859375
vt 0.953125 0.859375
f 103/301 104/302 100/303 99/304
vt 0.921875 0.7890625
vt 0.890625 0.7890625
vt 0.890625 0.859375
vt 0.921875 0.859375
f 99/305 100/306 97/307 98/308
vt 0.9609375 0.7890625
vt 0.9296875 0.7890625
vt 0.9296875 0.859375
vt 0.9609375 0.859375
f 104/309 103/310 102/311 101/312
o gunModel13
v -3.23243 -11.51615 2
v 1.74018 -12.03879 2
v 1.635651 -13.03331 2
v -0.3533925 -12.82426 2
v -2.237908 -11.62068 3
v 1.74018 -12.03879 3
v 1.635651 -13.03331 3
v 0.6411294 -12.92878 3
vt 0.9765625 0.9765625
vt 0.96875 0.9765625
vt 0.96875 0.984375
vt 0.9765625 0.984375
f 111/313 107/314 106/315 110/316
vt 0.953125 0.9765625
vt 0.9453125 0.9765625
vt 0.9453125 0.984375
vt 0.953125 0.984375
f 108/317 112/318 109/319 105/320
vt 0.96875 0.984375
vt 0.953125 0.984375
vt 0.953125 0.9921875
vt 0.96875 0.9921875
f 106/321 105/322 109/323 110/324
vt 0.984375 0.9921875
vt 0.96875 0.9921875
vt 0.96875 0.984375
vt 0.984375 0.984375
f 111/325 112/326 108/327 107/328
vt 0.96875 0.9765625
vt 0.953125 0.9765625
vt 0.953125 0.984375
vt 0.96875 0.984375
f 107/329 108/330 105/331 106/332
vt 0.9921875 0.9765625
vt 0.9765625 0.9765625
vt 0.9765625 0.984375
vt 0.9921875 0.984375
f 112/333 111/334 110/335 109/336
o gunModel14
v 2.415112 23.08306 -1
v 10.37129 22.24683 -1
v 7.653546 -3.610737 -1
v -0.3026293 -2.774509 -1
v 1.42059 23.18759 0
v 11.36581 22.1423 0
v 8.648068 -3.715265 0
v -1.297151 -2.66998 0
vt 0.3515625 0.59375
vt 0.34375 0.59375
vt 0.34375 0.796875
vt 0.3515625 0.796875
f 119/337 115/338 114/339 118/340
vt 0.265625 0.59375
vt 0.2578125 0.59375
vt 0.2578125 0.796875
vt 0.265625 0.796875
f 116/341 120/342 117/343 113/344
vt 0.34375 0.796875
vt 0.265625 0.796875
vt 0.265625 0.8046875
vt 0.34375 0.8046875
f 114/345 113/346 117/347 118/348
vt 0.421875 0.8046875
vt 0.34375 0.8046875
vt 0.34375 0.796875
vt 0.421875 0.796875
f 119/349 120/350 116/351 115/352
vt 0.34375 0.59375
vt 0.265625 0.59375
vt 0.265625 0.796875
vt 0.34375 0.796875
f 115/353 116/354 113/355 114/356
vt 0.4296875 0.59375
vt 0.3515625 0.59375
vt 0.3515625 0.796875
vt 0.4296875 0.796875
f 120/357 119/358 118/359 117/360
o gunModel15
v 2.680936 -3.088094 -1
v 7.653546 -3.610737 -1
v 9.329004 -6.803359 -1
v 2.367351 -6.07166 -1
v 2.680936 -3.088094 0
v 8.648068 -3.715265 0
v 10.32353 -6.907888 0
v 2.367351 -6.07166 0
vt 0.7578125 0.7734375
vt 0.75 0.7734375
vt 0.75 0.796875
vt 0.7578125 0.796875
f 127/361 123/362 122/363 126/364
vt 0.703125 0.7734375
vt 0.6953125 0.7734375
vt 0.6953125 0.796875
vt 0.703125 0.796875
f 124/365 128/366 125/367 121/368
vt 0.75 0.796875
vt 0.703125 0.796875
vt 0.703125 0.8046875
vt 0.75 0.8046875
f 122/369 121/370 125/371 126/372
vt 0.796875 0.8046875
vt 0.75 0.8046875
vt 0.75 0.796875
vt 0.796875 0.796875
f 127/373 128/374 124/375 123/376
vt 0.75 0.7734375
vt 0.703125 0.7734375
vt 0.703125 0.796875
vt 0.75 0.796875
f 123/377 124/378 121/379 122/380
vt 0.8046875 0.7734375
vt 0.7578125 0.7734375
vt 0.7578125 0.796875
vt 0.8046875 0.796875
f 128/381 127/382 126/383 125/384
o gunModel16
v 1.74018 -12.03879 -1
v 6.712789 -12.56143 -1
v 4.619217 -13.3469 -1
v 1.635651 -13.03331 -1
v 1.74018 -12.03879 0
v 7.707311 -12.66596 0
v 5.613739 -13.45143 0
v 1.635651 -13.03331 0
vt 0.0546875 0.7265625
vt 0.046875 0.7265625
vt 0.046875 0.734375
vt 0.0546875 0.734375
f 135/385 131/386 130/387 134/388
vt 0.015625 0.7265625
vt 0.0078125 0.7265625
vt 0.0078125 0.734375
vt 0.015625 0.734375
f 132/389 136/390 133/391 129/392
vt 0.046875 0.734375
vt 0.015625 0.734375
vt 0.015625 0.7421875
vt 0.046875 0.7421875
f 130/393 129/394 133/395 134/396
vt 0.078125 0.7421875
vt 0.046875 0.7421875
vt 0.046875 0.734375
vt 0.078125 0.734375
f 135/397 136/398 132/399 131/400
vt 0.046875 0.7265625
vt 0.015625 0.7265625
vt 0.015625 0.734375
vt 0.046875 0.734375
f 131/401 132/402 129/403 130/404
vt 0.0859375 0.7265625
vt 0.0546875 0.7265625
vt 0.0546875 0.734375
vt 0.0859375 0.734375
f 136/405 135/406 134/407 133/408
o gunModel17
v 2.053765 -9.055226 -1
v 9.015419 -9.786925 -1
v 6.712789 -12.56143 -1
v 1.74018 -12.03879 -1
v 2.053765 -9.055226 0
v 10.00994 -9.891454 0
v 7.707311 -12.66596 0
v 1.74018 -12.03879 0
vt 0.1953125 0.7109375
vt 0.1875 0.7109375
vt 0.1875 0.734375
vt 0.1953125 0.734375
f 143/409 139/410 138/411 142/412
vt 0.140625 0.7109375
vt 0.1328125 0.7109375
vt 0.1328125 0.734375
vt 0.140625 0.734375
f 140/413 144/414 141/415 137/416
vt 0.1875 0.734375
vt 0.140625 0.734375
vt 0.140625 0.7421875
vt 0.1875 0.7421875
f 138/417 137/418 141/419 142/420
vt 0.234375 0.7421875
vt 0.1875 0.7421875
vt 0.1875 0.734375
vt 0.234375 0.734375
f 143/421 144/422 140/423 139/424
vt 0.1875 0.7109375
vt 0.140625 0.7109375
vt 0.140625 0.734375
vt 0.1875 0.734375
f 139/425 140/426 137/427 138/428
vt 0.2421875 0.7109375
vt 0.1953125 0.7109375
vt 0.1953125 0.734375
vt 0.2421875 0.734375
f 144/429 143/430 142/431 141/432
o gunModel18
v 2.367351 -6.07166 -1
v 9.329004 -6.803359 -1
v 9.015419 -9.786925 -1
v 2.053765 -9.055226 -1
v 2.367351 -6.07166 0
v 10.32353 -6.907888 0
v 10.00994 -9.891454 0
v 2.053765 -9.055226 0
vt 0.7734375 0.7109375
vt 0.765625 0.7109375
vt 0.765625 0.734375
vt 0.7734375 0.734375
f 151/433 147/434 146/435 150/436
vt 0.703125 0.7109375
vt 0.6953125 0.7109375
vt 0.6953125 0.734375
vt 0.703125 0.734375
f 148/437 152/438 149/439 145/440
vt 0.765625 0.734375
vt 0.703125 0.734375
vt 0.703125 0.7421875
vt 0.765625 0.7421875
f 146/441 145/442 149/443 150/444
vt 0.828125 0.7421875
vt 0.765625 0.7421875
vt 0.765625 0.734375
vt 0.828125 0.734375
f 151/445 152/446 148/447 147/448
vt 0.765625 0.7109375
vt 0.703125 0.7109375
vt 0.703125 0.734375
vt 0.765625 0.734375
f 147/449 148/450 145/451 146/452
vt 0.8359375 0.7109375
vt 0.7734375 0.7109375
vt 0.7734375 0.734375
vt 0.8359375 0.734375
f 152/453 151/454 150/455 149/456
o gunModel19
v -0.3026293 -2.774509 -1
v 2.680936 -3.088094 -1
v 1.74018 -12.03879 -1
v -2.237908 -11.62068 -1
v -1.297151 -2.66998 0
v 2.680936 -3.088094 0
v 1.74018 -12.03879 0
v -3.23243 -11.51615 0
vt 0.9296875 0.6640625
vt 0.921875 0.6640625
vt 0.921875 0.734375
vt 0.9296875 0.734375
f 159/457 155/458 154/459 158/460
vt 0.890625 0.6640625
vt 0.8828125 0.6640625
vt 0.8828125 0.734375
vt 0.890625 0.734375
f 156/461 160/462 157/463 153/464
vt 0.921875 0.734375
vt 0.890625 0.734375
vt 0.890625 0.7421875
vt 0.921875 0.7421875
f 154/465 153/466 157/467 158/468
vt 0.953125 0.7421875
vt 0.921875 0.7421875
vt 0.921875 0.734375
vt 0.953125 0.734375
f 159/469 160/470 156/471 155/472
vt 0.921875 0.6640625
vt 0.890625 0.6640625
vt 0.890625 0.734375
vt 0.921875 0.734375
f 155/473 156/474 153/475 154/476
vt 0.9609375 0.6640625
vt 0.9296875 0.6640625
vt 0.9296875 0.734375
vt 0.9609375 0.734375
f 160/477 159/478 158/479 157/480
o gunModel20
v -2.237908 -11.62068 -1
v 1.74018 -12.03879 -1
v 1.635651 -13.03331 -1
v 0.6411294 -12.92878 -1
v -3.23243 -11.51615 0
v 1.74018 -12.03879 0
v 1.635651 -13.03331 0
v -0.3533925 -12.82426 0
vt 0.9765625 0.9140625
vt 0.96875 0.9140625
vt 0.96875 0.921875
vt 0.9765625 0.921875
f 167/481 163/482 162/483 166/484
vt 0.953125 0.9140625
vt 0.9453125 0.9140625
vt 0.9453125 0.921875
vt 0.953125 0.921875
f 164/485 168/486 165/487 161/488
vt 0.96875 0.921875
vt 0.953125 0.921875
vt 0.953125 0.9296875
vt 0.96875 0.9296875
f 162/489 161/490 165/491 166/492
vt 0.984375 0.9296875
vt 0.96875 0.9296875
vt 0.96875 0.921875
vt 0.984375 0.921875
f 167/493 168/494 164/495 163/496
vt 0.96875 0.9140625
vt 0.953125 0.9140625
vt 0.953125 0.921875
vt 0.96875 0.921875
f 163/497 164/498 161/499 162/500
vt 0.9921875 0.9140625
vt 0.9765625 0.9140625
vt 0.9765625 0.921875
vt 0.9921875 0.921875
f 168/501 167/502 166/503 165/504
o gunModel21
v 8.214943 87.83151 0.5
v 20.14921 86.57717 0.5
v 11.36581 22.1423 0.5
v 1.42059 23.18759 0.5
v 8.214943 87.83151 1.5
v 20.14921 86.57717 1.5
v 11.36581 22.1423 1.5
v 1.42059 23.18759 1.5
vt 0.1015625 0.1640625
vt 0.09375 0.1640625
vt 0.09375 0.671875
vt 0.1015625 0.671875
f 175/505 171/506 170/507 174/508
vt 0.015625 0.1640625
vt 0.0078125 0.1640625
vt 0.0078125 0.671875
vt 0.015625 0.671875
f 172/509 176/510 173/511 169/512
vt 0.09375 0.671875
vt 0.015625 0.671875
vt 0.015625 0.6796875
vt 0.09375 0.6796875
f 170/513 169/514 173/515 174/516
vt 0.171875 0.6796875
vt 0.09375 0.6796875
vt 0.09375 0.671875
vt 0.171875 0.671875
f 175/517 176/518 172/519 171/520
vt 0.09375 0.1640625
vt 0.015625 0.1640625
vt 0.015625 0.671875
vt 0.09375 0.671875
f 171/521 172/522 169/523 170/524
vt 0.1796875 0.1640625
vt 0.1015625 0.1640625
vt 0.1015625 0.671875
vt 0.1796875 0.671875
f 176/525 175/526 174/527 173/528
o gunModel22
v 8.214943 87.83151 1.5
v 20.14921 86.57717 1.5
v 11.36581 22.1423 1.5
v 1.42059 23.18759 1.5
v 10.20399 87.62245 2.5
v 18.16016 86.78623 2.5
v 9.376765 22.35136 2.5
v 3.409634 22.97853 2.5
vt 0.5390625 0.1640625
vt 0.53125 0.1640625
vt 0.53125 0.671875
vt 0.5390625 0.671875
f 183/529 179/530 178/531 182/532
vt 0.453125 0.1640625
vt 0.4453125 0.1640625
vt 0.4453125 0.671875
vt 0.453125 0.671875
f 180/533 184/534 181/535 177/536
vt 0.53125 0.671875
vt 0.453125 0.671875
vt 0.453125 0.6796875
vt 0.53125 0.6796875
f 178/537 177/538 181/539 182/540
vt 0.609375 0.6796875
vt 0.53125 0.6796875
vt 0.53125 0.671875
vt 0.609375 0.671875
f 183/541 184/542 180/543 179/544
vt 0.53125 0.1640625
vt 0.453125 0.1640625
vt 0.453125 0.671875
vt 0.53125 0.671875
f 179/545 180/546 177/547 178/548
vt 0.6171875 0.1640625
vt 0.5390625 0.1640625
vt 0.5390625 0.671875
vt 0.6171875 0.671875
f 184/549 183/550 182/551 181/552
o gunModel23
v 10.20399 87.62245 -0.5
v 18.16016 86.78623 -0.5
v 9.376765 22.35136 -0.5
v 3.409634 22.97853 -0.5
v 8.214943 87.83151 0.5
v 20.14921 86.57717 0.5
v 11.36581 22.1423 0.5
v 1.42059 23.18759 0.5
vt 0.7265625 0.1640625
vt 0.71875 0.1640625
vt 0.71875 0.671875
vt 0.7265625 0.671875
f 191/553 187/554 186/555 190/556
vt 0.640625 0.1640625
vt 0.6328125 0.1640625
vt 0.6328125 0.671875
vt 0.640625 0.671875
f 188/557 192/558 189/559 185/560
vt 0.71875 0.671875
vt 0.640625 0.671875
vt 0.640625 0.6796875
vt 0.71875 0.6796875
f 186/561 185/562 189/563 190/564
vt 0.796875 0.6796875
vt 0.71875 0.6796875
vt 0.71875 0.671875
vt 0.796875 0.671875
f 191/565 192/566 188/567 187/568
vt 0.71875 0.1640625
vt 0.640625 0.1640625
vt 0.640625 0.671875
vt 0.71875 0.671875
f 187/569 188/570 185/571 186/572
vt 0.8046875 0.1640625
vt 0.7265625 0.1640625
vt 0.7265625 0.671875
vt 0.8046875 0.671875
f 192/573 191/574 190/575 189/576
o gunModel24
v 9.051171 95.78769 0.5
v 19.99091 94.63787 0.5
v 20.14921 86.57717 0.5
v 8.214943 87.83151 0.5
v 9.051171 95.78769 1.5
v 19.99091 94.63787 1.5
v 20.14921 86.57717 1.5
v 8.214943 87.83151 1.5
vt 0.296875 0.484375
vt 0.2890625 0.484375
vt 0.2890625 0.546875
vt 0.296875 0.546875
f 199/577 195/578 194/579 198/580
vt 0.203125 0.484375
vt 0.1953125 0.484375
vt 0.1953125 0.546875
vt 0.203125 0.546875
f 196/581 200/582 197/583 193/584
vt 0.2890625 0.546875
vt 0.203125 0.546875
vt 0.203125 0.5546875
vt 0.2890625 0.5546875
f 194/585 193/586 197/587 198/588
vt 0.375 0.5546875
vt 0.2890625 0.5546875
vt 0.2890625 0.546875
vt 0.375 0.546875
f 199/589 200/590 196/591 195/592
vt 0.2890625 0.484375
vt 0.203125 0.484375
vt 0.203125 0.546875
vt 0.2890625 0.546875
f 195/593 196/594 193/595 194/596
vt 0.3828125 0.484375
vt 0.296875 0.484375
vt 0.296875 0.546875
vt 0.3828125 0.546875
f 200/597 199/598 198/599 197/600
o gunModel25
v 9.678342 101.7548 0.5
v 19.62356 100.7095 0.5
v 19.99091 94.63787 0.5
v 9.051171 95.78769 0.5
v 9.678342 101.7548 1.5
v 19.62356 100.7095 1.5
v 19.99091 94.63787 1.5
v 9.051171 95.78769 1.5
vt 0.9140625 0.5625
vt 0.90625 0.5625
vt 0.90625 0.609375
vt 0.9140625 0.609375
f 207/601 203/602 202/603 206/604
vt 0.828125 0.5625
vt 0.8203125 0.5625
vt 0.8203125 0.609375
vt 0.828125 0.609375
f 204/605 208/606 205/607 201/608
vt 0.90625 0.609375
vt 0.828125 0.609375
vt 0.828125 0.6171875
vt 0.90625 0.6171875
f 202/609 201/610 205/611 206/612
vt 0.984375 0.6171875
vt 0.90625 0.6171875
vt 0.90625 0.609375
vt 0.984375 0.609375
f 207/613 208/614 204/615 203/616
vt 0.90625 0.5625
vt 0.828125 0.5625
vt 0.828125 0.609375
vt 0.90625 0.609375
f 203/617 204/618 201/619 202/620
vt 0.9921875 0.5625
vt 0.9140625 0.5625
vt 0.9140625 0.609375
vt 0.9921875 0.609375
f 208/621 207/622 206/623 205/624
o gunModel26
v 9.991928 104.7384 0.5
v 18.94262 103.7976 0.5
v 19.62356 100.7095 0.5
v 9.678342 101.7548 0.5
v 9.991928 104.7384 1.5
v 18.94262 103.7976 1.5
v 19.62356 100.7095 1.5
v 9.678342 101.7548 1.5
vt 0.90625 0.5234375
vt 0.8984375 0.5234375
vt 0.8984375 0.546875
vt 0.90625 0.546875
f 215/625 211/626 210/627 214/628
vt 0.828125 0.5234375
vt 0.8203125 0.5234375
vt 0.8203125 0.546875
vt 0.828125 0.546875
f 212/629 216/630 213/631 209/632
vt 0.8984375 0.546875
vt 0.828125 0.546875
vt 0.828125 0.5546875
vt 0.8984375 0.5546875
f 210/633 209/634 213/635 214/636
vt 0.96875 0.5546875
vt 0.8984375 0.5546875
vt 0.8984375 0.546875
vt 0.96875 0.546875
f 215/637 216/638 212/639 211/640
vt 0.8984375 0.5234375
vt 0.828125 0.5234375
vt 0.828125 0.546875
vt 0.8984375 0.546875
f 211/641 212/642 209/643 210/644
vt 0.9765625 0.5234375
vt 0.90625 0.5234375
vt 0.90625 0.546875
vt 0.9765625 0.546875
f 216/645 215/646 214/647 213/648
o gunModel27
v 10.72363 111.7 0.5
v 14.70171 111.2819 0.5
v 18.94262 103.7976 0.5
v 9.991928 104.7384 0.5
v 10.72363 111.7 1.5
v 14.70171 111.2819 1.5
v 18.94262 103.7976 1.5
v 9.991928 104.7384 1.5
vt 0.8984375 0.4296875
vt 0.890625 0.4296875
vt 0.890625 0.484375
vt 0.8984375 0.484375
f 223/649 219/650 218/651 222/652
vt 0.828125 0.4296875
vt 0.8203125 0.4296875
vt 0.8203125 0.484375
vt 0.828125 0.484375
f 220/653 224/654 221/655 217/656
vt 0.890625 0.484375
vt 0.828125 0.484375
vt 0.828125 0.4921875
vt 0.890625 0.4921875
f 218/657 217/658 221/659 222/660
vt 0.953125 0.4921875
vt 0.890625 0.4921875
vt 0.890625 0.484375
vt 0.953125 0.484375
f 223/661 224/662 220/663 219/664
vt 0.890625 0.4296875
vt 0.828125 0.4296875
vt 0.828125 0.484375
vt 0.890625 0.484375
f 219/665 220/666 217/667 218/668
vt 0.9609375 0.4296875
vt 0.8984375 0.4296875
vt 0.8984375 0.484375
vt 0.9609375 0.484375
f 224/669 223/670 222/671 221/672
o gunModel28
v 10.25175 116.7772 0.5
v 10.25175 116.7772 0.5
v 14.70171 111.2819 0.5
v 10.72363 111.7 0.5
v 10.25175 116.7772 1.5
v 10.25175 116.7772 1.5
v 14.70171 111.2819 1.5
v 10.72363 111.7 1.5
vt 0.234375 0.3828125
vt 0.2265625 0.3828125
vt 0.2265625 0.421875
vt 0.234375 0.421875
f 231/673 227/674 226/675 230/676
vt 0.203125 0.3828125
vt 0.1953125 0.3828125
vt 0.1953125 0.421875
vt 0.203125 0.421875
f 228/677 232/678 229/679 225/680
vt 0.2265625 0.421875
vt 0.203125 0.421875
vt 0.203125 0.4296875
vt 0.2265625 0.4296875
f 226/681 225/682 229/683 230/684
vt 0.25 0.4296875
vt 0.2265625 0.4296875
vt 0.2265625 0.421875
vt 0.25 0.421875
f 231/685 232/686 228/687 227/688
vt 0.2265625 0.3828125
vt 0.203125 0.3828125
vt 0.203125 0.421875
vt 0.2265625 0.421875
f 227/689 228/690 225/691 226/692
vt 0.2578125 0.3828125
vt 0.234375 0.3828125
vt 0.234375 0.421875
vt 0.2578125 0.421875
f 232/693 231/694 230/695 229/696
o gunModel29
v 9.051171 95.78769 1.5
v 19.99091 94.63787 1.5
v 20.14921 86.57717 1.5
v 8.214943 87.83151 1.5
v 11.04021 95.57863 2.5
v 18.00187 94.84693 2.5
v 18.16016 86.78623 2.5
v 10.20399 87.62245 2.5
vt 0.296875 0.296875
vt 0.2890625 0.296875
vt 0.2890625 0.359375
vt 0.296875 0.359375
f 239/697 235/698 234/699 238/700
vt 0.203125 0.296875
vt 0.1953125 0.296875
vt 0.1953125 0.359375
vt 0.203125 0.359375
f 236/701 240/702 237/703 233/704
vt 0.2890625 0.359375
vt 0.203125 0.359375
vt 0.203125 0.3671875
vt 0.2890625 0.3671875
f 234/705 233/706 237/707 238/708
vt 0.375 0.3671875
vt 0.2890625 0.3671875
vt 0.2890625 0.359375
vt 0.375 0.359375
f 239/709 240/710 236/711 235/712
vt 0.2890625 0.296875
vt 0.203125 0.296875
vt 0.203125 0.359375
vt 0.2890625 0.359375
f 235/713 236/714 233/715 234/716
vt 0.3828125 0.296875
vt 0.296875 0.296875
vt 0.296875 0.359375
vt 0.3828125 0.359375
f 240/717 239/718 238/719 237/720
o gunModel30
v 9.678342 101.7548 1.5
v 19.62356 100.7095 1.5
v 19.99091 94.63787 1.5
v 9.051171 95.78769 1.5
v 11.66739 101.5458 2.5
v 17.63452 100.9186 2.5
v 18.00187 94.84693 2.5
v 11.04021 95.57863 2.5
vt 0.9140625 0.3125
vt 0.90625 0.3125
vt 0.90625 0.359375
vt 0.9140625 0.359375
f 247/721 243/722 242/723 246/724
vt 0.828125 0.3125
vt 0.8203125 0.3125
vt 0.8203125 0.359375
vt 0.828125 0.359375
f 244/725 248/726 245/727 241/728
vt 0.90625 0.359375
vt 0.828125 0.359375
vt 0.828125 0.3671875
vt 0.90625 0.3671875
f 242/729 241/730 245/731 246/732
vt 0.984375 0.3671875
vt 0.90625 0.3671875
vt 0.90625 0.359375
vt 0.984375 0.359375
f 247/733 248/734 244/735 243/736
vt 0.90625 0.3125
vt 0.828125 0.3125
vt 0.828125 0.359375
vt 0.90625 0.359375
f 243/737 244/738 241/739 242/740
vt 0.9921875 0.3125
vt 0.9140625 0.3125
vt 0.9140625 0.359375
vt 0.9921875 0.359375
f 248/741 247/742 246/743 245/744
o gunModel31
v 9.991928 104.7384 1.5
v 18.94262 103.7976 1.5
v 19.62356 100.7095 1.5
v 9.678342 101.7548 1.5
v 11.98097 104.5293 2.5
v 16.95358 104.0067 2.5
v 17.63452 100.9186 2.5
v 11.66739 101.5458 2.5
vt 0.90625 0.2734375
vt 0.8984375 0.2734375
vt 0.8984375 0.296875
vt 0.90625 0.296875
f 255/745 251/746 250/747 254/748
vt 0.828125 0.2734375
vt 0.8203125 0.2734375
vt 0.8203125 0.296875
vt 0.828125 0.296875
f 252/749 256/750 253/751 249/752
vt 0.8984375 0.296875
vt 0.828125 0.296875
vt 0.828125 0.3046875
vt 0.8984375 0.3046875
f 250/753 249/754 253/755 254/756
vt 0.96875 0.3046875
vt 0.8984375 0.3046875
vt 0.8984375 0.296875
vt 0.96875 0.296875
f 255/757 256/758 252/759 251/760
vt 0.8984375 0.2734375
vt 0.828125 0.2734375
vt 0.828125 0.296875
vt 0.8984375 0.296875
f 251/761 252/762 249/763 250/764
vt 0.9765625 0.2734375
vt 0.90625 0.2734375
vt 0.90625 0.296875
vt 0.9765625 0.296875
f 256/765 255/766 254/767 253/768
o gunModel32
v 10.25175 116.7772 1.5
v 10.25175 116.7772 1.5
v 14.70171 111.2819 1.5
v 10.72363 111.7 1.5
v 10.25175 116.7772 1.5
v 10.25175 116.7772 1.5
v 13.70719 111.3865 2.5
v 12.71267 111.491 2.5
vt 0.359375 0.3828125
vt 0.3515625 0.3828125
vt 0.3515625 0.421875
vt 0.359375 0.421875
f 263/769 259/770 258/771 262/772
vt 0.328125 0.3828125
vt 0.3203125 0.3828125
vt 0.3203125 0.421875
vt 0.328125 0.421875
f 260/773 264/774 261/775 257/776
vt 0.3515625 0.421875
vt 0.328125 0.421875
vt 0.328125 0.4296875
vt 0.3515625 0.4296875
f 258/777 257/778 261/779 262/780
vt 0.375 0.4296875
vt 0.3515625 0.4296875
vt 0.3515625 0.421875
vt 0.375 0.421875
f 263/781 264/782 260/783 259/784
vt 0.3515625 0.3828125
vt 0.328125 0.3828125
vt 0.328125 0.421875
vt 0.3515625 0.421875
f 259/785 260/786 257/787 258/788
vt 0.3828125 0.3828125
vt 0.359375 0.3828125
vt 0.359375 0.421875
vt 0.3828125 0.421875
f 264/789 263/790 262/791 261/792
o gunModel33
v 10.72363 111.7 1.5
v 14.70171 111.2819 1.5
v 18.94262 103.7976 1.5
v 9.991928 104.7384 1.5
v 12.71267 111.491 2.5
v 13.70719 111.3865 2.5
v 16.95358 104.0067 2.5
v 11.98097 104.5293 2.5
vt 0.2734375 0.1796875
vt 0.265625 0.1796875
vt 0.265625 0.234375
vt 0.2734375 0.234375
f 271/793 267/794 266/795 270/796
vt 0.203125 0.1796875
vt 0.1953125 0.1796875
vt 0.1953125 0.234375
vt 0.203125 0.234375
f 268/797 272/798 269/799 265/800
vt 0.265625 0.234375
vt 0.203125 0.234375
vt 0.203125 0.2421875
vt 0.265625 0.2421875
f 266/801 265/802 269/803 270/804
vt 0.328125 0.2421875
vt 0.265625 0.2421875
vt 0.265625 0.234375
vt 0.328125 0.234375
f 271/805 272/806 268/807 267/808
vt 0.265625 0.1796875
vt 0.203125 0.1796875
vt 0.203125 0.234375
vt 0.265625 0.234375
f 267/809 268/810 265/811 266/812
vt 0.3359375 0.1796875
vt 0.2734375 0.1796875
vt 0.2734375 0.234375
vt 0.3359375 0.234375
f 272/813 271/814 270/815 269/816
o gunModel34
v 11.04021 95.57863 -0.5
v 18.00187 94.84693 -0.5
v 18.16016 86.78623 -0.5
v 10.20399 87.62245 -0.5
v 9.051171 95.78769 0.5
v 19.99091 94.63787 0.5
v 20.14921 86.57717 0.5
v 8.214943 87.83151 0.5
vt 0.109375 0.046875
vt 0.1015625 0.046875
vt 0.1015625 0.109375
vt 0.109375 0.109375
f 279/817 275/818 274/819 278/820
vt 0.015625 0.046875
vt 0.0078125 0.046875
vt 0.0078125 0.109375
vt 0.015625 0.109375
f 276/821 280/822 277/823 273/824
vt 0.1015625 0.109375
vt 0.015625 0.109375
vt 0.015625 0.1171875
vt 0.1015625 0.1171875
f 274/825 273/826 277/827 278/828
vt 0.1875 0.1171875
vt 0.1015625 0.1171875
vt 0.1015625 0.109375
vt 0.1875 0.109375
f 279/829 280/830 276/831 275/832
vt 0.1015625 0.046875
vt 0.015625 0.046875
vt 0.015625 0.109375
vt 0.1015625 0.109375
f 275/833 276/834 273/835 274/836
vt 0.1953125 0.046875
vt 0.109375 0.046875
vt 0.109375 0.109375
vt 0.1953125 0.109375
f 280/837 279/838 278/839 277/840
o gunModel35
v 11.66739 101.5458 -0.5
v 17.63452 100.9186 -0.5
v 18.00187 94.84693 -0.5
v 11.04021 95.57863 -0.5
v 9.678342 101.7548 0.5
v 19.62356 100.7095 0.5
v 19.99091 94.63787 0.5
v 9.051171 95.78769 0.5
vt 0.9140625 0.1875
vt 0.90625 0.1875
vt 0.90625 0.234375
vt 0.9140625 0.234375
f 287/841 283/842 282/843 286/844
vt 0.828125 0.1875
vt 0.8203125 0.1875
vt 0.8203125 0.234375
vt 0.828125 0.234375
f 284/845 288/846 285/847 281/848
vt 0.90625 0.234375
vt 0.828125 0.234375
vt 0.828125 0.2421875
vt 0.90625 0.2421875
f 282/849 281/850 285/851 286/852
vt 0.984375 0.2421875
vt 0.90625 0.2421875
vt 0.90625 0.234375
vt 0.984375 0.234375
f 287/853 288/854 284/855 283/856
vt 0.90625 0.1875
vt 0.828125 0.1875
vt 0.828125 0.234375
vt 0.90625 0.234375
f 283/857 284/858 281/859 282/860
vt 0.9921875 0.1875
vt 0.9140625 0.1875
vt 0.9140625 0.234375
vt 0.9921875 0.234375
f 288/861 287/862 286/863 285/864
o gunModel36
v 11.98097 104.5293 -0.5
v 16.95358 104.0067 -0.5
v 17.63452 100.9186 -0.5
v 11.66739 101.5458 -0.5
v 9.991928 104.7384 0.5
v 18.94262 103.7976 0.5
v 19.62356 100.7095 0.5
v 9.678342 101.7548 0.5
vt 0.90625 0.1484375
vt 0.8984375 0.1484375
vt 0.8984375 0.171875
vt 0.90625 0.171875
f 295/865 291/866 290/867 294/868
vt 0.828125 0.1484375
vt 0.8203125 0.1484375
vt 0.8203125 0.171875
vt 0.828125 0.171875
f 292/869 296/870 293/871 289/872
vt 0.8984375 0.171875
vt 0.828125 0.171875
vt 0.828125 0.1796875
vt 0.8984375 0.1796875
f 290/873 289/874 293/875 294/876
vt 0.96875 0.1796875
vt 0.8984375 0.1796875
vt 0.8984375 0.171875
vt 0.96875 0.171875
f 295/877 296/878 292/879 291/880
vt 0.8984375 0.1484375
vt 0.828125 0.1484375
vt 0.828125 0.171875
vt 0.8984375 0.171875
f 291/881 292/882 289/883 290/884
vt 0.9765625 0.1484375
vt 0.90625 0.1484375
vt 0.90625 0.171875
vt 0.9765625 0.171875
f 296/885 295/886 294/887 293/888
o gunModel37
v 10.25175 116.7772 0.5
v 10.25175 116.7772 0.5
v 13.70719 111.3865 -0.5
v 12.71267 111.491 -0.5
v 10.25175 116.7772 0.5
v 10.25175 116.7772 0.5
v 14.70171 111.2819 0.5
v 10.72363 111.7 0.5
vt 0.296875 0.0703125
vt 0.2890625 0.0703125
vt 0.2890625 0.109375
vt 0.296875 0.109375
f 303/889 299/890 298/891 302/892
vt 0.265625 0.0703125
vt 0.2578125 0.0703125
vt 0.2578125 0.109375
vt 0.265625 0.109375
f 300/893 304/894 301/895 297/896
vt 0.2890625 0.109375
vt 0.265625 0.109375
vt 0.265625 0.1171875
vt 0.2890625 0.1171875
f 298/897 297/898 301/899 302/900
vt 0.3125 0.1171875
vt 0.2890625 0.1171875
vt 0.2890625 0.109375
vt 0.3125 0.109375
f 303/901 304/902 300/903 299/904
vt 0.2890625 0.0703125
vt 0.265625 0.0703125
vt 0.265625 0.109375
vt 0.2890625 0.109375
f 299/905 300/906 297/907 298/908
vt 0.3203125 0.0703125
vt 0.296875 0.0703125
vt 0.296875 0.109375
vt 0.3203125 0.109375
f 304/909 303/910 302/911 301/912
o gunModel38
v 12.71267 111.491 -0.5
v 13.70719 111.3865 -0.5
v 16.95358 104.0067 -0.5
v 11.98097 104.5293 -0.5
v 10.72363 111.7 0.5
v 14.70171 111.2819 0.5
v 18.94262 103.7976 0.5
v 9.991928 104.7384 0.5
vt 0.4609375 0.0546875
vt 0.453125 0.0546875
vt 0.453125 0.109375
vt 0.4609375 0.109375
f 311/913 307/914 306/915 310/916
vt 0.390625 0.0546875
vt 0.3828125 0.0546875
vt 0.3828125 0.109375
vt 0.390625 0.109375
f 308/917 312/918 309/919 305/920
vt 0.453125 0.109375
vt 0.390625 0.109375
vt 0.390625 0.1171875
vt 0.453125 0.1171875
f 306/921 305/922 309/923 310/924
vt 0.515625 0.1171875
vt 0.453125 0.1171875
vt 0.453125 0.109375
vt 0.515625 0.109375
f 311/925 312/926 308/927 307/928
vt 0.453125 0.0546875
vt 0.390625 0.0546875
vt 0.390625 0.109375
vt 0.453125 0.109375
f 307/929 308/930 305/931 306/932
vt 0.5234375 0.0546875
vt 0.4609375 0.0546875
vt 0.4609375 0.109375
vt 0.5234375 0.109375
f 312/933 311/934 310/935 309/936
o gunModel39
v 5.294149 21.77495 -1.5
v 7.283193 21.5659 -1.5
v 7.074136 19.57685 -1.5
v 5.085092 19.78591 -1.5
v 5.294149 21.77495 3.5
v 7.283193 21.5659 3.5
v 7.074136 19.57685 3.5
v 5.085092 19.78591 3.5
vt 0.4140625 0.125
vt 0.375 0.125
vt 0.375 0.140625
vt 0.4140625 0.140625
f 319/937 315/938 314/939 318/940
vt 0.359375 0.125
vt 0.3203125 0.125
vt 0.3203125 0.140625
vt 0.359375 0.140625
f 316/941 320/942 317/943 313/944
vt 0.375 0.140625
vt 0.359375 0.140625
vt 0.359375 0.1796875
vt 0.375 0.1796875
f 314/945 313/946 317/947 318/948
vt 0.390625 0.1796875
vt 0.375 0.1796875
vt 0.375 0.140625
vt 0.390625 0.140625
f 319/949 320/950 316/951 315/952
vt 0.375 0.125
vt 0.359375 0.125
vt 0.359375 0.140625
vt 0.375 0.140625
f 315/953 316/954 313/955 314/956
vt 0.4296875 0.125
vt 0.4140625 0.125
vt 0.4140625 0.140625
vt 0.4296875 0.140625
f 320/957 319/958 318/959 317/960
o gunModel40
v 4.1966 11.33247 -1.5
v 6.185644 11.12342 -1.5
v 5.976586 9.134372 -1.5
v 3.987543 9.343429 -1.5
v 4.1966 11.33247 3.5
v 6.185644 11.12342 3.5
v 5.976586 9.134372 3.5
v 3.987543 9.343429 3.5
vt 0.6640625 0.0625
vt 0.625 0.0625
vt 0.625 0.078125
vt 0.6640625 0.078125
f 327/961 323/962 322/963 326/964
vt 0.609375 0.0625
vt 0.5703125 0.0625
vt 0.5703125 0.078125
vt 0.609375 0.078125
f 324/965 328/966 325/967 321/968
vt 0.625 0.078125
vt 0.609375 0.078125
vt 0.609375 0.1171875
vt 0.625 0.1171875
f 322/969 321/970 325/971 326/972
vt 0.640625 0.1171875
vt 0.625 0.1171875
vt 0.625 0.078125
vt 0.640625 0.078125
f 327/973 328/974 324/975 323/976
vt 0.625 0.0625
vt 0.609375 0.0625
vt 0.609375 0.078125
vt 0.625 0.078125
f 323/977 324/978 321/979 322/980
vt 0.6796875 0.0625
vt 0.6640625 0.0625
vt 0.6640625 0.078125
vt 0.6796875 0.078125
f 328/981 327/982 326/983 325/984
o gunModel41
v 3.09905 0.8899934 -1.5
v 5.088094 0.6809364 -1.5
v 4.879037 -1.308107 -1.5
v 2.889993 -1.09905 -1.5
v 3.09905 0.8899934 3.5
v 5.088094 0.6809364 3.5
v 4.879037 -1.308107 3.5
v 2.889993 -1.09905 3.5
vt 0.7890625 0.0625
vt 0.75 0.0625
vt 0.75 0.078125
vt 0.7890625 0.078125
f 335/985 331/986 330/987 334/988
vt 0.734375 0.0625
vt 0.6953125 0.0625
vt 0.6953125 0.078125
vt 0.734375 0.078125
f 332/989 336/990 333/991 329/992
vt 0.75 0.078125
vt 0.734375 0.078125
vt 0.734375 0.1171875
vt 0.75 0.1171875
f 330/993 329/994 333/995 334/996
vt 0.765625 0.1171875
vt 0.75 0.1171875
vt 0.75 0.078125
vt 0.765625 0.078125
f 335/997 336/998 332/999 331/1000
vt 0.75 0.0625
vt 0.734375 0.0625
vt 0.734375 0.078125
vt 0.75 0.078125
f 331/1001 332/1002 329/1003 330/1004
vt 0.8046875 0.0625
vt 0.7890625 0.0625
vt 0.7890625 0.078125
vt 0.8046875 0.078125
f 336/1005 335/1006 334/1007 333/1008
o gunModel42
v -0.8775361 -8.244379 -1.5
v 2.10603 -8.557965 -1.5
v 1.792444 -11.54153 -1.5
v -1.191122 -11.22794 -1.5
v -0.8775361 -8.244379 3.5
v 2.10603 -8.557965 3.5
v 1.792444 -11.54153 3.5
v -1.191122 -11.22794 3.5
vt 0.921875 0.0546875
vt 0.8828125 0.0546875
vt 0.8828125 0.078125
vt 0.921875 0.078125
f 343/1009 339/1010 338/1011 342/1012
vt 0.859375 0.0546875
vt 0.8203125 0.0546875
vt 0.8203125 0.078125
vt 0.859375 0.078125
f 340/1013 344/1014 341/1015 337/1016
vt 0.8828125 0.078125
vt 0.859375 0.078125
vt 0.859375 0.1171875
vt 0.8828125 0.1171875
f 338/1017 337/1018 341/1019 342/1020
vt 0.90625 0.1171875
vt 0.8828125 0.1171875
vt 0.8828125 0.078125
vt 0.90625 0.078125
f 343/1021 344/1022 340/1023 339/1024
vt 0.8828125 0.0546875
vt 0.859375 0.0546875
vt 0.859375 0.078125
vt 0.8828125 0.078125
f 339/1025 340/1026 337/1027 338/1028
vt 0.9453125 0.0546875
vt 0.921875 0.0546875
vt 0.921875 0.078125
vt 0.9453125 0.078125
f 344/1029 343/1030 342/1031 341/1032
