# Converted from Decimation Beardie model: trashbag1.bmodel
# Coordinates retain the original Beardie model units.
mtllib trashbag1.mtl
usemtl trashbag1_material
o baseModel0
v -4 8 -3
v 3.794961 8 -1.200392
v 3.794961 5 -1.200392
v -4 5 -3
v -5.799608 8 4.794961
v 1.995352 8 6.594569
v 1.995352 5 6.594569
v -5.799608 5 4.794961
vt 0.1953125 0.8125
vt 0.1328125 0.8125
vt 0.1328125 0.859375
vt 0.1953125 0.859375
f 7/1 3/2 2/3 6/4
vt 0.0703125 0.8125
vt 0.0078125 0.8125
vt 0.0078125 0.859375
vt 0.0703125 0.859375
f 4/5 8/6 5/7 1/8
vt 0.1328125 0.859375
vt 0.0703125 0.859375
vt 0.0703125 0.984375
vt 0.1328125 0.984375
f 2/9 1/10 5/11 6/12
vt 0.1953125 0.984375
vt 0.1328125 0.984375
vt 0.1328125 0.859375
vt 0.1953125 0.859375
f 7/13 8/14 4/15 3/16
vt 0.1328125 0.8125
vt 0.0703125 0.8125
vt 0.0703125 0.859375
vt 0.1328125 0.859375
f 3/17 4/18 1/19 2/20
vt 0.2578125 0.8125
vt 0.1953125 0.8125
vt 0.1953125 0.859375
vt 0.2578125 0.859375
f 8/21 7/22 6/23 5/24
o baseModel1
v -4.364187 5 -3.606109
v 5.33877 5 -1.18689
v 5.33877 1 -1.18689
v -4.364187 1 -3.606109
v -6.541484 5 5.126553
v 3.161473 5 7.545772
v 3.161473 1 7.545772
v -6.541484 1 5.126553
vt 0.5390625 0.78125
vt 0.46875 0.78125
vt 0.46875 0.84375
vt 0.5390625 0.84375
f 15/25 11/26 10/27 14/28
vt 0.390625 0.78125
vt 0.3203125 0.78125
vt 0.3203125 0.84375
vt 0.390625 0.84375
f 12/29 16/30 13/31 9/32
vt 0.46875 0.84375
vt 0.390625 0.84375
vt 0.390625 0.984375
vt 0.46875 0.984375
f 10/33 9/34 13/35 14/36
vt 0.546875 0.984375
vt 0.46875 0.984375
vt 0.46875 0.84375
vt 0.546875 0.84375
f 15/37 16/38 12/39 11/40
vt 0.46875 0.78125
vt 0.390625 0.78125
vt 0.390625 0.84375
vt 0.46875 0.84375
f 11/41 12/42 9/43 10/44
vt 0.6171875 0.78125
vt 0.5390625 0.78125
vt 0.5390625 0.84375
vt 0.6171875 0.84375
f 16/45 15/46 14/47 13/48
o baseModel2
v -4.010393 10.00855 -2.429366
v 1.674231 9.511209 -0.5752639
v 1.238453 4.530235 -0.5752639
v -4.446172 5.027575 -2.429366
v -6.165281 10.19708 4.228029
v -0.4806564 9.699737 6.082132
v -0.9164351 4.718764 6.082132
v -6.60106 5.216104 4.228029
vt 0.7890625 0.796875
vt 0.734375 0.796875
vt 0.734375 0.875
vt 0.7890625 0.875
f 23/49 19/50 18/51 22/52
vt 0.6875 0.796875
vt 0.6328125 0.796875
vt 0.6328125 0.875
vt 0.6875 0.875
f 20/53 24/54 21/55 17/56
vt 0.734375 0.875
vt 0.6875 0.875
vt 0.6875 0.984375
vt 0.734375 0.984375
f 18/57 17/58 21/59 22/60
vt 0.78125 0.984375
vt 0.734375 0.984375
vt 0.734375 0.875
vt 0.78125 0.875
f 23/61 24/62 20/63 19/64
vt 0.734375 0.796875
vt 0.6875 0.796875
vt 0.6875 0.875
vt 0.734375 0.875
f 19/65 20/66 17/67 18/68
vt 0.8359375 0.796875
vt 0.7890625 0.796875
vt 0.7890625 0.875
vt 0.8359375 0.875
f 24/69 23/70 22/71 21/72
o baseModel3
v -4.938943 11 -1.234105
v -0.5242052 11 1.113253
v -0.5242052 9 1.113253
v -4.938943 9 -1.234105
v -6.816829 11 2.297686
v -2.402091 11 4.645043
v -2.402091 9 4.645043
v -6.816829 9 2.297686
vt 0.921875 0.890625
vt 0.890625 0.890625
vt 0.890625 0.921875
vt 0.921875 0.921875
f 31/73 27/74 26/75 30/76
vt 0.8515625 0.890625
vt 0.8203125 0.890625
vt 0.8203125 0.921875
vt 0.8515625 0.921875
f 28/77 32/78 29/79 25/80
vt 0.890625 0.921875
vt 0.8515625 0.921875
vt 0.8515625 0.984375
vt 0.890625 0.984375
f 26/81 25/82 29/83 30/84
vt 0.9296875 0.984375
vt 0.890625 0.984375
vt 0.890625 0.921875
vt 0.9296875 0.921875
f 31/85 32/86 28/87 27/88
vt 0.890625 0.890625
vt 0.8515625 0.890625
vt 0.8515625 0.921875
vt 0.890625 0.921875
f 27/89 28/90 25/91 26/92
vt 0.9609375 0.890625
vt 0.921875 0.890625
vt 0.921875 0.921875
vt 0.9609375 0.921875
f 32/93 31/94 30/95 29/96
o baseModel4
v -4.83522 12.08835 0.4406086
v -3.20315 11.94556 1.587761
v -3.290306 10.94937 1.587761
v -4.922376 11.09216 0.4406086
v -5.978008 12.18833 2.078913
v -4.345938 12.04554 3.226066
v -4.433094 11.04935 3.226066
v -6.065164 11.19214 2.078913
vt 0.3046875 0.9375
vt 0.2890625 0.9375
vt 0.2890625 0.953125
vt 0.3046875 0.953125
f 39/97 35/98 34/99 38/100
vt 0.2734375 0.9375
vt 0.2578125 0.9375
vt 0.2578125 0.953125
vt 0.2734375 0.953125
f 36/101 40/102 37/103 33/104
vt 0.2890625 0.953125
vt 0.2734375 0.953125
vt 0.2734375 0.984375
vt 0.2890625 0.984375
f 34/105 33/106 37/107 38/108
vt 0.3046875 0.984375
vt 0.2890625 0.984375
vt 0.2890625 0.953125
vt 0.3046875 0.953125
f 39/109 40/110 36/111 35/112
vt 0.2890625 0.9375
vt 0.2734375 0.9375
vt 0.2734375 0.953125
vt 0.2890625 0.953125
f 35/113 36/114 33/115 34/116
vt 0.3203125 0.9375
vt 0.3046875 0.9375
vt 0.3046875 0.953125
vt 0.3203125 0.953125
f 40/117 39/118 38/119 37/120
o baseModel5
v -4 1 -3
v 4.732662 1 -0.8227029
v 4.732662 -0 -0.8227029
v -4 -0 -3
v -5.935375 1 4.762366
v 2.797286 1 6.939663
v 2.797286 -0 6.939663
v -5.935375 -0 4.762366
vt 0.203125 0.59375
vt 0.140625 0.59375
vt 0.140625 0.609375
vt 0.203125 0.609375
f 47/121 43/122 42/123 46/124
vt 0.0703125 0.59375
vt 0.0078125 0.59375
vt 0.0078125 0.609375
vt 0.0703125 0.609375
f 44/125 48/126 45/127 41/128
vt 0.140625 0.609375
vt 0.0703125 0.609375
vt 0.0703125 0.734375
vt 0.140625 0.734375
f 42/129 41/130 45/131 46/132
vt 0.2109375 0.734375
vt 0.140625 0.734375
vt 0.140625 0.609375
vt 0.2109375 0.609375
f 47/133 48/134 44/135 43/136
vt 0.140625 0.59375
vt 0.0703125 0.59375
vt 0.0703125 0.609375
vt 0.140625 0.609375
f 43/137 44/138 41/139 42/140
vt 0.2734375 0.59375
vt 0.203125 0.59375
vt 0.203125 0.609375
vt 0.2734375 0.609375
f 48/141 47/142 46/143 45/144
o baseModel6
v -6.053006 13.03775 0.7123108
v -5.35117 12.95157 1.419418
v -5.473039 11.95903 1.419418
v -6.174875 12.0452 0.7123108
v -6.754842 13.12392 1.419418
v -6.053006 13.03775 2.126524
v -6.174875 12.0452 2.126524
v -6.876711 12.13138 1.419418
vt 0.03125 0.953125
vt 0.0234375 0.953125
vt 0.0234375 0.96875
vt 0.03125 0.96875
f 55/145 51/146 50/147 54/148
vt 0.015625 0.953125
vt 0.0078125 0.953125
vt 0.0078125 0.96875
vt 0.015625 0.96875
f 52/149 56/150 53/151 49/152
vt 0.0234375 0.96875
vt 0.015625 0.96875
vt 0.015625 0.984375
vt 0.0234375 0.984375
f 50/153 49/154 53/155 54/156
vt 0.03125 0.984375
vt 0.0234375 0.984375
vt 0.0234375 0.96875
vt 0.03125 0.96875
f 55/157 56/158 52/159 51/160
vt 0.0234375 0.953125
vt 0.015625 0.953125
vt 0.015625 0.96875
vt 0.0234375 0.96875
f 51/161 52/162 49/163 50/164
vt 0.0390625 0.953125
vt 0.03125 0.953125
vt 0.03125 0.96875
vt 0.0390625 0.96875
f 56/165 55/166 54/167 53/168
o baseModel7
v 3.782972 7 -0.8963474
v 4.77324 7 -0.7571744
v 4.77324 5 -0.7571744
v 3.782972 5 -0.8963474
v 2.947933 7 5.045261
v 3.938201 7 5.184434
v 3.938201 5 5.184434
v 2.947933 5 5.045261
vt 0.921875 0.734375
vt 0.875 0.734375
vt 0.875 0.765625
vt 0.921875 0.765625
f 63/169 59/170 58/171 62/172
vt 0.8671875 0.734375
vt 0.8203125 0.734375
vt 0.8203125 0.765625
vt 0.8671875 0.765625
f 60/173 64/174 61/175 57/176
vt 0.875 0.765625
vt 0.8671875 0.765625
vt 0.8671875 0.859375
vt 0.875 0.859375
f 58/177 57/178 61/179 62/180
vt 0.8828125 0.859375
vt 0.875 0.859375
vt 0.875 0.765625
vt 0.8828125 0.765625
f 63/181 64/182 60/183 59/184
vt 0.875 0.734375
vt 0.8671875 0.734375
vt 0.8671875 0.765625
vt 0.875 0.765625
f 59/185 60/186 57/187 58/188
vt 0.9296875 0.734375
vt 0.921875 0.734375
vt 0.921875 0.765625
vt 0.9296875 0.765625
f 64/189 63/190 62/191 61/192
o baseModel8
v 1.399199 9.033361 0.8966895
v 2.316202 8.953134 1.287421
v 2.229046 7.956939 1.287421
v 1.312044 8.037166 0.8966895
v -0.1577776 9.169579 4.578709
v 0.7592245 9.089352 4.96944
v 0.6720688 8.093157 4.96944
v -0.2449333 8.173384 4.578709
vt 0.640625 0.90625
vt 0.609375 0.90625
vt 0.609375 0.921875
vt 0.640625 0.921875
f 71/193 67/194 66/195 70/196
vt 0.6015625 0.90625
vt 0.5703125 0.90625
vt 0.5703125 0.921875
vt 0.6015625 0.921875
f 68/197 72/198 69/199 65/200
vt 0.609375 0.921875
vt 0.6015625 0.921875
vt 0.6015625 0.984375
vt 0.609375 0.984375
f 66/201 65/202 69/203 70/204
vt 0.6171875 0.984375
vt 0.609375 0.984375
vt 0.609375 0.921875
vt 0.6171875 0.921875
f 71/205 72/206 68/207 67/208
vt 0.609375 0.90625
vt 0.6015625 0.90625
vt 0.6015625 0.921875
vt 0.609375 0.921875
f 67/209 68/210 65/211 66/212
vt 0.6484375 0.90625
vt 0.640625 0.90625
vt 0.640625 0.921875
vt 0.6484375 0.921875
f 72/213 71/214 70/215 69/216
o baseModel9
v -6.429164 10.5 2.576662
v -4.751823 10.5 3.66594
v -4.751823 9.5 3.66594
v -6.429164 9.5 2.576662
v -6.973803 10.5 3.415333
v -5.296462 10.5 4.504611
v -5.296462 9.5 4.504611
v -6.973803 9.5 3.415333
vt 0.6640625 0.953125
vt 0.65625 0.953125
vt 0.65625 0.96875
vt 0.6640625 0.96875
f 79/217 75/218 74/219 78/220
vt 0.640625 0.953125
vt 0.6328125 0.953125
vt 0.6328125 0.96875
vt 0.640625 0.96875
f 76/221 80/222 77/223 73/224
vt 0.65625 0.96875
vt 0.640625 0.96875
vt 0.640625 0.984375
vt 0.65625 0.984375
f 74/225 73/226 77/227 78/228
vt 0.671875 0.984375
vt 0.65625 0.984375
vt 0.65625 0.96875
vt 0.671875 0.96875
f 79/229 80/230 76/231 75/232
vt 0.65625 0.953125
vt 0.640625 0.953125
vt 0.640625 0.96875
vt 0.65625 0.96875
f 75/233 76/234 73/235 74/236
vt 0.6796875 0.953125
vt 0.6640625 0.953125
vt 0.6640625 0.96875
vt 0.6796875 0.96875
f 80/237 79/238 78/239 77/240
