# Converted from Decimation Beardie model: plateCarrier.bmodel
# Coordinates retain the original Beardie model units.
mtllib plate_carrier.mtl
usemtl plate_carrier_material
o bodyModel0
v 2.25 0.5 -2.5
v 4.25 0.5 -2.5
v 4.25 -1.5 -2.5
v 2.25 -1.5 -2.5
v 2.25 0.5 2.5
v 4.25 0.5 2.5
v 4.25 -1.5 2.5
v 2.25 -1.5 2.5
vt 0.1015625 0.875
vt 0.0625 0.875
vt 0.0625 0.90625
vt 0.1015625 0.90625
f 7/1 3/2 2/3 6/4
vt 0.046875 0.875
vt 0.0078125 0.875
vt 0.0078125 0.90625
vt 0.046875 0.90625
f 4/5 8/6 5/7 1/8
vt 0.0625 0.90625
vt 0.046875 0.90625
vt 0.046875 0.984375
vt 0.0625 0.984375
f 2/9 1/10 5/11 6/12
vt 0.078125 0.984375
vt 0.0625 0.984375
vt 0.0625 0.90625
vt 0.078125 0.90625
f 7/13 8/14 4/15 3/16
vt 0.0625 0.875
vt 0.046875 0.875
vt 0.046875 0.90625
vt 0.0625 0.90625
f 3/17 4/18 1/19 2/20
vt 0.1171875 0.875
vt 0.1015625 0.875
vt 0.1015625 0.90625
vt 0.1171875 0.90625
f 8/21 7/22 6/23 5/24
o bodyModel1
v -4.25 0.5 -2.5
v -2.25 0.5 -2.5
v -2.25 -1.5 -2.5
v -4.25 -1.5 -2.5
v -4.25 0.5 2.5
v -2.25 0.5 2.5
v -2.25 -1.5 2.5
v -4.25 -1.5 2.5
vt 0.2265625 0.875
vt 0.1875 0.875
vt 0.1875 0.90625
vt 0.2265625 0.90625
f 15/25 11/26 10/27 14/28
vt 0.171875 0.875
vt 0.1328125 0.875
vt 0.1328125 0.90625
vt 0.171875 0.90625
f 12/29 16/30 13/31 9/32
vt 0.1875 0.90625
vt 0.171875 0.90625
vt 0.171875 0.984375
vt 0.1875 0.984375
f 10/33 9/34 13/35 14/36
vt 0.203125 0.984375
vt 0.1875 0.984375
vt 0.1875 0.90625
vt 0.203125 0.90625
f 15/37 16/38 12/39 11/40
vt 0.1875 0.875
vt 0.171875 0.875
vt 0.171875 0.90625
vt 0.1875 0.90625
f 11/41 12/42 9/43 10/44
vt 0.2421875 0.875
vt 0.2265625 0.875
vt 0.2265625 0.90625
vt 0.2421875 0.90625
f 16/45 15/46 14/47 13/48
o bodyModel2
v -4.5 -1.5 -2.5
v 4.5 -1.5 -2.5
v 4.5 -10.5 -2.5
v -4.5 -10.5 -2.5
v -4.5 -1.5 2.5
v 4.5 -1.5 2.5
v 4.5 -10.5 2.5
v -4.5 -10.5 2.5
vt 0.40625 0.765625
vt 0.3671875 0.765625
vt 0.3671875 0.90625
vt 0.40625 0.90625
f 23/49 19/50 18/51 22/52
vt 0.296875 0.765625
vt 0.2578125 0.765625
vt 0.2578125 0.90625
vt 0.296875 0.90625
f 20/53 24/54 21/55 17/56
vt 0.3671875 0.90625
vt 0.296875 0.90625
vt 0.296875 0.984375
vt 0.3671875 0.984375
f 18/57 17/58 21/59 22/60
vt 0.4375 0.984375
vt 0.3671875 0.984375
vt 0.3671875 0.90625
vt 0.4375 0.90625
f 23/61 24/62 20/63 19/64
vt 0.3671875 0.765625
vt 0.296875 0.765625
vt 0.296875 0.90625
vt 0.3671875 0.90625
f 19/65 20/66 17/67 18/68
vt 0.4765625 0.765625
vt 0.40625 0.765625
vt 0.40625 0.90625
vt 0.4765625 0.90625
f 24/69 23/70 22/71 21/72
o bodyModel3
v -2.5 -2.5 -3
v 2.5 -2.5 -3
v 2.5 -5.5 -3
v -2.5 -5.5 -3
v -2.5 -2.5 -2
v 2.5 -2.5 -2
v 2.5 -5.5 -2
v -2.5 -5.5 -2
vt 0.5 0.921875
vt 0.4921875 0.921875
vt 0.4921875 0.96875
vt 0.5 0.96875
f 31/73 27/74 26/75 30/76
vt 0.453125 0.921875
vt 0.4453125 0.921875
vt 0.4453125 0.96875
vt 0.453125 0.96875
f 28/77 32/78 29/79 25/80
vt 0.4921875 0.96875
vt 0.453125 0.96875
vt 0.453125 0.984375
vt 0.4921875 0.984375
f 26/81 25/82 29/83 30/84
vt 0.53125 0.984375
vt 0.4921875 0.984375
vt 0.4921875 0.96875
vt 0.53125 0.96875
f 31/85 32/86 28/87 27/88
vt 0.4921875 0.921875
vt 0.453125 0.921875
vt 0.453125 0.96875
vt 0.4921875 0.96875
f 27/89 28/90 25/91 26/92
vt 0.5390625 0.921875
vt 0.5 0.921875
vt 0.5 0.96875
vt 0.5390625 0.96875
f 32/93 31/94 30/95 29/96
o bodyModel4
v -4 -2 -2.8
v 4 -2 -2.8
v 4 -3 -2.8
v -4 -3 -2.8
v -4 -2 -1.8
v 4 -2 -1.8
v 4 -3 -1.8
v -4 -3 -1.8
vt 0.6484375 0.953125
vt 0.640625 0.953125
vt 0.640625 0.96875
vt 0.6484375 0.96875
f 39/97 35/98 34/99 38/100
vt 0.578125 0.953125
vt 0.5703125 0.953125
vt 0.5703125 0.96875
vt 0.578125 0.96875
f 36/101 40/102 37/103 33/104
vt 0.640625 0.96875
vt 0.578125 0.96875
vt 0.578125 0.984375
vt 0.640625 0.984375
f 34/105 33/106 37/107 38/108
vt 0.703125 0.984375
vt 0.640625 0.984375
vt 0.640625 0.96875
vt 0.703125 0.96875
f 39/109 40/110 36/111 35/112
vt 0.640625 0.953125
vt 0.578125 0.953125
vt 0.578125 0.96875
vt 0.640625 0.96875
f 35/113 36/114 33/115 34/116
vt 0.7109375 0.953125
vt 0.6484375 0.953125
vt 0.6484375 0.96875
vt 0.7109375 0.96875
f 40/117 39/118 38/119 37/120
o bodyModel5
v -4 -3.5 -2.8
v 4 -3.5 -2.8
v 4 -4.5 -2.8
v -4 -4.5 -2.8
v -4 -3.5 -1.8
v 4 -3.5 -1.8
v 4 -4.5 -1.8
v -4 -4.5 -1.8
vt 0.8359375 0.953125
vt 0.828125 0.953125
vt 0.828125 0.96875
vt 0.8359375 0.96875
f 47/121 43/122 42/123 46/124
vt 0.765625 0.953125
vt 0.7578125 0.953125
vt 0.7578125 0.96875
vt 0.765625 0.96875
f 44/125 48/126 45/127 41/128
vt 0.828125 0.96875
vt 0.765625 0.96875
vt 0.765625 0.984375
vt 0.828125 0.984375
f 42/129 41/130 45/131 46/132
vt 0.890625 0.984375
vt 0.828125 0.984375
vt 0.828125 0.96875
vt 0.890625 0.96875
f 47/133 48/134 44/135 43/136
vt 0.828125 0.953125
vt 0.765625 0.953125
vt 0.765625 0.96875
vt 0.828125 0.96875
f 43/137 44/138 41/139 42/140
vt 0.8984375 0.953125
vt 0.8359375 0.953125
vt 0.8359375 0.96875
vt 0.8984375 0.96875
f 48/141 47/142 46/143 45/144
o bodyModel6
v -4 -5 -2.8
v 4 -5 -2.8
v 4 -6 -2.8
v -4 -6 -2.8
v -4 -5 -1.8
v 4 -5 -1.8
v 4 -6 -1.8
v -4 -6 -1.8
vt 0.0859375 0.828125
vt 0.078125 0.828125
vt 0.078125 0.84375
vt 0.0859375 0.84375
f 55/145 51/146 50/147 54/148
vt 0.015625 0.828125
vt 0.0078125 0.828125
vt 0.0078125 0.84375
vt 0.015625 0.84375
f 52/149 56/150 53/151 49/152
vt 0.078125 0.84375
vt 0.015625 0.84375
vt 0.015625 0.859375
vt 0.078125 0.859375
f 50/153 49/154 53/155 54/156
vt 0.140625 0.859375
vt 0.078125 0.859375
vt 0.078125 0.84375
vt 0.140625 0.84375
f 55/157 56/158 52/159 51/160
vt 0.078125 0.828125
vt 0.015625 0.828125
vt 0.015625 0.84375
vt 0.078125 0.84375
f 51/161 52/162 49/163 50/164
vt 0.1484375 0.828125
vt 0.0859375 0.828125
vt 0.0859375 0.84375
vt 0.1484375 0.84375
f 56/165 55/166 54/167 53/168
o bodyModel7
v -4 -6.5 -2.8
v 4 -6.5 -2.8
v 4 -7.5 -2.8
v -4 -7.5 -2.8
v -4 -6.5 -1.8
v 4 -6.5 -1.8
v 4 -7.5 -1.8
v -4 -7.5 -1.8
vt 0.5859375 0.828125
vt 0.578125 0.828125
vt 0.578125 0.84375
vt 0.5859375 0.84375
f 63/169 59/170 58/171 62/172
vt 0.515625 0.828125
vt 0.5078125 0.828125
vt 0.5078125 0.84375
vt 0.515625 0.84375
f 60/173 64/174 61/175 57/176
vt 0.578125 0.84375
vt 0.515625 0.84375
vt 0.515625 0.859375
vt 0.578125 0.859375
f 58/177 57/178 61/179 62/180
vt 0.640625 0.859375
vt 0.578125 0.859375
vt 0.578125 0.84375
vt 0.640625 0.84375
f 63/181 64/182 60/183 59/184
vt 0.578125 0.828125
vt 0.515625 0.828125
vt 0.515625 0.84375
vt 0.578125 0.84375
f 59/185 60/186 57/187 58/188
vt 0.6484375 0.828125
vt 0.5859375 0.828125
vt 0.5859375 0.84375
vt 0.6484375 0.84375
f 64/189 63/190 62/191 61/192
o bodyModel8
v -4 -8 -2.8
v 4 -8 -2.8
v 4 -9 -2.8
v -4 -9 -2.8
v -4 -8 -1.8
v 4 -8 -1.8
v 4 -9 -1.8
v -4 -9 -1.8
vt 0.7734375 0.828125
vt 0.765625 0.828125
vt 0.765625 0.84375
vt 0.7734375 0.84375
f 71/193 67/194 66/195 70/196
vt 0.703125 0.828125
vt 0.6953125 0.828125
vt 0.6953125 0.84375
vt 0.703125 0.84375
f 68/197 72/198 69/199 65/200
vt 0.765625 0.84375
vt 0.703125 0.84375
vt 0.703125 0.859375
vt 0.765625 0.859375
f 66/201 65/202 69/203 70/204
vt 0.828125 0.859375
vt 0.765625 0.859375
vt 0.765625 0.84375
vt 0.828125 0.84375
f 71/205 72/206 68/207 67/208
vt 0.765625 0.828125
vt 0.703125 0.828125
vt 0.703125 0.84375
vt 0.765625 0.84375
f 67/209 68/210 65/211 66/212
vt 0.8359375 0.828125
vt 0.7734375 0.828125
vt 0.7734375 0.84375
vt 0.8359375 0.84375
f 72/213 71/214 70/215 69/216
o bodyModel9
v -3.5 -10.5 -2.5
v 3.5 -10.5 -2.5
v 3.5 -11.5 -2.5
v -3.5 -11.5 -2.5
v -3.5 -10.5 2.5
v 3.5 -10.5 2.5
v 3.5 -11.5 2.5
v -3.5 -11.5 2.5
vt 0.140625 0.640625
vt 0.1015625 0.640625
vt 0.1015625 0.65625
vt 0.140625 0.65625
f 79/217 75/218 74/219 78/220
vt 0.046875 0.640625
vt 0.0078125 0.640625
vt 0.0078125 0.65625
vt 0.046875 0.65625
f 76/221 80/222 77/223 73/224
vt 0.1015625 0.65625
vt 0.046875 0.65625
vt 0.046875 0.734375
vt 0.1015625 0.734375
f 74/225 73/226 77/227 78/228
vt 0.15625 0.734375
vt 0.1015625 0.734375
vt 0.1015625 0.65625
vt 0.15625 0.65625
f 79/229 80/230 76/231 75/232
vt 0.1015625 0.640625
vt 0.046875 0.640625
vt 0.046875 0.65625
vt 0.1015625 0.65625
f 75/233 76/234 73/235 74/236
vt 0.1953125 0.640625
vt 0.140625 0.640625
vt 0.140625 0.65625
vt 0.1953125 0.65625
f 80/237 79/238 78/239 77/240
o bodyModel10
v -4 -9.5 -2.8
v 4 -9.5 -2.8
v 4 -10.5 -2.8
v -4 -10.5 -2.8
v -4 -9.5 -1.8
v 4 -9.5 -1.8
v 4 -10.5 -1.8
v -4 -10.5 -1.8
vt 0.2734375 0.703125
vt 0.265625 0.703125
vt 0.265625 0.71875
vt 0.2734375 0.71875
f 87/241 83/242 82/243 86/244
vt 0.203125 0.703125
vt 0.1953125 0.703125
vt 0.1953125 0.71875
vt 0.203125 0.71875
f 84/245 88/246 85/247 81/248
vt 0.265625 0.71875
vt 0.203125 0.71875
vt 0.203125 0.734375
vt 0.265625 0.734375
f 82/249 81/250 85/251 86/252
vt 0.328125 0.734375
vt 0.265625 0.734375
vt 0.265625 0.71875
vt 0.328125 0.71875
f 87/253 88/254 84/255 83/256
vt 0.265625 0.703125
vt 0.203125 0.703125
vt 0.203125 0.71875
vt 0.265625 0.71875
f 83/257 84/258 81/259 82/260
vt 0.3359375 0.703125
vt 0.2734375 0.703125
vt 0.2734375 0.71875
vt 0.3359375 0.71875
f 88/261 87/262 86/263 85/264
o bodyModel11
v -5.265425 -6.6349 -3.033438
v -2.38164 -6.6349 -3.86035
v -2.333542 -11.63185 -3.692613
v -5.217327 -11.63185 -2.8657
v -4.714486 -6.5651 -1.112086
v -1.830701 -6.5651 -1.938998
v -1.782603 -11.56205 -1.77126
v -4.666388 -11.56205 -0.9443482
vt 0.9375 0.75
vt 0.921875 0.75
vt 0.921875 0.828125
vt 0.9375 0.828125
f 95/265 91/266 90/267 94/268
vt 0.8984375 0.75
vt 0.8828125 0.75
vt 0.8828125 0.828125
vt 0.8984375 0.828125
f 92/269 96/270 93/271 89/272
vt 0.921875 0.828125
vt 0.8984375 0.828125
vt 0.8984375 0.859375
vt 0.921875 0.859375
f 90/273 89/274 93/275 94/276
vt 0.9453125 0.859375
vt 0.921875 0.859375
vt 0.921875 0.828125
vt 0.9453125 0.828125
f 95/277 96/278 92/279 91/280
vt 0.921875 0.75
vt 0.8984375 0.75
vt 0.8984375 0.828125
vt 0.921875 0.828125
f 91/281 92/282 89/283 90/284
vt 0.9609375 0.75
vt 0.9375 0.75
vt 0.9375 0.828125
vt 0.9609375 0.828125
f 96/285 95/286 94/287 93/288
o bodyModel12
v 2.285514 -6.6349 -3.887914
v 5.169299 -6.6349 -3.061002
v 5.121201 -11.63185 -2.893264
v 2.237416 -11.63185 -3.720176
v 1.734575 -6.5651 -1.966562
v 4.61836 -6.5651 -1.13965
v 4.570262 -11.56205 -0.9719119
v 1.686477 -11.56205 -1.798824
vt 0.4375 0.625
vt 0.421875 0.625
vt 0.421875 0.703125
vt 0.4375 0.703125
f 103/289 99/290 98/291 102/292
vt 0.3984375 0.625
vt 0.3828125 0.625
vt 0.3828125 0.703125
vt 0.3984375 0.703125
f 100/293 104/294 101/295 97/296
vt 0.421875 0.703125
vt 0.3984375 0.703125
vt 0.3984375 0.734375
vt 0.421875 0.734375
f 98/297 97/298 101/299 102/300
vt 0.4453125 0.734375
vt 0.421875 0.734375
vt 0.421875 0.703125
vt 0.4453125 0.703125
f 103/301 104/302 100/303 99/304
vt 0.421875 0.625
vt 0.3984375 0.625
vt 0.3984375 0.703125
vt 0.421875 0.703125
f 99/305 100/306 97/307 98/308
vt 0.4609375 0.625
vt 0.4375 0.625
vt 0.4375 0.703125
vt 0.4609375 0.703125
f 104/309 103/310 102/311 101/312
o bodyModel13
v -2.65835 -7.0349 -3.31056
v -0.6887346 -7.0349 -3.657856
v -0.6644937 -11.03246 -3.520379
v -2.634109 -11.03246 -3.173082
v -2.311265 -6.9651 -1.342144
v -0.3416499 -6.9651 -1.68944
v -0.3174089 -10.96266 -1.551963
v -2.287024 -10.96266 -1.204667
vt 0.5546875 0.640625
vt 0.5390625 0.640625
vt 0.5390625 0.703125
vt 0.5546875 0.703125
f 111/313 107/314 106/315 110/316
vt 0.5234375 0.640625
vt 0.5078125 0.640625
vt 0.5078125 0.703125
vt 0.5234375 0.703125
f 108/317 112/318 109/319 105/320
vt 0.5390625 0.703125
vt 0.5234375 0.703125
vt 0.5234375 0.734375
vt 0.5390625 0.734375
f 106/321 105/322 109/323 110/324
vt 0.5546875 0.734375
vt 0.5390625 0.734375
vt 0.5390625 0.703125
vt 0.5546875 0.703125
f 111/325 112/326 108/327 107/328
vt 0.5390625 0.640625
vt 0.5234375 0.640625
vt 0.5234375 0.703125
vt 0.5390625 0.703125
f 107/329 108/330 105/331 106/332
vt 0.5703125 0.640625
vt 0.5546875 0.640625
vt 0.5546875 0.703125
vt 0.5703125 0.703125
f 112/333 111/334 110/335 109/336
o bodyModel14
v 0.6887346 -7.0349 -3.657856
v 2.65835 -7.0349 -3.31056
v 2.634109 -11.03246 -3.173082
v 0.6644937 -11.03246 -3.520379
v 0.3416499 -6.9651 -1.68944
v 2.311265 -6.9651 -1.342144
v 2.287024 -10.96266 -1.204667
v 0.3174089 -10.96266 -1.551963
vt 0.6796875 0.640625
vt 0.6640625 0.640625
vt 0.6640625 0.703125
vt 0.6796875 0.703125
f 119/337 115/338 114/339 118/340
vt 0.6484375 0.640625
vt 0.6328125 0.640625
vt 0.6328125 0.703125
vt 0.6484375 0.703125
f 116/341 120/342 117/343 113/344
vt 0.6640625 0.703125
vt 0.6484375 0.703125
vt 0.6484375 0.734375
vt 0.6640625 0.734375
f 114/345 113/346 117/347 118/348
vt 0.6796875 0.734375
vt 0.6640625 0.734375
vt 0.6640625 0.703125
vt 0.6796875 0.703125
f 119/349 120/350 116/351 115/352
vt 0.6640625 0.640625
vt 0.6484375 0.640625
vt 0.6484375 0.703125
vt 0.6640625 0.703125
f 115/353 116/354 113/355 114/356
vt 0.6953125 0.640625
vt 0.6796875 0.640625
vt 0.6796875 0.703125
vt 0.6953125 0.703125
f 120/357 119/358 118/359 117/360
o bodyModel15
v -4 -2 1.8
v 4 -2 1.8
v 4 -3 1.8
v -4 -3 1.8
v -4 -2 2.8
v 4 -2 2.8
v 4 -3 2.8
v -4 -3 2.8
vt 0.8359375 0.703125
vt 0.828125 0.703125
vt 0.828125 0.71875
vt 0.8359375 0.71875
f 127/361 123/362 122/363 126/364
vt 0.765625 0.703125
vt 0.7578125 0.703125
vt 0.7578125 0.71875
vt 0.765625 0.71875
f 124/365 128/366 125/367 121/368
vt 0.828125 0.71875
vt 0.765625 0.71875
vt 0.765625 0.734375
vt 0.828125 0.734375
f 122/369 121/370 125/371 126/372
vt 0.890625 0.734375
vt 0.828125 0.734375
vt 0.828125 0.71875
vt 0.890625 0.71875
f 127/373 128/374 124/375 123/376
vt 0.828125 0.703125
vt 0.765625 0.703125
vt 0.765625 0.71875
vt 0.828125 0.71875
f 123/377 124/378 121/379 122/380
vt 0.8984375 0.703125
vt 0.8359375 0.703125
vt 0.8359375 0.71875
vt 0.8984375 0.71875
f 128/381 127/382 126/383 125/384
o bodyModel16
v -4 -3.5 1.8
v 4 -3.5 1.8
v 4 -4.5 1.8
v -4 -4.5 1.8
v -4 -3.5 2.8
v 4 -3.5 2.8
v 4 -4.5 2.8
v -4 -4.5 2.8
vt 0.0859375 0.578125
vt 0.078125 0.578125
vt 0.078125 0.59375
vt 0.0859375 0.59375
f 135/385 131/386 130/387 134/388
vt 0.015625 0.578125
vt 0.0078125 0.578125
vt 0.0078125 0.59375
vt 0.015625 0.59375
f 132/389 136/390 133/391 129/392
vt 0.078125 0.59375
vt 0.015625 0.59375
vt 0.015625 0.609375
vt 0.078125 0.609375
f 130/393 129/394 133/395 134/396
vt 0.140625 0.609375
vt 0.078125 0.609375
vt 0.078125 0.59375
vt 0.140625 0.59375
f 135/397 136/398 132/399 131/400
vt 0.078125 0.578125
vt 0.015625 0.578125
vt 0.015625 0.59375
vt 0.078125 0.59375
f 131/401 132/402 129/403 130/404
vt 0.1484375 0.578125
vt 0.0859375 0.578125
vt 0.0859375 0.59375
vt 0.1484375 0.59375
f 136/405 135/406 134/407 133/408
o bodyModel17
v -4 -5 1.8
v 4 -5 1.8
v 4 -6 1.8
v -4 -6 1.8
v -4 -5 2.8
v 4 -5 2.8
v 4 -6 2.8
v -4 -6 2.8
vt 0.2734375 0.578125
vt 0.265625 0.578125
vt 0.265625 0.59375
vt 0.2734375 0.59375
f 143/409 139/410 138/411 142/412
vt 0.203125 0.578125
vt 0.1953125 0.578125
vt 0.1953125 0.59375
vt 0.203125 0.59375
f 140/413 144/414 141/415 137/416
vt 0.265625 0.59375
vt 0.203125 0.59375
vt 0.203125 0.609375
vt 0.265625 0.609375
f 138/417 137/418 141/419 142/420
vt 0.328125 0.609375
vt 0.265625 0.609375
vt 0.265625 0.59375
vt 0.328125 0.59375
f 143/421 144/422 140/423 139/424
vt 0.265625 0.578125
vt 0.203125 0.578125
vt 0.203125 0.59375
vt 0.265625 0.59375
f 139/425 140/426 137/427 138/428
vt 0.3359375 0.578125
vt 0.2734375 0.578125
vt 0.2734375 0.59375
vt 0.3359375 0.59375
f 144/429 143/430 142/431 141/432
o bodyModel18
v -4 -6.5 1.8
v 4 -6.5 1.8
v 4 -7.5 1.8
v -4 -7.5 1.8
v -4 -6.5 2.8
v 4 -6.5 2.8
v 4 -7.5 2.8
v -4 -7.5 2.8
vt 0.4609375 0.578125
vt 0.453125 0.578125
vt 0.453125 0.59375
vt 0.4609375 0.59375
f 151/433 147/434 146/435 150/436
vt 0.390625 0.578125
vt 0.3828125 0.578125
vt 0.3828125 0.59375
vt 0.390625 0.59375
f 148/437 152/438 149/439 145/440
vt 0.453125 0.59375
vt 0.390625 0.59375
vt 0.390625 0.609375
vt 0.453125 0.609375
f 146/441 145/442 149/443 150/444
vt 0.515625 0.609375
vt 0.453125 0.609375
vt 0.453125 0.59375
vt 0.515625 0.59375
f 151/445 152/446 148/447 147/448
vt 0.453125 0.578125
vt 0.390625 0.578125
vt 0.390625 0.59375
vt 0.453125 0.59375
f 147/449 148/450 145/451 146/452
vt 0.5234375 0.578125
vt 0.4609375 0.578125
vt 0.4609375 0.59375
vt 0.5234375 0.59375
f 152/453 151/454 150/455 149/456
o bodyModel19
v -4 -9.5 1.8
v 4 -9.5 1.8
v 4 -10.5 1.8
v -4 -10.5 1.8
v -4 -9.5 2.8
v 4 -9.5 2.8
v 4 -10.5 2.8
v -4 -10.5 2.8
vt 0.8359375 0.578125
vt 0.828125 0.578125
vt 0.828125 0.59375
vt 0.8359375 0.59375
f 159/457 155/458 154/459 158/460
vt 0.765625 0.578125
vt 0.7578125 0.578125
vt 0.7578125 0.59375
vt 0.765625 0.59375
f 156/461 160/462 157/463 153/464
vt 0.828125 0.59375
vt 0.765625 0.59375
vt 0.765625 0.609375
vt 0.828125 0.609375
f 154/465 153/466 157/467 158/468
vt 0.890625 0.609375
vt 0.828125 0.609375
vt 0.828125 0.59375
vt 0.890625 0.59375
f 159/469 160/470 156/471 155/472
vt 0.828125 0.578125
vt 0.765625 0.578125
vt 0.765625 0.59375
vt 0.828125 0.59375
f 155/473 156/474 153/475 154/476
vt 0.8984375 0.578125
vt 0.8359375 0.578125
vt 0.8359375 0.59375
vt 0.8984375 0.59375
f 160/477 159/478 158/479 157/480
o bodyModel20
v -2.5 -2.75 2
v 2.5 -2.75 2
v 2.5 -9.75 2
v -2.5 -9.75 2
v -2.5 -2.75 3
v 2.5 -2.75 3
v 2.5 -9.75 3
v -2.5 -9.75 3
vt 0.0625 0.359375
vt 0.0546875 0.359375
vt 0.0546875 0.46875
vt 0.0625 0.46875
f 167/481 163/482 162/483 166/484
vt 0.015625 0.359375
vt 0.0078125 0.359375
vt 0.0078125 0.46875
vt 0.015625 0.46875
f 164/485 168/486 165/487 161/488
vt 0.0546875 0.46875
vt 0.015625 0.46875
vt 0.015625 0.484375
vt 0.0546875 0.484375
f 162/489 161/490 165/491 166/492
vt 0.09375 0.484375
vt 0.0546875 0.484375
vt 0.0546875 0.46875
vt 0.09375 0.46875
f 167/493 168/494 164/495 163/496
vt 0.0546875 0.359375
vt 0.015625 0.359375
vt 0.015625 0.46875
vt 0.0546875 0.46875
f 163/497 164/498 161/499 162/500
vt 0.1015625 0.359375
vt 0.0625 0.359375
vt 0.0625 0.46875
vt 0.1015625 0.46875
f 168/501 167/502 166/503 165/504
o bodyModel21
v -4.304163 -6.4349 -3.509076
v -3.342902 -6.4349 -3.784713
v -3.323662 -8.433681 -3.717618
v -4.284924 -8.433681 -3.44198
v -3.753224 -6.3651 -1.587723
v -2.791963 -6.3651 -1.863361
v -2.772724 -8.363882 -1.796266
v -3.733985 -8.363882 -1.520628
vt 0.984375 0.921875
vt 0.96875 0.921875
vt 0.96875 0.953125
vt 0.984375 0.953125
f 175/505 171/506 170/507 174/508
vt 0.9609375 0.921875
vt 0.9453125 0.921875
vt 0.9453125 0.953125
vt 0.9609375 0.953125
f 172/509 176/510 173/511 169/512
vt 0.96875 0.953125
vt 0.9609375 0.953125
vt 0.9609375 0.984375
vt 0.96875 0.984375
f 170/513 169/514 173/515 174/516
vt 0.9765625 0.984375
vt 0.96875 0.984375
vt 0.96875 0.953125
vt 0.9765625 0.953125
f 175/517 176/518 172/519 171/520
vt 0.96875 0.921875
vt 0.9609375 0.921875
vt 0.9609375 0.953125
vt 0.96875 0.953125
f 171/521 172/522 169/523 170/524
vt 0.9921875 0.921875
vt 0.984375 0.921875
vt 0.984375 0.953125
vt 0.9921875 0.953125
f 176/525 175/526 174/527 173/528
o bodyModel22
v 3.246776 -6.4349 -3.812277
v 4.208037 -6.4349 -3.536639
v 4.188798 -8.433681 -3.469544
v 3.227536 -8.433681 -3.745182
v 2.695837 -6.3651 -1.890924
v 3.657098 -6.3651 -1.615287
v 3.637859 -8.363882 -1.548192
v 2.676597 -8.363882 -1.823829
vt 0.234375 0.796875
vt 0.21875 0.796875
vt 0.21875 0.828125
vt 0.234375 0.828125
f 183/529 179/530 178/531 182/532
vt 0.2109375 0.796875
vt 0.1953125 0.796875
vt 0.1953125 0.828125
vt 0.2109375 0.828125
f 180/533 184/534 181/535 177/536
vt 0.21875 0.828125
vt 0.2109375 0.828125
vt 0.2109375 0.859375
vt 0.21875 0.859375
f 178/537 177/538 181/539 182/540
vt 0.2265625 0.859375
vt 0.21875 0.859375
vt 0.21875 0.828125
vt 0.2265625 0.828125
f 183/541 184/542 180/543 179/544
vt 0.21875 0.796875
vt 0.2109375 0.796875
vt 0.2109375 0.828125
vt 0.21875 0.828125
f 179/545 180/546 177/547 178/548
vt 0.2421875 0.796875
vt 0.234375 0.796875
vt 0.234375 0.828125
vt 0.2421875 0.828125
f 184/549 183/550 182/551 181/552
o bodyModel23
v -2.304163 -7.4349 -3.509076
v -1.342902 -7.4349 -3.784713
v -1.323662 -9.433681 -3.717618
v -2.284924 -9.433681 -3.44198
v -1.753224 -7.3651 -1.587723
v -0.7919628 -7.3651 -1.863361
v -0.7727236 -9.363882 -1.796266
v -1.733985 -9.363882 -1.520628
vt 0.984375 0.671875
vt 0.96875 0.671875
vt 0.96875 0.703125
vt 0.984375 0.703125
f 191/553 187/554 186/555 190/556
vt 0.9609375 0.671875
vt 0.9453125 0.671875
vt 0.9453125 0.703125
vt 0.9609375 0.703125
f 188/557 192/558 189/559 185/560
vt 0.96875 0.703125
vt 0.9609375 0.703125
vt 0.9609375 0.734375
vt 0.96875 0.734375
f 186/561 185/562 189/563 190/564
vt 0.9765625 0.734375
vt 0.96875 0.734375
vt 0.96875 0.703125
vt 0.9765625 0.703125
f 191/565 192/566 188/567 187/568
vt 0.96875 0.671875
vt 0.9609375 0.671875
vt 0.9609375 0.703125
vt 0.96875 0.703125
f 187/569 188/570 185/571 186/572
vt 0.9921875 0.671875
vt 0.984375 0.671875
vt 0.984375 0.703125
vt 0.9921875 0.703125
f 192/573 191/574 190/575 189/576
o bodyModel24
v 1.246776 -7.4349 -3.812277
v 2.208037 -7.4349 -3.536639
v 2.188798 -9.433681 -3.469544
v 1.227536 -9.433681 -3.745182
v 0.6958366 -7.3651 -1.890924
v 1.657098 -7.3651 -1.615287
v 1.637859 -9.363882 -1.548192
v 0.6765974 -9.363882 -1.823829
vt 0.984375 0.546875
vt 0.96875 0.546875
vt 0.96875 0.578125
vt 0.984375 0.578125
f 199/577 195/578 194/579 198/580
vt 0.9609375 0.546875
vt 0.9453125 0.546875
vt 0.9453125 0.578125
vt 0.9609375 0.578125
f 196/581 200/582 197/583 193/584
vt 0.96875 0.578125
vt 0.9609375 0.578125
vt 0.9609375 0.609375
vt 0.96875 0.609375
f 194/585 193/586 197/587 198/588
vt 0.9765625 0.609375
vt 0.96875 0.609375
vt 0.96875 0.578125
vt 0.9765625 0.578125
f 199/589 200/590 196/591 195/592
vt 0.96875 0.546875
vt 0.9609375 0.546875
vt 0.9609375 0.578125
vt 0.96875 0.578125
f 195/593 196/594 193/595 194/596
vt 0.9921875 0.546875
vt 0.984375 0.546875
vt 0.984375 0.578125
vt 0.9921875 0.578125
f 200/597 199/598 198/599 197/600
o bodyModel25
v -2 -3 -3.2
v 0 -3 -3.2
v 0 -5 -3.2
v -2 -5 -3.2
v -2 -3 -2.2
v 0 -3 -2.2
v 0 -5 -2.2
v -2 -5 -2.2
vt 0.1640625 0.4375
vt 0.15625 0.4375
vt 0.15625 0.46875
vt 0.1640625 0.46875
f 207/601 203/602 202/603 206/604
vt 0.140625 0.4375
vt 0.1328125 0.4375
vt 0.1328125 0.46875
vt 0.140625 0.46875
f 204/605 208/606 205/607 201/608
vt 0.15625 0.46875
vt 0.140625 0.46875
vt 0.140625 0.484375
vt 0.15625 0.484375
f 202/609 201/610 205/611 206/612
vt 0.171875 0.484375
vt 0.15625 0.484375
vt 0.15625 0.46875
vt 0.171875 0.46875
f 207/613 208/614 204/615 203/616
vt 0.15625 0.4375
vt 0.140625 0.4375
vt 0.140625 0.46875
vt 0.15625 0.46875
f 203/617 204/618 201/619 202/620
vt 0.1796875 0.4375
vt 0.1640625 0.4375
vt 0.1640625 0.46875
vt 0.1796875 0.46875
f 208/621 207/622 206/623 205/624
o bodyModel26
v -2.517584 -6.6349 4.060814
v -5.236507 -6.6349 2.792959
v -5.17751 -10.63246 2.66644
v -2.458588 -10.63246 3.934296
v -1.672862 -6.5651 2.249303
v -4.391785 -6.5651 0.9814475
v -4.332788 -10.56266 0.8549288
v -1.613865 -10.56266 2.122784
vt 0.25 0.390625
vt 0.234375 0.390625
vt 0.234375 0.453125
vt 0.25 0.453125
f 215/625 211/626 210/627 214/628
vt 0.2109375 0.390625
vt 0.1953125 0.390625
vt 0.1953125 0.453125
vt 0.2109375 0.453125
f 212/629 216/630 213/631 209/632
vt 0.234375 0.453125
vt 0.2109375 0.453125
vt 0.2109375 0.484375
vt 0.234375 0.484375
f 210/633 209/634 213/635 214/636
vt 0.2578125 0.484375
vt 0.234375 0.484375
vt 0.234375 0.453125
vt 0.2578125 0.453125
f 215/637 216/638 212/639 211/640
vt 0.234375 0.390625
vt 0.2109375 0.390625
vt 0.2109375 0.453125
vt 0.234375 0.453125
f 211/641 212/642 209/643 210/644
vt 0.2734375 0.390625
vt 0.25 0.390625
vt 0.25 0.453125
vt 0.2734375 0.453125
f 216/645 215/646 214/647 213/648
o bodyModel27
v 5.342035 -6.6349 2.590499
v 2.743958 -6.6349 4.090498
v 2.674159 -10.63246 3.969602
v 5.272236 -10.63246 2.469603
v 4.342645 -6.5651 0.8595025
v 1.744568 -6.5651 2.359501
v 1.674769 -10.56266 2.238606
v 4.272846 -10.56266 0.7386071
vt 0.375 0.390625
vt 0.359375 0.390625
vt 0.359375 0.453125
vt 0.375 0.453125
f 223/649 219/650 218/651 222/652
vt 0.3359375 0.390625
vt 0.3203125 0.390625
vt 0.3203125 0.453125
vt 0.3359375 0.453125
f 220/653 224/654 221/655 217/656
vt 0.359375 0.453125
vt 0.3359375 0.453125
vt 0.3359375 0.484375
vt 0.359375 0.484375
f 218/657 217/658 221/659 222/660
vt 0.3828125 0.484375
vt 0.359375 0.484375
vt 0.359375 0.453125
vt 0.3828125 0.453125
f 223/661 224/662 220/663 219/664
vt 0.359375 0.390625
vt 0.3359375 0.390625
vt 0.3359375 0.453125
vt 0.359375 0.453125
f 219/665 220/666 217/667 218/668
vt 0.3984375 0.390625
vt 0.375 0.390625
vt 0.375 0.453125
vt 0.3984375 0.453125
f 224/669 223/670 222/671 221/672
o bodyModel28
v 4.476009 -6.4349 3.290498
v 3.609984 -6.4349 3.790498
v 3.557634 -9.433072 3.699826
v 4.42366 -9.433072 3.199827
v 3.476619 -6.3651 1.559502
v 2.610593 -6.3651 2.059502
v 2.558244 -9.363273 1.96883
v 3.42427 -9.363273 1.468831
vt 0.484375 0.40625
vt 0.46875 0.40625
vt 0.46875 0.453125
vt 0.484375 0.453125
f 231/673 227/674 226/675 230/676
vt 0.4609375 0.40625
vt 0.4453125 0.40625
vt 0.4453125 0.453125
vt 0.4609375 0.453125
f 228/677 232/678 229/679 225/680
vt 0.46875 0.453125
vt 0.4609375 0.453125
vt 0.4609375 0.484375
vt 0.46875 0.484375
f 226/681 225/682 229/683 230/684
vt 0.4765625 0.484375
vt 0.46875 0.484375
vt 0.46875 0.453125
vt 0.4765625 0.453125
f 231/685 232/686 228/687 227/688
vt 0.46875 0.40625
vt 0.4609375 0.40625
vt 0.4609375 0.453125
vt 0.46875 0.453125
f 227/689 228/690 225/691 226/692
vt 0.4921875 0.40625
vt 0.484375 0.40625
vt 0.484375 0.453125
vt 0.4921875 0.453125
f 232/693 231/694 230/695 229/696
o bodyModel29
v -3.423892 -6.4349 3.838196
v -4.3302 -6.4349 3.415577
v -4.285952 -9.433072 3.320688
v -3.379644 -9.433072 3.743307
v -2.57917 -6.3651 2.026685
v -3.485477 -6.3651 1.604066
v -3.44123 -9.363273 1.509177
v -2.534922 -9.363273 1.931796
vt 0.546875 0.40625
vt 0.53125 0.40625
vt 0.53125 0.453125
vt 0.546875 0.453125
f 239/697 235/698 234/699 238/700
vt 0.5234375 0.40625
vt 0.5078125 0.40625
vt 0.5078125 0.453125
vt 0.5234375 0.453125
f 236/701 240/702 237/703 233/704
vt 0.53125 0.453125
vt 0.5234375 0.453125
vt 0.5234375 0.484375
vt 0.53125 0.484375
f 234/705 233/706 237/707 238/708
vt 0.5390625 0.484375
vt 0.53125 0.484375
vt 0.53125 0.453125
vt 0.5390625 0.453125
f 239/709 240/710 236/711 235/712
vt 0.53125 0.40625
vt 0.5234375 0.40625
vt 0.5234375 0.453125
vt 0.53125 0.453125
f 235/713 236/714 233/715 234/716
vt 0.5546875 0.40625
vt 0.546875 0.40625
vt 0.546875 0.453125
vt 0.5546875 0.453125
f 240/717 239/718 238/719 237/720
