# Converted from Decimation Beardie model: foregrip.bmodel
# Coordinates retain the original Beardie model units.
mtllib foregrip.mtl
usemtl foregrip_material
o grip
v 1.400004 1.5 0
v 2.400004 1.5 0
v 2.400004 1.2 0
v 1.400004 1.2 0
v 1.400004 1.5 0.8
v 2.400004 1.5 0.8
v 2.400004 1.2 0.8
v 1.400004 1.2 0.8
vt 0.005078125 0.997851562
vt 0.003515625 0.997851562
vt 0.003515625 0.9984375
vt 0.005078125 0.9984375
f 7/1 3/2 2/3 6/4
vt 0.0015625 0.997851562
vt 0 0.997851562
vt 0 0.9984375
vt 0.0015625 0.9984375
f 4/5 8/6 5/7 1/8
vt 0.003515625 0.9984375
vt 0.0015625 0.9984375
vt 0.0015625 1
vt 0.003515625 1
f 2/9 1/10 5/11 6/12
vt 0.00546875 1
vt 0.003515625 1
vt 0.003515625 0.9984375
vt 0.00546875 0.9984375
f 7/13 8/14 4/15 3/16
vt 0.003515625 0.997851562
vt 0.0015625 0.997851562
vt 0.0015625 0.9984375
vt 0.003515625 0.9984375
f 3/17 4/18 1/19 2/20
vt 0.00703125 0.997851562
vt 0.005078125 0.997851562
vt 0.005078125 0.9984375
vt 0.00703125 0.9984375
f 8/21 7/22 6/23 5/24
o grip_1
v 9.900004 3.8 -0.4
v 10.05 3.8 -0.4
v 10.1 3.7 -0.4
v 9.900004 3.7 -0.4
v 9.900004 3.8 0.4
v 10.05 3.8 0.4
v 10.1 3.7 0.4
v 9.900004 3.7 0.4
vt 0.003515625 0.998242188
vt 0.001953125 0.998242188
vt 0.001953125 0.9984375
vt 0.003515625 0.9984375
f 15/25 11/26 10/27 14/28
vt 0.0015625 0.998242188
vt 0 0.998242188
vt 0 0.9984375
vt 0.0015625 0.9984375
f 12/29 16/30 13/31 9/32
vt 0.001953125 0.9984375
vt 0.0015625 0.9984375
vt 0.0015625 1
vt 0.001953125 1
f 10/33 9/34 13/35 14/36
vt 0.00234375 1
vt 0.001953125 1
vt 0.001953125 0.9984375
vt 0.00234375 0.9984375
f 15/37 16/38 12/39 11/40
vt 0.001953125 0.998242188
vt 0.0015625 0.998242188
vt 0.0015625 0.9984375
vt 0.001953125 0.9984375
f 11/41 12/42 9/43 10/44
vt 0.00390625 0.998242188
vt 0.003515625 0.998242188
vt 0.003515625 0.9984375
vt 0.00390625 0.9984375
f 16/45 15/46 14/47 13/48
o grip_2
v 10.75001 3.8 -0.4
v 10.90001 3.8 -0.4
v 10.90001 3.7 -0.4
v 10.70001 3.7 -0.4
v 10.75001 3.8 0.4
v 10.90001 3.8 0.4
v 10.90001 3.7 0.4
v 10.70001 3.7 0.4
vt 0.003515625 0.998242188
vt 0.001953125 0.998242188
vt 0.001953125 0.9984375
vt 0.003515625 0.9984375
f 23/49 19/50 18/51 22/52
vt 0.0015625 0.998242188
vt 0 0.998242188
vt 0 0.9984375
vt 0.0015625 0.9984375
f 20/53 24/54 21/55 17/56
vt 0.001953125 0.9984375
vt 0.0015625 0.9984375
vt 0.0015625 1
vt 0.001953125 1
f 18/57 17/58 21/59 22/60
vt 0.00234375 1
vt 0.001953125 1
vt 0.001953125 0.9984375
vt 0.00234375 0.9984375
f 23/61 24/62 20/63 19/64
vt 0.001953125 0.998242188
vt 0.0015625 0.998242188
vt 0.0015625 0.9984375
vt 0.001953125 0.9984375
f 19/65 20/66 17/67 18/68
vt 0.00390625 0.998242188
vt 0.003515625 0.998242188
vt 0.003515625 0.9984375
vt 0.00390625 0.9984375
f 24/69 23/70 22/71 21/72
o grip_3
v 10.20001 3.4 -0.3
v 10.6 3.4 -0.3
v 10.65001 3 -0.35
v 10.15001 3 -0.35
v 10.1 3.4 0
v 10.70001 3.4 0
v 10.75001 3 0
v 10.05 3 0
vt 0.00234375 0.998632813
vt 0.0017578125 0.998632813
vt 0.0017578125 0.999414062
vt 0.00234375 0.999414062
f 31/73 27/74 26/75 30/76
vt 0.0005859375 0.998632813
vt 0 0.998632813
vt 0 0.999414062
vt 0.0005859375 0.999414062
f 28/77 32/78 29/79 25/80
vt 0.0017578125 0.999414062
vt 0.0005859375 0.999414062
vt 0.0005859375 1
vt 0.0017578125 1
f 26/81 25/82 29/83 30/84
vt 0.0029296875 1
vt 0.0017578125 1
vt 0.0017578125 0.999414062
vt 0.0029296875 0.999414062
f 31/85 32/86 28/87 27/88
vt 0.0017578125 0.998632813
vt 0.0005859375 0.998632813
vt 0.0005859375 0.999414062
vt 0.0017578125 0.999414062
f 27/89 28/90 25/91 26/92
vt 0.003515625 0.998632813
vt 0.00234375 0.998632813
vt 0.00234375 0.999414062
vt 0.003515625 0.999414062
f 32/93 31/94 30/95 29/96
o grip_4
v 10.1 3.4 7.450581e-09
v 10.70001 3.4 7.450581e-09
v 10.75001 3 7.450581e-09
v 10.05 3 7.450581e-09
v 10.20001 3.4 0.3
v 10.6 3.4 0.3
v 10.65001 3 0.35
v 10.15001 3 0.35
vt 0.00234375 0.998632813
vt 0.0017578125 0.998632813
vt 0.0017578125 0.999414062
vt 0.00234375 0.999414062
f 39/97 35/98 34/99 38/100
vt 0.0005859375 0.998632813
vt 0 0.998632813
vt 0 0.999414062
vt 0.0005859375 0.999414062
f 36/101 40/102 37/103 33/104
vt 0.0017578125 0.999414062
vt 0.0005859375 0.999414062
vt 0.0005859375 1
vt 0.0017578125 1
f 34/105 33/106 37/107 38/108
vt 0.0029296875 1
vt 0.0017578125 1
vt 0.0017578125 0.999414062
vt 0.0029296875 0.999414062
f 39/109 40/110 36/111 35/112
vt 0.0017578125 0.998632813
vt 0.0005859375 0.998632813
vt 0.0005859375 0.999414062
vt 0.0017578125 0.999414062
f 35/113 36/114 33/115 34/116
vt 0.003515625 0.998632813
vt 0.00234375 0.998632813
vt 0.00234375 0.999414062
vt 0.003515625 0.999414062
f 40/117 39/118 38/119 37/120
o grip_5
v 10.15001 3 -0.35
v 10.65001 3 -0.35
v 10.65001 1.5 -0.35
v 10.15001 1.5 -0.35
v 10.05 3 0
v 10.75 3 0
v 10.75 1.5 0
v 10.05 1.5 0
vt 0.002734375 0.996386719
vt 0.00205078125 0.996386719
vt 0.00205078125 0.999316406
vt 0.002734375 0.999316406
f 47/121 43/122 42/123 46/124
vt 0.00068359375 0.996386719
vt 0 0.996386719
vt 0 0.999316406
vt 0.00068359375 0.999316406
f 44/125 48/126 45/127 41/128
vt 0.00205078125 0.999316406
vt 0.00068359375 0.999316406
vt 0.00068359375 1
vt 0.00205078125 1
f 42/129 41/130 45/131 46/132
vt 0.00341796875 1
vt 0.00205078125 1
vt 0.00205078125 0.999316406
vt 0.00341796875 0.999316406
f 47/133 48/134 44/135 43/136
vt 0.00205078125 0.996386719
vt 0.00068359375 0.996386719
vt 0.00068359375 0.999316406
vt 0.00205078125 0.999316406
f 43/137 44/138 41/139 42/140
vt 0.0041015625 0.996386719
vt 0.002734375 0.996386719
vt 0.002734375 0.999316406
vt 0.0041015625 0.999316406
f 48/141 47/142 46/143 45/144
o grip_6
v 10.05 3 7.450581e-09
v 10.75 3 7.450581e-09
v 10.75 1.5 7.450581e-09
v 10.05 1.5 7.450581e-09
v 10.15001 3 0.35
v 10.65001 3 0.35
v 10.65001 1.5 0.35
v 10.15001 1.5 0.35
vt 0.002734375 0.996386719
vt 0.00205078125 0.996386719
vt 0.00205078125 0.999316406
vt 0.002734375 0.999316406
f 55/145 51/146 50/147 54/148
vt 0.00068359375 0.996386719
vt 0 0.996386719
vt 0 0.999316406
vt 0.00068359375 0.999316406
f 52/149 56/150 53/151 49/152
vt 0.00205078125 0.999316406
vt 0.00068359375 0.999316406
vt 0.00068359375 1
vt 0.00205078125 1
f 50/153 49/154 53/155 54/156
vt 0.00341796875 1
vt 0.00205078125 1
vt 0.00205078125 0.999316406
vt 0.00341796875 0.999316406
f 55/157 56/158 52/159 51/160
vt 0.00205078125 0.996386719
vt 0.00068359375 0.996386719
vt 0.00068359375 0.999316406
vt 0.00205078125 0.999316406
f 51/161 52/162 49/163 50/164
vt 0.0041015625 0.996386719
vt 0.002734375 0.996386719
vt 0.002734375 0.999316406
vt 0.0041015625 0.999316406
f 56/165 55/166 54/167 53/168
o grip_7
v 10.20001 1.5 -0.3
v 10.6 1.5 -0.3
v 10.6 1.1 -0.3
v 10.20001 1.1 -0.3
v 10.1 1.5 0
v 10.70001 1.5 0
v 10.70001 1.1 0
v 10.1 1.1 0
vt 0.00234375 0.998632813
vt 0.0017578125 0.998632813
vt 0.0017578125 0.999414062
vt 0.00234375 0.999414062
f 63/169 59/170 58/171 62/172
vt 0.0005859375 0.998632813
vt 0 0.998632813
vt 0 0.999414062
vt 0.0005859375 0.999414062
f 60/173 64/174 61/175 57/176
vt 0.0017578125 0.999414062
vt 0.0005859375 0.999414062
vt 0.0005859375 1
vt 0.0017578125 1
f 58/177 57/178 61/179 62/180
vt 0.0029296875 1
vt 0.0017578125 1
vt 0.0017578125 0.999414062
vt 0.0029296875 0.999414062
f 63/181 64/182 60/183 59/184
vt 0.0017578125 0.998632813
vt 0.0005859375 0.998632813
vt 0.0005859375 0.999414062
vt 0.0017578125 0.999414062
f 59/185 60/186 57/187 58/188
vt 0.003515625 0.998632813
vt 0.00234375 0.998632813
vt 0.00234375 0.999414062
vt 0.003515625 0.999414062
f 64/189 63/190 62/191 61/192
o grip_8
v 10.1 1.5 7.450581e-09
v 10.70001 1.5 7.450581e-09
v 10.70001 1.1 7.450581e-09
v 10.1 1.1 7.450581e-09
v 10.20001 1.5 0.3
v 10.6 1.5 0.3
v 10.6 1.1 0.3
v 10.20001 1.1 0.3
vt 0.00234375 0.998632813
vt 0.0017578125 0.998632813
vt 0.0017578125 0.999414062
vt 0.00234375 0.999414062
f 71/193 67/194 66/195 70/196
vt 0.0005859375 0.998632813
vt 0 0.998632813
vt 0 0.999414062
vt 0.0005859375 0.999414062
f 68/197 72/198 69/199 65/200
vt 0.0017578125 0.999414062
vt 0.0005859375 0.999414062
vt 0.0005859375 1
vt 0.0017578125 1
f 66/201 65/202 69/203 70/204
vt 0.0029296875 1
vt 0.0017578125 1
vt 0.0017578125 0.999414062
vt 0.0029296875 0.999414062
f 71/205 72/206 68/207 67/208
vt 0.0017578125 0.998632813
vt 0.0005859375 0.998632813
vt 0.0005859375 0.999414062
vt 0.0017578125 0.999414062
f 67/209 68/210 65/211 66/212
vt 0.003515625 0.998632813
vt 0.00234375 0.998632813
vt 0.00234375 0.999414062
vt 0.003515625 0.999414062
f 72/213 71/214 70/215 69/216
o ammoModel1
v -0.25 -1 0.05
v 1.8 -1 0.05
v 2.1 -2 0.05
v 0.05 -2 0.05
v -0.25 -1 0.95
v 1.8 -1 0.95
v 2.1 -2 0.95
v 0.05 -2 0.95
vt 0.4296875 0.978515625
vt 0.427734375 0.978515625
vt 0.427734375 0.98046875
vt 0.4296875 0.98046875
f 79/217 75/218 74/219 78/220
vt 0.42578125 0.978515625
vt 0.423828125 0.978515625
vt 0.423828125 0.98046875
vt 0.42578125 0.98046875
f 76/221 80/222 77/223 73/224
vt 0.427734375 0.98046875
vt 0.42578125 0.98046875
vt 0.42578125 0.982421875
vt 0.427734375 0.982421875
f 74/225 73/226 77/227 78/228
vt 0.4296875 0.982421875
vt 0.427734375 0.982421875
vt 0.427734375 0.98046875
vt 0.4296875 0.98046875
f 79/229 80/230 76/231 75/232
vt 0.427734375 0.978515625
vt 0.42578125 0.978515625
vt 0.42578125 0.98046875
vt 0.427734375 0.98046875
f 75/233 76/234 73/235 74/236
vt 0.431640625 0.978515625
vt 0.4296875 0.978515625
vt 0.4296875 0.98046875
vt 0.431640625 0.98046875
f 80/237 79/238 78/239 77/240
o ammoModel2
v 0.0499999 -2 0.05
v 2.1 -2 0.05
v 2.6 -3 0.05
v 0.3999999 -3 0.05
v 0.0499999 -2 0.95
v 2.1 -2 0.95
v 2.6 -3 0.95
v 0.3999999 -3 0.95
vt 0.4453125 0.978515625
vt 0.443359375 0.978515625
vt 0.443359375 0.98046875
vt 0.4453125 0.98046875
f 87/241 83/242 82/243 86/244
vt 0.44140625 0.978515625
vt 0.439453125 0.978515625
vt 0.439453125 0.98046875
vt 0.44140625 0.98046875
f 84/245 88/246 85/247 81/248
vt 0.443359375 0.98046875
vt 0.44140625 0.98046875
vt 0.44140625 0.982421875
vt 0.443359375 0.982421875
f 82/249 81/250 85/251 86/252
vt 0.4453125 0.982421875
vt 0.443359375 0.982421875
vt 0.443359375 0.98046875
vt 0.4453125 0.98046875
f 87/253 88/254 84/255 83/256
vt 0.443359375 0.978515625
vt 0.44140625 0.978515625
vt 0.44140625 0.98046875
vt 0.443359375 0.98046875
f 83/257 84/258 81/259 82/260
vt 0.447265625 0.978515625
vt 0.4453125 0.978515625
vt 0.4453125 0.98046875
vt 0.447265625 0.98046875
f 88/261 87/262 86/263 85/264
o ammoModel3
v 0.4 -3 0.05
v 2.6 -3 0.05
v 3.1 -3.8 0.05
v 0.9 -4 0.05
v 0.4 -3 0.95
v 2.6 -3 0.95
v 3.1 -3.8 0.95
v 0.9 -4 0.95
vt 0.4609375 0.978515625
vt 0.458984375 0.978515625
vt 0.458984375 0.98046875
vt 0.4609375 0.98046875
f 95/265 91/266 90/267 94/268
vt 0.45703125 0.978515625
vt 0.455078125 0.978515625
vt 0.455078125 0.98046875
vt 0.45703125 0.98046875
f 92/269 96/270 93/271 89/272
vt 0.458984375 0.98046875
vt 0.45703125 0.98046875
vt 0.45703125 0.982421875
vt 0.458984375 0.982421875
f 90/273 89/274 93/275 94/276
vt 0.4609375 0.982421875
vt 0.458984375 0.982421875
vt 0.458984375 0.98046875
vt 0.4609375 0.98046875
f 95/277 96/278 92/279 91/280
vt 0.458984375 0.978515625
vt 0.45703125 0.978515625
vt 0.45703125 0.98046875
vt 0.458984375 0.98046875
f 91/281 92/282 89/283 90/284
vt 0.462890625 0.978515625
vt 0.4609375 0.978515625
vt 0.4609375 0.98046875
vt 0.462890625 0.98046875
f 96/285 95/286 94/287 93/288
o ammoModel4
v 0.9 -4 0.05
v 3.1 -3.8 0.05
v 3.3 -4 0.05
v 1.6 -5.1 0.05
v 0.9 -4 0.95
v 3.1 -3.8 0.95
v 3.3 -4 0.95
v 1.6 -5.1 0.95
vt 0.4765625 0.978515625
vt 0.474609375 0.978515625
vt 0.474609375 0.98046875
vt 0.4765625 0.98046875
f 103/289 99/290 98/291 102/292
vt 0.47265625 0.978515625
vt 0.470703125 0.978515625
vt 0.470703125 0.98046875
vt 0.47265625 0.98046875
f 100/293 104/294 101/295 97/296
vt 0.474609375 0.98046875
vt 0.47265625 0.98046875
vt 0.47265625 0.982421875
vt 0.474609375 0.982421875
f 98/297 97/298 101/299 102/300
vt 0.4765625 0.982421875
vt 0.474609375 0.982421875
vt 0.474609375 0.98046875
vt 0.4765625 0.98046875
f 103/301 104/302 100/303 99/304
vt 0.474609375 0.978515625
vt 0.47265625 0.978515625
vt 0.47265625 0.98046875
vt 0.474609375 0.98046875
f 99/305 100/306 97/307 98/308
vt 0.478515625 0.978515625
vt 0.4765625 0.978515625
vt 0.4765625 0.98046875
vt 0.478515625 0.98046875
f 104/309 103/310 102/311 101/312
