# Converted from Decimation Beardie model: duffleBag.bmodel
# Coordinates retain the original Beardie model units.
mtllib duffle_bag.mtl
usemtl duffle_bag_material
o bodyModel0
v -3.535534 3.57818 2
v 7.778175 -7.735527 2
v 3.535534 -11.97817 2
v -7.778175 -0.6644606 2
v -3.535534 3.57818 5
v 7.778175 -7.735527 5
v 3.535534 -11.97817 5
v -7.778175 -0.6644606 5
vt 0.359375 0.84375
vt 0.3125 0.84375
vt 0.3125 0.9375
vt 0.359375 0.9375
f 7/1 3/2 2/3 6/4
vt 0.0625 0.84375
vt 0.015625 0.84375
vt 0.015625 0.9375
vt 0.0625 0.9375
f 4/5 8/6 5/7 1/8
vt 0.3125 0.9375
vt 0.0625 0.9375
vt 0.0625 0.984375
vt 0.3125 0.984375
f 2/9 1/10 5/11 6/12
vt 0.5625 0.984375
vt 0.3125 0.984375
vt 0.3125 0.9375
vt 0.5625 0.9375
f 7/13 8/14 4/15 3/16
vt 0.3125 0.84375
vt 0.0625 0.84375
vt 0.0625 0.9375
vt 0.3125 0.9375
f 3/17 4/18 1/19 2/20
vt 0.609375 0.84375
vt 0.359375 0.84375
vt 0.359375 0.9375
vt 0.609375 0.9375
f 8/21 7/22 6/23 5/24
o bodyModel1
v -3.535534 2.163967 4.25
v -0.707107 -0.6644601 4.25
v -3.535534 -3.492887 4.25
v -6.363961 -0.6644605 4.25
v -3.535534 2.163967 5.25
v -0.707107 -0.6644601 5.25
v -3.535534 -3.492887 5.25
v -6.363961 -0.6644605 5.25
vt 0.734375 0.90625
vt 0.71875 0.90625
vt 0.71875 0.96875
vt 0.734375 0.96875
f 15/25 11/26 10/27 14/28
vt 0.65625 0.90625
vt 0.640625 0.90625
vt 0.640625 0.96875
vt 0.65625 0.96875
f 12/29 16/30 13/31 9/32
vt 0.71875 0.96875
vt 0.65625 0.96875
vt 0.65625 0.984375
vt 0.71875 0.984375
f 10/33 9/34 13/35 14/36
vt 0.78125 0.984375
vt 0.71875 0.984375
vt 0.71875 0.96875
vt 0.78125 0.96875
f 15/37 16/38 12/39 11/40
vt 0.71875 0.90625
vt 0.65625 0.90625
vt 0.65625 0.96875
vt 0.71875 0.96875
f 11/41 12/42 9/43 10/44
vt 0.796875 0.90625
vt 0.734375 0.90625
vt 0.734375 0.96875
vt 0.796875 0.96875
f 16/45 15/46 14/47 13/48
o bodyModel2
v 3.535534 -4.907101 4.25
v 6.363961 -7.735528 4.25
v 3.535534 -10.56395 4.25
v 0.707107 -7.735528 4.25
v 3.535534 -4.907101 5.25
v 6.363961 -7.735528 5.25
v 3.535534 -10.56395 5.25
v 0.707107 -7.735528 5.25
vt 0.734375 0.78125
vt 0.71875 0.78125
vt 0.71875 0.84375
vt 0.734375 0.84375
f 23/49 19/50 18/51 22/52
vt 0.65625 0.78125
vt 0.640625 0.78125
vt 0.640625 0.84375
vt 0.65625 0.84375
f 20/53 24/54 21/55 17/56
vt 0.71875 0.84375
vt 0.65625 0.84375
vt 0.65625 0.859375
vt 0.71875 0.859375
f 18/57 17/58 21/59 22/60
vt 0.78125 0.859375
vt 0.71875 0.859375
vt 0.71875 0.84375
vt 0.78125 0.84375
f 23/61 24/62 20/63 19/64
vt 0.71875 0.78125
vt 0.65625 0.78125
vt 0.65625 0.84375
vt 0.71875 0.84375
f 19/65 20/66 17/67 18/68
vt 0.796875 0.78125
vt 0.734375 0.78125
vt 0.734375 0.84375
vt 0.796875 0.84375
f 24/69 23/70 22/71 21/72
o bodyModel3
v -1.793151e-07 -1.371567 4.25
v 2.828427 -4.199994 4.25
v 1.793151e-07 -7.028421 4.25
v -2.828427 -4.199994 4.25
v -1.793151e-07 -1.371567 5.25
v 2.828427 -4.199994 5.25
v 1.793151e-07 -7.028421 5.25
v -2.828427 -4.199994 5.25
vt 0.109375 0.65625
vt 0.09375 0.65625
vt 0.09375 0.71875
vt 0.109375 0.71875
f 31/73 27/74 26/75 30/76
vt 0.03125 0.65625
vt 0.015625 0.65625
vt 0.015625 0.71875
vt 0.03125 0.71875
f 28/77 32/78 29/79 25/80
vt 0.09375 0.71875
vt 0.03125 0.71875
vt 0.03125 0.734375
vt 0.09375 0.734375
f 26/81 25/82 29/83 30/84
vt 0.15625 0.734375
vt 0.09375 0.734375
vt 0.09375 0.71875
vt 0.15625 0.71875
f 31/85 32/86 28/87 27/88
vt 0.09375 0.65625
vt 0.03125 0.65625
vt 0.03125 0.71875
vt 0.09375 0.71875
f 27/89 28/90 25/91 26/92
vt 0.171875 0.65625
vt 0.109375 0.65625
vt 0.109375 0.71875
vt 0.171875 0.71875
f 32/93 31/94 30/95 29/96
o bodyModel4
v 0.5303299 -1.548344 4.4
v 2.65165 -3.669664 4.4
v 1.237437 -5.083877 4.4
v -0.8838836 -2.962557 4.4
v 0.5303299 -1.548344 5.4
v 2.65165 -3.669664 5.4
v 1.237437 -5.083877 5.4
v -0.8838836 -2.962557 5.4
vt 0.34375 0.6875
vt 0.328125 0.6875
vt 0.328125 0.71875
vt 0.34375 0.71875
f 39/97 35/98 34/99 38/100
vt 0.28125 0.6875
vt 0.265625 0.6875
vt 0.265625 0.71875
vt 0.28125 0.71875
f 36/101 40/102 37/103 33/104
vt 0.328125 0.71875
vt 0.28125 0.71875
vt 0.28125 0.734375
vt 0.328125 0.734375
f 34/105 33/106 37/107 38/108
vt 0.375 0.734375
vt 0.328125 0.734375
vt 0.328125 0.71875
vt 0.375 0.71875
f 39/109 40/110 36/111 35/112
vt 0.328125 0.6875
vt 0.28125 0.6875
vt 0.28125 0.71875
vt 0.328125 0.71875
f 35/113 36/114 33/115 34/116
vt 0.390625 0.6875
vt 0.34375 0.6875
vt 0.34375 0.71875
vt 0.390625 0.71875
f 40/117 39/118 38/119 37/120
o bodyModel5
v -3.005204 1.98719 4.4
v -0.8838837 -0.1341301 4.4
v -2.298097 -1.548344 4.4
v -4.419418 0.5729765 4.4
v -3.005204 1.98719 5.4
v -0.8838837 -0.1341301 5.4
v -2.298097 -1.548344 5.4
v -4.419418 0.5729765 5.4
vt 0.59375 0.6875
vt 0.578125 0.6875
vt 0.578125 0.71875
vt 0.59375 0.71875
f 47/121 43/122 42/123 46/124
vt 0.53125 0.6875
vt 0.515625 0.6875
vt 0.515625 0.71875
vt 0.53125 0.71875
f 44/125 48/126 45/127 41/128
vt 0.578125 0.71875
vt 0.53125 0.71875
vt 0.53125 0.734375
vt 0.578125 0.734375
f 42/129 41/130 45/131 46/132
vt 0.625 0.734375
vt 0.578125 0.734375
vt 0.578125 0.71875
vt 0.625 0.71875
f 47/133 48/134 44/135 43/136
vt 0.578125 0.6875
vt 0.53125 0.6875
vt 0.53125 0.71875
vt 0.578125 0.71875
f 43/137 44/138 41/139 42/140
vt 0.640625 0.6875
vt 0.59375 0.6875
vt 0.59375 0.71875
vt 0.640625 0.71875
f 48/141 47/142 46/143 45/144
o bodyModel6
v 4.065864 -5.083877 4.4
v 6.187185 -7.205197 4.4
v 4.772971 -8.619411 4.4
v 2.651651 -6.498091 4.4
v 4.065864 -5.083877 5.4
v 6.187185 -7.205197 5.4
v 4.772971 -8.619411 5.4
v 2.651651 -6.498091 5.4
vt 0.84375 0.6875
vt 0.828125 0.6875
vt 0.828125 0.71875
vt 0.84375 0.71875
f 55/145 51/146 50/147 54/148
vt 0.78125 0.6875
vt 0.765625 0.6875
vt 0.765625 0.71875
vt 0.78125 0.71875
f 52/149 56/150 53/151 49/152
vt 0.828125 0.71875
vt 0.78125 0.71875
vt 0.78125 0.734375
vt 0.828125 0.734375
f 50/153 49/154 53/155 54/156
vt 0.875 0.734375
vt 0.828125 0.734375
vt 0.828125 0.71875
vt 0.875 0.71875
f 55/157 56/158 52/159 51/160
vt 0.828125 0.6875
vt 0.78125 0.6875
vt 0.78125 0.71875
vt 0.828125 0.71875
f 51/161 52/162 49/163 50/164
vt 0.890625 0.6875
vt 0.84375 0.6875
vt 0.84375 0.71875
vt 0.890625 0.71875
f 56/165 55/166 54/167 53/168
o bodyModel7
v 4.207285 -6.356669 4.5
v 4.914392 -7.063776 4.5
v 3.500179 -8.47799 4.5
v 2.793072 -7.770883 4.5
v 4.207285 -6.356669 5.5
v 4.914392 -7.063776 5.5
v 3.500179 -8.47799 5.5
v 2.793072 -7.770883 5.5
vt 0.9375 0.9375
vt 0.921875 0.9375
vt 0.921875 0.96875
vt 0.9375 0.96875
f 63/169 59/170 58/171 62/172
vt 0.90625 0.9375
vt 0.890625 0.9375
vt 0.890625 0.96875
vt 0.90625 0.96875
f 60/173 64/174 61/175 57/176
vt 0.921875 0.96875
vt 0.90625 0.96875
vt 0.90625 0.984375
vt 0.921875 0.984375
f 58/177 57/178 61/179 62/180
vt 0.9375 0.984375
vt 0.921875 0.984375
vt 0.921875 0.96875
vt 0.9375 0.96875
f 63/181 64/182 60/183 59/184
vt 0.921875 0.9375
vt 0.90625 0.9375
vt 0.90625 0.96875
vt 0.921875 0.96875
f 59/185 60/186 57/187 58/188
vt 0.953125 0.9375
vt 0.9375 0.9375
vt 0.9375 0.96875
vt 0.953125 0.96875
f 64/189 63/190 62/191 61/192
o bodyModel8
v 0.6717514 -2.821136 4.5
v 1.378858 -3.528242 4.5
v -0.03535529 -4.942456 4.5
v -0.7424621 -4.235349 4.5
v 0.6717514 -2.821136 5.5
v 1.378858 -3.528242 5.5
v -0.03535529 -4.942456 5.5
v -0.7424621 -4.235349 5.5
vt 0.9375 0.8125
vt 0.921875 0.8125
vt 0.921875 0.84375
vt 0.9375 0.84375
f 71/193 67/194 66/195 70/196
vt 0.90625 0.8125
vt 0.890625 0.8125
vt 0.890625 0.84375
vt 0.90625 0.84375
f 68/197 72/198 69/199 65/200
vt 0.921875 0.84375
vt 0.90625 0.84375
vt 0.90625 0.859375
vt 0.921875 0.859375
f 66/201 65/202 69/203 70/204
vt 0.9375 0.859375
vt 0.921875 0.859375
vt 0.921875 0.84375
vt 0.9375 0.84375
f 71/205 72/206 68/207 67/208
vt 0.921875 0.8125
vt 0.90625 0.8125
vt 0.90625 0.84375
vt 0.921875 0.84375
f 67/209 68/210 65/211 66/212
vt 0.953125 0.8125
vt 0.9375 0.8125
vt 0.9375 0.84375
vt 0.953125 0.84375
f 72/213 71/214 70/215 69/216
o bodyModel9
v -2.863783 0.7143979 4.5
v -2.156676 0.007291211 4.5
v -3.570889 -1.406922 4.5
v -4.277996 -0.6998157 4.5
v -2.863783 0.7143979 5.5
v -2.156676 0.007291211 5.5
v -3.570889 -1.406922 5.5
v -4.277996 -0.6998157 5.5
vt 0.0625 0.5625
vt 0.046875 0.5625
vt 0.046875 0.59375
vt 0.0625 0.59375
f 79/217 75/218 74/219 78/220
vt 0.03125 0.5625
vt 0.015625 0.5625
vt 0.015625 0.59375
vt 0.03125 0.59375
f 76/221 80/222 77/223 73/224
vt 0.046875 0.59375
vt 0.03125 0.59375
vt 0.03125 0.609375
vt 0.046875 0.609375
f 74/225 73/226 77/227 78/228
vt 0.0625 0.609375
vt 0.046875 0.609375
vt 0.046875 0.59375
vt 0.0625 0.59375
f 79/229 80/230 76/231 75/232
vt 0.046875 0.5625
vt 0.03125 0.5625
vt 0.03125 0.59375
vt 0.046875 0.59375
f 75/233 76/234 73/235 74/236
vt 0.078125 0.5625
vt 0.0625 0.5625
vt 0.0625 0.59375
vt 0.078125 0.59375
f 80/237 79/238 78/239 77/240
o bodyModel10
v -2.687006 3.012495 3
v 7.212489 -6.886999 3
v 6.505383 -7.594106 3
v -3.394113 2.305388 3
v -2.687006 3.012495 4
v 7.212489 -6.886999 4
v 6.505383 -7.594106 4
v -3.394113 2.305388 4
vt 0.390625 0.578125
vt 0.375 0.578125
vt 0.375 0.59375
vt 0.390625 0.59375
f 87/241 83/242 82/243 86/244
vt 0.15625 0.578125
vt 0.140625 0.578125
vt 0.140625 0.59375
vt 0.15625 0.59375
f 84/245 88/246 85/247 81/248
vt 0.375 0.59375
vt 0.15625 0.59375
vt 0.15625 0.609375
vt 0.375 0.609375
f 82/249 81/250 85/251 86/252
vt 0.59375 0.609375
vt 0.375 0.609375
vt 0.375 0.59375
vt 0.59375 0.59375
f 87/253 88/254 84/255 83/256
vt 0.375 0.578125
vt 0.15625 0.578125
vt 0.15625 0.59375
vt 0.375 0.59375
f 83/257 84/258 81/259 82/260
vt 0.609375 0.578125
vt 0.390625 0.578125
vt 0.390625 0.59375
vt 0.609375 0.59375
f 88/261 87/262 86/263 85/264
o bodyModel11
v -6.505383 -0.8058819 3
v 3.394113 -10.70538 3
v 2.687006 -11.41248 3
v -7.212489 -1.512989 3
v -6.505383 -0.8058819 4
v 3.394113 -10.70538 4
v 2.687006 -11.41248 4
v -7.212489 -1.512989 4
vt 0.265625 0.453125
vt 0.25 0.453125
vt 0.25 0.46875
vt 0.265625 0.46875
f 95/265 91/266 90/267 94/268
vt 0.03125 0.453125
vt 0.015625 0.453125
vt 0.015625 0.46875
vt 0.03125 0.46875
f 92/269 96/270 93/271 89/272
vt 0.25 0.46875
vt 0.03125 0.46875
vt 0.03125 0.484375
vt 0.25 0.484375
f 90/273 89/274 93/275 94/276
vt 0.46875 0.484375
vt 0.25 0.484375
vt 0.25 0.46875
vt 0.46875 0.46875
f 95/277 96/278 92/279 91/280
vt 0.25 0.453125
vt 0.03125 0.453125
vt 0.03125 0.46875
vt 0.25 0.46875
f 91/281 92/282 89/283 90/284
vt 0.484375 0.453125
vt 0.265625 0.453125
vt 0.265625 0.46875
vt 0.484375 0.46875
f 96/285 95/286 94/287 93/288
o bodyModel12
v -0.9801726 -1.158734 -2.7
v 3.329458 -6.674809 -2.7
v 1.753436 -7.906132 -2.7
v -2.556194 -2.390057 -2.7
v -0.9801726 -1.158734 -1.7
v 3.329458 -6.674809 -1.7
v 1.753436 -7.906132 -1.7
v -2.556194 -2.390057 -1.7
vt 0.78125 0.5625
vt 0.765625 0.5625
vt 0.765625 0.59375
vt 0.78125 0.59375
f 103/289 99/290 98/291 102/292
vt 0.65625 0.5625
vt 0.640625 0.5625
vt 0.640625 0.59375
vt 0.65625 0.59375
f 100/293 104/294 101/295 97/296
vt 0.765625 0.59375
vt 0.65625 0.59375
vt 0.65625 0.609375
vt 0.765625 0.609375
f 98/297 97/298 101/299 102/300
vt 0.875 0.609375
vt 0.765625 0.609375
vt 0.765625 0.59375
vt 0.875 0.59375
f 103/301 104/302 100/303 99/304
vt 0.765625 0.5625
vt 0.65625 0.5625
vt 0.65625 0.59375
vt 0.765625 0.59375
f 99/305 100/306 97/307 98/308
vt 0.890625 0.5625
vt 0.78125 0.5625
vt 0.78125 0.59375
vt 0.890625 0.59375
f 104/309 103/310 102/311 101/312
o bodyModel13
v -3.221162 0.8974674 -2.5
v 4.782437 -9.346672 -2.5
v 3.994426 -9.962334 -2.5
v -4.009173 0.2818059 -2.5
v -3.221162 0.8974674 2.5
v 4.782437 -9.346672 2.5
v 3.994426 -9.962334 2.5
v -4.009173 0.2818059 2.5
vt 0.375 0.265625
vt 0.296875 0.265625
vt 0.296875 0.28125
vt 0.375 0.28125
f 111/313 107/314 106/315 110/316
vt 0.09375 0.265625
vt 0.015625 0.265625
vt 0.015625 0.28125
vt 0.09375 0.28125
f 108/317 112/318 109/319 105/320
vt 0.296875 0.28125
vt 0.09375 0.28125
vt 0.09375 0.359375
vt 0.296875 0.359375
f 106/321 105/322 109/323 110/324
vt 0.5 0.359375
vt 0.296875 0.359375
vt 0.296875 0.28125
vt 0.5 0.28125
f 111/325 112/326 108/327 107/328
vt 0.296875 0.265625
vt 0.09375 0.265625
vt 0.09375 0.28125
vt 0.296875 0.28125
f 107/329 108/330 105/331 106/332
vt 0.578125 0.265625
vt 0.375 0.265625
vt 0.375 0.28125
vt 0.578125 0.28125
f 112/333 111/334 110/335 109/336
