# Converted from Decimation Beardie model: fannyPack.bmodel
# Coordinates retain the original Beardie model units.
mtllib fanny_pack.mtl
usemtl fanny_pack_material
o bodyModel0
v -4.5 -10.3 -2.5
v 4.5 -10.3 -2.5
v 4.5 -11.3 -2.5
v -4.5 -11.3 -2.5
v -4.5 -10.3 2.5
v 4.5 -10.3 2.5
v 4.5 -11.3 2.5
v -4.5 -11.3 2.5
vt 0.625 0.78125
vt 0.46875 0.78125
vt 0.46875 0.8125
vt 0.625 0.8125
f 7/1 3/2 2/3 6/4
vt 0.1875 0.78125
vt 0.03125 0.78125
vt 0.03125 0.8125
vt 0.1875 0.8125
f 4/5 8/6 5/7 1/8
vt 0.46875 0.8125
vt 0.1875 0.8125
vt 0.1875 0.96875
vt 0.46875 0.96875
f 2/9 1/10 5/11 6/12
vt 0.75 0.96875
vt 0.46875 0.96875
vt 0.46875 0.8125
vt 0.75 0.8125
f 7/13 8/14 4/15 3/16
vt 0.46875 0.78125
vt 0.1875 0.78125
vt 0.1875 0.8125
vt 0.46875 0.8125
f 3/17 4/18 1/19 2/20
vt 0.90625 0.78125
vt 0.625 0.78125
vt 0.625 0.8125
vt 0.90625 0.8125
f 8/21 7/22 6/23 5/24
o bodyModel1
v -3.5 -9.800001 -3.5
v 3.5 -9.800001 -3.5
v 3.5 -12.8 -3.5
v -3.5 -12.8 -3.5
v -3.5 -9.800001 -1.5
v 3.5 -9.800001 -1.5
v 3.5 -12.8 -1.5
v -3.5 -12.8 -1.5
vt 0.375 0.5625
vt 0.3125 0.5625
vt 0.3125 0.65625
vt 0.375 0.65625
f 15/25 11/26 10/27 14/28
vt 0.09375 0.5625
vt 0.03125 0.5625
vt 0.03125 0.65625
vt 0.09375 0.65625
f 12/29 16/30 13/31 9/32
vt 0.3125 0.65625
vt 0.09375 0.65625
vt 0.09375 0.71875
vt 0.3125 0.71875
f 10/33 9/34 13/35 14/36
vt 0.53125 0.71875
vt 0.3125 0.71875
vt 0.3125 0.65625
vt 0.53125 0.65625
f 15/37 16/38 12/39 11/40
vt 0.3125 0.5625
vt 0.09375 0.5625
vt 0.09375 0.65625
vt 0.3125 0.65625
f 11/41 12/42 9/43 10/44
vt 0.59375 0.5625
vt 0.375 0.5625
vt 0.375 0.65625
vt 0.59375 0.65625
f 16/45 15/46 14/47 13/48
o bodyModel2
v -3 -10.3 -3.7
v 3 -10.3 -3.7
v 3 -12.3 -3.7
v -3 -12.3 -3.7
v -3 -10.3 -2.7
v 3 -10.3 -2.7
v 3 -12.3 -2.7
v -3 -12.3 -2.7
vt 0.28125 0.375
vt 0.25 0.375
vt 0.25 0.4375
vt 0.28125 0.4375
f 23/49 19/50 18/51 22/52
vt 0.0625 0.375
vt 0.03125 0.375
vt 0.03125 0.4375
vt 0.0625 0.4375
f 20/53 24/54 21/55 17/56
vt 0.25 0.4375
vt 0.0625 0.4375
vt 0.0625 0.46875
vt 0.25 0.46875
f 18/57 17/58 21/59 22/60
vt 0.4375 0.46875
vt 0.25 0.46875
vt 0.25 0.4375
vt 0.4375 0.4375
f 23/61 24/62 20/63 19/64
vt 0.25 0.375
vt 0.0625 0.375
vt 0.0625 0.4375
vt 0.25 0.4375
f 19/65 20/66 17/67 18/68
vt 0.46875 0.375
vt 0.28125 0.375
vt 0.28125 0.4375
vt 0.46875 0.4375
f 24/69 23/70 22/71 21/72
o bodyModel3
v -1 -9.700001 -3.75
v 1 -9.700001 -3.75
v 1 -10.68481 -3.923648
v -1 -10.68481 -3.923648
v -1 -9.873649 -2.765192
v 1 -9.873649 -2.765192
v 1 -10.85846 -2.93884
v -1 -10.85846 -2.93884
vt 0.90625 0.90625
vt 0.875 0.90625
vt 0.875 0.9375
vt 0.90625 0.9375
f 31/73 27/74 26/75 30/76
vt 0.8125 0.90625
vt 0.78125 0.90625
vt 0.78125 0.9375
vt 0.8125 0.9375
f 28/77 32/78 29/79 25/80
vt 0.875 0.9375
vt 0.8125 0.9375
vt 0.8125 0.96875
vt 0.875 0.96875
f 26/81 25/82 29/83 30/84
vt 0.9375 0.96875
vt 0.875 0.96875
vt 0.875 0.9375
vt 0.9375 0.9375
f 31/85 32/86 28/87 27/88
vt 0.875 0.90625
vt 0.8125 0.90625
vt 0.8125 0.9375
vt 0.875 0.9375
f 27/89 28/90 25/91 26/92
vt 0.96875 0.90625
vt 0.90625 0.90625
vt 0.90625 0.9375
vt 0.96875 0.9375
f 32/93 31/94 30/95 29/96
