# Converted from Decimation Beardie model: skeletonwall.bmodel
# Coordinates retain the original Beardie model units.
mtllib skeletonwall.mtl
usemtl skeletonwall_material
o baseModel0
v -4 21 -2
v 3.993909 21.13953 -1.720804
v 4.2803 15.01524 -6.859972
v -3.713609 14.87571 -7.139168
v -4.124098 15.85475 4.124622
v 3.86981 15.99428 4.403818
v 4.156201 9.869994 -0.73535
v -3.837708 9.73046 -1.014546
vt 0.375 0.5
vt 0.25 0.5
vt 0.25 0.75
vt 0.375 0.75
f 7/1 3/2 2/3 6/4
vt 0.125 0.5
vt 0 0.5
vt 0 0.75
vt 0.125 0.75
f 4/5 8/6 5/7 1/8
vt 0.25 0.75
vt 0.125 0.75
vt 0.125 1
vt 0.25 1
f 2/9 1/10 5/11 6/12
vt 0.375 1
vt 0.25 1
vt 0.25 0.75
vt 0.375 0.75
f 7/13 8/14 4/15 3/16
vt 0.25 0.5
vt 0.125 0.5
vt 0.125 0.75
vt 0.25 0.75
f 3/17 4/18 1/19 2/20
vt 0.5 0.5
vt 0.375 0.5
vt 0.375 0.75
vt 0.5 0.75
f 8/21 7/22 6/23 5/24
o baseModel1
v -5.5 10 -4
v -3.568148 10 -3.482362
v -5.304906 0.05154882 2.999304
v -7.236757 0.05154882 2.481666
v -5.929141 11.11839 -2.398422
v -3.99729 11.11839 -1.880784
v -5.734047 1.169935 4.600882
v -7.665899 1.169935 4.083244
vt 0.71875 0.0625
vt 0.6875 0.0625
vt 0.6875 0.4375
vt 0.71875 0.4375
f 15/25 11/26 10/27 14/28
vt 0.65625 0.0625
vt 0.625 0.0625
vt 0.625 0.4375
vt 0.65625 0.4375
f 12/29 16/30 13/31 9/32
vt 0.6875 0.4375
vt 0.65625 0.4375
vt 0.65625 0.5
vt 0.6875 0.5
f 10/33 9/34 13/35 14/36
vt 0.71875 0.5
vt 0.6875 0.5
vt 0.6875 0.4375
vt 0.71875 0.4375
f 15/37 16/38 12/39 11/40
vt 0.6875 0.0625
vt 0.65625 0.0625
vt 0.65625 0.4375
vt 0.6875 0.4375
f 11/41 12/42 9/43 10/44
vt 0.75 0.0625
vt 0.71875 0.0625
vt 0.71875 0.4375
vt 0.75 0.4375
f 16/45 15/46 14/47 13/48
o baseModel2
v 3.5 10 -5
v 5.431852 10 -5.517638
v 7.168609 0.05154882 0.9640278
v 5.236757 0.05154882 1.481666
v 3.929141 11.11839 -3.398422
v 5.860993 11.11839 -3.91606
v 7.59775 1.169935 2.565605
v 5.665899 1.169935 3.083244
vt 0.71875 0.0625
vt 0.6875 0.0625
vt 0.6875 0.4375
vt 0.71875 0.4375
f 23/49 19/50 18/51 22/52
vt 0.65625 0.0625
vt 0.625 0.0625
vt 0.625 0.4375
vt 0.65625 0.4375
f 20/53 24/54 21/55 17/56
vt 0.6875 0.4375
vt 0.65625 0.4375
vt 0.65625 0.5
vt 0.6875 0.5
f 18/57 17/58 21/59 22/60
vt 0.71875 0.5
vt 0.6875 0.5
vt 0.6875 0.4375
vt 0.71875 0.4375
f 23/61 24/62 20/63 19/64
vt 0.6875 0.0625
vt 0.65625 0.0625
vt 0.65625 0.4375
vt 0.6875 0.4375
f 19/65 20/66 17/67 18/68
vt 0.75 0.0625
vt 0.71875 0.0625
vt 0.71875 0.4375
vt 0.75 0.4375
f 24/69 23/70 22/71 21/72
o baseModel3
v -4 12 -6
v 4 12 -6
v 4 -0 -6
v -4 -0 -6
v -4 12 -2
v 4 12 -2
v 4 -0 -2
v -4 -0 -2
vt 0.5 0
vt 0.4375 0
vt 0.4375 0.375
vt 0.5 0.375
f 31/73 27/74 26/75 30/76
vt 0.3125 0
vt 0.25 0
vt 0.25 0.375
vt 0.3125 0.375
f 28/77 32/78 29/79 25/80
vt 0.4375 0.375
vt 0.3125 0.375
vt 0.3125 0.5
vt 0.4375 0.5
f 26/81 25/82 29/83 30/84
vt 0.5625 0.5
vt 0.4375 0.5
vt 0.4375 0.375
vt 0.5625 0.375
f 31/85 32/86 28/87 27/88
vt 0.4375 0
vt 0.3125 0
vt 0.3125 0.375
vt 0.4375 0.375
f 27/89 28/90 25/91 26/92
vt 0.625 0
vt 0.5 0
vt 0.5 0.375
vt 0.625 0.375
f 32/93 31/94 30/95 29/96
o baseModel4
v -3 -0 -3
v -1.030384 -0 -2.652704
v -3.112893 -0.4187909 9.15779
v -5.082508 -0.4187909 8.810494
v -3.01212 1.998782 -2.931262
v -1.042505 1.998782 -2.583966
v -3.125013 1.579991 9.226529
v -5.094629 1.579991 8.879232
vt 0.09375 0.0625
vt 0.0625 0.0625
vt 0.0625 0.4375
vt 0.09375 0.4375
f 39/97 35/98 34/99 38/100
vt 0.03125 0.0625
vt 0 0.0625
vt 0 0.4375
vt 0.03125 0.4375
f 36/101 40/102 37/103 33/104
vt 0.0625 0.4375
vt 0.03125 0.4375
vt 0.03125 0.5
vt 0.0625 0.5
f 34/105 33/106 37/107 38/108
vt 0.09375 0.5
vt 0.0625 0.5
vt 0.0625 0.4375
vt 0.09375 0.4375
f 39/109 40/110 36/111 35/112
vt 0.0625 0.0625
vt 0.03125 0.0625
vt 0.03125 0.4375
vt 0.0625 0.4375
f 35/113 36/114 33/115 34/116
vt 0.125 0.0625
vt 0.09375 0.0625
vt 0.09375 0.4375
vt 0.125 0.4375
f 40/117 39/118 38/119 37/120
o baseModel5
v 1 -0 -3
v 2.992389 -0 -3.174311
v 4.038099 -0.2094293 8.778204
v 2.04571 -0.2094293 8.952516
v 1.003042 1.999695 -2.965228
v 2.995432 1.999695 -3.139539
v 4.041141 1.790266 8.812976
v 2.048752 1.790266 8.987288
vt 0.09375 0.0625
vt 0.0625 0.0625
vt 0.0625 0.4375
vt 0.09375 0.4375
f 47/121 43/122 42/123 46/124
vt 0.03125 0.0625
vt 0 0.0625
vt 0 0.4375
vt 0.03125 0.4375
f 44/125 48/126 45/127 41/128
vt 0.0625 0.4375
vt 0.03125 0.4375
vt 0.03125 0.5
vt 0.0625 0.5
f 42/129 41/130 45/131 46/132
vt 0.09375 0.5
vt 0.0625 0.5
vt 0.0625 0.4375
vt 0.09375 0.4375
f 47/133 48/134 44/135 43/136
vt 0.0625 0.0625
vt 0.03125 0.0625
vt 0.03125 0.4375
vt 0.0625 0.4375
f 43/137 44/138 41/139 42/140
vt 0.125 0.0625
vt 0.09375 0.0625
vt 0.09375 0.4375
vt 0.125 0.4375
f 48/141 47/142 46/143 45/144
