# Converted from Decimation Beardie model: btr70turret.bmodel
# Coordinates retain the original Beardie model units.
mtllib btr70turret.mtl
usemtl btr70turret_material
o turretModel0
v 10 31.6 0
v 13 31.6 0
v 11 24.6 0
v 5 24.6 0
v 10.5 31.6 2
v 13 31.6 6
v 11 24.6 11
v 8 24.6 8
vt 0.15234375 0.625
vt 0.14453125 0.625
vt 0.14453125 0.638671875
vt 0.15234375 0.638671875
f 7/1 3/2 2/3 6/4
vt 0.141601562 0.625
vt 0.133789062 0.625
vt 0.133789062 0.638671875
vt 0.141601562 0.638671875
f 4/5 8/6 5/7 1/8
vt 0.14453125 0.638671875
vt 0.141601562 0.638671875
vt 0.141601562 0.654296875
vt 0.14453125 0.654296875
f 2/9 1/10 5/11 6/12
vt 0.147460938 0.654296875
vt 0.14453125 0.654296875
vt 0.14453125 0.638671875
vt 0.147460938 0.638671875
f 7/13 8/14 4/15 3/16
vt 0.14453125 0.625
vt 0.141601562 0.625
vt 0.141601562 0.638671875
vt 0.14453125 0.638671875
f 3/17 4/18 1/19 2/20
vt 0.155273438 0.625
vt 0.15234375 0.625
vt 0.15234375 0.638671875
vt 0.155273438 0.638671875
f 8/21 7/22 6/23 5/24
o turretModel1
v 13 31.6 -6
v 18 31.6 -8
v 18 24.6 -13
v 11 24.6 -11
v 13 31.6 0
v 18 31.6 0
v 18 24.6 0
v 11 24.6 0
vt 0.763671875 0.625
vt 0.755859375 0.625
vt 0.755859375 0.638671875
vt 0.763671875 0.638671875
f 15/25 11/26 10/27 14/28
vt 0.750976562 0.625
vt 0.743164062 0.625
vt 0.743164062 0.638671875
vt 0.750976562 0.638671875
f 12/29 16/30 13/31 9/32
vt 0.755859375 0.638671875
vt 0.750976562 0.638671875
vt 0.750976562 0.654296875
vt 0.755859375 0.654296875
f 10/33 9/34 13/35 14/36
vt 0.760742188 0.654296875
vt 0.755859375 0.654296875
vt 0.755859375 0.638671875
vt 0.760742188 0.638671875
f 15/37 16/38 12/39 11/40
vt 0.755859375 0.625
vt 0.750976562 0.625
vt 0.750976562 0.638671875
vt 0.755859375 0.638671875
f 11/41 12/42 9/43 10/44
vt 0.768554688 0.625
vt 0.763671875 0.625
vt 0.763671875 0.638671875
vt 0.768554688 0.638671875
f 16/45 15/46 14/47 13/48
o turretModel2
v 18 31.6 -8
v 23 31.6 -6
v 24 24.6 -11.5
v 18 24.6 -13
v 18 31.6 0
v 23 31.6 0
v 24 24.6 0
v 18 24.6 0
vt 0.974609375 0.625
vt 0.966796875 0.625
vt 0.966796875 0.638671875
vt 0.974609375 0.638671875
f 23/49 19/50 18/51 22/52
vt 0.961914062 0.625
vt 0.954101562 0.625
vt 0.954101562 0.638671875
vt 0.961914062 0.638671875
f 20/53 24/54 21/55 17/56
vt 0.966796875 0.638671875
vt 0.961914062 0.638671875
vt 0.961914062 0.654296875
vt 0.966796875 0.654296875
f 18/57 17/58 21/59 22/60
vt 0.971679688 0.654296875
vt 0.966796875 0.654296875
vt 0.966796875 0.638671875
vt 0.971679688 0.638671875
f 23/61 24/62 20/63 19/64
vt 0.966796875 0.625
vt 0.961914062 0.625
vt 0.961914062 0.638671875
vt 0.966796875 0.638671875
f 19/65 20/66 17/67 18/68
vt 0.979492188 0.625
vt 0.974609375 0.625
vt 0.974609375 0.638671875
vt 0.979492188 0.638671875
f 24/69 23/70 22/71 21/72
o turretModel3
v 18 31.6 0
v 23 31.6 0
v 24 24.6 0
v 18 24.6 0
v 18 31.6 8
v 23 31.6 6
v 24 24.6 11.5
v 18 24.6 13
vt 0.169921875 0.609375
vt 0.162109375 0.609375
vt 0.162109375 0.623046875
vt 0.169921875 0.623046875
f 31/73 27/74 26/75 30/76
vt 0.157226562 0.609375
vt 0.149414062 0.609375
vt 0.149414062 0.623046875
vt 0.157226562 0.623046875
f 28/77 32/78 29/79 25/80
vt 0.162109375 0.623046875
vt 0.157226562 0.623046875
vt 0.157226562 0.638671875
vt 0.162109375 0.638671875
f 26/81 25/82 29/83 30/84
vt 0.166992188 0.638671875
vt 0.162109375 0.638671875
vt 0.162109375 0.623046875
vt 0.166992188 0.623046875
f 31/85 32/86 28/87 27/88
vt 0.162109375 0.609375
vt 0.157226562 0.609375
vt 0.157226562 0.623046875
vt 0.162109375 0.623046875
f 27/89 28/90 25/91 26/92
vt 0.174804688 0.609375
vt 0.169921875 0.609375
vt 0.169921875 0.623046875
vt 0.174804688 0.623046875
f 32/93 31/94 30/95 29/96
o turretModel4
v 13 31.6 0
v 18 31.6 0
v 18 24.6 0
v 11 24.6 0
v 13 31.6 6
v 18 31.6 8
v 18 24.6 13
v 11 24.6 11
vt 0.201171875 0.609375
vt 0.193359375 0.609375
vt 0.193359375 0.623046875
vt 0.201171875 0.623046875
f 39/97 35/98 34/99 38/100
vt 0.188476562 0.609375
vt 0.180664062 0.609375
vt 0.180664062 0.623046875
vt 0.188476562 0.623046875
f 36/101 40/102 37/103 33/104
vt 0.193359375 0.623046875
vt 0.188476562 0.623046875
vt 0.188476562 0.638671875
vt 0.193359375 0.638671875
f 34/105 33/106 37/107 38/108
vt 0.198242188 0.638671875
vt 0.193359375 0.638671875
vt 0.193359375 0.623046875
vt 0.198242188 0.623046875
f 39/109 40/110 36/111 35/112
vt 0.193359375 0.609375
vt 0.188476562 0.609375
vt 0.188476562 0.623046875
vt 0.193359375 0.623046875
f 35/113 36/114 33/115 34/116
vt 0.206054688 0.609375
vt 0.201171875 0.609375
vt 0.201171875 0.623046875
vt 0.206054688 0.623046875
f 40/117 39/118 38/119 37/120
o turretModel5
v 10.5 31.6 -2
v 13 31.6 -6
v 11 24.6 -11
v 8 24.6 -8
v 10 31.6 0
v 13 31.6 0
v 11 24.6 0
v 5 24.6 0
vt 0.67578125 0.625
vt 0.66796875 0.625
vt 0.66796875 0.638671875
vt 0.67578125 0.638671875
f 47/121 43/122 42/123 46/124
vt 0.665039062 0.625
vt 0.657226562 0.625
vt 0.657226562 0.638671875
vt 0.665039062 0.638671875
f 44/125 48/126 45/127 41/128
vt 0.66796875 0.638671875
vt 0.665039062 0.638671875
vt 0.665039062 0.654296875
vt 0.66796875 0.654296875
f 42/129 41/130 45/131 46/132
vt 0.670898438 0.654296875
vt 0.66796875 0.654296875
vt 0.66796875 0.638671875
vt 0.670898438 0.638671875
f 47/133 48/134 44/135 43/136
vt 0.66796875 0.625
vt 0.665039062 0.625
vt 0.665039062 0.638671875
vt 0.66796875 0.638671875
f 43/137 44/138 41/139 42/140
vt 0.678710938 0.625
vt 0.67578125 0.625
vt 0.67578125 0.638671875
vt 0.678710938 0.638671875
f 48/141 47/142 46/143 45/144
o turretModel6
v 23 31.6 -6
v 24.5 31.6 -4.5
v 28.5 24.6 -8
v 24 24.6 -11.5
v 23 31.6 -4.5
v 24.5 31.6 -4.5
v 30.5 24.6 -4.5
v 25 24.6 -4.5
vt 0.88671875 0.6484375
vt 0.8828125 0.6484375
vt 0.8828125 0.662109375
vt 0.88671875 0.662109375
f 55/145 51/146 50/147 54/148
vt 0.879882812 0.6484375
vt 0.875976562 0.6484375
vt 0.875976562 0.662109375
vt 0.879882812 0.662109375
f 52/149 56/150 53/151 49/152
vt 0.8828125 0.662109375
vt 0.879882812 0.662109375
vt 0.879882812 0.669921875
vt 0.8828125 0.669921875
f 50/153 49/154 53/155 54/156
vt 0.885742188 0.669921875
vt 0.8828125 0.669921875
vt 0.8828125 0.662109375
vt 0.885742188 0.662109375
f 55/157 56/158 52/159 51/160
vt 0.8828125 0.6484375
vt 0.879882812 0.6484375
vt 0.879882812 0.662109375
vt 0.8828125 0.662109375
f 51/161 52/162 49/163 50/164
vt 0.889648438 0.6484375
vt 0.88671875 0.6484375
vt 0.88671875 0.662109375
vt 0.889648438 0.662109375
f 56/165 55/166 54/167 53/168
o turretModel7
v 23 31.6 4.5
v 24.5 31.6 4.5
v 30.5 24.6 4.5
v 25 24.6 4.5
v 23 31.6 6
v 24.5 31.6 4.5
v 28.5 24.6 8
v 24 24.6 11.5
vt 0.40234375 0.6328125
vt 0.3984375 0.6328125
vt 0.3984375 0.646484375
vt 0.40234375 0.646484375
f 63/169 59/170 58/171 62/172
vt 0.395507812 0.6328125
vt 0.391601562 0.6328125
vt 0.391601562 0.646484375
vt 0.395507812 0.646484375
f 60/173 64/174 61/175 57/176
vt 0.3984375 0.646484375
vt 0.395507812 0.646484375
vt 0.395507812 0.654296875
vt 0.3984375 0.654296875
f 58/177 57/178 61/179 62/180
vt 0.401367188 0.654296875
vt 0.3984375 0.654296875
vt 0.3984375 0.646484375
vt 0.401367188 0.646484375
f 63/181 64/182 60/183 59/184
vt 0.3984375 0.6328125
vt 0.395507812 0.6328125
vt 0.395507812 0.646484375
vt 0.3984375 0.646484375
f 59/185 60/186 57/187 58/188
vt 0.405273438 0.6328125
vt 0.40234375 0.6328125
vt 0.40234375 0.646484375
vt 0.405273438 0.646484375
f 64/189 63/190 62/191 61/192
o turretModel8
v 29.6 25.6 0
v 30.6 25.6 0
v 31 24.6 0
v 29.6 24.6 0
v 29.6 25.6 4.5
v 30.6 25.6 2
v 30.8 24.6 2
v 30.4 24.6 4.5
vt 0.369140625 0.63671875
vt 0.361328125 0.63671875
vt 0.361328125 0.638671875
vt 0.369140625 0.638671875
f 71/193 67/194 66/195 70/196
vt 0.360351562 0.63671875
vt 0.352539062 0.63671875
vt 0.352539062 0.638671875
vt 0.360351562 0.638671875
f 68/197 72/198 69/199 65/200
vt 0.361328125 0.638671875
vt 0.360351562 0.638671875
vt 0.360351562 0.654296875
vt 0.361328125 0.654296875
f 66/201 65/202 69/203 70/204
vt 0.362304688 0.654296875
vt 0.361328125 0.654296875
vt 0.361328125 0.638671875
vt 0.362304688 0.638671875
f 71/205 72/206 68/207 67/208
vt 0.361328125 0.63671875
vt 0.360351562 0.63671875
vt 0.360351562 0.638671875
vt 0.361328125 0.638671875
f 67/209 68/210 65/211 66/212
vt 0.370117188 0.63671875
vt 0.369140625 0.63671875
vt 0.369140625 0.638671875
vt 0.370117188 0.638671875
f 72/213 71/214 70/215 69/216
o turretModel9
v 29.6 25.6 -4.5
v 30.6 25.6 -2
v 30.8 24.6 -2
v 30.4 24.6 -4.5
v 29.6 25.6 0
v 30.6 25.6 0
v 31 24.6 0
v 29.6 24.6 0
vt 0.072265625 0.62109375
vt 0.064453125 0.62109375
vt 0.064453125 0.623046875
vt 0.072265625 0.623046875
f 79/217 75/218 74/219 78/220
vt 0.0634765625 0.62109375
vt 0.0556640625 0.62109375
vt 0.0556640625 0.623046875
vt 0.0634765625 0.623046875
f 76/221 80/222 77/223 73/224
vt 0.064453125 0.623046875
vt 0.0634765625 0.623046875
vt 0.0634765625 0.638671875
vt 0.064453125 0.638671875
f 74/225 73/226 77/227 78/228
vt 0.0654296875 0.638671875
vt 0.064453125 0.638671875
vt 0.064453125 0.623046875
vt 0.0654296875 0.623046875
f 79/229 80/230 76/231 75/232
vt 0.064453125 0.62109375
vt 0.0634765625 0.62109375
vt 0.0634765625 0.623046875
vt 0.064453125 0.623046875
f 75/233 76/234 73/235 74/236
vt 0.0732421875 0.62109375
vt 0.072265625 0.62109375
vt 0.072265625 0.623046875
vt 0.0732421875 0.623046875
f 80/237 79/238 78/239 77/240
o turretModel10
v 23.6 25.6 -4.5
v 29.6 25.6 -4.5
v 29.6 24.6 -4.5
v 23.6 24.6 -4.5
v 23.6 25.6 4.5
v 29.6 25.6 4.5
v 29.6 24.6 4.5
v 23.6 24.6 4.5
vt 0.391601562 0.619140625
vt 0.3828125 0.619140625
vt 0.3828125 0.62109375
vt 0.391601562 0.62109375
f 87/241 83/242 82/243 86/244
vt 0.376953125 0.619140625
vt 0.368164062 0.619140625
vt 0.368164062 0.62109375
vt 0.376953125 0.62109375
f 84/245 88/246 85/247 81/248
vt 0.3828125 0.62109375
vt 0.376953125 0.62109375
vt 0.376953125 0.638671875
vt 0.3828125 0.638671875
f 82/249 81/250 85/251 86/252
vt 0.388671875 0.638671875
vt 0.3828125 0.638671875
vt 0.3828125 0.62109375
vt 0.388671875 0.62109375
f 87/253 88/254 84/255 83/256
vt 0.3828125 0.619140625
vt 0.376953125 0.619140625
vt 0.376953125 0.62109375
vt 0.3828125 0.62109375
f 83/257 84/258 81/259 82/260
vt 0.397460938 0.619140625
vt 0.391601562 0.619140625
vt 0.391601562 0.62109375
vt 0.397460938 0.62109375
f 88/261 87/262 86/263 85/264
o turretModel11
v 23 31.6 -4.5
v 24.5 31.6 -4.5
v 24.9 31.1 -4.5
v 23 31.1 -4.5
v 23 31.6 4.5
v 24.5 31.6 4.5
v 24.9 31.1 4.5
v 23 31.1 4.5
vt 0.52734375 0.666015625
vt 0.518554688 0.666015625
vt 0.518554688 0.66796875
vt 0.52734375 0.66796875
f 95/265 91/266 90/267 94/268
vt 0.517578125 0.666015625
vt 0.508789062 0.666015625
vt 0.508789062 0.66796875
vt 0.517578125 0.66796875
f 92/269 96/270 93/271 89/272
vt 0.518554688 0.66796875
vt 0.517578125 0.66796875
vt 0.517578125 0.685546875
vt 0.518554688 0.685546875
f 90/273 89/274 93/275 94/276
vt 0.51953125 0.685546875
vt 0.518554688 0.685546875
vt 0.518554688 0.66796875
vt 0.51953125 0.66796875
f 95/277 96/278 92/279 91/280
vt 0.518554688 0.666015625
vt 0.517578125 0.666015625
vt 0.517578125 0.66796875
vt 0.518554688 0.66796875
f 91/281 92/282 89/283 90/284
vt 0.528320312 0.666015625
vt 0.52734375 0.666015625
vt 0.52734375 0.66796875
vt 0.528320312 0.66796875
f 96/285 95/286 94/287 93/288
o turretModel12
v 23.4 31.1 -4.5
v 24.9 31.1 -4.5
v 29.6 25.6 -4.5
v 23.4 25.6 -4.5
v 23.4 31.1 -3.2
v 24.9 31.1 -3.2
v 29.6 25.6 -3.2
v 23.4 25.6 -3.2
vt 0.83203125 0.78125
vt 0.831054688 0.78125
vt 0.831054688 0.79296875
vt 0.83203125 0.79296875
f 103/289 99/290 98/291 102/292
vt 0.830078125 0.78125
vt 0.829101562 0.78125
vt 0.829101562 0.79296875
vt 0.830078125 0.79296875
f 100/293 104/294 101/295 97/296
vt 0.831054688 0.79296875
vt 0.830078125 0.79296875
vt 0.830078125 0.794921875
vt 0.831054688 0.794921875
f 98/297 97/298 101/299 102/300
vt 0.83203125 0.794921875
vt 0.831054688 0.794921875
vt 0.831054688 0.79296875
vt 0.83203125 0.79296875
f 103/301 104/302 100/303 99/304
vt 0.831054688 0.78125
vt 0.830078125 0.78125
vt 0.830078125 0.79296875
vt 0.831054688 0.79296875
f 99/305 100/306 97/307 98/308
vt 0.833007812 0.78125
vt 0.83203125 0.78125
vt 0.83203125 0.79296875
vt 0.833007812 0.79296875
f 104/309 103/310 102/311 101/312
o turretModel13
v 23.4 31.1 -1.9
v 24.9 31.1 -1.9
v 29.6 25.6 -1.9
v 23.4 25.6 -1.9
v 23.4 31.1 -1.1
v 24.9 31.1 -1.1
v 29.6 25.6 -1.1
v 23.4 25.6 -1.1
vt 0.87890625 0.78125
vt 0.877929688 0.78125
vt 0.877929688 0.79296875
vt 0.87890625 0.79296875
f 111/313 107/314 106/315 110/316
vt 0.876953125 0.78125
vt 0.875976562 0.78125
vt 0.875976562 0.79296875
vt 0.876953125 0.79296875
f 108/317 112/318 109/319 105/320
vt 0.877929688 0.79296875
vt 0.876953125 0.79296875
vt 0.876953125 0.794921875
vt 0.877929688 0.794921875
f 106/321 105/322 109/323 110/324
vt 0.87890625 0.794921875
vt 0.877929688 0.794921875
vt 0.877929688 0.79296875
vt 0.87890625 0.79296875
f 111/325 112/326 108/327 107/328
vt 0.877929688 0.78125
vt 0.876953125 0.78125
vt 0.876953125 0.79296875
vt 0.877929688 0.79296875
f 107/329 108/330 105/331 106/332
vt 0.879882812 0.78125
vt 0.87890625 0.78125
vt 0.87890625 0.79296875
vt 0.879882812 0.79296875
f 112/333 111/334 110/335 109/336
o turretModel14
v 23.4 31.1 1.2
v 24.9 31.1 1.2
v 29.6 25.6 1.2
v 23.4 25.6 1.2
v 23.4 31.1 1.8
v 24.9 31.1 1.8
v 29.6 25.6 1.8
v 23.4 25.6 1.8
vt 0.11328125 0.765625
vt 0.112304688 0.765625
vt 0.112304688 0.77734375
vt 0.11328125 0.77734375
f 119/337 115/338 114/339 118/340
vt 0.111328125 0.765625
vt 0.110351562 0.765625
vt 0.110351562 0.77734375
vt 0.111328125 0.77734375
f 116/341 120/342 117/343 113/344
vt 0.112304688 0.77734375
vt 0.111328125 0.77734375
vt 0.111328125 0.779296875
vt 0.112304688 0.779296875
f 114/345 113/346 117/347 118/348
vt 0.11328125 0.779296875
vt 0.112304688 0.779296875
vt 0.112304688 0.77734375
vt 0.11328125 0.77734375
f 119/349 120/350 116/351 115/352
vt 0.112304688 0.765625
vt 0.111328125 0.765625
vt 0.111328125 0.77734375
vt 0.112304688 0.77734375
f 115/353 116/354 113/355 114/356
vt 0.114257812 0.765625
vt 0.11328125 0.765625
vt 0.11328125 0.77734375
vt 0.114257812 0.77734375
f 120/357 119/358 118/359 117/360
o turretModel15
v 23.4 31.1 3.9
v 24.9 31.1 3.9
v 29.6 25.6 3.9
v 23.4 25.6 3.9
v 23.4 31.1 4.5
v 24.9 31.1 4.5
v 29.6 25.6 4.5
v 23.4 25.6 4.5
vt 0.69140625 0.765625
vt 0.690429688 0.765625
vt 0.690429688 0.77734375
vt 0.69140625 0.77734375
f 127/361 123/362 122/363 126/364
vt 0.689453125 0.765625
vt 0.688476562 0.765625
vt 0.688476562 0.77734375
vt 0.689453125 0.77734375
f 124/365 128/366 125/367 121/368
vt 0.690429688 0.77734375
vt 0.689453125 0.77734375
vt 0.689453125 0.779296875
vt 0.690429688 0.779296875
f 122/369 121/370 125/371 126/372
vt 0.69140625 0.779296875
vt 0.690429688 0.779296875
vt 0.690429688 0.77734375
vt 0.69140625 0.77734375
f 127/373 128/374 124/375 123/376
vt 0.690429688 0.765625
vt 0.689453125 0.765625
vt 0.689453125 0.77734375
vt 0.690429688 0.77734375
f 123/377 124/378 121/379 122/380
vt 0.692382812 0.765625
vt 0.69140625 0.765625
vt 0.69140625 0.77734375
vt 0.692382812 0.77734375
f 128/381 127/382 126/383 125/384
o turretModel16
v 23.4 31.1 -3.2
v 24.9 31.1 -3.2
v 25.3 30.6 -3.2
v 23.4 30.6 -3.2
v 23.4 31.1 -1.9
v 24.9 31.1 -1.9
v 25.3 30.6 -1.9
v 23.4 30.6 -1.9
vt 0.69921875 0.900390625
vt 0.698242188 0.900390625
vt 0.698242188 0.90234375
vt 0.69921875 0.90234375
f 135/385 131/386 130/387 134/388
vt 0.697265625 0.900390625
vt 0.696289062 0.900390625
vt 0.696289062 0.90234375
vt 0.697265625 0.90234375
f 132/389 136/390 133/391 129/392
vt 0.698242188 0.90234375
vt 0.697265625 0.90234375
vt 0.697265625 0.904296875
vt 0.698242188 0.904296875
f 130/393 129/394 133/395 134/396
vt 0.69921875 0.904296875
vt 0.698242188 0.904296875
vt 0.698242188 0.90234375
vt 0.69921875 0.90234375
f 135/397 136/398 132/399 131/400
vt 0.698242188 0.900390625
vt 0.697265625 0.900390625
vt 0.697265625 0.90234375
vt 0.698242188 0.90234375
f 131/401 132/402 129/403 130/404
vt 0.700195312 0.900390625
vt 0.69921875 0.900390625
vt 0.69921875 0.90234375
vt 0.700195312 0.90234375
f 136/405 135/406 134/407 133/408
o turretModel17
v 23.4 31.1 1.8
v 24.9 31.1 1.8
v 25.3 30.6 1.8
v 23.4 30.6 1.8
v 23.4 31.1 3.9
v 24.9 31.1 3.9
v 24.95 31 3.9
v 23.4 31.1 3.9
vt 0.490234375 0.8828125
vt 0.48828125 0.8828125
vt 0.48828125 0.884765625
vt 0.490234375 0.884765625
f 143/409 139/410 138/411 142/412
vt 0.487304688 0.8828125
vt 0.485351562 0.8828125
vt 0.485351562 0.884765625
vt 0.487304688 0.884765625
f 140/413 144/414 141/415 137/416
vt 0.48828125 0.884765625
vt 0.487304688 0.884765625
vt 0.487304688 0.888671875
vt 0.48828125 0.888671875
f 138/417 137/418 141/419 142/420
vt 0.489257812 0.888671875
vt 0.48828125 0.888671875
vt 0.48828125 0.884765625
vt 0.489257812 0.884765625
f 143/421 144/422 140/423 139/424
vt 0.48828125 0.8828125
vt 0.487304688 0.8828125
vt 0.487304688 0.884765625
vt 0.48828125 0.884765625
f 139/425 140/426 137/427 138/428
vt 0.491210938 0.8828125
vt 0.490234375 0.8828125
vt 0.490234375 0.884765625
vt 0.491210938 0.884765625
f 144/429 143/430 142/431 141/432
o turretModel18
v 23.4 31.1 -0.9
v 24.9 31.1 -0.9
v 24.95 31 -0.9
v 23.4 31.1 -0.9
v 23.4 31.1 1.2
v 24.9 31.1 1.2
v 25.3 30.6 1.2
v 23.4 30.6 1.2
vt 0.083984375 0.8515625
vt 0.08203125 0.8515625
vt 0.08203125 0.853515625
vt 0.083984375 0.853515625
f 151/433 147/434 146/435 150/436
vt 0.0810546875 0.8515625
vt 0.0791015625 0.8515625
vt 0.0791015625 0.853515625
vt 0.0810546875 0.853515625
f 148/437 152/438 149/439 145/440
vt 0.08203125 0.853515625
vt 0.0810546875 0.853515625
vt 0.0810546875 0.857421875
vt 0.08203125 0.857421875
f 146/441 145/442 149/443 150/444
vt 0.0830078125 0.857421875
vt 0.08203125 0.857421875
vt 0.08203125 0.853515625
vt 0.0830078125 0.853515625
f 151/445 152/446 148/447 147/448
vt 0.08203125 0.8515625
vt 0.0810546875 0.8515625
vt 0.0810546875 0.853515625
vt 0.08203125 0.853515625
f 147/449 148/450 145/451 146/452
vt 0.0849609375 0.8515625
vt 0.083984375 0.8515625
vt 0.083984375 0.853515625
vt 0.0849609375 0.853515625
f 152/453 151/454 150/455 149/456
o turretModel19
v 23.4 31.1 -1.1
v 24.9 31.1 -1.1
v 25.3 30.6 -1.1
v 23.4 30.6 -1.1
v 23.4 31.1 1
v 24.9 31.1 1
v 24.95 31 1
v 23.4 31.1 1
vt 0.701171875 0.8515625
vt 0.69921875 0.8515625
vt 0.69921875 0.853515625
vt 0.701171875 0.853515625
f 159/457 155/458 154/459 158/460
vt 0.698242188 0.8515625
vt 0.696289062 0.8515625
vt 0.696289062 0.853515625
vt 0.698242188 0.853515625
f 156/461 160/462 157/463 153/464
vt 0.69921875 0.853515625
vt 0.698242188 0.853515625
vt 0.698242188 0.857421875
vt 0.69921875 0.857421875
f 154/465 153/466 157/467 158/468
vt 0.700195312 0.857421875
vt 0.69921875 0.857421875
vt 0.69921875 0.853515625
vt 0.700195312 0.853515625
f 159/469 160/470 156/471 155/472
vt 0.69921875 0.8515625
vt 0.698242188 0.8515625
vt 0.698242188 0.853515625
vt 0.69921875 0.853515625
f 155/473 156/474 153/475 154/476
vt 0.702148438 0.8515625
vt 0.701171875 0.8515625
vt 0.701171875 0.853515625
vt 0.702148438 0.853515625
f 160/477 159/478 158/479 157/480
o turretModel20
v 23.55 26.1 1.8
v 29.05 26.2 1.8
v 30.05 25.1 1.8
v 23.55 25.1 1.8
v 23.55 26.6 3.9
v 28.7 26.6 3.9
v 30.05 25.1 3.9
v 23.55 25.1 3.9
vt 0.166015625 0.724609375
vt 0.1640625 0.724609375
vt 0.1640625 0.728515625
vt 0.166015625 0.728515625
f 167/481 163/482 162/483 166/484
vt 0.159179688 0.724609375
vt 0.157226562 0.724609375
vt 0.157226562 0.728515625
vt 0.159179688 0.728515625
f 164/485 168/486 165/487 161/488
vt 0.1640625 0.728515625
vt 0.159179688 0.728515625
vt 0.159179688 0.732421875
vt 0.1640625 0.732421875
f 162/489 161/490 165/491 166/492
vt 0.168945312 0.732421875
vt 0.1640625 0.732421875
vt 0.1640625 0.728515625
vt 0.168945312 0.728515625
f 167/493 168/494 164/495 163/496
vt 0.1640625 0.724609375
vt 0.159179688 0.724609375
vt 0.159179688 0.728515625
vt 0.1640625 0.728515625
f 163/497 164/498 161/499 162/500
vt 0.170898438 0.724609375
vt 0.166015625 0.724609375
vt 0.166015625 0.728515625
vt 0.170898438 0.728515625
f 168/501 167/502 166/503 165/504
o turretModel21
v 23.55 26.6 1.8
v 28.7 26.6 1.8
v 30.05 25.1 1.8
v 23.55 25.1 1.8
v 23.55 26.1 3.9
v 29.05 26.2 3.9
v 30.05 25.1 3.9
v 23.55 25.1 3.9
vt 0.314453125 0.724609375
vt 0.3125 0.724609375
vt 0.3125 0.728515625
vt 0.314453125 0.728515625
f 175/505 171/506 170/507 174/508
vt 0.307617188 0.724609375
vt 0.305664062 0.724609375
vt 0.305664062 0.728515625
vt 0.307617188 0.728515625
f 172/509 176/510 173/511 169/512
vt 0.3125 0.728515625
vt 0.307617188 0.728515625
vt 0.307617188 0.732421875
vt 0.3125 0.732421875
f 170/513 169/514 173/515 174/516
vt 0.317382812 0.732421875
vt 0.3125 0.732421875
vt 0.3125 0.728515625
vt 0.317382812 0.728515625
f 175/517 176/518 172/519 171/520
vt 0.3125 0.724609375
vt 0.307617188 0.724609375
vt 0.307617188 0.728515625
vt 0.3125 0.728515625
f 171/521 172/522 169/523 170/524
vt 0.319335938 0.724609375
vt 0.314453125 0.724609375
vt 0.314453125 0.728515625
vt 0.319335938 0.728515625
f 176/525 175/526 174/527 173/528
o turretModel22
v 27.7 26.1 -3.2
v 29.2 26.1 -3.2
v 29.6 25.6 -3.2
v 27.7 25.6 -3.2
v 27.7 26.1 -1.9
v 29.2 26.1 -1.9
v 29.6 25.6 -1.9
v 27.7 25.6 -1.9
vt 0.71484375 0.900390625
vt 0.713867188 0.900390625
vt 0.713867188 0.90234375
vt 0.71484375 0.90234375
f 183/529 179/530 178/531 182/532
vt 0.712890625 0.900390625
vt 0.711914062 0.900390625
vt 0.711914062 0.90234375
vt 0.712890625 0.90234375
f 180/533 184/534 181/535 177/536
vt 0.713867188 0.90234375
vt 0.712890625 0.90234375
vt 0.712890625 0.904296875
vt 0.713867188 0.904296875
f 178/537 177/538 181/539 182/540
vt 0.71484375 0.904296875
vt 0.713867188 0.904296875
vt 0.713867188 0.90234375
vt 0.71484375 0.90234375
f 183/541 184/542 180/543 179/544
vt 0.713867188 0.900390625
vt 0.712890625 0.900390625
vt 0.712890625 0.90234375
vt 0.713867188 0.90234375
f 179/545 180/546 177/547 178/548
vt 0.715820312 0.900390625
vt 0.71484375 0.900390625
vt 0.71484375 0.90234375
vt 0.715820312 0.90234375
f 184/549 183/550 182/551 181/552
o turretModel23
v 17.8 33.2 -6
v 18.2 33.2 -6
v 19 31.2 -6
v 17 31.2 -6
v 17.8 33.2 -2
v 18.2 33.2 -2
v 19 31.2 -2
v 17 31.2 -2
vt 0.315429688 0.689453125
vt 0.311523438 0.689453125
vt 0.311523438 0.693359375
vt 0.315429688 0.693359375
f 191/553 187/554 186/555 190/556
vt 0.309570312 0.689453125
vt 0.305664062 0.689453125
vt 0.305664062 0.693359375
vt 0.309570312 0.693359375
f 188/557 192/558 189/559 185/560
vt 0.311523438 0.693359375
vt 0.309570312 0.693359375
vt 0.309570312 0.701171875
vt 0.311523438 0.701171875
f 186/561 185/562 189/563 190/564
vt 0.313476562 0.701171875
vt 0.311523438 0.701171875
vt 0.311523438 0.693359375
vt 0.313476562 0.693359375
f 191/565 192/566 188/567 187/568
vt 0.311523438 0.689453125
vt 0.309570312 0.689453125
vt 0.309570312 0.693359375
vt 0.311523438 0.693359375
f 187/569 188/570 185/571 186/572
vt 0.317382812 0.689453125
vt 0.315429688 0.689453125
vt 0.315429688 0.693359375
vt 0.317382812 0.693359375
f 192/573 191/574 190/575 189/576
o turretModel24
v 19.5 31.1 1.5
v 24.5 31.1 1.5
v 25.5 25.1 1.5
v 19.5 25.1 1.5
v 19.5 31.1 6.5
v 24.5 31.1 4.5
v 25.5 25.1 8
v 19.5 25.1 9.5
vt 0.2265625 0.6171875
vt 0.221679688 0.6171875
vt 0.221679688 0.62890625
vt 0.2265625 0.62890625
f 199/577 195/578 194/579 198/580
vt 0.216796875 0.6171875
vt 0.211914062 0.6171875
vt 0.211914062 0.62890625
vt 0.216796875 0.62890625
f 196/581 200/582 197/583 193/584
vt 0.221679688 0.62890625
vt 0.216796875 0.62890625
vt 0.216796875 0.638671875
vt 0.221679688 0.638671875
f 194/585 193/586 197/587 198/588
vt 0.2265625 0.638671875
vt 0.221679688 0.638671875
vt 0.221679688 0.62890625
vt 0.2265625 0.62890625
f 199/589 200/590 196/591 195/592
vt 0.221679688 0.6171875
vt 0.216796875 0.6171875
vt 0.216796875 0.62890625
vt 0.221679688 0.62890625
f 195/593 196/594 193/595 194/596
vt 0.231445312 0.6171875
vt 0.2265625 0.6171875
vt 0.2265625 0.62890625
vt 0.231445312 0.62890625
f 200/597 199/598 198/599 197/600
o barrelModel0
v 23 27.7 -0.5
v 43 27.7 -0.5
v 43 27.3 -0.5
v 23 27.3 -0.5
v 23 27.7 0.5
v 43 27.7 0.5
v 43 27.3 0.5
v 23 27.3 0.5
vt 0.639648438 0.806640625
vt 0.638671875 0.806640625
vt 0.638671875 0.80859375
vt 0.639648438 0.80859375
f 207/601 203/602 202/603 206/604
vt 0.619140625 0.806640625
vt 0.618164062 0.806640625
vt 0.618164062 0.80859375
vt 0.619140625 0.80859375
f 204/605 208/606 205/607 201/608
vt 0.638671875 0.80859375
vt 0.619140625 0.80859375
vt 0.619140625 0.810546875
vt 0.638671875 0.810546875
f 202/609 201/610 205/611 206/612
vt 0.658203125 0.810546875
vt 0.638671875 0.810546875
vt 0.638671875 0.80859375
vt 0.658203125 0.80859375
f 207/613 208/614 204/615 203/616
vt 0.638671875 0.806640625
vt 0.619140625 0.806640625
vt 0.619140625 0.80859375
vt 0.638671875 0.80859375
f 203/617 204/618 201/619 202/620
vt 0.659179688 0.806640625
vt 0.639648438 0.806640625
vt 0.639648438 0.80859375
vt 0.659179688 0.80859375
f 208/621 207/622 206/623 205/624
o barrelModel1
v 23 28 -0.15
v 43 28 -0.15
v 43 27.7 -0.5
v 23 27.7 -0.5
v 23 28 0.15
v 43 28 0.15
v 43 27.7 0.5
v 23 27.7 0.5
vt 0.0849609375 0.791015625
vt 0.083984375 0.791015625
vt 0.083984375 0.79296875
vt 0.0849609375 0.79296875
f 215/625 211/626 210/627 214/628
vt 0.064453125 0.791015625
vt 0.0634765625 0.791015625
vt 0.0634765625 0.79296875
vt 0.064453125 0.79296875
f 212/629 216/630 213/631 209/632
vt 0.083984375 0.79296875
vt 0.064453125 0.79296875
vt 0.064453125 0.794921875
vt 0.083984375 0.794921875
f 210/633 209/634 213/635 214/636
vt 0.103515625 0.794921875
vt 0.083984375 0.794921875
vt 0.083984375 0.79296875
vt 0.103515625 0.79296875
f 215/637 216/638 212/639 211/640
vt 0.083984375 0.791015625
vt 0.064453125 0.791015625
vt 0.064453125 0.79296875
vt 0.083984375 0.79296875
f 211/641 212/642 209/643 210/644
vt 0.104492188 0.791015625
vt 0.0849609375 0.791015625
vt 0.0849609375 0.79296875
vt 0.104492188 0.79296875
f 216/645 215/646 214/647 213/648
o barrelModel2
v 25 27.3 -0.5
v 44 27.3 -0.5
v 44 27 -0.15
v 25 27 -0.15
v 25 27.3 0.5
v 44 27.3 0.5
v 44 27 0.15
v 25 27 0.15
vt 0.318359375 0.775390625
vt 0.317382812 0.775390625
vt 0.317382812 0.77734375
vt 0.318359375 0.77734375
f 223/649 219/650 218/651 222/652
vt 0.298828125 0.775390625
vt 0.297851562 0.775390625
vt 0.297851562 0.77734375
vt 0.298828125 0.77734375
f 220/653 224/654 221/655 217/656
vt 0.317382812 0.77734375
vt 0.298828125 0.77734375
vt 0.298828125 0.779296875
vt 0.317382812 0.779296875
f 218/657 217/658 221/659 222/660
vt 0.3359375 0.779296875
vt 0.317382812 0.779296875
vt 0.317382812 0.77734375
vt 0.3359375 0.77734375
f 223/661 224/662 220/663 219/664
vt 0.317382812 0.775390625
vt 0.298828125 0.775390625
vt 0.298828125 0.77734375
vt 0.317382812 0.77734375
f 219/665 220/666 217/667 218/668
vt 0.336914062 0.775390625
vt 0.318359375 0.775390625
vt 0.318359375 0.77734375
vt 0.336914062 0.77734375
f 224/669 223/670 222/671 221/672
o barrelModel3
v 36.5 28.1 -0.25
v 37.5 28.1 -0.25
v 37.5 27.7 -0.6
v 36.5 27.7 -0.6
v 36.5 28.1 0.25
v 37.5 28.1 0.25
v 37.5 27.7 0.6
v 36.5 27.7 0.6
vt 0.00390625 0.884765625
vt 0.0029296875 0.884765625
vt 0.0029296875 0.88671875
vt 0.00390625 0.88671875
f 231/673 227/674 226/675 230/676
vt 0.001953125 0.884765625
vt 0.0009765625 0.884765625
vt 0.0009765625 0.88671875
vt 0.001953125 0.88671875
f 228/677 232/678 229/679 225/680
vt 0.0029296875 0.88671875
vt 0.001953125 0.88671875
vt 0.001953125 0.888671875
vt 0.0029296875 0.888671875
f 226/681 225/682 229/683 230/684
vt 0.00390625 0.888671875
vt 0.0029296875 0.888671875
vt 0.0029296875 0.88671875
vt 0.00390625 0.88671875
f 231/685 232/686 228/687 227/688
vt 0.0029296875 0.884765625
vt 0.001953125 0.884765625
vt 0.001953125 0.88671875
vt 0.0029296875 0.88671875
f 227/689 228/690 225/691 226/692
vt 0.0048828125 0.884765625
vt 0.00390625 0.884765625
vt 0.00390625 0.88671875
vt 0.0048828125 0.88671875
f 232/693 231/694 230/695 229/696
o barrelModel4
v 36.5 27.7 -0.6
v 37.5 27.7 -0.6
v 37.5 27.3 -0.6
v 36.5 27.3 -0.6
v 36.5 27.7 0.6
v 37.5 27.7 0.6
v 37.5 27.3 0.6
v 36.5 27.3 0.6
vt 0.02734375 0.884765625
vt 0.0263671875 0.884765625
vt 0.0263671875 0.88671875
vt 0.02734375 0.88671875
f 239/697 235/698 234/699 238/700
vt 0.025390625 0.884765625
vt 0.0244140625 0.884765625
vt 0.0244140625 0.88671875
vt 0.025390625 0.88671875
f 236/701 240/702 237/703 233/704
vt 0.0263671875 0.88671875
vt 0.025390625 0.88671875
vt 0.025390625 0.888671875
vt 0.0263671875 0.888671875
f 234/705 233/706 237/707 238/708
vt 0.02734375 0.888671875
vt 0.0263671875 0.888671875
vt 0.0263671875 0.88671875
vt 0.02734375 0.88671875
f 239/709 240/710 236/711 235/712
vt 0.0263671875 0.884765625
vt 0.025390625 0.884765625
vt 0.025390625 0.88671875
vt 0.0263671875 0.88671875
f 235/713 236/714 233/715 234/716
vt 0.0283203125 0.884765625
vt 0.02734375 0.884765625
vt 0.02734375 0.88671875
vt 0.0283203125 0.88671875
f 240/717 239/718 238/719 237/720
o barrelModel5
v 36.5 27.3 -0.6
v 37.5 27.3 -0.6
v 37.5 26.9 -0.25
v 36.5 26.9 -0.25
v 36.5 27.3 0.6
v 37.5 27.3 0.6
v 37.5 26.9 0.25
v 36.5 26.9 0.25
vt 0.06640625 0.884765625
vt 0.0654296875 0.884765625
vt 0.0654296875 0.88671875
vt 0.06640625 0.88671875
f 247/721 243/722 242/723 246/724
vt 0.064453125 0.884765625
vt 0.0634765625 0.884765625
vt 0.0634765625 0.88671875
vt 0.064453125 0.88671875
f 244/725 248/726 245/727 241/728
vt 0.0654296875 0.88671875
vt 0.064453125 0.88671875
vt 0.064453125 0.888671875
vt 0.0654296875 0.888671875
f 242/729 241/730 245/731 246/732
vt 0.06640625 0.888671875
vt 0.0654296875 0.888671875
vt 0.0654296875 0.88671875
vt 0.06640625 0.88671875
f 247/733 248/734 244/735 243/736
vt 0.0654296875 0.884765625
vt 0.064453125 0.884765625
vt 0.064453125 0.88671875
vt 0.0654296875 0.88671875
f 243/737 244/738 241/739 242/740
vt 0.0673828125 0.884765625
vt 0.06640625 0.884765625
vt 0.06640625 0.88671875
vt 0.0673828125 0.88671875
f 248/741 247/742 246/743 245/744
o barrelModel6
v 39.5 27.7 -0.6
v 40.5 27.7 -0.6
v 40.5 27.3 -0.6
v 39.5 27.3 -0.6
v 39.5 27.7 0.6
v 40.5 27.7 0.6
v 40.5 27.3 0.6
v 39.5 27.3 0.6
vt 0.08984375 0.884765625
vt 0.0888671875 0.884765625
vt 0.0888671875 0.88671875
vt 0.08984375 0.88671875
f 255/745 251/746 250/747 254/748
vt 0.087890625 0.884765625
vt 0.0869140625 0.884765625
vt 0.0869140625 0.88671875
vt 0.087890625 0.88671875
f 252/749 256/750 253/751 249/752
vt 0.0888671875 0.88671875
vt 0.087890625 0.88671875
vt 0.087890625 0.888671875
vt 0.0888671875 0.888671875
f 250/753 249/754 253/755 254/756
vt 0.08984375 0.888671875
vt 0.0888671875 0.888671875
vt 0.0888671875 0.88671875
vt 0.08984375 0.88671875
f 255/757 256/758 252/759 251/760
vt 0.0888671875 0.884765625
vt 0.087890625 0.884765625
vt 0.087890625 0.88671875
vt 0.0888671875 0.88671875
f 251/761 252/762 249/763 250/764
vt 0.0908203125 0.884765625
vt 0.08984375 0.884765625
vt 0.08984375 0.88671875
vt 0.0908203125 0.88671875
f 256/765 255/766 254/767 253/768
o barrelModel7
v 39.5 27.3 -0.6
v 40.5 27.3 -0.6
v 40.5 26.9 -0.25
v 39.5 26.9 -0.25
v 39.5 27.3 0.6
v 40.5 27.3 0.6
v 40.5 26.9 0.25
v 39.5 26.9 0.25
vt 0.10546875 0.884765625
vt 0.104492188 0.884765625
vt 0.104492188 0.88671875
vt 0.10546875 0.88671875
f 263/769 259/770 258/771 262/772
vt 0.103515625 0.884765625
vt 0.102539062 0.884765625
vt 0.102539062 0.88671875
vt 0.103515625 0.88671875
f 260/773 264/774 261/775 257/776
vt 0.104492188 0.88671875
vt 0.103515625 0.88671875
vt 0.103515625 0.888671875
vt 0.104492188 0.888671875
f 258/777 257/778 261/779 262/780
vt 0.10546875 0.888671875
vt 0.104492188 0.888671875
vt 0.104492188 0.88671875
vt 0.10546875 0.88671875
f 263/781 264/782 260/783 259/784
vt 0.104492188 0.884765625
vt 0.103515625 0.884765625
vt 0.103515625 0.88671875
vt 0.104492188 0.88671875
f 259/785 260/786 257/787 258/788
vt 0.106445312 0.884765625
vt 0.10546875 0.884765625
vt 0.10546875 0.88671875
vt 0.106445312 0.88671875
f 264/789 263/790 262/791 261/792
o barrelModel8
v 39.5 28.1 -0.25
v 40.5 28.1 -0.25
v 40.5 27.7 -0.6
v 39.5 27.7 -0.6
v 39.5 28.1 0.25
v 40.5 28.1 0.25
v 40.5 27.7 0.6
v 39.5 27.7 0.6
vt 0.43359375 0.884765625
vt 0.432617188 0.884765625
vt 0.432617188 0.88671875
vt 0.43359375 0.88671875
f 271/793 267/794 266/795 270/796
vt 0.431640625 0.884765625
vt 0.430664062 0.884765625
vt 0.430664062 0.88671875
vt 0.431640625 0.88671875
f 268/797 272/798 269/799 265/800
vt 0.432617188 0.88671875
vt 0.431640625 0.88671875
vt 0.431640625 0.888671875
vt 0.432617188 0.888671875
f 266/801 265/802 269/803 270/804
vt 0.43359375 0.888671875
vt 0.432617188 0.888671875
vt 0.432617188 0.88671875
vt 0.43359375 0.88671875
f 271/805 272/806 268/807 267/808
vt 0.432617188 0.884765625
vt 0.431640625 0.884765625
vt 0.431640625 0.88671875
vt 0.432617188 0.88671875
f 267/809 268/810 265/811 266/812
vt 0.434570312 0.884765625
vt 0.43359375 0.884765625
vt 0.43359375 0.88671875
vt 0.434570312 0.88671875
f 272/813 271/814 270/815 269/816
o barrelModel9
v 42.75 27.7 -0.6
v 44.25 27.7 -0.6
v 44.25 27.3 -0.6
v 42.75 27.3 -0.6
v 42.75 27.7 0.6
v 44.25 27.7 0.6
v 44.25 27.3 0.6
v 42.75 27.3 0.6
vt 0.833007812 0.853515625
vt 0.83203125 0.853515625
vt 0.83203125 0.85546875
vt 0.833007812 0.85546875
f 279/817 275/818 274/819 278/820
vt 0.830078125 0.853515625
vt 0.829101562 0.853515625
vt 0.829101562 0.85546875
vt 0.830078125 0.85546875
f 276/821 280/822 277/823 273/824
vt 0.83203125 0.85546875
vt 0.830078125 0.85546875
vt 0.830078125 0.857421875
vt 0.83203125 0.857421875
f 274/825 273/826 277/827 278/828
vt 0.833984375 0.857421875
vt 0.83203125 0.857421875
vt 0.83203125 0.85546875
vt 0.833984375 0.85546875
f 279/829 280/830 276/831 275/832
vt 0.83203125 0.853515625
vt 0.830078125 0.853515625
vt 0.830078125 0.85546875
vt 0.83203125 0.85546875
f 275/833 276/834 273/835 274/836
vt 0.834960938 0.853515625
vt 0.833007812 0.853515625
vt 0.833007812 0.85546875
vt 0.834960938 0.85546875
f 280/837 279/838 278/839 277/840
o barrelModel10
v 42.75 27.3 -0.6
v 44.25 27.3 -0.6
v 44.25 26.9 -0.25
v 42.75 26.9 -0.25
v 42.75 27.3 0.6
v 44.25 27.3 0.6
v 44.25 26.9 0.25
v 42.75 26.9 0.25
vt 0.528320312 0.837890625
vt 0.52734375 0.837890625
vt 0.52734375 0.83984375
vt 0.528320312 0.83984375
f 287/841 283/842 282/843 286/844
vt 0.525390625 0.837890625
vt 0.524414062 0.837890625
vt 0.524414062 0.83984375
vt 0.525390625 0.83984375
f 284/845 288/846 285/847 281/848
vt 0.52734375 0.83984375
vt 0.525390625 0.83984375
vt 0.525390625 0.841796875
vt 0.52734375 0.841796875
f 282/849 281/850 285/851 286/852
vt 0.529296875 0.841796875
vt 0.52734375 0.841796875
vt 0.52734375 0.83984375
vt 0.529296875 0.83984375
f 287/853 288/854 284/855 283/856
vt 0.52734375 0.837890625
vt 0.525390625 0.837890625
vt 0.525390625 0.83984375
vt 0.52734375 0.83984375
f 283/857 284/858 281/859 282/860
vt 0.530273438 0.837890625
vt 0.528320312 0.837890625
vt 0.528320312 0.83984375
vt 0.530273438 0.83984375
f 288/861 287/862 286/863 285/864
o barrelModel11
v 42.75 28.1 -0.25
v 44.25 28.1 -0.25
v 44.25 27.7 -0.6
v 42.75 27.7 -0.6
v 42.75 28.1 0.25
v 44.25 28.1 0.25
v 44.25 27.7 0.6
v 42.75 27.7 0.6
vt 0.825195312 0.837890625
vt 0.82421875 0.837890625
vt 0.82421875 0.83984375
vt 0.825195312 0.83984375
f 295/865 291/866 290/867 294/868
vt 0.822265625 0.837890625
vt 0.821289062 0.837890625
vt 0.821289062 0.83984375
vt 0.822265625 0.83984375
f 292/869 296/870 293/871 289/872
vt 0.82421875 0.83984375
vt 0.822265625 0.83984375
vt 0.822265625 0.841796875
vt 0.82421875 0.841796875
f 290/873 289/874 293/875 294/876
vt 0.826171875 0.841796875
vt 0.82421875 0.841796875
vt 0.82421875 0.83984375
vt 0.826171875 0.83984375
f 295/877 296/878 292/879 291/880
vt 0.82421875 0.837890625
vt 0.822265625 0.837890625
vt 0.822265625 0.83984375
vt 0.82421875 0.83984375
f 291/881 292/882 289/883 290/884
vt 0.827148438 0.837890625
vt 0.825195312 0.837890625
vt 0.825195312 0.83984375
vt 0.827148438 0.83984375
f 296/885 295/886 294/887 293/888
o barrelModel12
v 23.5 27.5 -0.7
v 33.5 27.5 -0.7
v 33.5 27.3 -0.6
v 23.5 27 -0.6
v 23.5 27.5 0.7
v 33.5 27.5 0.7
v 33.5 27.3 0.6
v 23.5 27 0.6
vt 0.0126953125 0.791015625
vt 0.01171875 0.791015625
vt 0.01171875 0.79296875
vt 0.0126953125 0.79296875
f 303/889 299/890 298/891 302/892
vt 0.001953125 0.791015625
vt 0.0009765625 0.791015625
vt 0.0009765625 0.79296875
vt 0.001953125 0.79296875
f 300/893 304/894 301/895 297/896
vt 0.01171875 0.79296875
vt 0.001953125 0.79296875
vt 0.001953125 0.794921875
vt 0.01171875 0.794921875
f 298/897 297/898 301/899 302/900
vt 0.021484375 0.794921875
vt 0.01171875 0.794921875
vt 0.01171875 0.79296875
vt 0.021484375 0.79296875
f 303/901 304/902 300/903 299/904
vt 0.01171875 0.791015625
vt 0.001953125 0.791015625
vt 0.001953125 0.79296875
vt 0.01171875 0.79296875
f 299/905 300/906 297/907 298/908
vt 0.0224609375 0.791015625
vt 0.0126953125 0.791015625
vt 0.0126953125 0.79296875
vt 0.0224609375 0.79296875
f 304/909 303/910 302/911 301/912
o barrelModel13
v 23.5 27 -0.6
v 33.5 27.3 -0.6
v 33.5 26.9 -0.25
v 23.5 26.6 -0.25
v 23.5 27 0.6
v 33.5 27.3 0.6
v 33.5 26.9 0.25
v 23.5 26.6 0.25
vt 0.700195312 0.759765625
vt 0.69921875 0.759765625
vt 0.69921875 0.76171875
vt 0.700195312 0.76171875
f 311/913 307/914 306/915 310/916
vt 0.689453125 0.759765625
vt 0.688476562 0.759765625
vt 0.688476562 0.76171875
vt 0.689453125 0.76171875
f 308/917 312/918 309/919 305/920
vt 0.69921875 0.76171875
vt 0.689453125 0.76171875
vt 0.689453125 0.763671875
vt 0.69921875 0.763671875
f 306/921 305/922 309/923 310/924
vt 0.708984375 0.763671875
vt 0.69921875 0.763671875
vt 0.69921875 0.76171875
vt 0.708984375 0.76171875
f 311/925 312/926 308/927 307/928
vt 0.69921875 0.759765625
vt 0.689453125 0.759765625
vt 0.689453125 0.76171875
vt 0.69921875 0.76171875
f 307/929 308/930 305/931 306/932
vt 0.709960938 0.759765625
vt 0.700195312 0.759765625
vt 0.700195312 0.76171875
vt 0.709960938 0.76171875
f 312/933 311/934 310/935 309/936
o barrelModel14
v 32.8 27.7 -0.6
v 33.2 27.7 -0.6
v 33.2 27.4 -0.6
v 32.8 27.4 -0.6
v 32.8 27.7 0.6
v 33.2 27.7 0.6
v 33.2 27.4 0.6
v 32.8 27.4 0.6
vt 0.46484375 0.884765625
vt 0.463867188 0.884765625
vt 0.463867188 0.88671875
vt 0.46484375 0.88671875
f 319/937 315/938 314/939 318/940
vt 0.462890625 0.884765625
vt 0.461914062 0.884765625
vt 0.461914062 0.88671875
vt 0.462890625 0.88671875
f 316/941 320/942 317/943 313/944
vt 0.463867188 0.88671875
vt 0.462890625 0.88671875
vt 0.462890625 0.888671875
vt 0.463867188 0.888671875
f 314/945 313/946 317/947 318/948
vt 0.46484375 0.888671875
vt 0.463867188 0.888671875
vt 0.463867188 0.88671875
vt 0.46484375 0.88671875
f 319/949 320/950 316/951 315/952
vt 0.463867188 0.884765625
vt 0.462890625 0.884765625
vt 0.462890625 0.88671875
vt 0.463867188 0.88671875
f 315/953 316/954 313/955 314/956
vt 0.465820312 0.884765625
vt 0.46484375 0.884765625
vt 0.46484375 0.88671875
vt 0.465820312 0.88671875
f 320/957 319/958 318/959 317/960
o barrelModel15
v 32.8 28.1 -0.25
v 33.2 28.1 -0.25
v 33.2 27.7 -0.6
v 32.8 27.7 -0.6
v 32.8 28.1 0.25
v 33.2 28.1 0.25
v 33.2 27.7 0.6
v 32.8 27.7 0.6
vt 0.19140625 0.869140625
vt 0.190429688 0.869140625
vt 0.190429688 0.87109375
vt 0.19140625 0.87109375
f 327/961 323/962 322/963 326/964
vt 0.189453125 0.869140625
vt 0.188476562 0.869140625
vt 0.188476562 0.87109375
vt 0.189453125 0.87109375
f 324/965 328/966 325/967 321/968
vt 0.190429688 0.87109375
vt 0.189453125 0.87109375
vt 0.189453125 0.873046875
vt 0.190429688 0.873046875
f 322/969 321/970 325/971 326/972
vt 0.19140625 0.873046875
vt 0.190429688 0.873046875
vt 0.190429688 0.87109375
vt 0.19140625 0.87109375
f 327/973 328/974 324/975 323/976
vt 0.190429688 0.869140625
vt 0.189453125 0.869140625
vt 0.189453125 0.87109375
vt 0.190429688 0.87109375
f 323/977 324/978 321/979 322/980
vt 0.192382812 0.869140625
vt 0.19140625 0.869140625
vt 0.19140625 0.87109375
vt 0.192382812 0.87109375
f 328/981 327/982 326/983 325/984
o barrelModel16
v 44 27.8 -0.1
v 47 28 -0.15
v 47 27.7 -0.5
v 44 27.6 -0.35
v 44 27.8 0.1
v 47 28 0.15
v 47 27.7 0.5
v 44 27.6 0.35
vt 0.873046875 0.837890625
vt 0.872070312 0.837890625
vt 0.872070312 0.83984375
vt 0.873046875 0.83984375
f 335/985 331/986 330/987 334/988
vt 0.869140625 0.837890625
vt 0.868164062 0.837890625
vt 0.868164062 0.83984375
vt 0.869140625 0.83984375
f 332/989 336/990 333/991 329/992
vt 0.872070312 0.83984375
vt 0.869140625 0.83984375
vt 0.869140625 0.841796875
vt 0.872070312 0.841796875
f 330/993 329/994 333/995 334/996
vt 0.875 0.841796875
vt 0.872070312 0.841796875
vt 0.872070312 0.83984375
vt 0.875 0.83984375
f 335/997 336/998 332/999 331/1000
vt 0.872070312 0.837890625
vt 0.869140625 0.837890625
vt 0.869140625 0.83984375
vt 0.872070312 0.83984375
f 331/1001 332/1002 329/1003 330/1004
vt 0.875976562 0.837890625
vt 0.873046875 0.837890625
vt 0.873046875 0.83984375
vt 0.875976562 0.83984375
f 336/1005 335/1006 334/1007 333/1008
o barrelModel17
v 44 27.6 -0.35
v 47 27.7 -0.5
v 47 27.3 -0.5
v 44 27.4 -0.35
v 44 27.6 0.35
v 47 27.7 0.5
v 47 27.3 0.5
v 44 27.4 0.35
vt 0.044921875 0.822265625
vt 0.0439453125 0.822265625
vt 0.0439453125 0.82421875
vt 0.044921875 0.82421875
f 343/1009 339/1010 338/1011 342/1012
vt 0.041015625 0.822265625
vt 0.0400390625 0.822265625
vt 0.0400390625 0.82421875
vt 0.041015625 0.82421875
f 340/1013 344/1014 341/1015 337/1016
vt 0.0439453125 0.82421875
vt 0.041015625 0.82421875
vt 0.041015625 0.826171875
vt 0.0439453125 0.826171875
f 338/1017 337/1018 341/1019 342/1020
vt 0.046875 0.826171875
vt 0.0439453125 0.826171875
vt 0.0439453125 0.82421875
vt 0.046875 0.82421875
f 343/1021 344/1022 340/1023 339/1024
vt 0.0439453125 0.822265625
vt 0.041015625 0.822265625
vt 0.041015625 0.82421875
vt 0.0439453125 0.82421875
f 339/1025 340/1026 337/1027 338/1028
vt 0.0478515625 0.822265625
vt 0.044921875 0.822265625
vt 0.044921875 0.82421875
vt 0.0478515625 0.82421875
f 344/1029 343/1030 342/1031 341/1032
o barrelModel18
v 44 27.4 -0.35
v 47 27.3 -0.5
v 47 27 -0.15
v 44 27.2 -0.1
v 44 27.4 0.35
v 47 27.3 0.5
v 47 27 0.15
v 44 27.2 0.1
vt 0.091796875 0.822265625
vt 0.0908203125 0.822265625
vt 0.0908203125 0.82421875
vt 0.091796875 0.82421875
f 351/1033 347/1034 346/1035 350/1036
vt 0.087890625 0.822265625
vt 0.0869140625 0.822265625
vt 0.0869140625 0.82421875
vt 0.087890625 0.82421875
f 348/1037 352/1038 349/1039 345/1040
vt 0.0908203125 0.82421875
vt 0.087890625 0.82421875
vt 0.087890625 0.826171875
vt 0.0908203125 0.826171875
f 346/1041 345/1042 349/1043 350/1044
vt 0.09375 0.826171875
vt 0.0908203125 0.826171875
vt 0.0908203125 0.82421875
vt 0.09375 0.82421875
f 351/1045 352/1046 348/1047 347/1048
vt 0.0908203125 0.822265625
vt 0.087890625 0.822265625
vt 0.087890625 0.82421875
vt 0.0908203125 0.82421875
f 347/1049 348/1050 345/1051 346/1052
vt 0.0947265625 0.822265625
vt 0.091796875 0.822265625
vt 0.091796875 0.82421875
vt 0.0947265625 0.82421875
f 352/1053 351/1054 350/1055 349/1056
o barrelModel19
v 23 27.7 -2.7
v 32 27.7 -2.7
v 32 27.3 -2.7
v 23 27.3 -2.7
v 23 27.7 -2.3
v 32 27.7 -2.3
v 32 27.3 -2.3
v 23 27.3 -2.3
vt 0.81640625 0.759765625
vt 0.815429688 0.759765625
vt 0.815429688 0.76171875
vt 0.81640625 0.76171875
f 359/1057 355/1058 354/1059 358/1060
vt 0.806640625 0.759765625
vt 0.805664062 0.759765625
vt 0.805664062 0.76171875
vt 0.806640625 0.76171875
f 356/1061 360/1062 357/1063 353/1064
vt 0.815429688 0.76171875
vt 0.806640625 0.76171875
vt 0.806640625 0.763671875
vt 0.815429688 0.763671875
f 354/1065 353/1066 357/1067 358/1068
vt 0.82421875 0.763671875
vt 0.815429688 0.763671875
vt 0.815429688 0.76171875
vt 0.82421875 0.76171875
f 359/1069 360/1070 356/1071 355/1072
vt 0.815429688 0.759765625
vt 0.806640625 0.759765625
vt 0.806640625 0.76171875
vt 0.815429688 0.76171875
f 355/1073 356/1074 353/1075 354/1076
vt 0.825195312 0.759765625
vt 0.81640625 0.759765625
vt 0.81640625 0.76171875
vt 0.825195312 0.76171875
f 360/1077 359/1078 358/1079 357/1080
