# Converted from Decimation Beardie model: mortargun.bmodel
# Coordinates retain the original Beardie model units.
mtllib mortargun.mtl
usemtl mortargun_material
o baseModel0
v -8 1.5 -1
v 2 1.5 -1
v 2 -0 -1
v -8 -0 -1
v -8 1.5 1
v 2 1.5 1
v 2 -0 1
v -8 -0 1
vt 0.029296875 0.875
vt 0.025390625 0.875
vt 0.025390625 0.90625
vt 0.029296875 0.90625
f 7/1 3/2 2/3 6/4
vt 0.005859375 0.875
vt 0.001953125 0.875
vt 0.001953125 0.90625
vt 0.005859375 0.90625
f 4/5 8/6 5/7 1/8
vt 0.025390625 0.90625
vt 0.005859375 0.90625
vt 0.005859375 0.96875
vt 0.025390625 0.96875
f 2/9 1/10 5/11 6/12
vt 0.044921875 0.96875
vt 0.025390625 0.96875
vt 0.025390625 0.90625
vt 0.044921875 0.90625
f 7/13 8/14 4/15 3/16
vt 0.025390625 0.875
vt 0.005859375 0.875
vt 0.005859375 0.90625
vt 0.025390625 0.90625
f 3/17 4/18 1/19 2/20
vt 0.048828125 0.875
vt 0.029296875 0.875
vt 0.029296875 0.90625
vt 0.048828125 0.90625
f 8/21 7/22 6/23 5/24
o baseModel1
v 0 1.5 1
v 2 1.5 0
v 2 -0 0
v 0 -0 1
v 5.5 1.5 7
v 7 1.5 5.5
v 7 -0 5.5
v 5.5 -0 7
vt 0.08203125 0.71875
vt 0.068359375 0.71875
vt 0.068359375 0.75
vt 0.08203125 0.75
f 15/25 11/26 10/27 14/28
vt 0.0625 0.71875
vt 0.048828125 0.71875
vt 0.048828125 0.75
vt 0.0625 0.75
f 12/29 16/30 13/31 9/32
vt 0.068359375 0.75
vt 0.0625 0.75
vt 0.0625 0.96875
vt 0.068359375 0.96875
f 10/33 9/34 13/35 14/36
vt 0.07421875 0.96875
vt 0.068359375 0.96875
vt 0.068359375 0.75
vt 0.07421875 0.75
f 15/37 16/38 12/39 11/40
vt 0.068359375 0.71875
vt 0.0625 0.71875
vt 0.0625 0.75
vt 0.068359375 0.75
f 11/41 12/42 9/43 10/44
vt 0.087890625 0.71875
vt 0.08203125 0.71875
vt 0.08203125 0.75
vt 0.087890625 0.75
f 16/45 15/46 14/47 13/48
o baseModel2
v 5.5 1.5 -7
v 7 1.5 -5.5
v 7 -0 -5.5
v 5.5 -0 -7
v 0 1.5 -1
v 2 1.5 0
v 2 -0 0
v 0 -0 -1
vt 0.12890625 0.71875
vt 0.115234375 0.71875
vt 0.115234375 0.75
vt 0.12890625 0.75
f 23/49 19/50 18/51 22/52
vt 0.109375 0.71875
vt 0.095703125 0.71875
vt 0.095703125 0.75
vt 0.109375 0.75
f 20/53 24/54 21/55 17/56
vt 0.115234375 0.75
vt 0.109375 0.75
vt 0.109375 0.96875
vt 0.115234375 0.96875
f 18/57 17/58 21/59 22/60
vt 0.12109375 0.96875
vt 0.115234375 0.96875
vt 0.115234375 0.75
vt 0.12109375 0.75
f 23/61 24/62 20/63 19/64
vt 0.115234375 0.71875
vt 0.109375 0.71875
vt 0.109375 0.75
vt 0.115234375 0.75
f 19/65 20/66 17/67 18/68
vt 0.134765625 0.71875
vt 0.12890625 0.71875
vt 0.12890625 0.75
vt 0.134765625 0.75
f 24/69 23/70 22/71 21/72
o baseModel3
v -8.5 4 -1
v 0 2.5 -1
v 0 1.5 -1
v -8 1.5 -1
v -8.5 4 1
v 0 2.5 1
v 0 1.5 1
v -8 1.5 1
vt 0.150390625 0.875
vt 0.146484375 0.875
vt 0.146484375 0.90625
vt 0.150390625 0.90625
f 31/73 27/74 26/75 30/76
vt 0.130859375 0.875
vt 0.126953125 0.875
vt 0.126953125 0.90625
vt 0.130859375 0.90625
f 28/77 32/78 29/79 25/80
vt 0.146484375 0.90625
vt 0.130859375 0.90625
vt 0.130859375 0.96875
vt 0.146484375 0.96875
f 26/81 25/82 29/83 30/84
vt 0.162109375 0.96875
vt 0.146484375 0.96875
vt 0.146484375 0.90625
vt 0.162109375 0.90625
f 31/85 32/86 28/87 27/88
vt 0.146484375 0.875
vt 0.130859375 0.875
vt 0.130859375 0.90625
vt 0.146484375 0.90625
f 27/89 28/90 25/91 26/92
vt 0.166015625 0.875
vt 0.150390625 0.875
vt 0.150390625 0.90625
vt 0.166015625 0.90625
f 32/93 31/94 30/95 29/96
o baseModel4
v 0 2.5 1
v 2 2.5 0
v 2 1.5 0
v 0 1.5 1
v 6 4 7.5
v 7.5 4 6
v 7 1.5 5.5
v 5.5 1.5 7
vt 0.19140625 0.71875
vt 0.177734375 0.71875
vt 0.177734375 0.75
vt 0.19140625 0.75
f 39/97 35/98 34/99 38/100
vt 0.171875 0.71875
vt 0.158203125 0.71875
vt 0.158203125 0.75
vt 0.171875 0.75
f 36/101 40/102 37/103 33/104
vt 0.177734375 0.75
vt 0.171875 0.75
vt 0.171875 0.96875
vt 0.177734375 0.96875
f 34/105 33/106 37/107 38/108
vt 0.18359375 0.96875
vt 0.177734375 0.96875
vt 0.177734375 0.75
vt 0.18359375 0.75
f 39/109 40/110 36/111 35/112
vt 0.177734375 0.71875
vt 0.171875 0.71875
vt 0.171875 0.75
vt 0.177734375 0.75
f 35/113 36/114 33/115 34/116
vt 0.197265625 0.71875
vt 0.19140625 0.71875
vt 0.19140625 0.75
vt 0.197265625 0.75
f 40/117 39/118 38/119 37/120
o baseModel5
v 6 4 -7.5
v 7.5 4 -6
v 7 1.5 -5.5
v 5.5 1.5 -7
v 0 2.5 -1
v 2 2.5 0
v 2 1.5 0
v 0 1.5 -1
vt 0.23828125 0.71875
vt 0.224609375 0.71875
vt 0.224609375 0.75
vt 0.23828125 0.75
f 47/121 43/122 42/123 46/124
vt 0.21875 0.71875
vt 0.205078125 0.71875
vt 0.205078125 0.75
vt 0.21875 0.75
f 44/125 48/126 45/127 41/128
vt 0.224609375 0.75
vt 0.21875 0.75
vt 0.21875 0.96875
vt 0.224609375 0.96875
f 42/129 41/130 45/131 46/132
vt 0.23046875 0.96875
vt 0.224609375 0.96875
vt 0.224609375 0.75
vt 0.23046875 0.75
f 47/133 48/134 44/135 43/136
vt 0.224609375 0.71875
vt 0.21875 0.71875
vt 0.21875 0.75
vt 0.224609375 0.75
f 43/137 44/138 41/139 42/140
vt 0.244140625 0.71875
vt 0.23828125 0.71875
vt 0.23828125 0.75
vt 0.244140625 0.75
f 48/141 47/142 46/143 45/144
o baseModel6
v 2.5 5 -9
v 5 5 -9
v 5 4 -9
v 2.5 4 -9
v 9 5 -2.5
v 9 5 -5
v 9 4 -5
v 9 4 -2.5
vt 0.287109375 0.75
vt 0.275390625 0.75
vt 0.275390625 0.78125
vt 0.287109375 0.78125
f 55/145 51/146 50/147 54/148
vt 0.263671875 0.75
vt 0.251953125 0.75
vt 0.251953125 0.78125
vt 0.263671875 0.78125
f 52/149 56/150 53/151 49/152
vt 0.275390625 0.78125
vt 0.263671875 0.78125
vt 0.263671875 0.96875
vt 0.275390625 0.96875
f 50/153 49/154 53/155 54/156
vt 0.287109375 0.96875
vt 0.275390625 0.96875
vt 0.275390625 0.78125
vt 0.287109375 0.78125
f 55/157 56/158 52/159 51/160
vt 0.275390625 0.75
vt 0.263671875 0.75
vt 0.263671875 0.78125
vt 0.275390625 0.78125
f 51/161 52/162 49/163 50/164
vt 0.298828125 0.75
vt 0.287109375 0.75
vt 0.287109375 0.78125
vt 0.298828125 0.78125
f 56/165 55/166 54/167 53/168
o baseModel7
v -2.5 5 -9
v 2.5 5 -9
v 2.5 4 -9
v -2.5 4 -9
v -4.5 5 -7
v 4.5 5 -7
v 4.5 4 -7
v -4.5 4 -7
vt 0.318359375 0.875
vt 0.314453125 0.875
vt 0.314453125 0.90625
vt 0.318359375 0.90625
f 63/169 59/170 58/171 62/172
vt 0.302734375 0.875
vt 0.298828125 0.875
vt 0.298828125 0.90625
vt 0.302734375 0.90625
f 60/173 64/174 61/175 57/176
vt 0.314453125 0.90625
vt 0.302734375 0.90625
vt 0.302734375 0.96875
vt 0.314453125 0.96875
f 58/177 57/178 61/179 62/180
vt 0.326171875 0.96875
vt 0.314453125 0.96875
vt 0.314453125 0.90625
vt 0.326171875 0.90625
f 63/181 64/182 60/183 59/184
vt 0.314453125 0.875
vt 0.302734375 0.875
vt 0.302734375 0.90625
vt 0.314453125 0.90625
f 59/185 60/186 57/187 58/188
vt 0.330078125 0.875
vt 0.318359375 0.875
vt 0.318359375 0.90625
vt 0.330078125 0.90625
f 64/189 63/190 62/191 61/192
o baseModel8
v -5 5 -9
v -2.5 5 -9
v -2.5 4 -9
v -5 4 -9
v -9 5 -5
v -9 5 -2.5
v -9 4 -2.5
v -9 4 -5
vt 0.365234375 0.75
vt 0.353515625 0.75
vt 0.353515625 0.78125
vt 0.365234375 0.78125
f 71/193 67/194 66/195 70/196
vt 0.341796875 0.75
vt 0.330078125 0.75
vt 0.330078125 0.78125
vt 0.341796875 0.78125
f 68/197 72/198 69/199 65/200
vt 0.353515625 0.78125
vt 0.341796875 0.78125
vt 0.341796875 0.96875
vt 0.353515625 0.96875
f 66/201 65/202 69/203 70/204
vt 0.365234375 0.96875
vt 0.353515625 0.96875
vt 0.353515625 0.78125
vt 0.365234375 0.78125
f 71/205 72/206 68/207 67/208
vt 0.353515625 0.75
vt 0.341796875 0.75
vt 0.341796875 0.78125
vt 0.353515625 0.78125
f 67/209 68/210 65/211 66/212
vt 0.376953125 0.75
vt 0.365234375 0.75
vt 0.365234375 0.78125
vt 0.376953125 0.78125
f 72/213 71/214 70/215 69/216
o baseModel9
v -9 5 5
v -9 5 2.5
v -9 4 2.5
v -9 4 5
v -5 5 9
v -2.5 5 9
v -2.5 4 9
v -5 4 9
vt 0.427734375 0.75
vt 0.416015625 0.75
vt 0.416015625 0.78125
vt 0.427734375 0.78125
f 79/217 75/218 74/219 78/220
vt 0.404296875 0.75
vt 0.392578125 0.75
vt 0.392578125 0.78125
vt 0.404296875 0.78125
f 76/221 80/222 77/223 73/224
vt 0.416015625 0.78125
vt 0.404296875 0.78125
vt 0.404296875 0.96875
vt 0.416015625 0.96875
f 74/225 73/226 77/227 78/228
vt 0.427734375 0.96875
vt 0.416015625 0.96875
vt 0.416015625 0.78125
vt 0.427734375 0.78125
f 79/229 80/230 76/231 75/232
vt 0.416015625 0.75
vt 0.404296875 0.75
vt 0.404296875 0.78125
vt 0.416015625 0.78125
f 75/233 76/234 73/235 74/236
vt 0.439453125 0.75
vt 0.427734375 0.75
vt 0.427734375 0.78125
vt 0.439453125 0.78125
f 80/237 79/238 78/239 77/240
o baseModel10
v 9 5 2.5
v 9 5 5
v 9 4 5
v 9 4 2.5
v 2.5 5 9
v 5 5 9
v 5 4 9
v 2.5 4 9
vt 0.490234375 0.75
vt 0.478515625 0.75
vt 0.478515625 0.78125
vt 0.490234375 0.78125
f 87/241 83/242 82/243 86/244
vt 0.466796875 0.75
vt 0.455078125 0.75
vt 0.455078125 0.78125
vt 0.466796875 0.78125
f 84/245 88/246 85/247 81/248
vt 0.478515625 0.78125
vt 0.466796875 0.78125
vt 0.466796875 0.96875
vt 0.478515625 0.96875
f 82/249 81/250 85/251 86/252
vt 0.490234375 0.96875
vt 0.478515625 0.96875
vt 0.478515625 0.78125
vt 0.490234375 0.78125
f 87/253 88/254 84/255 83/256
vt 0.478515625 0.75
vt 0.466796875 0.75
vt 0.466796875 0.78125
vt 0.478515625 0.78125
f 83/257 84/258 81/259 82/260
vt 0.501953125 0.75
vt 0.490234375 0.75
vt 0.490234375 0.78125
vt 0.501953125 0.78125
f 88/261 87/262 86/263 85/264
o baseModel11
v -4.5 5 7
v 4.5 5 7
v 4.5 4 7
v -4.5 4 7
v -2.5 5 9
v 2.5 5 9
v 2.5 4 9
v -2.5 4 9
vt 0.521484375 0.875
vt 0.517578125 0.875
vt 0.517578125 0.90625
vt 0.521484375 0.90625
f 95/265 91/266 90/267 94/268
vt 0.505859375 0.875
vt 0.501953125 0.875
vt 0.501953125 0.90625
vt 0.505859375 0.90625
f 92/269 96/270 93/271 89/272
vt 0.517578125 0.90625
vt 0.505859375 0.90625
vt 0.505859375 0.96875
vt 0.517578125 0.96875
f 90/273 89/274 93/275 94/276
vt 0.529296875 0.96875
vt 0.517578125 0.96875
vt 0.517578125 0.90625
vt 0.529296875 0.90625
f 95/277 96/278 92/279 91/280
vt 0.517578125 0.875
vt 0.505859375 0.875
vt 0.505859375 0.90625
vt 0.517578125 0.90625
f 91/281 92/282 89/283 90/284
vt 0.533203125 0.875
vt 0.521484375 0.875
vt 0.521484375 0.90625
vt 0.533203125 0.90625
f 96/285 95/286 94/287 93/288
o baseModel12
v 7 5 -4.5
v 9 5 -2.5
v 9 4 -2.5
v 7 4 -4.5
v 7 5 4.5
v 9 5 2.5
v 9 4 2.5
v 7 4 4.5
vt 0.560546875 0.75
vt 0.548828125 0.75
vt 0.548828125 0.78125
vt 0.560546875 0.78125
f 103/289 99/290 98/291 102/292
vt 0.544921875 0.75
vt 0.533203125 0.75
vt 0.533203125 0.78125
vt 0.544921875 0.78125
f 100/293 104/294 101/295 97/296
vt 0.548828125 0.78125
vt 0.544921875 0.78125
vt 0.544921875 0.96875
vt 0.548828125 0.96875
f 98/297 97/298 101/299 102/300
vt 0.552734375 0.96875
vt 0.548828125 0.96875
vt 0.548828125 0.78125
vt 0.552734375 0.78125
f 103/301 104/302 100/303 99/304
vt 0.548828125 0.75
vt 0.544921875 0.75
vt 0.544921875 0.78125
vt 0.548828125 0.78125
f 99/305 100/306 97/307 98/308
vt 0.564453125 0.75
vt 0.560546875 0.75
vt 0.560546875 0.78125
vt 0.564453125 0.78125
f 104/309 103/310 102/311 101/312
o baseModel13
v -9 5 -2.5
v -7 5 -4.5
v -7 4 -4.5
v -9 4 -2.5
v -9 5 2.5
v -7 5 4.5
v -7 4 4.5
v -9 4 2.5
vt 0.607421875 0.75
vt 0.595703125 0.75
vt 0.595703125 0.78125
vt 0.607421875 0.78125
f 111/313 107/314 106/315 110/316
vt 0.591796875 0.75
vt 0.580078125 0.75
vt 0.580078125 0.78125
vt 0.591796875 0.78125
f 108/317 112/318 109/319 105/320
vt 0.595703125 0.78125
vt 0.591796875 0.78125
vt 0.591796875 0.96875
vt 0.595703125 0.96875
f 106/321 105/322 109/323 110/324
vt 0.599609375 0.96875
vt 0.595703125 0.96875
vt 0.595703125 0.78125
vt 0.599609375 0.78125
f 111/325 112/326 108/327 107/328
vt 0.595703125 0.75
vt 0.591796875 0.75
vt 0.591796875 0.78125
vt 0.595703125 0.78125
f 107/329 108/330 105/331 106/332
vt 0.611328125 0.75
vt 0.607421875 0.75
vt 0.607421875 0.78125
vt 0.611328125 0.78125
f 112/333 111/334 110/335 109/336
o baseModel14
v -7 5 -4.5
v -2 3 -2
v -2 2 -2
v -7 4 -4.5
v -7 5 4.5
v -2 3 2
v -2 2 2
v -7 4 4.5
vt 0.640625 0.65625
vt 0.623046875 0.65625
vt 0.623046875 0.6875
vt 0.640625 0.6875
f 119/337 115/338 114/339 118/340
vt 0.61328125 0.65625
vt 0.595703125 0.65625
vt 0.595703125 0.6875
vt 0.61328125 0.6875
f 116/341 120/342 117/343 113/344
vt 0.623046875 0.6875
vt 0.61328125 0.6875
vt 0.61328125 0.96875
vt 0.623046875 0.96875
f 114/345 113/346 117/347 118/348
vt 0.6328125 0.96875
vt 0.623046875 0.96875
vt 0.623046875 0.6875
vt 0.6328125 0.6875
f 119/349 120/350 116/351 115/352
vt 0.623046875 0.65625
vt 0.61328125 0.65625
vt 0.61328125 0.6875
vt 0.623046875 0.6875
f 115/353 116/354 113/355 114/356
vt 0.650390625 0.65625
vt 0.640625 0.65625
vt 0.640625 0.6875
vt 0.650390625 0.6875
f 120/357 119/358 118/359 117/360
o baseModel15
v -2 3 -2
v 2 3 -2
v 2 1 -2
v -2 1 -2
v -2 3 2
v 2 3 2
v 2 1 2
v -2 1 2
vt 0.666015625 0.78125
vt 0.658203125 0.78125
vt 0.658203125 0.84375
vt 0.666015625 0.84375
f 127/361 123/362 122/363 126/364
vt 0.650390625 0.78125
vt 0.642578125 0.78125
vt 0.642578125 0.84375
vt 0.650390625 0.84375
f 124/365 128/366 125/367 121/368
vt 0.658203125 0.84375
vt 0.650390625 0.84375
vt 0.650390625 0.96875
vt 0.658203125 0.96875
f 122/369 121/370 125/371 126/372
vt 0.666015625 0.96875
vt 0.658203125 0.96875
vt 0.658203125 0.84375
vt 0.666015625 0.84375
f 127/373 128/374 124/375 123/376
vt 0.658203125 0.78125
vt 0.650390625 0.78125
vt 0.650390625 0.84375
vt 0.658203125 0.84375
f 123/377 124/378 121/379 122/380
vt 0.673828125 0.78125
vt 0.666015625 0.78125
vt 0.666015625 0.84375
vt 0.673828125 0.84375
f 128/381 127/382 126/383 125/384
o baseModel16
v 2 3 -2
v 7 5 -4.5
v 7 4 -4.5
v 2 2 -2
v 2 3 2
v 7 5 4.5
v 7 4 4.5
v 2 2 2
vt 0.703125 0.65625
vt 0.685546875 0.65625
vt 0.685546875 0.6875
vt 0.703125 0.6875
f 135/385 131/386 130/387 134/388
vt 0.67578125 0.65625
vt 0.658203125 0.65625
vt 0.658203125 0.6875
vt 0.67578125 0.6875
f 132/389 136/390 133/391 129/392
vt 0.685546875 0.6875
vt 0.67578125 0.6875
vt 0.67578125 0.96875
vt 0.685546875 0.96875
f 130/393 129/394 133/395 134/396
vt 0.6953125 0.96875
vt 0.685546875 0.96875
vt 0.685546875 0.6875
vt 0.6953125 0.6875
f 135/397 136/398 132/399 131/400
vt 0.685546875 0.65625
vt 0.67578125 0.65625
vt 0.67578125 0.6875
vt 0.685546875 0.6875
f 131/401 132/402 129/403 130/404
vt 0.712890625 0.65625
vt 0.703125 0.65625
vt 0.703125 0.6875
vt 0.712890625 0.6875
f 136/405 135/406 134/407 133/408
o baseModel17
v -2 3 2
v 2 3 2
v 2 2 2
v -2 2 2
v -4.5 5 7
v 4.5 5 7
v 4.5 4 7
v -4.5 4 7
vt 0.7421875 0.78125
vt 0.732421875 0.78125
vt 0.732421875 0.8125
vt 0.7421875 0.8125
f 143/409 139/410 138/411 142/412
vt 0.71484375 0.78125
vt 0.705078125 0.78125
vt 0.705078125 0.8125
vt 0.71484375 0.8125
f 140/413 144/414 141/415 137/416
vt 0.732421875 0.8125
vt 0.71484375 0.8125
vt 0.71484375 0.96875
vt 0.732421875 0.96875
f 138/417 137/418 141/419 142/420
vt 0.75 0.96875
vt 0.732421875 0.96875
vt 0.732421875 0.8125
vt 0.75 0.8125
f 143/421 144/422 140/423 139/424
vt 0.732421875 0.78125
vt 0.71484375 0.78125
vt 0.71484375 0.8125
vt 0.732421875 0.8125
f 139/425 140/426 137/427 138/428
vt 0.759765625 0.78125
vt 0.7421875 0.78125
vt 0.7421875 0.8125
vt 0.759765625 0.8125
f 144/429 143/430 142/431 141/432
o baseModel18
v -4.5 5 -7
v 4.5 5 -7
v 4.5 4 -7
v -4.5 4 -7
v -2 3 -2
v 2 3 -2
v 2 2 -2
v -2 2 -2
vt 0.8046875 0.78125
vt 0.794921875 0.78125
vt 0.794921875 0.8125
vt 0.8046875 0.8125
f 151/433 147/434 146/435 150/436
vt 0.77734375 0.78125
vt 0.767578125 0.78125
vt 0.767578125 0.8125
vt 0.77734375 0.8125
f 148/437 152/438 149/439 145/440
vt 0.794921875 0.8125
vt 0.77734375 0.8125
vt 0.77734375 0.96875
vt 0.794921875 0.96875
f 146/441 145/442 149/443 150/444
vt 0.8125 0.96875
vt 0.794921875 0.96875
vt 0.794921875 0.8125
vt 0.8125 0.8125
f 151/445 152/446 148/447 147/448
vt 0.794921875 0.78125
vt 0.77734375 0.78125
vt 0.77734375 0.8125
vt 0.794921875 0.8125
f 147/449 148/450 145/451 146/452
vt 0.822265625 0.78125
vt 0.8046875 0.78125
vt 0.8046875 0.8125
vt 0.822265625 0.8125
f 152/453 151/454 150/455 149/456
o baseModel19
v -4.5 5 -7
v -2 3 -2
v -4.5 4 -7
v -4.5 4 -7
v -7 5 -4.5
v -2 3 -2
v -2 2 -2
v -7 4 -4.5
vt 0.0859375 0.90625
vt 0.083984375 0.90625
vt 0.083984375 0.9375
vt 0.0859375 0.9375
f 159/457 155/458 154/459 158/460
vt 0.08203125 0.90625
vt 0.080078125 0.90625
vt 0.080078125 0.9375
vt 0.08203125 0.9375
f 156/461 160/462 157/463 153/464
vt 0.083984375 0.9375
vt 0.08203125 0.9375
vt 0.08203125 0.96875
vt 0.083984375 0.96875
f 154/465 153/466 157/467 158/468
vt 0.0859375 0.96875
vt 0.083984375 0.96875
vt 0.083984375 0.9375
vt 0.0859375 0.9375
f 159/469 160/470 156/471 155/472
vt 0.083984375 0.90625
vt 0.08203125 0.90625
vt 0.08203125 0.9375
vt 0.083984375 0.9375
f 155/473 156/474 153/475 154/476
vt 0.087890625 0.90625
vt 0.0859375 0.90625
vt 0.0859375 0.9375
vt 0.087890625 0.9375
f 160/477 159/478 158/479 157/480
o baseModel20
v 2 3 -2
v 4.5 5 -7
v 4.5 4 -7
v 4.5 4 -7
v 2 3 -2
v 7 5 -4.5
v 7 4 -4.5
v 2 2 -2
vt 0.1015625 0.90625
vt 0.099609375 0.90625
vt 0.099609375 0.9375
vt 0.1015625 0.9375
f 167/481 163/482 162/483 166/484
vt 0.09765625 0.90625
vt 0.095703125 0.90625
vt 0.095703125 0.9375
vt 0.09765625 0.9375
f 164/485 168/486 165/487 161/488
vt 0.099609375 0.9375
vt 0.09765625 0.9375
vt 0.09765625 0.96875
vt 0.099609375 0.96875
f 162/489 161/490 165/491 166/492
vt 0.1015625 0.96875
vt 0.099609375 0.96875
vt 0.099609375 0.9375
vt 0.1015625 0.9375
f 167/493 168/494 164/495 163/496
vt 0.099609375 0.90625
vt 0.09765625 0.90625
vt 0.09765625 0.9375
vt 0.099609375 0.9375
f 163/497 164/498 161/499 162/500
vt 0.103515625 0.90625
vt 0.1015625 0.90625
vt 0.1015625 0.9375
vt 0.103515625 0.9375
f 168/501 167/502 166/503 165/504
o baseModel21
v 2 3 2
v 7 5 4.5
v 7 4 4.5
v 2 2 2
v 2 3 2
v 4.5 5 7
v 4.5 4 7
v 4.5 4 7
vt 0.1953125 0.90625
vt 0.193359375 0.90625
vt 0.193359375 0.9375
vt 0.1953125 0.9375
f 175/505 171/506 170/507 174/508
vt 0.19140625 0.90625
vt 0.189453125 0.90625
vt 0.189453125 0.9375
vt 0.19140625 0.9375
f 172/509 176/510 173/511 169/512
vt 0.193359375 0.9375
vt 0.19140625 0.9375
vt 0.19140625 0.96875
vt 0.193359375 0.96875
f 170/513 169/514 173/515 174/516
vt 0.1953125 0.96875
vt 0.193359375 0.96875
vt 0.193359375 0.9375
vt 0.1953125 0.9375
f 175/517 176/518 172/519 171/520
vt 0.193359375 0.90625
vt 0.19140625 0.90625
vt 0.19140625 0.9375
vt 0.193359375 0.9375
f 171/521 172/522 169/523 170/524
vt 0.197265625 0.90625
vt 0.1953125 0.90625
vt 0.1953125 0.9375
vt 0.197265625 0.9375
f 176/525 175/526 174/527 173/528
o baseModel22
v -7 5 4.5
v -2 3 2
v -2 2 2
v -7 4 4.5
v -4.5 5 7
v -2 3 2
v -4.5 4 7
v -4.5 4 7
vt 0.2109375 0.90625
vt 0.208984375 0.90625
vt 0.208984375 0.9375
vt 0.2109375 0.9375
f 183/529 179/530 178/531 182/532
vt 0.20703125 0.90625
vt 0.205078125 0.90625
vt 0.205078125 0.9375
vt 0.20703125 0.9375
f 180/533 184/534 181/535 177/536
vt 0.208984375 0.9375
vt 0.20703125 0.9375
vt 0.20703125 0.96875
vt 0.208984375 0.96875
f 178/537 177/538 181/539 182/540
vt 0.2109375 0.96875
vt 0.208984375 0.96875
vt 0.208984375 0.9375
vt 0.2109375 0.9375
f 183/541 184/542 180/543 179/544
vt 0.208984375 0.90625
vt 0.20703125 0.90625
vt 0.20703125 0.9375
vt 0.208984375 0.9375
f 179/545 180/546 177/547 178/548
vt 0.212890625 0.90625
vt 0.2109375 0.90625
vt 0.2109375 0.9375
vt 0.212890625 0.9375
f 184/549 183/550 182/551 181/552
o baseModel23
v -8.5 5 -3
v -7.5 5 -3
v -7.5 5 -3
v -8.5 5 -3
v -8.5 6 -2
v -7.5 6 -2
v -7.5 5 -2
v -8.5 5 -2
vt 0.2421875 0.90625
vt 0.240234375 0.90625
vt 0.240234375 0.9375
vt 0.2421875 0.9375
f 191/553 187/554 186/555 190/556
vt 0.23828125 0.90625
vt 0.236328125 0.90625
vt 0.236328125 0.9375
vt 0.23828125 0.9375
f 188/557 192/558 189/559 185/560
vt 0.240234375 0.9375
vt 0.23828125 0.9375
vt 0.23828125 0.96875
vt 0.240234375 0.96875
f 186/561 185/562 189/563 190/564
vt 0.2421875 0.96875
vt 0.240234375 0.96875
vt 0.240234375 0.9375
vt 0.2421875 0.9375
f 191/565 192/566 188/567 187/568
vt 0.240234375 0.90625
vt 0.23828125 0.90625
vt 0.23828125 0.9375
vt 0.240234375 0.9375
f 187/569 188/570 185/571 186/572
vt 0.244140625 0.90625
vt 0.2421875 0.90625
vt 0.2421875 0.9375
vt 0.244140625 0.9375
f 192/573 191/574 190/575 189/576
o baseModel24
v -8.5 6 2
v -7.5 6 2
v -7.5 5 2
v -8.5 5 2
v -8.5 5 3
v -7.5 5 3
v -7.5 5 3
v -8.5 5 3
vt 0.2578125 0.90625
vt 0.255859375 0.90625
vt 0.255859375 0.9375
vt 0.2578125 0.9375
f 199/577 195/578 194/579 198/580
vt 0.25390625 0.90625
vt 0.251953125 0.90625
vt 0.251953125 0.9375
vt 0.25390625 0.9375
f 196/581 200/582 197/583 193/584
vt 0.255859375 0.9375
vt 0.25390625 0.9375
vt 0.25390625 0.96875
vt 0.255859375 0.96875
f 194/585 193/586 197/587 198/588
vt 0.2578125 0.96875
vt 0.255859375 0.96875
vt 0.255859375 0.9375
vt 0.2578125 0.9375
f 199/589 200/590 196/591 195/592
vt 0.255859375 0.90625
vt 0.25390625 0.90625
vt 0.25390625 0.9375
vt 0.255859375 0.9375
f 195/593 196/594 193/595 194/596
vt 0.259765625 0.90625
vt 0.2578125 0.90625
vt 0.2578125 0.9375
vt 0.259765625 0.9375
f 200/597 199/598 198/599 197/600
o baseModel25
v -8.5 6 -2
v -7.5 6 -2
v -7.5 5.5 -2
v -8.5 5.5 -2
v -8.5 6 2
v -7.5 6 2
v -7.5 5.5 2
v -8.5 5.5 2
vt 0.39453125 0.8125
vt 0.38671875 0.8125
vt 0.38671875 0.84375
vt 0.39453125 0.84375
f 207/601 203/602 202/603 206/604
vt 0.384765625 0.8125
vt 0.376953125 0.8125
vt 0.376953125 0.84375
vt 0.384765625 0.84375
f 204/605 208/606 205/607 201/608
vt 0.38671875 0.84375
vt 0.384765625 0.84375
vt 0.384765625 0.96875
vt 0.38671875 0.96875
f 202/609 201/610 205/611 206/612
vt 0.388671875 0.96875
vt 0.38671875 0.96875
vt 0.38671875 0.84375
vt 0.388671875 0.84375
f 207/613 208/614 204/615 203/616
vt 0.38671875 0.8125
vt 0.384765625 0.8125
vt 0.384765625 0.84375
vt 0.38671875 0.84375
f 203/617 204/618 201/619 202/620
vt 0.396484375 0.8125
vt 0.39453125 0.8125
vt 0.39453125 0.84375
vt 0.396484375 0.84375
f 208/621 207/622 206/623 205/624
o baseModel26
v 7.5 6 -2
v 8.5 6 -2
v 8.5 5.5 -2
v 7.5 5.5 -2
v 7.5 6 2
v 8.5 6 2
v 8.5 5.5 2
v 7.5 5.5 2
vt 0.45703125 0.8125
vt 0.44921875 0.8125
vt 0.44921875 0.84375
vt 0.45703125 0.84375
f 215/625 211/626 210/627 214/628
vt 0.447265625 0.8125
vt 0.439453125 0.8125
vt 0.439453125 0.84375
vt 0.447265625 0.84375
f 212/629 216/630 213/631 209/632
vt 0.44921875 0.84375
vt 0.447265625 0.84375
vt 0.447265625 0.96875
vt 0.44921875 0.96875
f 210/633 209/634 213/635 214/636
vt 0.451171875 0.96875
vt 0.44921875 0.96875
vt 0.44921875 0.84375
vt 0.451171875 0.84375
f 215/637 216/638 212/639 211/640
vt 0.44921875 0.8125
vt 0.447265625 0.8125
vt 0.447265625 0.84375
vt 0.44921875 0.84375
f 211/641 212/642 209/643 210/644
vt 0.458984375 0.8125
vt 0.45703125 0.8125
vt 0.45703125 0.84375
vt 0.458984375 0.84375
f 216/645 215/646 214/647 213/648
o baseModel27
v 7.5 6 2
v 8.5 6 2
v 8.5 5 2
v 7.5 5 2
v 7.5 5 3
v 8.5 5 3
v 8.5 5 3
v 7.5 5 3
vt 0.3984375 0.90625
vt 0.396484375 0.90625
vt 0.396484375 0.9375
vt 0.3984375 0.9375
f 223/649 219/650 218/651 222/652
vt 0.39453125 0.90625
vt 0.392578125 0.90625
vt 0.392578125 0.9375
vt 0.39453125 0.9375
f 220/653 224/654 221/655 217/656
vt 0.396484375 0.9375
vt 0.39453125 0.9375
vt 0.39453125 0.96875
vt 0.396484375 0.96875
f 218/657 217/658 221/659 222/660
vt 0.3984375 0.96875
vt 0.396484375 0.96875
vt 0.396484375 0.9375
vt 0.3984375 0.9375
f 223/661 224/662 220/663 219/664
vt 0.396484375 0.90625
vt 0.39453125 0.90625
vt 0.39453125 0.9375
vt 0.396484375 0.9375
f 219/665 220/666 217/667 218/668
vt 0.400390625 0.90625
vt 0.3984375 0.90625
vt 0.3984375 0.9375
vt 0.400390625 0.9375
f 224/669 223/670 222/671 221/672
o baseModel28
v 7.5 5 -3
v 8.5 5 -3
v 8.5 5 -3
v 7.5 5 -3
v 7.5 6 -2
v 8.5 6 -2
v 8.5 5 -2
v 7.5 5 -2
vt 0.4609375 0.90625
vt 0.458984375 0.90625
vt 0.458984375 0.9375
vt 0.4609375 0.9375
f 231/673 227/674 226/675 230/676
vt 0.45703125 0.90625
vt 0.455078125 0.90625
vt 0.455078125 0.9375
vt 0.45703125 0.9375
f 228/677 232/678 229/679 225/680
vt 0.458984375 0.9375
vt 0.45703125 0.9375
vt 0.45703125 0.96875
vt 0.458984375 0.96875
f 226/681 225/682 229/683 230/684
vt 0.4609375 0.96875
vt 0.458984375 0.96875
vt 0.458984375 0.9375
vt 0.4609375 0.9375
f 231/685 232/686 228/687 227/688
vt 0.458984375 0.90625
vt 0.45703125 0.90625
vt 0.45703125 0.9375
vt 0.458984375 0.9375
f 227/689 228/690 225/691 226/692
vt 0.462890625 0.90625
vt 0.4609375 0.90625
vt 0.4609375 0.9375
vt 0.462890625 0.9375
f 232/693 231/694 230/695 229/696
o baseModel29
v 0.615 26.36406 20.0662
v 1.815 25.72766 20.7026
v 1.815 6.635775 1.610714
v 0.615 7.272171 0.9743175
v 0.615 23.7124 22.71785
v 1.815 24.3488 22.08145
v 1.815 5.256917 2.989572
v 0.615 4.620521 3.625968
vt 0.853515625 0
vt 0.845703125 0
vt 0.845703125 0.84375
vt 0.853515625 0.84375
f 239/697 235/698 234/699 238/700
vt 0.837890625 0
vt 0.830078125 0
vt 0.830078125 0.84375
vt 0.837890625 0.84375
f 236/701 240/702 237/703 233/704
vt 0.845703125 0.84375
vt 0.837890625 0.84375
vt 0.837890625 0.96875
vt 0.845703125 0.96875
f 234/705 233/706 237/707 238/708
vt 0.853515625 0.96875
vt 0.845703125 0.96875
vt 0.845703125 0.84375
vt 0.853515625 0.84375
f 239/709 240/710 236/711 235/712
vt 0.845703125 0
vt 0.837890625 0
vt 0.837890625 0.84375
vt 0.845703125 0.84375
f 235/713 236/714 233/715 234/716
vt 0.861328125 0
vt 0.853515625 0
vt 0.853515625 0.84375
vt 0.861328125 0.84375
f 240/717 239/718 238/719 237/720
o baseModel30
v 0.5 14.09063 17.95774
v 1.5 14.47099 18.77342
v 1.5 11.75206 20.04127
v 0.5 11.37171 19.22559
v 0.5 15.35849 20.67666
v 1.5 14.97813 19.86098
v 1.5 12.25921 21.12884
v 0.5 12.63956 21.94452
vt 0.89453125 0.78125
vt 0.888671875 0.78125
vt 0.888671875 0.875
vt 0.89453125 0.875
f 247/721 243/722 242/723 246/724
vt 0.8828125 0.78125
vt 0.876953125 0.78125
vt 0.876953125 0.875
vt 0.8828125 0.875
f 244/725 248/726 245/727 241/728
vt 0.888671875 0.875
vt 0.8828125 0.875
vt 0.8828125 0.96875
vt 0.888671875 0.96875
f 242/729 241/730 245/731 246/732
vt 0.89453125 0.96875
vt 0.888671875 0.96875
vt 0.888671875 0.875
vt 0.89453125 0.875
f 247/733 248/734 244/735 243/736
vt 0.888671875 0.78125
vt 0.8828125 0.78125
vt 0.8828125 0.875
vt 0.888671875 0.875
f 243/737 244/738 241/739 242/740
vt 0.900390625 0.78125
vt 0.89453125 0.78125
vt 0.89453125 0.875
vt 0.900390625 0.875
f 248/741 247/742 246/743 245/744
o baseModel31
v 0.25 4.353553 -0.3535534
v 0.75 4.070711 -0.07071068
v 0.75 2.656497 -1.484924
v 0.25 2.93934 -1.767767
v 0.25 3.292893 0.7071068
v 0.75 3.575736 0.4242641
v 0.75 2.161522 -0.9899494
v 0.25 1.87868 -0.7071066
vt 0.5703125 0.875
vt 0.568359375 0.875
vt 0.568359375 0.9375
vt 0.5703125 0.9375
f 255/745 251/746 250/747 254/748
vt 0.56640625 0.875
vt 0.564453125 0.875
vt 0.564453125 0.9375
vt 0.56640625 0.9375
f 252/749 256/750 253/751 249/752
vt 0.568359375 0.9375
vt 0.56640625 0.9375
vt 0.56640625 0.96875
vt 0.568359375 0.96875
f 250/753 249/754 253/755 254/756
vt 0.5703125 0.96875
vt 0.568359375 0.96875
vt 0.568359375 0.9375
vt 0.5703125 0.9375
f 255/757 256/758 252/759 251/760
vt 0.568359375 0.875
vt 0.56640625 0.875
vt 0.56640625 0.9375
vt 0.568359375 0.9375
f 251/761 252/762 249/763 250/764
vt 0.572265625 0.875
vt 0.5703125 0.875
vt 0.5703125 0.9375
vt 0.572265625 0.9375
f 256/765 255/766 254/767 253/768
o baseModel32
v -0.75 4.070711 -0.07071068
v -0.25 4.353553 -0.3535534
v -0.25 2.93934 -1.767767
v -0.75 2.656497 -1.484924
v -0.75 3.575736 0.4242641
v -0.25 3.292893 0.7071068
v -0.25 1.87868 -0.7071066
v -0.75 2.161522 -0.9899494
vt 0.5859375 0.875
vt 0.583984375 0.875
vt 0.583984375 0.9375
vt 0.5859375 0.9375
f 263/769 259/770 258/771 262/772
vt 0.58203125 0.875
vt 0.580078125 0.875
vt 0.580078125 0.9375
vt 0.58203125 0.9375
f 260/773 264/774 261/775 257/776
vt 0.583984375 0.9375
vt 0.58203125 0.9375
vt 0.58203125 0.96875
vt 0.583984375 0.96875
f 258/777 257/778 261/779 262/780
vt 0.5859375 0.96875
vt 0.583984375 0.96875
vt 0.583984375 0.9375
vt 0.5859375 0.9375
f 263/781 264/782 260/783 259/784
vt 0.583984375 0.875
vt 0.58203125 0.875
vt 0.58203125 0.9375
vt 0.583984375 0.9375
f 259/785 260/786 257/787 258/788
vt 0.587890625 0.875
vt 0.5859375 0.875
vt 0.5859375 0.9375
vt 0.587890625 0.9375
f 264/789 263/790 262/791 261/792
o baseModel33
v -0.25 4.353553 -0.3535534
v 0.25 4.353553 -0.3535534
v 0.25 2.93934 -1.767767
v -0.25 2.93934 -1.767767
v -0.25 3.292893 0.7071068
v 0.25 3.292893 0.7071068
v 0.25 1.87868 -0.7071066
v -0.25 1.87868 -0.7071066
vt 0.7109375 0.875
vt 0.708984375 0.875
vt 0.708984375 0.9375
vt 0.7109375 0.9375
f 271/793 267/794 266/795 270/796
vt 0.70703125 0.875
vt 0.705078125 0.875
vt 0.705078125 0.9375
vt 0.70703125 0.9375
f 268/797 272/798 269/799 265/800
vt 0.708984375 0.9375
vt 0.70703125 0.9375
vt 0.70703125 0.96875
vt 0.708984375 0.96875
f 266/801 265/802 269/803 270/804
vt 0.7109375 0.96875
vt 0.708984375 0.96875
vt 0.708984375 0.9375
vt 0.7109375 0.9375
f 271/805 272/806 268/807 267/808
vt 0.708984375 0.875
vt 0.70703125 0.875
vt 0.70703125 0.9375
vt 0.708984375 0.9375
f 267/809 268/810 265/811 266/812
vt 0.712890625 0.875
vt 0.7109375 0.875
vt 0.7109375 0.9375
vt 0.712890625 0.9375
f 272/813 271/814 270/815 269/816
o baseModel34
v 0.675 5.944544 -0.5303302
v 2 5.237437 0.1767766
v 0.75 4.070711 -0.07071068
v 0.25 4.353553 -0.3535534
v 0.675 3.116117 2.298097
v 2 3.823223 1.59099
v 0.75 3.575736 0.4242641
v 0.25 3.292893 0.7071068
vt 0.7578125 0.90625
vt 0.755859375 0.90625
vt 0.755859375 0.9375
vt 0.7578125 0.9375
f 279/817 275/818 274/819 278/820
vt 0.75390625 0.90625
vt 0.751953125 0.90625
vt 0.751953125 0.9375
vt 0.75390625 0.9375
f 276/821 280/822 277/823 273/824
vt 0.755859375 0.9375
vt 0.75390625 0.9375
vt 0.75390625 0.96875
vt 0.755859375 0.96875
f 274/825 273/826 277/827 278/828
vt 0.7578125 0.96875
vt 0.755859375 0.96875
vt 0.755859375 0.9375
vt 0.7578125 0.9375
f 279/829 280/830 276/831 275/832
vt 0.755859375 0.90625
vt 0.75390625 0.90625
vt 0.75390625 0.9375
vt 0.755859375 0.9375
f 275/833 276/834 273/835 274/836
vt 0.759765625 0.90625
vt 0.7578125 0.90625
vt 0.7578125 0.9375
vt 0.759765625 0.9375
f 280/837 279/838 278/839 277/840
o baseModel35
v -0.675 5.944544 -0.5303302
v 0.675 5.944544 -0.5303302
v 0.25 4.353553 -0.3535534
v -0.25 4.353553 -0.3535534
v -0.675 3.116117 2.298097
v 0.675 3.116117 2.298097
v 0.25 3.292893 0.7071068
v -0.25 3.292893 0.7071068
vt 0.7734375 0.90625
vt 0.771484375 0.90625
vt 0.771484375 0.9375
vt 0.7734375 0.9375
f 287/841 283/842 282/843 286/844
vt 0.76953125 0.90625
vt 0.767578125 0.90625
vt 0.767578125 0.9375
vt 0.76953125 0.9375
f 284/845 288/846 285/847 281/848
vt 0.771484375 0.9375
vt 0.76953125 0.9375
vt 0.76953125 0.96875
vt 0.771484375 0.96875
f 282/849 281/850 285/851 286/852
vt 0.7734375 0.96875
vt 0.771484375 0.96875
vt 0.771484375 0.9375
vt 0.7734375 0.9375
f 287/853 288/854 284/855 283/856
vt 0.771484375 0.90625
vt 0.76953125 0.90625
vt 0.76953125 0.9375
vt 0.771484375 0.9375
f 283/857 284/858 281/859 282/860
vt 0.775390625 0.90625
vt 0.7734375 0.90625
vt 0.7734375 0.9375
vt 0.775390625 0.9375
f 288/861 287/862 286/863 285/864
o baseModel36
v -1.815 25.72766 20.7026
v -0.615 26.36406 20.0662
v -0.615 7.272171 0.9743175
v -1.815 6.635775 1.610714
v -1.815 24.3488 22.08145
v -0.615 23.7124 22.71785
v -0.615 4.620521 3.625968
v -1.815 5.256917 2.989572
vt 0.931640625 0
vt 0.923828125 0
vt 0.923828125 0.84375
vt 0.931640625 0.84375
f 295/865 291/866 290/867 294/868
vt 0.916015625 0
vt 0.908203125 0
vt 0.908203125 0.84375
vt 0.916015625 0.84375
f 292/869 296/870 293/871 289/872
vt 0.923828125 0.84375
vt 0.916015625 0.84375
vt 0.916015625 0.96875
vt 0.923828125 0.96875
f 290/873 289/874 293/875 294/876
vt 0.931640625 0.96875
vt 0.923828125 0.96875
vt 0.923828125 0.84375
vt 0.931640625 0.84375
f 295/877 296/878 292/879 291/880
vt 0.923828125 0
vt 0.916015625 0
vt 0.916015625 0.84375
vt 0.923828125 0.84375
f 291/881 292/882 289/883 290/884
vt 0.939453125 0
vt 0.931640625 0
vt 0.931640625 0.84375
vt 0.939453125 0.84375
f 296/885 295/886 294/887 293/888
o baseModel37
v -0.6125 26.36406 20.0662
v 0.6125 26.36406 20.0662
v 0.6125 7.272171 0.9743175
v -0.6125 7.272171 0.9743175
v -0.6125 23.7124 22.71785
v 0.6125 23.7124 22.71785
v 0.6125 4.620521 3.625968
v -0.6125 4.620521 3.625968
vt 0.978515625 0
vt 0.970703125 0
vt 0.970703125 0.84375
vt 0.978515625 0.84375
f 303/889 299/890 298/891 302/892
vt 0.962890625 0
vt 0.955078125 0
vt 0.955078125 0.84375
vt 0.962890625 0.84375
f 300/893 304/894 301/895 297/896
vt 0.970703125 0.84375
vt 0.962890625 0.84375
vt 0.962890625 0.96875
vt 0.970703125 0.96875
f 298/897 297/898 301/899 302/900
vt 0.978515625 0.96875
vt 0.970703125 0.96875
vt 0.970703125 0.84375
vt 0.978515625 0.84375
f 303/901 304/902 300/903 299/904
vt 0.970703125 0
vt 0.962890625 0
vt 0.962890625 0.84375
vt 0.970703125 0.84375
f 299/905 300/906 297/907 298/908
vt 0.986328125 0
vt 0.978515625 0
vt 0.978515625 0.84375
vt 0.986328125 0.84375
f 304/909 303/910 302/911 301/912
o baseModel38
v -2 5.237437 0.1767766
v -0.675 5.944544 -0.5303302
v -0.25 4.353553 -0.3535534
v -0.75 4.070711 -0.07071068
v -2 3.823223 1.59099
v -0.675 3.116117 2.298097
v -0.25 3.292893 0.7071068
v -0.75 3.575736 0.4242641
vt 0.8203125 0.90625
vt 0.818359375 0.90625
vt 0.818359375 0.9375
vt 0.8203125 0.9375
f 311/913 307/914 306/915 310/916
vt 0.81640625 0.90625
vt 0.814453125 0.90625
vt 0.814453125 0.9375
vt 0.81640625 0.9375
f 308/917 312/918 309/919 305/920
vt 0.818359375 0.9375
vt 0.81640625 0.9375
vt 0.81640625 0.96875
vt 0.818359375 0.96875
f 306/921 305/922 309/923 310/924
vt 0.8203125 0.96875
vt 0.818359375 0.96875
vt 0.818359375 0.9375
vt 0.8203125 0.9375
f 311/925 312/926 308/927 307/928
vt 0.818359375 0.90625
vt 0.81640625 0.90625
vt 0.81640625 0.9375
vt 0.818359375 0.9375
f 307/929 308/930 305/931 306/932
vt 0.822265625 0.90625
vt 0.8203125 0.90625
vt 0.8203125 0.9375
vt 0.822265625 0.9375
f 312/933 311/934 310/935 309/936
o baseModel39
v 0.675 7.360559 0.8859291
v 2 6.653453 1.593036
v 2 5.239239 0.1788225
v 0.675 5.946346 -0.5282844
v 0.675 4.532132 3.714356
v 2 5.239239 3.00725
v 2 3.825025 1.593036
v 0.675 3.117919 2.300143
vt 0.025390625 0.53125
vt 0.017578125 0.53125
vt 0.017578125 0.59375
vt 0.025390625 0.59375
f 319/937 315/938 314/939 318/940
vt 0.009765625 0.53125
vt 0.001953125 0.53125
vt 0.001953125 0.59375
vt 0.009765625 0.59375
f 316/941 320/942 317/943 313/944
vt 0.017578125 0.59375
vt 0.009765625 0.59375
vt 0.009765625 0.71875
vt 0.017578125 0.71875
f 314/945 313/946 317/947 318/948
vt 0.025390625 0.71875
vt 0.017578125 0.71875
vt 0.017578125 0.59375
vt 0.025390625 0.59375
f 319/949 320/950 316/951 315/952
vt 0.017578125 0.53125
vt 0.009765625 0.53125
vt 0.009765625 0.59375
vt 0.017578125 0.59375
f 315/953 316/954 313/955 314/956
vt 0.033203125 0.53125
vt 0.025390625 0.53125
vt 0.025390625 0.59375
vt 0.033203125 0.59375
f 320/957 319/958 318/959 317/960
o baseModel40
v -0.675 7.360559 0.8859291
v 0.675 7.360559 0.8859291
v 0.675 5.946346 -0.5282844
v -0.675 5.946346 -0.5282844
v -0.675 4.532132 3.714356
v 0.675 4.532132 3.714356
v 0.675 3.117919 2.300143
v -0.675 3.117919 2.300143
vt 0.275390625 0.53125
vt 0.267578125 0.53125
vt 0.267578125 0.59375
vt 0.275390625 0.59375
f 327/961 323/962 322/963 326/964
vt 0.259765625 0.53125
vt 0.251953125 0.53125
vt 0.251953125 0.59375
vt 0.259765625 0.59375
f 324/965 328/966 325/967 321/968
vt 0.267578125 0.59375
vt 0.259765625 0.59375
vt 0.259765625 0.71875
vt 0.267578125 0.71875
f 322/969 321/970 325/971 326/972
vt 0.275390625 0.71875
vt 0.267578125 0.71875
vt 0.267578125 0.59375
vt 0.275390625 0.59375
f 327/973 328/974 324/975 323/976
vt 0.267578125 0.53125
vt 0.259765625 0.53125
vt 0.259765625 0.59375
vt 0.267578125 0.59375
f 323/977 324/978 321/979 322/980
vt 0.283203125 0.53125
vt 0.275390625 0.53125
vt 0.275390625 0.59375
vt 0.283203125 0.59375
f 328/981 327/982 326/983 325/984
o baseModel41
v -2 6.653453 1.593036
v -0.675 7.360559 0.8859291
v -0.675 5.946346 -0.5282844
v -2 5.239239 0.1788225
v -2 5.239239 3.00725
v -0.675 4.532132 3.714356
v -0.675 3.117919 2.300143
v -2 3.825025 1.593036
vt 0.322265625 0.53125
vt 0.314453125 0.53125
vt 0.314453125 0.59375
vt 0.322265625 0.59375
f 335/985 331/986 330/987 334/988
vt 0.306640625 0.53125
vt 0.298828125 0.53125
vt 0.298828125 0.59375
vt 0.306640625 0.59375
f 332/989 336/990 333/991 329/992
vt 0.314453125 0.59375
vt 0.306640625 0.59375
vt 0.306640625 0.71875
vt 0.314453125 0.71875
f 330/993 329/994 333/995 334/996
vt 0.322265625 0.71875
vt 0.314453125 0.71875
vt 0.314453125 0.59375
vt 0.322265625 0.59375
f 335/997 336/998 332/999 331/1000
vt 0.314453125 0.53125
vt 0.306640625 0.53125
vt 0.306640625 0.59375
vt 0.314453125 0.59375
f 331/1001 332/1002 329/1003 330/1004
vt 0.330078125 0.53125
vt 0.322265625 0.53125
vt 0.322265625 0.59375
vt 0.330078125 0.59375
f 336/1005 335/1006 334/1007 333/1008
o baseModel42
v 0.675 20.08848 13.61385
v 2 19.38138 14.32096
v 2 17.26005 12.19964
v 0.675 17.96716 11.49253
v 0.675 17.26006 16.44228
v 2 17.96716 15.73517
v 2 15.84584 13.61385
v 0.675 15.13873 14.32096
vt 0.369140625 0.5
vt 0.361328125 0.5
vt 0.361328125 0.59375
vt 0.369140625 0.59375
f 343/1009 339/1010 338/1011 342/1012
vt 0.353515625 0.5
vt 0.345703125 0.5
vt 0.345703125 0.59375
vt 0.353515625 0.59375
f 340/1013 344/1014 341/1015 337/1016
vt 0.361328125 0.59375
vt 0.353515625 0.59375
vt 0.353515625 0.71875
vt 0.361328125 0.71875
f 338/1017 337/1018 341/1019 342/1020
vt 0.369140625 0.71875
vt 0.361328125 0.71875
vt 0.361328125 0.59375
vt 0.369140625 0.59375
f 343/1021 344/1022 340/1023 339/1024
vt 0.361328125 0.5
vt 0.353515625 0.5
vt 0.353515625 0.59375
vt 0.361328125 0.59375
f 339/1025 340/1026 337/1027 338/1028
vt 0.376953125 0.5
vt 0.369140625 0.5
vt 0.369140625 0.59375
vt 0.376953125 0.59375
f 344/1029 343/1030 342/1031 341/1032
o baseModel43
v -0.675 20.08848 13.61385
v 0.675 20.08848 13.61385
v 0.675 17.96716 11.49253
v -0.675 17.96716 11.49253
v -0.675 17.26006 16.44228
v 0.675 17.26006 16.44228
v 0.675 15.13873 14.32096
v -0.675 15.13873 14.32096
vt 0.416015625 0.5
vt 0.408203125 0.5
vt 0.408203125 0.59375
vt 0.416015625 0.59375
f 351/1033 347/1034 346/1035 350/1036
vt 0.400390625 0.5
vt 0.392578125 0.5
vt 0.392578125 0.59375
vt 0.400390625 0.59375
f 348/1037 352/1038 349/1039 345/1040
vt 0.408203125 0.59375
vt 0.400390625 0.59375
vt 0.400390625 0.71875
vt 0.408203125 0.71875
f 346/1041 345/1042 349/1043 350/1044
vt 0.416015625 0.71875
vt 0.408203125 0.71875
vt 0.408203125 0.59375
vt 0.416015625 0.59375
f 351/1045 352/1046 348/1047 347/1048
vt 0.408203125 0.5
vt 0.400390625 0.5
vt 0.400390625 0.59375
vt 0.408203125 0.59375
f 347/1049 348/1050 345/1051 346/1052
vt 0.423828125 0.5
vt 0.416015625 0.5
vt 0.416015625 0.59375
vt 0.423828125 0.59375
f 352/1053 351/1054 350/1055 349/1056
o baseModel44
v -2 19.38138 14.32096
v -0.675 20.08848 13.61385
v -0.675 17.96716 11.49253
v -2 17.26005 12.19964
v -2 17.96716 15.73517
v -0.675 17.26006 16.44228
v -0.675 15.13873 14.32096
v -2 15.84584 13.61385
vt 0.462890625 0.5
vt 0.455078125 0.5
vt 0.455078125 0.59375
vt 0.462890625 0.59375
f 359/1057 355/1058 354/1059 358/1060
vt 0.447265625 0.5
vt 0.439453125 0.5
vt 0.439453125 0.59375
vt 0.447265625 0.59375
f 356/1061 360/1062 357/1063 353/1064
vt 0.455078125 0.59375
vt 0.447265625 0.59375
vt 0.447265625 0.71875
vt 0.455078125 0.71875
f 354/1065 353/1066 357/1067 358/1068
vt 0.462890625 0.71875
vt 0.455078125 0.71875
vt 0.455078125 0.59375
vt 0.462890625 0.59375
f 359/1069 360/1070 356/1071 355/1072
vt 0.455078125 0.5
vt 0.447265625 0.5
vt 0.447265625 0.59375
vt 0.455078125 0.59375
f 355/1073 356/1074 353/1075 354/1076
vt 0.470703125 0.5
vt 0.462890625 0.5
vt 0.462890625 0.59375
vt 0.470703125 0.59375
f 360/1077 359/1078 358/1079 357/1080
o baseModel45
v 0.675 26.806 20.33136
v 2 26.09889 21.03847
v 2 25.39178 20.33136
v 0.675 26.09889 19.62426
v 0.675 23.97757 23.15979
v 2 24.68468 22.45268
v 2 23.97757 21.74558
v 0.675 23.27046 22.45268
vt 0.509765625 0.5625
vt 0.501953125 0.5625
vt 0.501953125 0.59375
vt 0.509765625 0.59375
f 367/1081 363/1082 362/1083 366/1084
vt 0.494140625 0.5625
vt 0.486328125 0.5625
vt 0.486328125 0.59375
vt 0.494140625 0.59375
f 364/1085 368/1086 365/1087 361/1088
vt 0.501953125 0.59375
vt 0.494140625 0.59375
vt 0.494140625 0.71875
vt 0.501953125 0.71875
f 362/1089 361/1090 365/1091 366/1092
vt 0.509765625 0.71875
vt 0.501953125 0.71875
vt 0.501953125 0.59375
vt 0.509765625 0.59375
f 367/1093 368/1094 364/1095 363/1096
vt 0.501953125 0.5625
vt 0.494140625 0.5625
vt 0.494140625 0.59375
vt 0.501953125 0.59375
f 363/1097 364/1098 361/1099 362/1100
vt 0.517578125 0.5625
vt 0.509765625 0.5625
vt 0.509765625 0.59375
vt 0.517578125 0.59375
f 368/1101 367/1102 366/1103 365/1104
o baseModel46
v -0.675 26.806 20.33136
v 0.675 26.806 20.33136
v 0.675 26.09889 19.62426
v -0.675 26.09889 19.62426
v -0.675 23.97757 23.15979
v 0.675 23.97757 23.15979
v 0.675 23.27046 22.45268
v -0.675 23.27046 22.45268
vt 0.556640625 0.5625
vt 0.548828125 0.5625
vt 0.548828125 0.59375
vt 0.556640625 0.59375
f 375/1105 371/1106 370/1107 374/1108
vt 0.541015625 0.5625
vt 0.533203125 0.5625
vt 0.533203125 0.59375
vt 0.541015625 0.59375
f 372/1109 376/1110 373/1111 369/1112
vt 0.548828125 0.59375
vt 0.541015625 0.59375
vt 0.541015625 0.71875
vt 0.548828125 0.71875
f 370/1113 369/1114 373/1115 374/1116
vt 0.556640625 0.71875
vt 0.548828125 0.71875
vt 0.548828125 0.59375
vt 0.556640625 0.59375
f 375/1117 376/1118 372/1119 371/1120
vt 0.548828125 0.5625
vt 0.541015625 0.5625
vt 0.541015625 0.59375
vt 0.548828125 0.59375
f 371/1121 372/1122 369/1123 370/1124
vt 0.564453125 0.5625
vt 0.556640625 0.5625
vt 0.556640625 0.59375
vt 0.564453125 0.59375
f 376/1125 375/1126 374/1127 373/1128
o baseModel47
v -2 26.09889 21.03847
v -0.675 26.806 20.33136
v -0.675 26.09889 19.62426
v -2 25.39178 20.33136
v -2 24.68468 22.45268
v -0.675 23.97757 23.15979
v -0.675 23.27046 22.45268
v -2 23.97757 21.74558
vt 0.744140625 0.5625
vt 0.736328125 0.5625
vt 0.736328125 0.59375
vt 0.744140625 0.59375
f 383/1129 379/1130 378/1131 382/1132
vt 0.728515625 0.5625
vt 0.720703125 0.5625
vt 0.720703125 0.59375
vt 0.728515625 0.59375
f 380/1133 384/1134 381/1135 377/1136
vt 0.736328125 0.59375
vt 0.728515625 0.59375
vt 0.728515625 0.71875
vt 0.736328125 0.71875
f 378/1137 377/1138 381/1139 382/1140
vt 0.744140625 0.71875
vt 0.736328125 0.71875
vt 0.736328125 0.59375
vt 0.744140625 0.59375
f 383/1141 384/1142 380/1143 379/1144
vt 0.736328125 0.5625
vt 0.728515625 0.5625
vt 0.728515625 0.59375
vt 0.736328125 0.59375
f 379/1145 380/1146 377/1147 378/1148
vt 0.751953125 0.5625
vt 0.744140625 0.5625
vt 0.744140625 0.59375
vt 0.751953125 0.59375
f 384/1149 383/1150 382/1151 381/1152
o baseModel48
v -1.05 14.77261 13.63119
v -0.65 14.52513 13.87868
v -0.65 13.81802 13.17157
v -1.05 14.06551 12.92409
v -1.05 13.92409 14.47972
v -0.65 14.17157 14.23223
v -0.65 13.46447 13.52513
v -1.05 13.21698 13.77261
vt 0.8671875 0.90625
vt 0.865234375 0.90625
vt 0.865234375 0.9375
vt 0.8671875 0.9375
f 391/1153 387/1154 386/1155 390/1156
vt 0.86328125 0.90625
vt 0.861328125 0.90625
vt 0.861328125 0.9375
vt 0.86328125 0.9375
f 388/1157 392/1158 389/1159 385/1160
vt 0.865234375 0.9375
vt 0.86328125 0.9375
vt 0.86328125 0.96875
vt 0.865234375 0.96875
f 386/1161 385/1162 389/1163 390/1164
vt 0.8671875 0.96875
vt 0.865234375 0.96875
vt 0.865234375 0.9375
vt 0.8671875 0.9375
f 391/1165 392/1166 388/1167 387/1168
vt 0.865234375 0.90625
vt 0.86328125 0.90625
vt 0.86328125 0.9375
vt 0.865234375 0.9375
f 387/1169 388/1170 385/1171 386/1172
vt 0.869140625 0.90625
vt 0.8671875 0.90625
vt 0.8671875 0.9375
vt 0.869140625 0.9375
f 392/1173 391/1174 390/1175 389/1176
o baseModel49
v -1.09 18.41421 17.41421
v -0.75 18.23744 17.59099
v -0.75 13.9948 13.34835
v -1.09 14.17157 13.17157
v -1.09 17.70711 18.12132
v -0.75 17.88388 17.94454
v -0.75 13.64124 13.7019
v -1.09 13.46447 13.87868
vt 0.1484375 0.5
vt 0.146484375 0.5
vt 0.146484375 0.6875
vt 0.1484375 0.6875
f 399/1177 395/1178 394/1179 398/1180
vt 0.14453125 0.5
vt 0.142578125 0.5
vt 0.142578125 0.6875
vt 0.14453125 0.6875
f 396/1181 400/1182 397/1183 393/1184
vt 0.146484375 0.6875
vt 0.14453125 0.6875
vt 0.14453125 0.71875
vt 0.146484375 0.71875
f 394/1185 393/1186 397/1187 398/1188
vt 0.1484375 0.71875
vt 0.146484375 0.71875
vt 0.146484375 0.6875
vt 0.1484375 0.6875
f 399/1189 400/1190 396/1191 395/1192
vt 0.146484375 0.5
vt 0.14453125 0.5
vt 0.14453125 0.6875
vt 0.146484375 0.6875
f 395/1193 396/1194 393/1195 394/1196
vt 0.150390625 0.5
vt 0.1484375 0.5
vt 0.1484375 0.6875
vt 0.150390625 0.6875
f 400/1197 399/1198 398/1199 397/1200
o baseModel50
v -1.75 18.23744 17.59099
v -1.41 18.41421 17.41421
v -1.41 14.17157 13.17157
v -1.75 13.9948 13.34835
v -1.75 17.88388 17.94454
v -1.41 17.70711 18.12132
v -1.41 13.46447 13.87868
v -1.75 13.64124 13.7019
vt 0.5859375 0.5
vt 0.583984375 0.5
vt 0.583984375 0.6875
vt 0.5859375 0.6875
f 407/1201 403/1202 402/1203 406/1204
vt 0.58203125 0.5
vt 0.580078125 0.5
vt 0.580078125 0.6875
vt 0.58203125 0.6875
f 404/1205 408/1206 405/1207 401/1208
vt 0.583984375 0.6875
vt 0.58203125 0.6875
vt 0.58203125 0.71875
vt 0.583984375 0.71875
f 402/1209 401/1210 405/1211 406/1212
vt 0.5859375 0.71875
vt 0.583984375 0.71875
vt 0.583984375 0.6875
vt 0.5859375 0.6875
f 407/1213 408/1214 404/1215 403/1216
vt 0.583984375 0.5
vt 0.58203125 0.5
vt 0.58203125 0.6875
vt 0.583984375 0.6875
f 403/1217 404/1218 401/1219 402/1220
vt 0.587890625 0.5
vt 0.5859375 0.5
vt 0.5859375 0.6875
vt 0.587890625 0.6875
f 408/1221 407/1222 406/1223 405/1224
o baseModel51
v -1.41 18.41421 17.41421
v -1.09 18.41421 17.41421
v -1.09 14.17157 13.17157
v -1.41 14.17157 13.17157
v -1.41 17.70711 18.12132
v -1.09 17.70711 18.12132
v -1.09 13.46447 13.87868
v -1.41 13.46447 13.87868
vt 0.7734375 0.5
vt 0.771484375 0.5
vt 0.771484375 0.6875
vt 0.7734375 0.6875
f 415/1225 411/1226 410/1227 414/1228
vt 0.76953125 0.5
vt 0.767578125 0.5
vt 0.767578125 0.6875
vt 0.76953125 0.6875
f 412/1229 416/1230 413/1231 409/1232
vt 0.771484375 0.6875
vt 0.76953125 0.6875
vt 0.76953125 0.71875
vt 0.771484375 0.71875
f 410/1233 409/1234 413/1235 414/1236
vt 0.7734375 0.71875
vt 0.771484375 0.71875
vt 0.771484375 0.6875
vt 0.7734375 0.6875
f 415/1237 416/1238 412/1239 411/1240
vt 0.771484375 0.5
vt 0.76953125 0.5
vt 0.76953125 0.6875
vt 0.771484375 0.6875
f 411/1241 412/1242 409/1243 410/1244
vt 0.775390625 0.5
vt 0.7734375 0.5
vt 0.7734375 0.6875
vt 0.775390625 0.6875
f 416/1245 415/1246 414/1247 413/1248
o baseModel52
v -0.5 16.80565 18.12658
v -0.16 16.7 17.9
v -0.16 15.79369 18.32262
v -0.5 15.89935 18.5492
v -0.5 17.01696 18.57973
v -0.16 17.12262 18.80631
v -0.16 16.21631 19.22893
v -0.5 16.11066 19.00235
vt 0.9453125 0.90625
vt 0.943359375 0.90625
vt 0.943359375 0.9375
vt 0.9453125 0.9375
f 423/1249 419/1250 418/1251 422/1252
vt 0.94140625 0.90625
vt 0.939453125 0.90625
vt 0.939453125 0.9375
vt 0.94140625 0.9375
f 420/1253 424/1254 421/1255 417/1256
vt 0.943359375 0.9375
vt 0.94140625 0.9375
vt 0.94140625 0.96875
vt 0.943359375 0.96875
f 418/1257 417/1258 421/1259 422/1260
vt 0.9453125 0.96875
vt 0.943359375 0.96875
vt 0.943359375 0.9375
vt 0.9453125 0.9375
f 423/1261 424/1262 420/1263 419/1264
vt 0.943359375 0.90625
vt 0.94140625 0.90625
vt 0.94140625 0.9375
vt 0.943359375 0.9375
f 419/1265 420/1266 417/1267 418/1268
vt 0.947265625 0.90625
vt 0.9453125 0.90625
vt 0.9453125 0.9375
vt 0.947265625 0.9375
f 424/1269 423/1270 422/1271 421/1272
o baseModel53
v -0.16 16.7 17.9
v 0.16 16.7 17.9
v 0.16 15.79369 18.32262
v -0.16 15.79369 18.32262
v -0.16 17.12262 18.80631
v 0.16 17.12262 18.80631
v 0.16 16.21631 19.22893
v -0.16 16.21631 19.22893
vt 0.9921875 0.90625
vt 0.990234375 0.90625
vt 0.990234375 0.9375
vt 0.9921875 0.9375
f 431/1273 427/1274 426/1275 430/1276
vt 0.98828125 0.90625
vt 0.986328125 0.90625
vt 0.986328125 0.9375
vt 0.98828125 0.9375
f 428/1277 432/1278 429/1279 425/1280
vt 0.990234375 0.9375
vt 0.98828125 0.9375
vt 0.98828125 0.96875
vt 0.990234375 0.96875
f 426/1281 425/1282 429/1283 430/1284
vt 0.9921875 0.96875
vt 0.990234375 0.96875
vt 0.990234375 0.9375
vt 0.9921875 0.9375
f 431/1285 432/1286 428/1287 427/1288
vt 0.990234375 0.90625
vt 0.98828125 0.90625
vt 0.98828125 0.9375
vt 0.990234375 0.9375
f 427/1289 428/1290 425/1291 426/1292
vt 0.994140625 0.90625
vt 0.9921875 0.90625
vt 0.9921875 0.9375
vt 0.994140625 0.9375
f 432/1293 431/1294 430/1295 429/1296
o baseModel54
v 0.16 16.7 17.9
v 0.5 16.80565 18.12658
v 0.5 15.89935 18.5492
v 0.16 15.79369 18.32262
v 0.16 17.12262 18.80631
v 0.5 17.01696 18.57973
v 0.5 16.11066 19.00235
v 0.16 16.21631 19.22893
vt 0.0390625 0.65625
vt 0.037109375 0.65625
vt 0.037109375 0.6875
vt 0.0390625 0.6875
f 439/1297 435/1298 434/1299 438/1300
vt 0.03515625 0.65625
vt 0.033203125 0.65625
vt 0.033203125 0.6875
vt 0.03515625 0.6875
f 436/1301 440/1302 437/1303 433/1304
vt 0.037109375 0.6875
vt 0.03515625 0.6875
vt 0.03515625 0.71875
vt 0.037109375 0.71875
f 434/1305 433/1306 437/1307 438/1308
vt 0.0390625 0.71875
vt 0.037109375 0.71875
vt 0.037109375 0.6875
vt 0.0390625 0.6875
f 439/1309 440/1310 436/1311 435/1312
vt 0.037109375 0.65625
vt 0.03515625 0.65625
vt 0.03515625 0.6875
vt 0.037109375 0.6875
f 435/1313 436/1314 433/1315 434/1316
vt 0.041015625 0.65625
vt 0.0390625 0.65625
vt 0.0390625 0.6875
vt 0.041015625 0.6875
f 440/1317 439/1318 438/1319 437/1320
o baseModel55
v -1.85 14.52513 13.87868
v -1.45 14.77261 13.63119
v -1.45 14.06551 12.92409
v -1.85 13.81802 13.17157
v -1.85 14.17157 14.23223
v -1.45 13.92409 14.47972
v -1.45 13.21698 13.77261
v -1.85 13.46447 13.52513
vt 0.2890625 0.65625
vt 0.287109375 0.65625
vt 0.287109375 0.6875
vt 0.2890625 0.6875
f 447/1321 443/1322 442/1323 446/1324
vt 0.28515625 0.65625
vt 0.283203125 0.65625
vt 0.283203125 0.6875
vt 0.28515625 0.6875
f 444/1325 448/1326 445/1327 441/1328
vt 0.287109375 0.6875
vt 0.28515625 0.6875
vt 0.28515625 0.71875
vt 0.287109375 0.71875
f 442/1329 441/1330 445/1331 446/1332
vt 0.2890625 0.71875
vt 0.287109375 0.71875
vt 0.287109375 0.6875
vt 0.2890625 0.6875
f 447/1333 448/1334 444/1335 443/1336
vt 0.287109375 0.65625
vt 0.28515625 0.65625
vt 0.28515625 0.6875
vt 0.287109375 0.6875
f 443/1337 444/1338 441/1339 442/1340
vt 0.291015625 0.65625
vt 0.2890625 0.65625
vt 0.2890625 0.6875
vt 0.291015625 0.6875
f 448/1341 447/1342 446/1343 445/1344
o baseModel56
v -1.45 14.77261 13.63119
v -1.05 14.77261 13.63119
v -1.05 14.06551 12.92409
v -1.45 14.06551 12.92409
v -1.45 13.92409 14.47972
v -1.05 13.92409 14.47972
v -1.05 13.21698 13.77261
v -1.45 13.21698 13.77261
vt 0.3359375 0.65625
vt 0.333984375 0.65625
vt 0.333984375 0.6875
vt 0.3359375 0.6875
f 455/1345 451/1346 450/1347 454/1348
vt 0.33203125 0.65625
vt 0.330078125 0.65625
vt 0.330078125 0.6875
vt 0.33203125 0.6875
f 452/1349 456/1350 453/1351 449/1352
vt 0.333984375 0.6875
vt 0.33203125 0.6875
vt 0.33203125 0.71875
vt 0.333984375 0.71875
f 450/1353 449/1354 453/1355 454/1356
vt 0.3359375 0.71875
vt 0.333984375 0.71875
vt 0.333984375 0.6875
vt 0.3359375 0.6875
f 455/1357 456/1358 452/1359 451/1360
vt 0.333984375 0.65625
vt 0.33203125 0.65625
vt 0.33203125 0.6875
vt 0.333984375 0.6875
f 451/1361 452/1362 449/1363 450/1364
vt 0.337890625 0.65625
vt 0.3359375 0.65625
vt 0.3359375 0.6875
vt 0.337890625 0.6875
f 456/1365 455/1366 454/1367 453/1368
o baseModel57
v 0.75 18.23744 17.59099
v 1.09 18.41421 17.41421
v 1.09 14.17157 13.17157
v 0.75 13.9948 13.34835
v 0.75 17.88388 17.94454
v 1.09 17.70711 18.12132
v 1.09 13.46447 13.87868
v 0.75 13.64124 13.7019
vt 0.7890625 0.5
vt 0.787109375 0.5
vt 0.787109375 0.6875
vt 0.7890625 0.6875
f 463/1369 459/1370 458/1371 462/1372
vt 0.78515625 0.5
vt 0.783203125 0.5
vt 0.783203125 0.6875
vt 0.78515625 0.6875
f 460/1373 464/1374 461/1375 457/1376
vt 0.787109375 0.6875
vt 0.78515625 0.6875
vt 0.78515625 0.71875
vt 0.787109375 0.71875
f 458/1377 457/1378 461/1379 462/1380
vt 0.7890625 0.71875
vt 0.787109375 0.71875
vt 0.787109375 0.6875
vt 0.7890625 0.6875
f 463/1381 464/1382 460/1383 459/1384
vt 0.787109375 0.5
vt 0.78515625 0.5
vt 0.78515625 0.6875
vt 0.787109375 0.6875
f 459/1385 460/1386 457/1387 458/1388
vt 0.791015625 0.5
vt 0.7890625 0.5
vt 0.7890625 0.6875
vt 0.791015625 0.6875
f 464/1389 463/1390 462/1391 461/1392
o baseModel58
v 1.09 18.41421 17.41421
v 1.41 18.41421 17.41421
v 1.41 14.17157 13.17157
v 1.09 14.17157 13.17157
v 1.09 17.70711 18.12132
v 1.41 17.70711 18.12132
v 1.41 13.46447 13.87868
v 1.09 13.46447 13.87868
vt 0.8046875 0.5
vt 0.802734375 0.5
vt 0.802734375 0.6875
vt 0.8046875 0.6875
f 471/1393 467/1394 466/1395 470/1396
vt 0.80078125 0.5
vt 0.798828125 0.5
vt 0.798828125 0.6875
vt 0.80078125 0.6875
f 468/1397 472/1398 469/1399 465/1400
vt 0.802734375 0.6875
vt 0.80078125 0.6875
vt 0.80078125 0.71875
vt 0.802734375 0.71875
f 466/1401 465/1402 469/1403 470/1404
vt 0.8046875 0.71875
vt 0.802734375 0.71875
vt 0.802734375 0.6875
vt 0.8046875 0.6875
f 471/1405 472/1406 468/1407 467/1408
vt 0.802734375 0.5
vt 0.80078125 0.5
vt 0.80078125 0.6875
vt 0.802734375 0.6875
f 467/1409 468/1410 465/1411 466/1412
vt 0.806640625 0.5
vt 0.8046875 0.5
vt 0.8046875 0.6875
vt 0.806640625 0.6875
f 472/1413 471/1414 470/1415 469/1416
o baseModel59
v 1.41 18.41421 17.41421
v 1.75 18.23744 17.59099
v 1.75 13.9948 13.34835
v 1.41 14.17157 13.17157
v 1.41 17.70711 18.12132
v 1.75 17.88388 17.94454
v 1.75 13.64124 13.7019
v 1.41 13.46447 13.87868
vt 0.8203125 0.5
vt 0.818359375 0.5
vt 0.818359375 0.6875
vt 0.8203125 0.6875
f 479/1417 475/1418 474/1419 478/1420
vt 0.81640625 0.5
vt 0.814453125 0.5
vt 0.814453125 0.6875
vt 0.81640625 0.6875
f 476/1421 480/1422 477/1423 473/1424
vt 0.818359375 0.6875
vt 0.81640625 0.6875
vt 0.81640625 0.71875
vt 0.818359375 0.71875
f 474/1425 473/1426 477/1427 478/1428
vt 0.8203125 0.71875
vt 0.818359375 0.71875
vt 0.818359375 0.6875
vt 0.8203125 0.6875
f 479/1429 480/1430 476/1431 475/1432
vt 0.818359375 0.5
vt 0.81640625 0.5
vt 0.81640625 0.6875
vt 0.818359375 0.6875
f 475/1433 476/1434 473/1435 474/1436
vt 0.822265625 0.5
vt 0.8203125 0.5
vt 0.8203125 0.6875
vt 0.822265625 0.6875
f 480/1437 479/1438 478/1439 477/1440
o baseModel60
v 1.45 14.77261 13.63119
v 1.85 14.52513 13.87868
v 1.85 13.81802 13.17157
v 1.45 14.06551 12.92409
v 1.45 13.92409 14.47972
v 1.85 14.17157 14.23223
v 1.85 13.46447 13.52513
v 1.45 13.21698 13.77261
vt 0.3828125 0.65625
vt 0.380859375 0.65625
vt 0.380859375 0.6875
vt 0.3828125 0.6875
f 487/1441 483/1442 482/1443 486/1444
vt 0.37890625 0.65625
vt 0.376953125 0.65625
vt 0.376953125 0.6875
vt 0.37890625 0.6875
f 484/1445 488/1446 485/1447 481/1448
vt 0.380859375 0.6875
vt 0.37890625 0.6875
vt 0.37890625 0.71875
vt 0.380859375 0.71875
f 482/1449 481/1450 485/1451 486/1452
vt 0.3828125 0.71875
vt 0.380859375 0.71875
vt 0.380859375 0.6875
vt 0.3828125 0.6875
f 487/1453 488/1454 484/1455 483/1456
vt 0.380859375 0.65625
vt 0.37890625 0.65625
vt 0.37890625 0.6875
vt 0.380859375 0.6875
f 483/1457 484/1458 481/1459 482/1460
vt 0.384765625 0.65625
vt 0.3828125 0.65625
vt 0.3828125 0.6875
vt 0.384765625 0.6875
f 488/1461 487/1462 486/1463 485/1464
o baseModel61
v 1.05 14.77261 13.63119
v 1.45 14.77261 13.63119
v 1.45 14.06551 12.92409
v 1.05 14.06551 12.92409
v 1.05 13.92409 14.47972
v 1.45 13.92409 14.47972
v 1.45 13.21698 13.77261
v 1.05 13.21698 13.77261
vt 0.4296875 0.65625
vt 0.427734375 0.65625
vt 0.427734375 0.6875
vt 0.4296875 0.6875
f 495/1465 491/1466 490/1467 494/1468
vt 0.42578125 0.65625
vt 0.423828125 0.65625
vt 0.423828125 0.6875
vt 0.42578125 0.6875
f 492/1469 496/1470 493/1471 489/1472
vt 0.427734375 0.6875
vt 0.42578125 0.6875
vt 0.42578125 0.71875
vt 0.427734375 0.71875
f 490/1473 489/1474 493/1475 494/1476
vt 0.4296875 0.71875
vt 0.427734375 0.71875
vt 0.427734375 0.6875
vt 0.4296875 0.6875
f 495/1477 496/1478 492/1479 491/1480
vt 0.427734375 0.65625
vt 0.42578125 0.65625
vt 0.42578125 0.6875
vt 0.427734375 0.6875
f 491/1481 492/1482 489/1483 490/1484
vt 0.431640625 0.65625
vt 0.4296875 0.65625
vt 0.4296875 0.6875
vt 0.431640625 0.6875
f 496/1485 495/1486 494/1487 493/1488
o baseModel62
v 0.65 14.52513 13.87868
v 1.05 14.77261 13.63119
v 1.05 14.06551 12.92409
v 0.65 13.81802 13.17157
v 0.65 14.17157 14.23223
v 1.05 13.92409 14.47972
v 1.05 13.21698 13.77261
v 0.65 13.46447 13.52513
vt 0.4765625 0.65625
vt 0.474609375 0.65625
vt 0.474609375 0.6875
vt 0.4765625 0.6875
f 503/1489 499/1490 498/1491 502/1492
vt 0.47265625 0.65625
vt 0.470703125 0.65625
vt 0.470703125 0.6875
vt 0.47265625 0.6875
f 500/1493 504/1494 501/1495 497/1496
vt 0.474609375 0.6875
vt 0.47265625 0.6875
vt 0.47265625 0.71875
vt 0.474609375 0.71875
f 498/1497 497/1498 501/1499 502/1500
vt 0.4765625 0.71875
vt 0.474609375 0.71875
vt 0.474609375 0.6875
vt 0.4765625 0.6875
f 503/1501 504/1502 500/1503 499/1504
vt 0.474609375 0.65625
vt 0.47265625 0.65625
vt 0.47265625 0.6875
vt 0.474609375 0.6875
f 499/1505 500/1506 497/1507 498/1508
vt 0.478515625 0.65625
vt 0.4765625 0.65625
vt 0.4765625 0.6875
vt 0.478515625 0.6875
f 504/1509 503/1510 502/1511 501/1512
o baseModel63
v -2 16.57574 16.42426
v -0.5 16.57574 16.42426
v -0.5 16.22218 16.07071
v -2 16.22218 16.07071
v -1.6 16.22218 16.77782
v -0.9 16.22218 16.77782
v -0.9 15.86863 16.42426
v -1.6 15.86863 16.42426
vt 0.5234375 0.65625
vt 0.521484375 0.65625
vt 0.521484375 0.6875
vt 0.5234375 0.6875
f 511/1513 507/1514 506/1515 510/1516
vt 0.51953125 0.65625
vt 0.517578125 0.65625
vt 0.517578125 0.6875
vt 0.51953125 0.6875
f 508/1517 512/1518 509/1519 505/1520
vt 0.521484375 0.6875
vt 0.51953125 0.6875
vt 0.51953125 0.71875
vt 0.521484375 0.71875
f 506/1521 505/1522 509/1523 510/1524
vt 0.5234375 0.71875
vt 0.521484375 0.71875
vt 0.521484375 0.6875
vt 0.5234375 0.6875
f 511/1525 512/1526 508/1527 507/1528
vt 0.521484375 0.65625
vt 0.51953125 0.65625
vt 0.51953125 0.6875
vt 0.521484375 0.6875
f 507/1529 508/1530 505/1531 506/1532
vt 0.525390625 0.65625
vt 0.5234375 0.65625
vt 0.5234375 0.6875
vt 0.525390625 0.6875
f 512/1533 511/1534 510/1535 509/1536
o baseModel64
v 0.5 16.57574 16.42426
v 2 16.57574 16.42426
v 2 16.22218 16.07071
v 0.5 16.22218 16.07071
v 0.9 16.22218 16.77782
v 1.6 16.22218 16.77782
v 1.6 15.86863 16.42426
v 0.9 15.86863 16.42426
vt 0.5703125 0.65625
vt 0.568359375 0.65625
vt 0.568359375 0.6875
vt 0.5703125 0.6875
f 519/1537 515/1538 514/1539 518/1540
vt 0.56640625 0.65625
vt 0.564453125 0.65625
vt 0.564453125 0.6875
vt 0.56640625 0.6875
f 516/1541 520/1542 517/1543 513/1544
vt 0.568359375 0.6875
vt 0.56640625 0.6875
vt 0.56640625 0.71875
vt 0.568359375 0.71875
f 514/1545 513/1546 517/1547 518/1548
vt 0.5703125 0.71875
vt 0.568359375 0.71875
vt 0.568359375 0.6875
vt 0.5703125 0.6875
f 519/1549 520/1550 516/1551 515/1552
vt 0.568359375 0.65625
vt 0.56640625 0.65625
vt 0.56640625 0.6875
vt 0.568359375 0.6875
f 515/1553 516/1554 513/1555 514/1556
vt 0.572265625 0.65625
vt 0.5703125 0.65625
vt 0.5703125 0.6875
vt 0.572265625 0.6875
f 520/1557 519/1558 518/1559 517/1560
o baseModel65
v 0.5 18.3435 14.6565
v 2 18.3435 14.6565
v 2 17.98995 14.30294
v 0.5 17.98995 14.30294
v 0.5 16.57574 16.42426
v 2 16.57574 16.42426
v 2 16.22218 16.07071
v 0.5 16.22218 16.07071
vt 0.890625 0.59375
vt 0.884765625 0.59375
vt 0.884765625 0.625
vt 0.890625 0.625
f 527/1561 523/1562 522/1563 526/1564
vt 0.8828125 0.59375
vt 0.876953125 0.59375
vt 0.876953125 0.625
vt 0.8828125 0.625
f 524/1565 528/1566 525/1567 521/1568
vt 0.884765625 0.625
vt 0.8828125 0.625
vt 0.8828125 0.71875
vt 0.884765625 0.71875
f 522/1569 521/1570 525/1571 526/1572
vt 0.88671875 0.71875
vt 0.884765625 0.71875
vt 0.884765625 0.625
vt 0.88671875 0.625
f 527/1573 528/1574 524/1575 523/1576
vt 0.884765625 0.59375
vt 0.8828125 0.59375
vt 0.8828125 0.625
vt 0.884765625 0.625
f 523/1577 524/1578 521/1579 522/1580
vt 0.892578125 0.59375
vt 0.890625 0.59375
vt 0.890625 0.625
vt 0.892578125 0.625
f 528/1581 527/1582 526/1583 525/1584
o baseModel66
v -2 18.3435 14.6565
v -0.5 18.3435 14.6565
v -0.5 17.98995 14.30294
v -2 17.98995 14.30294
v -2 16.57574 16.42426
v -0.5 16.57574 16.42426
v -0.5 16.22218 16.07071
v -2 16.22218 16.07071
vt 0.015625 0.34375
vt 0.009765625 0.34375
vt 0.009765625 0.375
vt 0.015625 0.375
f 535/1585 531/1586 530/1587 534/1588
vt 0.0078125 0.34375
vt 0.001953125 0.34375
vt 0.001953125 0.375
vt 0.0078125 0.375
f 532/1589 536/1590 533/1591 529/1592
vt 0.009765625 0.375
vt 0.0078125 0.375
vt 0.0078125 0.46875
vt 0.009765625 0.46875
f 530/1593 529/1594 533/1595 534/1596
vt 0.01171875 0.46875
vt 0.009765625 0.46875
vt 0.009765625 0.375
vt 0.01171875 0.375
f 535/1597 536/1598 532/1599 531/1600
vt 0.009765625 0.34375
vt 0.0078125 0.34375
vt 0.0078125 0.375
vt 0.009765625 0.375
f 531/1601 532/1602 529/1603 530/1604
vt 0.017578125 0.34375
vt 0.015625 0.34375
vt 0.015625 0.375
vt 0.017578125 0.375
f 536/1605 535/1606 534/1607 533/1608
o baseModel67
v 1.95 18.6565 14.16152
v 2.35 18.40901 14.40901
v 2.35 16.9948 12.9948
v 1.95 17.24228 12.74731
v 1.95 17.80797 15.01005
v 2.35 18.05546 14.76256
v 2.35 16.64124 13.34835
v 1.95 16.39376 13.59584
vt 0.7578125 0.625
vt 0.755859375 0.625
vt 0.755859375 0.6875
vt 0.7578125 0.6875
f 543/1609 539/1610 538/1611 542/1612
vt 0.75390625 0.625
vt 0.751953125 0.625
vt 0.751953125 0.6875
vt 0.75390625 0.6875
f 540/1613 544/1614 541/1615 537/1616
vt 0.755859375 0.6875
vt 0.75390625 0.6875
vt 0.75390625 0.71875
vt 0.755859375 0.71875
f 538/1617 537/1618 541/1619 542/1620
vt 0.7578125 0.71875
vt 0.755859375 0.71875
vt 0.755859375 0.6875
vt 0.7578125 0.6875
f 543/1621 544/1622 540/1623 539/1624
vt 0.755859375 0.625
vt 0.75390625 0.625
vt 0.75390625 0.6875
vt 0.755859375 0.6875
f 539/1625 540/1626 537/1627 538/1628
vt 0.759765625 0.625
vt 0.7578125 0.625
vt 0.7578125 0.6875
vt 0.759765625 0.6875
f 544/1629 543/1630 542/1631 541/1632
o baseModel68
v 1.45 18.3435 17.20208
v 1.85 18.09602 17.44957
v 1.85 17.81317 17.16673
v 1.45 18.06066 16.91924
v 1.45 17.49497 18.05061
v 1.85 17.74246 17.80312
v 1.85 17.45962 17.52028
v 1.45 17.21213 17.76777
vt 0.8984375 0.65625
vt 0.896484375 0.65625
vt 0.896484375 0.6875
vt 0.8984375 0.6875
f 551/1633 547/1634 546/1635 550/1636
vt 0.89453125 0.65625
vt 0.892578125 0.65625
vt 0.892578125 0.6875
vt 0.89453125 0.6875
f 548/1637 552/1638 549/1639 545/1640
vt 0.896484375 0.6875
vt 0.89453125 0.6875
vt 0.89453125 0.71875
vt 0.896484375 0.71875
f 546/1641 545/1642 549/1643 550/1644
vt 0.8984375 0.71875
vt 0.896484375 0.71875
vt 0.896484375 0.6875
vt 0.8984375 0.6875
f 551/1645 552/1646 548/1647 547/1648
vt 0.896484375 0.65625
vt 0.89453125 0.65625
vt 0.89453125 0.6875
vt 0.896484375 0.6875
f 547/1649 548/1650 545/1651 546/1652
vt 0.900390625 0.65625
vt 0.8984375 0.65625
vt 0.8984375 0.6875
vt 0.900390625 0.6875
f 552/1653 551/1654 550/1655 549/1656
o baseModel69
v 1.05 18.3435 17.20208
v 1.45 18.3435 17.20208
v 1.45 18.06066 16.91924
v 1.05 18.06066 16.91924
v 1.05 17.49497 18.05061
v 1.45 17.49497 18.05061
v 1.45 17.21213 17.76777
v 1.05 17.21213 17.76777
vt 0.0234375 0.40625
vt 0.021484375 0.40625
vt 0.021484375 0.4375
vt 0.0234375 0.4375
f 559/1657 555/1658 554/1659 558/1660
vt 0.01953125 0.40625
vt 0.017578125 0.40625
vt 0.017578125 0.4375
vt 0.01953125 0.4375
f 556/1661 560/1662 557/1663 553/1664
vt 0.021484375 0.4375
vt 0.01953125 0.4375
vt 0.01953125 0.46875
vt 0.021484375 0.46875
f 554/1665 553/1666 557/1667 558/1668
vt 0.0234375 0.46875
vt 0.021484375 0.46875
vt 0.021484375 0.4375
vt 0.0234375 0.4375
f 559/1669 560/1670 556/1671 555/1672
vt 0.021484375 0.40625
vt 0.01953125 0.40625
vt 0.01953125 0.4375
vt 0.021484375 0.4375
f 555/1673 556/1674 553/1675 554/1676
vt 0.025390625 0.40625
vt 0.0234375 0.40625
vt 0.0234375 0.4375
vt 0.025390625 0.4375
f 560/1677 559/1678 558/1679 557/1680
o baseModel70
v 0.65 18.09602 17.44957
v 1.05 18.3435 17.20208
v 1.05 18.06066 16.91924
v 0.65 17.81317 17.16673
v 0.65 17.74246 17.80312
v 1.05 17.49497 18.05061
v 1.05 17.21213 17.76777
v 0.65 17.45962 17.52028
vt 0.0390625 0.40625
vt 0.037109375 0.40625
vt 0.037109375 0.4375
vt 0.0390625 0.4375
f 567/1681 563/1682 562/1683 566/1684
vt 0.03515625 0.40625
vt 0.033203125 0.40625
vt 0.033203125 0.4375
vt 0.03515625 0.4375
f 564/1685 568/1686 565/1687 561/1688
vt 0.037109375 0.4375
vt 0.03515625 0.4375
vt 0.03515625 0.46875
vt 0.037109375 0.46875
f 562/1689 561/1690 565/1691 566/1692
vt 0.0390625 0.46875
vt 0.037109375 0.46875
vt 0.037109375 0.4375
vt 0.0390625 0.4375
f 567/1693 568/1694 564/1695 563/1696
vt 0.037109375 0.40625
vt 0.03515625 0.40625
vt 0.03515625 0.4375
vt 0.037109375 0.4375
f 563/1697 564/1698 561/1699 562/1700
vt 0.041015625 0.40625
vt 0.0390625 0.40625
vt 0.0390625 0.4375
vt 0.041015625 0.4375
f 568/1701 567/1702 566/1703 565/1704
o baseModel71
v -1.85 18.09602 17.44957
v -1.45 18.3435 17.20208
v -1.45 18.06066 16.91924
v -1.85 17.81317 17.16673
v -1.85 17.74246 17.80312
v -1.45 17.49497 18.05061
v -1.45 17.21213 17.76777
v -1.85 17.45962 17.52028
vt 0.0546875 0.40625
vt 0.052734375 0.40625
vt 0.052734375 0.4375
vt 0.0546875 0.4375
f 575/1705 571/1706 570/1707 574/1708
vt 0.05078125 0.40625
vt 0.048828125 0.40625
vt 0.048828125 0.4375
vt 0.05078125 0.4375
f 572/1709 576/1710 573/1711 569/1712
vt 0.052734375 0.4375
vt 0.05078125 0.4375
vt 0.05078125 0.46875
vt 0.052734375 0.46875
f 570/1713 569/1714 573/1715 574/1716
vt 0.0546875 0.46875
vt 0.052734375 0.46875
vt 0.052734375 0.4375
vt 0.0546875 0.4375
f 575/1717 576/1718 572/1719 571/1720
vt 0.052734375 0.40625
vt 0.05078125 0.40625
vt 0.05078125 0.4375
vt 0.052734375 0.4375
f 571/1721 572/1722 569/1723 570/1724
vt 0.056640625 0.40625
vt 0.0546875 0.40625
vt 0.0546875 0.4375
vt 0.056640625 0.4375
f 576/1725 575/1726 574/1727 573/1728
o baseModel72
v -1.45 18.3435 17.20208
v -1.05 18.3435 17.20208
v -1.05 18.06066 16.91924
v -1.45 18.06066 16.91924
v -1.45 17.49497 18.05061
v -1.05 17.49497 18.05061
v -1.05 17.21213 17.76777
v -1.45 17.21213 17.76777
vt 0.0703125 0.40625
vt 0.068359375 0.40625
vt 0.068359375 0.4375
vt 0.0703125 0.4375
f 583/1729 579/1730 578/1731 582/1732
vt 0.06640625 0.40625
vt 0.064453125 0.40625
vt 0.064453125 0.4375
vt 0.06640625 0.4375
f 580/1733 584/1734 581/1735 577/1736
vt 0.068359375 0.4375
vt 0.06640625 0.4375
vt 0.06640625 0.46875
vt 0.068359375 0.46875
f 578/1737 577/1738 581/1739 582/1740
vt 0.0703125 0.46875
vt 0.068359375 0.46875
vt 0.068359375 0.4375
vt 0.0703125 0.4375
f 583/1741 584/1742 580/1743 579/1744
vt 0.068359375 0.40625
vt 0.06640625 0.40625
vt 0.06640625 0.4375
vt 0.068359375 0.4375
f 579/1745 580/1746 577/1747 578/1748
vt 0.072265625 0.40625
vt 0.0703125 0.40625
vt 0.0703125 0.4375
vt 0.072265625 0.4375
f 584/1749 583/1750 582/1751 581/1752
o baseModel73
v -1.05 18.3435 17.20208
v -0.65 18.09602 17.44957
v -0.65 17.81317 17.16673
v -1.05 18.06066 16.91924
v -1.05 17.49497 18.05061
v -0.65 17.74246 17.80312
v -0.65 17.45962 17.52028
v -1.05 17.21213 17.76777
vt 0.0859375 0.40625
vt 0.083984375 0.40625
vt 0.083984375 0.4375
vt 0.0859375 0.4375
f 591/1753 587/1754 586/1755 590/1756
vt 0.08203125 0.40625
vt 0.080078125 0.40625
vt 0.080078125 0.4375
vt 0.08203125 0.4375
f 588/1757 592/1758 589/1759 585/1760
vt 0.083984375 0.4375
vt 0.08203125 0.4375
vt 0.08203125 0.46875
vt 0.083984375 0.46875
f 586/1761 585/1762 589/1763 590/1764
vt 0.0859375 0.46875
vt 0.083984375 0.46875
vt 0.083984375 0.4375
vt 0.0859375 0.4375
f 591/1765 592/1766 588/1767 587/1768
vt 0.083984375 0.40625
vt 0.08203125 0.40625
vt 0.08203125 0.4375
vt 0.083984375 0.4375
f 587/1769 588/1770 585/1771 586/1772
vt 0.087890625 0.40625
vt 0.0859375 0.40625
vt 0.0859375 0.4375
vt 0.087890625 0.4375
f 592/1773 591/1774 590/1775 589/1776
o baseModel74
v -2.5 17.77782 18.20208
v 2.5 17.77782 18.20208
v 2.5 17.07071 17.49497
v -2.5 17.07071 17.49497
v -2.5 17.56569 18.41421
v 2.5 17.56569 18.41421
v 2.5 16.85858 17.70711
v -2.5 16.85858 17.70711
vt 0.109375 0.40625
vt 0.107421875 0.40625
vt 0.107421875 0.4375
vt 0.109375 0.4375
f 599/1777 595/1778 594/1779 598/1780
vt 0.09765625 0.40625
vt 0.095703125 0.40625
vt 0.095703125 0.4375
vt 0.09765625 0.4375
f 596/1781 600/1782 597/1783 593/1784
vt 0.107421875 0.4375
vt 0.09765625 0.4375
vt 0.09765625 0.46875
vt 0.107421875 0.46875
f 594/1785 593/1786 597/1787 598/1788
vt 0.1171875 0.46875
vt 0.107421875 0.46875
vt 0.107421875 0.4375
vt 0.1171875 0.4375
f 599/1789 600/1790 596/1791 595/1792
vt 0.107421875 0.40625
vt 0.09765625 0.40625
vt 0.09765625 0.4375
vt 0.107421875 0.4375
f 595/1793 596/1794 593/1795 594/1796
vt 0.119140625 0.40625
vt 0.109375 0.40625
vt 0.109375 0.4375
vt 0.119140625 0.4375
f 600/1797 599/1798 598/1799 597/1800
o baseModel75
v -2.5 17.56569 18.41421
v -2 17.56569 18.41421
v -2 16.85858 17.70711
v -2.5 16.85858 17.70711
v -2.5 17.14142 18.83848
v -2 17.14142 18.83848
v -2 16.43431 18.13137
v -2.5 16.43431 18.13137
vt 0.1328125 0.40625
vt 0.130859375 0.40625
vt 0.130859375 0.4375
vt 0.1328125 0.4375
f 607/1801 603/1802 602/1803 606/1804
vt 0.12890625 0.40625
vt 0.126953125 0.40625
vt 0.126953125 0.4375
vt 0.12890625 0.4375
f 604/1805 608/1806 605/1807 601/1808
vt 0.130859375 0.4375
vt 0.12890625 0.4375
vt 0.12890625 0.46875
vt 0.130859375 0.46875
f 602/1809 601/1810 605/1811 606/1812
vt 0.1328125 0.46875
vt 0.130859375 0.46875
vt 0.130859375 0.4375
vt 0.1328125 0.4375
f 607/1813 608/1814 604/1815 603/1816
vt 0.130859375 0.40625
vt 0.12890625 0.40625
vt 0.12890625 0.4375
vt 0.130859375 0.4375
f 603/1817 604/1818 601/1819 602/1820
vt 0.134765625 0.40625
vt 0.1328125 0.40625
vt 0.1328125 0.4375
vt 0.134765625 0.4375
f 608/1821 607/1822 606/1823 605/1824
o baseModel76
v 2 17.56569 18.41421
v 2.5 17.56569 18.41421
v 2.5 16.85858 17.70711
v 2 16.85858 17.70711
v 2 17.14142 18.83848
v 2.5 17.14142 18.83848
v 2.5 16.43431 18.13137
v 2 16.43431 18.13137
vt 0.1484375 0.40625
vt 0.146484375 0.40625
vt 0.146484375 0.4375
vt 0.1484375 0.4375
f 615/1825 611/1826 610/1827 614/1828
vt 0.14453125 0.40625
vt 0.142578125 0.40625
vt 0.142578125 0.4375
vt 0.14453125 0.4375
f 612/1829 616/1830 613/1831 609/1832
vt 0.146484375 0.4375
vt 0.14453125 0.4375
vt 0.14453125 0.46875
vt 0.146484375 0.46875
f 610/1833 609/1834 613/1835 614/1836
vt 0.1484375 0.46875
vt 0.146484375 0.46875
vt 0.146484375 0.4375
vt 0.1484375 0.4375
f 615/1837 616/1838 612/1839 611/1840
vt 0.146484375 0.40625
vt 0.14453125 0.40625
vt 0.14453125 0.4375
vt 0.146484375 0.4375
f 611/1841 612/1842 609/1843 610/1844
vt 0.150390625 0.40625
vt 0.1484375 0.40625
vt 0.1484375 0.4375
vt 0.150390625 0.4375
f 616/1845 615/1846 614/1847 613/1848
o baseModel77
v -0.75 17.56569 18.41421
v 0.75 17.56569 18.41421
v 0.75 16.85858 17.70711
v -0.75 16.85858 17.70711
v -0.75 17.14142 18.83848
v 0.75 17.14142 18.83848
v 0.75 16.43431 18.13137
v -0.75 16.43431 18.13137
vt 0.166015625 0.40625
vt 0.1640625 0.40625
vt 0.1640625 0.4375
vt 0.166015625 0.4375
f 623/1849 619/1850 618/1851 622/1852
vt 0.16015625 0.40625
vt 0.158203125 0.40625
vt 0.158203125 0.4375
vt 0.16015625 0.4375
f 620/1853 624/1854 621/1855 617/1856
vt 0.1640625 0.4375
vt 0.16015625 0.4375
vt 0.16015625 0.46875
vt 0.1640625 0.46875
f 618/1857 617/1858 621/1859 622/1860
vt 0.16796875 0.46875
vt 0.1640625 0.46875
vt 0.1640625 0.4375
vt 0.16796875 0.4375
f 623/1861 624/1862 620/1863 619/1864
vt 0.1640625 0.40625
vt 0.16015625 0.40625
vt 0.16015625 0.4375
vt 0.1640625 0.4375
f 619/1865 620/1866 617/1867 618/1868
vt 0.169921875 0.40625
vt 0.166015625 0.40625
vt 0.166015625 0.4375
vt 0.169921875 0.4375
f 624/1869 623/1870 622/1871 621/1872
o baseModel78
v -0.75 17.98995 17.42426
v 0.75 17.98995 17.42426
v 0.75 17.70711 17.14142
v -0.75 17.70711 17.14142
v -0.95 17.49497 17.91924
v 0.95 17.49497 17.91924
v 0.95 17.21213 17.6364
v -0.95 17.21213 17.6364
vt 0.181640625 0.40625
vt 0.1796875 0.40625
vt 0.1796875 0.4375
vt 0.181640625 0.4375
f 631/1873 627/1874 626/1875 630/1876
vt 0.17578125 0.40625
vt 0.173828125 0.40625
vt 0.173828125 0.4375
vt 0.17578125 0.4375
f 628/1877 632/1878 629/1879 625/1880
vt 0.1796875 0.4375
vt 0.17578125 0.4375
vt 0.17578125 0.46875
vt 0.1796875 0.46875
f 626/1881 625/1882 629/1883 630/1884
vt 0.18359375 0.46875
vt 0.1796875 0.46875
vt 0.1796875 0.4375
vt 0.18359375 0.4375
f 631/1885 632/1886 628/1887 627/1888
vt 0.1796875 0.40625
vt 0.17578125 0.40625
vt 0.17578125 0.4375
vt 0.1796875 0.4375
f 627/1889 628/1890 625/1891 626/1892
vt 0.185546875 0.40625
vt 0.181640625 0.40625
vt 0.181640625 0.4375
vt 0.185546875 0.4375
f 632/1893 631/1894 630/1895 629/1896
o baseModel79
v -2 17.18431 18.53284
v 2 17.18431 18.53284
v 2 16.76005 18.10858
v -2 16.76005 18.10858
v -2 16.93683 18.5682
v 2 16.93683 18.5682
v 2 16.7247 18.35607
v -2 16.7247 18.35607
vt 0.201171875 0.40625
vt 0.19921875 0.40625
vt 0.19921875 0.4375
vt 0.201171875 0.4375
f 639/1897 635/1898 634/1899 638/1900
vt 0.19140625 0.40625
vt 0.189453125 0.40625
vt 0.189453125 0.4375
vt 0.19140625 0.4375
f 636/1901 640/1902 637/1903 633/1904
vt 0.19921875 0.4375
vt 0.19140625 0.4375
vt 0.19140625 0.46875
vt 0.19921875 0.46875
f 634/1905 633/1906 637/1907 638/1908
vt 0.20703125 0.46875
vt 0.19921875 0.46875
vt 0.19921875 0.4375
vt 0.20703125 0.4375
f 639/1909 640/1910 636/1911 635/1912
vt 0.19921875 0.40625
vt 0.19140625 0.40625
vt 0.19140625 0.4375
vt 0.19921875 0.4375
f 635/1913 636/1914 633/1915 634/1916
vt 0.208984375 0.40625
vt 0.201171875 0.40625
vt 0.201171875 0.4375
vt 0.208984375 0.4375
f 640/1917 639/1918 638/1919 637/1920
o baseModel80
v -2 17.36109 18.14393
v 2 17.36109 18.14393
v 2 17.14896 17.9318
v -2 17.14896 17.9318
v -2 17.32574 18.39142
v 2 17.32574 18.39142
v 2 16.90147 17.96716
v -2 16.90147 17.96716
vt 0.232421875 0.40625
vt 0.23046875 0.40625
vt 0.23046875 0.4375
vt 0.232421875 0.4375
f 647/1921 643/1922 642/1923 646/1924
vt 0.22265625 0.40625
vt 0.220703125 0.40625
vt 0.220703125 0.4375
vt 0.22265625 0.4375
f 644/1925 648/1926 645/1927 641/1928
vt 0.23046875 0.4375
vt 0.22265625 0.4375
vt 0.22265625 0.46875
vt 0.23046875 0.46875
f 642/1929 641/1930 645/1931 646/1932
vt 0.23828125 0.46875
vt 0.23046875 0.46875
vt 0.23046875 0.4375
vt 0.23828125 0.4375
f 647/1933 648/1934 644/1935 643/1936
vt 0.23046875 0.40625
vt 0.22265625 0.40625
vt 0.22265625 0.4375
vt 0.23046875 0.4375
f 643/1937 644/1938 641/1939 642/1940
vt 0.240234375 0.40625
vt 0.232421875 0.40625
vt 0.232421875 0.4375
vt 0.240234375 0.4375
f 648/1941 647/1942 646/1943 645/1944
o baseModel81
v -2 17.32574 18.39142
v 2 17.32574 18.39142
v 2 16.90147 17.96716
v -2 16.90147 17.96716
v -2 17.18431 18.53284
v 2 17.18431 18.53284
v 2 16.76005 18.10858
v -2 16.76005 18.10858
vt 0.263671875 0.40625
vt 0.26171875 0.40625
vt 0.26171875 0.4375
vt 0.263671875 0.4375
f 655/1945 651/1946 650/1947 654/1948
vt 0.25390625 0.40625
vt 0.251953125 0.40625
vt 0.251953125 0.4375
vt 0.25390625 0.4375
f 652/1949 656/1950 653/1951 649/1952
vt 0.26171875 0.4375
vt 0.25390625 0.4375
vt 0.25390625 0.46875
vt 0.26171875 0.46875
f 650/1953 649/1954 653/1955 654/1956
vt 0.26953125 0.46875
vt 0.26171875 0.46875
vt 0.26171875 0.4375
vt 0.26953125 0.4375
f 655/1957 656/1958 652/1959 651/1960
vt 0.26171875 0.40625
vt 0.25390625 0.40625
vt 0.25390625 0.4375
vt 0.26171875 0.4375
f 651/1961 652/1962 649/1963 650/1964
vt 0.271484375 0.40625
vt 0.263671875 0.40625
vt 0.263671875 0.4375
vt 0.271484375 0.4375
f 656/1965 655/1966 654/1967 653/1968
o baseModel82
v -0.3931506 17.25459 18.75
v -0.3931502 17.25459 15.75
v -0.9569657 17.4598 15.75
v -0.9569662 17.4598 18.75
v -0.6025085 17.11795 18.75
v -0.6025081 17.11795 15.75
v -0.8844159 17.22056 15.75
v -0.8844163 17.22056 18.75
vt 0.29296875 0.40625
vt 0.291015625 0.40625
vt 0.291015625 0.4375
vt 0.29296875 0.4375
f 663/1969 659/1970 658/1971 662/1972
vt 0.28515625 0.40625
vt 0.283203125 0.40625
vt 0.283203125 0.4375
vt 0.28515625 0.4375
f 660/1973 664/1974 661/1975 657/1976
vt 0.291015625 0.4375
vt 0.28515625 0.4375
vt 0.28515625 0.46875
vt 0.291015625 0.46875
f 658/1977 657/1978 661/1979 662/1980
vt 0.296875 0.46875
vt 0.291015625 0.46875
vt 0.291015625 0.4375
vt 0.296875 0.4375
f 663/1981 664/1982 660/1983 659/1984
vt 0.291015625 0.40625
vt 0.28515625 0.40625
vt 0.28515625 0.4375
vt 0.291015625 0.4375
f 659/1985 660/1986 657/1987 658/1988
vt 0.298828125 0.40625
vt 0.29296875 0.40625
vt 0.29296875 0.4375
vt 0.298828125 0.4375
f 664/1989 663/1990 662/1991 661/1992
o baseModel83
v -0.3247466 17.44253 18.75
v -0.3247461 17.44253 15.75
v -0.8885617 17.64774 15.75
v -0.8885621 17.64774 18.75
v -0.3931506 17.25459 18.75
v -0.3931502 17.25459 15.75
v -0.9569657 17.4598 15.75
v -0.9569662 17.4598 18.75
vt 0.32421875 0.40625
vt 0.322265625 0.40625
vt 0.322265625 0.4375
vt 0.32421875 0.4375
f 671/1993 667/1994 666/1995 670/1996
vt 0.31640625 0.40625
vt 0.314453125 0.40625
vt 0.314453125 0.4375
vt 0.31640625 0.4375
f 668/1997 672/1998 669/1999 665/2000
vt 0.322265625 0.4375
vt 0.31640625 0.4375
vt 0.31640625 0.46875
vt 0.322265625 0.46875
f 666/2001 665/2002 669/2003 670/2004
vt 0.328125 0.46875
vt 0.322265625 0.46875
vt 0.322265625 0.4375
vt 0.328125 0.4375
f 671/2005 672/2006 668/2007 667/2008
vt 0.322265625 0.40625
vt 0.31640625 0.40625
vt 0.31640625 0.4375
vt 0.322265625 0.4375
f 667/2009 668/2010 665/2011 666/2012
vt 0.330078125 0.40625
vt 0.32421875 0.40625
vt 0.32421875 0.4375
vt 0.330078125 0.4375
f 672/2013 671/2014 670/2015 669/2016
o baseModel84
v -0.3972964 17.68177 18.75
v -0.397296 17.68177 15.75
v -0.6792038 17.78437 15.75
v -0.6792042 17.78437 18.75
v -0.3247466 17.44253 18.75
v -0.3247461 17.44253 15.75
v -0.8885617 17.64774 15.75
v -0.8885621 17.64774 18.75
vt 0.35546875 0.40625
vt 0.353515625 0.40625
vt 0.353515625 0.4375
vt 0.35546875 0.4375
f 679/2017 675/2018 674/2019 678/2020
vt 0.34765625 0.40625
vt 0.345703125 0.40625
vt 0.345703125 0.4375
vt 0.34765625 0.4375
f 676/2021 680/2022 677/2023 673/2024
vt 0.353515625 0.4375
vt 0.34765625 0.4375
vt 0.34765625 0.46875
vt 0.353515625 0.46875
f 674/2025 673/2026 677/2027 678/2028
vt 0.359375 0.46875
vt 0.353515625 0.46875
vt 0.353515625 0.4375
vt 0.359375 0.4375
f 679/2029 680/2030 676/2031 675/2032
vt 0.353515625 0.40625
vt 0.34765625 0.40625
vt 0.34765625 0.4375
vt 0.353515625 0.4375
f 675/2033 676/2034 673/2035 674/2036
vt 0.361328125 0.40625
vt 0.35546875 0.40625
vt 0.35546875 0.4375
vt 0.361328125 0.4375
f 680/2037 679/2038 678/2039 677/2040
o baseModel85
v -1.5 14.47099 18.77342
v -0.5 14.09063 17.95774
v -0.5 11.37171 19.22559
v -1.5 11.75206 20.04127
v -1.5 14.97813 19.86098
v -0.5 15.35849 20.67666
v -0.5 12.63956 21.94452
v -1.5 12.25921 21.12884
vt 0.37890625 0.28125
vt 0.373046875 0.28125
vt 0.373046875 0.375
vt 0.37890625 0.375
f 687/2041 683/2042 682/2043 686/2044
vt 0.3671875 0.28125
vt 0.361328125 0.28125
vt 0.361328125 0.375
vt 0.3671875 0.375
f 684/2045 688/2046 685/2047 681/2048
vt 0.373046875 0.375
vt 0.3671875 0.375
vt 0.3671875 0.46875
vt 0.373046875 0.46875
f 682/2049 681/2050 685/2051 686/2052
vt 0.37890625 0.46875
vt 0.373046875 0.46875
vt 0.373046875 0.375
vt 0.37890625 0.375
f 687/2053 688/2054 684/2055 683/2056
vt 0.373046875 0.28125
vt 0.3671875 0.28125
vt 0.3671875 0.375
vt 0.373046875 0.375
f 683/2057 684/2058 681/2059 682/2060
vt 0.384765625 0.28125
vt 0.37890625 0.28125
vt 0.37890625 0.375
vt 0.384765625 0.375
f 688/2061 687/2062 686/2063 685/2064
o baseModel86
v -0.5 14.09063 17.95774
v 0.5 14.09063 17.95774
v 0.5 11.37171 19.22559
v -0.5 11.37171 19.22559
v -0.5 15.35849 20.67666
v 0.5 15.35849 20.67666
v 0.5 12.63956 21.94452
v -0.5 12.63956 21.94452
vt 0.41015625 0.28125
vt 0.404296875 0.28125
vt 0.404296875 0.375
vt 0.41015625 0.375
f 695/2065 691/2066 690/2067 694/2068
vt 0.3984375 0.28125
vt 0.392578125 0.28125
vt 0.392578125 0.375
vt 0.3984375 0.375
f 692/2069 696/2070 693/2071 689/2072
vt 0.404296875 0.375
vt 0.3984375 0.375
vt 0.3984375 0.46875
vt 0.404296875 0.46875
f 690/2073 689/2074 693/2075 694/2076
vt 0.41015625 0.46875
vt 0.404296875 0.46875
vt 0.404296875 0.375
vt 0.41015625 0.375
f 695/2077 696/2078 692/2079 691/2080
vt 0.404296875 0.28125
vt 0.3984375 0.28125
vt 0.3984375 0.375
vt 0.404296875 0.375
f 691/2081 692/2082 689/2083 690/2084
vt 0.416015625 0.28125
vt 0.41015625 0.28125
vt 0.41015625 0.375
vt 0.416015625 0.375
f 696/2085 695/2086 694/2087 693/2088
o baseModel87
v -0.16 12 20
v 0.16 12 20
v 0.16 6.562153 22.53571
v -0.16 6.562153 22.53571
v -0.16 12.42262 20.90631
v 0.16 12.42262 20.90631
v 0.16 6.984771 23.44202
v -0.16 6.984771 23.44202
vt 0.4296875 0.25
vt 0.427734375 0.25
vt 0.427734375 0.4375
vt 0.4296875 0.4375
f 703/2089 699/2090 698/2091 702/2092
vt 0.42578125 0.25
vt 0.423828125 0.25
vt 0.423828125 0.4375
vt 0.42578125 0.4375
f 700/2093 704/2094 701/2095 697/2096
vt 0.427734375 0.4375
vt 0.42578125 0.4375
vt 0.42578125 0.46875
vt 0.427734375 0.46875
f 698/2097 697/2098 701/2099 702/2100
vt 0.4296875 0.46875
vt 0.427734375 0.46875
vt 0.427734375 0.4375
vt 0.4296875 0.4375
f 703/2101 704/2102 700/2103 699/2104
vt 0.427734375 0.25
vt 0.42578125 0.25
vt 0.42578125 0.4375
vt 0.427734375 0.4375
f 699/2105 700/2106 697/2107 698/2108
vt 0.431640625 0.25
vt 0.4296875 0.25
vt 0.4296875 0.4375
vt 0.431640625 0.4375
f 704/2109 703/2110 702/2111 701/2112
o baseModel88
v 0.16 12 20
v 0.5 12.10565 20.22658
v 0.5 6.667808 22.76229
v 0.16 6.562153 22.53571
v 0.16 12.42262 20.90631
v 0.5 12.31696 20.67973
v 0.5 6.879117 23.21544
v 0.16 6.984771 23.44202
vt 0.4453125 0.25
vt 0.443359375 0.25
vt 0.443359375 0.4375
vt 0.4453125 0.4375
f 711/2113 707/2114 706/2115 710/2116
vt 0.44140625 0.25
vt 0.439453125 0.25
vt 0.439453125 0.4375
vt 0.44140625 0.4375
f 708/2117 712/2118 709/2119 705/2120
vt 0.443359375 0.4375
vt 0.44140625 0.4375
vt 0.44140625 0.46875
vt 0.443359375 0.46875
f 706/2121 705/2122 709/2123 710/2124
vt 0.4453125 0.46875
vt 0.443359375 0.46875
vt 0.443359375 0.4375
vt 0.4453125 0.4375
f 711/2125 712/2126 708/2127 707/2128
vt 0.443359375 0.25
vt 0.44140625 0.25
vt 0.44140625 0.4375
vt 0.443359375 0.4375
f 707/2129 708/2130 705/2131 706/2132
vt 0.447265625 0.25
vt 0.4453125 0.25
vt 0.4453125 0.4375
vt 0.447265625 0.4375
f 712/2133 711/2134 710/2135 709/2136
o baseModel89
v -0.5 12.10565 20.22658
v -0.16 12 20
v -0.16 6.562153 22.53571
v -0.5 6.667808 22.76229
v -0.5 12.31696 20.67973
v -0.16 12.42262 20.90631
v -0.16 6.984771 23.44202
v -0.5 6.879117 23.21544
vt 0.4609375 0.25
vt 0.458984375 0.25
vt 0.458984375 0.4375
vt 0.4609375 0.4375
f 719/2137 715/2138 714/2139 718/2140
vt 0.45703125 0.25
vt 0.455078125 0.25
vt 0.455078125 0.4375
vt 0.45703125 0.4375
f 716/2141 720/2142 717/2143 713/2144
vt 0.458984375 0.4375
vt 0.45703125 0.4375
vt 0.45703125 0.46875
vt 0.458984375 0.46875
f 714/2145 713/2146 717/2147 718/2148
vt 0.4609375 0.46875
vt 0.458984375 0.46875
vt 0.458984375 0.4375
vt 0.4609375 0.4375
f 719/2149 720/2150 716/2151 715/2152
vt 0.458984375 0.25
vt 0.45703125 0.25
vt 0.45703125 0.4375
vt 0.458984375 0.4375
f 715/2153 716/2154 713/2155 714/2156
vt 0.462890625 0.25
vt 0.4609375 0.25
vt 0.4609375 0.4375
vt 0.462890625 0.4375
f 720/2157 719/2158 718/2159 717/2160
o baseModel90
v -0.9262884 12.11253 19.6639
v -0.5729917 12.06436 19.82315
v -4.790077 0.1308188 25.56918
v -5.143374 0.1789868 25.40992
v -0.5769049 12.41592 20.5504
v -0.3982999 12.21605 20.2664
v -4.615385 0.2825125 26.01243
v -4.79399 0.4823742 26.29643
vt 0.4765625 0
vt 0.474609375 0
vt 0.474609375 0.4375
vt 0.4765625 0.4375
f 727/2161 723/2162 722/2163 726/2164
vt 0.47265625 0
vt 0.470703125 0
vt 0.470703125 0.4375
vt 0.47265625 0.4375
f 724/2165 728/2166 725/2167 721/2168
vt 0.474609375 0.4375
vt 0.47265625 0.4375
vt 0.47265625 0.46875
vt 0.474609375 0.46875
f 722/2169 721/2170 725/2171 726/2172
vt 0.4765625 0.46875
vt 0.474609375 0.46875
vt 0.474609375 0.4375
vt 0.4765625 0.4375
f 727/2173 728/2174 724/2175 723/2176
vt 0.474609375 0
vt 0.47265625 0
vt 0.47265625 0.4375
vt 0.474609375 0.4375
f 723/2177 724/2178 721/2179 722/2180
vt 0.478515625 0
vt 0.4765625 0
vt 0.4765625 0.4375
vt 0.478515625 0.4375
f 728/2181 727/2182 726/2183 725/2184
o baseModel91
v -1.370844 12.4364 20.01027
v -1.192239 12.23654 19.72627
v -5.409324 0.3030017 25.4723
v -5.587929 0.5028635 25.7563
v -1.196152 12.5881 20.45352
v -0.8428557 12.53993 20.61278
v -5.059941 0.6063891 26.3588
v -5.413238 0.6545572 26.19955
vt 0.4921875 0
vt 0.490234375 0
vt 0.490234375 0.4375
vt 0.4921875 0.4375
f 735/2185 731/2186 730/2187 734/2188
vt 0.48828125 0
vt 0.486328125 0
vt 0.486328125 0.4375
vt 0.48828125 0.4375
f 732/2189 736/2190 733/2191 729/2192
vt 0.490234375 0.4375
vt 0.48828125 0.4375
vt 0.48828125 0.46875
vt 0.490234375 0.46875
f 730/2193 729/2194 733/2195 734/2196
vt 0.4921875 0.46875
vt 0.490234375 0.46875
vt 0.490234375 0.4375
vt 0.4921875 0.4375
f 735/2197 736/2198 732/2199 731/2200
vt 0.490234375 0
vt 0.48828125 0
vt 0.48828125 0.4375
vt 0.490234375 0.4375
f 731/2201 732/2202 729/2203 730/2204
vt 0.494140625 0
vt 0.4921875 0
vt 0.4921875 0.4375
vt 0.494140625 0.4375
f 736/2205 735/2206 734/2207 733/2208
o baseModel92
v -1.192239 12.23654 19.72627
v -0.9262884 12.11253 19.6639
v -5.143374 0.1789868 25.40992
v -5.409324 0.3030017 25.4723
v -0.8428557 12.53993 20.61278
v -0.5769049 12.41592 20.5504
v -4.79399 0.4823742 26.29643
v -5.059941 0.6063891 26.3588
vt 0.5078125 0
vt 0.505859375 0
vt 0.505859375 0.4375
vt 0.5078125 0.4375
f 743/2209 739/2210 738/2211 742/2212
vt 0.50390625 0
vt 0.501953125 0
vt 0.501953125 0.4375
vt 0.50390625 0.4375
f 740/2213 744/2214 741/2215 737/2216
vt 0.505859375 0.4375
vt 0.50390625 0.4375
vt 0.50390625 0.46875
vt 0.505859375 0.46875
f 738/2217 737/2218 741/2219 742/2220
vt 0.5078125 0.46875
vt 0.505859375 0.46875
vt 0.505859375 0.4375
vt 0.5078125 0.4375
f 743/2221 744/2222 740/2223 739/2224
vt 0.505859375 0
vt 0.50390625 0
vt 0.50390625 0.4375
vt 0.505859375 0.4375
f 739/2225 740/2226 737/2227 738/2228
vt 0.509765625 0
vt 0.5078125 0
vt 0.5078125 0.4375
vt 0.509765625 0.4375
f 744/2229 743/2230 742/2231 741/2232
o baseModel93
v 0.4721486 12.05359 20.25269
v 0.8254453 12.10176 20.09344
v 5.042531 0.1682167 25.83946
v 4.689234 0.1200486 25.99871
v 0.2974568 12.20528 20.69594
v 0.4760618 12.40515 20.97994
v 4.693147 0.4716041 26.72597
v 4.514542 0.2717423 26.44197
vt 0.5234375 0
vt 0.521484375 0
vt 0.521484375 0.4375
vt 0.5234375 0.4375
f 751/2233 747/2234 746/2235 750/2236
vt 0.51953125 0
vt 0.517578125 0
vt 0.517578125 0.4375
vt 0.51953125 0.4375
f 748/2237 752/2238 749/2239 745/2240
vt 0.521484375 0.4375
vt 0.51953125 0.4375
vt 0.51953125 0.46875
vt 0.521484375 0.46875
f 746/2241 745/2242 749/2243 750/2244
vt 0.5234375 0.46875
vt 0.521484375 0.46875
vt 0.521484375 0.4375
vt 0.5234375 0.4375
f 751/2245 752/2246 748/2247 747/2248
vt 0.521484375 0
vt 0.51953125 0
vt 0.51953125 0.4375
vt 0.521484375 0.4375
f 747/2249 748/2250 745/2251 746/2252
vt 0.525390625 0
vt 0.5234375 0
vt 0.5234375 0.4375
vt 0.525390625 0.4375
f 752/2253 751/2254 750/2255 749/2256
o baseModel94
v 0.8254453 12.10176 20.09344
v 1.091396 12.22577 20.15581
v 5.308481 0.2922316 25.90184
v 5.042531 0.1682167 25.83946
v 0.4760618 12.40515 20.97994
v 0.7420126 12.52916 21.04231
v 4.959098 0.595619 26.78834
v 4.693147 0.4716041 26.72597
vt 0.5390625 0
vt 0.537109375 0
vt 0.537109375 0.4375
vt 0.5390625 0.4375
f 759/2257 755/2258 754/2259 758/2260
vt 0.53515625 0
vt 0.533203125 0
vt 0.533203125 0.4375
vt 0.53515625 0.4375
f 756/2261 760/2262 757/2263 753/2264
vt 0.537109375 0.4375
vt 0.53515625 0.4375
vt 0.53515625 0.46875
vt 0.537109375 0.46875
f 754/2265 753/2266 757/2267 758/2268
vt 0.5390625 0.46875
vt 0.537109375 0.46875
vt 0.537109375 0.4375
vt 0.5390625 0.4375
f 759/2269 760/2270 756/2271 755/2272
vt 0.537109375 0
vt 0.53515625 0
vt 0.53515625 0.4375
vt 0.537109375 0.4375
f 755/2273 756/2274 753/2275 754/2276
vt 0.541015625 0
vt 0.5390625 0
vt 0.5390625 0.4375
vt 0.541015625 0.4375
f 760/2277 759/2278 758/2279 757/2280
o baseModel95
v 1.091396 12.22577 20.15581
v 1.270001 12.42563 20.43981
v 5.487086 0.4920934 26.18584
v 5.308481 0.2922316 25.90184
v 0.7420126 12.52916 21.04231
v 1.095309 12.57733 20.88306
v 5.312395 0.6437871 26.62909
v 4.959098 0.595619 26.78834
vt 0.5546875 0
vt 0.552734375 0
vt 0.552734375 0.4375
vt 0.5546875 0.4375
f 767/2281 763/2282 762/2283 766/2284
vt 0.55078125 0
vt 0.548828125 0
vt 0.548828125 0.4375
vt 0.55078125 0.4375
f 764/2285 768/2286 765/2287 761/2288
vt 0.552734375 0.4375
vt 0.55078125 0.4375
vt 0.55078125 0.46875
vt 0.552734375 0.46875
f 762/2289 761/2290 765/2291 766/2292
vt 0.5546875 0.46875
vt 0.552734375 0.46875
vt 0.552734375 0.4375
vt 0.5546875 0.4375
f 767/2293 768/2294 764/2295 763/2296
vt 0.552734375 0
vt 0.55078125 0
vt 0.55078125 0.4375
vt 0.552734375 0.4375
f 763/2297 764/2298 761/2299 762/2300
vt 0.556640625 0
vt 0.5546875 0
vt 0.5546875 0.4375
vt 0.556640625 0.4375
f 768/2301 767/2302 766/2303 765/2304
o baseModel96
v -3.078661 9.270872 21.99545
v 0.8915239 9.270872 21.50797
v 0.7793426 8.880141 20.59433
v -3.190842 8.880141 21.0818
v -3.064375 8.99472 22.11179
v 0.9058093 8.99472 21.62431
v 0.793628 8.603989 20.71067
v -3.176557 8.603989 21.19815
vt 0.576171875 0.40625
vt 0.57421875 0.40625
vt 0.57421875 0.4375
vt 0.576171875 0.4375
f 775/2305 771/2306 770/2307 774/2308
vt 0.56640625 0.40625
vt 0.564453125 0.40625
vt 0.564453125 0.4375
vt 0.56640625 0.4375
f 772/2309 776/2310 773/2311 769/2312
vt 0.57421875 0.4375
vt 0.56640625 0.4375
vt 0.56640625 0.46875
vt 0.57421875 0.46875
f 770/2313 769/2314 773/2315 774/2316
vt 0.58203125 0.46875
vt 0.57421875 0.46875
vt 0.57421875 0.4375
vt 0.58203125 0.4375
f 775/2317 776/2318 772/2319 771/2320
vt 0.57421875 0.40625
vt 0.56640625 0.40625
vt 0.56640625 0.4375
vt 0.57421875 0.4375
f 771/2321 772/2322 769/2323 770/2324
vt 0.583984375 0.40625
vt 0.576171875 0.40625
vt 0.576171875 0.4375
vt 0.583984375 0.4375
f 776/2325 775/2326 774/2327 773/2328
o baseModel97
v -5.892048 0.8615223 25.1894
v -4.562293 0.2414478 24.87753
v -4.865681 -0.6170803 25.29091
v -6.195435 0.002994205 25.60278
v -5.367972 1.316603 26.51915
v -4.038218 0.6965289 26.20728
v -4.341606 -0.1619992 26.62067
v -5.67136 0.4580753 26.93253
vt 0.6015625 0.40625
vt 0.599609375 0.40625
vt 0.599609375 0.4375
vt 0.6015625 0.4375
f 783/2329 779/2330 778/2331 782/2332
vt 0.59765625 0.40625
vt 0.595703125 0.40625
vt 0.595703125 0.4375
vt 0.59765625 0.4375
f 780/2333 784/2334 781/2335 777/2336
vt 0.599609375 0.4375
vt 0.59765625 0.4375
vt 0.59765625 0.46875
vt 0.599609375 0.46875
f 778/2337 777/2338 781/2339 782/2340
vt 0.6015625 0.46875
vt 0.599609375 0.46875
vt 0.599609375 0.4375
vt 0.6015625 0.4375
f 783/2341 784/2342 780/2343 779/2344
vt 0.599609375 0.40625
vt 0.59765625 0.40625
vt 0.59765625 0.4375
vt 0.599609375 0.4375
f 779/2345 780/2346 777/2347 778/2348
vt 0.603515625 0.40625
vt 0.6015625 0.40625
vt 0.6015625 0.4375
vt 0.603515625 0.4375
f 784/2349 783/2350 782/2351 781/2352
o baseModel98
v 4.46145 0.2306777 25.30707
v 5.791205 0.8507522 25.61893
v 6.094592 -0.007775911 26.03232
v 4.764838 -0.6278505 25.72045
v 3.937375 0.6857588 26.63682
v 5.267129 1.305833 26.94869
v 5.570517 0.4473052 27.36207
v 4.240762 -0.1727693 27.0502
vt 0.6171875 0.40625
vt 0.615234375 0.40625
vt 0.615234375 0.4375
vt 0.6171875 0.4375
f 791/2353 787/2354 786/2355 790/2356
vt 0.61328125 0.40625
vt 0.611328125 0.40625
vt 0.611328125 0.4375
vt 0.61328125 0.4375
f 788/2357 792/2358 789/2359 785/2360
vt 0.615234375 0.4375
vt 0.61328125 0.4375
vt 0.61328125 0.46875
vt 0.615234375 0.46875
f 786/2361 785/2362 789/2363 790/2364
vt 0.6171875 0.46875
vt 0.615234375 0.46875
vt 0.615234375 0.4375
vt 0.6171875 0.4375
f 791/2365 792/2366 788/2367 787/2368
vt 0.615234375 0.40625
vt 0.61328125 0.40625
vt 0.61328125 0.4375
vt 0.615234375 0.4375
f 787/2369 788/2370 785/2371 786/2372
vt 0.619140625 0.40625
vt 0.6171875 0.40625
vt 0.6171875 0.4375
vt 0.619140625 0.4375
f 792/2373 791/2374 790/2375 789/2376
o baseModel99
v -3.5 17.23223 18.41421
v -3.16 17.23223 18.76777
v -3.16 18.64645 17.35355
v -3.5 18.46967 17.17678
v -3.5 16.87868 18.06066
v -3.16 16.52513 18.06066
v -3.16 17.93934 16.64645
v -3.5 18.11612 16.82322
vt 0.6328125 0.375
vt 0.630859375 0.375
vt 0.630859375 0.4375
vt 0.6328125 0.4375
f 799/2377 795/2378 794/2379 798/2380
vt 0.62890625 0.375
vt 0.626953125 0.375
vt 0.626953125 0.4375
vt 0.62890625 0.4375
f 796/2381 800/2382 797/2383 793/2384
vt 0.630859375 0.4375
vt 0.62890625 0.4375
vt 0.62890625 0.46875
vt 0.630859375 0.46875
f 794/2385 793/2386 797/2387 798/2388
vt 0.6328125 0.46875
vt 0.630859375 0.46875
vt 0.630859375 0.4375
vt 0.6328125 0.4375
f 799/2389 800/2390 796/2391 795/2392
vt 0.630859375 0.375
vt 0.62890625 0.375
vt 0.62890625 0.4375
vt 0.630859375 0.4375
f 795/2393 796/2394 793/2395 794/2396
vt 0.634765625 0.375
vt 0.6328125 0.375
vt 0.6328125 0.4375
vt 0.634765625 0.4375
f 800/2397 799/2398 798/2399 797/2400
o baseModel100
v -3.16 17.23223 18.76777
v -2.84 17.23223 18.76777
v -2.84 18.64645 17.35355
v -3.16 18.64645 17.35355
v -3.16 16.52513 18.06066
v -2.84 16.52513 18.06066
v -2.84 17.93934 16.64645
v -3.16 17.93934 16.64645
vt 0.6484375 0.375
vt 0.646484375 0.375
vt 0.646484375 0.4375
vt 0.6484375 0.4375
f 807/2401 803/2402 802/2403 806/2404
vt 0.64453125 0.375
vt 0.642578125 0.375
vt 0.642578125 0.4375
vt 0.64453125 0.4375
f 804/2405 808/2406 805/2407 801/2408
vt 0.646484375 0.4375
vt 0.64453125 0.4375
vt 0.64453125 0.46875
vt 0.646484375 0.46875
f 802/2409 801/2410 805/2411 806/2412
vt 0.6484375 0.46875
vt 0.646484375 0.46875
vt 0.646484375 0.4375
vt 0.6484375 0.4375
f 807/2413 808/2414 804/2415 803/2416
vt 0.646484375 0.375
vt 0.64453125 0.375
vt 0.64453125 0.4375
vt 0.646484375 0.4375
f 803/2417 804/2418 801/2419 802/2420
vt 0.650390625 0.375
vt 0.6484375 0.375
vt 0.6484375 0.4375
vt 0.650390625 0.4375
f 808/2421 807/2422 806/2423 805/2424
o baseModel101
v -2.84 17.23223 18.76777
v -2.5 17.05546 18.59099
v -2.5 18.46967 17.17678
v -2.84 18.64645 17.35355
v -2.84 16.52513 18.06066
v -2.5 16.7019 18.23744
v -2.5 18.11612 16.82322
v -2.84 17.93934 16.64645
vt 0.6640625 0.375
vt 0.662109375 0.375
vt 0.662109375 0.4375
vt 0.6640625 0.4375
f 815/2425 811/2426 810/2427 814/2428
vt 0.66015625 0.375
vt 0.658203125 0.375
vt 0.658203125 0.4375
vt 0.66015625 0.4375
f 812/2429 816/2430 813/2431 809/2432
vt 0.662109375 0.4375
vt 0.66015625 0.4375
vt 0.66015625 0.46875
vt 0.662109375 0.46875
f 810/2433 809/2434 813/2435 814/2436
vt 0.6640625 0.46875
vt 0.662109375 0.46875
vt 0.662109375 0.4375
vt 0.6640625 0.4375
f 815/2437 816/2438 812/2439 811/2440
vt 0.662109375 0.375
vt 0.66015625 0.375
vt 0.66015625 0.4375
vt 0.662109375 0.4375
f 811/2441 812/2442 809/2443 810/2444
vt 0.666015625 0.375
vt 0.6640625 0.375
vt 0.6640625 0.4375
vt 0.666015625 0.4375
f 816/2445 815/2446 814/2447 813/2448
o baseModel102
v -3.5 18.49099 18.94454
v -3.16 18.66777 18.76777
v -3.16 17.25355 17.35355
v -3.5 17.25355 17.70711
v -3.5 18.13744 19.2981
v -3.16 17.96066 19.47487
v -3.16 16.54645 18.06066
v -3.5 16.9 18.06066
vt 0.6796875 0.375
vt 0.677734375 0.375
vt 0.677734375 0.4375
vt 0.6796875 0.4375
f 823/2449 819/2450 818/2451 822/2452
vt 0.67578125 0.375
vt 0.673828125 0.375
vt 0.673828125 0.4375
vt 0.67578125 0.4375
f 820/2453 824/2454 821/2455 817/2456
vt 0.677734375 0.4375
vt 0.67578125 0.4375
vt 0.67578125 0.46875
vt 0.677734375 0.46875
f 818/2457 817/2458 821/2459 822/2460
vt 0.6796875 0.46875
vt 0.677734375 0.46875
vt 0.677734375 0.4375
vt 0.6796875 0.4375
f 823/2461 824/2462 820/2463 819/2464
vt 0.677734375 0.375
vt 0.67578125 0.375
vt 0.67578125 0.4375
vt 0.677734375 0.4375
f 819/2465 820/2466 817/2467 818/2468
vt 0.681640625 0.375
vt 0.6796875 0.375
vt 0.6796875 0.4375
vt 0.681640625 0.4375
f 824/2469 823/2470 822/2471 821/2472
o baseModel103
v -3.16 18.66777 18.76777
v -2.84 18.66777 18.76777
v -2.84 17.25355 17.35355
v -3.16 17.25355 17.35355
v -3.16 17.96066 19.47487
v -2.84 17.96066 19.47487
v -2.84 16.54645 18.06066
v -3.16 16.54645 18.06066
vt 0.6953125 0.375
vt 0.693359375 0.375
vt 0.693359375 0.4375
vt 0.6953125 0.4375
f 831/2473 827/2474 826/2475 830/2476
vt 0.69140625 0.375
vt 0.689453125 0.375
vt 0.689453125 0.4375
vt 0.69140625 0.4375
f 828/2477 832/2478 829/2479 825/2480
vt 0.693359375 0.4375
vt 0.69140625 0.4375
vt 0.69140625 0.46875
vt 0.693359375 0.46875
f 826/2481 825/2482 829/2483 830/2484
vt 0.6953125 0.46875
vt 0.693359375 0.46875
vt 0.693359375 0.4375
vt 0.6953125 0.4375
f 831/2485 832/2486 828/2487 827/2488
vt 0.693359375 0.375
vt 0.69140625 0.375
vt 0.69140625 0.4375
vt 0.693359375 0.4375
f 827/2489 828/2490 825/2491 826/2492
vt 0.697265625 0.375
vt 0.6953125 0.375
vt 0.6953125 0.4375
vt 0.697265625 0.4375
f 832/2493 831/2494 830/2495 829/2496
o baseModel104
v -2.84 18.66777 18.76777
v -2.5 18.49099 18.94454
v -2.5 17.07678 17.53033
v -2.84 17.25355 17.35355
v -2.84 17.96066 19.47487
v -2.5 18.13744 19.2981
v -2.5 16.72322 17.88388
v -2.84 16.54645 18.06066
vt 0.7109375 0.375
vt 0.708984375 0.375
vt 0.708984375 0.4375
vt 0.7109375 0.4375
f 839/2497 835/2498 834/2499 838/2500
vt 0.70703125 0.375
vt 0.705078125 0.375
vt 0.705078125 0.4375
vt 0.70703125 0.4375
f 836/2501 840/2502 837/2503 833/2504
vt 0.708984375 0.4375
vt 0.70703125 0.4375
vt 0.70703125 0.46875
vt 0.708984375 0.46875
f 834/2505 833/2506 837/2507 838/2508
vt 0.7109375 0.46875
vt 0.708984375 0.46875
vt 0.708984375 0.4375
vt 0.7109375 0.4375
f 839/2509 840/2510 836/2511 835/2512
vt 0.708984375 0.375
vt 0.70703125 0.375
vt 0.70703125 0.4375
vt 0.708984375 0.4375
f 835/2513 836/2514 833/2515 834/2516
vt 0.712890625 0.375
vt 0.7109375 0.375
vt 0.7109375 0.4375
vt 0.712890625 0.4375
f 840/2517 839/2518 838/2519 837/2520
o baseModel105
v -3.5 18.46967 17.17678
v -3.16 18.64645 17.35355
v -3.285 19.17678 17.17678
v -3.75 19 17
v -3.5 18.11612 16.82322
v -3.16 17.93934 16.64645
v -3.285 18.11612 16.11612
v -3.75 18.29289 16.29289
vt 0.7265625 0.40625
vt 0.724609375 0.40625
vt 0.724609375 0.4375
vt 0.7265625 0.4375
f 847/2521 843/2522 842/2523 846/2524
vt 0.72265625 0.40625
vt 0.720703125 0.40625
vt 0.720703125 0.4375
vt 0.72265625 0.4375
f 844/2525 848/2526 845/2527 841/2528
vt 0.724609375 0.4375
vt 0.72265625 0.4375
vt 0.72265625 0.46875
vt 0.724609375 0.46875
f 842/2529 841/2530 845/2531 846/2532
vt 0.7265625 0.46875
vt 0.724609375 0.46875
vt 0.724609375 0.4375
vt 0.7265625 0.4375
f 847/2533 848/2534 844/2535 843/2536
vt 0.724609375 0.40625
vt 0.72265625 0.40625
vt 0.72265625 0.4375
vt 0.724609375 0.4375
f 843/2537 844/2538 841/2539 842/2540
vt 0.728515625 0.40625
vt 0.7265625 0.40625
vt 0.7265625 0.4375
vt 0.728515625 0.4375
f 848/2541 847/2542 846/2543 845/2544
o baseModel106
v -3.16 18.64645 17.35355
v -2.84 18.64645 17.35355
v -2.715 19.17678 17.17678
v -3.285 19.17678 17.17678
v -3.16 17.93934 16.64645
v -2.84 17.93934 16.64645
v -2.715 18.11612 16.11612
v -3.285 18.11612 16.11612
vt 0.7421875 0.40625
vt 0.740234375 0.40625
vt 0.740234375 0.4375
vt 0.7421875 0.4375
f 855/2545 851/2546 850/2547 854/2548
vt 0.73828125 0.40625
vt 0.736328125 0.40625
vt 0.736328125 0.4375
vt 0.73828125 0.4375
f 852/2549 856/2550 853/2551 849/2552
vt 0.740234375 0.4375
vt 0.73828125 0.4375
vt 0.73828125 0.46875
vt 0.740234375 0.46875
f 850/2553 849/2554 853/2555 854/2556
vt 0.7421875 0.46875
vt 0.740234375 0.46875
vt 0.740234375 0.4375
vt 0.7421875 0.4375
f 855/2557 856/2558 852/2559 851/2560
vt 0.740234375 0.40625
vt 0.73828125 0.40625
vt 0.73828125 0.4375
vt 0.740234375 0.4375
f 851/2561 852/2562 849/2563 850/2564
vt 0.744140625 0.40625
vt 0.7421875 0.40625
vt 0.7421875 0.4375
vt 0.744140625 0.4375
f 856/2565 855/2566 854/2567 853/2568
o baseModel107
v -2.84 18.64645 17.35355
v -2.5 18.46967 17.17678
v -2.25 19 17
v -2.715 19.17678 17.17678
v -2.84 17.93934 16.64645
v -2.5 18.11612 16.82322
v -2.25 18.29289 16.29289
v -2.715 18.11612 16.11612
vt 0.7578125 0.40625
vt 0.755859375 0.40625
vt 0.755859375 0.4375
vt 0.7578125 0.4375
f 863/2569 859/2570 858/2571 862/2572
vt 0.75390625 0.40625
vt 0.751953125 0.40625
vt 0.751953125 0.4375
vt 0.75390625 0.4375
f 860/2573 864/2574 861/2575 857/2576
vt 0.755859375 0.4375
vt 0.75390625 0.4375
vt 0.75390625 0.46875
vt 0.755859375 0.46875
f 858/2577 857/2578 861/2579 862/2580
vt 0.7578125 0.46875
vt 0.755859375 0.46875
vt 0.755859375 0.4375
vt 0.7578125 0.4375
f 863/2581 864/2582 860/2583 859/2584
vt 0.755859375 0.40625
vt 0.75390625 0.40625
vt 0.75390625 0.4375
vt 0.755859375 0.4375
f 859/2585 860/2586 857/2587 858/2588
vt 0.759765625 0.40625
vt 0.7578125 0.40625
vt 0.7578125 0.4375
vt 0.759765625 0.4375
f 864/2589 863/2590 862/2591 861/2592
