# Converted from Decimation Beardie model: pistolSuppressor.bmodel
# Coordinates retain the original Beardie model units.
mtllib pistol_suppressor.mtl
usemtl pistol_suppressor_material
o suppressor
v 28.50005 5.090001 -0.2999999
v 35.50005 5.090001 -0.2999999
v 35.50005 3.790001 -0.2999999
v 28.50005 3.790001 -0.2999999
v 28.50005 5.090001 0.3000001
v 35.50005 5.090001 0.3000001
v 35.50005 3.790001 0.3000001
v 28.50005 3.790001 0.3000001
vt 0.128125 0.940625
vt 0.11875 0.940625
vt 0.11875 0.98125
vt 0.128125 0.98125
f 7/1 3/2 2/3 6/4
vt 0.009375 0.940625
vt 0 0.940625
vt 0 0.98125
vt 0.009375 0.98125
f 4/5 8/6 5/7 1/8
vt 0.11875 0.98125
vt 0.009375 0.98125
vt 0.009375 1
vt 0.11875 1
f 2/9 1/10 5/11 6/12
vt 0.228125 1
vt 0.11875 1
vt 0.11875 0.98125
vt 0.228125 0.98125
f 7/13 8/14 4/15 3/16
vt 0.11875 0.940625
vt 0.009375 0.940625
vt 0.009375 0.98125
vt 0.11875 0.98125
f 3/17 4/18 1/19 2/20
vt 0.2375 0.940625
vt 0.128125 0.940625
vt 0.128125 0.98125
vt 0.2375 0.98125
f 8/21 7/22 6/23 5/24
o suppressor_1
v 28.50005 5.090001 0.3000001
v 33.50005 5.090001 0.3000001
v 33.50005 3.590001 0.3000001
v 28.50005 3.590001 0.3000001
v 28.50005 4.840001 0.7500001
v 33.50005 4.840001 0.7500001
v 33.50005 3.840001 0.7500001
v 28.50005 3.840001 0.7500001
v 28.50005 5.090001 0.3000001
v 35.50005 5.090001 0.3000001
v 35.50005 3.790001 0.3000001
v 28.50005 3.790001 0.3000001
v 28.50005 4.840001 0.6500001
v 35.50005 4.840001 0.6500001
v 35.50005 4.040001 0.6500001
v 28.50005 4.040001 0.6500001
vt 0.0921875 0.9390625
vt 0.08515625 0.9390625
vt 0.08515625 0.9859375
vt 0.0921875 0.9859375
f 15/25 11/26 10/27 14/28
vt 0.00703125 0.9390625
vt 0 0.9390625
vt 0 0.9859375
vt 0.00703125 0.9859375
f 12/29 16/30 13/31 9/32
vt 0.08515625 0.9859375
vt 0.00703125 0.9859375
vt 0.00703125 1
vt 0.08515625 1
f 10/33 9/34 13/35 14/36
vt 0.16328125 1
vt 0.08515625 1
vt 0.08515625 0.9859375
vt 0.16328125 0.9859375
f 15/37 16/38 12/39 11/40
vt 0.08515625 0.9390625
vt 0.00703125 0.9390625
vt 0.00703125 0.9859375
vt 0.08515625 0.9859375
f 11/41 12/42 9/43 10/44
vt 0.1703125 0.9390625
vt 0.0921875 0.9390625
vt 0.0921875 0.9859375
vt 0.1703125 0.9859375
f 16/45 15/46 14/47 13/48
vt 0.1203125 0.9484375
vt 0.11484375 0.9484375
vt 0.11484375 0.9890625
vt 0.1203125 0.9890625
f 23/49 19/50 18/51 22/52
vt 0.00546875 0.9484375
vt 0 0.9484375
vt 0 0.9890625
vt 0.00546875 0.9890625
f 20/53 24/54 21/55 17/56
vt 0.11484375 0.9890625
vt 0.00546875 0.9890625
vt 0.00546875 1
vt 0.11484375 1
f 18/57 17/58 21/59 22/60
vt 0.22421875 1
vt 0.11484375 1
vt 0.11484375 0.9890625
vt 0.22421875 0.9890625
f 23/61 24/62 20/63 19/64
vt 0.11484375 0.9484375
vt 0.00546875 0.9484375
vt 0.00546875 0.9890625
vt 0.11484375 0.9890625
f 19/65 20/66 17/67 18/68
vt 0.2296875 0.9484375
vt 0.1203125 0.9484375
vt 0.1203125 0.9890625
vt 0.2296875 0.9890625
f 24/69 23/70 22/71 21/72
o suppressor_2
v 28.50005 4.840001 -0.6499999
v 33.50005 4.840001 -0.6499999
v 33.50005 3.840001 -0.6499999
v 28.50005 3.840001 -0.6499999
v 28.50005 5.090001 -0.1999999
v 33.50005 5.090001 -0.1999999
v 33.50005 3.590001 -0.1999999
v 28.50005 3.590001 -0.1999999
v 28.50005 4.840001 -0.6499999
v 35.50005 4.840001 -0.6499999
v 35.50005 4.040001 -0.6499999
v 28.50005 4.040001 -0.6499999
v 28.50005 5.090001 -0.2999999
v 35.50005 5.090001 -0.2999999
v 35.50005 3.790001 -0.2999999
v 28.50005 3.790001 -0.2999999
vt 0.0921875 0.9390625
vt 0.08515625 0.9390625
vt 0.08515625 0.9859375
vt 0.0921875 0.9859375
f 31/73 27/74 26/75 30/76
vt 0.00703125 0.9390625
vt 0 0.9390625
vt 0 0.9859375
vt 0.00703125 0.9859375
f 28/77 32/78 29/79 25/80
vt 0.08515625 0.9859375
vt 0.00703125 0.9859375
vt 0.00703125 1
vt 0.08515625 1
f 26/81 25/82 29/83 30/84
vt 0.16328125 1
vt 0.08515625 1
vt 0.08515625 0.9859375
vt 0.16328125 0.9859375
f 31/85 32/86 28/87 27/88
vt 0.08515625 0.9390625
vt 0.00703125 0.9390625
vt 0.00703125 0.9859375
vt 0.08515625 0.9859375
f 27/89 28/90 25/91 26/92
vt 0.1703125 0.9390625
vt 0.0921875 0.9390625
vt 0.0921875 0.9859375
vt 0.1703125 0.9859375
f 32/93 31/94 30/95 29/96
vt 0.1203125 0.9484375
vt 0.11484375 0.9484375
vt 0.11484375 0.9890625
vt 0.1203125 0.9890625
f 39/97 35/98 34/99 38/100
vt 0.00546875 0.9484375
vt 0 0.9484375
vt 0 0.9890625
vt 0.00546875 0.9890625
f 36/101 40/102 37/103 33/104
vt 0.11484375 0.9890625
vt 0.00546875 0.9890625
vt 0.00546875 1
vt 0.11484375 1
f 34/105 33/106 37/107 38/108
vt 0.22421875 1
vt 0.11484375 1
vt 0.11484375 0.9890625
vt 0.22421875 0.9890625
f 39/109 40/110 36/111 35/112
vt 0.11484375 0.9484375
vt 0.00546875 0.9484375
vt 0.00546875 0.9890625
vt 0.11484375 0.9890625
f 35/113 36/114 33/115 34/116
vt 0.2296875 0.9484375
vt 0.1203125 0.9484375
vt 0.1203125 0.9890625
vt 0.2296875 0.9890625
f 40/117 39/118 38/119 37/120
