# Converted from Decimation Beardie model: streetlight.bmodel
# Coordinates retain the original Beardie model units.
mtllib streetlight.mtl
usemtl streetlight_material
o baseModel0
v -1 96 -1
v 1 96 -1
v 1 -0 -1
v -1 -0 -1
v -1 96 1
v 1 96 1
v 1 -0 1
v -1 -0 1
vt 0.02734375 0.2265625
vt 0.01953125 0.2265625
vt 0.01953125 0.9765625
vt 0.02734375 0.9765625
f 7/1 3/2 2/3 6/4
vt 0.01171875 0.2265625
vt 0.00390625 0.2265625
vt 0.00390625 0.9765625
vt 0.01171875 0.9765625
f 4/5 8/6 5/7 1/8
vt 0.01953125 0.9765625
vt 0.01171875 0.9765625
vt 0.01171875 0.9921875
vt 0.01953125 0.9921875
f 2/9 1/10 5/11 6/12
vt 0.02734375 0.9921875
vt 0.01953125 0.9921875
vt 0.01953125 0.9765625
vt 0.02734375 0.9765625
f 7/13 8/14 4/15 3/16
vt 0.01953125 0.2265625
vt 0.01171875 0.2265625
vt 0.01171875 0.9765625
vt 0.01953125 0.9765625
f 3/17 4/18 1/19 2/20
vt 0.03515625 0.2265625
vt 0.02734375 0.2265625
vt 0.02734375 0.9765625
vt 0.03515625 0.9765625
f 8/21 7/22 6/23 5/24
o baseModel1
v -1.5 96.5 -1.5
v 1.5 96.5 -1.5
v 1.5 81.5 -1.5
v -1.5 81.5 -1.5
v -1.5 96.5 1.5
v 1.5 96.5 1.5
v 1.5 81.5 1.5
v -1.5 81.5 1.5
vt 0.1015625 0.8515625
vt 0.08984375 0.8515625
vt 0.08984375 0.96875
vt 0.1015625 0.96875
f 15/25 11/26 10/27 14/28
vt 0.078125 0.8515625
vt 0.06640625 0.8515625
vt 0.06640625 0.96875
vt 0.078125 0.96875
f 12/29 16/30 13/31 9/32
vt 0.08984375 0.96875
vt 0.078125 0.96875
vt 0.078125 0.9921875
vt 0.08984375 0.9921875
f 10/33 9/34 13/35 14/36
vt 0.1015625 0.9921875
vt 0.08984375 0.9921875
vt 0.08984375 0.96875
vt 0.1015625 0.96875
f 15/37 16/38 12/39 11/40
vt 0.08984375 0.8515625
vt 0.078125 0.8515625
vt 0.078125 0.96875
vt 0.08984375 0.96875
f 11/41 12/42 9/43 10/44
vt 0.11328125 0.8515625
vt 0.1015625 0.8515625
vt 0.1015625 0.96875
vt 0.11328125 0.96875
f 16/45 15/46 14/47 13/48
o baseModel2
v 0.02293444 105.4772 -1
v 1.019129 105.39 -1
v 0.2347275 96.42426 -1
v -0.7614672 96.51142 -1
v 0.02293444 105.4772 1
v 1.019129 105.39 1
v 0.2347275 96.42426 1
v -0.7614672 96.51142 1
vt 0.1484375 0.90625
vt 0.140625 0.90625
vt 0.140625 0.9765625
vt 0.1484375 0.9765625
f 23/49 19/50 18/51 22/52
vt 0.13671875 0.90625
vt 0.12890625 0.90625
vt 0.12890625 0.9765625
vt 0.13671875 0.9765625
f 20/53 24/54 21/55 17/56
vt 0.140625 0.9765625
vt 0.13671875 0.9765625
vt 0.13671875 0.9921875
vt 0.140625 0.9921875
f 18/57 17/58 21/59 22/60
vt 0.14453125 0.9921875
vt 0.140625 0.9921875
vt 0.140625 0.9765625
vt 0.14453125 0.9765625
f 23/61 24/62 20/63 19/64
vt 0.140625 0.90625
vt 0.13671875 0.90625
vt 0.13671875 0.9765625
vt 0.140625 0.9765625
f 19/65 20/66 17/67 18/68
vt 0.15234375 0.90625
vt 0.1484375 0.90625
vt 0.1484375 0.9765625
vt 0.15234375 0.9765625
f 24/69 23/70 22/71 21/72
o baseModel3
v 17.02056 122.4706 -1.01
v 17.72767 121.7635 -1.01
v 0.7571068 104.7929 -1.01
v 0.05 105.5 -1.01
v 17.02056 122.4706 0.99
v 17.72767 121.7635 0.99
v 0.7571068 104.7929 0.99
v 0.05 105.5 0.99
vt 0.9921875 0.7890625
vt 0.984375 0.7890625
vt 0.984375 0.9765625
vt 0.9921875 0.9765625
f 31/73 27/74 26/75 30/76
vt 0.98046875 0.7890625
vt 0.97265625 0.7890625
vt 0.97265625 0.9765625
vt 0.98046875 0.9765625
f 28/77 32/78 29/79 25/80
vt 0.984375 0.9765625
vt 0.98046875 0.9765625
vt 0.98046875 0.9921875
vt 0.984375 0.9921875
f 26/81 25/82 29/83 30/84
vt 0.98828125 0.9921875
vt 0.984375 0.9921875
vt 0.984375 0.9765625
vt 0.98828125 0.9765625
f 31/85 32/86 28/87 27/88
vt 0.984375 0.7890625
vt 0.98046875 0.7890625
vt 0.98046875 0.9765625
vt 0.984375 0.9765625
f 27/89 28/90 25/91 26/92
vt 0.99609375 0.7890625
vt 0.9921875 0.7890625
vt 0.9921875 0.9765625
vt 0.99609375 0.9765625
f 32/93 31/94 30/95 29/96
o baseModel4
v 36.97389 124.2431 -1
v 37.06105 123.2469 -1
v 17.13716 121.5038 -1
v 17.05 122.5 -1
v 36.97389 124.2431 1
v 37.06105 123.2469 1
v 17.13716 121.5038 1
v 17.05 122.5 1
vt 0.1796875 0.8203125
vt 0.171875 0.8203125
vt 0.171875 0.9765625
vt 0.1796875 0.9765625
f 39/97 35/98 34/99 38/100
vt 0.16796875 0.8203125
vt 0.16015625 0.8203125
vt 0.16015625 0.9765625
vt 0.16796875 0.9765625
f 36/101 40/102 37/103 33/104
vt 0.171875 0.9765625
vt 0.16796875 0.9765625
vt 0.16796875 0.9921875
vt 0.171875 0.9921875
f 34/105 33/106 37/107 38/108
vt 0.17578125 0.9921875
vt 0.171875 0.9921875
vt 0.171875 0.9765625
vt 0.17578125 0.9765625
f 39/109 40/110 36/111 35/112
vt 0.171875 0.8203125
vt 0.16796875 0.8203125
vt 0.16796875 0.9765625
vt 0.171875 0.9765625
f 35/113 36/114 33/115 34/116
vt 0.18359375 0.8203125
vt 0.1796875 0.8203125
vt 0.1796875 0.9765625
vt 0.18359375 0.9765625
f 40/117 39/118 38/119 37/120
o baseModel5
v 39.87532 125.5008 -2
v 40.13679 122.5122 -2
v 35.15582 122.0764 -2
v 34.89435 125.065 -2
v 39.87532 125.5008 2
v 40.13679 122.5122 2
v 35.15582 122.0764 2
v 34.89435 125.065 2
vt 0.234375 0.921875
vt 0.21875 0.921875
vt 0.21875 0.9609375
vt 0.234375 0.9609375
f 47/121 43/122 42/123 46/124
vt 0.20703125 0.921875
vt 0.19140625 0.921875
vt 0.19140625 0.9609375
vt 0.20703125 0.9609375
f 44/125 48/126 45/127 41/128
vt 0.21875 0.9609375
vt 0.20703125 0.9609375
vt 0.20703125 0.9921875
vt 0.21875 0.9921875
f 42/129 41/130 45/131 46/132
vt 0.23046875 0.9921875
vt 0.21875 0.9921875
vt 0.21875 0.9609375
vt 0.23046875 0.9609375
f 47/133 48/134 44/135 43/136
vt 0.21875 0.921875
vt 0.20703125 0.921875
vt 0.20703125 0.9609375
vt 0.21875 0.9609375
f 43/137 44/138 41/139 42/140
vt 0.24609375 0.921875
vt 0.234375 0.921875
vt 0.234375 0.9609375
vt 0.24609375 0.9609375
f 48/141 47/142 46/143 45/144
o baseModel6
v 40.87152 125.5879 -1.5
v 41.13298 122.5993 -1.5
v 40.13679 122.5122 -1.5
v 39.87532 125.5008 -1.5
v 40.87152 125.5879 1.5
v 41.13298 122.5993 1.5
v 40.13679 122.5122 1.5
v 39.87532 125.5008 1.5
vt 0.2890625 0.9609375
vt 0.27734375 0.9609375
vt 0.27734375 0.96875
vt 0.2890625 0.96875
f 55/145 51/146 50/147 54/148
vt 0.265625 0.9609375
vt 0.25390625 0.9609375
vt 0.25390625 0.96875
vt 0.265625 0.96875
f 52/149 56/150 53/151 49/152
vt 0.27734375 0.96875
vt 0.265625 0.96875
vt 0.265625 0.9921875
vt 0.27734375 0.9921875
f 50/153 49/154 53/155 54/156
vt 0.2890625 0.9921875
vt 0.27734375 0.9921875
vt 0.27734375 0.96875
vt 0.2890625 0.96875
f 55/157 56/158 52/159 51/160
vt 0.27734375 0.9609375
vt 0.265625 0.9609375
vt 0.265625 0.96875
vt 0.27734375 0.96875
f 51/161 52/162 49/163 50/164
vt 0.30078125 0.9609375
vt 0.2890625 0.9609375
vt 0.2890625 0.96875
vt 0.30078125 0.96875
f 56/165 55/166 54/167 53/168
o baseModel7
v 39.68227 122.9705 -1.5
v 39.76943 121.9743 -1.5
v 35.78465 121.6257 -1.5
v 35.69749 122.6219 -1.5
v 39.68227 122.9705 1.5
v 39.76943 121.9743 1.5
v 35.78465 121.6257 1.5
v 35.69749 122.6219 1.5
vt 0.34375 0.9375
vt 0.33203125 0.9375
vt 0.33203125 0.96875
vt 0.34375 0.96875
f 63/169 59/170 58/171 62/172
vt 0.328125 0.9375
vt 0.31640625 0.9375
vt 0.31640625 0.96875
vt 0.328125 0.96875
f 60/173 64/174 61/175 57/176
vt 0.33203125 0.96875
vt 0.328125 0.96875
vt 0.328125 0.9921875
vt 0.33203125 0.9921875
f 58/177 57/178 61/179 62/180
vt 0.3359375 0.9921875
vt 0.33203125 0.9921875
vt 0.33203125 0.96875
vt 0.3359375 0.96875
f 63/181 64/182 60/183 59/184
vt 0.33203125 0.9375
vt 0.328125 0.9375
vt 0.328125 0.96875
vt 0.33203125 0.96875
f 59/185 60/186 57/187 58/188
vt 0.34765625 0.9375
vt 0.34375 0.9375
vt 0.34375 0.96875
vt 0.34765625 0.96875
f 64/189 63/190 62/191 61/192
