# Converted from Decimation Beardie model: 8x.bmodel
# Coordinates retain the original Beardie model units.
mtllib 8x.mtl
usemtl 8x_material
o scopeGlass
v 0.1000005 6.799997 -0.4999999
v 0.2000005 6.799997 -0.4999999
v 0.2000005 5.799997 -0.4999999
v 0.1000005 5.799997 -0.4999999
v 0.1000005 6.799997 0.5000001
v 0.2000005 6.799997 0.5000001
v 0.2000005 5.799997 0.5000001
v 0.1000005 5.799997 0.5000001
vt 0.0328125 0.9375
vt 0.0171875 0.9375
vt 0.0171875 0.96875
vt 0.0328125 0.96875
f 7/1 3/2 2/3 6/4
vt 0.015625 0.9375
vt 0 0.9375
vt 0 0.96875
vt 0.015625 0.96875
f 4/5 8/6 5/7 1/8
vt 0.0171875 0.96875
vt 0.015625 0.96875
vt 0.015625 1
vt 0.0171875 1
f 2/9 1/10 5/11 6/12
vt 0.01875 1
vt 0.0171875 1
vt 0.0171875 0.96875
vt 0.01875 0.96875
f 7/13 8/14 4/15 3/16
vt 0.0171875 0.9375
vt 0.015625 0.9375
vt 0.015625 0.96875
vt 0.0171875 0.96875
f 3/17 4/18 1/19 2/20
vt 0.034375 0.9375
vt 0.0328125 0.9375
vt 0.0328125 0.96875
vt 0.034375 0.96875
f 8/21 7/22 6/23 5/24
o scopeOverlay
v 0.09000053 6.799997 -0.4999999
v 0.1900005 6.799997 -0.4999999
v 0.1900005 5.799997 -0.4999999
v 0.09000053 5.799997 -0.4999999
v 0.09000053 6.799997 0.5000001
v 0.1900005 6.799997 0.5000001
v 0.1900005 5.799997 0.5000001
v 0.09000053 5.799997 0.5000001
vt 0.0328125 0.9375
vt 0.0171875 0.9375
vt 0.0171875 0.96875
vt 0.0328125 0.96875
f 15/25 11/26 10/27 14/28
vt 0.015625 0.9375
vt 0 0.9375
vt 0 0.96875
vt 0.015625 0.96875
f 12/29 16/30 13/31 9/32
vt 0.0171875 0.96875
vt 0.015625 0.96875
vt 0.015625 1
vt 0.0171875 1
f 10/33 9/34 13/35 14/36
vt 0.01875 1
vt 0.0171875 1
vt 0.0171875 0.96875
vt 0.01875 0.96875
f 15/37 16/38 12/39 11/40
vt 0.0171875 0.9375
vt 0.015625 0.9375
vt 0.015625 0.96875
vt 0.0171875 0.96875
f 11/41 12/42 9/43 10/44
vt 0.034375 0.9375
vt 0.0328125 0.9375
vt 0.0328125 0.96875
vt 0.034375 0.96875
f 16/45 15/46 14/47 13/48
o scope1
v 4.999999 5.149999 -0.2999998
v 5.799999 5.149999 -0.2999998
v 5.799999 4.929999 -0.2999998
v 4.999999 4.929999 -0.2999998
v 4.999999 5.149999 0.3000002
v 5.799999 5.149999 0.3000002
v 5.799999 4.929999 0.3000002
v 4.999999 4.929999 0.3000002
vt 0.03125 0.974375
vt 0.021875 0.974375
vt 0.021875 0.98125
vt 0.03125 0.98125
f 23/49 19/50 18/51 22/52
vt 0.009375 0.974375
vt 0 0.974375
vt 0 0.98125
vt 0.009375 0.98125
f 20/53 24/54 21/55 17/56
vt 0.021875 0.98125
vt 0.009375 0.98125
vt 0.009375 1
vt 0.021875 1
f 18/57 17/58 21/59 22/60
vt 0.034375 1
vt 0.021875 1
vt 0.021875 0.98125
vt 0.034375 0.98125
f 23/61 24/62 20/63 19/64
vt 0.021875 0.974375
vt 0.009375 0.974375
vt 0.009375 0.98125
vt 0.021875 0.98125
f 19/65 20/66 17/67 18/68
vt 0.04375 0.974375
vt 0.03125 0.974375
vt 0.03125 0.98125
vt 0.04375 0.98125
f 24/69 23/70 22/71 21/72
o scope2
v 1.85 5.149999 -0.1999998
v 2.65 5.149999 -0.1999998
v 2.65 4.949999 -0.2999998
v 1.85 4.949999 -0.2999998
v 1.85 5.149999 0.2000002
v 2.65 5.149999 0.2000002
v 2.65 4.949999 0.3000002
v 1.85 4.949999 0.3000002
vt 0.03125 0.975
vt 0.021875 0.975
vt 0.021875 0.98125
vt 0.03125 0.98125
f 31/73 27/74 26/75 30/76
vt 0.009375 0.975
vt 0 0.975
vt 0 0.98125
vt 0.009375 0.98125
f 28/77 32/78 29/79 25/80
vt 0.021875 0.98125
vt 0.009375 0.98125
vt 0.009375 1
vt 0.021875 1
f 26/81 25/82 29/83 30/84
vt 0.034375 1
vt 0.021875 1
vt 0.021875 0.98125
vt 0.034375 0.98125
f 31/85 32/86 28/87 27/88
vt 0.021875 0.975
vt 0.009375 0.975
vt 0.009375 0.98125
vt 0.021875 0.98125
f 27/89 28/90 25/91 26/92
vt 0.04375 0.975
vt 0.03125 0.975
vt 0.03125 0.98125
vt 0.04375 0.98125
f 32/93 31/94 30/95 29/96
o scope4
v 6.109476e-07 5.799999 -0.4999998
v 1.000001 5.799999 -0.4999998
v 1.000001 5.699999 -0.2999998
v 6.109476e-07 5.699999 -0.2999998
v 6.109476e-07 5.799999 0.5000002
v 1.000001 5.799999 0.5000002
v 1.000001 5.699999 0.3000002
v 6.109476e-07 5.699999 0.3000002
vt 0.046875 0.965625
vt 0.03125 0.965625
vt 0.03125 0.96875
vt 0.046875 0.96875
f 39/97 35/98 34/99 38/100
vt 0.015625 0.965625
vt 0 0.965625
vt 0 0.96875
vt 0.015625 0.96875
f 36/101 40/102 37/103 33/104
vt 0.03125 0.96875
vt 0.015625 0.96875
vt 0.015625 1
vt 0.03125 1
f 34/105 33/106 37/107 38/108
vt 0.046875 1
vt 0.03125 1
vt 0.03125 0.96875
vt 0.046875 0.96875
f 39/109 40/110 36/111 35/112
vt 0.03125 0.965625
vt 0.015625 0.965625
vt 0.015625 0.96875
vt 0.03125 0.96875
f 35/113 36/114 33/115 34/116
vt 0.0625 0.965625
vt 0.046875 0.965625
vt 0.046875 0.96875
vt 0.0625 0.96875
f 40/117 39/118 38/119 37/120
o scope5
v 6.109476e-07 6.899999 -0.2999998
v 1.000001 6.899999 -0.2999998
v 1.000001 6.799999 -0.4999998
v 6.109476e-07 6.799999 -0.4999998
v 6.109476e-07 6.899999 0.3000002
v 1.000001 6.899999 0.3000002
v 1.000001 6.799999 0.5000002
v 6.109476e-07 6.799999 0.5000002
vt 0.046875 0.965625
vt 0.03125 0.965625
vt 0.03125 0.96875
vt 0.046875 0.96875
f 47/121 43/122 42/123 46/124
vt 0.015625 0.965625
vt 0 0.965625
vt 0 0.96875
vt 0.015625 0.96875
f 44/125 48/126 45/127 41/128
vt 0.03125 0.96875
vt 0.015625 0.96875
vt 0.015625 1
vt 0.03125 1
f 42/129 41/130 45/131 46/132
vt 0.046875 1
vt 0.03125 1
vt 0.03125 0.96875
vt 0.046875 0.96875
f 47/133 48/134 44/135 43/136
vt 0.03125 0.965625
vt 0.015625 0.965625
vt 0.015625 0.96875
vt 0.03125 0.96875
f 43/137 44/138 41/139 42/140
vt 0.0625 0.965625
vt 0.046875 0.965625
vt 0.046875 0.96875
vt 0.0625 0.96875
f 48/141 47/142 46/143 45/144
o scope6
v 6.109476e-07 6.800001 0.5
v 1.000001 6.800001 0.5
v 1.000001 5.800001 0.5
v 6.109476e-07 5.800001 0.5
v 6.109476e-07 6.600001 0.6
v 1.000001 6.600001 0.6
v 1.000001 6.000001 0.6
v 6.109476e-07 6.000001 0.6
vt 0.01875 0.965625
vt 0.0171875 0.965625
vt 0.0171875 0.996875
vt 0.01875 0.996875
f 55/145 51/146 50/147 54/148
vt 0.0015625 0.965625
vt 0 0.965625
vt 0 0.996875
vt 0.0015625 0.996875
f 52/149 56/150 53/151 49/152
vt 0.0171875 0.996875
vt 0.0015625 0.996875
vt 0.0015625 1
vt 0.0171875 1
f 50/153 49/154 53/155 54/156
vt 0.0328125 1
vt 0.0171875 1
vt 0.0171875 0.996875
vt 0.0328125 0.996875
f 55/157 56/158 52/159 51/160
vt 0.0171875 0.965625
vt 0.0015625 0.965625
vt 0.0015625 0.996875
vt 0.0171875 0.996875
f 51/161 52/162 49/163 50/164
vt 0.034375 0.965625
vt 0.01875 0.965625
vt 0.01875 0.996875
vt 0.034375 0.996875
f 56/165 55/166 54/167 53/168
o scope7
v 6.109476e-07 6.6 -0.5999998
v 1.000001 6.6 -0.5999998
v 1.000001 6 -0.5999998
v 6.109476e-07 6 -0.5999998
v 6.109476e-07 6.8 -0.4999998
v 1.000001 6.8 -0.4999998
v 1.000001 5.8 -0.4999998
v 6.109476e-07 5.8 -0.4999998
vt 0.01875 0.965625
vt 0.0171875 0.965625
vt 0.0171875 0.996875
vt 0.01875 0.996875
f 63/169 59/170 58/171 62/172
vt 0.0015625 0.965625
vt 0 0.965625
vt 0 0.996875
vt 0.0015625 0.996875
f 60/173 64/174 61/175 57/176
vt 0.0171875 0.996875
vt 0.0015625 0.996875
vt 0.0015625 1
vt 0.0171875 1
f 58/177 57/178 61/179 62/180
vt 0.0328125 1
vt 0.0171875 1
vt 0.0171875 0.996875
vt 0.0328125 0.996875
f 63/181 64/182 60/183 59/184
vt 0.0171875 0.965625
vt 0.0015625 0.965625
vt 0.0015625 0.996875
vt 0.0171875 0.996875
f 59/185 60/186 57/187 58/188
vt 0.034375 0.965625
vt 0.01875 0.965625
vt 0.01875 0.996875
vt 0.034375 0.996875
f 64/189 63/190 62/191 61/192
o scope8
v 7.75 6.799999 -0.4999998
v 7.85 6.799999 -0.4999998
v 7.85 5.799999 -0.4999998
v 7.75 5.799999 -0.4999998
v 7.75 6.799999 0.5000002
v 7.85 6.799999 0.5000002
v 7.85 5.799999 0.5000002
v 7.75 5.799999 0.5000002
vt 0.7515625 0
vt 0.7359375 0
vt 0.7359375 0.03125
vt 0.7515625 0.03125
f 71/193 67/194 66/195 70/196
vt 0.734375 0
vt 0.71875 0
vt 0.71875 0.03125
vt 0.734375 0.03125
f 68/197 72/198 69/199 65/200
vt 0.7359375 0.03125
vt 0.734375 0.03125
vt 0.734375 0.0625
vt 0.7359375 0.0625
f 66/201 65/202 69/203 70/204
vt 0.7375 0.0625
vt 0.7359375 0.0625
vt 0.7359375 0.03125
vt 0.7375 0.03125
f 71/205 72/206 68/207 67/208
vt 0.7359375 0
vt 0.734375 0
vt 0.734375 0.03125
vt 0.7359375 0.03125
f 67/209 68/210 65/211 66/212
vt 0.753125 0
vt 0.7515625 0
vt 0.7515625 0.03125
vt 0.753125 0.03125
f 72/213 71/214 70/215 69/216
o scope4_2
v 6.109476e-07 5.799998 0.3
v 1.000001 5.799998 0.3
v 1.000001 5.799998 0.3
v 6.109476e-07 5.799998 0.3
v 6.109476e-07 5.999998 0.5
v 1.000001 5.999998 0.5
v 1.000001 5.799998 0.5
v 6.109476e-07 5.799998 0.5
vt 0.021875 0.9875
vt 0.01875 0.9875
vt 0.01875 0.99375
vt 0.021875 0.99375
f 79/217 75/218 74/219 78/220
vt 0.003125 0.9875
vt 0 0.9875
vt 0 0.99375
vt 0.003125 0.99375
f 76/221 80/222 77/223 73/224
vt 0.01875 0.99375
vt 0.003125 0.99375
vt 0.003125 1
vt 0.01875 1
f 74/225 73/226 77/227 78/228
vt 0.034375 1
vt 0.01875 1
vt 0.01875 0.99375
vt 0.034375 0.99375
f 79/229 80/230 76/231 75/232
vt 0.01875 0.9875
vt 0.003125 0.9875
vt 0.003125 0.99375
vt 0.01875 0.99375
f 75/233 76/234 73/235 74/236
vt 0.0375 0.9875
vt 0.021875 0.9875
vt 0.021875 0.99375
vt 0.0375 0.99375
f 80/237 79/238 78/239 77/240
o scope5_2
v 6.109476e-07 6.8 -0.4999998
v 1.000001 6.8 -0.4999998
v 1.000001 6.6 -0.4999998
v 6.109476e-07 6.6 -0.4999998
v 6.109476e-07 6.8 -0.2999998
v 1.000001 6.8 -0.2999998
v 1.000001 6.6 -0.4999998
v 6.109476e-07 6.6 -0.4999998
vt 0.021875 0.9875
vt 0.01875 0.9875
vt 0.01875 0.99375
vt 0.021875 0.99375
f 87/241 83/242 82/243 86/244
vt 0.003125 0.9875
vt 0 0.9875
vt 0 0.99375
vt 0.003125 0.99375
f 84/245 88/246 85/247 81/248
vt 0.01875 0.99375
vt 0.003125 0.99375
vt 0.003125 1
vt 0.01875 1
f 82/249 81/250 85/251 86/252
vt 0.034375 1
vt 0.01875 1
vt 0.01875 0.99375
vt 0.034375 0.99375
f 87/253 88/254 84/255 83/256
vt 0.01875 0.9875
vt 0.003125 0.9875
vt 0.003125 0.99375
vt 0.01875 0.99375
f 83/257 84/258 81/259 82/260
vt 0.0375 0.9875
vt 0.021875 0.9875
vt 0.021875 0.99375
vt 0.0375 0.99375
f 88/261 87/262 86/263 85/264
o scope6_2
v 6.109476e-07 6.799998 0.3000001
v 1.000001 6.799998 0.3000001
v 1.000001 6.599998 0.5000001
v 6.109476e-07 6.599998 0.5000001
v 6.109476e-07 6.799998 0.5000001
v 1.000001 6.799998 0.5000001
v 1.000001 6.599998 0.5000001
v 6.109476e-07 6.599998 0.5000001
vt 0.021875 0.9875
vt 0.01875 0.9875
vt 0.01875 0.99375
vt 0.021875 0.99375
f 95/265 91/266 90/267 94/268
vt 0.003125 0.9875
vt 0 0.9875
vt 0 0.99375
vt 0.003125 0.99375
f 92/269 96/270 93/271 89/272
vt 0.01875 0.99375
vt 0.003125 0.99375
vt 0.003125 1
vt 0.01875 1
f 90/273 89/274 93/275 94/276
vt 0.034375 1
vt 0.01875 1
vt 0.01875 0.99375
vt 0.034375 0.99375
f 95/277 96/278 92/279 91/280
vt 0.01875 0.9875
vt 0.003125 0.9875
vt 0.003125 0.99375
vt 0.01875 0.99375
f 91/281 92/282 89/283 90/284
vt 0.0375 0.9875
vt 0.021875 0.9875
vt 0.021875 0.99375
vt 0.0375 0.99375
f 96/285 95/286 94/287 93/288
o scope7_2
v 6.109476e-07 5.799998 -0.4999999
v 1.000001 5.799998 -0.4999999
v 1.000001 5.799998 -0.2999999
v 6.109476e-07 5.799998 -0.2999999
v 6.109476e-07 5.999998 -0.4999998
v 1.000001 5.999998 -0.4999998
v 1.000001 5.799998 -0.2999999
v 6.109476e-07 5.799998 -0.2999999
vt 0.021875 0.9875
vt 0.01875 0.9875
vt 0.01875 0.99375
vt 0.021875 0.99375
f 103/289 99/290 98/291 102/292
vt 0.003125 0.9875
vt 0 0.9875
vt 0 0.99375
vt 0.003125 0.99375
f 100/293 104/294 101/295 97/296
vt 0.01875 0.99375
vt 0.003125 0.99375
vt 0.003125 1
vt 0.01875 1
f 98/297 97/298 101/299 102/300
vt 0.034375 1
vt 0.01875 1
vt 0.01875 0.99375
vt 0.034375 0.99375
f 103/301 104/302 100/303 99/304
vt 0.01875 0.9875
vt 0.003125 0.9875
vt 0.003125 0.99375
vt 0.01875 0.99375
f 99/305 100/306 97/307 98/308
vt 0.0375 0.9875
vt 0.021875 0.9875
vt 0.021875 0.99375
vt 0.0375 0.99375
f 104/309 103/310 102/311 101/312
o scope19
v 2 5.649999 -0.1999998
v 2.5 5.649999 -0.1999998
v 2.65 5.349999 -0.1999998
v 1.85 5.349999 -0.1999998
v 2 5.649999 0.2000002
v 2.5 5.649999 0.2000002
v 2.65 5.349999 0.2000002
v 1.85 5.349999 0.2000002
vt 0.025 0.978125
vt 0.01875 0.978125
vt 0.01875 0.9875
vt 0.025 0.9875
f 111/313 107/314 106/315 110/316
vt 0.00625 0.978125
vt 0 0.978125
vt 0 0.9875
vt 0.00625 0.9875
f 108/317 112/318 109/319 105/320
vt 0.01875 0.9875
vt 0.00625 0.9875
vt 0.00625 1
vt 0.01875 1
f 106/321 105/322 109/323 110/324
vt 0.03125 1
vt 0.01875 1
vt 0.01875 0.9875
vt 0.03125 0.9875
f 111/325 112/326 108/327 107/328
vt 0.01875 0.978125
vt 0.00625 0.978125
vt 0.00625 0.9875
vt 0.01875 0.9875
f 107/329 108/330 105/331 106/332
vt 0.0375 0.978125
vt 0.025 0.978125
vt 0.025 0.9875
vt 0.0375 0.9875
f 112/333 111/334 110/335 109/336
o scope20
v 5.099999 6.85 0.3999999
v 5.599999 6.85 0.3999999
v 5.599999 5.75 0.3999999
v 5.099999 5.75 0.3999999
v 5.099999 6.65 0.5499999
v 5.599999 6.65 0.5499999
v 5.599999 5.95 0.5499999
v 5.099999 5.95 0.5499999
vt 0.0125 0.9609375
vt 0.01015625 0.9609375
vt 0.01015625 0.9953125
vt 0.0125 0.9953125
f 119/337 115/338 114/339 118/340
vt 0.00234375 0.9609375
vt 0 0.9609375
vt 0 0.9953125
vt 0.00234375 0.9953125
f 116/341 120/342 117/343 113/344
vt 0.01015625 0.9953125
vt 0.00234375 0.9953125
vt 0.00234375 1
vt 0.01015625 1
f 114/345 113/346 117/347 118/348
vt 0.01796875 1
vt 0.01015625 1
vt 0.01015625 0.9953125
vt 0.01796875 0.9953125
f 119/349 120/350 116/351 115/352
vt 0.01015625 0.9609375
vt 0.00234375 0.9609375
vt 0.00234375 0.9953125
vt 0.01015625 0.9953125
f 115/353 116/354 113/355 114/356
vt 0.0203125 0.9609375
vt 0.0125 0.9609375
vt 0.0125 0.9953125
vt 0.0203125 0.9953125
f 120/357 119/358 118/359 117/360
o scope21
v 5.099999 6.65 -0.5499997
v 5.599999 6.65 -0.5499997
v 5.599999 5.95 -0.5499997
v 5.099999 5.95 -0.5499997
v 5.099999 6.85 -0.3999997
v 5.599999 6.85 -0.3999997
v 5.599999 5.75 -0.3999997
v 5.099999 5.75 -0.3999997
vt 0.0125 0.9609375
vt 0.01015625 0.9609375
vt 0.01015625 0.9953125
vt 0.0125 0.9953125
f 127/361 123/362 122/363 126/364
vt 0.00234375 0.9609375
vt 0 0.9609375
vt 0 0.9953125
vt 0.00234375 0.9953125
f 124/365 128/366 125/367 121/368
vt 0.01015625 0.9953125
vt 0.00234375 0.9953125
vt 0.00234375 1
vt 0.01015625 1
f 122/369 121/370 125/371 126/372
vt 0.01796875 1
vt 0.01015625 1
vt 0.01015625 0.9953125
vt 0.01796875 0.9953125
f 127/373 128/374 124/375 123/376
vt 0.01015625 0.9609375
vt 0.00234375 0.9609375
vt 0.00234375 0.9953125
vt 0.01015625 0.9953125
f 123/377 124/378 121/379 122/380
vt 0.0203125 0.9609375
vt 0.0125 0.9609375
vt 0.0125 0.9953125
vt 0.0203125 0.9953125
f 128/381 127/382 126/383 125/384
o scope22
v 5.199998 5.900002 -0.1999999
v 5.599998 5.900002 -0.1999999
v 5.599998 5.500002 -0.1999999
v 5.199998 5.500002 -0.1999999
v 5.199998 5.900002 0.2000001
v 5.599998 5.900002 0.2000001
v 5.599998 5.500002 0.2000001
v 5.199998 5.500002 0.2000001
vt 0.01875 0.975
vt 0.0125 0.975
vt 0.0125 0.9875
vt 0.01875 0.9875
f 135/385 131/386 130/387 134/388
vt 0.00625 0.975
vt 0 0.975
vt 0 0.9875
vt 0.00625 0.9875
f 132/389 136/390 133/391 129/392
vt 0.0125 0.9875
vt 0.00625 0.9875
vt 0.00625 1
vt 0.0125 1
f 130/393 129/394 133/395 134/396
vt 0.01875 1
vt 0.0125 1
vt 0.0125 0.9875
vt 0.01875 0.9875
f 135/397 136/398 132/399 131/400
vt 0.0125 0.975
vt 0.00625 0.975
vt 0.00625 0.9875
vt 0.0125 0.9875
f 131/401 132/402 129/403 130/404
vt 0.025 0.975
vt 0.01875 0.975
vt 0.01875 0.9875
vt 0.025 0.9875
f 136/405 135/406 134/407 133/408
o scope24
v 2 6.849998 0.4
v 2.5 6.849998 0.4
v 2.5 5.749998 0.4
v 2 5.749998 0.4
v 2 6.649998 0.55
v 2.5 6.649998 0.55
v 2.5 5.949998 0.55
v 2 5.949998 0.55
vt 0.0125 0.9609375
vt 0.01015625 0.9609375
vt 0.01015625 0.9953125
vt 0.0125 0.9953125
f 143/409 139/410 138/411 142/412
vt 0.00234375 0.9609375
vt 0 0.9609375
vt 0 0.9953125
vt 0.00234375 0.9953125
f 140/413 144/414 141/415 137/416
vt 0.01015625 0.9953125
vt 0.00234375 0.9953125
vt 0.00234375 1
vt 0.01015625 1
f 138/417 137/418 141/419 142/420
vt 0.01796875 1
vt 0.01015625 1
vt 0.01015625 0.9953125
vt 0.01796875 0.9953125
f 143/421 144/422 140/423 139/424
vt 0.01015625 0.9609375
vt 0.00234375 0.9609375
vt 0.00234375 0.9953125
vt 0.01015625 0.9953125
f 139/425 140/426 137/427 138/428
vt 0.0203125 0.9609375
vt 0.0125 0.9609375
vt 0.0125 0.9953125
vt 0.0203125 0.9953125
f 144/429 143/430 142/431 141/432
o scope25
v 2 6.649998 -0.5499997
v 2.5 6.649998 -0.5499997
v 2.5 5.949998 -0.5499997
v 2 5.949998 -0.5499997
v 2 6.849998 -0.3999997
v 2.5 6.849998 -0.3999997
v 2.5 5.749998 -0.3999997
v 2 5.749998 -0.3999997
vt 0.0125 0.9609375
vt 0.01015625 0.9609375
vt 0.01015625 0.9953125
vt 0.0125 0.9953125
f 151/433 147/434 146/435 150/436
vt 0.00234375 0.9609375
vt 0 0.9609375
vt 0 0.9953125
vt 0.00234375 0.9953125
f 148/437 152/438 149/439 145/440
vt 0.01015625 0.9953125
vt 0.00234375 0.9953125
vt 0.00234375 1
vt 0.01015625 1
f 146/441 145/442 149/443 150/444
vt 0.01796875 1
vt 0.01015625 1
vt 0.01015625 0.9953125
vt 0.01796875 0.9953125
f 151/445 152/446 148/447 147/448
vt 0.01015625 0.9609375
vt 0.00234375 0.9609375
vt 0.00234375 0.9953125
vt 0.01015625 0.9953125
f 147/449 148/450 145/451 146/452
vt 0.0203125 0.9609375
vt 0.0125 0.9609375
vt 0.0125 0.9953125
vt 0.0203125 0.9953125
f 152/453 151/454 150/455 149/456
o scope26
v 5.099999 6.849999 -0.3999998
v 5.599999 6.849999 -0.3999998
v 5.599999 5.749999 -0.3999998
v 5.099999 5.749999 -0.3999998
v 5.099999 6.849999 0.4000002
v 5.599999 6.849999 0.4000002
v 5.599999 5.749999 0.4000002
v 5.099999 5.749999 0.4000002
vt 0.0328125 0.940625
vt 0.0203125 0.940625
vt 0.0203125 0.975
vt 0.0328125 0.975
f 159/457 155/458 154/459 158/460
vt 0.0125 0.940625
vt 0 0.940625
vt 0 0.975
vt 0.0125 0.975
f 156/461 160/462 157/463 153/464
vt 0.0203125 0.975
vt 0.0125 0.975
vt 0.0125 1
vt 0.0203125 1
f 154/465 153/466 157/467 158/468
vt 0.028125 1
vt 0.0203125 1
vt 0.0203125 0.975
vt 0.028125 0.975
f 159/469 160/470 156/471 155/472
vt 0.0203125 0.940625
vt 0.0125 0.940625
vt 0.0125 0.975
vt 0.0203125 0.975
f 155/473 156/474 153/475 154/476
vt 0.040625 0.940625
vt 0.0328125 0.940625
vt 0.0328125 0.975
vt 0.040625 0.975
f 160/477 159/478 158/479 157/480
o scope27
v 2 6.849998 -0.3999999
v 2.5 6.849998 -0.3999999
v 2.5 5.749998 -0.3999999
v 2 5.749998 -0.3999999
v 2 6.849998 0.4000001
v 2.5 6.849998 0.4000001
v 2.5 5.749998 0.4000001
v 2 5.749998 0.4000001
vt 0.0328125 0.940625
vt 0.0203125 0.940625
vt 0.0203125 0.975
vt 0.0328125 0.975
f 167/481 163/482 162/483 166/484
vt 0.0125 0.940625
vt 0 0.940625
vt 0 0.975
vt 0.0125 0.975
f 164/485 168/486 165/487 161/488
vt 0.0203125 0.975
vt 0.0125 0.975
vt 0.0125 1
vt 0.0203125 1
f 162/489 161/490 165/491 166/492
vt 0.028125 1
vt 0.0203125 1
vt 0.0203125 0.975
vt 0.028125 0.975
f 167/493 168/494 164/495 163/496
vt 0.0203125 0.940625
vt 0.0125 0.940625
vt 0.0125 0.975
vt 0.0203125 0.975
f 163/497 164/498 161/499 162/500
vt 0.040625 0.940625
vt 0.0328125 0.940625
vt 0.0328125 0.975
vt 0.040625 0.975
f 168/501 167/502 166/503 165/504
o scope31
v 1.85 5.35 -0.1999999
v 2.65 5.35 -0.1999999
v 2.65 5.15 -0.1999999
v 1.85 5.15 -0.1999999
v 1.85 5.35 0.2000001
v 2.65 5.35 0.2000001
v 2.65 5.15 0.2000001
v 1.85 5.15 0.2000001
vt 0.025 0.98125
vt 0.01875 0.98125
vt 0.01875 0.9875
vt 0.025 0.9875
f 175/505 171/506 170/507 174/508
vt 0.00625 0.98125
vt 0 0.98125
vt 0 0.9875
vt 0.00625 0.9875
f 172/509 176/510 173/511 169/512
vt 0.01875 0.9875
vt 0.00625 0.9875
vt 0.00625 1
vt 0.01875 1
f 170/513 169/514 173/515 174/516
vt 0.03125 1
vt 0.01875 1
vt 0.01875 0.9875
vt 0.03125 0.9875
f 175/517 176/518 172/519 171/520
vt 0.01875 0.98125
vt 0.00625 0.98125
vt 0.00625 0.9875
vt 0.01875 0.9875
f 171/521 172/522 169/523 170/524
vt 0.0375 0.98125
vt 0.025 0.98125
vt 0.025 0.9875
vt 0.0375 0.9875
f 176/525 175/526 174/527 173/528
o scope32
v 1.000001 6.899999 -0.2999998
v 1.300001 6.799999 -0.1999998
v 1.300001 6.699999 -0.3999998
v 1.000001 6.799999 -0.4999998
v 1.000001 6.899999 0.3000002
v 1.300001 6.799999 0.2000002
v 1.300001 6.699999 0.4000002
v 1.000001 6.799999 0.5000002
vt 0.0359375 0.965625
vt 0.0203125 0.965625
vt 0.0203125 0.96875
vt 0.0359375 0.96875
f 183/529 179/530 178/531 182/532
vt 0.015625 0.965625
vt 0 0.965625
vt 0 0.96875
vt 0.015625 0.96875
f 180/533 184/534 181/535 177/536
vt 0.0203125 0.96875
vt 0.015625 0.96875
vt 0.015625 1
vt 0.0203125 1
f 178/537 177/538 181/539 182/540
vt 0.025 1
vt 0.0203125 1
vt 0.0203125 0.96875
vt 0.025 0.96875
f 183/541 184/542 180/543 179/544
vt 0.0203125 0.965625
vt 0.015625 0.965625
vt 0.015625 0.96875
vt 0.0203125 0.96875
f 179/545 180/546 177/547 178/548
vt 0.040625 0.965625
vt 0.0359375 0.965625
vt 0.0359375 0.96875
vt 0.040625 0.96875
f 184/549 183/550 182/551 181/552
o scope33
v 1.3 6.799999 -0.1999999
v 5.9 6.799999 -0.1999999
v 5.9 6.699999 -0.3999999
v 1.3 6.699999 -0.3999999
v 1.3 6.799999 0.2000001
v 5.9 6.799999 0.2000001
v 5.9 6.699999 0.4000001
v 1.3 6.699999 0.4000001
vt 0.096875 0.971875
vt 0.084375 0.971875
vt 0.084375 0.975
vt 0.096875 0.975
f 191/553 187/554 186/555 190/556
vt 0.0125 0.971875
vt 0 0.971875
vt 0 0.975
vt 0.0125 0.975
f 188/557 192/558 189/559 185/560
vt 0.084375 0.975
vt 0.0125 0.975
vt 0.0125 1
vt 0.084375 1
f 186/561 185/562 189/563 190/564
vt 0.15625 1
vt 0.084375 1
vt 0.084375 0.975
vt 0.15625 0.975
f 191/565 192/566 188/567 187/568
vt 0.084375 0.971875
vt 0.0125 0.971875
vt 0.0125 0.975
vt 0.084375 0.975
f 187/569 188/570 185/571 186/572
vt 0.16875 0.971875
vt 0.096875 0.971875
vt 0.096875 0.975
vt 0.16875 0.975
f 192/573 191/574 190/575 189/576
o scope34
v 1.000001 6.799997 0.5
v 1.300001 6.699997 0.4
v 1.300001 5.899997 0.4
v 1.000001 5.799997 0.5
v 1.000001 6.599997 0.6
v 1.300001 6.499997 0.5
v 1.300001 6.099997 0.5
v 1.000001 5.999997 0.6
vt 0.0078125 0.965625
vt 0.00625 0.965625
vt 0.00625 0.996875
vt 0.0078125 0.996875
f 199/577 195/578 194/579 198/580
vt 0.0015625 0.965625
vt 0 0.965625
vt 0 0.996875
vt 0.0015625 0.996875
f 196/581 200/582 197/583 193/584
vt 0.00625 0.996875
vt 0.0015625 0.996875
vt 0.0015625 1
vt 0.00625 1
f 194/585 193/586 197/587 198/588
vt 0.0109375 1
vt 0.00625 1
vt 0.00625 0.996875
vt 0.0109375 0.996875
f 199/589 200/590 196/591 195/592
vt 0.00625 0.965625
vt 0.0015625 0.965625
vt 0.0015625 0.996875
vt 0.00625 0.996875
f 195/593 196/594 193/595 194/596
vt 0.0125 0.965625
vt 0.0078125 0.965625
vt 0.0078125 0.996875
vt 0.0125 0.996875
f 200/597 199/598 198/599 197/600
o scope35
v 1.3 6.699998 0.4
v 5.9 6.699998 0.4
v 5.9 5.899998 0.4
v 1.3 5.899998 0.4
v 1.3 6.499998 0.5
v 5.9 6.499998 0.5
v 5.9 6.099998 0.5
v 1.3 6.099998 0.5
vt 0.075 0.971875
vt 0.0734375 0.971875
vt 0.0734375 0.996875
vt 0.075 0.996875
f 207/601 203/602 202/603 206/604
vt 0.0015625 0.971875
vt 0 0.971875
vt 0 0.996875
vt 0.0015625 0.996875
f 204/605 208/606 205/607 201/608
vt 0.0734375 0.996875
vt 0.0015625 0.996875
vt 0.0015625 1
vt 0.0734375 1
f 202/609 201/610 205/611 206/612
vt 0.1453125 1
vt 0.0734375 1
vt 0.0734375 0.996875
vt 0.1453125 0.996875
f 207/613 208/614 204/615 203/616
vt 0.0734375 0.971875
vt 0.0015625 0.971875
vt 0.0015625 0.996875
vt 0.0734375 0.996875
f 203/617 204/618 201/619 202/620
vt 0.146875 0.971875
vt 0.075 0.971875
vt 0.075 0.996875
vt 0.146875 0.996875
f 208/621 207/622 206/623 205/624
o scope36
v 1.000001 6.599999 -0.5999998
v 1.300001 6.499999 -0.4999998
v 1.300001 6.099999 -0.4999998
v 1.000001 5.999999 -0.5999998
v 1.000001 6.799999 -0.4999998
v 1.300001 6.699999 -0.3999998
v 1.300001 5.899999 -0.3999998
v 1.000001 5.799999 -0.4999998
vt 0.0078125 0.965625
vt 0.00625 0.965625
vt 0.00625 0.996875
vt 0.0078125 0.996875
f 215/625 211/626 210/627 214/628
vt 0.0015625 0.965625
vt 0 0.965625
vt 0 0.996875
vt 0.0015625 0.996875
f 212/629 216/630 213/631 209/632
vt 0.00625 0.996875
vt 0.0015625 0.996875
vt 0.0015625 1
vt 0.00625 1
f 210/633 209/634 213/635 214/636
vt 0.0109375 1
vt 0.00625 1
vt 0.00625 0.996875
vt 0.0109375 0.996875
f 215/637 216/638 212/639 211/640
vt 0.00625 0.965625
vt 0.0015625 0.965625
vt 0.0015625 0.996875
vt 0.00625 0.996875
f 211/641 212/642 209/643 210/644
vt 0.0125 0.965625
vt 0.0078125 0.965625
vt 0.0078125 0.996875
vt 0.0125 0.996875
f 216/645 215/646 214/647 213/648
o scope37
v 1.3 6.499999 -0.4999998
v 5.9 6.499999 -0.4999998
v 5.9 6.099999 -0.4999998
v 1.3 6.099999 -0.4999998
v 1.3 6.699999 -0.3999998
v 5.9 6.699999 -0.3999998
v 5.9 5.899999 -0.3999998
v 1.3 5.899999 -0.3999998
vt 0.075 0.971875
vt 0.0734375 0.971875
vt 0.0734375 0.996875
vt 0.075 0.996875
f 223/649 219/650 218/651 222/652
vt 0.0015625 0.971875
vt 0 0.971875
vt 0 0.996875
vt 0.0015625 0.996875
f 220/653 224/654 221/655 217/656
vt 0.0734375 0.996875
vt 0.0015625 0.996875
vt 0.0015625 1
vt 0.0734375 1
f 218/657 217/658 221/659 222/660
vt 0.1453125 1
vt 0.0734375 1
vt 0.0734375 0.996875
vt 0.1453125 0.996875
f 223/661 224/662 220/663 219/664
vt 0.0734375 0.971875
vt 0.0015625 0.971875
vt 0.0015625 0.996875
vt 0.0734375 0.996875
f 219/665 220/666 217/667 218/668
vt 0.146875 0.971875
vt 0.075 0.971875
vt 0.075 0.996875
vt 0.146875 0.996875
f 224/669 223/670 222/671 221/672
o scope38
v 1 5.799998 -0.4999998
v 1.3 5.899998 -0.3999998
v 1.3 5.799998 -0.1999998
v 1 5.699998 -0.2999998
v 1 5.799998 0.5000002
v 1.3 5.899998 0.4000002
v 1.3 5.799998 0.2000002
v 1 5.699998 0.3000002
vt 0.0359375 0.965625
vt 0.0203125 0.965625
vt 0.0203125 0.96875
vt 0.0359375 0.96875
f 231/673 227/674 226/675 230/676
vt 0.015625 0.965625
vt 0 0.965625
vt 0 0.96875
vt 0.015625 0.96875
f 228/677 232/678 229/679 225/680
vt 0.0203125 0.96875
vt 0.015625 0.96875
vt 0.015625 1
vt 0.0203125 1
f 226/681 225/682 229/683 230/684
vt 0.025 1
vt 0.0203125 1
vt 0.0203125 0.96875
vt 0.025 0.96875
f 231/685 232/686 228/687 227/688
vt 0.0203125 0.965625
vt 0.015625 0.965625
vt 0.015625 0.96875
vt 0.0203125 0.96875
f 227/689 228/690 225/691 226/692
vt 0.040625 0.965625
vt 0.0359375 0.965625
vt 0.0359375 0.96875
vt 0.040625 0.96875
f 232/693 231/694 230/695 229/696
o scope39
v 1.3 5.899998 -0.3999998
v 5.9 5.899998 -0.3999998
v 5.9 5.799998 -0.1999998
v 1.3 5.799998 -0.1999998
v 1.3 5.899998 0.4000002
v 5.9 5.899998 0.4000002
v 5.9 5.799998 0.2000002
v 1.3 5.799998 0.2000002
vt 0.096875 0.971875
vt 0.084375 0.971875
vt 0.084375 0.975
vt 0.096875 0.975
f 239/697 235/698 234/699 238/700
vt 0.0125 0.971875
vt 0 0.971875
vt 0 0.975
vt 0.0125 0.975
f 236/701 240/702 237/703 233/704
vt 0.084375 0.975
vt 0.0125 0.975
vt 0.0125 1
vt 0.084375 1
f 234/705 233/706 237/707 238/708
vt 0.15625 1
vt 0.084375 1
vt 0.084375 0.975
vt 0.15625 0.975
f 239/709 240/710 236/711 235/712
vt 0.084375 0.971875
vt 0.0125 0.971875
vt 0.0125 0.975
vt 0.084375 0.975
f 235/713 236/714 233/715 234/716
vt 0.16875 0.971875
vt 0.096875 0.971875
vt 0.096875 0.975
vt 0.16875 0.975
f 240/717 239/718 238/719 237/720
o scope40
v 2 5.749999 -0.1999999
v 2.5 5.749999 -0.1999999
v 2.5 5.649999 -0.1999999
v 2 5.649999 -0.1999999
v 2 5.749999 0.2000001
v 2.5 5.749999 0.2000001
v 2.5 5.649999 0.2000001
v 2 5.649999 0.2000001
vt 0.0203125 0.984375
vt 0.0140625 0.984375
vt 0.0140625 0.9875
vt 0.0203125 0.9875
f 247/721 243/722 242/723 246/724
vt 0.00625 0.984375
vt 0 0.984375
vt 0 0.9875
vt 0.00625 0.9875
f 244/725 248/726 245/727 241/728
vt 0.0140625 0.9875
vt 0.00625 0.9875
vt 0.00625 1
vt 0.0140625 1
f 242/729 241/730 245/731 246/732
vt 0.021875 1
vt 0.0140625 1
vt 0.0140625 0.9875
vt 0.021875 0.9875
f 247/733 248/734 244/735 243/736
vt 0.0140625 0.984375
vt 0.00625 0.984375
vt 0.00625 0.9875
vt 0.0140625 0.9875
f 243/737 244/738 241/739 242/740
vt 0.028125 0.984375
vt 0.0203125 0.984375
vt 0.0203125 0.9875
vt 0.028125 0.9875
f 248/741 247/742 246/743 245/744
o scope43
v 4.999999 5.499999 -0.1
v 5.799999 5.499999 -0.1
v 5.799999 5.149999 -0.1
v 4.999999 5.149999 -0.1
v 4.999999 5.499999 0.1
v 5.799999 5.499999 0.1
v 5.799999 5.149999 0.1
v 4.999999 5.149999 0.1
vt 0.01875 0.9828125
vt 0.015625 0.9828125
vt 0.015625 0.99375
vt 0.01875 0.99375
f 255/745 251/746 250/747 254/748
vt 0.003125 0.9828125
vt 0 0.9828125
vt 0 0.99375
vt 0.003125 0.99375
f 252/749 256/750 253/751 249/752
vt 0.015625 0.99375
vt 0.003125 0.99375
vt 0.003125 1
vt 0.015625 1
f 250/753 249/754 253/755 254/756
vt 0.028125 1
vt 0.015625 1
vt 0.015625 0.99375
vt 0.028125 0.99375
f 255/757 256/758 252/759 251/760
vt 0.015625 0.9828125
vt 0.003125 0.9828125
vt 0.003125 0.99375
vt 0.015625 0.99375
f 251/761 252/762 249/763 250/764
vt 0.03125 0.9828125
vt 0.01875 0.9828125
vt 0.01875 0.99375
vt 0.03125 0.99375
f 256/765 255/766 254/767 253/768
o scope44
v 4.999999 5.499999 0.1000001
v 5.799999 5.499999 0.1000001
v 5.799999 5.149999 0.1000001
v 4.999999 5.149999 0.1000001
v 5.099999 5.499999 0.3000001
v 5.699999 5.499999 0.3000001
v 5.699999 5.149999 0.3000001
v 5.099999 5.149999 0.3000001
vt 0.01875 0.9828125
vt 0.015625 0.9828125
vt 0.015625 0.99375
vt 0.01875 0.99375
f 263/769 259/770 258/771 262/772
vt 0.003125 0.9828125
vt 0 0.9828125
vt 0 0.99375
vt 0.003125 0.99375
f 260/773 264/774 261/775 257/776
vt 0.015625 0.99375
vt 0.003125 0.99375
vt 0.003125 1
vt 0.015625 1
f 258/777 257/778 261/779 262/780
vt 0.028125 1
vt 0.015625 1
vt 0.015625 0.99375
vt 0.028125 0.99375
f 263/781 264/782 260/783 259/784
vt 0.015625 0.9828125
vt 0.003125 0.9828125
vt 0.003125 0.99375
vt 0.015625 0.99375
f 259/785 260/786 257/787 258/788
vt 0.03125 0.9828125
vt 0.01875 0.9828125
vt 0.01875 0.99375
vt 0.03125 0.99375
f 264/789 263/790 262/791 261/792
o scope45
v 5.099999 5.5 -0.3
v 5.699999 5.5 -0.3
v 5.699999 5.15 -0.3
v 5.099999 5.15 -0.3
v 4.999999 5.5 -0.1
v 5.799999 5.5 -0.1
v 5.799999 5.15 -0.1
v 4.999999 5.15 -0.1
vt 0.01875 0.9828125
vt 0.015625 0.9828125
vt 0.015625 0.99375
vt 0.01875 0.99375
f 271/793 267/794 266/795 270/796
vt 0.003125 0.9828125
vt 0 0.9828125
vt 0 0.99375
vt 0.003125 0.99375
f 268/797 272/798 269/799 265/800
vt 0.015625 0.99375
vt 0.003125 0.99375
vt 0.003125 1
vt 0.015625 1
f 266/801 265/802 269/803 270/804
vt 0.028125 1
vt 0.015625 1
vt 0.015625 0.99375
vt 0.028125 0.99375
f 271/805 272/806 268/807 267/808
vt 0.015625 0.9828125
vt 0.003125 0.9828125
vt 0.003125 0.99375
vt 0.015625 0.99375
f 267/809 268/810 265/811 266/812
vt 0.03125 0.9828125
vt 0.01875 0.9828125
vt 0.01875 0.99375
vt 0.03125 0.99375
f 272/813 271/814 270/815 269/816
o scope46
v 5.9 6.699998 0.4
v 6.4 6.799998 0.5
v 6.4 5.799998 0.5
v 5.9 5.899998 0.4
v 5.9 6.499998 0.5
v 6.4 6.599998 0.6
v 6.4 5.999998 0.6
v 5.9 6.099998 0.5
vt 0.0109375 0.971875
vt 0.009375 0.971875
vt 0.009375 0.996875
vt 0.0109375 0.996875
f 279/817 275/818 274/819 278/820
vt 0.0015625 0.971875
vt 0 0.971875
vt 0 0.996875
vt 0.0015625 0.996875
f 276/821 280/822 277/823 273/824
vt 0.009375 0.996875
vt 0.0015625 0.996875
vt 0.0015625 1
vt 0.009375 1
f 274/825 273/826 277/827 278/828
vt 0.0171875 1
vt 0.009375 1
vt 0.009375 0.996875
vt 0.0171875 0.996875
f 279/829 280/830 276/831 275/832
vt 0.009375 0.971875
vt 0.0015625 0.971875
vt 0.0015625 0.996875
vt 0.009375 0.996875
f 275/833 276/834 273/835 274/836
vt 0.01875 0.971875
vt 0.0109375 0.971875
vt 0.0109375 0.996875
vt 0.01875 0.996875
f 280/837 279/838 278/839 277/840
o scope47
v 6.399999 6.799997 0.5
v 7.899999 6.799997 0.5
v 7.899999 5.799997 0.5
v 6.399999 5.799997 0.5
v 6.399999 6.599997 0.6
v 7.899999 6.599997 0.6
v 7.899999 5.999997 0.6
v 6.399999 5.999997 0.6
vt 0.0265625 0.965625
vt 0.025 0.965625
vt 0.025 0.996875
vt 0.0265625 0.996875
f 287/841 283/842 282/843 286/844
vt 0.0015625 0.965625
vt 0 0.965625
vt 0 0.996875
vt 0.0015625 0.996875
f 284/845 288/846 285/847 281/848
vt 0.025 0.996875
vt 0.0015625 0.996875
vt 0.0015625 1
vt 0.025 1
f 282/849 281/850 285/851 286/852
vt 0.0484375 1
vt 0.025 1
vt 0.025 0.996875
vt 0.0484375 0.996875
f 287/853 288/854 284/855 283/856
vt 0.025 0.965625
vt 0.0015625 0.965625
vt 0.0015625 0.996875
vt 0.025 0.996875
f 283/857 284/858 281/859 282/860
vt 0.05 0.965625
vt 0.0265625 0.965625
vt 0.0265625 0.996875
vt 0.05 0.996875
f 288/861 287/862 286/863 285/864
o scope48
v 6.4 6.899997 -0.2999998
v 7.9 6.899997 -0.2999998
v 7.9 6.799997 -0.4999998
v 6.4 6.799997 -0.4999998
v 6.4 6.899997 0.3000002
v 7.9 6.899997 0.3000002
v 7.9 6.799997 0.5000002
v 6.4 6.799997 0.5000002
vt 0.0546875 0.965625
vt 0.0390625 0.965625
vt 0.0390625 0.96875
vt 0.0546875 0.96875
f 295/865 291/866 290/867 294/868
vt 0.015625 0.965625
vt 0 0.965625
vt 0 0.96875
vt 0.015625 0.96875
f 292/869 296/870 293/871 289/872
vt 0.0390625 0.96875
vt 0.015625 0.96875
vt 0.015625 1
vt 0.0390625 1
f 290/873 289/874 293/875 294/876
vt 0.0625 1
vt 0.0390625 1
vt 0.0390625 0.96875
vt 0.0625 0.96875
f 295/877 296/878 292/879 291/880
vt 0.0390625 0.965625
vt 0.015625 0.965625
vt 0.015625 0.96875
vt 0.0390625 0.96875
f 291/881 292/882 289/883 290/884
vt 0.078125 0.965625
vt 0.0546875 0.965625
vt 0.0546875 0.96875
vt 0.078125 0.96875
f 296/885 295/886 294/887 293/888
o scope49
v 6.399999 6.6 -0.5999998
v 7.899999 6.6 -0.5999998
v 7.899999 6 -0.5999998
v 6.399999 6 -0.5999998
v 6.399999 6.8 -0.4999998
v 7.899999 6.8 -0.4999998
v 7.899999 5.8 -0.4999998
v 6.399999 5.8 -0.4999998
vt 0.0265625 0.965625
vt 0.025 0.965625
vt 0.025 0.996875
vt 0.0265625 0.996875
f 303/889 299/890 298/891 302/892
vt 0.0015625 0.965625
vt 0 0.965625
vt 0 0.996875
vt 0.0015625 0.996875
f 300/893 304/894 301/895 297/896
vt 0.025 0.996875
vt 0.0015625 0.996875
vt 0.0015625 1
vt 0.025 1
f 298/897 297/898 301/899 302/900
vt 0.0484375 1
vt 0.025 1
vt 0.025 0.996875
vt 0.0484375 0.996875
f 303/901 304/902 300/903 299/904
vt 0.025 0.965625
vt 0.0015625 0.965625
vt 0.0015625 0.996875
vt 0.025 0.996875
f 299/905 300/906 297/907 298/908
vt 0.05 0.965625
vt 0.0265625 0.965625
vt 0.0265625 0.996875
vt 0.05 0.996875
f 304/909 303/910 302/911 301/912
o scope50
v 6.399998 5.799999 -0.4999998
v 7.899998 5.799999 -0.4999998
v 7.899998 5.699999 -0.2999998
v 6.399998 5.699999 -0.2999998
v 6.399998 5.799999 0.5000002
v 7.899998 5.799999 0.5000002
v 7.899998 5.699999 0.3000002
v 6.399998 5.699999 0.3000002
vt 0.0546875 0.965625
vt 0.0390625 0.965625
vt 0.0390625 0.96875
vt 0.0546875 0.96875
f 311/913 307/914 306/915 310/916
vt 0.015625 0.965625
vt 0 0.965625
vt 0 0.96875
vt 0.015625 0.96875
f 308/917 312/918 309/919 305/920
vt 0.0390625 0.96875
vt 0.015625 0.96875
vt 0.015625 1
vt 0.0390625 1
f 306/921 305/922 309/923 310/924
vt 0.0625 1
vt 0.0390625 1
vt 0.0390625 0.96875
vt 0.0625 0.96875
f 311/925 312/926 308/927 307/928
vt 0.0390625 0.965625
vt 0.015625 0.965625
vt 0.015625 0.96875
vt 0.0390625 0.96875
f 307/929 308/930 305/931 306/932
vt 0.078125 0.965625
vt 0.0546875 0.965625
vt 0.0546875 0.96875
vt 0.078125 0.96875
f 312/933 311/934 310/935 309/936
o scope51
v 5.9 6.799998 -0.2
v 6.4 6.899998 -0.3
v 6.4 6.799998 -0.5
v 5.9 6.699998 -0.4
v 5.9 6.799998 0.2
v 6.4 6.899998 0.3
v 6.4 6.799998 0.5
v 5.9 6.699998 0.4
vt 0.0328125 0.971875
vt 0.0203125 0.971875
vt 0.0203125 0.975
vt 0.0328125 0.975
f 319/937 315/938 314/939 318/940
vt 0.0125 0.971875
vt 0 0.971875
vt 0 0.975
vt 0.0125 0.975
f 316/941 320/942 317/943 313/944
vt 0.0203125 0.975
vt 0.0125 0.975
vt 0.0125 1
vt 0.0203125 1
f 314/945 313/946 317/947 318/948
vt 0.028125 1
vt 0.0203125 1
vt 0.0203125 0.975
vt 0.028125 0.975
f 319/949 320/950 316/951 315/952
vt 0.0203125 0.971875
vt 0.0125 0.971875
vt 0.0125 0.975
vt 0.0203125 0.975
f 315/953 316/954 313/955 314/956
vt 0.040625 0.971875
vt 0.0328125 0.971875
vt 0.0328125 0.975
vt 0.040625 0.975
f 320/957 319/958 318/959 317/960
o scope52
v 5.899998 6.5 -0.5
v 6.399998 6.6 -0.6
v 6.399998 6 -0.6
v 5.899998 6.1 -0.5
v 5.899998 6.7 -0.4
v 6.399998 6.8 -0.5
v 6.399998 5.8 -0.5
v 5.899998 5.9 -0.4
vt 0.0109375 0.971875
vt 0.009375 0.971875
vt 0.009375 0.996875
vt 0.0109375 0.996875
f 327/961 323/962 322/963 326/964
vt 0.0015625 0.971875
vt 0 0.971875
vt 0 0.996875
vt 0.0015625 0.996875
f 324/965 328/966 325/967 321/968
vt 0.009375 0.996875
vt 0.0015625 0.996875
vt 0.0015625 1
vt 0.009375 1
f 322/969 321/970 325/971 326/972
vt 0.0171875 1
vt 0.009375 1
vt 0.009375 0.996875
vt 0.0171875 0.996875
f 327/973 328/974 324/975 323/976
vt 0.009375 0.971875
vt 0.0015625 0.971875
vt 0.0015625 0.996875
vt 0.009375 0.996875
f 323/977 324/978 321/979 322/980
vt 0.01875 0.971875
vt 0.0109375 0.971875
vt 0.0109375 0.996875
vt 0.01875 0.996875
f 328/981 327/982 326/983 325/984
o scope53
v 5.9 5.899999 -0.3999998
v 6.4 5.799999 -0.4999998
v 6.4 5.699999 -0.2999998
v 5.9 5.799999 -0.1999998
v 5.9 5.899999 0.4000002
v 6.4 5.799999 0.5000002
v 6.4 5.699999 0.3000002
v 5.9 5.799999 0.2000002
vt 0.0328125 0.971875
vt 0.0203125 0.971875
vt 0.0203125 0.975
vt 0.0328125 0.975
f 335/985 331/986 330/987 334/988
vt 0.0125 0.971875
vt 0 0.971875
vt 0 0.975
vt 0.0125 0.975
f 332/989 336/990 333/991 329/992
vt 0.0203125 0.975
vt 0.0125 0.975
vt 0.0125 1
vt 0.0203125 1
f 330/993 329/994 333/995 334/996
vt 0.028125 1
vt 0.0203125 1
vt 0.0203125 0.975
vt 0.028125 0.975
f 335/997 336/998 332/999 331/1000
vt 0.0203125 0.971875
vt 0.0125 0.971875
vt 0.0125 0.975
vt 0.0203125 0.975
f 331/1001 332/1002 329/1003 330/1004
vt 0.040625 0.971875
vt 0.0328125 0.971875
vt 0.0328125 0.975
vt 0.040625 0.975
f 336/1005 335/1006 334/1007 333/1008
