# Converted from Decimation Beardie model: newsstand2.bmodel
# Coordinates retain the original Beardie model units.
mtllib newsstand2.mtl
usemtl newsstand2_material
o baseModel0
v -8 1 -5
v 8 1 -5
v 8 -0 -5
v -8 -0 -5
v -8 1 5
v 8 1 5
v 8 -0 5
v -8 -0 5
vt 0.2890625 0.8125
vt 0.2109375 0.8125
vt 0.2109375 0.828125
vt 0.2890625 0.828125
f 7/1 3/2 2/3 6/4
vt 0.0859375 0.8125
vt 0.0078125 0.8125
vt 0.0078125 0.828125
vt 0.0859375 0.828125
f 4/5 8/6 5/7 1/8
vt 0.2109375 0.828125
vt 0.0859375 0.828125
vt 0.0859375 0.984375
vt 0.2109375 0.984375
f 2/9 1/10 5/11 6/12
vt 0.3359375 0.984375
vt 0.2109375 0.984375
vt 0.2109375 0.828125
vt 0.3359375 0.828125
f 7/13 8/14 4/15 3/16
vt 0.2109375 0.8125
vt 0.0859375 0.8125
vt 0.0859375 0.828125
vt 0.2109375 0.828125
f 3/17 4/18 1/19 2/20
vt 0.4140625 0.8125
vt 0.2890625 0.8125
vt 0.2890625 0.828125
vt 0.4140625 0.828125
f 8/21 7/22 6/23 5/24
o baseModel1
v -1.5 14 -1.5
v 1.5 14 -1.5
v 1.5 1 -1.5
v -1.5 1 -1.5
v -1.5 14 1.5
v 1.5 14 1.5
v 1.5 1 1.5
v -1.5 1 1.5
vt 0.515625 0.734375
vt 0.4921875 0.734375
vt 0.4921875 0.9375
vt 0.515625 0.9375
f 15/25 11/26 10/27 14/28
vt 0.46875 0.734375
vt 0.4453125 0.734375
vt 0.4453125 0.9375
vt 0.46875 0.9375
f 12/29 16/30 13/31 9/32
vt 0.4921875 0.9375
vt 0.46875 0.9375
vt 0.46875 0.984375
vt 0.4921875 0.984375
f 10/33 9/34 13/35 14/36
vt 0.515625 0.984375
vt 0.4921875 0.984375
vt 0.4921875 0.9375
vt 0.515625 0.9375
f 15/37 16/38 12/39 11/40
vt 0.4921875 0.734375
vt 0.46875 0.734375
vt 0.46875 0.9375
vt 0.4921875 0.9375
f 11/41 12/42 9/43 10/44
vt 0.5390625 0.734375
vt 0.515625 0.734375
vt 0.515625 0.9375
vt 0.5390625 0.9375
f 16/45 15/46 14/47 13/48
o baseModel2
v -6.5 15 -4
v 6.5 15 -4
v 6.5 14 -4
v -6.5 14 -4
v -6.5 15 4
v 6.5 15 4
v 6.5 14 4
v -6.5 14 4
vt 0.796875 0.84375
vt 0.734375 0.84375
vt 0.734375 0.859375
vt 0.796875 0.859375
f 23/49 19/50 18/51 22/52
vt 0.6328125 0.84375
vt 0.5703125 0.84375
vt 0.5703125 0.859375
vt 0.6328125 0.859375
f 20/53 24/54 21/55 17/56
vt 0.734375 0.859375
vt 0.6328125 0.859375
vt 0.6328125 0.984375
vt 0.734375 0.984375
f 18/57 17/58 21/59 22/60
vt 0.8359375 0.984375
vt 0.734375 0.984375
vt 0.734375 0.859375
vt 0.8359375 0.859375
f 23/61 24/62 20/63 19/64
vt 0.734375 0.84375
vt 0.6328125 0.84375
vt 0.6328125 0.859375
vt 0.734375 0.859375
f 19/65 20/66 17/67 18/68
vt 0.8984375 0.84375
vt 0.796875 0.84375
vt 0.796875 0.859375
vt 0.8984375 0.859375
f 24/69 23/70 22/71 21/72
o baseModel3
v -6.5 22 -4
v -5.5 22 -4
v -5.5 15 -4
v -6.5 15 -4
v -6.5 22 3
v -5.5 22 3
v -5.5 15 3
v -6.5 15 3
vt 0.125 0.515625
vt 0.0703125 0.515625
vt 0.0703125 0.625
vt 0.125 0.625
f 31/73 27/74 26/75 30/76
vt 0.0625 0.515625
vt 0.0078125 0.515625
vt 0.0078125 0.625
vt 0.0625 0.625
f 28/77 32/78 29/79 25/80
vt 0.0703125 0.625
vt 0.0625 0.625
vt 0.0625 0.734375
vt 0.0703125 0.734375
f 26/81 25/82 29/83 30/84
vt 0.078125 0.734375
vt 0.0703125 0.734375
vt 0.0703125 0.625
vt 0.078125 0.625
f 31/85 32/86 28/87 27/88
vt 0.0703125 0.515625
vt 0.0625 0.515625
vt 0.0625 0.625
vt 0.0703125 0.625
f 27/89 28/90 25/91 26/92
vt 0.1328125 0.515625
vt 0.125 0.515625
vt 0.125 0.625
vt 0.1328125 0.625
f 32/93 31/94 30/95 29/96
o baseModel4
v 5.5 22 -4
v 6.5 22 -4
v 6.5 15 -4
v 5.5 15 -4
v 5.5 22 3
v 6.5 22 3
v 6.5 15 3
v 5.5 15 3
vt 0.3125 0.515625
vt 0.2578125 0.515625
vt 0.2578125 0.625
vt 0.3125 0.625
f 39/97 35/98 34/99 38/100
vt 0.25 0.515625
vt 0.1953125 0.515625
vt 0.1953125 0.625
vt 0.25 0.625
f 36/101 40/102 37/103 33/104
vt 0.2578125 0.625
vt 0.25 0.625
vt 0.25 0.734375
vt 0.2578125 0.734375
f 34/105 33/106 37/107 38/108
vt 0.265625 0.734375
vt 0.2578125 0.734375
vt 0.2578125 0.625
vt 0.265625 0.625
f 39/109 40/110 36/111 35/112
vt 0.2578125 0.515625
vt 0.25 0.515625
vt 0.25 0.625
vt 0.2578125 0.625
f 35/113 36/114 33/115 34/116
vt 0.3203125 0.515625
vt 0.3125 0.515625
vt 0.3125 0.625
vt 0.3203125 0.625
f 40/117 39/118 38/119 37/120
o baseModel5
v -5.5 22 -4
v 5.5 22 -4
v 5.5 15 -4
v -5.5 15 -4
v -5.5 22 -3
v 5.5 22 -3
v 5.5 15 -3
v -5.5 15 -3
vt 0.671875 0.609375
vt 0.6640625 0.609375
vt 0.6640625 0.71875
vt 0.671875 0.71875
f 47/121 43/122 42/123 46/124
vt 0.578125 0.609375
vt 0.5703125 0.609375
vt 0.5703125 0.71875
vt 0.578125 0.71875
f 44/125 48/126 45/127 41/128
vt 0.6640625 0.71875
vt 0.578125 0.71875
vt 0.578125 0.734375
vt 0.6640625 0.734375
f 42/129 41/130 45/131 46/132
vt 0.75 0.734375
vt 0.6640625 0.734375
vt 0.6640625 0.71875
vt 0.75 0.71875
f 47/133 48/134 44/135 43/136
vt 0.6640625 0.609375
vt 0.578125 0.609375
vt 0.578125 0.71875
vt 0.6640625 0.71875
f 43/137 44/138 41/139 42/140
vt 0.7578125 0.609375
vt 0.671875 0.609375
vt 0.671875 0.71875
vt 0.7578125 0.71875
f 48/141 47/142 46/143 45/144
o baseModel6
v -6.5 23 -4
v 6.5 23 -4
v 6.5 22 -4
v -6.5 22 -4
v -6.5 23 3
v 6.5 23 3
v 6.5 22 3
v -6.5 22 3
vt 0.21875 0.359375
vt 0.1640625 0.359375
vt 0.1640625 0.375
vt 0.21875 0.375
f 55/145 51/146 50/147 54/148
vt 0.0625 0.359375
vt 0.0078125 0.359375
vt 0.0078125 0.375
vt 0.0625 0.375
f 52/149 56/150 53/151 49/152
vt 0.1640625 0.375
vt 0.0625 0.375
vt 0.0625 0.484375
vt 0.1640625 0.484375
f 50/153 49/154 53/155 54/156
vt 0.265625 0.484375
vt 0.1640625 0.484375
vt 0.1640625 0.375
vt 0.265625 0.375
f 55/157 56/158 52/159 51/160
vt 0.1640625 0.359375
vt 0.0625 0.359375
vt 0.0625 0.375
vt 0.1640625 0.375
f 51/161 52/162 49/163 50/164
vt 0.3203125 0.359375
vt 0.21875 0.359375
vt 0.21875 0.375
vt 0.3203125 0.375
f 56/165 55/166 54/167 53/168
o baseModel7
v 5.51 21.80169 2.009611
v 6.51 21.80169 2.009611
v 6.51 14.86897 2.977773
v 5.51 14.86897 2.977773
v 5.51 21.94 3
v 6.51 21.94 3
v 6.51 15.00728 3.968162
v 5.51 15.00728 3.968162
vt 0.03125 0.859375
vt 0.0234375 0.859375
vt 0.0234375 0.96875
vt 0.03125 0.96875
f 63/169 59/170 58/171 62/172
vt 0.015625 0.859375
vt 0.0078125 0.859375
vt 0.0078125 0.96875
vt 0.015625 0.96875
f 60/173 64/174 61/175 57/176
vt 0.0234375 0.96875
vt 0.015625 0.96875
vt 0.015625 0.984375
vt 0.0234375 0.984375
f 58/177 57/178 61/179 62/180
vt 0.03125 0.984375
vt 0.0234375 0.984375
vt 0.0234375 0.96875
vt 0.03125 0.96875
f 63/181 64/182 60/183 59/184
vt 0.0234375 0.859375
vt 0.015625 0.859375
vt 0.015625 0.96875
vt 0.0234375 0.96875
f 59/185 60/186 57/187 58/188
vt 0.0390625 0.859375
vt 0.03125 0.859375
vt 0.03125 0.96875
vt 0.0390625 0.96875
f 64/189 63/190 62/191 61/192
o baseModel8
v -6.49 21.80169 2.009611
v -5.49 21.80169 2.009611
v -5.49 14.86897 2.977773
v -6.49 14.86897 2.977773
v -6.49 21.94 3
v -5.49 21.94 3
v -5.49 15.00728 3.968162
v -6.49 15.00728 3.968162
vt 0.40625 0.859375
vt 0.3984375 0.859375
vt 0.3984375 0.96875
vt 0.40625 0.96875
f 71/193 67/194 66/195 70/196
vt 0.390625 0.859375
vt 0.3828125 0.859375
vt 0.3828125 0.96875
vt 0.390625 0.96875
f 68/197 72/198 69/199 65/200
vt 0.3984375 0.96875
vt 0.390625 0.96875
vt 0.390625 0.984375
vt 0.3984375 0.984375
f 66/201 65/202 69/203 70/204
vt 0.40625 0.984375
vt 0.3984375 0.984375
vt 0.3984375 0.96875
vt 0.40625 0.96875
f 71/205 72/206 68/207 67/208
vt 0.3984375 0.859375
vt 0.390625 0.859375
vt 0.390625 0.96875
vt 0.3984375 0.96875
f 67/209 68/210 65/211 66/212
vt 0.4140625 0.859375
vt 0.40625 0.859375
vt 0.40625 0.96875
vt 0.4140625 0.96875
f 72/213 71/214 70/215 69/216
o baseModel9
v -5.5 21.80169 1.509611
v 5.5 21.80169 1.509611
v 5.5 14.86897 2.477773
v -5.5 14.86897 2.477773
v -5.5 21.94 2.5
v 5.5 21.94 2.5
v 5.5 15.00728 3.468162
v -5.5 15.00728 3.468162
vt 0.484375 0.484375
vt 0.4765625 0.484375
vt 0.4765625 0.59375
vt 0.484375 0.59375
f 79/217 75/218 74/219 78/220
vt 0.390625 0.484375
vt 0.3828125 0.484375
vt 0.3828125 0.59375
vt 0.390625 0.59375
f 76/221 80/222 77/223 73/224
vt 0.4765625 0.59375
vt 0.390625 0.59375
vt 0.390625 0.609375
vt 0.4765625 0.609375
f 74/225 73/226 77/227 78/228
vt 0.5625 0.609375
vt 0.4765625 0.609375
vt 0.4765625 0.59375
vt 0.5625 0.59375
f 79/229 80/230 76/231 75/232
vt 0.4765625 0.484375
vt 0.390625 0.484375
vt 0.390625 0.59375
vt 0.4765625 0.59375
f 75/233 76/234 73/235 74/236
vt 0.5703125 0.484375
vt 0.484375 0.484375
vt 0.484375 0.59375
vt 0.5703125 0.59375
f 80/237 79/238 78/239 77/240
o baseModel10
v -2.381794 21.63005 1.742266
v 2.59918 21.19427 1.742266
v 2.081271 15.27454 2.572119
v -2.899702 15.71032 2.572119
v -2.369739 21.76783 2.732655
v 2.611234 21.33205 2.732655
v 2.093325 15.41233 3.562508
v -2.887648 15.84811 3.562508
vt 0.9375 0.875
vt 0.9296875 0.875
vt 0.9296875 0.96875
vt 0.9375 0.96875
f 87/241 83/242 82/243 86/244
vt 0.890625 0.875
vt 0.8828125 0.875
vt 0.8828125 0.96875
vt 0.890625 0.96875
f 84/245 88/246 85/247 81/248
vt 0.9296875 0.96875
vt 0.890625 0.96875
vt 0.890625 0.984375
vt 0.9296875 0.984375
f 82/249 81/250 85/251 86/252
vt 0.96875 0.984375
vt 0.9296875 0.984375
vt 0.9296875 0.96875
vt 0.96875 0.96875
f 87/253 88/254 84/255 83/256
vt 0.9296875 0.875
vt 0.890625 0.875
vt 0.890625 0.96875
vt 0.9296875 0.96875
f 83/257 84/258 81/259 82/260
vt 0.9765625 0.875
vt 0.9375 0.875
vt 0.9375 0.96875
vt 0.9765625 0.96875
f 88/261 87/262 86/263 85/264
o baseModel11
v -3.5 14 -1.52
v -2.642833 14.51504 -1.52
v -0.5826806 11.08637 -1.52
v -1.439848 10.57133 -1.52
v -3.5 14 1.48
v -2.642833 14.51504 1.48
v -0.5826806 11.08637 1.48
v -1.439848 10.57133 1.48
vt 0.9375 0.75
vt 0.9140625 0.75
vt 0.9140625 0.8125
vt 0.9375 0.8125
f 95/265 91/266 90/267 94/268
vt 0.90625 0.75
vt 0.8828125 0.75
vt 0.8828125 0.8125
vt 0.90625 0.8125
f 92/269 96/270 93/271 89/272
vt 0.9140625 0.8125
vt 0.90625 0.8125
vt 0.90625 0.859375
vt 0.9140625 0.859375
f 90/273 89/274 93/275 94/276
vt 0.921875 0.859375
vt 0.9140625 0.859375
vt 0.9140625 0.8125
vt 0.921875 0.8125
f 95/277 96/278 92/279 91/280
vt 0.9140625 0.75
vt 0.90625 0.75
vt 0.90625 0.8125
vt 0.9140625 0.8125
f 91/281 92/282 89/283 90/284
vt 0.9453125 0.75
vt 0.9375 0.75
vt 0.9375 0.8125
vt 0.9453125 0.8125
f 96/285 95/286 94/287 93/288
o baseModel12
v 2.642833 14.51504 -1.52
v 3.5 14 -1.52
v 1.439848 10.57133 -1.52
v 0.5826806 11.08637 -1.52
v 2.642833 14.51504 1.48
v 3.5 14 1.48
v 1.439848 10.57133 1.48
v 0.5826806 11.08637 1.48
vt 0.4375 0.625
vt 0.4140625 0.625
vt 0.4140625 0.6875
vt 0.4375 0.6875
f 103/289 99/290 98/291 102/292
vt 0.40625 0.625
vt 0.3828125 0.625
vt 0.3828125 0.6875
vt 0.40625 0.6875
f 100/293 104/294 101/295 97/296
vt 0.4140625 0.6875
vt 0.40625 0.6875
vt 0.40625 0.734375
vt 0.4140625 0.734375
f 98/297 97/298 101/299 102/300
vt 0.421875 0.734375
vt 0.4140625 0.734375
vt 0.4140625 0.6875
vt 0.421875 0.6875
f 103/301 104/302 100/303 99/304
vt 0.4140625 0.625
vt 0.40625 0.625
vt 0.40625 0.6875
vt 0.4140625 0.6875
f 99/305 100/306 97/307 98/308
vt 0.4453125 0.625
vt 0.4375 0.625
vt 0.4375 0.6875
vt 0.4453125 0.6875
f 104/309 103/310 102/311 101/312
o baseModel13
v -6.51 14 3.01
v 6.49 14 3.01
v 6.49 13.00381 3.097156
v -6.51 13.00381 3.097156
v -6.51 14.08716 4.006195
v 6.49 14.08716 4.006195
v 6.49 13.09096 4.09335
v -6.51 13.09096 4.09335
vt 0.875 0.578125
vt 0.8671875 0.578125
vt 0.8671875 0.59375
vt 0.875 0.59375
f 111/313 107/314 106/315 110/316
vt 0.765625 0.578125
vt 0.7578125 0.578125
vt 0.7578125 0.59375
vt 0.765625 0.59375
f 108/317 112/318 109/319 105/320
vt 0.8671875 0.59375
vt 0.765625 0.59375
vt 0.765625 0.609375
vt 0.8671875 0.609375
f 106/321 105/322 109/323 110/324
vt 0.96875 0.609375
vt 0.8671875 0.609375
vt 0.8671875 0.59375
vt 0.96875 0.59375
f 111/325 112/326 108/327 107/328
vt 0.8671875 0.578125
vt 0.765625 0.578125
vt 0.765625 0.59375
vt 0.8671875 0.59375
f 107/329 108/330 105/331 106/332
vt 0.9765625 0.578125
vt 0.875 0.578125
vt 0.875 0.59375
vt 0.9765625 0.59375
f 112/333 111/334 110/335 109/336
o baseModel14
v -6 23.5 -3.5
v 6 23.5 -3.5
v 6 22.5 -3.5
v -6 22.5 -3.5
v -6 23.5 2.5
v 6 23.5 2.5
v 6 22.5 2.5
v -6 22.5 2.5
vt 0.7578125 0.375
vt 0.7109375 0.375
vt 0.7109375 0.390625
vt 0.7578125 0.390625
f 119/337 115/338 114/339 118/340
vt 0.6171875 0.375
vt 0.5703125 0.375
vt 0.5703125 0.390625
vt 0.6171875 0.390625
f 116/341 120/342 117/343 113/344
vt 0.7109375 0.390625
vt 0.6171875 0.390625
vt 0.6171875 0.484375
vt 0.7109375 0.484375
f 114/345 113/346 117/347 118/348
vt 0.8046875 0.484375
vt 0.7109375 0.484375
vt 0.7109375 0.390625
vt 0.8046875 0.390625
f 119/349 120/350 116/351 115/352
vt 0.7109375 0.375
vt 0.6171875 0.375
vt 0.6171875 0.390625
vt 0.7109375 0.390625
f 115/353 116/354 113/355 114/356
vt 0.8515625 0.375
vt 0.7578125 0.375
vt 0.7578125 0.390625
vt 0.8515625 0.390625
f 120/357 119/358 118/359 117/360
