# Converted from Decimation Beardie model: reddot.bmodel
# Coordinates retain the original Beardie model units.
mtllib reddot.mtl
usemtl reddot_material
o rd3
v 7.399997 6.149999 -0.3
v 7.699997 6.149999 -0.3
v 7.699997 5.749999 -0.3
v 7.399997 5.749999 -0.3
v 7.399997 6.149999 -0.25
v 7.699997 6.149999 -0.25
v 7.699997 5.749999 -0.25
v 7.399997 5.749999 -0.25
vt 0.00078125 0.999121094
vt 0.00068359375 0.999121094
vt 0.00068359375 0.999902344
vt 0.00078125 0.999902344
f 7/1 3/2 2/3 6/4
vt 9.765625e-05 0.999121094
vt 0 0.999121094
vt 0 0.999902344
vt 9.765625e-05 0.999902344
f 4/5 8/6 5/7 1/8
vt 0.00068359375 0.999902344
vt 9.765625e-05 0.999902344
vt 9.765625e-05 1
vt 0.00068359375 1
f 2/9 1/10 5/11 6/12
vt 0.00126953125 1
vt 0.00068359375 1
vt 0.00068359375 0.999902344
vt 0.00126953125 0.999902344
f 7/13 8/14 4/15 3/16
vt 0.00068359375 0.999121094
vt 9.765625e-05 0.999121094
vt 9.765625e-05 0.999902344
vt 0.00068359375 0.999902344
f 3/17 4/18 1/19 2/20
vt 0.0013671875 0.999121094
vt 0.00078125 0.999121094
vt 0.00078125 0.999902344
vt 0.0013671875 0.999902344
f 8/21 7/22 6/23 5/24
o rd4
v 7.399997 6.149999 0.25
v 7.699997 6.149999 0.25
v 7.699997 5.749999 0.25
v 7.399997 5.749999 0.25
v 7.399997 6.149999 0.3
v 7.699997 6.149999 0.3
v 7.699997 5.749999 0.3
v 7.399997 5.749999 0.3
vt 0.00078125 0.999121094
vt 0.00068359375 0.999121094
vt 0.00068359375 0.999902344
vt 0.00078125 0.999902344
f 15/25 11/26 10/27 14/28
vt 9.765625e-05 0.999121094
vt 0 0.999121094
vt 0 0.999902344
vt 9.765625e-05 0.999902344
f 12/29 16/30 13/31 9/32
vt 0.00068359375 0.999902344
vt 9.765625e-05 0.999902344
vt 9.765625e-05 1
vt 0.00068359375 1
f 10/33 9/34 13/35 14/36
vt 0.00126953125 1
vt 0.00068359375 1
vt 0.00068359375 0.999902344
vt 0.00126953125 0.999902344
f 15/37 16/38 12/39 11/40
vt 0.00068359375 0.999121094
vt 9.765625e-05 0.999121094
vt 9.765625e-05 0.999902344
vt 0.00068359375 0.999902344
f 11/41 12/42 9/43 10/44
vt 0.0013671875 0.999121094
vt 0.00078125 0.999121094
vt 0.00078125 0.999902344
vt 0.0013671875 0.999902344
f 16/45 15/46 14/47 13/48
o rd5
v 7.399997 6.249999 -0.2
v 7.699997 6.249999 -0.2
v 7.699997 6.149999 -0.3
v 7.399997 6.149999 -0.3
v 7.399997 6.249999 -0.15
v 7.699997 6.249999 -0.15
v 7.699997 6.149999 -0.25
v 7.399997 6.149999 -0.25
vt 0.00078125 0.999707031
vt 0.00068359375 0.999707031
vt 0.00068359375 0.999902344
vt 0.00078125 0.999902344
f 23/49 19/50 18/51 22/52
vt 9.765625e-05 0.999707031
vt 0 0.999707031
vt 0 0.999902344
vt 9.765625e-05 0.999902344
f 20/53 24/54 21/55 17/56
vt 0.00068359375 0.999902344
vt 9.765625e-05 0.999902344
vt 9.765625e-05 1
vt 0.00068359375 1
f 18/57 17/58 21/59 22/60
vt 0.00126953125 1
vt 0.00068359375 1
vt 0.00068359375 0.999902344
vt 0.00126953125 0.999902344
f 23/61 24/62 20/63 19/64
vt 0.00068359375 0.999707031
vt 9.765625e-05 0.999707031
vt 9.765625e-05 0.999902344
vt 0.00068359375 0.999902344
f 19/65 20/66 17/67 18/68
vt 0.0013671875 0.999707031
vt 0.00078125 0.999707031
vt 0.00078125 0.999902344
vt 0.0013671875 0.999902344
f 24/69 23/70 22/71 21/72
o rd6
v 7.399997 6.249999 0.15
v 7.699997 6.249999 0.15
v 7.699997 6.149999 0.25
v 7.399997 6.149999 0.25
v 7.399997 6.249999 0.2
v 7.699997 6.249999 0.2
v 7.699997 6.149999 0.3
v 7.399997 6.149999 0.3
vt 0.00078125 0.999707031
vt 0.00068359375 0.999707031
vt 0.00068359375 0.999902344
vt 0.00078125 0.999902344
f 31/73 27/74 26/75 30/76
vt 9.765625e-05 0.999707031
vt 0 0.999707031
vt 0 0.999902344
vt 9.765625e-05 0.999902344
f 28/77 32/78 29/79 25/80
vt 0.00068359375 0.999902344
vt 9.765625e-05 0.999902344
vt 9.765625e-05 1
vt 0.00068359375 1
f 26/81 25/82 29/83 30/84
vt 0.00126953125 1
vt 0.00068359375 1
vt 0.00068359375 0.999902344
vt 0.00126953125 0.999902344
f 31/85 32/86 28/87 27/88
vt 0.00068359375 0.999707031
vt 9.765625e-05 0.999707031
vt 9.765625e-05 0.999902344
vt 0.00068359375 0.999902344
f 27/89 28/90 25/91 26/92
vt 0.0013671875 0.999707031
vt 0.00078125 0.999707031
vt 0.00078125 0.999902344
vt 0.0013671875 0.999902344
f 32/93 31/94 30/95 29/96
o rd7
v 7.399997 6.299999 0
v 7.699997 6.299999 0
v 7.699997 6.249999 -0.2
v 7.399997 6.249999 -0.2
v 7.399997 6.299999 0
v 7.699997 6.299999 0
v 7.699997 6.249999 0.2
v 7.399997 6.249999 0.2
vt 0.0021484375 0.999121094
vt 0.0013671875 0.999121094
vt 0.0013671875 0.99921875
vt 0.0021484375 0.99921875
f 39/97 35/98 34/99 38/100
vt 0.00078125 0.999121094
vt 0 0.999121094
vt 0 0.99921875
vt 0.00078125 0.99921875
f 36/101 40/102 37/103 33/104
vt 0.0013671875 0.99921875
vt 0.00078125 0.99921875
vt 0.00078125 1
vt 0.0013671875 1
f 34/105 33/106 37/107 38/108
vt 0.001953125 1
vt 0.0013671875 1
vt 0.0013671875 0.99921875
vt 0.001953125 0.99921875
f 39/109 40/110 36/111 35/112
vt 0.0013671875 0.999121094
vt 0.00078125 0.999121094
vt 0.00078125 0.99921875
vt 0.0013671875 0.99921875
f 35/113 36/114 33/115 34/116
vt 0.002734375 0.999121094
vt 0.0021484375 0.999121094
vt 0.0021484375 0.99921875
vt 0.002734375 0.99921875
f 40/117 39/118 38/119 37/120
o rd8
v 7.399997 5.749999 -0.3
v 7.699997 5.749999 -0.3
v 7.799997 5.649999 -0.35
v 7.399997 5.649999 -0.35
v 7.399997 5.749999 0.3
v 7.699997 5.749999 0.3
v 7.799997 5.649999 0.35
v 7.399997 5.649999 0.35
vt 0.003515625 0.9984375
vt 0.0021484375 0.9984375
vt 0.0021484375 0.998632813
vt 0.003515625 0.998632813
f 47/121 43/122 42/123 46/124
vt 0.0013671875 0.9984375
vt 0 0.9984375
vt 0 0.998632813
vt 0.0013671875 0.998632813
f 44/125 48/126 45/127 41/128
vt 0.0021484375 0.998632813
vt 0.0013671875 0.998632813
vt 0.0013671875 1
vt 0.0021484375 1
f 42/129 41/130 45/131 46/132
vt 0.0029296875 1
vt 0.0021484375 1
vt 0.0021484375 0.998632813
vt 0.0029296875 0.998632813
f 47/133 48/134 44/135 43/136
vt 0.0021484375 0.9984375
vt 0.0013671875 0.9984375
vt 0.0013671875 0.998632813
vt 0.0021484375 0.998632813
f 43/137 44/138 41/139 42/140
vt 0.004296875 0.9984375
vt 0.003515625 0.9984375
vt 0.003515625 0.998632813
vt 0.004296875 0.998632813
f 48/141 47/142 46/143 45/144
o scopeOverlay
v 7.499997 6.325 -0.275
v 7.549997 6.325 -0.275
v 7.549997 5.775 -0.275
v 7.499997 5.775 -0.275
v 7.499997 6.325 0.275
v 7.549997 6.325 0.275
v 7.549997 5.775 0.275
v 7.499997 5.775 0.275
vt 0.00224609375 0.997851562
vt 0.001171875 0.997851562
vt 0.001171875 0.998925781
vt 0.00224609375 0.998925781
f 55/145 51/146 50/147 54/148
vt 0.00107421875 0.997851562
vt 0 0.997851562
vt 0 0.998925781
vt 0.00107421875 0.998925781
f 52/149 56/150 53/151 49/152
vt 0.001171875 0.998925781
vt 0.00107421875 0.998925781
vt 0.00107421875 1
vt 0.001171875 1
f 50/153 49/154 53/155 54/156
vt 0.00126953125 1
vt 0.001171875 1
vt 0.001171875 0.998925781
vt 0.00126953125 0.998925781
f 55/157 56/158 52/159 51/160
vt 0.001171875 0.997851562
vt 0.00107421875 0.997851562
vt 0.00107421875 0.998925781
vt 0.001171875 0.998925781
f 51/161 52/162 49/163 50/164
vt 0.00234375 0.997851562
vt 0.00224609375 0.997851562
vt 0.00224609375 0.998925781
vt 0.00234375 0.998925781
f 56/165 55/166 54/167 53/168
