# Converted from Decimation Beardie model: 4x.bmodel
# Coordinates retain the original Beardie model units.
mtllib 4x.mtl
usemtl 4x_material
o scopeGlass
v 0.0500005 6.699998 -0.3999999
v 0.1500005 6.699998 -0.3999999
v 0.1500005 5.899998 -0.3999999
v 0.0500005 5.899998 -0.3999999
v 0.0500005 6.699998 0.4000001
v 0.1500005 6.699998 0.4000001
v 0.1500005 5.899998 0.4000001
v 0.0500005 5.899998 0.4000001
vt 0.0265625 0.95
vt 0.0140625 0.95
vt 0.0140625 0.975
vt 0.0265625 0.975
f 7/1 3/2 2/3 6/4
vt 0.0125 0.95
vt 0 0.95
vt 0 0.975
vt 0.0125 0.975
f 4/5 8/6 5/7 1/8
vt 0.0140625 0.975
vt 0.0125 0.975
vt 0.0125 1
vt 0.0140625 1
f 2/9 1/10 5/11 6/12
vt 0.015625 1
vt 0.0140625 1
vt 0.0140625 0.975
vt 0.015625 0.975
f 7/13 8/14 4/15 3/16
vt 0.0140625 0.95
vt 0.0125 0.95
vt 0.0125 0.975
vt 0.0140625 0.975
f 3/17 4/18 1/19 2/20
vt 0.028125 0.95
vt 0.0265625 0.95
vt 0.0265625 0.975
vt 0.028125 0.975
f 8/21 7/22 6/23 5/24
o scopeOverlay
v 0.04500039 6.699998 -0.3999999
v 0.09500039 6.699998 -0.3999999
v 0.09500039 5.899998 -0.3999999
v 0.04500039 5.899998 -0.3999999
v 0.04500039 6.699998 0.4000001
v 0.09500039 6.699998 0.4000001
v 0.09500039 5.899998 0.4000001
v 0.04500039 5.899998 0.4000001
vt 0.02578125 0.95
vt 0.01328125 0.95
vt 0.01328125 0.975
vt 0.02578125 0.975
f 15/25 11/26 10/27 14/28
vt 0.0125 0.95
vt 0 0.95
vt 0 0.975
vt 0.0125 0.975
f 12/29 16/30 13/31 9/32
vt 0.01328125 0.975
vt 0.0125 0.975
vt 0.0125 1
vt 0.01328125 1
f 10/33 9/34 13/35 14/36
vt 0.0140625 1
vt 0.01328125 1
vt 0.01328125 0.975
vt 0.0140625 0.975
f 15/37 16/38 12/39 11/40
vt 0.01328125 0.95
vt 0.0125 0.95
vt 0.0125 0.975
vt 0.01328125 0.975
f 11/41 12/42 9/43 10/44
vt 0.0265625 0.95
vt 0.02578125 0.95
vt 0.02578125 0.975
vt 0.0265625 0.975
f 16/45 15/46 14/47 13/48
o scope1
v 1.7 4.699999 0.6
v 4.7 4.699999 0.6
v 4.7 4.199999 0.6
v 1.7 4.199999 0.6
v 1.7 4.699999 0.8
v 4.7 4.699999 0.8
v 4.7 4.199999 0.8
v 1.7 4.199999 0.8
vt 0.053125 0.978125
vt 0.05 0.978125
vt 0.05 0.99375
vt 0.053125 0.99375
f 23/49 19/50 18/51 22/52
vt 0.003125 0.978125
vt 0 0.978125
vt 0 0.99375
vt 0.003125 0.99375
f 20/53 24/54 21/55 17/56
vt 0.05 0.99375
vt 0.003125 0.99375
vt 0.003125 1
vt 0.05 1
f 18/57 17/58 21/59 22/60
vt 0.096875 1
vt 0.05 1
vt 0.05 0.99375
vt 0.096875 0.99375
f 23/61 24/62 20/63 19/64
vt 0.05 0.978125
vt 0.003125 0.978125
vt 0.003125 0.99375
vt 0.05 0.99375
f 19/65 20/66 17/67 18/68
vt 0.1 0.978125
vt 0.053125 0.978125
vt 0.053125 0.99375
vt 0.1 0.99375
f 24/69 23/70 22/71 21/72
o scope2
v 2.999996 5.999998 0.3999999
v 3.399996 5.999998 0.3999999
v 3.399996 4.699998 0.3999999
v 2.999996 4.699998 0.3999999
v 2.999996 5.999998 0.4999999
v 3.399996 5.999998 0.4999999
v 3.399996 4.699998 0.4999999
v 2.999996 4.699998 0.4999999
vt 0.009375 0.95625
vt 0.0078125 0.95625
vt 0.0078125 0.996875
vt 0.009375 0.996875
f 31/73 27/74 26/75 30/76
vt 0.0015625 0.95625
vt 0 0.95625
vt 0 0.996875
vt 0.0015625 0.996875
f 28/77 32/78 29/79 25/80
vt 0.0078125 0.996875
vt 0.0015625 0.996875
vt 0.0015625 1
vt 0.0078125 1
f 26/81 25/82 29/83 30/84
vt 0.0140625 1
vt 0.0078125 1
vt 0.0078125 0.996875
vt 0.0140625 0.996875
f 31/85 32/86 28/87 27/88
vt 0.0078125 0.95625
vt 0.0015625 0.95625
vt 0.0015625 0.996875
vt 0.0078125 0.996875
f 27/89 28/90 25/91 26/92
vt 0.015625 0.95625
vt 0.009375 0.95625
vt 0.009375 0.996875
vt 0.015625 0.996875
f 32/93 31/94 30/95 29/96
o scope3
v 3.8 5.999998 0.3999999
v 4.2 5.999998 0.3999999
v 4.2 4.699998 0.3999999
v 3.8 4.699998 0.3999999
v 3.8 5.999998 0.4999999
v 4.2 5.999998 0.4999999
v 4.2 4.699998 0.4999999
v 3.8 4.699998 0.4999999
vt 0.009375 0.95625
vt 0.0078125 0.95625
vt 0.0078125 0.996875
vt 0.009375 0.996875
f 39/97 35/98 34/99 38/100
vt 0.0015625 0.95625
vt 0 0.95625
vt 0 0.996875
vt 0.0015625 0.996875
f 36/101 40/102 37/103 33/104
vt 0.0078125 0.996875
vt 0.0015625 0.996875
vt 0.0015625 1
vt 0.0078125 1
f 34/105 33/106 37/107 38/108
vt 0.0140625 1
vt 0.0078125 1
vt 0.0078125 0.996875
vt 0.0140625 0.996875
f 39/109 40/110 36/111 35/112
vt 0.0078125 0.95625
vt 0.0015625 0.95625
vt 0.0015625 0.996875
vt 0.0078125 0.996875
f 35/113 36/114 33/115 34/116
vt 0.015625 0.95625
vt 0.009375 0.95625
vt 0.009375 0.996875
vt 0.015625 0.996875
f 40/117 39/118 38/119 37/120
o scope4
v 3.399997 5.099999 0.3999999
v 3.799997 5.099999 0.3999999
v 3.799997 4.699999 0.3999999
v 3.399997 4.699999 0.3999999
v 3.399997 5.099999 0.4999999
v 3.799997 5.099999 0.4999999
v 3.799997 4.699999 0.4999999
v 3.399997 4.699999 0.4999999
vt 0.009375 0.984375
vt 0.0078125 0.984375
vt 0.0078125 0.996875
vt 0.009375 0.996875
f 47/121 43/122 42/123 46/124
vt 0.0015625 0.984375
vt 0 0.984375
vt 0 0.996875
vt 0.0015625 0.996875
f 44/125 48/126 45/127 41/128
vt 0.0078125 0.996875
vt 0.0015625 0.996875
vt 0.0015625 1
vt 0.0078125 1
f 42/129 41/130 45/131 46/132
vt 0.0140625 1
vt 0.0078125 1
vt 0.0078125 0.996875
vt 0.0140625 0.996875
f 47/133 48/134 44/135 43/136
vt 0.0078125 0.984375
vt 0.0015625 0.984375
vt 0.0015625 0.996875
vt 0.0078125 0.996875
f 43/137 44/138 41/139 42/140
vt 0.015625 0.984375
vt 0.009375 0.984375
vt 0.009375 0.996875
vt 0.015625 0.996875
f 48/141 47/142 46/143 45/144
o scope5
v 3.399997 5.999998 0.3999999
v 3.799997 5.999998 0.3999999
v 3.799997 5.499998 0.3999999
v 3.399997 5.499998 0.3999999
v 3.399997 5.999998 0.4999999
v 3.799997 5.999998 0.4999999
v 3.799997 5.499998 0.4999999
v 3.399997 5.499998 0.4999999
vt 0.009375 0.98125
vt 0.0078125 0.98125
vt 0.0078125 0.996875
vt 0.009375 0.996875
f 55/145 51/146 50/147 54/148
vt 0.0015625 0.98125
vt 0 0.98125
vt 0 0.996875
vt 0.0015625 0.996875
f 52/149 56/150 53/151 49/152
vt 0.0078125 0.996875
vt 0.0015625 0.996875
vt 0.0015625 1
vt 0.0078125 1
f 50/153 49/154 53/155 54/156
vt 0.0140625 1
vt 0.0078125 1
vt 0.0078125 0.996875
vt 0.0140625 0.996875
f 55/157 56/158 52/159 51/160
vt 0.0078125 0.98125
vt 0.0015625 0.98125
vt 0.0015625 0.996875
vt 0.0078125 0.996875
f 51/161 52/162 49/163 50/164
vt 0.015625 0.98125
vt 0.009375 0.98125
vt 0.009375 0.996875
vt 0.015625 0.996875
f 56/165 55/166 54/167 53/168
o scope6
v 2.899996 6.099998 0.15
v 3.299996 6.099998 0.15
v 3.299996 5.699998 0.15
v 2.899996 5.699998 0.15
v 2.899996 6.099998 0.65
v 3.299996 6.099998 0.65
v 3.299996 5.699998 0.65
v 2.899996 5.699998 0.65
vt 0.021875 0.971875
vt 0.0140625 0.971875
vt 0.0140625 0.984375
vt 0.021875 0.984375
f 63/169 59/170 58/171 62/172
vt 0.0078125 0.971875
vt 0 0.971875
vt 0 0.984375
vt 0.0078125 0.984375
f 60/173 64/174 61/175 57/176
vt 0.0140625 0.984375
vt 0.0078125 0.984375
vt 0.0078125 1
vt 0.0140625 1
f 58/177 57/178 61/179 62/180
vt 0.0203125 1
vt 0.0140625 1
vt 0.0140625 0.984375
vt 0.0203125 0.984375
f 63/181 64/182 60/183 59/184
vt 0.0140625 0.971875
vt 0.0078125 0.971875
vt 0.0078125 0.984375
vt 0.0140625 0.984375
f 59/185 60/186 57/187 58/188
vt 0.028125 0.971875
vt 0.021875 0.971875
vt 0.021875 0.984375
vt 0.028125 0.984375
f 64/189 63/190 62/191 61/192
o scope7
v 3.129244e-07 5.899998 -0.3999999
v 4.5 5.899998 -0.3999999
v 4.5 5.799998 -0.1999999
v 3.129244e-07 5.799998 -0.1999999
v 3.129244e-07 5.899998 0.4000001
v 4.5 5.899998 0.4000001
v 4.5 5.799998 0.2000001
v 3.129244e-07 5.799998 0.2000001
vt 0.0953125 0.971875
vt 0.0828125 0.971875
vt 0.0828125 0.975
vt 0.0953125 0.975
f 71/193 67/194 66/195 70/196
vt 0.0125 0.971875
vt 0 0.971875
vt 0 0.975
vt 0.0125 0.975
f 68/197 72/198 69/199 65/200
vt 0.0828125 0.975
vt 0.0125 0.975
vt 0.0125 1
vt 0.0828125 1
f 66/201 65/202 69/203 70/204
vt 0.153125 1
vt 0.0828125 1
vt 0.0828125 0.975
vt 0.153125 0.975
f 71/205 72/206 68/207 67/208
vt 0.0828125 0.971875
vt 0.0125 0.971875
vt 0.0125 0.975
vt 0.0828125 0.975
f 67/209 68/210 65/211 66/212
vt 0.165625 0.971875
vt 0.0953125 0.971875
vt 0.0953125 0.975
vt 0.165625 0.975
f 72/213 71/214 70/215 69/216
o scope8
v 3.129244e-07 6.799998 -0.1999999
v 4.5 6.799998 -0.1999999
v 4.5 6.699998 -0.3999999
v 3.129244e-07 6.699998 -0.3999999
v 3.129244e-07 6.799998 0.2000001
v 4.5 6.799998 0.2000001
v 4.5 6.699998 0.4000001
v 3.129244e-07 6.699998 0.4000001
vt 0.0953125 0.971875
vt 0.0828125 0.971875
vt 0.0828125 0.975
vt 0.0953125 0.975
f 79/217 75/218 74/219 78/220
vt 0.0125 0.971875
vt 0 0.971875
vt 0 0.975
vt 0.0125 0.975
f 76/221 80/222 77/223 73/224
vt 0.0828125 0.975
vt 0.0125 0.975
vt 0.0125 1
vt 0.0828125 1
f 74/225 73/226 77/227 78/228
vt 0.153125 1
vt 0.0828125 1
vt 0.0828125 0.975
vt 0.153125 0.975
f 79/229 80/230 76/231 75/232
vt 0.0828125 0.971875
vt 0.0125 0.971875
vt 0.0125 0.975
vt 0.0828125 0.975
f 75/233 76/234 73/235 74/236
vt 0.165625 0.971875
vt 0.0953125 0.971875
vt 0.0953125 0.975
vt 0.165625 0.975
f 80/237 79/238 78/239 77/240
o scope9
v 3.129244e-07 6.699998 0.4
v 4.5 6.699998 0.4
v 4.5 5.899998 0.4
v 3.129244e-07 5.899998 0.4
v 3.129244e-07 6.499998 0.5
v 4.5 6.499998 0.5
v 4.5 6.099998 0.5
v 3.129244e-07 6.099998 0.5
vt 0.0734375 0.971875
vt 0.071875 0.971875
vt 0.071875 0.996875
vt 0.0734375 0.996875
f 87/241 83/242 82/243 86/244
vt 0.0015625 0.971875
vt 0 0.971875
vt 0 0.996875
vt 0.0015625 0.996875
f 84/245 88/246 85/247 81/248
vt 0.071875 0.996875
vt 0.0015625 0.996875
vt 0.0015625 1
vt 0.071875 1
f 82/249 81/250 85/251 86/252
vt 0.1421875 1
vt 0.071875 1
vt 0.071875 0.996875
vt 0.1421875 0.996875
f 87/253 88/254 84/255 83/256
vt 0.071875 0.971875
vt 0.0015625 0.971875
vt 0.0015625 0.996875
vt 0.071875 0.996875
f 83/257 84/258 81/259 82/260
vt 0.14375 0.971875
vt 0.0734375 0.971875
vt 0.0734375 0.996875
vt 0.14375 0.996875
f 88/261 87/262 86/263 85/264
o scope10
v 3.129244e-07 6.499998 -0.4999998
v 4.5 6.499998 -0.4999998
v 4.5 6.099998 -0.4999998
v 3.129244e-07 6.099998 -0.4999998
v 3.129244e-07 6.699998 -0.3999998
v 4.5 6.699998 -0.3999998
v 4.5 5.899998 -0.3999998
v 3.129244e-07 5.899998 -0.3999998
vt 0.0734375 0.971875
vt 0.071875 0.971875
vt 0.071875 0.996875
vt 0.0734375 0.996875
f 95/265 91/266 90/267 94/268
vt 0.0015625 0.971875
vt 0 0.971875
vt 0 0.996875
vt 0.0015625 0.996875
f 92/269 96/270 93/271 89/272
vt 0.071875 0.996875
vt 0.0015625 0.996875
vt 0.0015625 1
vt 0.071875 1
f 90/273 89/274 93/275 94/276
vt 0.1421875 1
vt 0.071875 1
vt 0.071875 0.996875
vt 0.1421875 0.996875
f 95/277 96/278 92/279 91/280
vt 0.071875 0.971875
vt 0.0015625 0.971875
vt 0.0015625 0.996875
vt 0.071875 0.996875
f 91/281 92/282 89/283 90/284
vt 0.14375 0.971875
vt 0.0734375 0.971875
vt 0.0734375 0.996875
vt 0.14375 0.996875
f 96/285 95/286 94/287 93/288
o scope11
v 4.349999 6.699998 -0.3999999
v 4.449999 6.699998 -0.3999999
v 4.449999 5.899998 -0.3999999
v 4.349999 5.899998 -0.3999999
v 4.349999 6.699998 0.4000001
v 4.449999 6.699998 0.4000001
v 4.449999 5.899998 0.4000001
v 4.349999 5.899998 0.4000001
vt 0.7453125 0.0125
vt 0.7328125 0.0125
vt 0.7328125 0.0375
vt 0.7453125 0.0375
f 103/289 99/290 98/291 102/292
vt 0.73125 0.0125
vt 0.71875 0.0125
vt 0.71875 0.0375
vt 0.73125 0.0375
f 100/293 104/294 101/295 97/296
vt 0.7328125 0.0375
vt 0.73125 0.0375
vt 0.73125 0.0625
vt 0.7328125 0.0625
f 98/297 97/298 101/299 102/300
vt 0.734375 0.0625
vt 0.7328125 0.0625
vt 0.7328125 0.0375
vt 0.734375 0.0375
f 103/301 104/302 100/303 99/304
vt 0.7328125 0.0125
vt 0.73125 0.0125
vt 0.73125 0.0375
vt 0.7328125 0.0375
f 99/305 100/306 97/307 98/308
vt 0.746875 0.0125
vt 0.7453125 0.0125
vt 0.7453125 0.0375
vt 0.746875 0.0375
f 104/309 103/310 102/311 101/312
o scope4_2
v 3.129244e-07 5.899998 0.25
v 4.5 5.899998 0.25
v 4.5 5.899998 0.25
v 3.129244e-07 5.899998 0.25
v 3.129244e-07 6.049998 0.4
v 4.5 6.049998 0.4
v 4.5 5.899998 0.4
v 3.129244e-07 5.899998 0.4
vt 0.075 0.990625
vt 0.07265625 0.990625
vt 0.07265625 0.9953125
vt 0.075 0.9953125
f 111/313 107/314 106/315 110/316
vt 0.00234375 0.990625
vt 0 0.990625
vt 0 0.9953125
vt 0.00234375 0.9953125
f 108/317 112/318 109/319 105/320
vt 0.07265625 0.9953125
vt 0.00234375 0.9953125
vt 0.00234375 1
vt 0.07265625 1
f 106/321 105/322 109/323 110/324
vt 0.14296875 1
vt 0.07265625 1
vt 0.07265625 0.9953125
vt 0.14296875 0.9953125
f 111/325 112/326 108/327 107/328
vt 0.07265625 0.990625
vt 0.00234375 0.990625
vt 0.00234375 0.9953125
vt 0.07265625 0.9953125
f 107/329 108/330 105/331 106/332
vt 0.1453125 0.990625
vt 0.075 0.990625
vt 0.075 0.9953125
vt 0.1453125 0.9953125
f 112/333 111/334 110/335 109/336
o scope5_2
v 3.129244e-07 6.699998 -0.3999998
v 4.5 6.699998 -0.3999998
v 4.5 6.549998 -0.3999998
v 3.129244e-07 6.549998 -0.3999998
v 3.129244e-07 6.699998 -0.2499998
v 4.5 6.699998 -0.2499998
v 4.5 6.549998 -0.3999998
v 3.129244e-07 6.549998 -0.3999998
vt 0.075 0.990625
vt 0.07265625 0.990625
vt 0.07265625 0.9953125
vt 0.075 0.9953125
f 119/337 115/338 114/339 118/340
vt 0.00234375 0.990625
vt 0 0.990625
vt 0 0.9953125
vt 0.00234375 0.9953125
f 116/341 120/342 117/343 113/344
vt 0.07265625 0.9953125
vt 0.00234375 0.9953125
vt 0.00234375 1
vt 0.07265625 1
f 114/345 113/346 117/347 118/348
vt 0.14296875 1
vt 0.07265625 1
vt 0.07265625 0.9953125
vt 0.14296875 0.9953125
f 119/349 120/350 116/351 115/352
vt 0.07265625 0.990625
vt 0.00234375 0.990625
vt 0.00234375 0.9953125
vt 0.07265625 0.9953125
f 115/353 116/354 113/355 114/356
vt 0.1453125 0.990625
vt 0.075 0.990625
vt 0.075 0.9953125
vt 0.1453125 0.9953125
f 120/357 119/358 118/359 117/360
o scope6_2
v 3.129244e-07 6.699998 0.25
v 4.5 6.699998 0.25
v 4.5 6.549998 0.4
v 3.129244e-07 6.549998 0.4
v 3.129244e-07 6.699998 0.4
v 4.5 6.699998 0.4
v 4.5 6.549998 0.4
v 3.129244e-07 6.549998 0.4
vt 0.075 0.990625
vt 0.07265625 0.990625
vt 0.07265625 0.9953125
vt 0.075 0.9953125
f 127/361 123/362 122/363 126/364
vt 0.00234375 0.990625
vt 0 0.990625
vt 0 0.9953125
vt 0.00234375 0.9953125
f 124/365 128/366 125/367 121/368
vt 0.07265625 0.9953125
vt 0.00234375 0.9953125
vt 0.00234375 1
vt 0.07265625 1
f 122/369 121/370 125/371 126/372
vt 0.14296875 1
vt 0.07265625 1
vt 0.07265625 0.9953125
vt 0.14296875 0.9953125
f 127/373 128/374 124/375 123/376
vt 0.07265625 0.990625
vt 0.00234375 0.990625
vt 0.00234375 0.9953125
vt 0.07265625 0.9953125
f 123/377 124/378 121/379 122/380
vt 0.1453125 0.990625
vt 0.075 0.990625
vt 0.075 0.9953125
vt 0.1453125 0.9953125
f 128/381 127/382 126/383 125/384
o scope7_2
v 3.129244e-07 5.899998 -0.3999997
v 4.5 5.899998 -0.3999997
v 4.5 5.899998 -0.2499997
v 3.129244e-07 5.899998 -0.2499997
v 3.129244e-07 6.049998 -0.3999997
v 4.5 6.049998 -0.3999997
v 4.5 5.899998 -0.2499997
v 3.129244e-07 5.899998 -0.2499997
vt 0.075 0.990625
vt 0.07265625 0.990625
vt 0.07265625 0.9953125
vt 0.075 0.9953125
f 135/385 131/386 130/387 134/388
vt 0.00234375 0.990625
vt 0 0.990625
vt 0 0.9953125
vt 0.00234375 0.9953125
f 132/389 136/390 133/391 129/392
vt 0.07265625 0.9953125
vt 0.00234375 0.9953125
vt 0.00234375 1
vt 0.07265625 1
f 130/393 129/394 133/395 134/396
vt 0.14296875 1
vt 0.07265625 1
vt 0.07265625 0.9953125
vt 0.14296875 0.9953125
f 135/397 136/398 132/399 131/400
vt 0.07265625 0.990625
vt 0.00234375 0.990625
vt 0.00234375 0.9953125
vt 0.07265625 0.9953125
f 131/401 132/402 129/403 130/404
vt 0.1453125 0.990625
vt 0.075 0.990625
vt 0.075 0.9953125
vt 0.1453125 0.9953125
f 136/405 135/406 134/407 133/408
o scope24
v 2.999996 6.849998 0.4
v 3.399996 6.849998 0.4
v 3.399996 5.749998 0.4
v 2.999996 5.749998 0.4
v 2.999996 6.649998 0.55
v 3.399996 6.649998 0.55
v 3.399996 5.949998 0.55
v 2.999996 5.949998 0.55
vt 0.0109375 0.9609375
vt 0.00859375 0.9609375
vt 0.00859375 0.9953125
vt 0.0109375 0.9953125
f 143/409 139/410 138/411 142/412
vt 0.00234375 0.9609375
vt 0 0.9609375
vt 0 0.9953125
vt 0.00234375 0.9953125
f 140/413 144/414 141/415 137/416
vt 0.00859375 0.9953125
vt 0.00234375 0.9953125
vt 0.00234375 1
vt 0.00859375 1
f 138/417 137/418 141/419 142/420
vt 0.01484375 1
vt 0.00859375 1
vt 0.00859375 0.9953125
vt 0.01484375 0.9953125
f 143/421 144/422 140/423 139/424
vt 0.00859375 0.9609375
vt 0.00234375 0.9609375
vt 0.00234375 0.9953125
vt 0.00859375 0.9953125
f 139/425 140/426 137/427 138/428
vt 0.0171875 0.9609375
vt 0.0109375 0.9609375
vt 0.0109375 0.9953125
vt 0.0171875 0.9953125
f 144/429 143/430 142/431 141/432
o scope25
v 2.999996 6.649998 -0.5499997
v 3.399996 6.649998 -0.5499997
v 3.399996 5.949998 -0.5499997
v 2.999996 5.949998 -0.5499997
v 2.999996 6.849998 -0.3999997
v 3.399996 6.849998 -0.3999997
v 3.399996 5.749998 -0.3999997
v 2.999996 5.749998 -0.3999997
vt 0.0109375 0.9609375
vt 0.00859375 0.9609375
vt 0.00859375 0.9953125
vt 0.0109375 0.9953125
f 151/433 147/434 146/435 150/436
vt 0.00234375 0.9609375
vt 0 0.9609375
vt 0 0.9953125
vt 0.00234375 0.9953125
f 148/437 152/438 149/439 145/440
vt 0.00859375 0.9953125
vt 0.00234375 0.9953125
vt 0.00234375 1
vt 0.00859375 1
f 146/441 145/442 149/443 150/444
vt 0.01484375 1
vt 0.00859375 1
vt 0.00859375 0.9953125
vt 0.01484375 0.9953125
f 151/445 152/446 148/447 147/448
vt 0.00859375 0.9609375
vt 0.00234375 0.9609375
vt 0.00234375 0.9953125
vt 0.00859375 0.9953125
f 147/449 148/450 145/451 146/452
vt 0.0171875 0.9609375
vt 0.0109375 0.9609375
vt 0.0109375 0.9953125
vt 0.0171875 0.9953125
f 152/453 151/454 150/455 149/456
o scope27
v 2.999996 6.849998 -0.3999999
v 3.399996 6.849998 -0.3999999
v 3.399996 5.749998 -0.3999999
v 2.999996 5.749998 -0.3999999
v 2.999996 6.849998 0.4000001
v 3.399996 6.849998 0.4000001
v 3.399996 5.749998 0.4000001
v 2.999996 5.749998 0.4000001
vt 0.03125 0.940625
vt 0.01875 0.940625
vt 0.01875 0.975
vt 0.03125 0.975
f 159/457 155/458 154/459 158/460
vt 0.0125 0.940625
vt 0 0.940625
vt 0 0.975
vt 0.0125 0.975
f 156/461 160/462 157/463 153/464
vt 0.01875 0.975
vt 0.0125 0.975
vt 0.0125 1
vt 0.01875 1
f 154/465 153/466 157/467 158/468
vt 0.025 1
vt 0.01875 1
vt 0.01875 0.975
vt 0.025 0.975
f 159/469 160/470 156/471 155/472
vt 0.01875 0.940625
vt 0.0125 0.940625
vt 0.0125 0.975
vt 0.01875 0.975
f 155/473 156/474 153/475 154/476
vt 0.0375 0.940625
vt 0.03125 0.940625
vt 0.03125 0.975
vt 0.0375 0.975
f 160/477 159/478 158/479 157/480
o scope29
v 2.5 6.899998 -0.15
v 2.8 6.899998 -0.15
v 2.8 6.699998 -0.15
v 2.5 6.699998 -0.15
v 2.5 6.899998 0.15
v 2.8 6.899998 0.15
v 2.8 6.699998 0.15
v 2.5 6.699998 0.15
vt 0.0140625 0.984375
vt 0.009375 0.984375
vt 0.009375 0.990625
vt 0.0140625 0.990625
f 167/481 163/482 162/483 166/484
vt 0.0046875 0.984375
vt 0 0.984375
vt 0 0.990625
vt 0.0046875 0.990625
f 164/485 168/486 165/487 161/488
vt 0.009375 0.990625
vt 0.0046875 0.990625
vt 0.0046875 1
vt 0.009375 1
f 162/489 161/490 165/491 166/492
vt 0.0140625 1
vt 0.009375 1
vt 0.009375 0.990625
vt 0.0140625 0.990625
f 167/493 168/494 164/495 163/496
vt 0.009375 0.984375
vt 0.0046875 0.984375
vt 0.0046875 0.990625
vt 0.009375 0.990625
f 163/497 164/498 161/499 162/500
vt 0.01875 0.984375
vt 0.0140625 0.984375
vt 0.0140625 0.990625
vt 0.01875 0.990625
f 168/501 167/502 166/503 165/504
o scope30
v 2.449999 6.979998 -0.1499999
v 2.649999 6.979998 -0.1999999
v 2.649999 6.879998 -0.1999999
v 2.449999 6.879998 -0.1499999
v 2.449999 6.979998 0.1500001
v 2.649999 6.979998 0.2000001
v 2.649999 6.879998 0.2000001
v 2.449999 6.879998 0.1500001
vt 0.015625 0.984375
vt 0.009375 0.984375
vt 0.009375 0.9875
vt 0.015625 0.9875
f 175/505 171/506 170/507 174/508
vt 0.00625 0.984375
vt 0 0.984375
vt 0 0.9875
vt 0.00625 0.9875
f 172/509 176/510 173/511 169/512
vt 0.009375 0.9875
vt 0.00625 0.9875
vt 0.00625 1
vt 0.009375 1
f 170/513 169/514 173/515 174/516
vt 0.0125 1
vt 0.009375 1
vt 0.009375 0.9875
vt 0.0125 0.9875
f 175/517 176/518 172/519 171/520
vt 0.009375 0.984375
vt 0.00625 0.984375
vt 0.00625 0.9875
vt 0.009375 0.9875
f 171/521 172/522 169/523 170/524
vt 0.01875 0.984375
vt 0.015625 0.984375
vt 0.015625 0.9875
vt 0.01875 0.9875
f 176/525 175/526 174/527 173/528
o scope31
v 3.8 6.849998 0.4
v 4.2 6.849998 0.4
v 4.2 5.749998 0.4
v 3.8 5.749998 0.4
v 3.8 6.649998 0.55
v 4.2 6.649998 0.55
v 4.2 5.949998 0.55
v 3.8 5.949998 0.55
vt 0.0109375 0.9609375
vt 0.00859375 0.9609375
vt 0.00859375 0.9953125
vt 0.0109375 0.9953125
f 183/529 179/530 178/531 182/532
vt 0.00234375 0.9609375
vt 0 0.9609375
vt 0 0.9953125
vt 0.00234375 0.9953125
f 180/533 184/534 181/535 177/536
vt 0.00859375 0.9953125
vt 0.00234375 0.9953125
vt 0.00234375 1
vt 0.00859375 1
f 178/537 177/538 181/539 182/540
vt 0.01484375 1
vt 0.00859375 1
vt 0.00859375 0.9953125
vt 0.01484375 0.9953125
f 183/541 184/542 180/543 179/544
vt 0.00859375 0.9609375
vt 0.00234375 0.9609375
vt 0.00234375 0.9953125
vt 0.00859375 0.9953125
f 179/545 180/546 177/547 178/548
vt 0.0171875 0.9609375
vt 0.0109375 0.9609375
vt 0.0109375 0.9953125
vt 0.0171875 0.9953125
f 184/549 183/550 182/551 181/552
o scope32
v 3.8 6.649998 -0.5499997
v 4.2 6.649998 -0.5499997
v 4.2 5.949998 -0.5499997
v 3.8 5.949998 -0.5499997
v 3.8 6.849998 -0.3999997
v 4.2 6.849998 -0.3999997
v 4.2 5.749998 -0.3999997
v 3.8 5.749998 -0.3999997
vt 0.0109375 0.9609375
vt 0.00859375 0.9609375
vt 0.00859375 0.9953125
vt 0.0109375 0.9953125
f 191/553 187/554 186/555 190/556
vt 0.00234375 0.9609375
vt 0 0.9609375
vt 0 0.9953125
vt 0.00234375 0.9953125
f 188/557 192/558 189/559 185/560
vt 0.00859375 0.9953125
vt 0.00234375 0.9953125
vt 0.00234375 1
vt 0.00859375 1
f 186/561 185/562 189/563 190/564
vt 0.01484375 1
vt 0.00859375 1
vt 0.00859375 0.9953125
vt 0.01484375 0.9953125
f 191/565 192/566 188/567 187/568
vt 0.00859375 0.9609375
vt 0.00234375 0.9609375
vt 0.00234375 0.9953125
vt 0.00859375 0.9953125
f 187/569 188/570 185/571 186/572
vt 0.0171875 0.9609375
vt 0.0109375 0.9609375
vt 0.0109375 0.9953125
vt 0.0171875 0.9953125
f 192/573 191/574 190/575 189/576
o scope33
v 3.8 6.849998 -0.3999999
v 4.2 6.849998 -0.3999999
v 4.2 5.749998 -0.3999999
v 3.8 5.749998 -0.3999999
v 3.8 6.849998 0.4000001
v 4.2 6.849998 0.4000001
v 4.2 5.749998 0.4000001
v 3.8 5.749998 0.4000001
vt 0.03125 0.940625
vt 0.01875 0.940625
vt 0.01875 0.975
vt 0.03125 0.975
f 199/577 195/578 194/579 198/580
vt 0.0125 0.940625
vt 0 0.940625
vt 0 0.975
vt 0.0125 0.975
f 196/581 200/582 197/583 193/584
vt 0.01875 0.975
vt 0.0125 0.975
vt 0.0125 1
vt 0.01875 1
f 194/585 193/586 197/587 198/588
vt 0.025 1
vt 0.01875 1
vt 0.01875 0.975
vt 0.025 0.975
f 199/589 200/590 196/591 195/592
vt 0.01875 0.940625
vt 0.0125 0.940625
vt 0.0125 0.975
vt 0.01875 0.975
f 195/593 196/594 193/595 194/596
vt 0.0375 0.940625
vt 0.03125 0.940625
vt 0.03125 0.975
vt 0.0375 0.975
f 200/597 199/598 198/599 197/600
o scope34
v 3.9 6.099998 0.15
v 4.3 6.099998 0.15
v 4.3 5.699998 0.15
v 3.9 5.699998 0.15
v 3.9 6.099998 0.65
v 4.3 6.099998 0.65
v 4.3 5.699998 0.65
v 3.9 5.699998 0.65
vt 0.021875 0.971875
vt 0.0140625 0.971875
vt 0.0140625 0.984375
vt 0.021875 0.984375
f 207/601 203/602 202/603 206/604
vt 0.0078125 0.971875
vt 0 0.971875
vt 0 0.984375
vt 0.0078125 0.984375
f 204/605 208/606 205/607 201/608
vt 0.0140625 0.984375
vt 0.0078125 0.984375
vt 0.0078125 1
vt 0.0140625 1
f 202/609 201/610 205/611 206/612
vt 0.0203125 1
vt 0.0140625 1
vt 0.0140625 0.984375
vt 0.0203125 0.984375
f 207/613 208/614 204/615 203/616
vt 0.0140625 0.971875
vt 0.0078125 0.971875
vt 0.0078125 0.984375
vt 0.0140625 0.984375
f 203/617 204/618 201/619 202/620
vt 0.028125 0.971875
vt 0.021875 0.971875
vt 0.021875 0.984375
vt 0.028125 0.984375
f 208/621 207/622 206/623 205/624
o scope35
v 2.649998 6.979998 -0.1999999
v 2.849998 6.979998 -0.1499999
v 2.849998 6.879998 -0.1499999
v 2.649998 6.879998 -0.1999999
v 2.649998 6.979998 0.2000001
v 2.849998 6.979998 0.1500001
v 2.849998 6.879998 0.1500001
v 2.649998 6.879998 0.2000001
vt 0.015625 0.984375
vt 0.009375 0.984375
vt 0.009375 0.9875
vt 0.015625 0.9875
f 215/625 211/626 210/627 214/628
vt 0.00625 0.984375
vt 0 0.984375
vt 0 0.9875
vt 0.00625 0.9875
f 212/629 216/630 213/631 209/632
vt 0.009375 0.9875
vt 0.00625 0.9875
vt 0.00625 1
vt 0.009375 1
f 210/633 209/634 213/635 214/636
vt 0.0125 1
vt 0.009375 1
vt 0.009375 0.9875
vt 0.0125 0.9875
f 215/637 216/638 212/639 211/640
vt 0.009375 0.984375
vt 0.00625 0.984375
vt 0.00625 0.9875
vt 0.009375 0.9875
f 211/641 212/642 209/643 210/644
vt 0.01875 0.984375
vt 0.015625 0.984375
vt 0.015625 0.9875
vt 0.01875 0.9875
f 216/645 215/646 214/647 213/648
o scope36
v 2.5 6.449998 0.4
v 2.8 6.449998 0.4
v 2.8 6.149998 0.4
v 2.5 6.149998 0.4
v 2.5 6.449998 0.6
v 2.8 6.449998 0.6
v 2.8 6.149998 0.6
v 2.5 6.149998 0.6
vt 0.0109375 0.984375
vt 0.0078125 0.984375
vt 0.0078125 0.99375
vt 0.0109375 0.99375
f 223/649 219/650 218/651 222/652
vt 0.003125 0.984375
vt 0 0.984375
vt 0 0.99375
vt 0.003125 0.99375
f 220/653 224/654 221/655 217/656
vt 0.0078125 0.99375
vt 0.003125 0.99375
vt 0.003125 1
vt 0.0078125 1
f 218/657 217/658 221/659 222/660
vt 0.0125 1
vt 0.0078125 1
vt 0.0078125 0.99375
vt 0.0125 0.99375
f 223/661 224/662 220/663 219/664
vt 0.0078125 0.984375
vt 0.003125 0.984375
vt 0.003125 0.99375
vt 0.0078125 0.99375
f 219/665 220/666 217/667 218/668
vt 0.015625 0.984375
vt 0.0109375 0.984375
vt 0.0109375 0.99375
vt 0.015625 0.99375
f 224/669 223/670 222/671 221/672
o scope37
v 2.449999 6.449998 0.6
v 2.649999 6.499998 0.6
v 2.649999 6.099998 0.6
v 2.449999 6.149998 0.6
v 2.449999 6.449998 0.7
v 2.649999 6.499998 0.7
v 2.649999 6.099998 0.7
v 2.449999 6.149998 0.7
vt 0.00625 0.984375
vt 0.0046875 0.984375
vt 0.0046875 0.996875
vt 0.00625 0.996875
f 231/673 227/674 226/675 230/676
vt 0.0015625 0.984375
vt 0 0.984375
vt 0 0.996875
vt 0.0015625 0.996875
f 228/677 232/678 229/679 225/680
vt 0.0046875 0.996875
vt 0.0015625 0.996875
vt 0.0015625 1
vt 0.0046875 1
f 226/681 225/682 229/683 230/684
vt 0.0078125 1
vt 0.0046875 1
vt 0.0046875 0.996875
vt 0.0078125 0.996875
f 231/685 232/686 228/687 227/688
vt 0.0046875 0.984375
vt 0.0015625 0.984375
vt 0.0015625 0.996875
vt 0.0046875 0.996875
f 227/689 228/690 225/691 226/692
vt 0.009375 0.984375
vt 0.00625 0.984375
vt 0.00625 0.996875
vt 0.009375 0.996875
f 232/693 231/694 230/695 229/696
o scope38
v 2.649998 6.499998 0.6
v 2.849998 6.449998 0.6
v 2.849998 6.149998 0.6
v 2.649998 6.099998 0.6
v 2.649998 6.499998 0.7
v 2.849998 6.449998 0.7
v 2.849998 6.149998 0.7
v 2.649998 6.099998 0.7
vt 0.00625 0.984375
vt 0.0046875 0.984375
vt 0.0046875 0.996875
vt 0.00625 0.996875
f 239/697 235/698 234/699 238/700
vt 0.0015625 0.984375
vt 0 0.984375
vt 0 0.996875
vt 0.0015625 0.996875
f 236/701 240/702 237/703 233/704
vt 0.0046875 0.996875
vt 0.0015625 0.996875
vt 0.0015625 1
vt 0.0046875 1
f 234/705 233/706 237/707 238/708
vt 0.0078125 1
vt 0.0046875 1
vt 0.0046875 0.996875
vt 0.0078125 0.996875
f 239/709 240/710 236/711 235/712
vt 0.0046875 0.984375
vt 0.0015625 0.984375
vt 0.0015625 0.996875
vt 0.0046875 0.996875
f 235/713 236/714 233/715 234/716
vt 0.009375 0.984375
vt 0.00625 0.984375
vt 0.00625 0.996875
vt 0.009375 0.996875
f 240/717 239/718 238/719 237/720
