# Converted from Decimation Beardie model: officechair.bmodel
# Coordinates retain the original Beardie model units.
mtllib officechair.mtl
usemtl officechair_material
o bodyModel0
v -6 11 -6
v 6 11 -6
v 6 10 -6
v -6 10 -6
v -6 11 6
v 6 11 6
v 6 10 6
v -6 10 6
vt 0.2890625 0.78125
vt 0.1953125 0.78125
vt 0.1953125 0.796875
vt 0.2890625 0.796875
f 7/1 3/2 2/3 6/4
vt 0.1015625 0.78125
vt 0.0078125 0.78125
vt 0.0078125 0.796875
vt 0.1015625 0.796875
f 4/5 8/6 5/7 1/8
vt 0.1953125 0.796875
vt 0.1015625 0.796875
vt 0.1015625 0.984375
vt 0.1953125 0.984375
f 2/9 1/10 5/11 6/12
vt 0.2890625 0.984375
vt 0.1953125 0.984375
vt 0.1953125 0.796875
vt 0.2890625 0.796875
f 7/13 8/14 4/15 3/16
vt 0.1953125 0.78125
vt 0.1015625 0.78125
vt 0.1015625 0.796875
vt 0.1953125 0.796875
f 3/17 4/18 1/19 2/20
vt 0.3828125 0.78125
vt 0.2890625 0.78125
vt 0.2890625 0.796875
vt 0.3828125 0.796875
f 8/21 7/22 6/23 5/24
o bodyModel1
v -5 11 -5
v 5 11 -5
v 5 9 -5
v -5 9 -5
v -5 11 5
v 5 11 5
v 5 9 5
v -5 9 5
vt 0.6796875 0.796875
vt 0.6015625 0.796875
vt 0.6015625 0.828125
vt 0.6796875 0.828125
f 15/25 11/26 10/27 14/28
vt 0.5234375 0.796875
vt 0.4453125 0.796875
vt 0.4453125 0.828125
vt 0.5234375 0.828125
f 12/29 16/30 13/31 9/32
vt 0.6015625 0.828125
vt 0.5234375 0.828125
vt 0.5234375 0.984375
vt 0.6015625 0.984375
f 10/33 9/34 13/35 14/36
vt 0.6796875 0.984375
vt 0.6015625 0.984375
vt 0.6015625 0.828125
vt 0.6796875 0.828125
f 15/37 16/38 12/39 11/40
vt 0.6015625 0.796875
vt 0.5234375 0.796875
vt 0.5234375 0.828125
vt 0.6015625 0.828125
f 11/41 12/42 9/43 10/44
vt 0.7578125 0.796875
vt 0.6796875 0.796875
vt 0.6796875 0.828125
vt 0.7578125 0.828125
f 16/45 15/46 14/47 13/48
o bodyModel2
v -0.85 9 -0.85
v 0.85 9 -0.85
v 0.85 6 -0.85
v -0.85 6 -0.85
v -0.85 9 0.85
v 0.85 9 0.85
v 0.85 6 0.85
v -0.85 6 0.85
vt 0.0546875 0.90625
vt 0.0390625 0.90625
vt 0.0390625 0.953125
vt 0.0546875 0.953125
f 23/49 19/50 18/51 22/52
vt 0.0234375 0.90625
vt 0.0078125 0.90625
vt 0.0078125 0.953125
vt 0.0234375 0.953125
f 20/53 24/54 21/55 17/56
vt 0.0390625 0.953125
vt 0.0234375 0.953125
vt 0.0234375 0.984375
vt 0.0390625 0.984375
f 18/57 17/58 21/59 22/60
vt 0.0546875 0.984375
vt 0.0390625 0.984375
vt 0.0390625 0.953125
vt 0.0546875 0.953125
f 23/61 24/62 20/63 19/64
vt 0.0390625 0.90625
vt 0.0234375 0.90625
vt 0.0234375 0.953125
vt 0.0390625 0.953125
f 19/65 20/66 17/67 18/68
vt 0.0703125 0.90625
vt 0.0546875 0.90625
vt 0.0546875 0.953125
vt 0.0703125 0.953125
f 24/69 23/70 22/71 21/72
o bodyModel3
v -6.85 20.1 -0.85
v -6.15 20.1 -0.85
v -5.15 9.1 -0.85
v -5.85 9.1 -0.85
v -6.85 20.1 0.85
v -6.15 20.1 0.85
v -5.15 9.1 0.85
v -5.85 9.1 0.85
vt 0.859375 0.78125
vt 0.84375 0.78125
vt 0.84375 0.953125
vt 0.859375 0.953125
f 31/73 27/74 26/75 30/76
vt 0.8359375 0.78125
vt 0.8203125 0.78125
vt 0.8203125 0.953125
vt 0.8359375 0.953125
f 28/77 32/78 29/79 25/80
vt 0.84375 0.953125
vt 0.8359375 0.953125
vt 0.8359375 0.984375
vt 0.84375 0.984375
f 26/81 25/82 29/83 30/84
vt 0.8515625 0.984375
vt 0.84375 0.984375
vt 0.84375 0.953125
vt 0.8515625 0.953125
f 31/85 32/86 28/87 27/88
vt 0.84375 0.78125
vt 0.8359375 0.78125
vt 0.8359375 0.953125
vt 0.84375 0.953125
f 27/89 28/90 25/91 26/92
vt 0.8671875 0.78125
vt 0.859375 0.78125
vt 0.859375 0.953125
vt 0.8671875 0.953125
f 32/93 31/94 30/95 29/96
o bodyModel4
v -1 6 -1
v 1 6 -1
v 1.15 3 -1.15
v -1.15 3 -1.15
v -1 6 1
v 1 6 1
v 1.15 3 1.15
v -1.15 3 1.15
vt 0.3671875 0.90625
vt 0.3515625 0.90625
vt 0.3515625 0.953125
vt 0.3671875 0.953125
f 39/97 35/98 34/99 38/100
vt 0.3359375 0.90625
vt 0.3203125 0.90625
vt 0.3203125 0.953125
vt 0.3359375 0.953125
f 36/101 40/102 37/103 33/104
vt 0.3515625 0.953125
vt 0.3359375 0.953125
vt 0.3359375 0.984375
vt 0.3515625 0.984375
f 34/105 33/106 37/107 38/108
vt 0.3671875 0.984375
vt 0.3515625 0.984375
vt 0.3515625 0.953125
vt 0.3671875 0.953125
f 39/109 40/110 36/111 35/112
vt 0.3515625 0.90625
vt 0.3359375 0.90625
vt 0.3359375 0.953125
vt 0.3515625 0.953125
f 35/113 36/114 33/115 34/116
vt 0.3828125 0.90625
vt 0.3671875 0.90625
vt 0.3671875 0.953125
vt 0.3828125 0.953125
f 40/117 39/118 38/119 37/120
o bodyModel5
v -1.15 3 -1.15
v 1.15 3 -1.15
v 1 2 -1
v -1 2 -1
v -1.15 3 1.15
v 1.15 3 1.15
v 1 2 1
v -1 2 1
vt 0.4921875 0.9375
vt 0.4765625 0.9375
vt 0.4765625 0.953125
vt 0.4921875 0.953125
f 47/121 43/122 42/123 46/124
vt 0.4609375 0.9375
vt 0.4453125 0.9375
vt 0.4453125 0.953125
vt 0.4609375 0.953125
f 44/125 48/126 45/127 41/128
vt 0.4765625 0.953125
vt 0.4609375 0.953125
vt 0.4609375 0.984375
vt 0.4765625 0.984375
f 42/129 41/130 45/131 46/132
vt 0.4921875 0.984375
vt 0.4765625 0.984375
vt 0.4765625 0.953125
vt 0.4921875 0.953125
f 47/133 48/134 44/135 43/136
vt 0.4765625 0.9375
vt 0.4609375 0.9375
vt 0.4609375 0.953125
vt 0.4765625 0.953125
f 43/137 44/138 41/139 42/140
vt 0.5078125 0.9375
vt 0.4921875 0.9375
vt 0.4921875 0.953125
vt 0.5078125 0.953125
f 48/141 47/142 46/143 45/144
o bodyModel6
v -0.4531539 3.25 0.2113091
v 0.4531539 3.25 -0.2113091
v 0.4891149 2.266879 -0.4891206
v -0.6890852 2.266879 0.06028308
v 2.914927 2.552754 7.434181
v 3.821234 2.552754 7.011563
v 3.983498 1.543486 7.004609
v 2.805298 1.543486 7.554013
vt 0.953125 0.71875
vt 0.890625 0.71875
vt 0.890625 0.734375
vt 0.953125 0.734375
f 55/145 51/146 50/147 54/148
vt 0.8828125 0.71875
vt 0.8203125 0.71875
vt 0.8203125 0.734375
vt 0.8828125 0.734375
f 52/149 56/150 53/151 49/152
vt 0.890625 0.734375
vt 0.8828125 0.734375
vt 0.8828125 0.859375
vt 0.890625 0.859375
f 50/153 49/154 53/155 54/156
vt 0.8984375 0.859375
vt 0.890625 0.859375
vt 0.890625 0.734375
vt 0.8984375 0.734375
f 55/157 56/158 52/159 51/160
vt 0.890625 0.71875
vt 0.8828125 0.71875
vt 0.8828125 0.734375
vt 0.890625 0.734375
f 51/161 52/162 49/163 50/164
vt 0.9609375 0.71875
vt 0.953125 0.71875
vt 0.953125 0.734375
vt 0.9609375 0.734375
f 56/165 55/166 54/167 53/168
o bodyModel7
v -0.2867882 3.25 -0.409576
v 0.2867882 3.25 0.409576
v 0.5666237 2.266879 0.3967493
v -0.1790256 2.266879 -0.6681484
v -6.815068 2.552754 4.161574
v -6.241491 2.552754 4.980726
v -6.206466 1.543486 5.139318
v -6.952116 1.543486 4.07442
vt 0.140625 0.59375
vt 0.078125 0.59375
vt 0.078125 0.609375
vt 0.140625 0.609375
f 63/169 59/170 58/171 62/172
vt 0.0703125 0.59375
vt 0.0078125 0.59375
vt 0.0078125 0.609375
vt 0.0703125 0.609375
f 60/173 64/174 61/175 57/176
vt 0.078125 0.609375
vt 0.0703125 0.609375
vt 0.0703125 0.734375
vt 0.078125 0.734375
f 58/177 57/178 61/179 62/180
vt 0.0859375 0.734375
vt 0.078125 0.734375
vt 0.078125 0.609375
vt 0.0859375 0.609375
f 63/181 64/182 60/183 59/184
vt 0.078125 0.59375
vt 0.0703125 0.59375
vt 0.0703125 0.609375
vt 0.078125 0.609375
f 59/185 60/186 57/187 58/188
vt 0.1484375 0.59375
vt 0.140625 0.59375
vt 0.140625 0.609375
vt 0.1484375 0.609375
f 64/189 63/190 62/191 61/192
o bodyModel8
v 0.4531538 3.25 0.2113093
v -0.4531538 3.25 -0.2113093
v -0.6890852 2.266879 -0.06028333
v 0.4891148 2.266879 0.4891208
v 3.821237 2.552754 -7.011562
v 2.914929 2.552754 -7.43418
v 2.805301 1.543486 -7.554012
v 3.983501 1.543486 -7.004608
vt 0.328125 0.59375
vt 0.265625 0.59375
vt 0.265625 0.609375
vt 0.328125 0.609375
f 71/193 67/194 66/195 70/196
vt 0.2578125 0.59375
vt 0.1953125 0.59375
vt 0.1953125 0.609375
vt 0.2578125 0.609375
f 68/197 72/198 69/199 65/200
vt 0.265625 0.609375
vt 0.2578125 0.609375
vt 0.2578125 0.734375
vt 0.265625 0.734375
f 66/201 65/202 69/203 70/204
vt 0.2734375 0.734375
vt 0.265625 0.734375
vt 0.265625 0.609375
vt 0.2734375 0.609375
f 71/205 72/206 68/207 67/208
vt 0.265625 0.59375
vt 0.2578125 0.59375
vt 0.2578125 0.609375
vt 0.265625 0.609375
f 67/209 68/210 65/211 66/212
vt 0.3359375 0.59375
vt 0.328125 0.59375
vt 0.328125 0.609375
vt 0.3359375 0.609375
f 72/213 71/214 70/215 69/216
o bodyModel9
v 0.3213938 3.25 -0.3830222
v -0.3213938 3.25 0.3830222
v -0.2365773 2.266879 0.6500028
v 0.5990465 2.266879 -0.345855
v -5.783642 2.552754 -5.505755
v -6.426429 2.552754 -4.73971
v -6.570552 1.543486 -4.664832
v -5.734928 1.543486 -5.66069
vt 0.515625 0.59375
vt 0.453125 0.59375
vt 0.453125 0.609375
vt 0.515625 0.609375
f 79/217 75/218 74/219 78/220
vt 0.4453125 0.59375
vt 0.3828125 0.59375
vt 0.3828125 0.609375
vt 0.4453125 0.609375
f 76/221 80/222 77/223 73/224
vt 0.453125 0.609375
vt 0.4453125 0.609375
vt 0.4453125 0.734375
vt 0.453125 0.734375
f 74/225 73/226 77/227 78/228
vt 0.4609375 0.734375
vt 0.453125 0.734375
vt 0.453125 0.609375
vt 0.4609375 0.609375
f 79/229 80/230 76/231 75/232
vt 0.453125 0.59375
vt 0.4453125 0.59375
vt 0.4453125 0.609375
vt 0.453125 0.609375
f 75/233 76/234 73/235 74/236
vt 0.5234375 0.59375
vt 0.515625 0.59375
vt 0.515625 0.609375
vt 0.5234375 0.609375
f 80/237 79/238 78/239 77/240
o bodyModel10
v -1.633974e-07 3.25 0.5
v 1.633974e-07 3.25 -0.5
v -0.2365847 2.266879 -0.6500001
v -0.2365852 2.266879 0.6499999
v 7.969557 2.552754 0.5000026
v 7.969558 2.552754 -0.4999974
v 8.031831 1.543486 -0.6499974
v 8.031831 1.543486 0.6500026
vt 0.703125 0.59375
vt 0.640625 0.59375
vt 0.640625 0.609375
vt 0.703125 0.609375
f 87/241 83/242 82/243 86/244
vt 0.6328125 0.59375
vt 0.5703125 0.59375
vt 0.5703125 0.609375
vt 0.6328125 0.609375
f 84/245 88/246 85/247 81/248
vt 0.640625 0.609375
vt 0.6328125 0.609375
vt 0.6328125 0.734375
vt 0.640625 0.734375
f 82/249 81/250 85/251 86/252
vt 0.6484375 0.734375
vt 0.640625 0.734375
vt 0.640625 0.609375
vt 0.6484375 0.609375
f 87/253 88/254 84/255 83/256
vt 0.640625 0.59375
vt 0.6328125 0.59375
vt 0.6328125 0.609375
vt 0.640625 0.609375
f 83/257 84/258 81/259 82/260
vt 0.7109375 0.59375
vt 0.703125 0.59375
vt 0.703125 0.609375
vt 0.7109375 0.609375
f 88/261 87/262 86/263 85/264
o bodyModel11
v 5.5 2 0.8500018
v 5.5 2 -0.8499982
v 5.5 -0 -0.8499982
v 5.5 -0 0.8500018
v 7.5 2 0.8500025
v 7.5 2 -0.8499975
v 7.5 -0 -0.8499975
v 7.5 -0 0.8500025
vt 0.7421875 0.921875
vt 0.7265625 0.921875
vt 0.7265625 0.953125
vt 0.7421875 0.953125
f 95/265 91/266 90/267 94/268
vt 0.7109375 0.921875
vt 0.6953125 0.921875
vt 0.6953125 0.953125
vt 0.7109375 0.953125
f 92/269 96/270 93/271 89/272
vt 0.7265625 0.953125
vt 0.7109375 0.953125
vt 0.7109375 0.984375
vt 0.7265625 0.984375
f 90/273 89/274 93/275 94/276
vt 0.7421875 0.984375
vt 0.7265625 0.984375
vt 0.7265625 0.953125
vt 0.7421875 0.953125
f 95/277 96/278 92/279 91/280
vt 0.7265625 0.921875
vt 0.7109375 0.921875
vt 0.7109375 0.953125
vt 0.7265625 0.953125
f 91/281 92/282 89/283 90/284
vt 0.7578125 0.921875
vt 0.7421875 0.921875
vt 0.7421875 0.953125
vt 0.7578125 0.953125
f 96/285 95/286 94/287 93/288
o bodyModel12
v 5.75 1.75 1.000002
v 5.75 1.75 -0.9999981
v 5.75 0.25 -0.9999981
v 5.75 0.25 1.000002
v 7.25 1.75 1.000002
v 7.25 1.75 -0.9999976
v 7.25 0.25 -0.9999976
v 7.25 0.25 1.000002
vt 0.9296875 0.921875
vt 0.9140625 0.921875
vt 0.9140625 0.953125
vt 0.9296875 0.953125
f 103/289 99/290 98/291 102/292
vt 0.8984375 0.921875
vt 0.8828125 0.921875
vt 0.8828125 0.953125
vt 0.8984375 0.953125
f 100/293 104/294 101/295 97/296
vt 0.9140625 0.953125
vt 0.8984375 0.953125
vt 0.8984375 0.984375
vt 0.9140625 0.984375
f 98/297 97/298 101/299 102/300
vt 0.9296875 0.984375
vt 0.9140625 0.984375
vt 0.9140625 0.953125
vt 0.9296875 0.953125
f 103/301 104/302 100/303 99/304
vt 0.9140625 0.921875
vt 0.8984375 0.921875
vt 0.8984375 0.953125
vt 0.9140625 0.953125
f 99/305 100/306 97/307 98/308
vt 0.9453125 0.921875
vt 0.9296875 0.921875
vt 0.9296875 0.953125
vt 0.9453125 0.953125
f 104/309 103/310 102/311 101/312
o bodyModel13
v 1.523747 1.75 5.633888
v 3.336363 1.75 4.788652
v 3.336363 0.25 4.788652
v 1.523747 0.25 5.633888
v 2.157675 1.75 6.99335
v 3.97029 1.75 6.148113
v 3.97029 0.25 6.148113
v 2.157675 0.25 6.99335
vt 0.1796875 0.671875
vt 0.1640625 0.671875
vt 0.1640625 0.703125
vt 0.1796875 0.703125
f 111/313 107/314 106/315 110/316
vt 0.1484375 0.671875
vt 0.1328125 0.671875
vt 0.1328125 0.703125
vt 0.1484375 0.703125
f 108/317 112/318 109/319 105/320
vt 0.1640625 0.703125
vt 0.1484375 0.703125
vt 0.1484375 0.734375
vt 0.1640625 0.734375
f 106/321 105/322 109/323 110/324
vt 0.1796875 0.734375
vt 0.1640625 0.734375
vt 0.1640625 0.703125
vt 0.1796875 0.703125
f 111/325 112/326 108/327 107/328
vt 0.1640625 0.671875
vt 0.1484375 0.671875
vt 0.1484375 0.703125
vt 0.1640625 0.703125
f 107/329 108/330 105/331 106/332
vt 0.1953125 0.671875
vt 0.1796875 0.671875
vt 0.1796875 0.703125
vt 0.1953125 0.703125
f 112/333 111/334 110/335 109/336
o bodyModel14
v 1.554039 2 5.343918
v 3.094762 2 4.625467
v 3.094762 -0 4.625467
v 1.554039 -0 5.343918
v 2.399275 2 7.156534
v 3.939998 2 6.438083
v 3.939998 -0 6.438083
v 2.399275 -0 7.156534
vt 0.3671875 0.671875
vt 0.3515625 0.671875
vt 0.3515625 0.703125
vt 0.3671875 0.703125
f 119/337 115/338 114/339 118/340
vt 0.3359375 0.671875
vt 0.3203125 0.671875
vt 0.3203125 0.703125
vt 0.3359375 0.703125
f 116/341 120/342 117/343 113/344
vt 0.3515625 0.703125
vt 0.3359375 0.703125
vt 0.3359375 0.734375
vt 0.3515625 0.734375
f 114/345 113/346 117/347 118/348
vt 0.3671875 0.734375
vt 0.3515625 0.734375
vt 0.3515625 0.703125
vt 0.3671875 0.703125
f 119/349 120/350 116/351 115/352
vt 0.3515625 0.671875
vt 0.3359375 0.671875
vt 0.3359375 0.703125
vt 0.3515625 0.703125
f 115/353 116/354 113/355 114/356
vt 0.3828125 0.671875
vt 0.3671875 0.671875
vt 0.3671875 0.703125
vt 0.3828125 0.703125
f 120/357 119/358 118/359 117/360
o bodyModel15
v -5.283701 1.75 2.478912
v -4.136548 1.75 4.117217
v -4.136548 0.25 4.117217
v -5.283701 0.25 2.478912
v -6.512429 1.75 3.339277
v -5.365276 1.75 4.977581
v -5.365276 0.25 4.977581
v -6.512429 0.25 3.339277
vt 0.5546875 0.671875
vt 0.5390625 0.671875
vt 0.5390625 0.703125
vt 0.5546875 0.703125
f 127/361 123/362 122/363 126/364
vt 0.5234375 0.671875
vt 0.5078125 0.671875
vt 0.5078125 0.703125
vt 0.5234375 0.703125
f 124/365 128/366 125/367 121/368
vt 0.5390625 0.703125
vt 0.5234375 0.703125
vt 0.5234375 0.734375
vt 0.5390625 0.734375
f 122/369 121/370 125/371 126/372
vt 0.5546875 0.734375
vt 0.5390625 0.734375
vt 0.5390625 0.703125
vt 0.5546875 0.703125
f 127/373 128/374 124/375 123/376
vt 0.5390625 0.671875
vt 0.5234375 0.671875
vt 0.5234375 0.703125
vt 0.5390625 0.703125
f 123/377 124/378 121/379 122/380
vt 0.5703125 0.671875
vt 0.5546875 0.671875
vt 0.5546875 0.703125
vt 0.5703125 0.703125
f 128/381 127/382 126/383 125/384
o bodyModel16
v -4.992876 2 2.458391
v -4.017796 2 3.85095
v -4.017796 -0 3.85095
v -4.992876 -0 2.458391
v -6.63118 2 3.605544
v -5.6561 2 4.998102
v -5.6561 -0 4.998102
v -6.63118 -0 3.605544
vt 0.7421875 0.671875
vt 0.7265625 0.671875
vt 0.7265625 0.703125
vt 0.7421875 0.703125
f 135/385 131/386 130/387 134/388
vt 0.7109375 0.671875
vt 0.6953125 0.671875
vt 0.6953125 0.703125
vt 0.7109375 0.703125
f 132/389 136/390 133/391 129/392
vt 0.7265625 0.703125
vt 0.7109375 0.703125
vt 0.7109375 0.734375
vt 0.7265625 0.734375
f 130/393 129/394 133/395 134/396
vt 0.7421875 0.734375
vt 0.7265625 0.734375
vt 0.7265625 0.703125
vt 0.7421875 0.703125
f 135/397 136/398 132/399 131/400
vt 0.7265625 0.671875
vt 0.7109375 0.671875
vt 0.7109375 0.703125
vt 0.7265625 0.703125
f 131/401 132/402 129/403 130/404
vt 0.7578125 0.671875
vt 0.7421875 0.671875
vt 0.7421875 0.703125
vt 0.7578125 0.703125
f 136/405 135/406 134/407 133/408
o bodyModel17
v -3.761968 1.75 -4.462073
v -5.047543 1.75 -2.929984
v -5.047543 0.25 -2.929984
v -3.761968 0.25 -4.462073
v -4.911035 1.75 -5.426254
v -6.19661 1.75 -3.894166
v -6.19661 0.25 -3.894166
v -4.911035 0.25 -5.426254
vt 0.8046875 0.546875
vt 0.7890625 0.546875
vt 0.7890625 0.578125
vt 0.8046875 0.578125
f 143/409 139/410 138/411 142/412
vt 0.7734375 0.546875
vt 0.7578125 0.546875
vt 0.7578125 0.578125
vt 0.7734375 0.578125
f 140/413 144/414 141/415 137/416
vt 0.7890625 0.578125
vt 0.7734375 0.578125
vt 0.7734375 0.609375
vt 0.7890625 0.609375
f 138/417 137/418 141/419 142/420
vt 0.8046875 0.609375
vt 0.7890625 0.609375
vt 0.7890625 0.578125
vt 0.8046875 0.578125
f 143/421 144/422 140/423 139/424
vt 0.7890625 0.546875
vt 0.7734375 0.546875
vt 0.7734375 0.578125
vt 0.7890625 0.578125
f 139/425 140/426 137/427 138/428
vt 0.8203125 0.546875
vt 0.8046875 0.546875
vt 0.8046875 0.578125
vt 0.8203125 0.578125
f 144/429 143/430 142/431 141/432
o bodyModel18
v -3.666875 2 -4.18647
v -4.759614 2 -2.884194
v -4.759614 -0 -2.884194
v -3.666875 -0 -4.18647
v -5.198964 2 -5.472045
v -6.291703 2 -4.169769
v -6.291703 -0 -4.169769
v -5.198964 -0 -5.472045
vt 0.9296875 0.546875
vt 0.9140625 0.546875
vt 0.9140625 0.578125
vt 0.9296875 0.578125
f 151/433 147/434 146/435 150/436
vt 0.8984375 0.546875
vt 0.8828125 0.546875
vt 0.8828125 0.578125
vt 0.8984375 0.578125
f 148/437 152/438 149/439 145/440
vt 0.9140625 0.578125
vt 0.8984375 0.578125
vt 0.8984375 0.609375
vt 0.9140625 0.609375
f 146/441 145/442 149/443 150/444
vt 0.9296875 0.609375
vt 0.9140625 0.609375
vt 0.9140625 0.578125
vt 0.9296875 0.578125
f 151/445 152/446 148/447 147/448
vt 0.9140625 0.546875
vt 0.8984375 0.546875
vt 0.8984375 0.578125
vt 0.9140625 0.578125
f 147/449 148/450 145/451 146/452
vt 0.9453125 0.546875
vt 0.9296875 0.546875
vt 0.9296875 0.578125
vt 0.9453125 0.578125
f 152/453 151/454 150/455 149/456
o bodyModel19
v 3.336364 1.75 -4.78865
v 1.523749 1.75 -5.633888
v 1.523749 0.25 -5.633888
v 3.336364 0.25 -4.78865
v 3.970292 1.75 -6.148112
v 2.157677 1.75 -6.993349
v 2.157677 0.25 -6.993349
v 3.970292 0.25 -6.148112
vt 0.0546875 0.421875
vt 0.0390625 0.421875
vt 0.0390625 0.453125
vt 0.0546875 0.453125
f 159/457 155/458 154/459 158/460
vt 0.0234375 0.421875
vt 0.0078125 0.421875
vt 0.0078125 0.453125
vt 0.0234375 0.453125
f 156/461 160/462 157/463 153/464
vt 0.0390625 0.453125
vt 0.0234375 0.453125
vt 0.0234375 0.484375
vt 0.0390625 0.484375
f 154/465 153/466 157/467 158/468
vt 0.0546875 0.484375
vt 0.0390625 0.484375
vt 0.0390625 0.453125
vt 0.0546875 0.453125
f 159/469 160/470 156/471 155/472
vt 0.0390625 0.421875
vt 0.0234375 0.421875
vt 0.0234375 0.453125
vt 0.0390625 0.453125
f 155/473 156/474 153/475 154/476
vt 0.0703125 0.421875
vt 0.0546875 0.421875
vt 0.0546875 0.453125
vt 0.0703125 0.453125
f 160/477 159/478 158/479 157/480
o bodyModel20
v 3.094764 2 -4.625466
v 1.554041 2 -5.343918
v 1.554041 -0 -5.343918
v 3.094764 -0 -4.625466
v 3.940001 2 -6.438082
v 2.399278 2 -7.156533
v 2.399278 -0 -7.156533
v 3.940001 -0 -6.438082
vt 0.1796875 0.421875
vt 0.1640625 0.421875
vt 0.1640625 0.453125
vt 0.1796875 0.453125
f 167/481 163/482 162/483 166/484
vt 0.1484375 0.421875
vt 0.1328125 0.421875
vt 0.1328125 0.453125
vt 0.1484375 0.453125
f 164/485 168/486 165/487 161/488
vt 0.1640625 0.453125
vt 0.1484375 0.453125
vt 0.1484375 0.484375
vt 0.1640625 0.484375
f 162/489 161/490 165/491 166/492
vt 0.1796875 0.484375
vt 0.1640625 0.484375
vt 0.1640625 0.453125
vt 0.1796875 0.453125
f 167/493 168/494 164/495 163/496
vt 0.1640625 0.421875
vt 0.1484375 0.421875
vt 0.1484375 0.453125
vt 0.1640625 0.453125
f 163/497 164/498 161/499 162/500
vt 0.1953125 0.421875
vt 0.1796875 0.421875
vt 0.1796875 0.453125
vt 0.1953125 0.453125
f 168/501 167/502 166/503 165/504
o bodyModel21
v -6.795123 22.56318 -5
v -5.798928 22.65034 -5
v -5.188838 15.67698 -6
v -6.185032 15.58982 -6
v -6.795123 22.56318 5
v -5.798928 22.65034 5
v -5.188838 15.67698 6
v -6.185032 15.58982 6
vt 0.921875 0.34375
vt 0.84375 0.34375
vt 0.84375 0.453125
vt 0.921875 0.453125
f 175/505 171/506 170/507 174/508
vt 0.8359375 0.34375
vt 0.7578125 0.34375
vt 0.7578125 0.453125
vt 0.8359375 0.453125
f 172/509 176/510 173/511 169/512
vt 0.84375 0.453125
vt 0.8359375 0.453125
vt 0.8359375 0.609375
vt 0.84375 0.609375
f 170/513 169/514 173/515 174/516
vt 0.8515625 0.609375
vt 0.84375 0.609375
vt 0.84375 0.453125
vt 0.8515625 0.453125
f 175/517 176/518 172/519 171/520
vt 0.84375 0.34375
vt 0.8359375 0.34375
vt 0.8359375 0.453125
vt 0.84375 0.453125
f 171/521 172/522 169/523 170/524
vt 0.9296875 0.34375
vt 0.921875 0.34375
vt 0.921875 0.453125
vt 0.9296875 0.453125
f 176/525 175/526 174/527 173/528
o bodyModel22
v -5.798928 22.65034 -5
v -4.802733 22.73749 -4
v -4.192643 15.76413 -5
v -5.188838 15.67698 -6
v -5.798928 22.65034 5
v -4.802733 22.73749 4
v -4.192643 15.76413 5
v -5.188838 15.67698 6
vt 0.171875 0.21875
vt 0.09375 0.21875
vt 0.09375 0.328125
vt 0.171875 0.328125
f 183/529 179/530 178/531 182/532
vt 0.0859375 0.21875
vt 0.0078125 0.21875
vt 0.0078125 0.328125
vt 0.0859375 0.328125
f 180/533 184/534 181/535 177/536
vt 0.09375 0.328125
vt 0.0859375 0.328125
vt 0.0859375 0.484375
vt 0.09375 0.484375
f 178/537 177/538 181/539 182/540
vt 0.1015625 0.484375
vt 0.09375 0.484375
vt 0.09375 0.328125
vt 0.1015625 0.328125
f 183/541 184/542 180/543 179/544
vt 0.09375 0.21875
vt 0.0859375 0.21875
vt 0.0859375 0.328125
vt 0.09375 0.328125
f 179/545 180/546 177/547 178/548
vt 0.1796875 0.21875
vt 0.171875 0.21875
vt 0.171875 0.328125
vt 0.1796875 0.328125
f 184/549 183/550 182/551 181/552
o bodyModel23
v -6.060395 25.63892 -3
v -4.977045 24.72988 -2
v -4.802733 22.73749 -4
v -5.798928 22.65034 -5
v -6.060395 25.63892 3
v -4.977045 24.72988 2
v -4.802733 22.73749 4
v -5.798928 22.65034 5
vt 0.359375 0.28125
vt 0.28125 0.28125
vt 0.28125 0.328125
vt 0.359375 0.328125
f 191/553 187/554 186/555 190/556
vt 0.2734375 0.28125
vt 0.1953125 0.28125
vt 0.1953125 0.328125
vt 0.2734375 0.328125
f 188/557 192/558 189/559 185/560
vt 0.28125 0.328125
vt 0.2734375 0.328125
vt 0.2734375 0.484375
vt 0.28125 0.484375
f 186/561 185/562 189/563 190/564
vt 0.2890625 0.484375
vt 0.28125 0.484375
vt 0.28125 0.328125
vt 0.2890625 0.328125
f 191/565 192/566 188/567 187/568
vt 0.28125 0.28125
vt 0.2734375 0.28125
vt 0.2734375 0.328125
vt 0.28125 0.328125
f 187/569 188/570 185/571 186/572
vt 0.3671875 0.28125
vt 0.359375 0.28125
vt 0.359375 0.328125
vt 0.3671875 0.328125
f 192/573 191/574 190/575 189/576
o bodyModel24
v -7.05659 25.55177 -3
v -6.060395 25.63892 -3
v -5.798928 22.65034 -5
v -6.795123 22.56318 -5
v -7.05659 25.55177 3
v -6.060395 25.63892 3
v -5.798928 22.65034 5
v -6.795123 22.56318 5
vt 0.546875 0.28125
vt 0.46875 0.28125
vt 0.46875 0.328125
vt 0.546875 0.328125
f 199/577 195/578 194/579 198/580
vt 0.4609375 0.28125
vt 0.3828125 0.28125
vt 0.3828125 0.328125
vt 0.4609375 0.328125
f 196/581 200/582 197/583 193/584
vt 0.46875 0.328125
vt 0.4609375 0.328125
vt 0.4609375 0.484375
vt 0.46875 0.484375
f 194/585 193/586 197/587 198/588
vt 0.4765625 0.484375
vt 0.46875 0.484375
vt 0.46875 0.328125
vt 0.4765625 0.328125
f 199/589 200/590 196/591 195/592
vt 0.46875 0.28125
vt 0.4609375 0.28125
vt 0.4609375 0.328125
vt 0.46875 0.328125
f 195/593 196/594 193/595 194/596
vt 0.5546875 0.28125
vt 0.546875 0.28125
vt 0.546875 0.328125
vt 0.5546875 0.328125
f 200/597 199/598 198/599 197/600
o bodyModel25
v -5.188838 15.67698 -6
v -4.192643 15.76413 -5
v -4.105487 14.76794 -4
v -5.014526 13.68459 -5
v -5.188838 15.67698 6
v -4.192643 15.76413 5
v -4.105487 14.76794 4
v -5.014526 13.68459 5
vt 0.734375 0.296875
vt 0.65625 0.296875
vt 0.65625 0.328125
vt 0.734375 0.328125
f 207/601 203/602 202/603 206/604
vt 0.6484375 0.296875
vt 0.5703125 0.296875
vt 0.5703125 0.328125
vt 0.6484375 0.328125
f 204/605 208/606 205/607 201/608
vt 0.65625 0.328125
vt 0.6484375 0.328125
vt 0.6484375 0.484375
vt 0.65625 0.484375
f 202/609 201/610 205/611 206/612
vt 0.6640625 0.484375
vt 0.65625 0.484375
vt 0.65625 0.328125
vt 0.6640625 0.328125
f 207/613 208/614 204/615 203/616
vt 0.65625 0.296875
vt 0.6484375 0.296875
vt 0.6484375 0.328125
vt 0.65625 0.328125
f 203/617 204/618 201/619 202/620
vt 0.7421875 0.296875
vt 0.734375 0.296875
vt 0.734375 0.328125
vt 0.7421875 0.328125
f 208/621 207/622 206/623 205/624
o bodyModel26
v -6.185032 15.58982 -6
v -5.188838 15.67698 -6
v -5.014526 13.68459 -5
v -6.010721 13.59743 -5
v -6.185032 15.58982 6
v -5.188838 15.67698 6
v -5.014526 13.68459 5
v -6.010721 13.59743 5
vt 0.296875 0.046875
vt 0.21875 0.046875
vt 0.21875 0.078125
vt 0.296875 0.078125
f 215/625 211/626 210/627 214/628
vt 0.2109375 0.046875
vt 0.1328125 0.046875
vt 0.1328125 0.078125
vt 0.2109375 0.078125
f 212/629 216/630 213/631 209/632
vt 0.21875 0.078125
vt 0.2109375 0.078125
vt 0.2109375 0.234375
vt 0.21875 0.234375
f 210/633 209/634 213/635 214/636
vt 0.2265625 0.234375
vt 0.21875 0.234375
vt 0.21875 0.078125
vt 0.2265625 0.078125
f 215/637 216/638 212/639 211/640
vt 0.21875 0.046875
vt 0.2109375 0.046875
vt 0.2109375 0.078125
vt 0.21875 0.078125
f 211/641 212/642 209/643 210/644
vt 0.3046875 0.046875
vt 0.296875 0.046875
vt 0.296875 0.078125
vt 0.3046875 0.078125
f 216/645 215/646 214/647 213/648
o bodyModel27
v -5 12 -5
v 5 12 -5
v 6 11 -6
v -6 11 -6
v -5 12 5
v 5 12 5
v 6 11 6
v -6 11 6
vt 0.6015625 0.03125
vt 0.5078125 0.03125
vt 0.5078125 0.046875
vt 0.6015625 0.046875
f 223/649 219/650 218/651 222/652
vt 0.4140625 0.03125
vt 0.3203125 0.03125
vt 0.3203125 0.046875
vt 0.4140625 0.046875
f 220/653 224/654 221/655 217/656
vt 0.5078125 0.046875
vt 0.4140625 0.046875
vt 0.4140625 0.234375
vt 0.5078125 0.234375
f 218/657 217/658 221/659 222/660
vt 0.6015625 0.234375
vt 0.5078125 0.234375
vt 0.5078125 0.046875
vt 0.6015625 0.046875
f 223/661 224/662 220/663 219/664
vt 0.5078125 0.03125
vt 0.4140625 0.03125
vt 0.4140625 0.046875
vt 0.5078125 0.046875
f 219/665 220/666 217/667 218/668
vt 0.6953125 0.03125
vt 0.6015625 0.03125
vt 0.6015625 0.046875
vt 0.6953125 0.046875
f 224/669 223/670 222/671 221/672
o bodyModel28
v -1 15 -8
v 1 15 -8
v 1 8 -8
v -1 8 -8
v -1 15 -7
v 1 15 -7
v 1 8 -7
v -1 8 -7
vt 0.3515625 0.359375
vt 0.34375 0.359375
vt 0.34375 0.46875
vt 0.3515625 0.46875
f 231/673 227/674 226/675 230/676
vt 0.328125 0.359375
vt 0.3203125 0.359375
vt 0.3203125 0.46875
vt 0.328125 0.46875
f 228/677 232/678 229/679 225/680
vt 0.34375 0.46875
vt 0.328125 0.46875
vt 0.328125 0.484375
vt 0.34375 0.484375
f 226/681 225/682 229/683 230/684
vt 0.359375 0.484375
vt 0.34375 0.484375
vt 0.34375 0.46875
vt 0.359375 0.46875
f 231/685 232/686 228/687 227/688
vt 0.34375 0.359375
vt 0.328125 0.359375
vt 0.328125 0.46875
vt 0.34375 0.46875
f 227/689 228/690 225/691 226/692
vt 0.3671875 0.359375
vt 0.3515625 0.359375
vt 0.3515625 0.46875
vt 0.3671875 0.46875
f 232/693 231/694 230/695 229/696
o bodyModel29
v -1 8 -8
v 1 8 -8
v 1 7 -7
v -1 7 -7
v -1 8 8
v 1 8 8
v 1 7 7
v -1 7 7
vt 0.9140625 0
vt 0.7890625 0
vt 0.7890625 0.015625
vt 0.9140625 0.015625
f 239/697 235/698 234/699 238/700
vt 0.7734375 0
vt 0.6484375 0
vt 0.6484375 0.015625
vt 0.7734375 0.015625
f 236/701 240/702 237/703 233/704
vt 0.7890625 0.015625
vt 0.7734375 0.015625
vt 0.7734375 0.265625
vt 0.7890625 0.265625
f 234/705 233/706 237/707 238/708
vt 0.8046875 0.265625
vt 0.7890625 0.265625
vt 0.7890625 0.015625
vt 0.8046875 0.015625
f 239/709 240/710 236/711 235/712
vt 0.7890625 0
vt 0.7734375 0
vt 0.7734375 0.015625
vt 0.7890625 0.015625
f 235/713 236/714 233/715 234/716
vt 0.9296875 0
vt 0.9140625 0
vt 0.9140625 0.015625
vt 0.9296875 0.015625
f 240/717 239/718 238/719 237/720
o bodyModel30
v -1 15 7
v 1 15 7
v 1 8 7
v -1 8 7
v -1 15 8
v 1 15 8
v 1 8 8
v -1 8 8
vt 0.4140625 0.359375
vt 0.40625 0.359375
vt 0.40625 0.46875
vt 0.4140625 0.46875
f 247/721 243/722 242/723 246/724
vt 0.390625 0.359375
vt 0.3828125 0.359375
vt 0.3828125 0.46875
vt 0.390625 0.46875
f 244/725 248/726 245/727 241/728
vt 0.40625 0.46875
vt 0.390625 0.46875
vt 0.390625 0.484375
vt 0.40625 0.484375
f 242/729 241/730 245/731 246/732
vt 0.421875 0.484375
vt 0.40625 0.484375
vt 0.40625 0.46875
vt 0.421875 0.46875
f 247/733 248/734 244/735 243/736
vt 0.40625 0.359375
vt 0.390625 0.359375
vt 0.390625 0.46875
vt 0.40625 0.46875
f 243/737 244/738 241/739 242/740
vt 0.4296875 0.359375
vt 0.4140625 0.359375
vt 0.4140625 0.46875
vt 0.4296875 0.46875
f 248/741 247/742 246/743 245/744
o bodyModel31
v -3 15 -8.25
v 3.973363 15.61009 -8.25
v 3.562421 14.57032 -8.25
v -2.414747 14.04738 -8.25
v -3 15 -6.25
v 3.973363 15.61009 -6.25
v 3.562421 14.57032 -6.25
v -2.414747 14.04738 -6.25
vt 0.34375 0.1875
vt 0.328125 0.1875
vt 0.328125 0.203125
vt 0.34375 0.203125
f 255/745 251/746 250/747 254/748
vt 0.2734375 0.1875
vt 0.2578125 0.1875
vt 0.2578125 0.203125
vt 0.2734375 0.203125
f 252/749 256/750 253/751 249/752
vt 0.328125 0.203125
vt 0.2734375 0.203125
vt 0.2734375 0.234375
vt 0.328125 0.234375
f 250/753 249/754 253/755 254/756
vt 0.3828125 0.234375
vt 0.328125 0.234375
vt 0.328125 0.203125
vt 0.3828125 0.203125
f 255/757 256/758 252/759 251/760
vt 0.328125 0.1875
vt 0.2734375 0.1875
vt 0.2734375 0.203125
vt 0.328125 0.203125
f 251/761 252/762 249/763 250/764
vt 0.3984375 0.1875
vt 0.34375 0.1875
vt 0.34375 0.203125
vt 0.3984375 0.203125
f 256/765 255/766 254/767 253/768
o bodyModel32
v -2.545481 15.54168 -7.75
v 3.431688 16.06461 -7.75
v 3.973363 15.61009 -8.25
v -3 15 -8.25
v -2.545481 15.54168 -6.75
v 3.431688 16.06461 -6.75
v 3.973363 15.61009 -6.25
v -3 15 -6.25
vt 0.71875 0.1875
vt 0.703125 0.1875
vt 0.703125 0.203125
vt 0.71875 0.203125
f 263/769 259/770 258/771 262/772
vt 0.6484375 0.1875
vt 0.6328125 0.1875
vt 0.6328125 0.203125
vt 0.6484375 0.203125
f 260/773 264/774 261/775 257/776
vt 0.703125 0.203125
vt 0.6484375 0.203125
vt 0.6484375 0.234375
vt 0.703125 0.234375
f 258/777 257/778 261/779 262/780
vt 0.7578125 0.234375
vt 0.703125 0.234375
vt 0.703125 0.203125
vt 0.7578125 0.203125
f 263/781 264/782 260/783 259/784
vt 0.703125 0.1875
vt 0.6484375 0.1875
vt 0.6484375 0.203125
vt 0.703125 0.203125
f 259/785 260/786 257/787 258/788
vt 0.7734375 0.1875
vt 0.71875 0.1875
vt 0.71875 0.203125
vt 0.7734375 0.203125
f 264/789 263/790 262/791 261/792
o bodyModel33
v -2.545481 15.54168 6.75
v 3.431688 16.06461 6.75
v 3.973363 15.61009 6.25
v -3 15 6.25
v -2.545481 15.54168 7.75
v 3.431688 16.06461 7.75
v 3.973363 15.61009 8.25
v -3 15 8.25
vt 0.90625 0.1875
vt 0.890625 0.1875
vt 0.890625 0.203125
vt 0.90625 0.203125
f 271/793 267/794 266/795 270/796
vt 0.8359375 0.1875
vt 0.8203125 0.1875
vt 0.8203125 0.203125
vt 0.8359375 0.203125
f 268/797 272/798 269/799 265/800
vt 0.890625 0.203125
vt 0.8359375 0.203125
vt 0.8359375 0.234375
vt 0.890625 0.234375
f 266/801 265/802 269/803 270/804
vt 0.9453125 0.234375
vt 0.890625 0.234375
vt 0.890625 0.203125
vt 0.9453125 0.203125
f 271/805 272/806 268/807 267/808
vt 0.890625 0.1875
vt 0.8359375 0.1875
vt 0.8359375 0.203125
vt 0.890625 0.203125
f 267/809 268/810 265/811 266/812
vt 0.9609375 0.1875
vt 0.90625 0.1875
vt 0.90625 0.203125
vt 0.9609375 0.203125
f 272/813 271/814 270/815 269/816
o bodyModel34
v -3 15 6.25
v 3.973363 15.61009 6.25
v 3.562421 14.57032 6.25
v -2.414747 14.04738 6.25
v -3 15 8.25
v 3.973363 15.61009 8.25
v 3.562421 14.57032 8.25
v -2.414747 14.04738 8.25
vt 0.71875 0.0625
vt 0.703125 0.0625
vt 0.703125 0.078125
vt 0.71875 0.078125
f 279/817 275/818 274/819 278/820
vt 0.6484375 0.0625
vt 0.6328125 0.0625
vt 0.6328125 0.078125
vt 0.6484375 0.078125
f 276/821 280/822 277/823 273/824
vt 0.703125 0.078125
vt 0.6484375 0.078125
vt 0.6484375 0.109375
vt 0.703125 0.109375
f 274/825 273/826 277/827 278/828
vt 0.7578125 0.109375
vt 0.703125 0.109375
vt 0.703125 0.078125
vt 0.7578125 0.078125
f 279/829 280/830 276/831 275/832
vt 0.703125 0.0625
vt 0.6484375 0.0625
vt 0.6484375 0.078125
vt 0.703125 0.078125
f 275/833 276/834 273/835 274/836
vt 0.7734375 0.0625
vt 0.71875 0.0625
vt 0.71875 0.078125
vt 0.7734375 0.078125
f 280/837 279/838 278/839 277/840
