# Converted from Decimation Beardie model: crotchbolt.bmodel
# Coordinates retain the original Beardie model units.
mtllib crotchbolt.mtl
usemtl crotchbolt_material
o ammoModel0
v -6.8 -0.4 0.4
v 0.8 -0.4 0.4
v 0.8 -0.6 0.4
v -6.8 -0.6 0.4
v -6.8 -0.4 0.6
v 0.8 -0.4 0.6
v 0.8 -0.6 0.6
v -6.8 -0.6 0.6
vt 0.302734375 0.40625
vt 0.30078125 0.40625
vt 0.30078125 0.4375
vt 0.302734375 0.4375
f 7/1 3/2 2/3 6/4
vt 0.28515625 0.40625
vt 0.283203125 0.40625
vt 0.283203125 0.4375
vt 0.28515625 0.4375
f 4/5 8/6 5/7 1/8
vt 0.30078125 0.4375
vt 0.28515625 0.4375
vt 0.28515625 0.46875
vt 0.30078125 0.46875
f 2/9 1/10 5/11 6/12
vt 0.31640625 0.46875
vt 0.30078125 0.46875
vt 0.30078125 0.4375
vt 0.31640625 0.4375
f 7/13 8/14 4/15 3/16
vt 0.30078125 0.40625
vt 0.28515625 0.40625
vt 0.28515625 0.4375
vt 0.30078125 0.4375
f 3/17 4/18 1/19 2/20
vt 0.318359375 0.40625
vt 0.302734375 0.40625
vt 0.302734375 0.4375
vt 0.318359375 0.4375
f 8/21 7/22 6/23 5/24
o ammoModel1
v -6.5 -0.1500002 0.45
v -5.9 -0.1500002 0.45
v -5.3 -0.4500002 0.45
v -6.7 -0.4500002 0.45
v -6.5 -0.1500002 0.55
v -5.9 -0.1500002 0.55
v -5.3 -0.4500002 0.55
v -6.7 -0.4500002 0.55
vt 0.3359375 0.40625
vt 0.333984375 0.40625
vt 0.333984375 0.4375
vt 0.3359375 0.4375
f 15/25 11/26 10/27 14/28
vt 0.33203125 0.40625
vt 0.330078125 0.40625
vt 0.330078125 0.4375
vt 0.33203125 0.4375
f 12/29 16/30 13/31 9/32
vt 0.333984375 0.4375
vt 0.33203125 0.4375
vt 0.33203125 0.46875
vt 0.333984375 0.46875
f 10/33 9/34 13/35 14/36
vt 0.3359375 0.46875
vt 0.333984375 0.46875
vt 0.333984375 0.4375
vt 0.3359375 0.4375
f 15/37 16/38 12/39 11/40
vt 0.333984375 0.40625
vt 0.33203125 0.40625
vt 0.33203125 0.4375
vt 0.333984375 0.4375
f 11/41 12/42 9/43 10/44
vt 0.337890625 0.40625
vt 0.3359375 0.40625
vt 0.3359375 0.4375
vt 0.337890625 0.4375
f 16/45 15/46 14/47 13/48
o ammoModel2
v -6.7 -0.5500003 0.45
v -5.3 -0.5500003 0.45
v -5.9 -0.8500003 0.45
v -6.5 -0.8500003 0.45
v -6.7 -0.5500003 0.55
v -5.3 -0.5500003 0.55
v -5.9 -0.8500003 0.55
v -6.5 -0.8500003 0.55
vt 0.3515625 0.40625
vt 0.349609375 0.40625
vt 0.349609375 0.4375
vt 0.3515625 0.4375
f 23/49 19/50 18/51 22/52
vt 0.34765625 0.40625
vt 0.345703125 0.40625
vt 0.345703125 0.4375
vt 0.34765625 0.4375
f 20/53 24/54 21/55 17/56
vt 0.349609375 0.4375
vt 0.34765625 0.4375
vt 0.34765625 0.46875
vt 0.349609375 0.46875
f 18/57 17/58 21/59 22/60
vt 0.3515625 0.46875
vt 0.349609375 0.46875
vt 0.349609375 0.4375
vt 0.3515625 0.4375
f 23/61 24/62 20/63 19/64
vt 0.349609375 0.40625
vt 0.34765625 0.40625
vt 0.34765625 0.4375
vt 0.349609375 0.4375
f 19/65 20/66 17/67 18/68
vt 0.353515625 0.40625
vt 0.3515625 0.40625
vt 0.3515625 0.4375
vt 0.353515625 0.4375
f 24/69 23/70 22/71 21/72
o ammoModel3
v -6.7 -0.45 0.55
v -5.3 -0.45 0.55
v -5.3 -0.55 0.55
v -6.7 -0.55 0.55
v -6.5 -0.45 0.85
v -5.7 -0.45 0.85
v -5.7 -0.55 0.85
v -6.5 -0.55 0.85
vt 0.3671875 0.40625
vt 0.365234375 0.40625
vt 0.365234375 0.4375
vt 0.3671875 0.4375
f 31/73 27/74 26/75 30/76
vt 0.36328125 0.40625
vt 0.361328125 0.40625
vt 0.361328125 0.4375
vt 0.36328125 0.4375
f 28/77 32/78 29/79 25/80
vt 0.365234375 0.4375
vt 0.36328125 0.4375
vt 0.36328125 0.46875
vt 0.365234375 0.46875
f 26/81 25/82 29/83 30/84
vt 0.3671875 0.46875
vt 0.365234375 0.46875
vt 0.365234375 0.4375
vt 0.3671875 0.4375
f 31/85 32/86 28/87 27/88
vt 0.365234375 0.40625
vt 0.36328125 0.40625
vt 0.36328125 0.4375
vt 0.365234375 0.4375
f 27/89 28/90 25/91 26/92
vt 0.369140625 0.40625
vt 0.3671875 0.40625
vt 0.3671875 0.4375
vt 0.369140625 0.4375
f 32/93 31/94 30/95 29/96
o ammoModel4
v -6.5 -0.45 0.15
v -5.7 -0.45 0.15
v -5.7 -0.55 0.15
v -6.5 -0.55 0.15
v -6.7 -0.45 0.45
v -5.3 -0.45 0.45
v -5.3 -0.55 0.45
v -6.7 -0.55 0.45
vt 0.3828125 0.40625
vt 0.380859375 0.40625
vt 0.380859375 0.4375
vt 0.3828125 0.4375
f 39/97 35/98 34/99 38/100
vt 0.37890625 0.40625
vt 0.376953125 0.40625
vt 0.376953125 0.4375
vt 0.37890625 0.4375
f 36/101 40/102 37/103 33/104
vt 0.380859375 0.4375
vt 0.37890625 0.4375
vt 0.37890625 0.46875
vt 0.380859375 0.46875
f 34/105 33/106 37/107 38/108
vt 0.3828125 0.46875
vt 0.380859375 0.46875
vt 0.380859375 0.4375
vt 0.3828125 0.4375
f 39/109 40/110 36/111 35/112
vt 0.380859375 0.40625
vt 0.37890625 0.40625
vt 0.37890625 0.4375
vt 0.380859375 0.4375
f 35/113 36/114 33/115 34/116
vt 0.384765625 0.40625
vt 0.3828125 0.40625
vt 0.3828125 0.4375
vt 0.384765625 0.4375
f 40/117 39/118 38/119 37/120
o ammoModel5
v 0.8 -0.4 0.4
v 1.6 -0.45 0.45
v 1.6 -0.55 0.45
v 0.8 -0.6 0.4
v 0.8 -0.4 0.6
v 1.6 -0.45 0.55
v 1.6 -0.55 0.55
v 0.8 -0.6 0.6
vt 0.3984375 0.40625
vt 0.396484375 0.40625
vt 0.396484375 0.4375
vt 0.3984375 0.4375
f 47/121 43/122 42/123 46/124
vt 0.39453125 0.40625
vt 0.392578125 0.40625
vt 0.392578125 0.4375
vt 0.39453125 0.4375
f 44/125 48/126 45/127 41/128
vt 0.396484375 0.4375
vt 0.39453125 0.4375
vt 0.39453125 0.46875
vt 0.396484375 0.46875
f 42/129 41/130 45/131 46/132
vt 0.3984375 0.46875
vt 0.396484375 0.46875
vt 0.396484375 0.4375
vt 0.3984375 0.4375
f 47/133 48/134 44/135 43/136
vt 0.396484375 0.40625
vt 0.39453125 0.40625
vt 0.39453125 0.4375
vt 0.396484375 0.4375
f 43/137 44/138 41/139 42/140
vt 0.400390625 0.40625
vt 0.3984375 0.40625
vt 0.3984375 0.4375
vt 0.400390625 0.4375
f 48/141 47/142 46/143 45/144
