# Converted from Decimation Beardie model: marineforest.bmodel
# Coordinates retain the original Beardie model units.
mtllib marineforest.mtl
usemtl marineforest_material
o headModel0
v -4.5 7 -4.5
v 4.5 7 -4.5
v 5 4.5 -4.6
v -5 4.5 -4.6
v -4.5 7 4.5
v 4.5 7 4.5
v 5 4.5 5
v -5 4.5 5
vt 0.6171875 0.890625
vt 0.5390625 0.890625
vt 0.5390625 0.9140625
vt 0.6171875 0.9140625
f 7/1 3/2 2/3 6/4
vt 0.4609375 0.890625
vt 0.3828125 0.890625
vt 0.3828125 0.9140625
vt 0.4609375 0.9140625
f 4/5 8/6 5/7 1/8
vt 0.5390625 0.9140625
vt 0.4609375 0.9140625
vt 0.4609375 0.9921875
vt 0.5390625 0.9921875
f 2/9 1/10 5/11 6/12
vt 0.6171875 0.9921875
vt 0.5390625 0.9921875
vt 0.5390625 0.9140625
vt 0.6171875 0.9140625
f 7/13 8/14 4/15 3/16
vt 0.5390625 0.890625
vt 0.4609375 0.890625
vt 0.4609375 0.9140625
vt 0.5390625 0.9140625
f 3/17 4/18 1/19 2/20
vt 0.6953125 0.890625
vt 0.6171875 0.890625
vt 0.6171875 0.9140625
vt 0.6953125 0.9140625
f 8/21 7/22 6/23 5/24
o headModel1
v -3.5 9 -3.5
v 3.5 9 -3.5
v 4.5 7 -4.5
v -4.5 7 -4.5
v -3.5 9 3.5
v 3.5 9 3.5
v 4.5 7 4.5
v -4.5 7 4.5
vt 0.8671875 0.8359375
vt 0.7890625 0.8359375
vt 0.7890625 0.8515625
vt 0.8671875 0.8515625
f 15/25 11/26 10/27 14/28
vt 0.7109375 0.8359375
vt 0.6328125 0.8359375
vt 0.6328125 0.8515625
vt 0.7109375 0.8515625
f 12/29 16/30 13/31 9/32
vt 0.7890625 0.8515625
vt 0.7109375 0.8515625
vt 0.7109375 0.9296875
vt 0.7890625 0.9296875
f 10/33 9/34 13/35 14/36
vt 0.8671875 0.9296875
vt 0.7890625 0.9296875
vt 0.7890625 0.8515625
vt 0.8671875 0.8515625
f 15/37 16/38 12/39 11/40
vt 0.7890625 0.8359375
vt 0.7109375 0.8359375
vt 0.7109375 0.8515625
vt 0.7890625 0.8515625
f 11/41 12/42 9/43 10/44
vt 0.9453125 0.8359375
vt 0.8671875 0.8359375
vt 0.8671875 0.8515625
vt 0.9453125 0.8515625
f 16/45 15/46 14/47 13/48
o headModel2
v -5 4.5 -4
v -4 4.5 -4
v -4.25 3.8 -2
v -5.25 3.8 -2
v -5 4.5 -2
v -4 4.5 -2
v -4.25 3.8 -2
v -5.25 3.8 -2
vt 0.234375 0.96875
vt 0.21875 0.96875
vt 0.21875 0.9765625
vt 0.234375 0.9765625
f 23/49 19/50 18/51 22/52
vt 0.2109375 0.96875
vt 0.1953125 0.96875
vt 0.1953125 0.9765625
vt 0.2109375 0.9765625
f 20/53 24/54 21/55 17/56
vt 0.21875 0.9765625
vt 0.2109375 0.9765625
vt 0.2109375 0.9921875
vt 0.21875 0.9921875
f 18/57 17/58 21/59 22/60
vt 0.2265625 0.9921875
vt 0.21875 0.9921875
vt 0.21875 0.9765625
vt 0.2265625 0.9765625
f 23/61 24/62 20/63 19/64
vt 0.21875 0.96875
vt 0.2109375 0.96875
vt 0.2109375 0.9765625
vt 0.21875 0.9765625
f 19/65 20/66 17/67 18/68
vt 0.2421875 0.96875
vt 0.234375 0.96875
vt 0.234375 0.9765625
vt 0.2421875 0.9765625
f 24/69 23/70 22/71 21/72
o headModel3
v -5 4.5 -2
v -4 4.5 -2
v -4.25 3.8 -2
v -5.25 3.8 -2
v -5 4.5 0
v -4 4.5 0
v -4.5 2.2 0
v -5.5 2.2 0
vt 0.671875 0.9609375
vt 0.65625 0.9609375
vt 0.65625 0.9765625
vt 0.671875 0.9765625
f 31/73 27/74 26/75 30/76
vt 0.6484375 0.9609375
vt 0.6328125 0.9609375
vt 0.6328125 0.9765625
vt 0.6484375 0.9765625
f 28/77 32/78 29/79 25/80
vt 0.65625 0.9765625
vt 0.6484375 0.9765625
vt 0.6484375 0.9921875
vt 0.65625 0.9921875
f 26/81 25/82 29/83 30/84
vt 0.6640625 0.9921875
vt 0.65625 0.9921875
vt 0.65625 0.9765625
vt 0.6640625 0.9765625
f 31/85 32/86 28/87 27/88
vt 0.65625 0.9609375
vt 0.6484375 0.9609375
vt 0.6484375 0.9765625
vt 0.65625 0.9765625
f 27/89 28/90 25/91 26/92
vt 0.6796875 0.9609375
vt 0.671875 0.9609375
vt 0.671875 0.9765625
vt 0.6796875 0.9765625
f 32/93 31/94 30/95 29/96
o headModel4
v -5 4.5 0
v -4 4.5 0
v -4.5 2.2 0
v -5.5 2.2 0
v -5 4.5 5
v -4 4.5 5
v -4 2.8 5
v -5 2.8 5
vt 0.78125 0.9375
vt 0.7421875 0.9375
vt 0.7421875 0.953125
vt 0.78125 0.953125
f 39/97 35/98 34/99 38/100
vt 0.734375 0.9375
vt 0.6953125 0.9375
vt 0.6953125 0.953125
vt 0.734375 0.953125
f 36/101 40/102 37/103 33/104
vt 0.7421875 0.953125
vt 0.734375 0.953125
vt 0.734375 0.9921875
vt 0.7421875 0.9921875
f 34/105 33/106 37/107 38/108
vt 0.75 0.9921875
vt 0.7421875 0.9921875
vt 0.7421875 0.953125
vt 0.75 0.953125
f 39/109 40/110 36/111 35/112
vt 0.7421875 0.9375
vt 0.734375 0.9375
vt 0.734375 0.953125
vt 0.7421875 0.953125
f 35/113 36/114 33/115 34/116
vt 0.7890625 0.9375
vt 0.78125 0.9375
vt 0.78125 0.953125
vt 0.7890625 0.953125
f 40/117 39/118 38/119 37/120
o headModel5
v 4 4.5 -4
v 5 4.5 -4
v 5.25 3.8 -2
v 4.25 3.8 -2
v 4 4.5 -2
v 5 4.5 -2
v 5.25 3.8 -2
v 4.25 3.8 -2
vt 0.796875 0.96875
vt 0.78125 0.96875
vt 0.78125 0.9765625
vt 0.796875 0.9765625
f 47/121 43/122 42/123 46/124
vt 0.7734375 0.96875
vt 0.7578125 0.96875
vt 0.7578125 0.9765625
vt 0.7734375 0.9765625
f 44/125 48/126 45/127 41/128
vt 0.78125 0.9765625
vt 0.7734375 0.9765625
vt 0.7734375 0.9921875
vt 0.78125 0.9921875
f 42/129 41/130 45/131 46/132
vt 0.7890625 0.9921875
vt 0.78125 0.9921875
vt 0.78125 0.9765625
vt 0.7890625 0.9765625
f 47/133 48/134 44/135 43/136
vt 0.78125 0.96875
vt 0.7734375 0.96875
vt 0.7734375 0.9765625
vt 0.78125 0.9765625
f 43/137 44/138 41/139 42/140
vt 0.8046875 0.96875
vt 0.796875 0.96875
vt 0.796875 0.9765625
vt 0.8046875 0.9765625
f 48/141 47/142 46/143 45/144
o headModel6
v 4 4.5 -2
v 5 4.5 -2
v 5.25 3.8 -2
v 4.25 3.8 -2
v 4 4.5 0
v 5 4.5 0
v 5.5 2.2 0
v 4.5 2.2 0
vt 0.859375 0.9609375
vt 0.84375 0.9609375
vt 0.84375 0.9765625
vt 0.859375 0.9765625
f 55/145 51/146 50/147 54/148
vt 0.8359375 0.9609375
vt 0.8203125 0.9609375
vt 0.8203125 0.9765625
vt 0.8359375 0.9765625
f 52/149 56/150 53/151 49/152
vt 0.84375 0.9765625
vt 0.8359375 0.9765625
vt 0.8359375 0.9921875
vt 0.84375 0.9921875
f 50/153 49/154 53/155 54/156
vt 0.8515625 0.9921875
vt 0.84375 0.9921875
vt 0.84375 0.9765625
vt 0.8515625 0.9765625
f 55/157 56/158 52/159 51/160
vt 0.84375 0.9609375
vt 0.8359375 0.9609375
vt 0.8359375 0.9765625
vt 0.84375 0.9765625
f 51/161 52/162 49/163 50/164
vt 0.8671875 0.9609375
vt 0.859375 0.9609375
vt 0.859375 0.9765625
vt 0.8671875 0.9765625
f 56/165 55/166 54/167 53/168
o headModel7
v 4 4.5 0
v 5 4.5 0
v 5.5 2.2 0
v 4.5 2.2 0
v 4 4.5 5
v 5 4.5 5
v 5 2.8 5
v 4 2.8 5
vt 0.96875 0.9375
vt 0.9296875 0.9375
vt 0.9296875 0.953125
vt 0.96875 0.953125
f 63/169 59/170 58/171 62/172
vt 0.921875 0.9375
vt 0.8828125 0.9375
vt 0.8828125 0.953125
vt 0.921875 0.953125
f 60/173 64/174 61/175 57/176
vt 0.9296875 0.953125
vt 0.921875 0.953125
vt 0.921875 0.9921875
vt 0.9296875 0.9921875
f 58/177 57/178 61/179 62/180
vt 0.9375 0.9921875
vt 0.9296875 0.9921875
vt 0.9296875 0.953125
vt 0.9375 0.953125
f 63/181 64/182 60/183 59/184
vt 0.9296875 0.9375
vt 0.921875 0.9375
vt 0.921875 0.953125
vt 0.9296875 0.953125
f 59/185 60/186 57/187 58/188
vt 0.9765625 0.9375
vt 0.96875 0.9375
vt 0.96875 0.953125
vt 0.9765625 0.953125
f 64/189 63/190 62/191 61/192
o headModel8
v -4 4.5 4
v 4 4.5 4
v 4 3.5 4
v -4 3.5 4
v -4 4.5 5
v 4 4.5 5
v 4 3.5 5
v -4 3.5 5
vt 0.0859375 0.8515625
vt 0.078125 0.8515625
vt 0.078125 0.859375
vt 0.0859375 0.859375
f 71/193 67/194 66/195 70/196
vt 0.015625 0.8515625
vt 0.0078125 0.8515625
vt 0.0078125 0.859375
vt 0.015625 0.859375
f 68/197 72/198 69/199 65/200
vt 0.078125 0.859375
vt 0.015625 0.859375
vt 0.015625 0.8671875
vt 0.078125 0.8671875
f 66/201 65/202 69/203 70/204
vt 0.140625 0.8671875
vt 0.078125 0.8671875
vt 0.078125 0.859375
vt 0.140625 0.859375
f 71/205 72/206 68/207 67/208
vt 0.078125 0.8515625
vt 0.015625 0.8515625
vt 0.015625 0.859375
vt 0.078125 0.859375
f 67/209 68/210 65/211 66/212
vt 0.1484375 0.8515625
vt 0.0859375 0.8515625
vt 0.0859375 0.859375
vt 0.1484375 0.859375
f 72/213 71/214 70/215 69/216
o headModel9
v -4 3.5 4
v 0 3.5 4
v 0 3.2 4
v -4 2.8 4
v -4 3.5 5
v 0 3.5 5
v 0 3.2 5
v -4 2.8 5
vt 0.9296875 0.9140625
vt 0.921875 0.9140625
vt 0.921875 0.921875
vt 0.9296875 0.921875
f 79/217 75/218 74/219 78/220
vt 0.890625 0.9140625
vt 0.8828125 0.9140625
vt 0.8828125 0.921875
vt 0.890625 0.921875
f 76/221 80/222 77/223 73/224
vt 0.921875 0.921875
vt 0.890625 0.921875
vt 0.890625 0.9296875
vt 0.921875 0.9296875
f 74/225 73/226 77/227 78/228
vt 0.953125 0.9296875
vt 0.921875 0.9296875
vt 0.921875 0.921875
vt 0.953125 0.921875
f 79/229 80/230 76/231 75/232
vt 0.921875 0.9140625
vt 0.890625 0.9140625
vt 0.890625 0.921875
vt 0.921875 0.921875
f 75/233 76/234 73/235 74/236
vt 0.9609375 0.9140625
vt 0.9296875 0.9140625
vt 0.9296875 0.921875
vt 0.9609375 0.921875
f 80/237 79/238 78/239 77/240
o headModel10
v 0 3.5 4
v 4 3.5 4
v 4 2.8 4
v 0 3.2 4
v 0 3.5 5
v 4 3.5 5
v 4 2.8 5
v 0 3.2 5
vt 0.2421875 0.8515625
vt 0.234375 0.8515625
vt 0.234375 0.859375
vt 0.2421875 0.859375
f 87/241 83/242 82/243 86/244
vt 0.203125 0.8515625
vt 0.1953125 0.8515625
vt 0.1953125 0.859375
vt 0.203125 0.859375
f 84/245 88/246 85/247 81/248
vt 0.234375 0.859375
vt 0.203125 0.859375
vt 0.203125 0.8671875
vt 0.234375 0.8671875
f 82/249 81/250 85/251 86/252
vt 0.265625 0.8671875
vt 0.234375 0.8671875
vt 0.234375 0.859375
vt 0.265625 0.859375
f 87/253 88/254 84/255 83/256
vt 0.234375 0.8515625
vt 0.203125 0.8515625
vt 0.203125 0.859375
vt 0.234375 0.859375
f 83/257 84/258 81/259 82/260
vt 0.2734375 0.8515625
vt 0.2421875 0.8515625
vt 0.2421875 0.859375
vt 0.2734375 0.859375
f 88/261 87/262 86/263 85/264
o headModel11
v -4.7 6 -4.6
v 4.7 6 -4.6
v 4.8 5.5 -4.6
v -4.8 5.5 -4.6
v -4.8 5.8 4.8
v 4.8 5.8 4.8
v 4.9 5.2 4.9
v -4.9 5.2 4.9
vt 0.4921875 0.78125
vt 0.4140625 0.78125
vt 0.4140625 0.7890625
vt 0.4921875 0.7890625
f 95/265 91/266 90/267 94/268
vt 0.3359375 0.78125
vt 0.2578125 0.78125
vt 0.2578125 0.7890625
vt 0.3359375 0.7890625
f 92/269 96/270 93/271 89/272
vt 0.4140625 0.7890625
vt 0.3359375 0.7890625
vt 0.3359375 0.8671875
vt 0.4140625 0.8671875
f 90/273 89/274 93/275 94/276
vt 0.4921875 0.8671875
vt 0.4140625 0.8671875
vt 0.4140625 0.7890625
vt 0.4921875 0.7890625
f 95/277 96/278 92/279 91/280
vt 0.4140625 0.78125
vt 0.3359375 0.78125
vt 0.3359375 0.7890625
vt 0.4140625 0.7890625
f 91/281 92/282 89/283 90/284
vt 0.5703125 0.78125
vt 0.4921875 0.78125
vt 0.4921875 0.7890625
vt 0.5703125 0.7890625
f 96/285 95/286 94/287 93/288
o headModel12
v -4.5 4 -1.5
v 4.5 4 -1.5
v 4.1 -0 -4
v -4.1 -0 -4
v -4.5 4 -0.5
v 4.5 4 -0.5
v 4.1 -0 -3
v -4.1 -0 -3
vt 0.140625 0.7421875
vt 0.109375 0.7421875
vt 0.109375 0.7734375
vt 0.140625 0.7734375
f 103/289 99/290 98/291 102/292
vt 0.0390625 0.7421875
vt 0.0078125 0.7421875
vt 0.0078125 0.7734375
vt 0.0390625 0.7734375
f 100/293 104/294 101/295 97/296
vt 0.109375 0.7734375
vt 0.0390625 0.7734375
vt 0.0390625 0.8046875
vt 0.109375 0.8046875
f 98/297 97/298 101/299 102/300
vt 0.1796875 0.8046875
vt 0.109375 0.8046875
vt 0.109375 0.7734375
vt 0.1796875 0.7734375
f 103/301 104/302 100/303 99/304
vt 0.109375 0.7421875
vt 0.0390625 0.7421875
vt 0.0390625 0.7734375
vt 0.109375 0.7734375
f 99/305 100/306 97/307 98/308
vt 0.2109375 0.7421875
vt 0.140625 0.7421875
vt 0.140625 0.7734375
vt 0.2109375 0.7734375
f 104/309 103/310 102/311 101/312
o headModel13
v -4.1 -0 -4
v 4.1 -0 -4
v 3.9 -0.2 -4
v -3.9 -0.2 -4
v -4.1 -0 -3
v 4.1 -0 -3
v 3.9 -0.2 -3
v -3.9 -0.2 -3
vt 0.65625 0.6015625
vt 0.6484375 0.6015625
vt 0.6484375 0.609375
vt 0.65625 0.609375
f 111/313 107/314 106/315 110/316
vt 0.578125 0.6015625
vt 0.5703125 0.6015625
vt 0.5703125 0.609375
vt 0.578125 0.609375
f 108/317 112/318 109/319 105/320
vt 0.6484375 0.609375
vt 0.578125 0.609375
vt 0.578125 0.6171875
vt 0.6484375 0.6171875
f 106/321 105/322 109/323 110/324
vt 0.71875 0.6171875
vt 0.6484375 0.6171875
vt 0.6484375 0.609375
vt 0.71875 0.609375
f 111/325 112/326 108/327 107/328
vt 0.6484375 0.6015625
vt 0.578125 0.6015625
vt 0.578125 0.609375
vt 0.6484375 0.609375
f 107/329 108/330 105/331 106/332
vt 0.7265625 0.6015625
vt 0.65625 0.6015625
vt 0.65625 0.609375
vt 0.7265625 0.609375
f 112/333 111/334 110/335 109/336
o headModel14
v -4.9 5 -4.58
v 4.9 5 -4.58
v 5 4.5 -5.2
v -5 4.5 -5.2
v -4.9 5 -4.58
v 4.9 5 -4.58
v 5 4.5 -4.6
v -5 4.5 -4.6
vt 0.4765625 0.4765625
vt 0.46875 0.4765625
vt 0.46875 0.484375
vt 0.4765625 0.484375
f 119/337 115/338 114/339 118/340
vt 0.390625 0.4765625
vt 0.3828125 0.4765625
vt 0.3828125 0.484375
vt 0.390625 0.484375
f 116/341 120/342 117/343 113/344
vt 0.46875 0.484375
vt 0.390625 0.484375
vt 0.390625 0.4921875
vt 0.46875 0.4921875
f 114/345 113/346 117/347 118/348
vt 0.546875 0.4921875
vt 0.46875 0.4921875
vt 0.46875 0.484375
vt 0.546875 0.484375
f 119/349 120/350 116/351 115/352
vt 0.46875 0.4765625
vt 0.390625 0.4765625
vt 0.390625 0.484375
vt 0.46875 0.484375
f 115/353 116/354 113/355 114/356
vt 0.5546875 0.4765625
vt 0.4765625 0.4765625
vt 0.4765625 0.484375
vt 0.5546875 0.484375
f 120/357 119/358 118/359 117/360
o headModel15
v -4.6 7.2 -4.5
v 4.6 7.2 -4.5
v 4.8 6.2 -4.6
v -4.8 6.2 -4.6
v -4.6 7 4.6
v 4.6 7 4.6
v 4.9 6 4.9
v -4.9 6 4.9
vt 0.7421875 0.40625
vt 0.6640625 0.40625
vt 0.6640625 0.4140625
vt 0.7421875 0.4140625
f 127/361 123/362 122/363 126/364
vt 0.5859375 0.40625
vt 0.5078125 0.40625
vt 0.5078125 0.4140625
vt 0.5859375 0.4140625
f 124/365 128/366 125/367 121/368
vt 0.6640625 0.4140625
vt 0.5859375 0.4140625
vt 0.5859375 0.4921875
vt 0.6640625 0.4921875
f 122/369 121/370 125/371 126/372
vt 0.7421875 0.4921875
vt 0.6640625 0.4921875
vt 0.6640625 0.4140625
vt 0.7421875 0.4140625
f 127/373 128/374 124/375 123/376
vt 0.6640625 0.40625
vt 0.5859375 0.40625
vt 0.5859375 0.4140625
vt 0.6640625 0.4140625
f 123/377 124/378 121/379 122/380
vt 0.8203125 0.40625
vt 0.7421875 0.40625
vt 0.7421875 0.4140625
vt 0.8203125 0.4140625
f 128/381 127/382 126/383 125/384
o headModel16
v 1 8.05 -5
v 4 7.75 -5
v 4 5.75 -5.3
v 1 5.45 -5.3
v 1 8.05 -4
v 4 7.75 -4
v 4 5.75 -4.3
v 1 5.45 -4.3
vt 0.734375 0.78125
vt 0.7265625 0.78125
vt 0.7265625 0.796875
vt 0.734375 0.796875
f 135/385 131/386 130/387 134/388
vt 0.703125 0.78125
vt 0.6953125 0.78125
vt 0.6953125 0.796875
vt 0.703125 0.796875
f 132/389 136/390 133/391 129/392
vt 0.7265625 0.796875
vt 0.703125 0.796875
vt 0.703125 0.8046875
vt 0.7265625 0.8046875
f 130/393 129/394 133/395 134/396
vt 0.75 0.8046875
vt 0.7265625 0.8046875
vt 0.7265625 0.796875
vt 0.75 0.796875
f 135/397 136/398 132/399 131/400
vt 0.7265625 0.78125
vt 0.703125 0.78125
vt 0.703125 0.796875
vt 0.7265625 0.796875
f 131/401 132/402 129/403 130/404
vt 0.7578125 0.78125
vt 0.734375 0.78125
vt 0.734375 0.796875
vt 0.7578125 0.796875
f 136/405 135/406 134/407 133/408
o headModel17
v -4 7.75 -5
v -1 8.05 -5
v -1 5.45 -5.3
v -4 5.75 -5.3
v -4 7.75 -4
v -1 8.05 -4
v -1 5.45 -4.3
v -4 5.75 -4.3
vt 0.359375 0.71875
vt 0.3515625 0.71875
vt 0.3515625 0.734375
vt 0.359375 0.734375
f 143/409 139/410 138/411 142/412
vt 0.328125 0.71875
vt 0.3203125 0.71875
vt 0.3203125 0.734375
vt 0.328125 0.734375
f 140/413 144/414 141/415 137/416
vt 0.3515625 0.734375
vt 0.328125 0.734375
vt 0.328125 0.7421875
vt 0.3515625 0.7421875
f 138/417 137/418 141/419 142/420
vt 0.375 0.7421875
vt 0.3515625 0.7421875
vt 0.3515625 0.734375
vt 0.375 0.734375
f 143/421 144/422 140/423 139/424
vt 0.3515625 0.71875
vt 0.328125 0.71875
vt 0.328125 0.734375
vt 0.3515625 0.734375
f 139/425 140/426 137/427 138/428
vt 0.3828125 0.71875
vt 0.359375 0.71875
vt 0.359375 0.734375
vt 0.3828125 0.734375
f 144/429 143/430 142/431 141/432
o headModel18
v -1 8.05 -5
v 1 8.05 -5
v 1 5.45 -5.3
v -1 5.45 -5.3
v -1 8.05 -4
v 1 8.05 -4
v 1 5.45 -4.3
v -1 5.45 -4.3
vt 0.2265625 0.78125
vt 0.21875 0.78125
vt 0.21875 0.796875
vt 0.2265625 0.796875
f 151/433 147/434 146/435 150/436
vt 0.203125 0.78125
vt 0.1953125 0.78125
vt 0.1953125 0.796875
vt 0.203125 0.796875
f 148/437 152/438 149/439 145/440
vt 0.21875 0.796875
vt 0.203125 0.796875
vt 0.203125 0.8046875
vt 0.21875 0.8046875
f 146/441 145/442 149/443 150/444
vt 0.234375 0.8046875
vt 0.21875 0.8046875
vt 0.21875 0.796875
vt 0.234375 0.796875
f 151/445 152/446 148/447 147/448
vt 0.21875 0.78125
vt 0.203125 0.78125
vt 0.203125 0.796875
vt 0.21875 0.796875
f 147/449 148/450 145/451 146/452
vt 0.2421875 0.78125
vt 0.2265625 0.78125
vt 0.2265625 0.796875
vt 0.2421875 0.796875
f 152/453 151/454 150/455 149/456
o headModel19
v -0.65 5.7 -5.6
v 0.65 5.7 -5.6
v 0.65 5.1 -5.6
v -0.65 5.1 -5.6
v -0.65 5.5 -4.6
v 0.65 5.5 -4.6
v 0.65 4.75 -4.6
v -0.65 4.75 -4.6
vt 0.9140625 0.7890625
vt 0.90625 0.7890625
vt 0.90625 0.796875
vt 0.9140625 0.796875
f 159/457 155/458 154/459 158/460
vt 0.890625 0.7890625
vt 0.8828125 0.7890625
vt 0.8828125 0.796875
vt 0.890625 0.796875
f 156/461 160/462 157/463 153/464
vt 0.90625 0.796875
vt 0.890625 0.796875
vt 0.890625 0.8046875
vt 0.90625 0.8046875
f 154/465 153/466 157/467 158/468
vt 0.921875 0.8046875
vt 0.90625 0.8046875
vt 0.90625 0.796875
vt 0.921875 0.796875
f 159/469 160/470 156/471 155/472
vt 0.90625 0.7890625
vt 0.890625 0.7890625
vt 0.890625 0.796875
vt 0.90625 0.796875
f 155/473 156/474 153/475 154/476
vt 0.9296875 0.7890625
vt 0.9140625 0.7890625
vt 0.9140625 0.796875
vt 0.9296875 0.796875
f 160/477 159/478 158/479 157/480
o headModel20
v -0.65 7 -5.3
v 0.65 7 -5.3
v 0.65 5.7 -5.6
v -0.65 5.7 -5.6
v -0.65 7 -5.1
v 0.65 7 -5.1
v 0.65 5.65 -5.4
v -0.65 5.65 -5.4
vt 0.5390625 0.7265625
vt 0.53125 0.7265625
vt 0.53125 0.734375
vt 0.5390625 0.734375
f 167/481 163/482 162/483 166/484
vt 0.515625 0.7265625
vt 0.5078125 0.7265625
vt 0.5078125 0.734375
vt 0.515625 0.734375
f 164/485 168/486 165/487 161/488
vt 0.53125 0.734375
vt 0.515625 0.734375
vt 0.515625 0.7421875
vt 0.53125 0.7421875
f 162/489 161/490 165/491 166/492
vt 0.546875 0.7421875
vt 0.53125 0.7421875
vt 0.53125 0.734375
vt 0.546875 0.734375
f 167/493 168/494 164/495 163/496
vt 0.53125 0.7265625
vt 0.515625 0.7265625
vt 0.515625 0.734375
vt 0.53125 0.734375
f 163/497 164/498 161/499 162/500
vt 0.5546875 0.7265625
vt 0.5390625 0.7265625
vt 0.5390625 0.734375
vt 0.5546875 0.734375
f 168/501 167/502 166/503 165/504
o headModel21
v -0.65 8.4 -5.1
v 0.65 8.4 -5.1
v 0.65 7 -5.8
v -0.65 7 -5.8
v -0.65 8.2 -4.6
v 0.65 8.2 -4.6
v 0.65 6.7 -5.2
v -0.65 6.7 -5.2
vt 0.9765625 0.6640625
vt 0.96875 0.6640625
vt 0.96875 0.671875
vt 0.9765625 0.671875
f 175/505 171/506 170/507 174/508
vt 0.953125 0.6640625
vt 0.9453125 0.6640625
vt 0.9453125 0.671875
vt 0.953125 0.671875
f 172/509 176/510 173/511 169/512
vt 0.96875 0.671875
vt 0.953125 0.671875
vt 0.953125 0.6796875
vt 0.96875 0.6796875
f 170/513 169/514 173/515 174/516
vt 0.984375 0.6796875
vt 0.96875 0.6796875
vt 0.96875 0.671875
vt 0.984375 0.671875
f 175/517 176/518 172/519 171/520
vt 0.96875 0.6640625
vt 0.953125 0.6640625
vt 0.953125 0.671875
vt 0.96875 0.671875
f 171/521 172/522 169/523 170/524
vt 0.9921875 0.6640625
vt 0.9765625 0.6640625
vt 0.9765625 0.671875
vt 0.9921875 0.671875
f 176/525 175/526 174/527 173/528
o bodyModel0
v -4.3 -6.8 -2.3
v 4.3 -6.8 -2.3
v 4.3 -11 -2.3
v -4.3 -11 -2.3
v -4.3 -6.8 2.3
v 4.3 -6.8 2.3
v 4.3 -11 2.3
v -4.3 -11 2.3
vt 0.1328125 0.9296875
vt 0.1015625 0.9296875
vt 0.1015625 0.9609375
vt 0.1328125 0.9609375
f 183/529 179/530 178/531 182/532
vt 0.0390625 0.9296875
vt 0.0078125 0.9296875
vt 0.0078125 0.9609375
vt 0.0390625 0.9609375
f 180/533 184/534 181/535 177/536
vt 0.1015625 0.9609375
vt 0.0390625 0.9609375
vt 0.0390625 0.9921875
vt 0.1015625 0.9921875
f 178/537 177/538 181/539 182/540
vt 0.1640625 0.9921875
vt 0.1015625 0.9921875
vt 0.1015625 0.9609375
vt 0.1640625 0.9609375
f 183/541 184/542 180/543 179/544
vt 0.1015625 0.9296875
vt 0.0390625 0.9296875
vt 0.0390625 0.9609375
vt 0.1015625 0.9609375
f 179/545 180/546 177/547 178/548
vt 0.1953125 0.9296875
vt 0.1328125 0.9296875
vt 0.1328125 0.9609375
vt 0.1953125 0.9609375
f 184/549 183/550 182/551 181/552
o bodyModel1
v -3.7 -2.8 -2.3
v 3.7 -2.8 -2.3
v 4 -6.8 -2.3
v -4 -6.8 -2.3
v -3.7 -2.8 2.3
v 3.7 -2.8 2.3
v 4 -6.8 2.3
v -4 -6.8 2.3
vt 0.3828125 0.9296875
vt 0.3515625 0.9296875
vt 0.3515625 0.9609375
vt 0.3828125 0.9609375
f 191/553 187/554 186/555 190/556
vt 0.2890625 0.9296875
vt 0.2578125 0.9296875
vt 0.2578125 0.9609375
vt 0.2890625 0.9609375
f 188/557 192/558 189/559 185/560
vt 0.3515625 0.9609375
vt 0.2890625 0.9609375
vt 0.2890625 0.9921875
vt 0.3515625 0.9921875
f 186/561 185/562 189/563 190/564
vt 0.4140625 0.9921875
vt 0.3515625 0.9921875
vt 0.3515625 0.9609375
vt 0.4140625 0.9609375
f 191/565 192/566 188/567 187/568
vt 0.3515625 0.9296875
vt 0.2890625 0.9296875
vt 0.2890625 0.9609375
vt 0.3515625 0.9609375
f 187/569 188/570 185/571 186/572
vt 0.4453125 0.9296875
vt 0.3828125 0.9296875
vt 0.3828125 0.9609375
vt 0.4453125 0.9609375
f 192/573 191/574 190/575 189/576
o bodyModel2
v -4 0.2 -2.3
v 0 -0.5 -2.3
v 0 -2.8 -2.3
v -3.7 -2.8 -2.3
v -4 0.2 2.3
v 0 0.2 2.3
v 0 -2.8 2.3
v -3.7 -2.8 2.3
vt 0.6640625 0.75
vt 0.6328125 0.75
vt 0.6328125 0.7734375
vt 0.6640625 0.7734375
f 199/577 195/578 194/579 198/580
vt 0.6015625 0.75
vt 0.5703125 0.75
vt 0.5703125 0.7734375
vt 0.6015625 0.7734375
f 196/581 200/582 197/583 193/584
vt 0.6328125 0.7734375
vt 0.6015625 0.7734375
vt 0.6015625 0.8046875
vt 0.6328125 0.8046875
f 194/585 193/586 197/587 198/588
vt 0.6640625 0.8046875
vt 0.6328125 0.8046875
vt 0.6328125 0.7734375
vt 0.6640625 0.7734375
f 199/589 200/590 196/591 195/592
vt 0.6328125 0.75
vt 0.6015625 0.75
vt 0.6015625 0.7734375
vt 0.6328125 0.7734375
f 195/593 196/594 193/595 194/596
vt 0.6953125 0.75
vt 0.6640625 0.75
vt 0.6640625 0.7734375
vt 0.6953125 0.7734375
f 200/597 199/598 198/599 197/600
o bodyModel3
v 0 -0.5 -2.3
v 4 0.2 -2.3
v 3.7 -2.8 -2.3
v 0 -2.8 -2.3
v 0 0.2 2.3
v 4 0.2 2.3
v 3.7 -2.8 2.3
v 0 -2.8 2.3
vt 0.8515625 0.75
vt 0.8203125 0.75
vt 0.8203125 0.7734375
vt 0.8515625 0.7734375
f 207/601 203/602 202/603 206/604
vt 0.7890625 0.75
vt 0.7578125 0.75
vt 0.7578125 0.7734375
vt 0.7890625 0.7734375
f 204/605 208/606 205/607 201/608
vt 0.8203125 0.7734375
vt 0.7890625 0.7734375
vt 0.7890625 0.8046875
vt 0.8203125 0.8046875
f 202/609 201/610 205/611 206/612
vt 0.8515625 0.8046875
vt 0.8203125 0.8046875
vt 0.8203125 0.7734375
vt 0.8515625 0.7734375
f 207/613 208/614 204/615 203/616
vt 0.8203125 0.75
vt 0.7890625 0.75
vt 0.7890625 0.7734375
vt 0.8203125 0.7734375
f 203/617 204/618 201/619 202/620
vt 0.8828125 0.75
vt 0.8515625 0.75
vt 0.8515625 0.7734375
vt 0.8828125 0.7734375
f 208/621 207/622 206/623 205/624
o bodyModel4
v -3.5 -1 -2.6
v 3.5 -1 -2.6
v 3.5 -10 -2.6
v -3.5 -10 -2.6
v -4 -0.5 -1.1
v 4 -0.5 -1.1
v 4 -10.5 -1.1
v -4 -10.5 -1.1
vt 0.640625 0.6640625
vt 0.6328125 0.6640625
vt 0.6328125 0.734375
vt 0.640625 0.734375
f 215/625 211/626 210/627 214/628
vt 0.578125 0.6640625
vt 0.5703125 0.6640625
vt 0.5703125 0.734375
vt 0.578125 0.734375
f 212/629 216/630 213/631 209/632
vt 0.6328125 0.734375
vt 0.578125 0.734375
vt 0.578125 0.7421875
vt 0.6328125 0.7421875
f 210/633 209/634 213/635 214/636
vt 0.6875 0.7421875
vt 0.6328125 0.7421875
vt 0.6328125 0.734375
vt 0.6875 0.734375
f 215/637 216/638 212/639 211/640
vt 0.6328125 0.6640625
vt 0.578125 0.6640625
vt 0.578125 0.734375
vt 0.6328125 0.734375
f 211/641 212/642 209/643 210/644
vt 0.6953125 0.6640625
vt 0.640625 0.6640625
vt 0.640625 0.734375
vt 0.6953125 0.734375
f 216/645 215/646 214/647 213/648
o bodyModel5
v -3.5 -1.1 -2.7
v 3.5 -1.1 -2.7
v 3.5 -1.9 -2.7
v -3.5 -1.9 -2.7
v -3.5 -1.1 -1.7
v 3.5 -1.1 -1.7
v 3.5 -1.9 -1.7
v -3.5 -1.9 -1.7
vt 0.828125 0.7265625
vt 0.8203125 0.7265625
vt 0.8203125 0.734375
vt 0.828125 0.734375
f 223/649 219/650 218/651 222/652
vt 0.765625 0.7265625
vt 0.7578125 0.7265625
vt 0.7578125 0.734375
vt 0.765625 0.734375
f 220/653 224/654 221/655 217/656
vt 0.8203125 0.734375
vt 0.765625 0.734375
vt 0.765625 0.7421875
vt 0.8203125 0.7421875
f 218/657 217/658 221/659 222/660
vt 0.875 0.7421875
vt 0.8203125 0.7421875
vt 0.8203125 0.734375
vt 0.875 0.734375
f 223/661 224/662 220/663 219/664
vt 0.8203125 0.7265625
vt 0.765625 0.7265625
vt 0.765625 0.734375
vt 0.8203125 0.734375
f 219/665 220/666 217/667 218/668
vt 0.8828125 0.7265625
vt 0.828125 0.7265625
vt 0.828125 0.734375
vt 0.8828125 0.734375
f 224/669 223/670 222/671 221/672
o bodyModel6
v -3.5 -2.7 -2.7
v 3.5 -2.7 -2.7
v 3.5 -3.5 -2.7
v -3.5 -3.5 -2.7
v -3.5 -2.7 -1.7
v 3.5 -2.7 -1.7
v 3.5 -3.5 -1.7
v -3.5 -3.5 -1.7
vt 0.078125 0.6640625
vt 0.0703125 0.6640625
vt 0.0703125 0.671875
vt 0.078125 0.671875
f 231/673 227/674 226/675 230/676
vt 0.015625 0.6640625
vt 0.0078125 0.6640625
vt 0.0078125 0.671875
vt 0.015625 0.671875
f 228/677 232/678 229/679 225/680
vt 0.0703125 0.671875
vt 0.015625 0.671875
vt 0.015625 0.6796875
vt 0.0703125 0.6796875
f 226/681 225/682 229/683 230/684
vt 0.125 0.6796875
vt 0.0703125 0.6796875
vt 0.0703125 0.671875
vt 0.125 0.671875
f 231/685 232/686 228/687 227/688
vt 0.0703125 0.6640625
vt 0.015625 0.6640625
vt 0.015625 0.671875
vt 0.0703125 0.671875
f 227/689 228/690 225/691 226/692
vt 0.1328125 0.6640625
vt 0.078125 0.6640625
vt 0.078125 0.671875
vt 0.1328125 0.671875
f 232/693 231/694 230/695 229/696
o bodyModel7
v -3.5 -4.3 -2.7
v 3.5 -4.3 -2.7
v 3.5 -5.1 -2.7
v -3.5 -5.1 -2.7
v -3.5 -4.3 -1.7
v 3.5 -4.3 -1.7
v 3.5 -5.1 -1.7
v -3.5 -5.1 -1.7
vt 0.828125 0.6640625
vt 0.8203125 0.6640625
vt 0.8203125 0.671875
vt 0.828125 0.671875
f 239/697 235/698 234/699 238/700
vt 0.765625 0.6640625
vt 0.7578125 0.6640625
vt 0.7578125 0.671875
vt 0.765625 0.671875
f 236/701 240/702 237/703 233/704
vt 0.8203125 0.671875
vt 0.765625 0.671875
vt 0.765625 0.6796875
vt 0.8203125 0.6796875
f 234/705 233/706 237/707 238/708
vt 0.875 0.6796875
vt 0.8203125 0.6796875
vt 0.8203125 0.671875
vt 0.875 0.671875
f 239/709 240/710 236/711 235/712
vt 0.8203125 0.6640625
vt 0.765625 0.6640625
vt 0.765625 0.671875
vt 0.8203125 0.671875
f 235/713 236/714 233/715 234/716
vt 0.8828125 0.6640625
vt 0.828125 0.6640625
vt 0.828125 0.671875
vt 0.8828125 0.671875
f 240/717 239/718 238/719 237/720
o bodyModel8
v -3.5 -5.9 -2.7
v 3.5 -5.9 -2.7
v 3.5 -6.7 -2.7
v -3.5 -6.7 -2.7
v -3.5 -5.9 -1.7
v 3.5 -5.9 -1.7
v 3.5 -6.7 -1.7
v -3.5 -6.7 -1.7
vt 0.078125 0.6015625
vt 0.0703125 0.6015625
vt 0.0703125 0.609375
vt 0.078125 0.609375
f 247/721 243/722 242/723 246/724
vt 0.015625 0.6015625
vt 0.0078125 0.6015625
vt 0.0078125 0.609375
vt 0.015625 0.609375
f 244/725 248/726 245/727 241/728
vt 0.0703125 0.609375
vt 0.015625 0.609375
vt 0.015625 0.6171875
vt 0.0703125 0.6171875
f 242/729 241/730 245/731 246/732
vt 0.125 0.6171875
vt 0.0703125 0.6171875
vt 0.0703125 0.609375
vt 0.125 0.609375
f 247/733 248/734 244/735 243/736
vt 0.0703125 0.6015625
vt 0.015625 0.6015625
vt 0.015625 0.609375
vt 0.0703125 0.609375
f 243/737 244/738 241/739 242/740
vt 0.1328125 0.6015625
vt 0.078125 0.6015625
vt 0.078125 0.609375
vt 0.1328125 0.609375
f 248/741 247/742 246/743 245/744
o bodyModel9
v -3.5 -7.5 -2.7
v 3.5 -7.5 -2.7
v 3.5 -8.3 -2.7
v -3.5 -8.3 -2.7
v -3.5 -7.5 -1.7
v 3.5 -7.5 -1.7
v 3.5 -8.3 -1.7
v -3.5 -8.3 -1.7
vt 0.265625 0.6015625
vt 0.2578125 0.6015625
vt 0.2578125 0.609375
vt 0.265625 0.609375
f 255/745 251/746 250/747 254/748
vt 0.203125 0.6015625
vt 0.1953125 0.6015625
vt 0.1953125 0.609375
vt 0.203125 0.609375
f 252/749 256/750 253/751 249/752
vt 0.2578125 0.609375
vt 0.203125 0.609375
vt 0.203125 0.6171875
vt 0.2578125 0.6171875
f 250/753 249/754 253/755 254/756
vt 0.3125 0.6171875
vt 0.2578125 0.6171875
vt 0.2578125 0.609375
vt 0.3125 0.609375
f 255/757 256/758 252/759 251/760
vt 0.2578125 0.6015625
vt 0.203125 0.6015625
vt 0.203125 0.609375
vt 0.2578125 0.609375
f 251/761 252/762 249/763 250/764
vt 0.3203125 0.6015625
vt 0.265625 0.6015625
vt 0.265625 0.609375
vt 0.3203125 0.609375
f 256/765 255/766 254/767 253/768
o bodyModel10
v -3.5 -9.1 -2.7
v 3.5 -9.1 -2.7
v 3.5 -9.9 -2.7
v -3.5 -9.9 -2.7
v -3.5 -9.1 -1.7
v 3.5 -9.1 -1.7
v 3.5 -9.9 -1.7
v -3.5 -9.9 -1.7
vt 0.453125 0.6015625
vt 0.4453125 0.6015625
vt 0.4453125 0.609375
vt 0.453125 0.609375
f 263/769 259/770 258/771 262/772
vt 0.390625 0.6015625
vt 0.3828125 0.6015625
vt 0.3828125 0.609375
vt 0.390625 0.609375
f 260/773 264/774 261/775 257/776
vt 0.4453125 0.609375
vt 0.390625 0.609375
vt 0.390625 0.6171875
vt 0.4453125 0.6171875
f 258/777 257/778 261/779 262/780
vt 0.5 0.6171875
vt 0.4453125 0.6171875
vt 0.4453125 0.609375
vt 0.5 0.609375
f 263/781 264/782 260/783 259/784
vt 0.4453125 0.6015625
vt 0.390625 0.6015625
vt 0.390625 0.609375
vt 0.4453125 0.609375
f 259/785 260/786 257/787 258/788
vt 0.5078125 0.6015625
vt 0.453125 0.6015625
vt 0.453125 0.609375
vt 0.5078125 0.609375
f 264/789 263/790 262/791 261/792
o bodyModel11
v -2.8 -11 -2.3
v 2.8 -11 -2.3
v 2.8 -12.2 -2.3
v -2.8 -12.2 -2.3
v -2.8 -11 -2.1
v 2.8 -11 -2.1
v 2.8 -12.2 -2.1
v -2.8 -12.2 -2.1
vt 0.5625 0.8515625
vt 0.5546875 0.8515625
vt 0.5546875 0.859375
vt 0.5625 0.859375
f 271/793 267/794 266/795 270/796
vt 0.515625 0.8515625
vt 0.5078125 0.8515625
vt 0.5078125 0.859375
vt 0.515625 0.859375
f 268/797 272/798 269/799 265/800
vt 0.5546875 0.859375
vt 0.515625 0.859375
vt 0.515625 0.8671875
vt 0.5546875 0.8671875
f 266/801 265/802 269/803 270/804
vt 0.59375 0.8671875
vt 0.5546875 0.8671875
vt 0.5546875 0.859375
vt 0.59375 0.859375
f 271/805 272/806 268/807 267/808
vt 0.5546875 0.8515625
vt 0.515625 0.8515625
vt 0.515625 0.859375
vt 0.5546875 0.859375
f 267/809 268/810 265/811 266/812
vt 0.6015625 0.8515625
vt 0.5625 0.8515625
vt 0.5625 0.859375
vt 0.6015625 0.859375
f 272/813 271/814 270/815 269/816
o bodyModel12
v 1.2 -6 -3.7
v 3.2 -6 -3.7
v 3.2 -10 -3.7
v 1.2 -10 -3.7
v 1.2 -6 -2.1
v 3.2 -6 -2.1
v 3.2 -10 -2.1
v 1.2 -10 -2.1
vt 0.2265625 0.890625
vt 0.21875 0.890625
vt 0.21875 0.921875
vt 0.2265625 0.921875
f 279/817 275/818 274/819 278/820
vt 0.203125 0.890625
vt 0.1953125 0.890625
vt 0.1953125 0.921875
vt 0.203125 0.921875
f 276/821 280/822 277/823 273/824
vt 0.21875 0.921875
vt 0.203125 0.921875
vt 0.203125 0.9296875
vt 0.21875 0.9296875
f 274/825 273/826 277/827 278/828
vt 0.234375 0.9296875
vt 0.21875 0.9296875
vt 0.21875 0.921875
vt 0.234375 0.921875
f 279/829 280/830 276/831 275/832
vt 0.21875 0.890625
vt 0.203125 0.890625
vt 0.203125 0.921875
vt 0.21875 0.921875
f 275/833 276/834 273/835 274/836
vt 0.2421875 0.890625
vt 0.2265625 0.890625
vt 0.2265625 0.921875
vt 0.2421875 0.921875
f 280/837 279/838 278/839 277/840
o bodyModel13
v -1 -6 -3.7
v 1 -6 -3.7
v 1 -10 -3.7
v -1 -10 -3.7
v -1 -6 -2.1
v 1 -6 -2.1
v 1 -10 -2.1
v -1 -10 -2.1
vt 0.9765625 0.765625
vt 0.96875 0.765625
vt 0.96875 0.796875
vt 0.9765625 0.796875
f 287/841 283/842 282/843 286/844
vt 0.953125 0.765625
vt 0.9453125 0.765625
vt 0.9453125 0.796875
vt 0.953125 0.796875
f 284/845 288/846 285/847 281/848
vt 0.96875 0.796875
vt 0.953125 0.796875
vt 0.953125 0.8046875
vt 0.96875 0.8046875
f 282/849 281/850 285/851 286/852
vt 0.984375 0.8046875
vt 0.96875 0.8046875
vt 0.96875 0.796875
vt 0.984375 0.796875
f 287/853 288/854 284/855 283/856
vt 0.96875 0.765625
vt 0.953125 0.765625
vt 0.953125 0.796875
vt 0.96875 0.796875
f 283/857 284/858 281/859 282/860
vt 0.9921875 0.765625
vt 0.9765625 0.765625
vt 0.9765625 0.796875
vt 0.9921875 0.796875
f 288/861 287/862 286/863 285/864
o bodyModel14
v -3.2 -6 -3.7
v -1.2 -6 -3.7
v -1.2 -10 -3.7
v -3.2 -10 -3.7
v -3.2 -6 -2.1
v -1.2 -6 -2.1
v -1.2 -10 -2.1
v -3.2 -10 -2.1
vt 0.9765625 0.703125
vt 0.96875 0.703125
vt 0.96875 0.734375
vt 0.9765625 0.734375
f 295/865 291/866 290/867 294/868
vt 0.953125 0.703125
vt 0.9453125 0.703125
vt 0.9453125 0.734375
vt 0.953125 0.734375
f 292/869 296/870 293/871 289/872
vt 0.96875 0.734375
vt 0.953125 0.734375
vt 0.953125 0.7421875
vt 0.96875 0.7421875
f 290/873 289/874 293/875 294/876
vt 0.984375 0.7421875
vt 0.96875 0.7421875
vt 0.96875 0.734375
vt 0.984375 0.734375
f 295/877 296/878 292/879 291/880
vt 0.96875 0.703125
vt 0.953125 0.703125
vt 0.953125 0.734375
vt 0.96875 0.734375
f 291/881 292/882 289/883 290/884
vt 0.9921875 0.703125
vt 0.9765625 0.703125
vt 0.9765625 0.734375
vt 0.9921875 0.734375
f 296/885 295/886 294/887 293/888
o bodyModel15
v 1.8 -2 -3.1
v 2.8 -2 -3.1
v 2.8 -5 -3.1
v 1.8 -5 -3.1
v 1.8 -2 -1.5
v 2.8 -2 -1.5
v 2.8 -5 -1.5
v 1.8 -5 -1.5
vt 0.71875 0.9609375
vt 0.7109375 0.9609375
vt 0.7109375 0.984375
vt 0.71875 0.984375
f 303/889 299/890 298/891 302/892
vt 0.703125 0.9609375
vt 0.6953125 0.9609375
vt 0.6953125 0.984375
vt 0.703125 0.984375
f 300/893 304/894 301/895 297/896
vt 0.7109375 0.984375
vt 0.703125 0.984375
vt 0.703125 0.9921875
vt 0.7109375 0.9921875
f 298/897 297/898 301/899 302/900
vt 0.71875 0.9921875
vt 0.7109375 0.9921875
vt 0.7109375 0.984375
vt 0.71875 0.984375
f 303/901 304/902 300/903 299/904
vt 0.7109375 0.9609375
vt 0.703125 0.9609375
vt 0.703125 0.984375
vt 0.7109375 0.984375
f 299/905 300/906 297/907 298/908
vt 0.7265625 0.9609375
vt 0.71875 0.9609375
vt 0.71875 0.984375
vt 0.7265625 0.984375
f 304/909 303/910 302/911 301/912
o bodyModel16
v -4 -0.5 1
v 4 -0.5 1
v 4 -10.5 1
v -4 -10.5 1
v -3.5 -1 2.5
v 3.5 -1 2.5
v 3.5 -10 2.5
v -3.5 -10 2.5
vt 0.828125 0.5390625
vt 0.8203125 0.5390625
vt 0.8203125 0.609375
vt 0.828125 0.609375
f 311/913 307/914 306/915 310/916
vt 0.765625 0.5390625
vt 0.7578125 0.5390625
vt 0.7578125 0.609375
vt 0.765625 0.609375
f 308/917 312/918 309/919 305/920
vt 0.8203125 0.609375
vt 0.765625 0.609375
vt 0.765625 0.6171875
vt 0.8203125 0.6171875
f 306/921 305/922 309/923 310/924
vt 0.875 0.6171875
vt 0.8203125 0.6171875
vt 0.8203125 0.609375
vt 0.875 0.609375
f 311/925 312/926 308/927 307/928
vt 0.8203125 0.5390625
vt 0.765625 0.5390625
vt 0.765625 0.609375
vt 0.8203125 0.609375
f 307/929 308/930 305/931 306/932
vt 0.8828125 0.5390625
vt 0.828125 0.5390625
vt 0.828125 0.609375
vt 0.8828125 0.609375
f 312/933 311/934 310/935 309/936
o bodyModel17
v -3.5 -4.3 1.6
v 3.5 -4.3 1.6
v 3.5 -5.1 1.6
v -3.5 -5.1 1.6
v -3.5 -4.3 2.6
v 3.5 -4.3 2.6
v 3.5 -5.1 2.6
v -3.5 -5.1 2.6
vt 0.078125 0.5390625
vt 0.0703125 0.5390625
vt 0.0703125 0.546875
vt 0.078125 0.546875
f 319/937 315/938 314/939 318/940
vt 0.015625 0.5390625
vt 0.0078125 0.5390625
vt 0.0078125 0.546875
vt 0.015625 0.546875
f 316/941 320/942 317/943 313/944
vt 0.0703125 0.546875
vt 0.015625 0.546875
vt 0.015625 0.5546875
vt 0.0703125 0.5546875
f 314/945 313/946 317/947 318/948
vt 0.125 0.5546875
vt 0.0703125 0.5546875
vt 0.0703125 0.546875
vt 0.125 0.546875
f 319/949 320/950 316/951 315/952
vt 0.0703125 0.5390625
vt 0.015625 0.5390625
vt 0.015625 0.546875
vt 0.0703125 0.546875
f 315/953 316/954 313/955 314/956
vt 0.1328125 0.5390625
vt 0.078125 0.5390625
vt 0.078125 0.546875
vt 0.1328125 0.546875
f 320/957 319/958 318/959 317/960
o bodyModel18
v -3.5 -2.7 1.6
v 3.5 -2.7 1.6
v 3.5 -3.5 1.6
v -3.5 -3.5 1.6
v -3.5 -2.7 2.6
v 3.5 -2.7 2.6
v 3.5 -3.5 2.6
v -3.5 -3.5 2.6
vt 0.265625 0.5390625
vt 0.2578125 0.5390625
vt 0.2578125 0.546875
vt 0.265625 0.546875
f 327/961 323/962 322/963 326/964
vt 0.203125 0.5390625
vt 0.1953125 0.5390625
vt 0.1953125 0.546875
vt 0.203125 0.546875
f 324/965 328/966 325/967 321/968
vt 0.2578125 0.546875
vt 0.203125 0.546875
vt 0.203125 0.5546875
vt 0.2578125 0.5546875
f 322/969 321/970 325/971 326/972
vt 0.3125 0.5546875
vt 0.2578125 0.5546875
vt 0.2578125 0.546875
vt 0.3125 0.546875
f 327/973 328/974 324/975 323/976
vt 0.2578125 0.5390625
vt 0.203125 0.5390625
vt 0.203125 0.546875
vt 0.2578125 0.546875
f 323/977 324/978 321/979 322/980
vt 0.3203125 0.5390625
vt 0.265625 0.5390625
vt 0.265625 0.546875
vt 0.3203125 0.546875
f 328/981 327/982 326/983 325/984
o bodyModel19
v -3.5 -1.1 1.6
v 3.5 -1.1 1.6
v 3.5 -1.9 1.6
v -3.5 -1.9 1.6
v -3.5 -1.1 2.6
v 3.5 -1.1 2.6
v 3.5 -1.9 2.6
v -3.5 -1.9 2.6
vt 0.453125 0.5390625
vt 0.4453125 0.5390625
vt 0.4453125 0.546875
vt 0.453125 0.546875
f 335/985 331/986 330/987 334/988
vt 0.390625 0.5390625
vt 0.3828125 0.5390625
vt 0.3828125 0.546875
vt 0.390625 0.546875
f 332/989 336/990 333/991 329/992
vt 0.4453125 0.546875
vt 0.390625 0.546875
vt 0.390625 0.5546875
vt 0.4453125 0.5546875
f 330/993 329/994 333/995 334/996
vt 0.5 0.5546875
vt 0.4453125 0.5546875
vt 0.4453125 0.546875
vt 0.5 0.546875
f 335/997 336/998 332/999 331/1000
vt 0.4453125 0.5390625
vt 0.390625 0.5390625
vt 0.390625 0.546875
vt 0.4453125 0.546875
f 331/1001 332/1002 329/1003 330/1004
vt 0.5078125 0.5390625
vt 0.453125 0.5390625
vt 0.453125 0.546875
vt 0.5078125 0.546875
f 336/1005 335/1006 334/1007 333/1008
o bodyModel20
v -3.5 -5.9 1.6
v 3.5 -5.9 1.6
v 3.5 -6.7 1.6
v -3.5 -6.7 1.6
v -3.5 -5.9 2.6
v 3.5 -5.9 2.6
v 3.5 -6.7 2.6
v -3.5 -6.7 2.6
vt 0.640625 0.5390625
vt 0.6328125 0.5390625
vt 0.6328125 0.546875
vt 0.640625 0.546875
f 343/1009 339/1010 338/1011 342/1012
vt 0.578125 0.5390625
vt 0.5703125 0.5390625
vt 0.5703125 0.546875
vt 0.578125 0.546875
f 340/1013 344/1014 341/1015 337/1016
vt 0.6328125 0.546875
vt 0.578125 0.546875
vt 0.578125 0.5546875
vt 0.6328125 0.5546875
f 338/1017 337/1018 341/1019 342/1020
vt 0.6875 0.5546875
vt 0.6328125 0.5546875
vt 0.6328125 0.546875
vt 0.6875 0.546875
f 343/1021 344/1022 340/1023 339/1024
vt 0.6328125 0.5390625
vt 0.578125 0.5390625
vt 0.578125 0.546875
vt 0.6328125 0.546875
f 339/1025 340/1026 337/1027 338/1028
vt 0.6953125 0.5390625
vt 0.640625 0.5390625
vt 0.640625 0.546875
vt 0.6953125 0.546875
f 344/1029 343/1030 342/1031 341/1032
o bodyModel21
v -3.5 -7.5 1.6
v 3.5 -7.5 1.6
v 3.5 -8.3 1.6
v -3.5 -8.3 1.6
v -3.5 -7.5 2.6
v 3.5 -7.5 2.6
v 3.5 -8.3 2.6
v -3.5 -8.3 2.6
vt 0.078125 0.4765625
vt 0.0703125 0.4765625
vt 0.0703125 0.484375
vt 0.078125 0.484375
f 351/1033 347/1034 346/1035 350/1036
vt 0.015625 0.4765625
vt 0.0078125 0.4765625
vt 0.0078125 0.484375
vt 0.015625 0.484375
f 348/1037 352/1038 349/1039 345/1040
vt 0.0703125 0.484375
vt 0.015625 0.484375
vt 0.015625 0.4921875
vt 0.0703125 0.4921875
f 346/1041 345/1042 349/1043 350/1044
vt 0.125 0.4921875
vt 0.0703125 0.4921875
vt 0.0703125 0.484375
vt 0.125 0.484375
f 351/1045 352/1046 348/1047 347/1048
vt 0.0703125 0.4765625
vt 0.015625 0.4765625
vt 0.015625 0.484375
vt 0.0703125 0.484375
f 347/1049 348/1050 345/1051 346/1052
vt 0.1328125 0.4765625
vt 0.078125 0.4765625
vt 0.078125 0.484375
vt 0.1328125 0.484375
f 352/1053 351/1054 350/1055 349/1056
o bodyModel22
v -3.5 -9.1 1.6
v 3.5 -9.1 1.6
v 3.5 -9.9 1.6
v -3.5 -9.9 1.6
v -3.5 -9.1 2.6
v 3.5 -9.1 2.6
v 3.5 -9.9 2.6
v -3.5 -9.9 2.6
vt 0.265625 0.4765625
vt 0.2578125 0.4765625
vt 0.2578125 0.484375
vt 0.265625 0.484375
f 359/1057 355/1058 354/1059 358/1060
vt 0.203125 0.4765625
vt 0.1953125 0.4765625
vt 0.1953125 0.484375
vt 0.203125 0.484375
f 356/1061 360/1062 357/1063 353/1064
vt 0.2578125 0.484375
vt 0.203125 0.484375
vt 0.203125 0.4921875
vt 0.2578125 0.4921875
f 354/1065 353/1066 357/1067 358/1068
vt 0.3125 0.4921875
vt 0.2578125 0.4921875
vt 0.2578125 0.484375
vt 0.3125 0.484375
f 359/1069 360/1070 356/1071 355/1072
vt 0.2578125 0.4765625
vt 0.203125 0.4765625
vt 0.203125 0.484375
vt 0.2578125 0.484375
f 355/1073 356/1074 353/1075 354/1076
vt 0.3203125 0.4765625
vt 0.265625 0.4765625
vt 0.265625 0.484375
vt 0.3203125 0.484375
f 360/1077 359/1078 358/1079 357/1080
o bodyModel23
v 0.6 -2 -3.1
v 1.6 -2 -3.1
v 1.6 -5 -3.1
v 0.6 -5 -3.1
v 0.6 -2 -1.5
v 1.6 -2 -1.5
v 1.6 -5 -1.5
v 0.6 -5 -1.5
vt 0.90625 0.9609375
vt 0.8984375 0.9609375
vt 0.8984375 0.984375
vt 0.90625 0.984375
f 367/1081 363/1082 362/1083 366/1084
vt 0.890625 0.9609375
vt 0.8828125 0.9609375
vt 0.8828125 0.984375
vt 0.890625 0.984375
f 364/1085 368/1086 365/1087 361/1088
vt 0.8984375 0.984375
vt 0.890625 0.984375
vt 0.890625 0.9921875
vt 0.8984375 0.9921875
f 362/1089 361/1090 365/1091 366/1092
vt 0.90625 0.9921875
vt 0.8984375 0.9921875
vt 0.8984375 0.984375
vt 0.90625 0.984375
f 367/1093 368/1094 364/1095 363/1096
vt 0.8984375 0.9609375
vt 0.890625 0.9609375
vt 0.890625 0.984375
vt 0.8984375 0.984375
f 363/1097 364/1098 361/1099 362/1100
vt 0.9140625 0.9609375
vt 0.90625 0.9609375
vt 0.90625 0.984375
vt 0.9140625 0.984375
f 368/1101 367/1102 366/1103 365/1104
o bodyModel24
v -3 -3 -3.1
v -1 -3 -3.1
v -1 -5 -3.1
v -3 -5 -3.1
v -3 -3 -1.5
v -1 -3 -1.5
v -1 -5 -1.5
v -3 -5 -1.5
vt 0.9765625 0.96875
vt 0.96875 0.96875
vt 0.96875 0.984375
vt 0.9765625 0.984375
f 375/1105 371/1106 370/1107 374/1108
vt 0.953125 0.96875
vt 0.9453125 0.96875
vt 0.9453125 0.984375
vt 0.953125 0.984375
f 372/1109 376/1110 373/1111 369/1112
vt 0.96875 0.984375
vt 0.953125 0.984375
vt 0.953125 0.9921875
vt 0.96875 0.9921875
f 370/1113 369/1114 373/1115 374/1116
vt 0.984375 0.9921875
vt 0.96875 0.9921875
vt 0.96875 0.984375
vt 0.984375 0.984375
f 375/1117 376/1118 372/1119 371/1120
vt 0.96875 0.96875
vt 0.953125 0.96875
vt 0.953125 0.984375
vt 0.96875 0.984375
f 371/1121 372/1122 369/1123 370/1124
vt 0.9921875 0.96875
vt 0.9765625 0.96875
vt 0.9765625 0.984375
vt 0.9921875 0.984375
f 376/1125 375/1126 374/1127 373/1128
o bodyModel25
v -3.25 -5.9 -3.9
v -1.15 -5.9 -3.9
v -1.15 -7.4 -3.9
v -3.25 -7.4 -3.9
v -3.25 -5.9 -2.3
v -1.15 -5.9 -2.3
v -1.15 -7.4 -2.3
v -3.25 -7.4 -2.3
vt 0.9765625 0.59375
vt 0.96875 0.59375
vt 0.96875 0.609375
vt 0.9765625 0.609375
f 383/1129 379/1130 378/1131 382/1132
vt 0.953125 0.59375
vt 0.9453125 0.59375
vt 0.9453125 0.609375
vt 0.953125 0.609375
f 380/1133 384/1134 381/1135 377/1136
vt 0.96875 0.609375
vt 0.953125 0.609375
vt 0.953125 0.6171875
vt 0.96875 0.6171875
f 378/1137 377/1138 381/1139 382/1140
vt 0.984375 0.6171875
vt 0.96875 0.6171875
vt 0.96875 0.609375
vt 0.984375 0.609375
f 383/1141 384/1142 380/1143 379/1144
vt 0.96875 0.59375
vt 0.953125 0.59375
vt 0.953125 0.609375
vt 0.96875 0.609375
f 379/1145 380/1146 377/1147 378/1148
vt 0.9921875 0.59375
vt 0.9765625 0.59375
vt 0.9765625 0.609375
vt 0.9921875 0.609375
f 384/1149 383/1150 382/1151 381/1152
o bodyModel26
v -1.05 -5.9 -3.9
v 1.05 -5.9 -3.9
v 1.05 -7.4 -3.9
v -1.05 -7.4 -3.9
v -1.05 -5.9 -2.3
v 1.05 -5.9 -2.3
v 1.05 -7.4 -2.3
v -1.05 -7.4 -2.3
vt 0.9765625 0.53125
vt 0.96875 0.53125
vt 0.96875 0.546875
vt 0.9765625 0.546875
f 391/1153 387/1154 386/1155 390/1156
vt 0.953125 0.53125
vt 0.9453125 0.53125
vt 0.9453125 0.546875
vt 0.953125 0.546875
f 388/1157 392/1158 389/1159 385/1160
vt 0.96875 0.546875
vt 0.953125 0.546875
vt 0.953125 0.5546875
vt 0.96875 0.5546875
f 386/1161 385/1162 389/1163 390/1164
vt 0.984375 0.5546875
vt 0.96875 0.5546875
vt 0.96875 0.546875
vt 0.984375 0.546875
f 391/1165 392/1166 388/1167 387/1168
vt 0.96875 0.53125
vt 0.953125 0.53125
vt 0.953125 0.546875
vt 0.96875 0.546875
f 387/1169 388/1170 385/1171 386/1172
vt 0.9921875 0.53125
vt 0.9765625 0.53125
vt 0.9765625 0.546875
vt 0.9921875 0.546875
f 392/1173 391/1174 390/1175 389/1176
o bodyModel27
v 1.15 -5.9 -3.9
v 3.25 -5.9 -3.9
v 3.25 -7.4 -3.9
v 1.15 -7.4 -3.9
v 1.15 -5.9 -2.3
v 3.25 -5.9 -2.3
v 3.25 -7.4 -2.3
v 1.15 -7.4 -2.3
vt 0.7890625 0.46875
vt 0.78125 0.46875
vt 0.78125 0.484375
vt 0.7890625 0.484375
f 399/1177 395/1178 394/1179 398/1180
vt 0.765625 0.46875
vt 0.7578125 0.46875
vt 0.7578125 0.484375
vt 0.765625 0.484375
f 396/1181 400/1182 397/1183 393/1184
vt 0.78125 0.484375
vt 0.765625 0.484375
vt 0.765625 0.4921875
vt 0.78125 0.4921875
f 394/1185 393/1186 397/1187 398/1188
vt 0.796875 0.4921875
vt 0.78125 0.4921875
vt 0.78125 0.484375
vt 0.796875 0.484375
f 399/1189 400/1190 396/1191 395/1192
vt 0.78125 0.46875
vt 0.765625 0.46875
vt 0.765625 0.484375
vt 0.78125 0.484375
f 395/1193 396/1194 393/1195 394/1196
vt 0.8046875 0.46875
vt 0.7890625 0.46875
vt 0.7890625 0.484375
vt 0.8046875 0.484375
f 400/1197 399/1198 398/1199 397/1200
o bodyModel28
v -3.05 -2.9 -3.2
v -0.95 -2.9 -3.2
v -0.95 -3.9 -3.2
v -3.05 -3.9 -3.2
v -3.05 -2.9 -1.6
v -0.95 -2.9 -1.6
v -0.95 -3.9 -1.6
v -3.05 -3.9 -1.6
vt 0.8515625 0.4765625
vt 0.84375 0.4765625
vt 0.84375 0.484375
vt 0.8515625 0.484375
f 407/1201 403/1202 402/1203 406/1204
vt 0.828125 0.4765625
vt 0.8203125 0.4765625
vt 0.8203125 0.484375
vt 0.828125 0.484375
f 404/1205 408/1206 405/1207 401/1208
vt 0.84375 0.484375
vt 0.828125 0.484375
vt 0.828125 0.4921875
vt 0.84375 0.4921875
f 402/1209 401/1210 405/1211 406/1212
vt 0.859375 0.4921875
vt 0.84375 0.4921875
vt 0.84375 0.484375
vt 0.859375 0.484375
f 407/1213 408/1214 404/1215 403/1216
vt 0.84375 0.4765625
vt 0.828125 0.4765625
vt 0.828125 0.484375
vt 0.84375 0.484375
f 403/1217 404/1218 401/1219 402/1220
vt 0.8671875 0.4765625
vt 0.8515625 0.4765625
vt 0.8515625 0.484375
vt 0.8671875 0.484375
f 408/1221 407/1222 406/1223 405/1224
o bodyModel29
v 0.55 -1.9 -3.2
v 1.65 -1.9 -3.2
v 1.65 -2.9 -3.2
v 0.55 -2.9 -3.2
v 0.55 -1.9 -1.6
v 1.65 -1.9 -1.6
v 1.65 -2.9 -1.6
v 0.55 -2.9 -1.6
vt 0.90625 0.4765625
vt 0.8984375 0.4765625
vt 0.8984375 0.484375
vt 0.90625 0.484375
f 415/1225 411/1226 410/1227 414/1228
vt 0.890625 0.4765625
vt 0.8828125 0.4765625
vt 0.8828125 0.484375
vt 0.890625 0.484375
f 412/1229 416/1230 413/1231 409/1232
vt 0.8984375 0.484375
vt 0.890625 0.484375
vt 0.890625 0.4921875
vt 0.8984375 0.4921875
f 410/1233 409/1234 413/1235 414/1236
vt 0.90625 0.4921875
vt 0.8984375 0.4921875
vt 0.8984375 0.484375
vt 0.90625 0.484375
f 415/1237 416/1238 412/1239 411/1240
vt 0.8984375 0.4765625
vt 0.890625 0.4765625
vt 0.890625 0.484375
vt 0.8984375 0.484375
f 411/1241 412/1242 409/1243 410/1244
vt 0.9140625 0.4765625
vt 0.90625 0.4765625
vt 0.90625 0.484375
vt 0.9140625 0.484375
f 416/1245 415/1246 414/1247 413/1248
o bodyModel30
v 1.75 -1.9 -3.2
v 2.85 -1.9 -3.2
v 2.85 -2.9 -3.2
v 1.75 -2.9 -3.2
v 1.75 -1.9 -1.6
v 2.85 -1.9 -1.6
v 2.85 -2.9 -1.6
v 1.75 -2.9 -1.6
vt 0.96875 0.4765625
vt 0.9609375 0.4765625
vt 0.9609375 0.484375
vt 0.96875 0.484375
f 423/1249 419/1250 418/1251 422/1252
vt 0.953125 0.4765625
vt 0.9453125 0.4765625
vt 0.9453125 0.484375
vt 0.953125 0.484375
f 420/1253 424/1254 421/1255 417/1256
vt 0.9609375 0.484375
vt 0.953125 0.484375
vt 0.953125 0.4921875
vt 0.9609375 0.4921875
f 418/1257 417/1258 421/1259 422/1260
vt 0.96875 0.4921875
vt 0.9609375 0.4921875
vt 0.9609375 0.484375
vt 0.96875 0.484375
f 423/1261 424/1262 420/1263 419/1264
vt 0.9609375 0.4765625
vt 0.953125 0.4765625
vt 0.953125 0.484375
vt 0.9609375 0.484375
f 419/1265 420/1266 417/1267 418/1268
vt 0.9765625 0.4765625
vt 0.96875 0.4765625
vt 0.96875 0.484375
vt 0.9765625 0.484375
f 424/1269 423/1270 422/1271 421/1272
o bodyModel31
v -1.8 -1.2 2.3
v 1.8 -1.2 2.3
v 1.8 -9.8 2.3
v -1.8 -9.8 2.3
v -1.75 -1.25 3.3
v 1.75 -1.25 3.3
v 1.75 -9.75 3.3
v -1.75 -9.75 3.3
vt 0.0546875 0.3515625
vt 0.046875 0.3515625
vt 0.046875 0.421875
vt 0.0546875 0.421875
f 431/1273 427/1274 426/1275 430/1276
vt 0.015625 0.3515625
vt 0.0078125 0.3515625
vt 0.0078125 0.421875
vt 0.015625 0.421875
f 428/1277 432/1278 429/1279 425/1280
vt 0.046875 0.421875
vt 0.015625 0.421875
vt 0.015625 0.4296875
vt 0.046875 0.4296875
f 426/1281 425/1282 429/1283 430/1284
vt 0.078125 0.4296875
vt 0.046875 0.4296875
vt 0.046875 0.421875
vt 0.078125 0.421875
f 431/1285 432/1286 428/1287 427/1288
vt 0.046875 0.3515625
vt 0.015625 0.3515625
vt 0.015625 0.421875
vt 0.046875 0.421875
f 427/1289 428/1290 425/1291 426/1292
vt 0.0859375 0.3515625
vt 0.0546875 0.3515625
vt 0.0546875 0.421875
vt 0.0859375 0.421875
f 432/1293 431/1294 430/1295 429/1296
o bodyModel32
v -1.5 -7.5 2.35
v 1.5 -7.5 2.35
v 1.5 -8.3 2.35
v -1.5 -8.3 2.35
v -1.5 -7.5 3.35
v 1.5 -7.5 3.35
v 1.5 -8.3 3.35
v -1.5 -8.3 3.35
vt 0.171875 0.4140625
vt 0.1640625 0.4140625
vt 0.1640625 0.421875
vt 0.171875 0.421875
f 439/1297 435/1298 434/1299 438/1300
vt 0.140625 0.4140625
vt 0.1328125 0.4140625
vt 0.1328125 0.421875
vt 0.140625 0.421875
f 436/1301 440/1302 437/1303 433/1304
vt 0.1640625 0.421875
vt 0.140625 0.421875
vt 0.140625 0.4296875
vt 0.1640625 0.4296875
f 434/1305 433/1306 437/1307 438/1308
vt 0.1875 0.4296875
vt 0.1640625 0.4296875
vt 0.1640625 0.421875
vt 0.1875 0.421875
f 439/1309 440/1310 436/1311 435/1312
vt 0.1640625 0.4140625
vt 0.140625 0.4140625
vt 0.140625 0.421875
vt 0.1640625 0.421875
f 435/1313 436/1314 433/1315 434/1316
vt 0.1953125 0.4140625
vt 0.171875 0.4140625
vt 0.171875 0.421875
vt 0.1953125 0.421875
f 440/1317 439/1318 438/1319 437/1320
o bodyModel33
v -1.5 -5.9 2.35
v 1.5 -5.9 2.35
v 1.5 -6.7 2.35
v -1.5 -6.7 2.35
v -1.5 -5.9 3.35
v 1.5 -5.9 3.35
v 1.5 -6.7 3.35
v -1.5 -6.7 3.35
vt 0.296875 0.4140625
vt 0.2890625 0.4140625
vt 0.2890625 0.421875
vt 0.296875 0.421875
f 447/1321 443/1322 442/1323 446/1324
vt 0.265625 0.4140625
vt 0.2578125 0.4140625
vt 0.2578125 0.421875
vt 0.265625 0.421875
f 444/1325 448/1326 445/1327 441/1328
vt 0.2890625 0.421875
vt 0.265625 0.421875
vt 0.265625 0.4296875
vt 0.2890625 0.4296875
f 442/1329 441/1330 445/1331 446/1332
vt 0.3125 0.4296875
vt 0.2890625 0.4296875
vt 0.2890625 0.421875
vt 0.3125 0.421875
f 447/1333 448/1334 444/1335 443/1336
vt 0.2890625 0.4140625
vt 0.265625 0.4140625
vt 0.265625 0.421875
vt 0.2890625 0.421875
f 443/1337 444/1338 441/1339 442/1340
vt 0.3203125 0.4140625
vt 0.296875 0.4140625
vt 0.296875 0.421875
vt 0.3203125 0.421875
f 448/1341 447/1342 446/1343 445/1344
o bodyModel34
v -1.5 -4.3 2.35
v 1.5 -4.3 2.35
v 1.5 -5.1 2.35
v -1.5 -5.1 2.35
v -1.5 -4.3 3.35
v 1.5 -4.3 3.35
v 1.5 -5.1 3.35
v -1.5 -5.1 3.35
vt 0.421875 0.4140625
vt 0.4140625 0.4140625
vt 0.4140625 0.421875
vt 0.421875 0.421875
f 455/1345 451/1346 450/1347 454/1348
vt 0.390625 0.4140625
vt 0.3828125 0.4140625
vt 0.3828125 0.421875
vt 0.390625 0.421875
f 452/1349 456/1350 453/1351 449/1352
vt 0.4140625 0.421875
vt 0.390625 0.421875
vt 0.390625 0.4296875
vt 0.4140625 0.4296875
f 450/1353 449/1354 453/1355 454/1356
vt 0.4375 0.4296875
vt 0.4140625 0.4296875
vt 0.4140625 0.421875
vt 0.4375 0.421875
f 455/1357 456/1358 452/1359 451/1360
vt 0.4140625 0.4140625
vt 0.390625 0.4140625
vt 0.390625 0.421875
vt 0.4140625 0.421875
f 451/1361 452/1362 449/1363 450/1364
vt 0.4453125 0.4140625
vt 0.421875 0.4140625
vt 0.421875 0.421875
vt 0.4453125 0.421875
f 456/1365 455/1366 454/1367 453/1368
o bodyModel35
v -1.5 -2.7 2.35
v 1.5 -2.7 2.35
v 1.5 -3.5 2.35
v -1.5 -3.5 2.35
v -1.5 -2.7 3.35
v 1.5 -2.7 3.35
v 1.5 -3.5 3.35
v -1.5 -3.5 3.35
vt 0.921875 0.4140625
vt 0.9140625 0.4140625
vt 0.9140625 0.421875
vt 0.921875 0.421875
f 463/1369 459/1370 458/1371 462/1372
vt 0.890625 0.4140625
vt 0.8828125 0.4140625
vt 0.8828125 0.421875
vt 0.890625 0.421875
f 460/1373 464/1374 461/1375 457/1376
vt 0.9140625 0.421875
vt 0.890625 0.421875
vt 0.890625 0.4296875
vt 0.9140625 0.4296875
f 458/1377 457/1378 461/1379 462/1380
vt 0.9375 0.4296875
vt 0.9140625 0.4296875
vt 0.9140625 0.421875
vt 0.9375 0.421875
f 463/1381 464/1382 460/1383 459/1384
vt 0.9140625 0.4140625
vt 0.890625 0.4140625
vt 0.890625 0.421875
vt 0.9140625 0.421875
f 459/1385 460/1386 457/1387 458/1388
vt 0.9453125 0.4140625
vt 0.921875 0.4140625
vt 0.921875 0.421875
vt 0.9453125 0.421875
f 464/1389 463/1390 462/1391 461/1392
o bodyModel36
v -1.5 -1.25 2.35
v 1.5 -1.25 2.35
v 1.5 -2.05 2.35
v -1.5 -2.05 2.35
v -1.5 -1.25 3.35
v 1.5 -1.25 3.35
v 1.5 -2.05 3.35
v -1.5 -2.05 3.35
vt 0.171875 0.3515625
vt 0.1640625 0.3515625
vt 0.1640625 0.359375
vt 0.171875 0.359375
f 471/1393 467/1394 466/1395 470/1396
vt 0.140625 0.3515625
vt 0.1328125 0.3515625
vt 0.1328125 0.359375
vt 0.140625 0.359375
f 468/1397 472/1398 469/1399 465/1400
vt 0.1640625 0.359375
vt 0.140625 0.359375
vt 0.140625 0.3671875
vt 0.1640625 0.3671875
f 466/1401 465/1402 469/1403 470/1404
vt 0.1875 0.3671875
vt 0.1640625 0.3671875
vt 0.1640625 0.359375
vt 0.1875 0.359375
f 471/1405 472/1406 468/1407 467/1408
vt 0.1640625 0.3515625
vt 0.140625 0.3515625
vt 0.140625 0.359375
vt 0.1640625 0.359375
f 467/1409 468/1410 465/1411 466/1412
vt 0.1953125 0.3515625
vt 0.171875 0.3515625
vt 0.171875 0.359375
vt 0.1953125 0.359375
f 472/1413 471/1414 470/1415 469/1416
o bodyModel37
v -1.5 -8.95 2.35
v 1.5 -8.95 2.35
v 1.5 -9.75 2.35
v -1.5 -9.75 2.35
v -1.5 -8.95 3.35
v 1.5 -8.95 3.35
v 1.5 -9.75 3.35
v -1.5 -9.75 3.35
vt 0.296875 0.3515625
vt 0.2890625 0.3515625
vt 0.2890625 0.359375
vt 0.296875 0.359375
f 479/1417 475/1418 474/1419 478/1420
vt 0.265625 0.3515625
vt 0.2578125 0.3515625
vt 0.2578125 0.359375
vt 0.265625 0.359375
f 476/1421 480/1422 477/1423 473/1424
vt 0.2890625 0.359375
vt 0.265625 0.359375
vt 0.265625 0.3671875
vt 0.2890625 0.3671875
f 474/1425 473/1426 477/1427 478/1428
vt 0.3125 0.3671875
vt 0.2890625 0.3671875
vt 0.2890625 0.359375
vt 0.3125 0.359375
f 479/1429 480/1430 476/1431 475/1432
vt 0.2890625 0.3515625
vt 0.265625 0.3515625
vt 0.265625 0.359375
vt 0.2890625 0.359375
f 475/1433 476/1434 473/1435 474/1436
vt 0.3203125 0.3515625
vt 0.296875 0.3515625
vt 0.296875 0.359375
vt 0.3203125 0.359375
f 480/1437 479/1438 478/1439 477/1440
o bodyModel38
v -4.1 -1.4 -2.1
v 4.1 -1.4 -2.1
v 4.1 -12 -2.1
v -4.1 -12 -2.1
v -4.1 -1.4 2.1
v 4.1 -1.4 2.1
v 4.1 -12 2.1
v -4.1 -12 2.1
vt 0.4453125 0.2578125
vt 0.4140625 0.2578125
vt 0.4140625 0.3359375
vt 0.4453125 0.3359375
f 487/1441 483/1442 482/1443 486/1444
vt 0.3515625 0.2578125
vt 0.3203125 0.2578125
vt 0.3203125 0.3359375
vt 0.3515625 0.3359375
f 484/1445 488/1446 485/1447 481/1448
vt 0.4140625 0.3359375
vt 0.3515625 0.3359375
vt 0.3515625 0.3671875
vt 0.4140625 0.3671875
f 482/1449 481/1450 485/1451 486/1452
vt 0.4765625 0.3671875
vt 0.4140625 0.3671875
vt 0.4140625 0.3359375
vt 0.4765625 0.3359375
f 487/1453 488/1454 484/1455 483/1456
vt 0.4140625 0.2578125
vt 0.3515625 0.2578125
vt 0.3515625 0.3359375
vt 0.4140625 0.3359375
f 483/1457 484/1458 481/1459 482/1460
vt 0.5078125 0.2578125
vt 0.4453125 0.2578125
vt 0.4453125 0.3359375
vt 0.5078125 0.3359375
f 488/1461 487/1462 486/1463 485/1464
o bodyModel39
v -4.1 0.1 -2.1
v -1 0.1 -2.1
v 0 -1.4 -2.1
v -4.1 -1.4 -2.1
v -4.1 0.1 2.1
v 0 0.1 2.1
v 0 -1.4 2.1
v -4.1 -1.4 2.1
vt 0.6640625 0.3203125
vt 0.6328125 0.3203125
vt 0.6328125 0.3359375
vt 0.6640625 0.3359375
f 495/1465 491/1466 490/1467 494/1468
vt 0.6015625 0.3203125
vt 0.5703125 0.3203125
vt 0.5703125 0.3359375
vt 0.6015625 0.3359375
f 492/1469 496/1470 493/1471 489/1472
vt 0.6328125 0.3359375
vt 0.6015625 0.3359375
vt 0.6015625 0.3671875
vt 0.6328125 0.3671875
f 490/1473 489/1474 493/1475 494/1476
vt 0.6640625 0.3671875
vt 0.6328125 0.3671875
vt 0.6328125 0.3359375
vt 0.6640625 0.3359375
f 495/1477 496/1478 492/1479 491/1480
vt 0.6328125 0.3203125
vt 0.6015625 0.3203125
vt 0.6015625 0.3359375
vt 0.6328125 0.3359375
f 491/1481 492/1482 489/1483 490/1484
vt 0.6953125 0.3203125
vt 0.6640625 0.3203125
vt 0.6640625 0.3359375
vt 0.6953125 0.3359375
f 496/1485 495/1486 494/1487 493/1488
o bodyModel40
v 1 0.1 -2.1
v 4.1 0.1 -2.1
v 4.1 -1.4 -2.1
v 0 -1.4 -2.1
v 0 0.1 2.1
v 4.1 0.1 2.1
v 4.1 -1.4 2.1
v 0 -1.4 2.1
vt 0.8515625 0.3203125
vt 0.8203125 0.3203125
vt 0.8203125 0.3359375
vt 0.8515625 0.3359375
f 503/1489 499/1490 498/1491 502/1492
vt 0.7890625 0.3203125
vt 0.7578125 0.3203125
vt 0.7578125 0.3359375
vt 0.7890625 0.3359375
f 500/1493 504/1494 501/1495 497/1496
vt 0.8203125 0.3359375
vt 0.7890625 0.3359375
vt 0.7890625 0.3671875
vt 0.8203125 0.3671875
f 498/1497 497/1498 501/1499 502/1500
vt 0.8515625 0.3671875
vt 0.8203125 0.3671875
vt 0.8203125 0.3359375
vt 0.8515625 0.3359375
f 503/1501 504/1502 500/1503 499/1504
vt 0.8203125 0.3203125
vt 0.7890625 0.3203125
vt 0.7890625 0.3359375
vt 0.8203125 0.3359375
f 499/1505 500/1506 497/1507 498/1508
vt 0.8828125 0.3203125
vt 0.8515625 0.3203125
vt 0.8515625 0.3359375
vt 0.8828125 0.3359375
f 504/1509 503/1510 502/1511 501/1512
o leftArmModel0
v -1.1 2.1 -2.1
v 3.1 2.1 -2.1
v 3.1 -6.9 -2.1
v -1.1 -6.9 -2.1
v -1.1 2.1 2.1
v 3.1 2.1 2.1
v 3.1 -6.9 2.1
v -1.1 -6.9 2.1
vt 0.2890625 0.140625
vt 0.2578125 0.140625
vt 0.2578125 0.2109375
vt 0.2890625 0.2109375
f 511/1513 507/1514 506/1515 510/1516
vt 0.2265625 0.140625
vt 0.1953125 0.140625
vt 0.1953125 0.2109375
vt 0.2265625 0.2109375
f 508/1517 512/1518 509/1519 505/1520
vt 0.2578125 0.2109375
vt 0.2265625 0.2109375
vt 0.2265625 0.2421875
vt 0.2578125 0.2421875
f 506/1521 505/1522 509/1523 510/1524
vt 0.2890625 0.2421875
vt 0.2578125 0.2421875
vt 0.2578125 0.2109375
vt 0.2890625 0.2109375
f 511/1525 512/1526 508/1527 507/1528
vt 0.2578125 0.140625
vt 0.2265625 0.140625
vt 0.2265625 0.2109375
vt 0.2578125 0.2109375
f 507/1529 508/1530 505/1531 506/1532
vt 0.3203125 0.140625
vt 0.2890625 0.140625
vt 0.2890625 0.2109375
vt 0.3203125 0.2109375
f 512/1533 511/1534 510/1535 509/1536
o leftArmModel1
v -1.15 -6.5 -2.15
v 3.15 -6.5 -2.15
v 3.15 -8 -2.15
v -1.15 -8 -2.15
v -1.15 -6.5 2.15
v 3.15 -6.5 2.15
v 3.15 -8 2.15
v -1.15 -8 2.15
vt 0.1015625 0.1328125
vt 0.0703125 0.1328125
vt 0.0703125 0.1484375
vt 0.1015625 0.1484375
f 519/1537 515/1538 514/1539 518/1540
vt 0.0390625 0.1328125
vt 0.0078125 0.1328125
vt 0.0078125 0.1484375
vt 0.0390625 0.1484375
f 516/1541 520/1542 517/1543 513/1544
vt 0.0703125 0.1484375
vt 0.0390625 0.1484375
vt 0.0390625 0.1796875
vt 0.0703125 0.1796875
f 514/1545 513/1546 517/1547 518/1548
vt 0.1015625 0.1796875
vt 0.0703125 0.1796875
vt 0.0703125 0.1484375
vt 0.1015625 0.1484375
f 519/1549 520/1550 516/1551 515/1552
vt 0.0703125 0.1328125
vt 0.0390625 0.1328125
vt 0.0390625 0.1484375
vt 0.0703125 0.1484375
f 515/1553 516/1554 513/1555 514/1556
vt 0.1328125 0.1328125
vt 0.1015625 0.1328125
vt 0.1015625 0.1484375
vt 0.1328125 0.1484375
f 520/1557 519/1558 518/1559 517/1560
o rightArmModel0
v -3.1 2.1 -2.1
v 1.1 2.1 -2.1
v 1.1 -6.9 -2.1
v -3.1 -6.9 -2.1
v -3.1 2.1 2.1
v 1.1 2.1 2.1
v 1.1 -6.9 2.1
v -3.1 -6.9 2.1
vt 0.1015625 0.203125
vt 0.0703125 0.203125
vt 0.0703125 0.2734375
vt 0.1015625 0.2734375
f 527/1561 523/1562 522/1563 526/1564
vt 0.0390625 0.203125
vt 0.0078125 0.203125
vt 0.0078125 0.2734375
vt 0.0390625 0.2734375
f 524/1565 528/1566 525/1567 521/1568
vt 0.0703125 0.2734375
vt 0.0390625 0.2734375
vt 0.0390625 0.3046875
vt 0.0703125 0.3046875
f 522/1569 521/1570 525/1571 526/1572
vt 0.1015625 0.3046875
vt 0.0703125 0.3046875
vt 0.0703125 0.2734375
vt 0.1015625 0.2734375
f 527/1573 528/1574 524/1575 523/1576
vt 0.0703125 0.203125
vt 0.0390625 0.203125
vt 0.0390625 0.2734375
vt 0.0703125 0.2734375
f 523/1577 524/1578 521/1579 522/1580
vt 0.1328125 0.203125
vt 0.1015625 0.203125
vt 0.1015625 0.2734375
vt 0.1328125 0.2734375
f 528/1581 527/1582 526/1583 525/1584
o rightArmModel1
v -3.15 -6.5 -2.15
v 1.15 -6.5 -2.15
v 1.15 -8 -2.15
v -3.15 -8 -2.15
v -3.15 -6.5 2.15
v 1.15 -6.5 2.15
v 1.15 -8 2.15
v -3.15 -8 2.15
vt 0.4765625 0.1953125
vt 0.4453125 0.1953125
vt 0.4453125 0.2109375
vt 0.4765625 0.2109375
f 535/1585 531/1586 530/1587 534/1588
vt 0.4140625 0.1953125
vt 0.3828125 0.1953125
vt 0.3828125 0.2109375
vt 0.4140625 0.2109375
f 532/1589 536/1590 533/1591 529/1592
vt 0.4453125 0.2109375
vt 0.4140625 0.2109375
vt 0.4140625 0.2421875
vt 0.4453125 0.2421875
f 530/1593 529/1594 533/1595 534/1596
vt 0.4765625 0.2421875
vt 0.4453125 0.2421875
vt 0.4453125 0.2109375
vt 0.4765625 0.2109375
f 535/1597 536/1598 532/1599 531/1600
vt 0.4453125 0.1953125
vt 0.4140625 0.1953125
vt 0.4140625 0.2109375
vt 0.4453125 0.2109375
f 531/1601 532/1602 529/1603 530/1604
vt 0.5078125 0.1953125
vt 0.4765625 0.1953125
vt 0.4765625 0.2109375
vt 0.5078125 0.2109375
f 536/1605 535/1606 534/1607 533/1608
o leftBootModel0
v -2.4 -7 -2.3
v 2.4 -7 -2.3
v 2.4 -12 -2.3
v -2.4 -12 -2.3
v -2.4 -7 2.3
v 2.4 -7 2.3
v 2.4 -12 2.3
v -2.4 -12 2.3
vt 0.3046875 0.6640625
vt 0.265625 0.6640625
vt 0.265625 0.703125
vt 0.3046875 0.703125
f 543/1609 539/1610 538/1611 542/1612
vt 0.234375 0.6640625
vt 0.1953125 0.6640625
vt 0.1953125 0.703125
vt 0.234375 0.703125
f 540/1613 544/1614 541/1615 537/1616
vt 0.265625 0.703125
vt 0.234375 0.703125
vt 0.234375 0.7421875
vt 0.265625 0.7421875
f 538/1617 537/1618 541/1619 542/1620
vt 0.296875 0.7421875
vt 0.265625 0.7421875
vt 0.265625 0.703125
vt 0.296875 0.703125
f 543/1621 544/1622 540/1623 539/1624
vt 0.265625 0.6640625
vt 0.234375 0.6640625
vt 0.234375 0.703125
vt 0.265625 0.703125
f 539/1625 540/1626 537/1627 538/1628
vt 0.3359375 0.6640625
vt 0.3046875 0.6640625
vt 0.3046875 0.703125
vt 0.3359375 0.703125
f 544/1629 543/1630 542/1631 541/1632
o leftLegModel1
v -2.1 0.1 -2.1
v 2.1 0.1 -2.1
v 2.1 -5.9 -2.1
v -2.1 -5.9 -2.1
v -2.1 0.1 2.1
v 2.1 0.1 2.1
v 2.1 -5.9 2.1
v -2.1 -5.9 2.1
vt 0.8515625 0.2265625
vt 0.8203125 0.2265625
vt 0.8203125 0.2734375
vt 0.8515625 0.2734375
f 551/1633 547/1634 546/1635 550/1636
vt 0.7890625 0.2265625
vt 0.7578125 0.2265625
vt 0.7578125 0.2734375
vt 0.7890625 0.2734375
f 548/1637 552/1638 549/1639 545/1640
vt 0.8203125 0.2734375
vt 0.7890625 0.2734375
vt 0.7890625 0.3046875
vt 0.8203125 0.3046875
f 546/1641 545/1642 549/1643 550/1644
vt 0.8515625 0.3046875
vt 0.8203125 0.3046875
vt 0.8203125 0.2734375
vt 0.8515625 0.2734375
f 551/1645 552/1646 548/1647 547/1648
vt 0.8203125 0.2265625
vt 0.7890625 0.2265625
vt 0.7890625 0.2734375
vt 0.8203125 0.2734375
f 547/1649 548/1650 545/1651 546/1652
vt 0.8828125 0.2265625
vt 0.8515625 0.2265625
vt 0.8515625 0.2734375
vt 0.8828125 0.2734375
f 552/1653 551/1654 550/1655 549/1656
o leftLegModel2
v -2.1 -5.9 -2.1
v 2.1 -5.9 -2.1
v 2.1 -9.9 -2.1
v -2.1 -9.9 -2.1
v -2.1 -5.9 2.1
v 2.1 -5.9 2.1
v 2.1 -9.9 2.1
v -2.1 -9.9 2.1
vt 0.8515625 0.2421875
vt 0.8203125 0.2421875
vt 0.8203125 0.2734375
vt 0.8515625 0.2734375
f 559/1657 555/1658 554/1659 558/1660
vt 0.7890625 0.2421875
vt 0.7578125 0.2421875
vt 0.7578125 0.2734375
vt 0.7890625 0.2734375
f 556/1661 560/1662 557/1663 553/1664
vt 0.8203125 0.2734375
vt 0.7890625 0.2734375
vt 0.7890625 0.3046875
vt 0.8203125 0.3046875
f 554/1665 553/1666 557/1667 558/1668
vt 0.8515625 0.3046875
vt 0.8203125 0.3046875
vt 0.8203125 0.2734375
vt 0.8515625 0.2734375
f 559/1669 560/1670 556/1671 555/1672
vt 0.8203125 0.2421875
vt 0.7890625 0.2421875
vt 0.7890625 0.2734375
vt 0.8203125 0.2734375
f 555/1673 556/1674 553/1675 554/1676
vt 0.8828125 0.2421875
vt 0.8515625 0.2421875
vt 0.8515625 0.2734375
vt 0.8828125 0.2734375
f 560/1677 559/1678 558/1679 557/1680
o rightBootModel0
v -2.4 -7 -2.3
v 2.4 -7 -2.3
v 2.4 -12 -2.3
v -2.4 -12 -2.3
v -2.4 -7 2.3
v 2.4 -7 2.3
v 2.4 -12 2.3
v -2.4 -12 2.3
vt 0.4921875 0.6640625
vt 0.453125 0.6640625
vt 0.453125 0.703125
vt 0.4921875 0.703125
f 567/1681 563/1682 562/1683 566/1684
vt 0.421875 0.6640625
vt 0.3828125 0.6640625
vt 0.3828125 0.703125
vt 0.421875 0.703125
f 564/1685 568/1686 565/1687 561/1688
vt 0.453125 0.703125
vt 0.421875 0.703125
vt 0.421875 0.7421875
vt 0.453125 0.7421875
f 562/1689 561/1690 565/1691 566/1692
vt 0.484375 0.7421875
vt 0.453125 0.7421875
vt 0.453125 0.703125
vt 0.484375 0.703125
f 567/1693 568/1694 564/1695 563/1696
vt 0.453125 0.6640625
vt 0.421875 0.6640625
vt 0.421875 0.703125
vt 0.453125 0.703125
f 563/1697 564/1698 561/1699 562/1700
vt 0.5234375 0.6640625
vt 0.4921875 0.6640625
vt 0.4921875 0.703125
vt 0.5234375 0.703125
f 568/1701 567/1702 566/1703 565/1704
o rightLegModel1
v -2.1 0.1 -2.1
v 2.1 0.1 -2.1
v 2.1 -5.9 -2.1
v -2.1 -5.9 -2.1
v -2.1 0.1 2.1
v 2.1 0.1 2.1
v 2.1 -5.9 2.1
v -2.1 -5.9 2.1
vt 0.6640625 0.2265625
vt 0.6328125 0.2265625
vt 0.6328125 0.2734375
vt 0.6640625 0.2734375
f 575/1705 571/1706 570/1707 574/1708
vt 0.6015625 0.2265625
vt 0.5703125 0.2265625
vt 0.5703125 0.2734375
vt 0.6015625 0.2734375
f 572/1709 576/1710 573/1711 569/1712
vt 0.6328125 0.2734375
vt 0.6015625 0.2734375
vt 0.6015625 0.3046875
vt 0.6328125 0.3046875
f 570/1713 569/1714 573/1715 574/1716
vt 0.6640625 0.3046875
vt 0.6328125 0.3046875
vt 0.6328125 0.2734375
vt 0.6640625 0.2734375
f 575/1717 576/1718 572/1719 571/1720
vt 0.6328125 0.2265625
vt 0.6015625 0.2265625
vt 0.6015625 0.2734375
vt 0.6328125 0.2734375
f 571/1721 572/1722 569/1723 570/1724
vt 0.6953125 0.2265625
vt 0.6640625 0.2265625
vt 0.6640625 0.2734375
vt 0.6953125 0.2734375
f 576/1725 575/1726 574/1727 573/1728
o rightLegModel2
v -2.1 -5.9 -2.1
v 2.1 -5.9 -2.1
v 2.1 -9.9 -2.1
v -2.1 -9.9 -2.1
v -2.1 -5.9 2.1
v 2.1 -5.9 2.1
v 2.1 -9.9 2.1
v -2.1 -9.9 2.1
vt 0.6640625 0.2421875
vt 0.6328125 0.2421875
vt 0.6328125 0.2734375
vt 0.6640625 0.2734375
f 583/1729 579/1730 578/1731 582/1732
vt 0.6015625 0.2421875
vt 0.5703125 0.2421875
vt 0.5703125 0.2734375
vt 0.6015625 0.2734375
f 580/1733 584/1734 581/1735 577/1736
vt 0.6328125 0.2734375
vt 0.6015625 0.2734375
vt 0.6015625 0.3046875
vt 0.6328125 0.3046875
f 578/1737 577/1738 581/1739 582/1740
vt 0.6640625 0.3046875
vt 0.6328125 0.3046875
vt 0.6328125 0.2734375
vt 0.6640625 0.2734375
f 583/1741 584/1742 580/1743 579/1744
vt 0.6328125 0.2421875
vt 0.6015625 0.2421875
vt 0.6015625 0.2734375
vt 0.6328125 0.2734375
f 579/1745 580/1746 577/1747 578/1748
vt 0.6953125 0.2421875
vt 0.6640625 0.2421875
vt 0.6640625 0.2734375
vt 0.6953125 0.2734375
f 584/1749 583/1750 582/1751 581/1752
