# Converted from Decimation Beardie model: waterpallettarp.bmodel
# Coordinates retain the original Beardie model units.
mtllib waterpallettarp.mtl
usemtl waterpallettarp_material
o yourclassnameModel0
v -8.1 0.75 -8.15
v -5.9 0.75 -8.15
v -5.9 0.05 -8.15
v -8.1 0.05 -8.15
v -8.1 0.75 8.15
v -5.9 0.75 8.15
v -5.9 0.05 8.15
v -8.1 0.05 8.15
vt 0.13671875 0.859375
vt 0.07421875 0.859375
vt 0.07421875 0.8671875
vt 0.13671875 0.8671875
f 7/1 3/2 2/3 6/4
vt 0.06640625 0.859375
vt 0.00390625 0.859375
vt 0.00390625 0.8671875
vt 0.06640625 0.8671875
f 4/5 8/6 5/7 1/8
vt 0.07421875 0.8671875
vt 0.06640625 0.8671875
vt 0.06640625 0.9921875
vt 0.07421875 0.9921875
f 2/9 1/10 5/11 6/12
vt 0.08203125 0.9921875
vt 0.07421875 0.9921875
vt 0.07421875 0.8671875
vt 0.08203125 0.8671875
f 7/13 8/14 4/15 3/16
vt 0.07421875 0.859375
vt 0.06640625 0.859375
vt 0.06640625 0.8671875
vt 0.07421875 0.8671875
f 3/17 4/18 1/19 2/20
vt 0.14453125 0.859375
vt 0.13671875 0.859375
vt 0.13671875 0.8671875
vt 0.14453125 0.8671875
f 8/21 7/22 6/23 5/24
o yourclassnameModel1
v -8.1 3.45 -8.15
v -5.9 3.45 -8.15
v -5.9 2.75 -8.15
v -8.1 2.75 -8.15
v -8.1 3.45 8.15
v -5.9 3.45 8.15
v -5.9 2.75 8.15
v -8.1 2.75 8.15
vt 0.29296875 0.859375
vt 0.23046875 0.859375
vt 0.23046875 0.8671875
vt 0.29296875 0.8671875
f 15/25 11/26 10/27 14/28
vt 0.22265625 0.859375
vt 0.16015625 0.859375
vt 0.16015625 0.8671875
vt 0.22265625 0.8671875
f 12/29 16/30 13/31 9/32
vt 0.23046875 0.8671875
vt 0.22265625 0.8671875
vt 0.22265625 0.9921875
vt 0.23046875 0.9921875
f 10/33 9/34 13/35 14/36
vt 0.23828125 0.9921875
vt 0.23046875 0.9921875
vt 0.23046875 0.8671875
vt 0.23828125 0.8671875
f 15/37 16/38 12/39 11/40
vt 0.23046875 0.859375
vt 0.22265625 0.859375
vt 0.22265625 0.8671875
vt 0.23046875 0.8671875
f 11/41 12/42 9/43 10/44
vt 0.30078125 0.859375
vt 0.29296875 0.859375
vt 0.29296875 0.8671875
vt 0.30078125 0.8671875
f 16/45 15/46 14/47 13/48
o yourclassnameModel2
v -8.1 2.75 -8.1
v -5.9 2.75 -8.1
v -5.9 0.75 -8.1
v -8.1 0.75 -8.1
v -8.1 2.75 -5.9
v -5.9 2.75 -5.9
v -5.9 0.75 -5.9
v -8.1 0.75 -5.9
vt 0.02734375 0.9609375
vt 0.01953125 0.9609375
vt 0.01953125 0.9765625
vt 0.02734375 0.9765625
f 23/49 19/50 18/51 22/52
vt 0.01171875 0.9609375
vt 0.00390625 0.9609375
vt 0.00390625 0.9765625
vt 0.01171875 0.9765625
f 20/53 24/54 21/55 17/56
vt 0.01953125 0.9765625
vt 0.01171875 0.9765625
vt 0.01171875 0.9921875
vt 0.01953125 0.9921875
f 18/57 17/58 21/59 22/60
vt 0.02734375 0.9921875
vt 0.01953125 0.9921875
vt 0.01953125 0.9765625
vt 0.02734375 0.9765625
f 23/61 24/62 20/63 19/64
vt 0.01953125 0.9609375
vt 0.01171875 0.9609375
vt 0.01171875 0.9765625
vt 0.01953125 0.9765625
f 19/65 20/66 17/67 18/68
vt 0.03515625 0.9609375
vt 0.02734375 0.9609375
vt 0.02734375 0.9765625
vt 0.03515625 0.9765625
f 24/69 23/70 22/71 21/72
o yourclassnameModel3
v -8.1 2.75 5.9
v -5.9 2.75 5.9
v -5.9 0.75 5.9
v -8.1 0.75 5.9
v -8.1 2.75 8.1
v -5.9 2.75 8.1
v -5.9 0.75 8.1
v -8.1 0.75 8.1
vt 0.12109375 0.9609375
vt 0.11328125 0.9609375
vt 0.11328125 0.9765625
vt 0.12109375 0.9765625
f 31/73 27/74 26/75 30/76
vt 0.10546875 0.9609375
vt 0.09765625 0.9609375
vt 0.09765625 0.9765625
vt 0.10546875 0.9765625
f 28/77 32/78 29/79 25/80
vt 0.11328125 0.9765625
vt 0.10546875 0.9765625
vt 0.10546875 0.9921875
vt 0.11328125 0.9921875
f 26/81 25/82 29/83 30/84
vt 0.12109375 0.9921875
vt 0.11328125 0.9921875
vt 0.11328125 0.9765625
vt 0.12109375 0.9765625
f 31/85 32/86 28/87 27/88
vt 0.11328125 0.9609375
vt 0.10546875 0.9609375
vt 0.10546875 0.9765625
vt 0.11328125 0.9765625
f 27/89 28/90 25/91 26/92
vt 0.12890625 0.9609375
vt 0.12109375 0.9609375
vt 0.12109375 0.9765625
vt 0.12890625 0.9765625
f 32/93 31/94 30/95 29/96
o yourclassnameModel4
v 5.9 2.75 5.9
v 8.1 2.75 5.9
v 8.1 0.75 5.9
v 5.9 0.75 5.9
v 5.9 2.75 8.1
v 8.1 2.75 8.1
v 8.1 0.75 8.1
v 5.9 0.75 8.1
vt 0.18359375 0.9609375
vt 0.17578125 0.9609375
vt 0.17578125 0.9765625
vt 0.18359375 0.9765625
f 39/97 35/98 34/99 38/100
vt 0.16796875 0.9609375
vt 0.16015625 0.9609375
vt 0.16015625 0.9765625
vt 0.16796875 0.9765625
f 36/101 40/102 37/103 33/104
vt 0.17578125 0.9765625
vt 0.16796875 0.9765625
vt 0.16796875 0.9921875
vt 0.17578125 0.9921875
f 34/105 33/106 37/107 38/108
vt 0.18359375 0.9921875
vt 0.17578125 0.9921875
vt 0.17578125 0.9765625
vt 0.18359375 0.9765625
f 39/109 40/110 36/111 35/112
vt 0.17578125 0.9609375
vt 0.16796875 0.9609375
vt 0.16796875 0.9765625
vt 0.17578125 0.9765625
f 35/113 36/114 33/115 34/116
vt 0.19140625 0.9609375
vt 0.18359375 0.9609375
vt 0.18359375 0.9765625
vt 0.19140625 0.9765625
f 40/117 39/118 38/119 37/120
o yourclassnameModel5
v 5.9 2.75 -8.1
v 8.1 2.75 -8.1
v 8.1 0.75 -8.1
v 5.9 0.75 -8.1
v 5.9 2.75 -5.9
v 8.1 2.75 -5.9
v 8.1 0.75 -5.9
v 5.9 0.75 -5.9
vt 0.27734375 0.9609375
vt 0.26953125 0.9609375
vt 0.26953125 0.9765625
vt 0.27734375 0.9765625
f 47/121 43/122 42/123 46/124
vt 0.26171875 0.9609375
vt 0.25390625 0.9609375
vt 0.25390625 0.9765625
vt 0.26171875 0.9765625
f 44/125 48/126 45/127 41/128
vt 0.26953125 0.9765625
vt 0.26171875 0.9765625
vt 0.26171875 0.9921875
vt 0.26953125 0.9921875
f 42/129 41/130 45/131 46/132
vt 0.27734375 0.9921875
vt 0.26953125 0.9921875
vt 0.26953125 0.9765625
vt 0.27734375 0.9765625
f 47/133 48/134 44/135 43/136
vt 0.26953125 0.9609375
vt 0.26171875 0.9609375
vt 0.26171875 0.9765625
vt 0.26953125 0.9765625
f 43/137 44/138 41/139 42/140
vt 0.28515625 0.9609375
vt 0.27734375 0.9609375
vt 0.27734375 0.9765625
vt 0.28515625 0.9765625
f 48/141 47/142 46/143 45/144
o yourclassnameModel6
v -0.5 2.75 -8
v 0.5 2.75 -8
v 0.5 0.75 -8
v -0.5 0.75 -8
v -0.5 2.75 -7
v 0.5 2.75 -7
v 0.5 0.75 -7
v -0.5 0.75 -7
vt 0.328125 0.96875
vt 0.32421875 0.96875
vt 0.32421875 0.984375
vt 0.328125 0.984375
f 55/145 51/146 50/147 54/148
vt 0.3203125 0.96875
vt 0.31640625 0.96875
vt 0.31640625 0.984375
vt 0.3203125 0.984375
f 52/149 56/150 53/151 49/152
vt 0.32421875 0.984375
vt 0.3203125 0.984375
vt 0.3203125 0.9921875
vt 0.32421875 0.9921875
f 50/153 49/154 53/155 54/156
vt 0.328125 0.9921875
vt 0.32421875 0.9921875
vt 0.32421875 0.984375
vt 0.328125 0.984375
f 55/157 56/158 52/159 51/160
vt 0.32421875 0.96875
vt 0.3203125 0.96875
vt 0.3203125 0.984375
vt 0.32421875 0.984375
f 51/161 52/162 49/163 50/164
vt 0.33203125 0.96875
vt 0.328125 0.96875
vt 0.328125 0.984375
vt 0.33203125 0.984375
f 56/165 55/166 54/167 53/168
o yourclassnameModel7
v -8 2.75 -0.5
v -7 2.75 -0.5
v -7 0.75 -0.5
v -8 0.75 -0.5
v -8 2.75 0.5
v -7 2.75 0.5
v -7 0.75 0.5
v -8 0.75 0.5
vt 0.359375 0.96875
vt 0.35546875 0.96875
vt 0.35546875 0.984375
vt 0.359375 0.984375
f 63/169 59/170 58/171 62/172
vt 0.3515625 0.96875
vt 0.34765625 0.96875
vt 0.34765625 0.984375
vt 0.3515625 0.984375
f 60/173 64/174 61/175 57/176
vt 0.35546875 0.984375
vt 0.3515625 0.984375
vt 0.3515625 0.9921875
vt 0.35546875 0.9921875
f 58/177 57/178 61/179 62/180
vt 0.359375 0.9921875
vt 0.35546875 0.9921875
vt 0.35546875 0.984375
vt 0.359375 0.984375
f 63/181 64/182 60/183 59/184
vt 0.35546875 0.96875
vt 0.3515625 0.96875
vt 0.3515625 0.984375
vt 0.35546875 0.984375
f 59/185 60/186 57/187 58/188
vt 0.36328125 0.96875
vt 0.359375 0.96875
vt 0.359375 0.984375
vt 0.36328125 0.984375
f 64/189 63/190 62/191 61/192
o yourclassnameModel8
v -0.5 2.75 7
v 0.5 2.75 7
v 0.5 0.75 7
v -0.5 0.75 7
v -0.5 2.75 8
v 0.5 2.75 8
v 0.5 0.75 8
v -0.5 0.75 8
vt 0.390625 0.96875
vt 0.38671875 0.96875
vt 0.38671875 0.984375
vt 0.390625 0.984375
f 71/193 67/194 66/195 70/196
vt 0.3828125 0.96875
vt 0.37890625 0.96875
vt 0.37890625 0.984375
vt 0.3828125 0.984375
f 68/197 72/198 69/199 65/200
vt 0.38671875 0.984375
vt 0.3828125 0.984375
vt 0.3828125 0.9921875
vt 0.38671875 0.9921875
f 66/201 65/202 69/203 70/204
vt 0.390625 0.9921875
vt 0.38671875 0.9921875
vt 0.38671875 0.984375
vt 0.390625 0.984375
f 71/205 72/206 68/207 67/208
vt 0.38671875 0.96875
vt 0.3828125 0.96875
vt 0.3828125 0.984375
vt 0.38671875 0.984375
f 67/209 68/210 65/211 66/212
vt 0.39453125 0.96875
vt 0.390625 0.96875
vt 0.390625 0.984375
vt 0.39453125 0.984375
f 72/213 71/214 70/215 69/216
o yourclassnameModel9
v 7 2.75 -0.5
v 8 2.75 -0.5
v 8 0.75 -0.5
v 7 0.75 -0.5
v 7 2.75 0.5
v 8 2.75 0.5
v 8 0.75 0.5
v 7 0.75 0.5
vt 0.421875 0.96875
vt 0.41796875 0.96875
vt 0.41796875 0.984375
vt 0.421875 0.984375
f 79/217 75/218 74/219 78/220
vt 0.4140625 0.96875
vt 0.41015625 0.96875
vt 0.41015625 0.984375
vt 0.4140625 0.984375
f 76/221 80/222 77/223 73/224
vt 0.41796875 0.984375
vt 0.4140625 0.984375
vt 0.4140625 0.9921875
vt 0.41796875 0.9921875
f 74/225 73/226 77/227 78/228
vt 0.421875 0.9921875
vt 0.41796875 0.9921875
vt 0.41796875 0.984375
vt 0.421875 0.984375
f 79/229 80/230 76/231 75/232
vt 0.41796875 0.96875
vt 0.4140625 0.96875
vt 0.4140625 0.984375
vt 0.41796875 0.984375
f 75/233 76/234 73/235 74/236
vt 0.42578125 0.96875
vt 0.421875 0.96875
vt 0.421875 0.984375
vt 0.42578125 0.984375
f 80/237 79/238 78/239 77/240
o yourclassnameModel10
v -5.75 3.45 -8.15
v -3.55 3.45 -8.15
v -3.55 2.75 -8.15
v -5.75 2.75 -8.15
v -5.75 3.45 8.15
v -3.55 3.45 8.15
v -3.55 2.75 8.15
v -5.75 2.75 8.15
vt 0.51171875 0.859375
vt 0.44921875 0.859375
vt 0.44921875 0.8671875
vt 0.51171875 0.8671875
f 87/241 83/242 82/243 86/244
vt 0.44140625 0.859375
vt 0.37890625 0.859375
vt 0.37890625 0.8671875
vt 0.44140625 0.8671875
f 84/245 88/246 85/247 81/248
vt 0.44921875 0.8671875
vt 0.44140625 0.8671875
vt 0.44140625 0.9921875
vt 0.44921875 0.9921875
f 82/249 81/250 85/251 86/252
vt 0.45703125 0.9921875
vt 0.44921875 0.9921875
vt 0.44921875 0.8671875
vt 0.45703125 0.8671875
f 87/253 88/254 84/255 83/256
vt 0.44921875 0.859375
vt 0.44140625 0.859375
vt 0.44140625 0.8671875
vt 0.44921875 0.8671875
f 83/257 84/258 81/259 82/260
vt 0.51953125 0.859375
vt 0.51171875 0.859375
vt 0.51171875 0.8671875
vt 0.51953125 0.8671875
f 88/261 87/262 86/263 85/264
o yourclassnameModel11
v -5.75 0.75 -8.15
v -3.55 0.75 -8.15
v -3.55 0.05 -8.15
v -5.75 0.05 -8.15
v -5.75 0.75 8.15
v -3.55 0.75 8.15
v -3.55 0.05 8.15
v -5.75 0.05 8.15
vt 0.66796875 0.859375
vt 0.60546875 0.859375
vt 0.60546875 0.8671875
vt 0.66796875 0.8671875
f 95/265 91/266 90/267 94/268
vt 0.59765625 0.859375
vt 0.53515625 0.859375
vt 0.53515625 0.8671875
vt 0.59765625 0.8671875
f 92/269 96/270 93/271 89/272
vt 0.60546875 0.8671875
vt 0.59765625 0.8671875
vt 0.59765625 0.9921875
vt 0.60546875 0.9921875
f 90/273 89/274 93/275 94/276
vt 0.61328125 0.9921875
vt 0.60546875 0.9921875
vt 0.60546875 0.8671875
vt 0.61328125 0.8671875
f 95/277 96/278 92/279 91/280
vt 0.60546875 0.859375
vt 0.59765625 0.859375
vt 0.59765625 0.8671875
vt 0.60546875 0.8671875
f 91/281 92/282 89/283 90/284
vt 0.67578125 0.859375
vt 0.66796875 0.859375
vt 0.66796875 0.8671875
vt 0.67578125 0.8671875
f 96/285 95/286 94/287 93/288
o yourclassnameModel12
v -1.1 3.45 -8.15
v 1.1 3.45 -8.15
v 1.1 2.75 -8.15
v -1.1 2.75 -8.15
v -1.1 3.45 8.15
v 1.1 3.45 8.15
v 1.1 2.75 8.15
v -1.1 2.75 8.15
vt 0.82421875 0.859375
vt 0.76171875 0.859375
vt 0.76171875 0.8671875
vt 0.82421875 0.8671875
f 103/289 99/290 98/291 102/292
vt 0.75390625 0.859375
vt 0.69140625 0.859375
vt 0.69140625 0.8671875
vt 0.75390625 0.8671875
f 100/293 104/294 101/295 97/296
vt 0.76171875 0.8671875
vt 0.75390625 0.8671875
vt 0.75390625 0.9921875
vt 0.76171875 0.9921875
f 98/297 97/298 101/299 102/300
vt 0.76953125 0.9921875
vt 0.76171875 0.9921875
vt 0.76171875 0.8671875
vt 0.76953125 0.8671875
f 103/301 104/302 100/303 99/304
vt 0.76171875 0.859375
vt 0.75390625 0.859375
vt 0.75390625 0.8671875
vt 0.76171875 0.8671875
f 99/305 100/306 97/307 98/308
vt 0.83203125 0.859375
vt 0.82421875 0.859375
vt 0.82421875 0.8671875
vt 0.83203125 0.8671875
f 104/309 103/310 102/311 101/312
o yourclassnameModel13
v -1.1 0.75 -8.15
v 1.1 0.75 -8.15
v 1.1 0.05 -8.15
v -1.1 0.05 -8.15
v -1.1 0.75 8.15
v 1.1 0.75 8.15
v 1.1 0.05 8.15
v -1.1 0.05 8.15
vt 0.98046875 0.859375
vt 0.91796875 0.859375
vt 0.91796875 0.8671875
vt 0.98046875 0.8671875
f 111/313 107/314 106/315 110/316
vt 0.91015625 0.859375
vt 0.84765625 0.859375
vt 0.84765625 0.8671875
vt 0.91015625 0.8671875
f 108/317 112/318 109/319 105/320
vt 0.91796875 0.8671875
vt 0.91015625 0.8671875
vt 0.91015625 0.9921875
vt 0.91796875 0.9921875
f 106/321 105/322 109/323 110/324
vt 0.92578125 0.9921875
vt 0.91796875 0.9921875
vt 0.91796875 0.8671875
vt 0.92578125 0.8671875
f 111/325 112/326 108/327 107/328
vt 0.91796875 0.859375
vt 0.91015625 0.859375
vt 0.91015625 0.8671875
vt 0.91796875 0.8671875
f 107/329 108/330 105/331 106/332
vt 0.98828125 0.859375
vt 0.98046875 0.859375
vt 0.98046875 0.8671875
vt 0.98828125 0.8671875
f 112/333 111/334 110/335 109/336
o yourclassnameModel14
v -3.4 3.45 -8.15
v -1.2 3.45 -8.15
v -1.2 2.75 -8.15
v -3.4 2.75 -8.15
v -3.4 3.45 8.15
v -1.2 3.45 8.15
v -1.2 2.75 8.15
v -3.4 2.75 8.15
vt 0.38671875 0.796875
vt 0.32421875 0.796875
vt 0.32421875 0.8046875
vt 0.38671875 0.8046875
f 119/337 115/338 114/339 118/340
vt 0.31640625 0.796875
vt 0.25390625 0.796875
vt 0.25390625 0.8046875
vt 0.31640625 0.8046875
f 116/341 120/342 117/343 113/344
vt 0.32421875 0.8046875
vt 0.31640625 0.8046875
vt 0.31640625 0.9296875
vt 0.32421875 0.9296875
f 114/345 113/346 117/347 118/348
vt 0.33203125 0.9296875
vt 0.32421875 0.9296875
vt 0.32421875 0.8046875
vt 0.33203125 0.8046875
f 119/349 120/350 116/351 115/352
vt 0.32421875 0.796875
vt 0.31640625 0.796875
vt 0.31640625 0.8046875
vt 0.32421875 0.8046875
f 115/353 116/354 113/355 114/356
vt 0.39453125 0.796875
vt 0.38671875 0.796875
vt 0.38671875 0.8046875
vt 0.39453125 0.8046875
f 120/357 119/358 118/359 117/360
o yourclassnameModel15
v -3.4 0.75 -8.15
v -1.2 0.75 -8.15
v -1.2 0.05 -8.15
v -3.4 0.05 -8.15
v -3.4 0.75 8.15
v -1.2 0.75 8.15
v -1.2 0.05 8.15
v -3.4 0.05 8.15
vt 0.13671875 0.671875
vt 0.07421875 0.671875
vt 0.07421875 0.6796875
vt 0.13671875 0.6796875
f 127/361 123/362 122/363 126/364
vt 0.06640625 0.671875
vt 0.00390625 0.671875
vt 0.00390625 0.6796875
vt 0.06640625 0.6796875
f 124/365 128/366 125/367 121/368
vt 0.07421875 0.6796875
vt 0.06640625 0.6796875
vt 0.06640625 0.8046875
vt 0.07421875 0.8046875
f 122/369 121/370 125/371 126/372
vt 0.08203125 0.8046875
vt 0.07421875 0.8046875
vt 0.07421875 0.6796875
vt 0.08203125 0.6796875
f 127/373 128/374 124/375 123/376
vt 0.07421875 0.671875
vt 0.06640625 0.671875
vt 0.06640625 0.6796875
vt 0.07421875 0.6796875
f 123/377 124/378 121/379 122/380
vt 0.14453125 0.671875
vt 0.13671875 0.671875
vt 0.13671875 0.6796875
vt 0.14453125 0.6796875
f 128/381 127/382 126/383 125/384
o yourclassnameModel16
v 5.9 3.45 -8.15
v 8.1 3.45 -8.15
v 8.1 2.75 -8.15
v 5.9 2.75 -8.15
v 5.9 3.45 8.15
v 8.1 3.45 8.15
v 8.1 2.75 8.15
v 5.9 2.75 8.15
vt 0.29296875 0.671875
vt 0.23046875 0.671875
vt 0.23046875 0.6796875
vt 0.29296875 0.6796875
f 135/385 131/386 130/387 134/388
vt 0.22265625 0.671875
vt 0.16015625 0.671875
vt 0.16015625 0.6796875
vt 0.22265625 0.6796875
f 132/389 136/390 133/391 129/392
vt 0.23046875 0.6796875
vt 0.22265625 0.6796875
vt 0.22265625 0.8046875
vt 0.23046875 0.8046875
f 130/393 129/394 133/395 134/396
vt 0.23828125 0.8046875
vt 0.23046875 0.8046875
vt 0.23046875 0.6796875
vt 0.23828125 0.6796875
f 135/397 136/398 132/399 131/400
vt 0.23046875 0.671875
vt 0.22265625 0.671875
vt 0.22265625 0.6796875
vt 0.23046875 0.6796875
f 131/401 132/402 129/403 130/404
vt 0.30078125 0.671875
vt 0.29296875 0.671875
vt 0.29296875 0.6796875
vt 0.30078125 0.6796875
f 136/405 135/406 134/407 133/408
o yourclassnameModel17
v 3.55 3.45 -8.15
v 5.75 3.45 -8.15
v 5.75 2.75 -8.15
v 3.55 2.75 -8.15
v 3.55 3.45 8.15
v 5.75 3.45 8.15
v 5.75 2.75 8.15
v 3.55 2.75 8.15
vt 0.48046875 0.671875
vt 0.41796875 0.671875
vt 0.41796875 0.6796875
vt 0.48046875 0.6796875
f 143/409 139/410 138/411 142/412
vt 0.41015625 0.671875
vt 0.34765625 0.671875
vt 0.34765625 0.6796875
vt 0.41015625 0.6796875
f 140/413 144/414 141/415 137/416
vt 0.41796875 0.6796875
vt 0.41015625 0.6796875
vt 0.41015625 0.8046875
vt 0.41796875 0.8046875
f 138/417 137/418 141/419 142/420
vt 0.42578125 0.8046875
vt 0.41796875 0.8046875
vt 0.41796875 0.6796875
vt 0.42578125 0.6796875
f 143/421 144/422 140/423 139/424
vt 0.41796875 0.671875
vt 0.41015625 0.671875
vt 0.41015625 0.6796875
vt 0.41796875 0.6796875
f 139/425 140/426 137/427 138/428
vt 0.48828125 0.671875
vt 0.48046875 0.671875
vt 0.48046875 0.6796875
vt 0.48828125 0.6796875
f 144/429 143/430 142/431 141/432
o yourclassnameModel18
v 1.2 3.45 -8.15
v 3.4 3.45 -8.15
v 3.4 2.75 -8.15
v 1.2 2.75 -8.15
v 1.2 3.45 8.15
v 3.4 3.45 8.15
v 3.4 2.75 8.15
v 1.2 2.75 8.15
vt 0.63671875 0.671875
vt 0.57421875 0.671875
vt 0.57421875 0.6796875
vt 0.63671875 0.6796875
f 151/433 147/434 146/435 150/436
vt 0.56640625 0.671875
vt 0.50390625 0.671875
vt 0.50390625 0.6796875
vt 0.56640625 0.6796875
f 148/437 152/438 149/439 145/440
vt 0.57421875 0.6796875
vt 0.56640625 0.6796875
vt 0.56640625 0.8046875
vt 0.57421875 0.8046875
f 146/441 145/442 149/443 150/444
vt 0.58203125 0.8046875
vt 0.57421875 0.8046875
vt 0.57421875 0.6796875
vt 0.58203125 0.6796875
f 151/445 152/446 148/447 147/448
vt 0.57421875 0.671875
vt 0.56640625 0.671875
vt 0.56640625 0.6796875
vt 0.57421875 0.6796875
f 147/449 148/450 145/451 146/452
vt 0.64453125 0.671875
vt 0.63671875 0.671875
vt 0.63671875 0.6796875
vt 0.64453125 0.6796875
f 152/453 151/454 150/455 149/456
o yourclassnameModel19
v 1.2 0.75 -8.15
v 3.4 0.75 -8.15
v 3.4 0.05 -8.15
v 1.2 0.05 -8.15
v 1.2 0.75 8.15
v 3.4 0.75 8.15
v 3.4 0.05 8.15
v 1.2 0.05 8.15
vt 0.79296875 0.671875
vt 0.73046875 0.671875
vt 0.73046875 0.6796875
vt 0.79296875 0.6796875
f 159/457 155/458 154/459 158/460
vt 0.72265625 0.671875
vt 0.66015625 0.671875
vt 0.66015625 0.6796875
vt 0.72265625 0.6796875
f 156/461 160/462 157/463 153/464
vt 0.73046875 0.6796875
vt 0.72265625 0.6796875
vt 0.72265625 0.8046875
vt 0.73046875 0.8046875
f 154/465 153/466 157/467 158/468
vt 0.73828125 0.8046875
vt 0.73046875 0.8046875
vt 0.73046875 0.6796875
vt 0.73828125 0.6796875
f 159/469 160/470 156/471 155/472
vt 0.73046875 0.671875
vt 0.72265625 0.671875
vt 0.72265625 0.6796875
vt 0.73046875 0.6796875
f 155/473 156/474 153/475 154/476
vt 0.80078125 0.671875
vt 0.79296875 0.671875
vt 0.79296875 0.6796875
vt 0.80078125 0.6796875
f 160/477 159/478 158/479 157/480
o yourclassnameModel20
v 3.55 0.75 -8.15
v 5.75 0.75 -8.15
v 5.75 0.05 -8.15
v 3.55 0.05 -8.15
v 3.55 0.75 8.15
v 5.75 0.75 8.15
v 5.75 0.05 8.15
v 3.55 0.05 8.15
vt 0.94921875 0.671875
vt 0.88671875 0.671875
vt 0.88671875 0.6796875
vt 0.94921875 0.6796875
f 167/481 163/482 162/483 166/484
vt 0.87890625 0.671875
vt 0.81640625 0.671875
vt 0.81640625 0.6796875
vt 0.87890625 0.6796875
f 164/485 168/486 165/487 161/488
vt 0.88671875 0.6796875
vt 0.87890625 0.6796875
vt 0.87890625 0.8046875
vt 0.88671875 0.8046875
f 162/489 161/490 165/491 166/492
vt 0.89453125 0.8046875
vt 0.88671875 0.8046875
vt 0.88671875 0.6796875
vt 0.89453125 0.6796875
f 167/493 168/494 164/495 163/496
vt 0.88671875 0.671875
vt 0.87890625 0.671875
vt 0.87890625 0.6796875
vt 0.88671875 0.6796875
f 163/497 164/498 161/499 162/500
vt 0.95703125 0.671875
vt 0.94921875 0.671875
vt 0.94921875 0.6796875
vt 0.95703125 0.6796875
f 168/501 167/502 166/503 165/504
o yourclassnameModel21
v 5.9 0.75 -8.15
v 8.1 0.75 -8.15
v 8.1 0.05 -8.15
v 5.9 0.05 -8.15
v 5.9 0.75 8.15
v 8.1 0.75 8.15
v 8.1 0.05 8.15
v 5.9 0.05 8.15
vt 0.38671875 0.609375
vt 0.32421875 0.609375
vt 0.32421875 0.6171875
vt 0.38671875 0.6171875
f 175/505 171/506 170/507 174/508
vt 0.31640625 0.609375
vt 0.25390625 0.609375
vt 0.25390625 0.6171875
vt 0.31640625 0.6171875
f 172/509 176/510 173/511 169/512
vt 0.32421875 0.6171875
vt 0.31640625 0.6171875
vt 0.31640625 0.7421875
vt 0.32421875 0.7421875
f 170/513 169/514 173/515 174/516
vt 0.33203125 0.7421875
vt 0.32421875 0.7421875
vt 0.32421875 0.6171875
vt 0.33203125 0.6171875
f 175/517 176/518 172/519 171/520
vt 0.32421875 0.609375
vt 0.31640625 0.609375
vt 0.31640625 0.6171875
vt 0.32421875 0.6171875
f 171/521 172/522 169/523 170/524
vt 0.39453125 0.609375
vt 0.38671875 0.609375
vt 0.38671875 0.6171875
vt 0.39453125 0.6171875
f 176/525 175/526 174/527 173/528
o yourclassnameModel22
v -8 3.6 -7.5
v 8 3.6 -7.5
v 8 2.6 -7.5
v -8 2.6 -7.5
v -8 3.6 -6.5
v 8 3.6 -6.5
v 8 2.6 -6.5
v -8 2.6 -6.5
vt 0.07421875 0.6015625
vt 0.0703125 0.6015625
vt 0.0703125 0.609375
vt 0.07421875 0.609375
f 183/529 179/530 178/531 182/532
vt 0.0078125 0.6015625
vt 0.00390625 0.6015625
vt 0.00390625 0.609375
vt 0.0078125 0.609375
f 180/533 184/534 181/535 177/536
vt 0.0703125 0.609375
vt 0.0078125 0.609375
vt 0.0078125 0.6171875
vt 0.0703125 0.6171875
f 178/537 177/538 181/539 182/540
vt 0.1328125 0.6171875
vt 0.0703125 0.6171875
vt 0.0703125 0.609375
vt 0.1328125 0.609375
f 183/541 184/542 180/543 179/544
vt 0.0703125 0.6015625
vt 0.0078125 0.6015625
vt 0.0078125 0.609375
vt 0.0703125 0.609375
f 179/545 180/546 177/547 178/548
vt 0.13671875 0.6015625
vt 0.07421875 0.6015625
vt 0.07421875 0.609375
vt 0.13671875 0.609375
f 184/549 183/550 182/551 181/552
o yourclassnameModel23
v -8 3.6 6.5
v 8 3.6 6.5
v 8 2.6 6.5
v -8 2.6 6.5
v -8 3.6 7.5
v 8 3.6 7.5
v 8 2.6 7.5
v -8 2.6 7.5
vt 0.48046875 0.6015625
vt 0.4765625 0.6015625
vt 0.4765625 0.609375
vt 0.48046875 0.609375
f 191/553 187/554 186/555 190/556
vt 0.4140625 0.6015625
vt 0.41015625 0.6015625
vt 0.41015625 0.609375
vt 0.4140625 0.609375
f 188/557 192/558 189/559 185/560
vt 0.4765625 0.609375
vt 0.4140625 0.609375
vt 0.4140625 0.6171875
vt 0.4765625 0.6171875
f 186/561 185/562 189/563 190/564
vt 0.5390625 0.6171875
vt 0.4765625 0.6171875
vt 0.4765625 0.609375
vt 0.5390625 0.609375
f 191/565 192/566 188/567 187/568
vt 0.4765625 0.6015625
vt 0.4140625 0.6015625
vt 0.4140625 0.609375
vt 0.4765625 0.609375
f 187/569 188/570 185/571 186/572
vt 0.54296875 0.6015625
vt 0.48046875 0.6015625
vt 0.48046875 0.609375
vt 0.54296875 0.609375
f 192/573 191/574 190/575 189/576
o yourclassnameModel24
v -8 3.6 -0.5
v 8 3.6 -0.5
v 8 2.6 -0.5
v -8 2.6 -0.5
v -8 3.6 0.5
v 8 3.6 0.5
v 8 2.6 0.5
v -8 2.6 0.5
vt 0.63671875 0.6015625
vt 0.6328125 0.6015625
vt 0.6328125 0.609375
vt 0.63671875 0.609375
f 199/577 195/578 194/579 198/580
vt 0.5703125 0.6015625
vt 0.56640625 0.6015625
vt 0.56640625 0.609375
vt 0.5703125 0.609375
f 196/581 200/582 197/583 193/584
vt 0.6328125 0.609375
vt 0.5703125 0.609375
vt 0.5703125 0.6171875
vt 0.6328125 0.6171875
f 194/585 193/586 197/587 198/588
vt 0.6953125 0.6171875
vt 0.6328125 0.6171875
vt 0.6328125 0.609375
vt 0.6953125 0.609375
f 199/589 200/590 196/591 195/592
vt 0.6328125 0.6015625
vt 0.5703125 0.6015625
vt 0.5703125 0.609375
vt 0.6328125 0.609375
f 195/593 196/594 193/595 194/596
vt 0.69921875 0.6015625
vt 0.63671875 0.6015625
vt 0.63671875 0.609375
vt 0.69921875 0.609375
f 200/597 199/598 198/599 197/600
o yourclassnameModel25
v -7.7 14 -7.7
v 7.7 14 -7.7
v 8 10 -8
v -8 10 -8
v -7.7 14 7.7
v 7.7 14 7.7
v 8 10 8
v -8 10 8
vt 0.19140625 0.3984375
vt 0.12890625 0.3984375
vt 0.12890625 0.4296875
vt 0.19140625 0.4296875
f 207/601 203/602 202/603 206/604
vt 0.06640625 0.3984375
vt 0.00390625 0.3984375
vt 0.00390625 0.4296875
vt 0.06640625 0.4296875
f 204/605 208/606 205/607 201/608
vt 0.12890625 0.4296875
vt 0.06640625 0.4296875
vt 0.06640625 0.5546875
vt 0.12890625 0.5546875
f 202/609 201/610 205/611 206/612
vt 0.19140625 0.5546875
vt 0.12890625 0.5546875
vt 0.12890625 0.4296875
vt 0.19140625 0.4296875
f 207/613 208/614 204/615 203/616
vt 0.12890625 0.3984375
vt 0.06640625 0.3984375
vt 0.06640625 0.4296875
vt 0.12890625 0.4296875
f 203/617 204/618 201/619 202/620
vt 0.25390625 0.3984375
vt 0.19140625 0.3984375
vt 0.19140625 0.4296875
vt 0.25390625 0.4296875
f 208/621 207/622 206/623 205/624
o yourclassnameModel26
v -8 10 -8
v 8 10 -8
v 8.5 3.5 -8.5
v -8.5 2.75 -8.5
v -8 10 8
v 8 10 8
v 8.5 2 8.5
v -8.5 3.5 8.5
vt 0.47265625 0.375
vt 0.41015625 0.375
vt 0.41015625 0.4296875
vt 0.47265625 0.4296875
f 215/625 211/626 210/627 214/628
vt 0.34765625 0.375
vt 0.28515625 0.375
vt 0.28515625 0.4296875
vt 0.34765625 0.4296875
f 212/629 216/630 213/631 209/632
vt 0.41015625 0.4296875
vt 0.34765625 0.4296875
vt 0.34765625 0.5546875
vt 0.41015625 0.5546875
f 210/633 209/634 213/635 214/636
vt 0.47265625 0.5546875
vt 0.41015625 0.5546875
vt 0.41015625 0.4296875
vt 0.47265625 0.4296875
f 215/637 216/638 212/639 211/640
vt 0.41015625 0.375
vt 0.34765625 0.375
vt 0.34765625 0.4296875
vt 0.41015625 0.4296875
f 211/641 212/642 209/643 210/644
vt 0.53515625 0.375
vt 0.47265625 0.375
vt 0.47265625 0.4296875
vt 0.53515625 0.4296875
f 216/645 215/646 214/647 213/648
o yourclassnameModel27
v -7.25 15.85 -7.25
v 7.25 16 -7.25
v 7.7 14 -7.7
v -7.7 14 -7.7
v -7.25 16 7.25
v 7.25 15.85 7.25
v 7.7 14 7.7
v -7.7 14 7.7
vt 0.19140625 0.2265625
vt 0.12890625 0.2265625
vt 0.12890625 0.2421875
vt 0.19140625 0.2421875
f 223/649 219/650 218/651 222/652
vt 0.06640625 0.2265625
vt 0.00390625 0.2265625
vt 0.00390625 0.2421875
vt 0.06640625 0.2421875
f 220/653 224/654 221/655 217/656
vt 0.12890625 0.2421875
vt 0.06640625 0.2421875
vt 0.06640625 0.3671875
vt 0.12890625 0.3671875
f 218/657 217/658 221/659 222/660
vt 0.19140625 0.3671875
vt 0.12890625 0.3671875
vt 0.12890625 0.2421875
vt 0.19140625 0.2421875
f 223/661 224/662 220/663 219/664
vt 0.12890625 0.2265625
vt 0.06640625 0.2265625
vt 0.06640625 0.2421875
vt 0.12890625 0.2421875
f 219/665 220/666 217/667 218/668
vt 0.25390625 0.2265625
vt 0.19140625 0.2265625
vt 0.19140625 0.2421875
vt 0.25390625 0.2421875
f 224/669 223/670 222/671 221/672
