# Converted from Decimation Beardie model: skeletonground.bmodel
# Coordinates retain the original Beardie model units.
mtllib skeletonground.mtl
usemtl skeletonground_material
o baseModel0
v -4 -0 -9
v 3.863094 1.105085 -9.974954
v 4.939651 0.4119434 -2.078083
v -2.923443 -0.6931421 -1.103129
v -5.006367 7.89293 -8.170009
v 2.856727 8.998015 -9.144963
v 3.933284 8.304873 -1.248092
v -3.92981 7.199788 -0.2731373
vt 0.375 0.5
vt 0.25 0.5
vt 0.25 0.75
vt 0.375 0.75
f 7/1 3/2 2/3 6/4
vt 0.125 0.5
vt 0 0.5
vt 0 0.75
vt 0.125 0.75
f 4/5 8/6 5/7 1/8
vt 0.25 0.75
vt 0.125 0.75
vt 0.125 1
vt 0.25 1
f 2/9 1/10 5/11 6/12
vt 0.375 1
vt 0.25 1
vt 0.25 0.75
vt 0.375 0.75
f 7/13 8/14 4/15 3/16
vt 0.25 0.5
vt 0.125 0.5
vt 0.125 0.75
vt 0.25 0.75
f 3/17 4/18 1/19 2/20
vt 0.5 0.5
vt 0.375 0.5
vt 0.375 0.75
vt 0.5 0.75
f 8/21 7/22 6/23 5/24
o baseModel1
v -5.5 2 -0.5
v -3.536746 2 -0.1183818
v -5.809387 0.5375646 11.57334
v -7.772642 0.5375646 11.19172
v -5.546508 3.985092 -0.2607389
v -3.583253 3.985092 0.1208792
v -5.855895 2.522657 11.8126
v -7.819149 2.522657 11.43098
vt 0.71875 0.0625
vt 0.6875 0.0625
vt 0.6875 0.4375
vt 0.71875 0.4375
f 15/25 11/26 10/27 14/28
vt 0.65625 0.0625
vt 0.625 0.0625
vt 0.625 0.4375
vt 0.65625 0.4375
f 12/29 16/30 13/31 9/32
vt 0.6875 0.4375
vt 0.65625 0.4375
vt 0.65625 0.5
vt 0.6875 0.5
f 10/33 9/34 13/35 14/36
vt 0.71875 0.5
vt 0.6875 0.5
vt 0.6875 0.4375
vt 0.71875 0.4375
f 15/37 16/38 12/39 11/40
vt 0.6875 0.0625
vt 0.65625 0.0625
vt 0.65625 0.4375
vt 0.6875 0.4375
f 11/41 12/42 9/43 10/44
vt 0.75 0.0625
vt 0.71875 0.0625
vt 0.71875 0.4375
vt 0.75 0.4375
f 16/45 15/46 14/47 13/48
o baseModel2
v 3.5 2 -1.5
v 5.463254 2 -1.881618
v 7.744249 0.9541327 9.853084
v 5.780995 0.9541327 10.2347
v 3.53326 3.992389 -1.328891
v 5.496515 3.992389 -1.710509
v 7.777509 2.946522 10.02419
v 5.814255 2.946522 10.40581
vt 0.71875 0.0625
vt 0.6875 0.0625
vt 0.6875 0.4375
vt 0.71875 0.4375
f 23/49 19/50 18/51 22/52
vt 0.65625 0.0625
vt 0.625 0.0625
vt 0.625 0.4375
vt 0.65625 0.4375
f 20/53 24/54 21/55 17/56
vt 0.6875 0.4375
vt 0.65625 0.4375
vt 0.65625 0.5
vt 0.6875 0.5
f 18/57 17/58 21/59 22/60
vt 0.71875 0.5
vt 0.6875 0.5
vt 0.6875 0.4375
vt 0.71875 0.4375
f 23/61 24/62 20/63 19/64
vt 0.6875 0.0625
vt 0.65625 0.0625
vt 0.65625 0.4375
vt 0.6875 0.4375
f 19/65 20/66 17/67 18/68
vt 0.75 0.0625
vt 0.71875 0.0625
vt 0.71875 0.4375
vt 0.75 0.4375
f 24/69 23/70 22/71 21/72
o baseModel3
v -4 1.002435 -0.7790645
v 4 1.002435 -0.7790645
v 4 0.7930061 11.21911
v -4 0.7930061 11.21911
v -4 5.001826 -0.7092548
v 4 5.001826 -0.7092548
v 4 4.792397 11.28892
v -4 4.792397 11.28892
vt 0.5 0
vt 0.4375 0
vt 0.4375 0.375
vt 0.5 0.375
f 31/73 27/74 26/75 30/76
vt 0.3125 0
vt 0.25 0
vt 0.25 0.375
vt 0.3125 0.375
f 28/77 32/78 29/79 25/80
vt 0.4375 0.375
vt 0.3125 0.375
vt 0.3125 0.5
vt 0.4375 0.5
f 26/81 25/82 29/83 30/84
vt 0.5625 0.5
vt 0.4375 0.5
vt 0.4375 0.375
vt 0.5625 0.375
f 31/85 32/86 28/87 27/88
vt 0.4375 0
vt 0.3125 0
vt 0.3125 0.375
vt 0.4375 0.375
f 27/89 28/90 25/91 26/92
vt 0.625 0
vt 0.5 0
vt 0.5 0.375
vt 0.625 0.375
f 32/93 31/94 30/95 29/96
o baseModel4
v -3 2 10.5
v -1.030384 2 10.8473
v -3.088508 0.12279 22.51949
v -5.058123 0.12279 22.1722
v -3.054329 3.975377 10.80812
v -1.084713 3.975377 11.15541
v -3.142837 2.098167 22.82761
v -5.112452 2.098167 22.48031
vt 0.09375 0.0625
vt 0.0625 0.0625
vt 0.0625 0.4375
vt 0.09375 0.4375
f 39/97 35/98 34/99 38/100
vt 0.03125 0.0625
vt 0 0.0625
vt 0 0.4375
vt 0.03125 0.4375
f 36/101 40/102 37/103 33/104
vt 0.0625 0.4375
vt 0.03125 0.4375
vt 0.03125 0.5
vt 0.0625 0.5
f 34/105 33/106 37/107 38/108
vt 0.09375 0.5
vt 0.0625 0.5
vt 0.0625 0.4375
vt 0.09375 0.4375
f 39/109 40/110 36/111 35/112
vt 0.0625 0.0625
vt 0.03125 0.0625
vt 0.03125 0.4375
vt 0.0625 0.4375
f 35/113 36/114 33/115 34/116
vt 0.125 0.0625
vt 0.09375 0.0625
vt 0.09375 0.4375
vt 0.125 0.4375
f 40/117 39/118 38/119 37/120
o baseModel5
v 1 2 10.5
v 2.992389 2 10.32569
v 4.02808 0.3299229 22.16369
v 2.035691 0.3299229 22.338
v 1.024259 3.980536 10.77729
v 3.016649 3.980536 10.60298
v 4.052339 2.310459 22.44097
v 2.05995 2.310459 22.61528
vt 0.09375 0.0625
vt 0.0625 0.0625
vt 0.0625 0.4375
vt 0.09375 0.4375
f 47/121 43/122 42/123 46/124
vt 0.03125 0.0625
vt 0 0.0625
vt 0 0.4375
vt 0.03125 0.4375
f 44/125 48/126 45/127 41/128
vt 0.0625 0.4375
vt 0.03125 0.4375
vt 0.03125 0.5
vt 0.0625 0.5
f 42/129 41/130 45/131 46/132
vt 0.09375 0.5
vt 0.0625 0.5
vt 0.0625 0.4375
vt 0.09375 0.4375
f 47/133 48/134 44/135 43/136
vt 0.0625 0.0625
vt 0.03125 0.0625
vt 0.03125 0.4375
vt 0.0625 0.4375
f 43/137 44/138 41/139 42/140
vt 0.125 0.0625
vt 0.09375 0.0625
vt 0.09375 0.4375
vt 0.125 0.4375
f 48/141 47/142 46/143 45/144
