# Converted from Decimation Beardie model: hangglider.bmodel
# Coordinates retain the original Beardie model units.
mtllib hangglider.mtl
usemtl hangglider_material
o model0
v -13 2 -6.5
v 13 2 -6.5
v 13 1 -6.5
v -13 1 -6.5
v -13 2 -5.5
v 13 2 -5.5
v 13 1 -5.5
v -13 1 -5.5
vt 0.056640625 0.994140625
vt 0.0546875 0.994140625
vt 0.0546875 0.99609375
vt 0.056640625 0.99609375
f 7/1 3/2 2/3 6/4
vt 0.00390625 0.994140625
vt 0.001953125 0.994140625
vt 0.001953125 0.99609375
vt 0.00390625 0.99609375
f 4/5 8/6 5/7 1/8
vt 0.0546875 0.99609375
vt 0.00390625 0.99609375
vt 0.00390625 0.998046875
vt 0.0546875 0.998046875
f 2/9 1/10 5/11 6/12
vt 0.10546875 0.998046875
vt 0.0546875 0.998046875
vt 0.0546875 0.99609375
vt 0.10546875 0.99609375
f 7/13 8/14 4/15 3/16
vt 0.0546875 0.994140625
vt 0.00390625 0.994140625
vt 0.00390625 0.99609375
vt 0.0546875 0.99609375
f 3/17 4/18 1/19 2/20
vt 0.107421875 0.994140625
vt 0.056640625 0.994140625
vt 0.056640625 0.99609375
vt 0.107421875 0.99609375
f 8/21 7/22 6/23 5/24
o model1
v -13 2 -6.5
v -2.857161 23.75139 -6.5
v -1.950854 23.32877 -6.5
v -12.09369 1.577382 -6.5
v -13 2 -5.5
v -2.857161 23.75139 -5.5
v -1.950854 23.32877 -5.5
v -12.09369 1.577382 -5.5
vt 0.162109375 0.994140625
vt 0.16015625 0.994140625
vt 0.16015625 0.99609375
vt 0.162109375 0.99609375
f 15/25 11/26 10/27 14/28
vt 0.11328125 0.994140625
vt 0.111328125 0.994140625
vt 0.111328125 0.99609375
vt 0.11328125 0.99609375
f 12/29 16/30 13/31 9/32
vt 0.16015625 0.99609375
vt 0.11328125 0.99609375
vt 0.11328125 0.998046875
vt 0.16015625 0.998046875
f 10/33 9/34 13/35 14/36
vt 0.20703125 0.998046875
vt 0.16015625 0.998046875
vt 0.16015625 0.99609375
vt 0.20703125 0.99609375
f 15/37 16/38 12/39 11/40
vt 0.16015625 0.994140625
vt 0.11328125 0.994140625
vt 0.11328125 0.99609375
vt 0.16015625 0.99609375
f 11/41 12/42 9/43 10/44
vt 0.208984375 0.994140625
vt 0.162109375 0.994140625
vt 0.162109375 0.99609375
vt 0.208984375 0.99609375
f 16/45 15/46 14/47 13/48
o model2
v 2.857161 23.75139 -6.5
v 13 2 -6.5
v 12.09369 1.577382 -6.5
v 1.950854 23.32877 -6.5
v 2.857161 23.75139 -5.5
v 13 2 -5.5
v 12.09369 1.577382 -5.5
v 1.950854 23.32877 -5.5
vt 0.271484375 0.994140625
vt 0.26953125 0.994140625
vt 0.26953125 0.99609375
vt 0.271484375 0.99609375
f 23/49 19/50 18/51 22/52
vt 0.22265625 0.994140625
vt 0.220703125 0.994140625
vt 0.220703125 0.99609375
vt 0.22265625 0.99609375
f 20/53 24/54 21/55 17/56
vt 0.26953125 0.99609375
vt 0.22265625 0.99609375
vt 0.22265625 0.998046875
vt 0.26953125 0.998046875
f 18/57 17/58 21/59 22/60
vt 0.31640625 0.998046875
vt 0.26953125 0.998046875
vt 0.26953125 0.99609375
vt 0.31640625 0.99609375
f 23/61 24/62 20/63 19/64
vt 0.26953125 0.994140625
vt 0.22265625 0.994140625
vt 0.22265625 0.99609375
vt 0.26953125 0.99609375
f 19/65 20/66 17/67 18/68
vt 0.318359375 0.994140625
vt 0.271484375 0.994140625
vt 0.271484375 0.99609375
vt 0.318359375 0.99609375
f 24/69 23/70 22/71 21/72
o model3
v -2.863 23.743 -6.5
v 2.861 23.743 -6.5
v 2.861 22.74 -6.5
v -2.863 22.74 -6.5
v -2.863 23.743 -5.5
v 2.861 23.743 -5.5
v 2.861 22.74 -5.5
v -2.863 22.74 -5.5
vt 0.345703125 0.994140625
vt 0.34375 0.994140625
vt 0.34375 0.99609375
vt 0.345703125 0.99609375
f 31/73 27/74 26/75 30/76
vt 0.33203125 0.994140625
vt 0.330078125 0.994140625
vt 0.330078125 0.99609375
vt 0.33203125 0.99609375
f 28/77 32/78 29/79 25/80
vt 0.34375 0.99609375
vt 0.33203125 0.99609375
vt 0.33203125 0.998046875
vt 0.34375 0.998046875
f 26/81 25/82 29/83 30/84
vt 0.35546875 0.998046875
vt 0.34375 0.998046875
vt 0.34375 0.99609375
vt 0.35546875 0.99609375
f 31/85 32/86 28/87 27/88
vt 0.34375 0.994140625
vt 0.33203125 0.994140625
vt 0.33203125 0.99609375
vt 0.34375 0.99609375
f 27/89 28/90 25/91 26/92
vt 0.357421875 0.994140625
vt 0.345703125 0.994140625
vt 0.345703125 0.99609375
vt 0.357421875 0.99609375
f 32/93 31/94 30/95 29/96
o model4
v -2.492389 24.56569 -30.5
v -0.5 24.74 -30.5
v -0.4128443 23.74381 -30.5
v -2.405234 23.56949 -30.5
v -68.24124 18.81341 22.5
v -0.5 24.74 -2.5
v -0.4128443 23.74381 -2.5
v -68.15408 17.81721 22.5
vt 0.611328125 0.892578125
vt 0.5078125 0.892578125
vt 0.5078125 0.89453125
vt 0.611328125 0.89453125
f 39/97 35/98 34/99 38/100
vt 0.37109375 0.892578125
vt 0.267578125 0.892578125
vt 0.267578125 0.89453125
vt 0.37109375 0.89453125
f 36/101 40/102 37/103 33/104
vt 0.5078125 0.89453125
vt 0.37109375 0.89453125
vt 0.37109375 0.998046875
vt 0.5078125 0.998046875
f 34/105 33/106 37/107 38/108
vt 0.64453125 0.998046875
vt 0.5078125 0.998046875
vt 0.5078125 0.89453125
vt 0.64453125 0.89453125
f 39/109 40/110 36/111 35/112
vt 0.5078125 0.892578125
vt 0.37109375 0.892578125
vt 0.37109375 0.89453125
vt 0.5078125 0.89453125
f 35/113 36/114 33/115 34/116
vt 0.748046875 0.892578125
vt 0.611328125 0.892578125
vt 0.611328125 0.89453125
vt 0.748046875 0.89453125
f 40/117 39/118 38/119 37/120
o model5
v 0.5 24.74 -30.5
v 2.492389 24.56569 -30.5
v 2.405234 23.56949 -30.5
v 0.4128443 23.74381 -30.5
v 0.5 24.74 -2.5
v 70.23363 18.6391 22.5
v 70.14647 17.6429 22.5
v 0.4128443 23.74381 -2.5
vt 0.345703125 0.783203125
vt 0.2421875 0.783203125
vt 0.2421875 0.78515625
vt 0.345703125 0.78515625
f 47/121 43/122 42/123 46/124
vt 0.10546875 0.783203125
vt 0.001953125 0.783203125
vt 0.001953125 0.78515625
vt 0.10546875 0.78515625
f 44/125 48/126 45/127 41/128
vt 0.2421875 0.78515625
vt 0.10546875 0.78515625
vt 0.10546875 0.888671875
vt 0.2421875 0.888671875
f 42/129 41/130 45/131 46/132
vt 0.37890625 0.888671875
vt 0.2421875 0.888671875
vt 0.2421875 0.78515625
vt 0.37890625 0.78515625
f 47/133 48/134 44/135 43/136
vt 0.2421875 0.783203125
vt 0.10546875 0.783203125
vt 0.10546875 0.78515625
vt 0.2421875 0.78515625
f 43/137 44/138 41/139 42/140
vt 0.482421875 0.783203125
vt 0.345703125 0.783203125
vt 0.345703125 0.78515625
vt 0.482421875 0.78515625
f 48/141 47/142 46/143 45/144
o model6
v -0.5 24.74 -2.5
v -0.5 24.74 -2.5
v -0.4128443 23.74381 -2.5
v -0.4128443 23.74381 -2.5
v -68.24124 18.81341 22.5
v -0.5 24.74 13.5
v -0.4128443 23.74381 13.5
v -68.15408 17.81721 22.5
vt 0.689453125 0.806640625
vt 0.609375 0.806640625
vt 0.609375 0.80859375
vt 0.689453125 0.80859375
f 55/145 51/146 50/147 54/148
vt 0.47265625 0.806640625
vt 0.392578125 0.806640625
vt 0.392578125 0.80859375
vt 0.47265625 0.80859375
f 52/149 56/150 53/151 49/152
vt 0.609375 0.80859375
vt 0.47265625 0.80859375
vt 0.47265625 0.888671875
vt 0.609375 0.888671875
f 50/153 49/154 53/155 54/156
vt 0.74609375 0.888671875
vt 0.609375 0.888671875
vt 0.609375 0.80859375
vt 0.74609375 0.80859375
f 55/157 56/158 52/159 51/160
vt 0.609375 0.806640625
vt 0.47265625 0.806640625
vt 0.47265625 0.80859375
vt 0.609375 0.80859375
f 51/161 52/162 49/163 50/164
vt 0.826171875 0.806640625
vt 0.689453125 0.806640625
vt 0.689453125 0.80859375
vt 0.826171875 0.80859375
f 56/165 55/166 54/167 53/168
o model7
v 0.5 24.74 -2.5
v 0.5 24.74 -2.5
v 0.4128443 23.74381 -2.5
v 0.4128443 23.74381 -2.5
v 0.5 24.74 13.5
v 70.23363 18.6391 22.5
v 70.14647 17.6429 22.5
v 0.4128443 23.74381 13.5
vt 0.705078125 0.712890625
vt 0.625 0.712890625
vt 0.625 0.71484375
vt 0.705078125 0.71484375
f 63/169 59/170 58/171 62/172
vt 0.48828125 0.712890625
vt 0.408203125 0.712890625
vt 0.408203125 0.71484375
vt 0.48828125 0.71484375
f 60/173 64/174 61/175 57/176
vt 0.625 0.71484375
vt 0.48828125 0.71484375
vt 0.48828125 0.794921875
vt 0.625 0.794921875
f 58/177 57/178 61/179 62/180
vt 0.76171875 0.794921875
vt 0.625 0.794921875
vt 0.625 0.71484375
vt 0.76171875 0.71484375
f 63/181 64/182 60/183 59/184
vt 0.625 0.712890625
vt 0.48828125 0.712890625
vt 0.48828125 0.71484375
vt 0.625 0.71484375
f 59/185 60/186 57/187 58/188
vt 0.841796875 0.712890625
vt 0.705078125 0.712890625
vt 0.705078125 0.71484375
vt 0.841796875 0.71484375
f 64/189 63/190 62/191 61/192
o model8
v -10.5 3.5 -8
v -9.5 3.5 -8
v -9.5 -0.5 -8
v -10.5 -0.5 -8
v -10.5 3.5 -4
v -9.5 3.5 -4
v -9.5 -0.5 -4
v -10.5 -0.5 -4
vt 0.22265625 0.982421875
vt 0.21484375 0.982421875
vt 0.21484375 0.990234375
vt 0.22265625 0.990234375
f 71/193 67/194 66/195 70/196
vt 0.212890625 0.982421875
vt 0.205078125 0.982421875
vt 0.205078125 0.990234375
vt 0.212890625 0.990234375
f 68/197 72/198 69/199 65/200
vt 0.21484375 0.990234375
vt 0.212890625 0.990234375
vt 0.212890625 0.998046875
vt 0.21484375 0.998046875
f 66/201 65/202 69/203 70/204
vt 0.216796875 0.998046875
vt 0.21484375 0.998046875
vt 0.21484375 0.990234375
vt 0.216796875 0.990234375
f 71/205 72/206 68/207 67/208
vt 0.21484375 0.982421875
vt 0.212890625 0.982421875
vt 0.212890625 0.990234375
vt 0.21484375 0.990234375
f 67/209 68/210 65/211 66/212
vt 0.224609375 0.982421875
vt 0.22265625 0.982421875
vt 0.22265625 0.990234375
vt 0.224609375 0.990234375
f 72/213 71/214 70/215 69/216
o model9
v 9.5 3.5 -8
v 10.5 3.5 -8
v 10.5 -0.5 -8
v 9.5 -0.5 -8
v 9.5 3.5 -4
v 10.5 3.5 -4
v 10.5 -0.5 -4
v 9.5 -0.5 -4
vt 0.33203125 0.982421875
vt 0.32421875 0.982421875
vt 0.32421875 0.990234375
vt 0.33203125 0.990234375
f 79/217 75/218 74/219 78/220
vt 0.322265625 0.982421875
vt 0.314453125 0.982421875
vt 0.314453125 0.990234375
vt 0.322265625 0.990234375
f 76/221 80/222 77/223 73/224
vt 0.32421875 0.990234375
vt 0.322265625 0.990234375
vt 0.322265625 0.998046875
vt 0.32421875 0.998046875
f 74/225 73/226 77/227 78/228
vt 0.326171875 0.998046875
vt 0.32421875 0.998046875
vt 0.32421875 0.990234375
vt 0.326171875 0.990234375
f 79/229 80/230 76/231 75/232
vt 0.32421875 0.982421875
vt 0.322265625 0.982421875
vt 0.322265625 0.990234375
vt 0.32421875 0.990234375
f 75/233 76/234 73/235 74/236
vt 0.333984375 0.982421875
vt 0.33203125 0.982421875
vt 0.33203125 0.990234375
vt 0.333984375 0.990234375
f 80/237 79/238 78/239 77/240
o model10
v -0.5 24.74 -30.5
v 0.5 24.74 -30.5
v 0.5 22.74 -30.5
v -0.5 22.74 -30.5
v -0.5 24.74 28.5
v 0.5 24.74 28.5
v 0.5 22.74 28.5
v -0.5 22.74 28.5
vt 0.984375 0.87890625
vt 0.869140625 0.87890625
vt 0.869140625 0.8828125
vt 0.984375 0.8828125
f 87/241 83/242 82/243 86/244
vt 0.8671875 0.87890625
vt 0.751953125 0.87890625
vt 0.751953125 0.8828125
vt 0.8671875 0.8828125
f 84/245 88/246 85/247 81/248
vt 0.869140625 0.8828125
vt 0.8671875 0.8828125
vt 0.8671875 0.998046875
vt 0.869140625 0.998046875
f 82/249 81/250 85/251 86/252
vt 0.87109375 0.998046875
vt 0.869140625 0.998046875
vt 0.869140625 0.8828125
vt 0.87109375 0.8828125
f 87/253 88/254 84/255 83/256
vt 0.869140625 0.87890625
vt 0.8671875 0.87890625
vt 0.8671875 0.8828125
vt 0.869140625 0.8828125
f 83/257 84/258 81/259 82/260
vt 0.986328125 0.87890625
vt 0.984375 0.87890625
vt 0.984375 0.8828125
vt 0.986328125 0.8828125
f 88/261 87/262 86/263 85/264
o model11
v 15.44292 22.93266 -20.3
v 16.43912 22.84551 -19.5
v 16.35196 21.84931 -19.5
v 15.35576 21.93647 -20.3
v 15.44292 22.93266 15.5
v 16.43912 22.84551 15.6
v 16.35196 21.84931 15.6
v 15.35576 21.93647 15.5
vt 0.80078125 0.92578125
vt 0.73046875 0.92578125
vt 0.73046875 0.927734375
vt 0.80078125 0.927734375
f 95/265 91/266 90/267 94/268
vt 0.728515625 0.92578125
vt 0.658203125 0.92578125
vt 0.658203125 0.927734375
vt 0.728515625 0.927734375
f 92/269 96/270 93/271 89/272
vt 0.73046875 0.927734375
vt 0.728515625 0.927734375
vt 0.728515625 0.998046875
vt 0.73046875 0.998046875
f 90/273 89/274 93/275 94/276
vt 0.732421875 0.998046875
vt 0.73046875 0.998046875
vt 0.73046875 0.927734375
vt 0.732421875 0.927734375
f 95/277 96/278 92/279 91/280
vt 0.73046875 0.92578125
vt 0.728515625 0.92578125
vt 0.728515625 0.927734375
vt 0.73046875 0.927734375
f 91/281 92/282 89/283 90/284
vt 0.802734375 0.92578125
vt 0.80078125 0.92578125
vt 0.80078125 0.927734375
vt 0.802734375 0.927734375
f 96/285 95/286 94/287 93/288
o model12
v 31.38204 21.53817 -7.8
v 32.37823 21.45102 -7.05
v 32.29107 20.45482 -7.05
v 31.29488 20.54198 -7.8
v 31.38204 21.53817 17.5
v 32.37823 21.45102 17.65
v 32.29107 20.45482 17.65
v 31.29488 20.54198 17.5
vt 0.8359375 0.947265625
vt 0.787109375 0.947265625
vt 0.787109375 0.94921875
vt 0.8359375 0.94921875
f 103/289 99/290 98/291 102/292
vt 0.78515625 0.947265625
vt 0.736328125 0.947265625
vt 0.736328125 0.94921875
vt 0.78515625 0.94921875
f 100/293 104/294 101/295 97/296
vt 0.787109375 0.94921875
vt 0.78515625 0.94921875
vt 0.78515625 0.998046875
vt 0.787109375 0.998046875
f 98/297 97/298 101/299 102/300
vt 0.7890625 0.998046875
vt 0.787109375 0.998046875
vt 0.787109375 0.94921875
vt 0.7890625 0.94921875
f 103/301 104/302 100/303 99/304
vt 0.787109375 0.947265625
vt 0.78515625 0.947265625
vt 0.78515625 0.94921875
vt 0.787109375 0.94921875
f 99/305 100/306 97/307 98/308
vt 0.837890625 0.947265625
vt 0.8359375 0.947265625
vt 0.8359375 0.94921875
vt 0.837890625 0.94921875
f 104/309 103/310 102/311 101/312
o model13
v 47.32115 20.14368 4.65
v 48.31735 20.05652 5.45
v 48.23019 19.06033 5.45
v 47.234 19.14749 4.65
v 47.32115 20.14368 19.65
v 48.31735 20.05652 19.75
v 48.23019 19.06033 19.75
v 47.234 19.14749 19.65
vt 0.71875 0.966796875
vt 0.689453125 0.966796875
vt 0.689453125 0.96875
vt 0.71875 0.96875
f 111/313 107/314 106/315 110/316
vt 0.6875 0.966796875
vt 0.658203125 0.966796875
vt 0.658203125 0.96875
vt 0.6875 0.96875
f 108/317 112/318 109/319 105/320
vt 0.689453125 0.96875
vt 0.6875 0.96875
vt 0.6875 0.998046875
vt 0.689453125 0.998046875
f 106/321 105/322 109/323 110/324
vt 0.69140625 0.998046875
vt 0.689453125 0.998046875
vt 0.689453125 0.96875
vt 0.69140625 0.96875
f 111/325 112/326 108/327 107/328
vt 0.689453125 0.966796875
vt 0.6875 0.966796875
vt 0.6875 0.96875
vt 0.689453125 0.96875
f 107/329 108/330 105/331 106/332
vt 0.720703125 0.966796875
vt 0.71875 0.966796875
vt 0.71875 0.96875
vt 0.720703125 0.96875
f 112/333 111/334 110/335 109/336
o model14
v 57.27929 19.18497 12.45
v 58.27549 19.09781 13.2
v 58.18833 18.10162 13.2
v 57.19214 18.18877 12.45
v 57.27929 19.18497 20.85
v 58.27549 19.09781 21
v 58.18833 18.10162 21
v 57.19214 18.18877 20.85
vt 0.76953125 0.98046875
vt 0.75390625 0.98046875
vt 0.75390625 0.982421875
vt 0.76953125 0.982421875
f 119/337 115/338 114/339 118/340
vt 0.751953125 0.98046875
vt 0.736328125 0.98046875
vt 0.736328125 0.982421875
vt 0.751953125 0.982421875
f 116/341 120/342 117/343 113/344
vt 0.75390625 0.982421875
vt 0.751953125 0.982421875
vt 0.751953125 0.998046875
vt 0.75390625 0.998046875
f 114/345 113/346 117/347 118/348
vt 0.755859375 0.998046875
vt 0.75390625 0.998046875
vt 0.75390625 0.982421875
vt 0.755859375 0.982421875
f 119/349 120/350 116/351 115/352
vt 0.75390625 0.98046875
vt 0.751953125 0.98046875
vt 0.751953125 0.982421875
vt 0.75390625 0.982421875
f 115/353 116/354 113/355 114/356
vt 0.771484375 0.98046875
vt 0.76953125 0.98046875
vt 0.76953125 0.982421875
vt 0.771484375 0.982421875
f 120/357 119/358 118/359 117/360
o model15
v -16.43912 22.84551 -19.15
v -15.44292 22.93266 -19.95
v -15.35576 21.93647 -19.95
v -16.35196 21.84931 -19.15
v -16.43912 22.84551 15.7
v -15.44292 22.93266 15.55
v -15.35576 21.93647 15.55
v -16.35196 21.84931 15.7
vt 0.140625 0.912109375
vt 0.072265625 0.912109375
vt 0.072265625 0.9140625
vt 0.140625 0.9140625
f 127/361 123/362 122/363 126/364
vt 0.0703125 0.912109375
vt 0.001953125 0.912109375
vt 0.001953125 0.9140625
vt 0.0703125 0.9140625
f 124/365 128/366 125/367 121/368
vt 0.072265625 0.9140625
vt 0.0703125 0.9140625
vt 0.0703125 0.982421875
vt 0.072265625 0.982421875
f 122/369 121/370 125/371 126/372
vt 0.07421875 0.982421875
vt 0.072265625 0.982421875
vt 0.072265625 0.9140625
vt 0.07421875 0.9140625
f 127/373 128/374 124/375 123/376
vt 0.072265625 0.912109375
vt 0.0703125 0.912109375
vt 0.0703125 0.9140625
vt 0.072265625 0.9140625
f 123/377 124/378 121/379 122/380
vt 0.142578125 0.912109375
vt 0.140625 0.912109375
vt 0.140625 0.9140625
vt 0.142578125 0.9140625
f 128/381 127/382 126/383 125/384
o model16
v -32.37823 21.45102 -6.3
v -31.38204 21.53817 -7.1
v -31.29488 20.54198 -7.1
v -32.29107 20.45482 -6.3
v -32.37823 21.45102 17.75
v -31.38204 21.53817 17.7
v -31.29488 20.54198 17.7
v -32.29107 20.45482 17.75
vt 0.97265625 0.94921875
vt 0.92578125 0.94921875
vt 0.92578125 0.951171875
vt 0.97265625 0.951171875
f 135/385 131/386 130/387 134/388
vt 0.923828125 0.94921875
vt 0.876953125 0.94921875
vt 0.876953125 0.951171875
vt 0.923828125 0.951171875
f 132/389 136/390 133/391 129/392
vt 0.92578125 0.951171875
vt 0.923828125 0.951171875
vt 0.923828125 0.998046875
vt 0.92578125 0.998046875
f 130/393 129/394 133/395 134/396
vt 0.927734375 0.998046875
vt 0.92578125 0.998046875
vt 0.92578125 0.951171875
vt 0.927734375 0.951171875
f 135/397 136/398 132/399 131/400
vt 0.92578125 0.94921875
vt 0.923828125 0.94921875
vt 0.923828125 0.951171875
vt 0.92578125 0.951171875
f 131/401 132/402 129/403 130/404
vt 0.974609375 0.94921875
vt 0.97265625 0.94921875
vt 0.97265625 0.951171875
vt 0.974609375 0.951171875
f 136/405 135/406 134/407 133/408
o model17
v -48.31735 20.05652 7.5
v -47.32115 20.14368 6.7
v -47.234 19.14749 6.7
v -48.23019 19.06033 7.5
v -48.31735 20.05652 19.9
v -47.32115 20.14368 19.8
v -47.234 19.14749 19.8
v -48.23019 19.06033 19.9
vt 0.8515625 0.970703125
vt 0.826171875 0.970703125
vt 0.826171875 0.97265625
vt 0.8515625 0.97265625
f 143/409 139/410 138/411 142/412
vt 0.82421875 0.970703125
vt 0.798828125 0.970703125
vt 0.798828125 0.97265625
vt 0.82421875 0.97265625
f 140/413 144/414 141/415 137/416
vt 0.826171875 0.97265625
vt 0.82421875 0.97265625
vt 0.82421875 0.998046875
vt 0.826171875 0.998046875
f 138/417 137/418 141/419 142/420
vt 0.828125 0.998046875
vt 0.826171875 0.998046875
vt 0.826171875 0.97265625
vt 0.828125 0.97265625
f 143/421 144/422 140/423 139/424
vt 0.826171875 0.970703125
vt 0.82421875 0.970703125
vt 0.82421875 0.97265625
vt 0.826171875 0.97265625
f 139/425 140/426 137/427 138/428
vt 0.853515625 0.970703125
vt 0.8515625 0.970703125
vt 0.8515625 0.97265625
vt 0.853515625 0.97265625
f 144/429 143/430 142/431 141/432
o model18
v -59.27549 19.09781 15.4
v -58.27929 19.18497 14.6
v -58.19214 18.18877 14.6
v -59.18833 18.10162 15.4
v -59.27549 19.09781 21.35
v -58.27929 19.18497 21.2
v -58.19214 18.18877 21.2
v -59.18833 18.10162 21.35
vt 0.859375 0.982421875
vt 0.845703125 0.982421875
vt 0.845703125 0.984375
vt 0.859375 0.984375
f 151/433 147/434 146/435 150/436
vt 0.84375 0.982421875
vt 0.830078125 0.982421875
vt 0.830078125 0.984375
vt 0.84375 0.984375
f 148/437 152/438 149/439 145/440
vt 0.845703125 0.984375
vt 0.84375 0.984375
vt 0.84375 0.998046875
vt 0.845703125 0.998046875
f 146/441 145/442 149/443 150/444
vt 0.84765625 0.998046875
vt 0.845703125 0.998046875
vt 0.845703125 0.984375
vt 0.84765625 0.984375
f 151/445 152/446 148/447 147/448
vt 0.845703125 0.982421875
vt 0.84375 0.982421875
vt 0.84375 0.984375
vt 0.845703125 0.984375
f 147/449 148/450 145/451 146/452
vt 0.861328125 0.982421875
vt 0.859375 0.982421875
vt 0.859375 0.984375
vt 0.861328125 0.984375
f 152/453 151/454 150/455 149/456
