# Converted from Decimation Beardie model: crowbar.bmodel
# Coordinates retain the original Beardie model units.
mtllib crowbar.mtl
usemtl crowbar_material
o gunModel0
v 0.05806151 35.04113 0
v 3.046646 34.77966 0
v -0.8753627 -10.0491 0
v -3.863947 -9.787636 0
v 1.054256 34.95397 1
v 2.050451 34.86681 1
v -1.871557 -9.961947 1
v -2.867752 -9.874791 1
vt 0.09375 0.265625
vt 0.078125 0.265625
vt 0.078125 0.96875
vt 0.09375 0.96875
f 7/1 3/2 2/3 6/4
vt 0.03125 0.265625
vt 0.015625 0.265625
vt 0.015625 0.96875
vt 0.03125 0.96875
f 4/5 8/6 5/7 1/8
vt 0.078125 0.96875
vt 0.03125 0.96875
vt 0.03125 0.984375
vt 0.078125 0.984375
f 2/9 1/10 5/11 6/12
vt 0.125 0.984375
vt 0.078125 0.984375
vt 0.078125 0.96875
vt 0.125 0.96875
f 7/13 8/14 4/15 3/16
vt 0.078125 0.265625
vt 0.03125 0.265625
vt 0.03125 0.96875
vt 0.078125 0.96875
f 3/17 4/18 1/19 2/20
vt 0.140625 0.265625
vt 0.09375 0.265625
vt 0.09375 0.96875
vt 0.140625 0.96875
f 8/21 7/22 6/23 5/24
o gunModel1
v 1.490035 39.93494 0
v 4.478619 39.67348 0
v 3.046646 34.77966 0
v 0.05806151 35.04113 0
v 2.48623 39.84779 1
v 3.482424 39.76063 1
v 2.050451 34.86681 1
v 1.054256 34.95397 1
vt 0.34375 0.890625
vt 0.328125 0.890625
vt 0.328125 0.96875
vt 0.34375 0.96875
f 15/25 11/26 10/27 14/28
vt 0.28125 0.890625
vt 0.265625 0.890625
vt 0.265625 0.96875
vt 0.28125 0.96875
f 12/29 16/30 13/31 9/32
vt 0.328125 0.96875
vt 0.28125 0.96875
vt 0.28125 0.984375
vt 0.328125 0.984375
f 10/33 9/34 13/35 14/36
vt 0.375 0.984375
vt 0.328125 0.984375
vt 0.328125 0.96875
vt 0.375 0.96875
f 15/37 16/38 12/39 11/40
vt 0.328125 0.890625
vt 0.28125 0.890625
vt 0.28125 0.96875
vt 0.328125 0.96875
f 11/41 12/42 9/43 10/44
vt 0.390625 0.890625
vt 0.34375 0.890625
vt 0.34375 0.96875
vt 0.390625 0.96875
f 16/45 15/46 14/47 13/48
o gunModel2
v 6.732476 42.48775 0
v 9.72106 42.22628 0
v 12.44818 38.97623 0
v 9.459592 39.2377 0
v 7.72867 42.40059 1
v 8.724865 42.31344 1
v 11.45198 39.06339 1
v 10.45579 39.15054 1
vt 0.59375 0.921875
vt 0.578125 0.921875
vt 0.578125 0.96875
vt 0.59375 0.96875
f 23/49 19/50 18/51 22/52
vt 0.53125 0.921875
vt 0.515625 0.921875
vt 0.515625 0.96875
vt 0.53125 0.96875
f 20/53 24/54 21/55 17/56
vt 0.578125 0.96875
vt 0.53125 0.96875
vt 0.53125 0.984375
vt 0.578125 0.984375
f 18/57 17/58 21/59 22/60
vt 0.625 0.984375
vt 0.578125 0.984375
vt 0.578125 0.96875
vt 0.625 0.96875
f 23/61 24/62 20/63 19/64
vt 0.578125 0.921875
vt 0.53125 0.921875
vt 0.53125 0.96875
vt 0.578125 0.96875
f 19/65 20/66 17/67 18/68
vt 0.640625 0.921875
vt 0.59375 0.921875
vt 0.59375 0.96875
vt 0.640625 0.96875
f 24/69 23/70 22/71 21/72
o gunModel3
v 4.740086 42.66206 0
v 7.72867 42.40059 0
v 4.478619 39.67348 0
v 1.490035 39.93494 0
v 5.736281 42.5749 1
v 6.732476 42.48775 1
v 3.482424 39.76063 1
v 2.48623 39.84779 1
vt 0.84375 0.921875
vt 0.828125 0.921875
vt 0.828125 0.96875
vt 0.84375 0.96875
f 31/73 27/74 26/75 30/76
vt 0.78125 0.921875
vt 0.765625 0.921875
vt 0.765625 0.96875
vt 0.78125 0.96875
f 28/77 32/78 29/79 25/80
vt 0.828125 0.96875
vt 0.78125 0.96875
vt 0.78125 0.984375
vt 0.828125 0.984375
f 26/81 25/82 29/83 30/84
vt 0.875 0.984375
vt 0.828125 0.984375
vt 0.828125 0.96875
vt 0.875 0.96875
f 31/85 32/86 28/87 27/88
vt 0.828125 0.921875
vt 0.78125 0.921875
vt 0.78125 0.96875
vt 0.828125 0.96875
f 27/89 28/90 25/91 26/92
vt 0.890625 0.921875
vt 0.84375 0.921875
vt 0.84375 0.96875
vt 0.890625 0.96875
f 32/93 31/94 30/95 29/96
o gunModel4
v 9.459592 39.2377 0
v 12.44818 38.97623 0
v 13.91763 32.82475 0.5
v 11.92524 32.99906 0.5
v 10.45579 39.15054 1
v 11.45198 39.06339 1
v 13.91763 32.82475 1
v 12.92144 32.91191 1
vt 0.34375 0.75
vt 0.328125 0.75
vt 0.328125 0.84375
vt 0.34375 0.84375
f 39/97 35/98 34/99 38/100
vt 0.28125 0.75
vt 0.265625 0.75
vt 0.265625 0.84375
vt 0.28125 0.84375
f 36/101 40/102 37/103 33/104
vt 0.328125 0.84375
vt 0.28125 0.84375
vt 0.28125 0.859375
vt 0.328125 0.859375
f 34/105 33/106 37/107 38/108
vt 0.375 0.859375
vt 0.328125 0.859375
vt 0.328125 0.84375
vt 0.375 0.84375
f 39/109 40/110 36/111 35/112
vt 0.328125 0.75
vt 0.28125 0.75
vt 0.28125 0.84375
vt 0.328125 0.84375
f 35/113 36/114 33/115 34/116
vt 0.390625 0.75
vt 0.34375 0.75
vt 0.34375 0.84375
vt 0.390625 0.84375
f 40/117 39/118 38/119 37/120
o gunModel5
v 6.776053 42.98585 0
v 7.772248 42.89869 0
v 9.72106 42.22628 0
v 4.740086 42.66206 0
v 6.776053 42.98585 0
v 7.772248 42.89869 0
v 8.724865 42.31344 1
v 5.736281 42.5749 1
vt 0.625 0.828125
vt 0.609375 0.828125
vt 0.609375 0.84375
vt 0.625 0.84375
f 47/121 43/122 42/123 46/124
vt 0.53125 0.828125
vt 0.515625 0.828125
vt 0.515625 0.84375
vt 0.53125 0.84375
f 44/125 48/126 45/127 41/128
vt 0.609375 0.84375
vt 0.53125 0.84375
vt 0.53125 0.859375
vt 0.609375 0.859375
f 42/129 41/130 45/131 46/132
vt 0.6875 0.859375
vt 0.609375 0.859375
vt 0.609375 0.84375
vt 0.6875 0.84375
f 47/133 48/134 44/135 43/136
vt 0.609375 0.828125
vt 0.53125 0.828125
vt 0.53125 0.84375
vt 0.609375 0.84375
f 43/137 44/138 41/139 42/140
vt 0.703125 0.828125
vt 0.625 0.828125
vt 0.625 0.84375
vt 0.703125 0.84375
f 48/141 47/142 46/143 45/144
o gunModel6
v 1.054256 34.95397 -1
v 2.050451 34.86681 -1
v -1.871557 -9.961947 -1
v -2.867752 -9.874791 -1
v 0.05806151 35.04113 0
v 3.046646 34.77966 0
v -0.8753627 -10.0491 0
v -3.863947 -9.787636 0
vt 0.84375 0.140625
vt 0.828125 0.140625
vt 0.828125 0.84375
vt 0.84375 0.84375
f 55/145 51/146 50/147 54/148
vt 0.78125 0.140625
vt 0.765625 0.140625
vt 0.765625 0.84375
vt 0.78125 0.84375
f 52/149 56/150 53/151 49/152
vt 0.828125 0.84375
vt 0.78125 0.84375
vt 0.78125 0.859375
vt 0.828125 0.859375
f 50/153 49/154 53/155 54/156
vt 0.875 0.859375
vt 0.828125 0.859375
vt 0.828125 0.84375
vt 0.875 0.84375
f 55/157 56/158 52/159 51/160
vt 0.828125 0.140625
vt 0.78125 0.140625
vt 0.78125 0.84375
vt 0.828125 0.84375
f 51/161 52/162 49/163 50/164
vt 0.890625 0.140625
vt 0.84375 0.140625
vt 0.84375 0.84375
vt 0.890625 0.84375
f 56/165 55/166 54/167 53/168
o gunModel7
v 2.48623 39.84779 -1
v 3.482424 39.76063 -1
v 2.050451 34.86681 -1
v 1.054256 34.95397 -1
v 1.490035 39.93494 0
v 4.478619 39.67348 0
v 3.046646 34.77966 0
v 0.05806151 35.04113 0
vt 0.34375 0.640625
vt 0.328125 0.640625
vt 0.328125 0.71875
vt 0.34375 0.71875
f 63/169 59/170 58/171 62/172
vt 0.28125 0.640625
vt 0.265625 0.640625
vt 0.265625 0.71875
vt 0.28125 0.71875
f 60/173 64/174 61/175 57/176
vt 0.328125 0.71875
vt 0.28125 0.71875
vt 0.28125 0.734375
vt 0.328125 0.734375
f 58/177 57/178 61/179 62/180
vt 0.375 0.734375
vt 0.328125 0.734375
vt 0.328125 0.71875
vt 0.375 0.71875
f 63/181 64/182 60/183 59/184
vt 0.328125 0.640625
vt 0.28125 0.640625
vt 0.28125 0.71875
vt 0.328125 0.71875
f 59/185 60/186 57/187 58/188
vt 0.390625 0.640625
vt 0.34375 0.640625
vt 0.34375 0.71875
vt 0.390625 0.71875
f 64/189 63/190 62/191 61/192
o gunModel8
v 7.72867 42.40059 -1
v 8.724865 42.31344 -1
v 11.45198 39.06339 -1
v 10.45579 39.15054 -1
v 6.732476 42.48775 0
v 9.72106 42.22628 0
v 12.44818 38.97623 0
v 9.459592 39.2377 0
vt 0.59375 0.671875
vt 0.578125 0.671875
vt 0.578125 0.71875
vt 0.59375 0.71875
f 71/193 67/194 66/195 70/196
vt 0.53125 0.671875
vt 0.515625 0.671875
vt 0.515625 0.71875
vt 0.53125 0.71875
f 68/197 72/198 69/199 65/200
vt 0.578125 0.71875
vt 0.53125 0.71875
vt 0.53125 0.734375
vt 0.578125 0.734375
f 66/201 65/202 69/203 70/204
vt 0.625 0.734375
vt 0.578125 0.734375
vt 0.578125 0.71875
vt 0.625 0.71875
f 71/205 72/206 68/207 67/208
vt 0.578125 0.671875
vt 0.53125 0.671875
vt 0.53125 0.71875
vt 0.578125 0.71875
f 67/209 68/210 65/211 66/212
vt 0.640625 0.671875
vt 0.59375 0.671875
vt 0.59375 0.71875
vt 0.640625 0.71875
f 72/213 71/214 70/215 69/216
o gunModel9
v 5.736281 42.5749 -1
v 6.732476 42.48775 -1
v 3.482424 39.76063 -1
v 2.48623 39.84779 -1
v 4.740086 42.66206 0
v 7.72867 42.40059 0
v 4.478619 39.67348 0
v 1.490035 39.93494 0
vt 0.34375 0.546875
vt 0.328125 0.546875
vt 0.328125 0.59375
vt 0.34375 0.59375
f 79/217 75/218 74/219 78/220
vt 0.28125 0.546875
vt 0.265625 0.546875
vt 0.265625 0.59375
vt 0.28125 0.59375
f 76/221 80/222 77/223 73/224
vt 0.328125 0.59375
vt 0.28125 0.59375
vt 0.28125 0.609375
vt 0.328125 0.609375
f 74/225 73/226 77/227 78/228
vt 0.375 0.609375
vt 0.328125 0.609375
vt 0.328125 0.59375
vt 0.375 0.59375
f 79/229 80/230 76/231 75/232
vt 0.328125 0.546875
vt 0.28125 0.546875
vt 0.28125 0.59375
vt 0.328125 0.59375
f 75/233 76/234 73/235 74/236
vt 0.390625 0.546875
vt 0.34375 0.546875
vt 0.34375 0.59375
vt 0.390625 0.59375
f 80/237 79/238 78/239 77/240
o gunModel10
v 10.45579 39.15054 -1
v 11.45198 39.06339 -1
v 13.91763 32.82475 -1
v 12.92144 32.91191 -1
v 9.459592 39.2377 0
v 12.44818 38.97623 0
v 13.91763 32.82475 -0.5
v 11.92524 32.99906 -0.5
vt 0.59375 0.5
vt 0.578125 0.5
vt 0.578125 0.59375
vt 0.59375 0.59375
f 87/241 83/242 82/243 86/244
vt 0.53125 0.5
vt 0.515625 0.5
vt 0.515625 0.59375
vt 0.53125 0.59375
f 84/245 88/246 85/247 81/248
vt 0.578125 0.59375
vt 0.53125 0.59375
vt 0.53125 0.609375
vt 0.578125 0.609375
f 82/249 81/250 85/251 86/252
vt 0.625 0.609375
vt 0.578125 0.609375
vt 0.578125 0.59375
vt 0.625 0.59375
f 87/253 88/254 84/255 83/256
vt 0.578125 0.5
vt 0.53125 0.5
vt 0.53125 0.59375
vt 0.578125 0.59375
f 83/257 84/258 81/259 82/260
vt 0.640625 0.5
vt 0.59375 0.5
vt 0.59375 0.59375
vt 0.640625 0.59375
f 88/261 87/262 86/263 85/264
o gunModel11
v 6.776053 42.98585 0
v 7.772248 42.89869 0
v 8.724865 42.31344 -1
v 5.736281 42.5749 -1
v 6.776053 42.98585 0
v 7.772248 42.89869 0
v 9.72106 42.22628 0
v 4.740086 42.66206 0
vt 0.375 0.453125
vt 0.359375 0.453125
vt 0.359375 0.46875
vt 0.375 0.46875
f 95/265 91/266 90/267 94/268
vt 0.28125 0.453125
vt 0.265625 0.453125
vt 0.265625 0.46875
vt 0.28125 0.46875
f 92/269 96/270 93/271 89/272
vt 0.359375 0.46875
vt 0.28125 0.46875
vt 0.28125 0.484375
vt 0.359375 0.484375
f 90/273 89/274 93/275 94/276
vt 0.4375 0.484375
vt 0.359375 0.484375
vt 0.359375 0.46875
vt 0.4375 0.46875
f 95/277 96/278 92/279 91/280
vt 0.359375 0.453125
vt 0.28125 0.453125
vt 0.28125 0.46875
vt 0.359375 0.46875
f 91/281 92/282 89/283 90/284
vt 0.453125 0.453125
vt 0.375 0.453125
vt 0.375 0.46875
vt 0.453125 0.46875
f 96/285 95/286 94/287 93/288
o gunModel12
v -3.863947 -9.787636 0
v -0.8753627 -10.0491 0
v -3.477842 -16.84815 0.5
v -6.466426 -16.58669 0.5
v -2.867752 -9.874791 1
v -1.871557 -9.961947 1
v -4.474037 -16.761 1
v -5.470232 -16.67384 1
vt 0.59375 0.359375
vt 0.578125 0.359375
vt 0.578125 0.46875
vt 0.59375 0.46875
f 103/289 99/290 98/291 102/292
vt 0.53125 0.359375
vt 0.515625 0.359375
vt 0.515625 0.46875
vt 0.53125 0.46875
f 100/293 104/294 101/295 97/296
vt 0.578125 0.46875
vt 0.53125 0.46875
vt 0.53125 0.484375
vt 0.578125 0.484375
f 98/297 97/298 101/299 102/300
vt 0.625 0.484375
vt 0.578125 0.484375
vt 0.578125 0.46875
vt 0.625 0.46875
f 103/301 104/302 100/303 99/304
vt 0.578125 0.359375
vt 0.53125 0.359375
vt 0.53125 0.46875
vt 0.578125 0.46875
f 99/305 100/306 97/307 98/308
vt 0.640625 0.359375
vt 0.59375 0.359375
vt 0.59375 0.46875
vt 0.640625 0.46875
f 104/309 103/310 102/311 101/312
o gunModel13
v -2.867752 -9.874791 -1
v -1.871557 -9.961947 -1
v -4.474037 -16.761 -1
v -5.470232 -16.67384 -1
v -3.863947 -9.787636 0
v -0.8753627 -10.0491 0
v -3.477842 -16.84815 -0.5
v -6.466426 -16.58669 -0.5
vt 0.34375 0.234375
vt 0.328125 0.234375
vt 0.328125 0.34375
vt 0.34375 0.34375
f 111/313 107/314 106/315 110/316
vt 0.28125 0.234375
vt 0.265625 0.234375
vt 0.265625 0.34375
vt 0.28125 0.34375
f 108/317 112/318 109/319 105/320
vt 0.328125 0.34375
vt 0.28125 0.34375
vt 0.28125 0.359375
vt 0.328125 0.359375
f 106/321 105/322 109/323 110/324
vt 0.375 0.359375
vt 0.328125 0.359375
vt 0.328125 0.34375
vt 0.375 0.34375
f 111/325 112/326 108/327 107/328
vt 0.328125 0.234375
vt 0.28125 0.234375
vt 0.28125 0.34375
vt 0.328125 0.34375
f 107/329 108/330 105/331 106/332
vt 0.390625 0.234375
vt 0.34375 0.234375
vt 0.34375 0.34375
vt 0.390625 0.34375
f 112/333 111/334 110/335 109/336
