# Converted from Decimation Beardie model: baseballbatnails.bmodel
# Coordinates retain the original Beardie model units.
mtllib baseballbatnails.mtl
usemtl baseballbatnails_material
o gunModel0
v 1.448748 50.89309 -2.5
v 4.437332 50.63162 -2.5
v 0.8016281 14.81219 -2
v -1.190761 14.9865 -2
v 1.448748 50.89309 2.5
v 4.437332 50.63162 2.5
v 0.8016281 14.81219 2
v -1.190761 14.9865 2
vt 0.09375 0.6796875
vt 0.0625 0.6796875
vt 0.0625 0.9609375
vt 0.09375 0.9609375
f 7/1 3/2 2/3 6/4
vt 0.0390625 0.6796875
vt 0.0078125 0.6796875
vt 0.0078125 0.9609375
vt 0.0390625 0.9609375
f 4/5 8/6 5/7 1/8
vt 0.0625 0.9609375
vt 0.0390625 0.9609375
vt 0.0390625 0.9921875
vt 0.0625 0.9921875
f 2/9 1/10 5/11 6/12
vt 0.0859375 0.9921875
vt 0.0625 0.9921875
vt 0.0625 0.9609375
vt 0.0859375 0.9609375
f 7/13 8/14 4/15 3/16
vt 0.0625 0.6796875
vt 0.0390625 0.6796875
vt 0.0390625 0.9609375
vt 0.0625 0.9609375
f 3/17 4/18 1/19 2/20
vt 0.1171875 0.6796875
vt 0.09375 0.6796875
vt 0.09375 0.9609375
vt 0.1171875 0.9609375
f 8/21 7/22 6/23 5/24
o gunModel1
v -0.045544 51.02382 -1.5
v 1.448748 50.89309 -2.5
v -1.190761 14.9865 -2
v -2.186956 15.07365 -1
v -0.045544 51.02382 1.5
v 1.448748 50.89309 2.5
v -1.190761 14.9865 2
v -2.186956 15.07365 1
vt 0.203125 0.6796875
vt 0.171875 0.6796875
vt 0.171875 0.9609375
vt 0.203125 0.9609375
f 15/25 11/26 10/27 14/28
vt 0.1640625 0.6796875
vt 0.1328125 0.6796875
vt 0.1328125 0.9609375
vt 0.1640625 0.9609375
f 12/29 16/30 13/31 9/32
vt 0.171875 0.9609375
vt 0.1640625 0.9609375
vt 0.1640625 0.9921875
vt 0.171875 0.9921875
f 10/33 9/34 13/35 14/36
vt 0.1796875 0.9921875
vt 0.171875 0.9921875
vt 0.171875 0.9609375
vt 0.1796875 0.9609375
f 15/37 16/38 12/39 11/40
vt 0.171875 0.6796875
vt 0.1640625 0.6796875
vt 0.1640625 0.9609375
vt 0.171875 0.9609375
f 11/41 12/42 9/43 10/44
vt 0.2109375 0.6796875
vt 0.203125 0.6796875
vt 0.203125 0.9609375
vt 0.2109375 0.9609375
f 16/45 15/46 14/47 13/48
o gunModel2
v 5.283601 94.72565 -3.5
v 8.272185 94.46418 -3.5
v 4.437332 50.63162 -2.5
v 1.448748 50.89309 -2.5
v 5.283601 94.72565 3.5
v 8.272185 94.46418 3.5
v 4.437332 50.63162 2.5
v 1.448748 50.89309 2.5
vt 0.390625 0.59375
vt 0.3359375 0.59375
vt 0.3359375 0.9375
vt 0.390625 0.9375
f 23/49 19/50 18/51 22/52
vt 0.3125 0.59375
vt 0.2578125 0.59375
vt 0.2578125 0.9375
vt 0.3125 0.9375
f 20/53 24/54 21/55 17/56
vt 0.3359375 0.9375
vt 0.3125 0.9375
vt 0.3125 0.9921875
vt 0.3359375 0.9921875
f 18/57 17/58 21/59 22/60
vt 0.359375 0.9921875
vt 0.3359375 0.9921875
vt 0.3359375 0.9375
vt 0.359375 0.9375
f 23/61 24/62 20/63 19/64
vt 0.3359375 0.59375
vt 0.3125 0.59375
vt 0.3125 0.9375
vt 0.3359375 0.9375
f 19/65 20/66 17/67 18/68
vt 0.4140625 0.59375
vt 0.390625 0.59375
vt 0.390625 0.9375
vt 0.4140625 0.9375
f 24/69 23/70 22/71 21/72
o gunModel3
v 8.272185 94.46418 -3.5
v 9.766477 94.33345 -2.5
v 5.931624 50.50088 -1.5
v 4.437332 50.63162 -2.5
v 8.272185 94.46418 3.5
v 9.766477 94.33345 2.5
v 5.931624 50.50088 1.5
v 4.437332 50.63162 2.5
vt 0.5625 0.59375
vt 0.5078125 0.59375
vt 0.5078125 0.9375
vt 0.5625 0.9375
f 31/73 27/74 26/75 30/76
vt 0.5 0.59375
vt 0.4453125 0.59375
vt 0.4453125 0.9375
vt 0.5 0.9375
f 28/77 32/78 29/79 25/80
vt 0.5078125 0.9375
vt 0.5 0.9375
vt 0.5 0.9921875
vt 0.5078125 0.9921875
f 26/81 25/82 29/83 30/84
vt 0.515625 0.9921875
vt 0.5078125 0.9921875
vt 0.5078125 0.9375
vt 0.515625 0.9375
f 31/85 32/86 28/87 27/88
vt 0.5078125 0.59375
vt 0.5 0.59375
vt 0.5 0.9375
vt 0.5078125 0.9375
f 27/89 28/90 25/91 26/92
vt 0.5703125 0.59375
vt 0.5625 0.59375
vt 0.5625 0.9375
vt 0.5703125 0.9375
f 32/93 31/94 30/95 29/96
o gunModel4
v 3.789309 94.85639 -2.5
v 5.283601 94.72565 -3.5
v 1.448748 50.89309 -2.5
v -0.045544 51.02382 -1.5
v 3.789309 94.85639 2.5
v 5.283601 94.72565 3.5
v 1.448748 50.89309 2.5
v -0.045544 51.02382 1.5
vt 0.75 0.59375
vt 0.6953125 0.59375
vt 0.6953125 0.9375
vt 0.75 0.9375
f 39/97 35/98 34/99 38/100
vt 0.6875 0.59375
vt 0.6328125 0.59375
vt 0.6328125 0.9375
vt 0.6875 0.9375
f 36/101 40/102 37/103 33/104
vt 0.6953125 0.9375
vt 0.6875 0.9375
vt 0.6875 0.9921875
vt 0.6953125 0.9921875
f 34/105 33/106 37/107 38/108
vt 0.703125 0.9921875
vt 0.6953125 0.9921875
vt 0.6953125 0.9375
vt 0.703125 0.9375
f 39/109 40/110 36/111 35/112
vt 0.6953125 0.59375
vt 0.6875 0.59375
vt 0.6875 0.9375
vt 0.6953125 0.9375
f 35/113 36/114 33/115 34/116
vt 0.7578125 0.59375
vt 0.75 0.59375
vt 0.75 0.9375
vt 0.7578125 0.9375
f 40/117 39/118 38/119 37/120
o gunModel5
v 4.437332 50.63162 -2.5
v 5.931624 50.50088 -1.5
v 1.797823 14.72503 -1
v 0.8016281 14.81219 -2
v 4.437332 50.63162 2.5
v 5.931624 50.50088 1.5
v 1.797823 14.72503 1
v 0.8016281 14.81219 2
vt 0.890625 0.6796875
vt 0.859375 0.6796875
vt 0.859375 0.9609375
vt 0.890625 0.9609375
f 47/121 43/122 42/123 46/124
vt 0.8515625 0.6796875
vt 0.8203125 0.6796875
vt 0.8203125 0.9609375
vt 0.8515625 0.9609375
f 44/125 48/126 45/127 41/128
vt 0.859375 0.9609375
vt 0.8515625 0.9609375
vt 0.8515625 0.9921875
vt 0.859375 0.9921875
f 42/129 41/130 45/131 46/132
vt 0.8671875 0.9921875
vt 0.859375 0.9921875
vt 0.859375 0.9609375
vt 0.8671875 0.9609375
f 47/133 48/134 44/135 43/136
vt 0.859375 0.6796875
vt 0.8515625 0.6796875
vt 0.8515625 0.9609375
vt 0.859375 0.9609375
f 43/137 44/138 41/139 42/140
vt 0.8984375 0.6796875
vt 0.890625 0.6796875
vt 0.890625 0.9609375
vt 0.8984375 0.9609375
f 48/141 47/142 46/143 45/144
o gunModel6
v 5.457912 96.71804 -2.5
v 8.446496 96.45657 -2.5
v 8.272185 94.46418 -3.5
v 5.283601 94.72565 -3.5
v 5.457912 96.71804 2.5
v 8.446496 96.45657 2.5
v 8.272185 94.46418 3.5
v 5.283601 94.72565 3.5
vt 0.140625 0.546875
vt 0.0859375 0.546875
vt 0.0859375 0.5625
vt 0.140625 0.5625
f 55/145 51/146 50/147 54/148
vt 0.0625 0.546875
vt 0.0078125 0.546875
vt 0.0078125 0.5625
vt 0.0625 0.5625
f 52/149 56/150 53/151 49/152
vt 0.0859375 0.5625
vt 0.0625 0.5625
vt 0.0625 0.6171875
vt 0.0859375 0.6171875
f 50/153 49/154 53/155 54/156
vt 0.109375 0.6171875
vt 0.0859375 0.6171875
vt 0.0859375 0.5625
vt 0.109375 0.5625
f 55/157 56/158 52/159 51/160
vt 0.0859375 0.546875
vt 0.0625 0.546875
vt 0.0625 0.5625
vt 0.0859375 0.5625
f 51/161 52/162 49/163 50/164
vt 0.1640625 0.546875
vt 0.140625 0.546875
vt 0.140625 0.5625
vt 0.1640625 0.5625
f 56/165 55/166 54/167 53/168
o gunModel7
v 8.446496 96.45657 -2.5
v 9.442691 96.36942 -2
v 9.766477 94.33345 -2.5
v 8.272185 94.46418 -3.5
v 8.446496 96.45657 2.5
v 9.442691 96.36942 2
v 9.766477 94.33345 2.5
v 8.272185 94.46418 3.5
vt 0.875 0.546875
vt 0.8203125 0.546875
vt 0.8203125 0.5625
vt 0.875 0.5625
f 63/169 59/170 58/171 62/172
vt 0.8125 0.546875
vt 0.7578125 0.546875
vt 0.7578125 0.5625
vt 0.8125 0.5625
f 60/173 64/174 61/175 57/176
vt 0.8203125 0.5625
vt 0.8125 0.5625
vt 0.8125 0.6171875
vt 0.8203125 0.6171875
f 58/177 57/178 61/179 62/180
vt 0.828125 0.6171875
vt 0.8203125 0.6171875
vt 0.8203125 0.5625
vt 0.828125 0.5625
f 63/181 64/182 60/183 59/184
vt 0.8203125 0.546875
vt 0.8125 0.546875
vt 0.8125 0.5625
vt 0.8203125 0.5625
f 59/185 60/186 57/187 58/188
vt 0.8828125 0.546875
vt 0.875 0.546875
vt 0.875 0.5625
vt 0.8828125 0.5625
f 64/189 63/190 62/191 61/192
o gunModel8
v 4.461717 96.8052 -2
v 5.457912 96.71804 -2.5
v 5.283601 94.72565 -3.5
v 3.789309 94.85639 -2.5
v 4.461717 96.8052 2
v 5.457912 96.71804 2.5
v 5.283601 94.72565 3.5
v 3.789309 94.85639 2.5
vt 0.25 0.484375
vt 0.1953125 0.484375
vt 0.1953125 0.5
vt 0.25 0.5
f 71/193 67/194 66/195 70/196
vt 0.1875 0.484375
vt 0.1328125 0.484375
vt 0.1328125 0.5
vt 0.1875 0.5
f 68/197 72/198 69/199 65/200
vt 0.1953125 0.5
vt 0.1875 0.5
vt 0.1875 0.5546875
vt 0.1953125 0.5546875
f 66/201 65/202 69/203 70/204
vt 0.203125 0.5546875
vt 0.1953125 0.5546875
vt 0.1953125 0.5
vt 0.203125 0.5
f 71/205 72/206 68/207 67/208
vt 0.1953125 0.484375
vt 0.1875 0.484375
vt 0.1875 0.5
vt 0.1953125 0.5
f 67/209 68/210 65/211 66/212
vt 0.2578125 0.484375
vt 0.25 0.484375
vt 0.25 0.5
vt 0.2578125 0.5
f 72/213 71/214 70/215 69/216
o gunModel9
v -2.186956 15.07365 -1
v -1.190761 14.9865 -2
v -4.216375 -13.85957 -2.5
v -5.710667 -13.72884 -1.5
v -2.186956 15.07365 1
v -1.190761 14.9865 2
v -4.216375 -13.85957 2.5
v -5.710667 -13.72884 1.5
vt 0.390625 0.296875
vt 0.359375 0.296875
vt 0.359375 0.5234375
vt 0.390625 0.5234375
f 79/217 75/218 74/219 78/220
vt 0.3515625 0.296875
vt 0.3203125 0.296875
vt 0.3203125 0.5234375
vt 0.3515625 0.5234375
f 76/221 80/222 77/223 73/224
vt 0.359375 0.5234375
vt 0.3515625 0.5234375
vt 0.3515625 0.5546875
vt 0.359375 0.5546875
f 74/225 73/226 77/227 78/228
vt 0.3671875 0.5546875
vt 0.359375 0.5546875
vt 0.359375 0.5234375
vt 0.3671875 0.5234375
f 79/229 80/230 76/231 75/232
vt 0.359375 0.296875
vt 0.3515625 0.296875
vt 0.3515625 0.5234375
vt 0.359375 0.5234375
f 75/233 76/234 73/235 74/236
vt 0.3984375 0.296875
vt 0.390625 0.296875
vt 0.390625 0.5234375
vt 0.3984375 0.5234375
f 80/237 79/238 78/239 77/240
o gunModel10
v 0.8016281 14.81219 -2
v 1.797823 14.72503 -1
v 0.2665011 -14.25177 -1.5
v -1.227791 -14.12104 -2.5
v 0.8016281 14.81219 2
v 1.797823 14.72503 1
v 0.2665011 -14.25177 1.5
v -1.227791 -14.12104 2.5
vt 0.640625 0.359375
vt 0.609375 0.359375
vt 0.609375 0.5859375
vt 0.640625 0.5859375
f 87/241 83/242 82/243 86/244
vt 0.6015625 0.359375
vt 0.5703125 0.359375
vt 0.5703125 0.5859375
vt 0.6015625 0.5859375
f 84/245 88/246 85/247 81/248
vt 0.609375 0.5859375
vt 0.6015625 0.5859375
vt 0.6015625 0.6171875
vt 0.609375 0.6171875
f 82/249 81/250 85/251 86/252
vt 0.6171875 0.6171875
vt 0.609375 0.6171875
vt 0.609375 0.5859375
vt 0.6171875 0.5859375
f 87/253 88/254 84/255 83/256
vt 0.609375 0.359375
vt 0.6015625 0.359375
vt 0.6015625 0.5859375
vt 0.609375 0.5859375
f 83/257 84/258 81/259 82/260
vt 0.6484375 0.359375
vt 0.640625 0.359375
vt 0.640625 0.5859375
vt 0.6484375 0.5859375
f 88/261 87/262 86/263 85/264
o gunModel11
v -1.190761 14.9865 -2
v 0.8016281 14.81219 -2
v -1.227791 -14.12104 -2.5
v -4.216375 -13.85957 -2.5
v -1.190761 14.9865 2
v 0.8016281 14.81219 2
v -1.227791 -14.12104 2.5
v -4.216375 -13.85957 2.5
vt 0.53125 0.296875
vt 0.5 0.296875
vt 0.5 0.5234375
vt 0.53125 0.5234375
f 95/265 91/266 90/267 94/268
vt 0.4765625 0.296875
vt 0.4453125 0.296875
vt 0.4453125 0.5234375
vt 0.4765625 0.5234375
f 92/269 96/270 93/271 89/272
vt 0.5 0.5234375
vt 0.4765625 0.5234375
vt 0.4765625 0.5546875
vt 0.5 0.5546875
f 90/273 89/274 93/275 94/276
vt 0.5234375 0.5546875
vt 0.5 0.5546875
vt 0.5 0.5234375
vt 0.5234375 0.5234375
f 95/277 96/278 92/279 91/280
vt 0.5 0.296875
vt 0.4765625 0.296875
vt 0.4765625 0.5234375
vt 0.5 0.5234375
f 91/281 92/282 89/283 90/284
vt 0.5546875 0.296875
vt 0.53125 0.296875
vt 0.53125 0.5234375
vt 0.5546875 0.5234375
f 96/285 95/286 94/287 93/288
o gunModel12
v 4.660309 94.66645 -5.125899
v 5.590337 94.58508 -5.484267
v 5.503181 93.58889 -5.484267
v 4.573153 93.67025 -5.125899
v 8.587356 94.32288 5.143485
v 9.517384 94.24151 4.785117
v 9.430229 93.24531 4.785117
v 8.500201 93.32668 5.143485
vt 0.625 0.1875
vt 0.5390625 0.1875
vt 0.5390625 0.1953125
vt 0.625 0.1953125
f 103/289 99/290 98/291 102/292
vt 0.53125 0.1875
vt 0.4453125 0.1875
vt 0.4453125 0.1953125
vt 0.53125 0.1953125
f 100/293 104/294 101/295 97/296
vt 0.5390625 0.1953125
vt 0.53125 0.1953125
vt 0.53125 0.28125
vt 0.5390625 0.28125
f 98/297 97/298 101/299 102/300
vt 0.546875 0.28125
vt 0.5390625 0.28125
vt 0.5390625 0.1953125
vt 0.546875 0.1953125
f 103/301 104/302 100/303 99/304
vt 0.5390625 0.1875
vt 0.53125 0.1875
vt 0.53125 0.1953125
vt 0.5390625 0.1953125
f 99/305 100/306 97/307 98/308
vt 0.6328125 0.1875
vt 0.625 0.1875
vt 0.625 0.1953125
vt 0.6328125 0.1953125
f 104/309 103/310 102/311 101/312
o gunModel13
v 9.838898 90.05812 -3.999255
v 10.53091 89.99758 -3.279915
v 10.44376 89.00138 -3.279915
v 9.751742 89.06192 -3.999255
v 1.956271 90.74776 3.641988
v 2.648286 90.68722 4.361327
v 2.56113 89.69102 4.361327
v 1.869115 89.75156 3.641988
vt 0.625 0.1875
vt 0.5390625 0.1875
vt 0.5390625 0.1953125
vt 0.625 0.1953125
f 111/313 107/314 106/315 110/316
vt 0.53125 0.1875
vt 0.4453125 0.1875
vt 0.4453125 0.1953125
vt 0.53125 0.1953125
f 108/317 112/318 109/319 105/320
vt 0.5390625 0.1953125
vt 0.53125 0.1953125
vt 0.53125 0.28125
vt 0.5390625 0.28125
f 106/321 105/322 109/323 110/324
vt 0.546875 0.28125
vt 0.5390625 0.28125
vt 0.5390625 0.1953125
vt 0.546875 0.1953125
f 111/325 112/326 108/327 107/328
vt 0.5390625 0.1875
vt 0.53125 0.1875
vt 0.53125 0.1953125
vt 0.5390625 0.1953125
f 107/329 108/330 105/331 106/332
vt 0.6328125 0.1875
vt 0.625 0.1875
vt 0.625 0.1953125
vt 0.6328125 0.1953125
f 112/333 111/334 110/335 109/336
o gunModel14
v 7.919376 86.38575 -5.527081
v 8.855493 86.30385 -5.185061
v 8.768337 85.30766 -5.185061
v 7.83222 85.38956 -5.527081
v 4.171471 86.71365 4.809538
v 5.107588 86.63175 5.151558
v 5.020433 85.63556 5.151558
v 4.084316 85.71746 4.809538
vt 0.625 0.1875
vt 0.5390625 0.1875
vt 0.5390625 0.1953125
vt 0.625 0.1953125
f 119/337 115/338 114/339 118/340
vt 0.53125 0.1875
vt 0.4453125 0.1875
vt 0.4453125 0.1953125
vt 0.53125 0.1953125
f 116/341 120/342 117/343 113/344
vt 0.5390625 0.1953125
vt 0.53125 0.1953125
vt 0.53125 0.28125
vt 0.5390625 0.28125
f 114/345 113/346 117/347 118/348
vt 0.546875 0.28125
vt 0.5390625 0.28125
vt 0.5390625 0.1953125
vt 0.546875 0.1953125
f 119/349 120/350 116/351 115/352
vt 0.5390625 0.1875
vt 0.53125 0.1875
vt 0.53125 0.1953125
vt 0.5390625 0.1953125
f 115/353 116/354 113/355 114/356
vt 0.6328125 0.1875
vt 0.625 0.1875
vt 0.625 0.1953125
vt 0.6328125 0.1953125
f 120/357 119/358 118/359 117/360
o gunModel15
v 0.3425529 88.8613 1.931905
v 0.118458 88.8809 0.9575354
v 0.03130225 87.88471 0.9575354
v 0.2553972 87.8651 1.931905
v 11.01984 87.92716 -0.5425548
v 10.79574 87.94676 -1.516925
v 10.70859 86.95057 -1.516925
v 10.93268 86.93096 -0.5425548
vt 0.625 0.1875
vt 0.5390625 0.1875
vt 0.5390625 0.1953125
vt 0.625 0.1953125
f 127/361 123/362 122/363 126/364
vt 0.53125 0.1875
vt 0.4453125 0.1875
vt 0.4453125 0.1953125
vt 0.53125 0.1953125
f 124/365 128/366 125/367 121/368
vt 0.5390625 0.1953125
vt 0.53125 0.1953125
vt 0.53125 0.28125
vt 0.5390625 0.28125
f 122/369 121/370 125/371 126/372
vt 0.546875 0.28125
vt 0.5390625 0.28125
vt 0.5390625 0.1953125
vt 0.546875 0.1953125
f 127/373 128/374 124/375 123/376
vt 0.5390625 0.1875
vt 0.53125 0.1875
vt 0.53125 0.1953125
vt 0.5390625 0.1953125
f 123/377 124/378 121/379 122/380
vt 0.6328125 0.1875
vt 0.625 0.1875
vt 0.625 0.1953125
vt 0.6328125 0.1953125
f 128/381 127/382 126/383 125/384
o gunModel16
v -0.875083 83.52695 6.144555
v -1.460632 83.57817 5.335538
v -1.547787 82.58198 5.335538
v -0.9622388 82.53075 6.144555
v 7.990239 82.75133 -0.3210843
v 7.40469 82.80256 -1.130101
v 7.317534 81.80636 -1.130101
v 7.903083 81.75514 -0.3210843
vt 0.625 0.1875
vt 0.5390625 0.1875
vt 0.5390625 0.1953125
vt 0.625 0.1953125
f 135/385 131/386 130/387 134/388
vt 0.53125 0.1875
vt 0.4453125 0.1875
vt 0.4453125 0.1953125
vt 0.53125 0.1953125
f 132/389 136/390 133/391 129/392
vt 0.5390625 0.1953125
vt 0.53125 0.1953125
vt 0.53125 0.28125
vt 0.5390625 0.28125
f 130/393 129/394 133/395 134/396
vt 0.546875 0.28125
vt 0.5390625 0.28125
vt 0.5390625 0.1953125
vt 0.546875 0.1953125
f 135/397 136/398 132/399 131/400
vt 0.5390625 0.1875
vt 0.53125 0.1875
vt 0.53125 0.1953125
vt 0.5390625 0.1953125
f 131/401 132/402 129/403 130/404
vt 0.6328125 0.1875
vt 0.625 0.1875
vt 0.625 0.1953125
vt 0.6328125 0.1953125
f 136/405 135/406 134/407 133/408
o gunModel17
v -0.7071903 86.41432 -1.690746
v -0.3828612 86.38595 -2.636264
v -0.470017 85.38975 -2.636264
v -0.794346 85.41813 -1.690746
v 9.653937 85.50784 1.890501
v 9.978266 85.47947 0.9449828
v 9.89111 84.48327 0.9449828
v 9.566781 84.51165 1.890501
vt 0.625 0.1875
vt 0.5390625 0.1875
vt 0.5390625 0.1953125
vt 0.625 0.1953125
f 143/409 139/410 138/411 142/412
vt 0.53125 0.1875
vt 0.4453125 0.1875
vt 0.4453125 0.1953125
vt 0.53125 0.1953125
f 140/413 144/414 141/415 137/416
vt 0.5390625 0.1953125
vt 0.53125 0.1953125
vt 0.53125 0.28125
vt 0.5390625 0.28125
f 138/417 137/418 141/419 142/420
vt 0.546875 0.28125
vt 0.5390625 0.28125
vt 0.5390625 0.1953125
vt 0.546875 0.1953125
f 143/421 144/422 140/423 139/424
vt 0.5390625 0.1875
vt 0.53125 0.1875
vt 0.53125 0.1953125
vt 0.5390625 0.1953125
f 139/425 140/426 137/427 138/428
vt 0.6328125 0.1875
vt 0.625 0.1875
vt 0.625 0.1953125
vt 0.6328125 0.1953125
f 144/429 143/430 142/431 141/432
o gunModel18
v 1.525724 91.83299 -0.3351907
v 1.850053 91.80462 -1.280709
v 1.762897 90.80842 -1.280709
v 1.438568 90.8368 -0.3351907
v 11.88685 90.92651 3.246057
v 12.21118 90.89814 2.300538
v 12.12402 89.90194 2.300538
v 11.7997 89.93032 3.246057
vt 0.625 0.1875
vt 0.5390625 0.1875
vt 0.5390625 0.1953125
vt 0.625 0.1953125
f 151/433 147/434 146/435 150/436
vt 0.53125 0.1875
vt 0.4453125 0.1875
vt 0.4453125 0.1953125
vt 0.53125 0.1953125
f 148/437 152/438 149/439 145/440
vt 0.5390625 0.1953125
vt 0.53125 0.1953125
vt 0.53125 0.28125
vt 0.5390625 0.28125
f 146/441 145/442 149/443 150/444
vt 0.546875 0.28125
vt 0.5390625 0.28125
vt 0.5390625 0.1953125
vt 0.546875 0.1953125
f 151/445 152/446 148/447 147/448
vt 0.5390625 0.1875
vt 0.53125 0.1875
vt 0.53125 0.1953125
vt 0.5390625 0.1953125
f 147/449 148/450 145/451 146/452
vt 0.6328125 0.1875
vt 0.625 0.1875
vt 0.625 0.1953125
vt 0.6328125 0.1953125
f 152/453 151/454 150/455 149/456
o gunModel19
v 1.742604 94.41684 -1.262223
v 1.707837 94.41988 -2.261614
v 1.620681 93.42369 -2.261614
v 1.655448 93.42065 -1.262223
v 12.69407 93.45871 -1.646119
v 12.6593 93.46175 -2.645509
v 12.57215 92.46556 -2.645509
v 12.60691 92.46252 -1.646119
vt 0.625 0.1875
vt 0.5390625 0.1875
vt 0.5390625 0.1953125
vt 0.625 0.1953125
f 159/457 155/458 154/459 158/460
vt 0.53125 0.1875
vt 0.4453125 0.1875
vt 0.4453125 0.1953125
vt 0.53125 0.1953125
f 156/461 160/462 157/463 153/464
vt 0.5390625 0.1953125
vt 0.53125 0.1953125
vt 0.53125 0.28125
vt 0.5390625 0.28125
f 154/465 153/466 157/467 158/468
vt 0.546875 0.28125
vt 0.5390625 0.28125
vt 0.5390625 0.1953125
vt 0.546875 0.1953125
f 159/469 160/470 156/471 155/472
vt 0.5390625 0.1875
vt 0.53125 0.1875
vt 0.53125 0.1953125
vt 0.5390625 0.1953125
f 155/473 156/474 153/475 154/476
vt 0.6328125 0.1875
vt 0.625 0.1875
vt 0.625 0.1953125
vt 0.6328125 0.1953125
f 160/477 159/478 158/479 157/480
o gunModel20
v 7.960664 75.42761 -4.127081
v 8.896781 75.34571 -3.785061
v 8.809625 74.34952 -3.785061
v 7.873508 74.43142 -4.127081
v 4.212759 75.75551 6.209538
v 5.148876 75.67361 6.551558
v 5.06172 74.67742 6.551558
v 4.125604 74.75932 6.209538
vt 0.625 0.1875
vt 0.5390625 0.1875
vt 0.5390625 0.1953125
vt 0.625 0.1953125
f 167/481 163/482 162/483 166/484
vt 0.53125 0.1875
vt 0.4453125 0.1875
vt 0.4453125 0.1953125
vt 0.53125 0.1953125
f 164/485 168/486 165/487 161/488
vt 0.5390625 0.1953125
vt 0.53125 0.1953125
vt 0.53125 0.28125
vt 0.5390625 0.28125
f 162/489 161/490 165/491 166/492
vt 0.546875 0.28125
vt 0.5390625 0.28125
vt 0.5390625 0.1953125
vt 0.546875 0.1953125
f 167/493 168/494 164/495 163/496
vt 0.5390625 0.1875
vt 0.53125 0.1875
vt 0.53125 0.1953125
vt 0.5390625 0.1953125
f 163/497 164/498 161/499 162/500
vt 0.6328125 0.1875
vt 0.625 0.1875
vt 0.625 0.1953125
vt 0.6328125 0.1953125
f 168/501 167/502 166/503 165/504
o gunModel21
v -1.154487 85.67883 0.08703174
v -0.8301581 85.65046 -0.8584869
v -0.9173138 84.65426 -0.8584869
v -1.241643 84.68264 0.08703174
v 9.20664 84.77235 3.668279
v 9.530969 84.74398 2.72276
v 9.443814 83.74778 2.72276
v 9.119484 83.77616 3.668279
vt 0.625 0.1875
vt 0.5390625 0.1875
vt 0.5390625 0.1953125
vt 0.625 0.1953125
f 175/505 171/506 170/507 174/508
vt 0.53125 0.1875
vt 0.4453125 0.1875
vt 0.4453125 0.1953125
vt 0.53125 0.1953125
f 172/509 176/510 173/511 169/512
vt 0.5390625 0.1953125
vt 0.53125 0.1953125
vt 0.53125 0.28125
vt 0.5390625 0.28125
f 170/513 169/514 173/515 174/516
vt 0.546875 0.28125
vt 0.5390625 0.28125
vt 0.5390625 0.1953125
vt 0.546875 0.1953125
f 175/517 176/518 172/519 171/520
vt 0.5390625 0.1875
vt 0.53125 0.1875
vt 0.53125 0.1953125
vt 0.5390625 0.1953125
f 171/521 172/522 169/523 170/524
vt 0.6328125 0.1875
vt 0.625 0.1875
vt 0.625 0.1953125
vt 0.6328125 0.1953125
f 176/525 175/526 174/527 173/528
o gunModel22
v 5.001595 83.70831 -3.625899
v 5.931623 83.62694 -3.984267
v 5.844467 82.63074 -3.984267
v 4.914439 82.71211 -3.625899
v 8.928642 83.36473 6.643485
v 9.85867 83.28337 6.285117
v 9.771514 82.28717 6.285117
v 8.841487 82.36854 6.643485
vt 0.625 0.1875
vt 0.5390625 0.1875
vt 0.5390625 0.1953125
vt 0.625 0.1953125
f 183/529 179/530 178/531 182/532
vt 0.53125 0.1875
vt 0.4453125 0.1875
vt 0.4453125 0.1953125
vt 0.53125 0.1953125
f 180/533 184/534 181/535 177/536
vt 0.5390625 0.1953125
vt 0.53125 0.1953125
vt 0.53125 0.28125
vt 0.5390625 0.28125
f 178/537 177/538 181/539 182/540
vt 0.546875 0.28125
vt 0.5390625 0.28125
vt 0.5390625 0.1953125
vt 0.546875 0.1953125
f 183/541 184/542 180/543 179/544
vt 0.5390625 0.1875
vt 0.53125 0.1875
vt 0.53125 0.1953125
vt 0.5390625 0.1953125
f 179/545 180/546 177/547 178/548
vt 0.6328125 0.1875
vt 0.625 0.1875
vt 0.625 0.1953125
vt 0.6328125 0.1953125
f 184/549 183/550 182/551 181/552
o gunModel23
v 9.367339 80.09617 -4.199255
v 10.05935 80.03563 -3.479915
v 9.972199 79.03943 -3.479915
v 9.280184 79.09998 -4.199255
v 1.484712 80.78581 3.441988
v 2.176727 80.72527 4.161327
v 2.089572 79.72907 4.161327
v 1.397557 79.78962 3.441988
vt 0.625 0.1875
vt 0.5390625 0.1875
vt 0.5390625 0.1953125
vt 0.625 0.1953125
f 191/553 187/554 186/555 190/556
vt 0.53125 0.1875
vt 0.4453125 0.1875
vt 0.4453125 0.1953125
vt 0.53125 0.1953125
f 188/557 192/558 189/559 185/560
vt 0.5390625 0.1953125
vt 0.53125 0.1953125
vt 0.53125 0.28125
vt 0.5390625 0.28125
f 186/561 185/562 189/563 190/564
vt 0.546875 0.28125
vt 0.5390625 0.28125
vt 0.5390625 0.1953125
vt 0.546875 0.1953125
f 191/565 192/566 188/567 187/568
vt 0.5390625 0.1875
vt 0.53125 0.1875
vt 0.53125 0.1953125
vt 0.5390625 0.1953125
f 187/569 188/570 185/571 186/572
vt 0.6328125 0.1875
vt 0.625 0.1875
vt 0.625 0.1953125
vt 0.6328125 0.1953125
f 192/573 191/574 190/575 189/576
o gunModel24
v 2.25336 80.865 5.64456
v 1.667811 80.91622 4.835543
v 1.580655 79.92003 4.835543
v 2.166204 79.8688 5.64456
v 11.11868 80.08938 -0.8210793
v 10.53313 80.14061 -1.630096
v 10.44598 79.14441 -1.630096
v 11.03153 79.09319 -0.8210793
vt 0.625 0.1875
vt 0.5390625 0.1875
vt 0.5390625 0.1953125
vt 0.625 0.1953125
f 199/577 195/578 194/579 198/580
vt 0.53125 0.1875
vt 0.4453125 0.1875
vt 0.4453125 0.1953125
vt 0.53125 0.1953125
f 196/581 200/582 197/583 193/584
vt 0.5390625 0.1953125
vt 0.53125 0.1953125
vt 0.53125 0.28125
vt 0.5390625 0.28125
f 194/585 193/586 197/587 198/588
vt 0.546875 0.28125
vt 0.5390625 0.28125
vt 0.5390625 0.1953125
vt 0.546875 0.1953125
f 199/589 200/590 196/591 195/592
vt 0.5390625 0.1875
vt 0.53125 0.1875
vt 0.53125 0.1953125
vt 0.5390625 0.1953125
f 195/593 196/594 193/595 194/596
vt 0.6328125 0.1875
vt 0.625 0.1875
vt 0.625 0.1953125
vt 0.6328125 0.1953125
f 200/597 199/598 198/599 197/600
o gunModel25
v 0.745305 77.49174 3.131905
v 0.5212101 77.51135 2.157535
v 0.4340543 76.51515 2.157535
v 0.6581493 76.49555 3.131905
v 11.42259 76.5576 0.6574452
v 11.1985 76.57721 -0.3169248
v 11.11134 75.58101 -0.3169248
v 11.33543 75.5614 0.6574452
vt 0.625 0.1875
vt 0.5390625 0.1875
vt 0.5390625 0.1953125
vt 0.625 0.1953125
f 207/601 203/602 202/603 206/604
vt 0.53125 0.1875
vt 0.4453125 0.1875
vt 0.4453125 0.1953125
vt 0.53125 0.1953125
f 204/605 208/606 205/607 201/608
vt 0.5390625 0.1953125
vt 0.53125 0.1953125
vt 0.53125 0.28125
vt 0.5390625 0.28125
f 202/609 201/610 205/611 206/612
vt 0.546875 0.28125
vt 0.5390625 0.28125
vt 0.5390625 0.1953125
vt 0.546875 0.1953125
f 207/613 208/614 204/615 203/616
vt 0.5390625 0.1875
vt 0.53125 0.1875
vt 0.53125 0.1953125
vt 0.5390625 0.1953125
f 203/617 204/618 201/619 202/620
vt 0.6328125 0.1875
vt 0.625 0.1875
vt 0.625 0.1953125
vt 0.6328125 0.1953125
f 208/621 207/622 206/623 205/624
