# Converted from Decimation Beardie model: metaltable.bmodel
# Coordinates retain the original Beardie model units.
mtllib metaltable.mtl
usemtl metaltable_material
o bodyModel0
v -8 16 -16
v 8 16 -16
v 8 14.45 -16
v -8 14.45 -16
v -8 16 16
v 8 16 16
v 8 14.45 16
v -8 14.45 16
vt 0.6328125 0.453125
vt 0.3828125 0.453125
vt 0.3828125 0.484375
vt 0.6328125 0.484375
f 7/1 3/2 2/3 6/4
vt 0.2578125 0.453125
vt 0.0078125 0.453125
vt 0.0078125 0.484375
vt 0.2578125 0.484375
f 4/5 8/6 5/7 1/8
vt 0.3828125 0.484375
vt 0.2578125 0.484375
vt 0.2578125 0.984375
vt 0.3828125 0.984375
f 2/9 1/10 5/11 6/12
vt 0.5078125 0.984375
vt 0.3828125 0.984375
vt 0.3828125 0.484375
vt 0.5078125 0.484375
f 7/13 8/14 4/15 3/16
vt 0.3828125 0.453125
vt 0.2578125 0.453125
vt 0.2578125 0.484375
vt 0.3828125 0.484375
f 3/17 4/18 1/19 2/20
vt 0.7578125 0.453125
vt 0.6328125 0.453125
vt 0.6328125 0.484375
vt 0.7578125 0.484375
f 8/21 7/22 6/23 5/24
o bodyModel1
v -7 15 -13
v -5 15 -13
v -5 -0 -13
v -7 -0 -13
v -7 15 -11
v -5 15 -11
v -5 -0 -11
v -7 -0 -11
vt 0.0546875 0.71875
vt 0.0390625 0.71875
vt 0.0390625 0.953125
vt 0.0546875 0.953125
f 15/25 11/26 10/27 14/28
vt 0.0234375 0.71875
vt 0.0078125 0.71875
vt 0.0078125 0.953125
vt 0.0234375 0.953125
f 12/29 16/30 13/31 9/32
vt 0.0390625 0.953125
vt 0.0234375 0.953125
vt 0.0234375 0.984375
vt 0.0390625 0.984375
f 10/33 9/34 13/35 14/36
vt 0.0546875 0.984375
vt 0.0390625 0.984375
vt 0.0390625 0.953125
vt 0.0546875 0.953125
f 15/37 16/38 12/39 11/40
vt 0.0390625 0.71875
vt 0.0234375 0.71875
vt 0.0234375 0.953125
vt 0.0390625 0.953125
f 11/41 12/42 9/43 10/44
vt 0.0703125 0.71875
vt 0.0546875 0.71875
vt 0.0546875 0.953125
vt 0.0703125 0.953125
f 16/45 15/46 14/47 13/48
o bodyModel2
v 5 15 -13
v 7 15 -13
v 7 -0 -13
v 5 -0 -13
v 5 15 -11
v 7 15 -11
v 7 -0 -11
v 5 -0 -11
vt 0.1796875 0.71875
vt 0.1640625 0.71875
vt 0.1640625 0.953125
vt 0.1796875 0.953125
f 23/49 19/50 18/51 22/52
vt 0.1484375 0.71875
vt 0.1328125 0.71875
vt 0.1328125 0.953125
vt 0.1484375 0.953125
f 20/53 24/54 21/55 17/56
vt 0.1640625 0.953125
vt 0.1484375 0.953125
vt 0.1484375 0.984375
vt 0.1640625 0.984375
f 18/57 17/58 21/59 22/60
vt 0.1796875 0.984375
vt 0.1640625 0.984375
vt 0.1640625 0.953125
vt 0.1796875 0.953125
f 23/61 24/62 20/63 19/64
vt 0.1640625 0.71875
vt 0.1484375 0.71875
vt 0.1484375 0.953125
vt 0.1640625 0.953125
f 19/65 20/66 17/67 18/68
vt 0.1953125 0.71875
vt 0.1796875 0.71875
vt 0.1796875 0.953125
vt 0.1953125 0.953125
f 24/69 23/70 22/71 21/72
o bodyModel3
v 5 15 11
v 7 15 11
v 7 -0 11
v 5 -0 11
v 5 15 13
v 7 15 13
v 7 -0 13
v 5 -0 13
vt 0.6171875 0.71875
vt 0.6015625 0.71875
vt 0.6015625 0.953125
vt 0.6171875 0.953125
f 31/73 27/74 26/75 30/76
vt 0.5859375 0.71875
vt 0.5703125 0.71875
vt 0.5703125 0.953125
vt 0.5859375 0.953125
f 28/77 32/78 29/79 25/80
vt 0.6015625 0.953125
vt 0.5859375 0.953125
vt 0.5859375 0.984375
vt 0.6015625 0.984375
f 26/81 25/82 29/83 30/84
vt 0.6171875 0.984375
vt 0.6015625 0.984375
vt 0.6015625 0.953125
vt 0.6171875 0.953125
f 31/85 32/86 28/87 27/88
vt 0.6015625 0.71875
vt 0.5859375 0.71875
vt 0.5859375 0.953125
vt 0.6015625 0.953125
f 27/89 28/90 25/91 26/92
vt 0.6328125 0.71875
vt 0.6171875 0.71875
vt 0.6171875 0.953125
vt 0.6328125 0.953125
f 32/93 31/94 30/95 29/96
o bodyModel4
v -7 15 11
v -5 15 11
v -5 -0 11
v -7 -0 11
v -7 15 13
v -5 15 13
v -5 -0 13
v -7 -0 13
vt 0.7421875 0.71875
vt 0.7265625 0.71875
vt 0.7265625 0.953125
vt 0.7421875 0.953125
f 39/97 35/98 34/99 38/100
vt 0.7109375 0.71875
vt 0.6953125 0.71875
vt 0.6953125 0.953125
vt 0.7109375 0.953125
f 36/101 40/102 37/103 33/104
vt 0.7265625 0.953125
vt 0.7109375 0.953125
vt 0.7109375 0.984375
vt 0.7265625 0.984375
f 34/105 33/106 37/107 38/108
vt 0.7421875 0.984375
vt 0.7265625 0.984375
vt 0.7265625 0.953125
vt 0.7421875 0.953125
f 39/109 40/110 36/111 35/112
vt 0.7265625 0.71875
vt 0.7109375 0.71875
vt 0.7109375 0.953125
vt 0.7265625 0.953125
f 35/113 36/114 33/115 34/116
vt 0.7578125 0.71875
vt 0.7421875 0.71875
vt 0.7421875 0.953125
vt 0.7578125 0.953125
f 40/117 39/118 38/119 37/120
o bodyModel5
v -5 2 -13
v 5 2 -13
v 5 -0 -13
v -5 -0 -13
v -5 2 -11
v 5 2 -11
v 5 -0 -11
v -5 -0 -11
vt 0.8671875 0.671875
vt 0.8515625 0.671875
vt 0.8515625 0.703125
vt 0.8671875 0.703125
f 47/121 43/122 42/123 46/124
vt 0.7734375 0.671875
vt 0.7578125 0.671875
vt 0.7578125 0.703125
vt 0.7734375 0.703125
f 44/125 48/126 45/127 41/128
vt 0.8515625 0.703125
vt 0.7734375 0.703125
vt 0.7734375 0.734375
vt 0.8515625 0.734375
f 42/129 41/130 45/131 46/132
vt 0.9296875 0.734375
vt 0.8515625 0.734375
vt 0.8515625 0.703125
vt 0.9296875 0.703125
f 47/133 48/134 44/135 43/136
vt 0.8515625 0.671875
vt 0.7734375 0.671875
vt 0.7734375 0.703125
vt 0.8515625 0.703125
f 43/137 44/138 41/139 42/140
vt 0.9453125 0.671875
vt 0.8671875 0.671875
vt 0.8671875 0.703125
vt 0.9453125 0.703125
f 48/141 47/142 46/143 45/144
o bodyModel6
v -5 2 11
v 5 2 11
v 5 -0 11
v -5 -0 11
v -5 2 13
v 5 2 13
v 5 -0 13
v -5 -0 13
vt 0.1171875 0.546875
vt 0.1015625 0.546875
vt 0.1015625 0.578125
vt 0.1171875 0.578125
f 55/145 51/146 50/147 54/148
vt 0.0234375 0.546875
vt 0.0078125 0.546875
vt 0.0078125 0.578125
vt 0.0234375 0.578125
f 52/149 56/150 53/151 49/152
vt 0.1015625 0.578125
vt 0.0234375 0.578125
vt 0.0234375 0.609375
vt 0.1015625 0.609375
f 50/153 49/154 53/155 54/156
vt 0.1796875 0.609375
vt 0.1015625 0.609375
vt 0.1015625 0.578125
vt 0.1796875 0.578125
f 55/157 56/158 52/159 51/160
vt 0.1015625 0.546875
vt 0.0234375 0.546875
vt 0.0234375 0.578125
vt 0.1015625 0.578125
f 51/161 52/162 49/163 50/164
vt 0.1953125 0.546875
vt 0.1171875 0.546875
vt 0.1171875 0.578125
vt 0.1953125 0.578125
f 56/165 55/166 54/167 53/168
