# Converted from Decimation Beardie model: nvGoggles.bmodel
# Coordinates retain the original Beardie model units.
mtllib nv_goggles.mtl
usemtl nv_goggles_material
o headModel0
v -0.4999996 50.00003 -0.3000014
v 8.5 50.00003 -0.3000014
v 8.5 49.00003 -0.3000014
v -0.4999996 49.00003 -0.3000014
v -0.4999996 50.00003 8.699999
v 8.5 50.00003 8.699999
v 8.5 49.00003 8.699999
v -0.4999996 49.00003 8.699999
vt 0.4375 0.65625
vt 0.296875 0.65625
vt 0.296875 0.6875
vt 0.4375 0.6875
f 7/1 3/2 2/3 6/4
vt 0.15625 0.65625
vt 0.015625 0.65625
vt 0.015625 0.6875
vt 0.15625 0.6875
f 4/5 8/6 5/7 1/8
vt 0.296875 0.6875
vt 0.15625 0.6875
vt 0.15625 0.96875
vt 0.296875 0.96875
f 2/9 1/10 5/11 6/12
vt 0.4375 0.96875
vt 0.296875 0.96875
vt 0.296875 0.6875
vt 0.4375 0.6875
f 7/13 8/14 4/15 3/16
vt 0.296875 0.65625
vt 0.15625 0.65625
vt 0.15625 0.6875
vt 0.296875 0.6875
f 3/17 4/18 1/19 2/20
vt 0.578125 0.65625
vt 0.4375 0.65625
vt 0.4375 0.6875
vt 0.578125 0.6875
f 8/21 7/22 6/23 5/24
o headModel1
v 2.000001 49.75003 -0.5500014
v 6.000001 49.75003 -0.5500014
v 6.000001 48.75003 -0.5500014
v 2.000001 48.75003 -0.5500014
v 2.000001 49.75003 0.4499986
v 6.000001 49.75003 0.4499986
v 6.000001 48.75003 0.4499986
v 2.000001 48.75003 0.4499986
vt 0.609375 0.90625
vt 0.59375 0.90625
vt 0.59375 0.9375
vt 0.609375 0.9375
f 15/25 11/26 10/27 14/28
vt 0.53125 0.90625
vt 0.515625 0.90625
vt 0.515625 0.9375
vt 0.53125 0.9375
f 12/29 16/30 13/31 9/32
vt 0.59375 0.9375
vt 0.53125 0.9375
vt 0.53125 0.96875
vt 0.59375 0.96875
f 10/33 9/34 13/35 14/36
vt 0.65625 0.96875
vt 0.59375 0.96875
vt 0.59375 0.9375
vt 0.65625 0.9375
f 15/37 16/38 12/39 11/40
vt 0.59375 0.90625
vt 0.53125 0.90625
vt 0.53125 0.9375
vt 0.59375 0.9375
f 11/41 12/42 9/43 10/44
vt 0.671875 0.90625
vt 0.609375 0.90625
vt 0.609375 0.9375
vt 0.671875 0.9375
f 16/45 15/46 14/47 13/48
o headModel2
v 4.122193 49.50002 -1.867322
v 6.117322 49.50002 -1.727809
v 6.117322 47.50002 -1.727809
v 4.122193 47.50002 -1.867322
v 3.98268 49.50002 0.1278062
v 5.977809 49.50002 0.2673191
v 5.977809 47.50002 0.2673191
v 3.98268 47.50002 0.1278062
vt 0.109375 0.84375
vt 0.078125 0.84375
vt 0.078125 0.90625
vt 0.109375 0.90625
f 23/49 19/50 18/51 22/52
vt 0.046875 0.84375
vt 0.015625 0.84375
vt 0.015625 0.90625
vt 0.046875 0.90625
f 20/53 24/54 21/55 17/56
vt 0.078125 0.90625
vt 0.046875 0.90625
vt 0.046875 0.96875
vt 0.078125 0.96875
f 18/57 17/58 21/59 22/60
vt 0.109375 0.96875
vt 0.078125 0.96875
vt 0.078125 0.90625
vt 0.109375 0.90625
f 23/61 24/62 20/63 19/64
vt 0.078125 0.84375
vt 0.046875 0.84375
vt 0.046875 0.90625
vt 0.078125 0.90625
f 19/65 20/66 17/67 18/68
vt 0.140625 0.84375
vt 0.109375 0.84375
vt 0.109375 0.90625
vt 0.140625 0.90625
f 24/69 23/70 22/71 21/72
o headModel3
v 1.88268 49.50002 -1.727809
v 3.877809 49.50002 -1.867322
v 3.877809 47.50002 -1.867322
v 1.88268 47.50002 -1.727809
v 2.022193 49.50002 0.2673191
v 4.017322 49.50002 0.1278062
v 4.017322 47.50002 0.1278062
v 2.022193 47.50002 0.2673191
vt 0.859375 0.84375
vt 0.828125 0.84375
vt 0.828125 0.90625
vt 0.859375 0.90625
f 31/73 27/74 26/75 30/76
vt 0.796875 0.84375
vt 0.765625 0.84375
vt 0.765625 0.90625
vt 0.796875 0.90625
f 28/77 32/78 29/79 25/80
vt 0.828125 0.90625
vt 0.796875 0.90625
vt 0.796875 0.96875
vt 0.828125 0.96875
f 26/81 25/82 29/83 30/84
vt 0.859375 0.96875
vt 0.828125 0.96875
vt 0.828125 0.90625
vt 0.859375 0.90625
f 31/85 32/86 28/87 27/88
vt 0.828125 0.84375
vt 0.796875 0.84375
vt 0.796875 0.90625
vt 0.828125 0.90625
f 27/89 28/90 25/91 26/92
vt 0.890625 0.84375
vt 0.859375 0.84375
vt 0.859375 0.90625
vt 0.890625 0.90625
f 32/93 31/94 30/95 29/96
o headModel4
v -0.3941226 49.50002 -1.331255
v 1.581254 49.50002 -1.644124
v 1.581254 47.50002 -1.644124
v -0.3941226 47.50002 -1.331255
v -0.08125371 49.50002 0.6441216
v 1.894123 49.50002 0.3312527
v 1.894123 47.50002 0.3312527
v -0.08125371 47.50002 0.6441216
vt 0.734375 0.59375
vt 0.703125 0.59375
vt 0.703125 0.65625
vt 0.734375 0.65625
f 39/97 35/98 34/99 38/100
vt 0.671875 0.59375
vt 0.640625 0.59375
vt 0.640625 0.65625
vt 0.671875 0.65625
f 36/101 40/102 37/103 33/104
vt 0.703125 0.65625
vt 0.671875 0.65625
vt 0.671875 0.71875
vt 0.703125 0.71875
f 34/105 33/106 37/107 38/108
vt 0.734375 0.71875
vt 0.703125 0.71875
vt 0.703125 0.65625
vt 0.734375 0.65625
f 39/109 40/110 36/111 35/112
vt 0.703125 0.59375
vt 0.671875 0.59375
vt 0.671875 0.65625
vt 0.703125 0.65625
f 35/113 36/114 33/115 34/116
vt 0.765625 0.59375
vt 0.734375 0.59375
vt 0.734375 0.65625
vt 0.765625 0.65625
f 40/117 39/118 38/119 37/120
o headModel5
v 6.418744 49.50002 -1.644124
v 8.394121 49.50002 -1.331255
v 8.394121 47.50002 -1.331255
v 6.418744 47.50002 -1.644124
v 6.105875 49.50002 0.3312527
v 8.081252 49.50002 0.6441216
v 8.081252 47.50002 0.6441216
v 6.105875 47.50002 0.3312527
vt 0.109375 0.34375
vt 0.078125 0.34375
vt 0.078125 0.40625
vt 0.109375 0.40625
f 47/121 43/122 42/123 46/124
vt 0.046875 0.34375
vt 0.015625 0.34375
vt 0.015625 0.40625
vt 0.046875 0.40625
f 44/125 48/126 45/127 41/128
vt 0.078125 0.40625
vt 0.046875 0.40625
vt 0.046875 0.46875
vt 0.078125 0.46875
f 42/129 41/130 45/131 46/132
vt 0.109375 0.46875
vt 0.078125 0.46875
vt 0.078125 0.40625
vt 0.109375 0.40625
f 47/133 48/134 44/135 43/136
vt 0.078125 0.34375
vt 0.046875 0.34375
vt 0.046875 0.40625
vt 0.078125 0.40625
f 43/137 44/138 41/139 42/140
vt 0.140625 0.34375
vt 0.109375 0.34375
vt 0.109375 0.40625
vt 0.140625 0.40625
f 48/141 47/142 46/143 45/144
o headModel6
v 3.5 52.60003 -0.3000014
v 4.5 52.60003 -0.3000014
v 4.5 49.60003 -0.3000014
v 3.5 49.60003 -0.3000014
v 3.5 52.60003 8.699999
v 4.5 52.60003 8.699999
v 4.5 49.60003 8.699999
v 3.5 49.60003 8.699999
vt 0.9375 0.34375
vt 0.796875 0.34375
vt 0.796875 0.4375
vt 0.9375 0.4375
f 55/145 51/146 50/147 54/148
vt 0.78125 0.34375
vt 0.640625 0.34375
vt 0.640625 0.4375
vt 0.78125 0.4375
f 52/149 56/150 53/151 49/152
vt 0.796875 0.4375
vt 0.78125 0.4375
vt 0.78125 0.71875
vt 0.796875 0.71875
f 50/153 49/154 53/155 54/156
vt 0.8125 0.71875
vt 0.796875 0.71875
vt 0.796875 0.4375
vt 0.8125 0.4375
f 55/157 56/158 52/159 51/160
vt 0.796875 0.34375
vt 0.78125 0.34375
vt 0.78125 0.4375
vt 0.796875 0.4375
f 51/161 52/162 49/163 50/164
vt 0.953125 0.34375
vt 0.9375 0.34375
vt 0.9375 0.4375
vt 0.953125 0.4375
f 56/165 55/166 54/167 53/168
o headModel7
v 6.957851 49.00002 -1.891046
v 7.945539 49.00002 -1.734612
v 7.945539 48.00002 -1.734612
v 6.957851 48.00002 -1.891046
v 6.644982 49.00002 0.08433063
v 7.63267 49.00002 0.2407651
v 7.63267 48.00002 0.2407651
v 6.644982 48.00002 0.08433063
vt 0.96875 0.625
vt 0.9375 0.625
vt 0.9375 0.65625
vt 0.96875 0.65625
f 63/169 59/170 58/171 62/172
vt 0.921875 0.625
vt 0.890625 0.625
vt 0.890625 0.65625
vt 0.921875 0.65625
f 60/173 64/174 61/175 57/176
vt 0.9375 0.65625
vt 0.921875 0.65625
vt 0.921875 0.71875
vt 0.9375 0.71875
f 58/177 57/178 61/179 62/180
vt 0.953125 0.71875
vt 0.9375 0.71875
vt 0.9375 0.65625
vt 0.953125 0.65625
f 63/181 64/182 60/183 59/184
vt 0.9375 0.625
vt 0.921875 0.625
vt 0.921875 0.65625
vt 0.9375 0.65625
f 59/185 60/186 57/187 58/188
vt 0.984375 0.625
vt 0.96875 0.625
vt 0.96875 0.65625
vt 0.984375 0.65625
f 64/189 63/190 62/191 61/192
o headModel8
v 0.1293424 49.00002 -1.783103
v 1.117031 49.00002 -1.939537
v 1.117031 48.00002 -1.939537
v 0.1293424 48.00002 -1.783103
v 0.2857768 49.00002 -0.7954143
v 1.273465 49.00002 -0.9518487
v 1.273465 48.00002 -0.9518487
v 0.2857768 48.00002 -0.7954143
vt 0.3125 0.40625
vt 0.296875 0.40625
vt 0.296875 0.4375
vt 0.3125 0.4375
f 71/193 67/194 66/195 70/196
vt 0.28125 0.40625
vt 0.265625 0.40625
vt 0.265625 0.4375
vt 0.28125 0.4375
f 68/197 72/198 69/199 65/200
vt 0.296875 0.4375
vt 0.28125 0.4375
vt 0.28125 0.46875
vt 0.296875 0.46875
f 66/201 65/202 69/203 70/204
vt 0.3125 0.46875
vt 0.296875 0.46875
vt 0.296875 0.4375
vt 0.3125 0.4375
f 71/205 72/206 68/207 67/208
vt 0.296875 0.40625
vt 0.28125 0.40625
vt 0.28125 0.4375
vt 0.296875 0.4375
f 67/209 68/210 65/211 66/212
vt 0.328125 0.40625
vt 0.3125 0.40625
vt 0.3125 0.4375
vt 0.328125 0.4375
f 72/213 71/214 70/215 69/216
o headModel9
v 2.38268 49.00002 -2.02781
v 3.380245 49.00002 -2.097566
v 3.380245 48.00002 -2.097566
v 2.38268 48.00002 -2.02781
v 2.452437 49.00002 -1.030246
v 3.450001 49.00002 -1.100002
v 3.450001 48.00002 -1.100002
v 2.452437 48.00002 -1.030246
vt 0.4375 0.40625
vt 0.421875 0.40625
vt 0.421875 0.4375
vt 0.4375 0.4375
f 79/217 75/218 74/219 78/220
vt 0.40625 0.40625
vt 0.390625 0.40625
vt 0.390625 0.4375
vt 0.40625 0.4375
f 76/221 80/222 77/223 73/224
vt 0.421875 0.4375
vt 0.40625 0.4375
vt 0.40625 0.46875
vt 0.421875 0.46875
f 74/225 73/226 77/227 78/228
vt 0.4375 0.46875
vt 0.421875 0.46875
vt 0.421875 0.4375
vt 0.4375 0.4375
f 79/229 80/230 76/231 75/232
vt 0.421875 0.40625
vt 0.40625 0.40625
vt 0.40625 0.4375
vt 0.421875 0.4375
f 75/233 76/234 73/235 74/236
vt 0.453125 0.40625
vt 0.4375 0.40625
vt 0.4375 0.4375
vt 0.453125 0.4375
f 80/237 79/238 78/239 77/240
o headModel10
v 4.622193 49.00002 -2.167323
v 5.619757 49.00002 -2.097566
v 5.619757 48.00002 -2.097566
v 4.622193 48.00002 -2.167323
v 4.552437 49.00002 -1.169758
v 5.550001 49.00002 -1.100002
v 5.550001 48.00002 -1.100002
v 4.552437 48.00002 -1.169758
vt 0.5625 0.40625
vt 0.546875 0.40625
vt 0.546875 0.4375
vt 0.5625 0.4375
f 87/241 83/242 82/243 86/244
vt 0.53125 0.40625
vt 0.515625 0.40625
vt 0.515625 0.4375
vt 0.53125 0.4375
f 84/245 88/246 85/247 81/248
vt 0.546875 0.4375
vt 0.53125 0.4375
vt 0.53125 0.46875
vt 0.546875 0.46875
f 82/249 81/250 85/251 86/252
vt 0.5625 0.46875
vt 0.546875 0.46875
vt 0.546875 0.4375
vt 0.5625 0.4375
f 87/253 88/254 84/255 83/256
vt 0.546875 0.40625
vt 0.53125 0.40625
vt 0.53125 0.4375
vt 0.546875 0.4375
f 83/257 84/258 81/259 82/260
vt 0.578125 0.40625
vt 0.5625 0.40625
vt 0.5625 0.4375
vt 0.578125 0.4375
f 88/261 87/262 86/263 85/264
