# Converted from Decimation Beardie model: capblue.bmodel
# Coordinates retain the original Beardie model units.
mtllib capblue.mtl
usemtl capblue_material
o headModel0
v -4.1 4.45 -7
v 4.1 4.45 -7
v 4.1 4.45 -7
v -4.1 4.45 -7
v -4.1 5.25 -4
v 4.1 5.25 -4
v 4.1 5.05 -4
v -4.1 5.05 -4
vt 0.2421875 0.8359375
vt 0.21875 0.8359375
vt 0.21875 0.84375
vt 0.2421875 0.84375
f 7/1 3/2 2/3 6/4
vt 0.15625 0.8359375
vt 0.1328125 0.8359375
vt 0.1328125 0.84375
vt 0.15625 0.84375
f 4/5 8/6 5/7 1/8
vt 0.21875 0.84375
vt 0.15625 0.84375
vt 0.15625 0.8671875
vt 0.21875 0.8671875
f 2/9 1/10 5/11 6/12
vt 0.28125 0.8671875
vt 0.21875 0.8671875
vt 0.21875 0.84375
vt 0.28125 0.84375
f 7/13 8/14 4/15 3/16
vt 0.21875 0.8359375
vt 0.15625 0.8359375
vt 0.15625 0.84375
vt 0.21875 0.84375
f 3/17 4/18 1/19 2/20
vt 0.3046875 0.8359375
vt 0.2421875 0.8359375
vt 0.2421875 0.84375
vt 0.3046875 0.84375
f 8/21 7/22 6/23 5/24
o headModel1
v -4 8 -4
v 4 8 -4
v 4.2 5 -4.2
v -4.2 5 -4.2
v -4 8 4
v 4 8 4
v 4.2 4.5 4.2
v -4.2 4.5 4.2
vt 0.5078125 0.65625
vt 0.4453125 0.65625
vt 0.4453125 0.6796875
vt 0.5078125 0.6796875
f 15/25 11/26 10/27 14/28
vt 0.3828125 0.65625
vt 0.3203125 0.65625
vt 0.3203125 0.6796875
vt 0.3828125 0.6796875
f 12/29 16/30 13/31 9/32
vt 0.4453125 0.6796875
vt 0.3828125 0.6796875
vt 0.3828125 0.7421875
vt 0.4453125 0.7421875
f 10/33 9/34 13/35 14/36
vt 0.5078125 0.7421875
vt 0.4453125 0.7421875
vt 0.4453125 0.6796875
vt 0.5078125 0.6796875
f 15/37 16/38 12/39 11/40
vt 0.4453125 0.65625
vt 0.3828125 0.65625
vt 0.3828125 0.6796875
vt 0.4453125 0.6796875
f 11/41 12/42 9/43 10/44
vt 0.5703125 0.65625
vt 0.5078125 0.65625
vt 0.5078125 0.6796875
vt 0.5703125 0.6796875
f 16/45 15/46 14/47 13/48
o headModel2
v -3 8.6 -3
v 3 8.6 -3
v 4 8 -4
v -4 8 -4
v -3 8.6 3
v 3 8.6 3
v 4 8 4
v -4 8 4
vt 0.8203125 0.671875
vt 0.7578125 0.671875
vt 0.7578125 0.6796875
vt 0.8203125 0.6796875
f 23/49 19/50 18/51 22/52
vt 0.6953125 0.671875
vt 0.6328125 0.671875
vt 0.6328125 0.6796875
vt 0.6953125 0.6796875
f 20/53 24/54 21/55 17/56
vt 0.7578125 0.6796875
vt 0.6953125 0.6796875
vt 0.6953125 0.7421875
vt 0.7578125 0.7421875
f 18/57 17/58 21/59 22/60
vt 0.8203125 0.7421875
vt 0.7578125 0.7421875
vt 0.7578125 0.6796875
vt 0.8203125 0.6796875
f 23/61 24/62 20/63 19/64
vt 0.7578125 0.671875
vt 0.6953125 0.671875
vt 0.6953125 0.6796875
vt 0.7578125 0.6796875
f 19/65 20/66 17/67 18/68
vt 0.8828125 0.671875
vt 0.8203125 0.671875
vt 0.8203125 0.6796875
vt 0.8828125 0.6796875
f 24/69 23/70 22/71 21/72
