# Converted from Decimation Beardie model: trashbag2.bmodel
# Coordinates retain the original Beardie model units.
mtllib trashbag2.mtl
usemtl trashbag2_material
o baseModel0
v -3 8 -6
v 4.794961 8 -4.200392
v 4.794961 5 -4.200392
v -3 5 -6
v -4.799608 8 1.794961
v 2.995352 8 3.594569
v 2.995352 5 3.594569
v -4.799608 5 1.794961
vt 0.1953125 0.8125
vt 0.1328125 0.8125
vt 0.1328125 0.859375
vt 0.1953125 0.859375
f 7/1 3/2 2/3 6/4
vt 0.0703125 0.8125
vt 0.0078125 0.8125
vt 0.0078125 0.859375
vt 0.0703125 0.859375
f 4/5 8/6 5/7 1/8
vt 0.1328125 0.859375
vt 0.0703125 0.859375
vt 0.0703125 0.984375
vt 0.1328125 0.984375
f 2/9 1/10 5/11 6/12
vt 0.1953125 0.984375
vt 0.1328125 0.984375
vt 0.1328125 0.859375
vt 0.1953125 0.859375
f 7/13 8/14 4/15 3/16
vt 0.1328125 0.8125
vt 0.0703125 0.8125
vt 0.0703125 0.859375
vt 0.1328125 0.859375
f 3/17 4/18 1/19 2/20
vt 0.2578125 0.8125
vt 0.1953125 0.8125
vt 0.1953125 0.859375
vt 0.2578125 0.859375
f 8/21 7/22 6/23 5/24
o baseModel1
v -3.364187 5 -6.606109
v 6.33877 5 -4.18689
v 6.33877 1 -4.18689
v -3.364187 1 -6.606109
v -5.541484 5 2.126553
v 4.161473 5 4.545772
v 4.161473 1 4.545772
v -5.541484 1 2.126553
vt 0.5390625 0.78125
vt 0.46875 0.78125
vt 0.46875 0.84375
vt 0.5390625 0.84375
f 15/25 11/26 10/27 14/28
vt 0.390625 0.78125
vt 0.3203125 0.78125
vt 0.3203125 0.84375
vt 0.390625 0.84375
f 12/29 16/30 13/31 9/32
vt 0.46875 0.84375
vt 0.390625 0.84375
vt 0.390625 0.984375
vt 0.46875 0.984375
f 10/33 9/34 13/35 14/36
vt 0.546875 0.984375
vt 0.46875 0.984375
vt 0.46875 0.84375
vt 0.546875 0.84375
f 15/37 16/38 12/39 11/40
vt 0.46875 0.78125
vt 0.390625 0.78125
vt 0.390625 0.84375
vt 0.46875 0.84375
f 11/41 12/42 9/43 10/44
vt 0.6171875 0.78125
vt 0.5390625 0.78125
vt 0.5390625 0.84375
vt 0.6171875 0.84375
f 16/45 15/46 14/47 13/48
o baseModel2
v -3.010393 10.00855 -5.429366
v 2.674231 9.511209 -3.575264
v 2.238453 4.530235 -3.575264
v -3.446172 5.027575 -5.429366
v -5.165281 10.19708 1.228029
v 0.5193436 9.699737 3.082132
v 0.08356493 4.718764 3.082132
v -5.60106 5.216104 1.228029
vt 0.7890625 0.796875
vt 0.734375 0.796875
vt 0.734375 0.875
vt 0.7890625 0.875
f 23/49 19/50 18/51 22/52
vt 0.6875 0.796875
vt 0.6328125 0.796875
vt 0.6328125 0.875
vt 0.6875 0.875
f 20/53 24/54 21/55 17/56
vt 0.734375 0.875
vt 0.6875 0.875
vt 0.6875 0.984375
vt 0.734375 0.984375
f 18/57 17/58 21/59 22/60
vt 0.78125 0.984375
vt 0.734375 0.984375
vt 0.734375 0.875
vt 0.78125 0.875
f 23/61 24/62 20/63 19/64
vt 0.734375 0.796875
vt 0.6875 0.796875
vt 0.6875 0.875
vt 0.734375 0.875
f 19/65 20/66 17/67 18/68
vt 0.8359375 0.796875
vt 0.7890625 0.796875
vt 0.7890625 0.875
vt 0.8359375 0.875
f 24/69 23/70 22/71 21/72
o baseModel3
v -3.938943 11 -4.234105
v 0.4757948 11 -1.886747
v 0.4757948 9 -1.886747
v -3.938943 9 -4.234105
v -5.816829 11 -0.7023145
v -1.402091 11 1.645043
v -1.402091 9 1.645043
v -5.816829 9 -0.7023145
vt 0.921875 0.890625
vt 0.890625 0.890625
vt 0.890625 0.921875
vt 0.921875 0.921875
f 31/73 27/74 26/75 30/76
vt 0.8515625 0.890625
vt 0.8203125 0.890625
vt 0.8203125 0.921875
vt 0.8515625 0.921875
f 28/77 32/78 29/79 25/80
vt 0.890625 0.921875
vt 0.8515625 0.921875
vt 0.8515625 0.984375
vt 0.890625 0.984375
f 26/81 25/82 29/83 30/84
vt 0.9296875 0.984375
vt 0.890625 0.984375
vt 0.890625 0.921875
vt 0.9296875 0.921875
f 31/85 32/86 28/87 27/88
vt 0.890625 0.890625
vt 0.8515625 0.890625
vt 0.8515625 0.921875
vt 0.890625 0.921875
f 27/89 28/90 25/91 26/92
vt 0.9609375 0.890625
vt 0.921875 0.890625
vt 0.921875 0.921875
vt 0.9609375 0.921875
f 32/93 31/94 30/95 29/96
o baseModel4
v -3.83522 12.08835 -2.559391
v -2.20315 11.94556 -1.412239
v -2.290306 10.94937 -1.412239
v -3.922376 11.09216 -2.559391
v -4.978008 12.18833 -0.9210872
v -3.345938 12.04554 0.2260656
v -3.433094 11.04935 0.2260656
v -5.065164 11.19214 -0.9210872
vt 0.3046875 0.9375
vt 0.2890625 0.9375
vt 0.2890625 0.953125
vt 0.3046875 0.953125
f 39/97 35/98 34/99 38/100
vt 0.2734375 0.9375
vt 0.2578125 0.9375
vt 0.2578125 0.953125
vt 0.2734375 0.953125
f 36/101 40/102 37/103 33/104
vt 0.2890625 0.953125
vt 0.2734375 0.953125
vt 0.2734375 0.984375
vt 0.2890625 0.984375
f 34/105 33/106 37/107 38/108
vt 0.3046875 0.984375
vt 0.2890625 0.984375
vt 0.2890625 0.953125
vt 0.3046875 0.953125
f 39/109 40/110 36/111 35/112
vt 0.2890625 0.9375
vt 0.2734375 0.9375
vt 0.2734375 0.953125
vt 0.2890625 0.953125
f 35/113 36/114 33/115 34/116
vt 0.3203125 0.9375
vt 0.3046875 0.9375
vt 0.3046875 0.953125
vt 0.3203125 0.953125
f 40/117 39/118 38/119 37/120
o baseModel5
v -3 1 -6
v 5.732662 1 -3.822703
v 5.732662 -0 -3.822703
v -3 -0 -6
v -4.935375 1 1.762366
v 3.797286 1 3.939663
v 3.797286 -0 3.939663
v -4.935375 -0 1.762366
vt 0.203125 0.59375
vt 0.140625 0.59375
vt 0.140625 0.609375
vt 0.203125 0.609375
f 47/121 43/122 42/123 46/124
vt 0.0703125 0.59375
vt 0.0078125 0.59375
vt 0.0078125 0.609375
vt 0.0703125 0.609375
f 44/125 48/126 45/127 41/128
vt 0.140625 0.609375
vt 0.0703125 0.609375
vt 0.0703125 0.734375
vt 0.140625 0.734375
f 42/129 41/130 45/131 46/132
vt 0.2109375 0.734375
vt 0.140625 0.734375
vt 0.140625 0.609375
vt 0.2109375 0.609375
f 47/133 48/134 44/135 43/136
vt 0.140625 0.59375
vt 0.0703125 0.59375
vt 0.0703125 0.609375
vt 0.140625 0.609375
f 43/137 44/138 41/139 42/140
vt 0.2734375 0.59375
vt 0.203125 0.59375
vt 0.203125 0.609375
vt 0.2734375 0.609375
f 48/141 47/142 46/143 45/144
o baseModel6
v -5.053006 13.03775 -2.287689
v -4.35117 12.95157 -1.580582
v -4.473039 11.95903 -1.580582
v -5.174875 12.0452 -2.287689
v -5.754842 13.12392 -1.580582
v -5.053006 13.03775 -0.8734757
v -5.174875 12.0452 -0.8734757
v -5.876711 12.13138 -1.580582
vt 0.03125 0.953125
vt 0.0234375 0.953125
vt 0.0234375 0.96875
vt 0.03125 0.96875
f 55/145 51/146 50/147 54/148
vt 0.015625 0.953125
vt 0.0078125 0.953125
vt 0.0078125 0.96875
vt 0.015625 0.96875
f 52/149 56/150 53/151 49/152
vt 0.0234375 0.96875
vt 0.015625 0.96875
vt 0.015625 0.984375
vt 0.0234375 0.984375
f 50/153 49/154 53/155 54/156
vt 0.03125 0.984375
vt 0.0234375 0.984375
vt 0.0234375 0.96875
vt 0.03125 0.96875
f 55/157 56/158 52/159 51/160
vt 0.0234375 0.953125
vt 0.015625 0.953125
vt 0.015625 0.96875
vt 0.0234375 0.96875
f 51/161 52/162 49/163 50/164
vt 0.0390625 0.953125
vt 0.03125 0.953125
vt 0.03125 0.96875
vt 0.0390625 0.96875
f 56/165 55/166 54/167 53/168
o baseModel7
v 4.782972 7 -3.896347
v 5.77324 7 -3.757174
v 5.77324 5 -3.757174
v 4.782972 5 -3.896347
v 3.947933 7 2.045261
v 4.938201 7 2.184434
v 4.938201 5 2.184434
v 3.947933 5 2.045261
vt 0.921875 0.734375
vt 0.875 0.734375
vt 0.875 0.765625
vt 0.921875 0.765625
f 63/169 59/170 58/171 62/172
vt 0.8671875 0.734375
vt 0.8203125 0.734375
vt 0.8203125 0.765625
vt 0.8671875 0.765625
f 60/173 64/174 61/175 57/176
vt 0.875 0.765625
vt 0.8671875 0.765625
vt 0.8671875 0.859375
vt 0.875 0.859375
f 58/177 57/178 61/179 62/180
vt 0.8828125 0.859375
vt 0.875 0.859375
vt 0.875 0.765625
vt 0.8828125 0.765625
f 63/181 64/182 60/183 59/184
vt 0.875 0.734375
vt 0.8671875 0.734375
vt 0.8671875 0.765625
vt 0.875 0.765625
f 59/185 60/186 57/187 58/188
vt 0.9296875 0.734375
vt 0.921875 0.734375
vt 0.921875 0.765625
vt 0.9296875 0.765625
f 64/189 63/190 62/191 61/192
o baseModel8
v 2.399199 9.033361 -2.10331
v 3.316202 8.953134 -1.712579
v 3.229046 7.956939 -1.712579
v 2.312044 8.037166 -2.10331
v 0.8422224 9.169579 1.578709
v 1.759225 9.089352 1.96944
v 1.672069 8.093157 1.96944
v 0.7550667 8.173384 1.578709
vt 0.640625 0.90625
vt 0.609375 0.90625
vt 0.609375 0.921875
vt 0.640625 0.921875
f 71/193 67/194 66/195 70/196
vt 0.6015625 0.90625
vt 0.5703125 0.90625
vt 0.5703125 0.921875
vt 0.6015625 0.921875
f 68/197 72/198 69/199 65/200
vt 0.609375 0.921875
vt 0.6015625 0.921875
vt 0.6015625 0.984375
vt 0.609375 0.984375
f 66/201 65/202 69/203 70/204
vt 0.6171875 0.984375
vt 0.609375 0.984375
vt 0.609375 0.921875
vt 0.6171875 0.921875
f 71/205 72/206 68/207 67/208
vt 0.609375 0.90625
vt 0.6015625 0.90625
vt 0.6015625 0.921875
vt 0.609375 0.921875
f 67/209 68/210 65/211 66/212
vt 0.6484375 0.90625
vt 0.640625 0.90625
vt 0.640625 0.921875
vt 0.6484375 0.921875
f 72/213 71/214 70/215 69/216
o baseModel9
v -5.429164 10.5 -0.4233377
v -3.751823 10.5 0.6659405
v -3.751823 9.5 0.6659405
v -5.429164 9.5 -0.4233377
v -5.973803 10.5 0.4153329
v -4.296462 10.5 1.504611
v -4.296462 9.5 1.504611
v -5.973803 9.5 0.4153329
vt 0.6640625 0.953125
vt 0.65625 0.953125
vt 0.65625 0.96875
vt 0.6640625 0.96875
f 79/217 75/218 74/219 78/220
vt 0.640625 0.953125
vt 0.6328125 0.953125
vt 0.6328125 0.96875
vt 0.640625 0.96875
f 76/221 80/222 77/223 73/224
vt 0.65625 0.96875
vt 0.640625 0.96875
vt 0.640625 0.984375
vt 0.65625 0.984375
f 74/225 73/226 77/227 78/228
vt 0.671875 0.984375
vt 0.65625 0.984375
vt 0.65625 0.96875
vt 0.671875 0.96875
f 79/229 80/230 76/231 75/232
vt 0.65625 0.953125
vt 0.640625 0.953125
vt 0.640625 0.96875
vt 0.65625 0.96875
f 75/233 76/234 73/235 74/236
vt 0.6796875 0.953125
vt 0.6640625 0.953125
vt 0.6640625 0.96875
vt 0.6796875 0.96875
f 80/237 79/238 78/239 77/240
o baseModel10
v -3 10 -1
v 3.389084 10 -5.81452
v 3.389084 7 -5.81452
v -3 7 -1
v 1.81452 10 5.389084
v 8.203604 10 0.5745642
v 8.203604 7 0.5745642
v 1.81452 7 5.389084
vt 0.1953125 0.8125
vt 0.1328125 0.8125
vt 0.1328125 0.859375
vt 0.1953125 0.859375
f 87/241 83/242 82/243 86/244
vt 0.0703125 0.8125
vt 0.0078125 0.8125
vt 0.0078125 0.859375
vt 0.0703125 0.859375
f 84/245 88/246 85/247 81/248
vt 0.1328125 0.859375
vt 0.0703125 0.859375
vt 0.0703125 0.984375
vt 0.1328125 0.984375
f 82/249 81/250 85/251 86/252
vt 0.1953125 0.984375
vt 0.1328125 0.984375
vt 0.1328125 0.859375
vt 0.1953125 0.859375
f 87/253 88/254 84/255 83/256
vt 0.1328125 0.8125
vt 0.0703125 0.8125
vt 0.0703125 0.859375
vt 0.1328125 0.859375
f 83/257 84/258 81/259 82/260
vt 0.2578125 0.8125
vt 0.1953125 0.8125
vt 0.1953125 0.859375
vt 0.2578125 0.859375
f 88/261 87/262 86/263 85/264
o baseModel11
v -3.698401 5 -1.110616
v 4.391769 5 -6.988468
v 4.391769 1 -6.988468
v -3.698401 1 -1.110616
v 1.591666 5 6.170537
v 9.681836 5 0.2926849
v 9.681836 1 0.2926849
v 1.591666 1 6.170537
vt 0.5390625 0.78125
vt 0.46875 0.78125
vt 0.46875 0.84375
vt 0.5390625 0.84375
f 95/265 91/266 90/267 94/268
vt 0.390625 0.78125
vt 0.3203125 0.78125
vt 0.3203125 0.84375
vt 0.390625 0.84375
f 92/269 96/270 93/271 89/272
vt 0.46875 0.84375
vt 0.390625 0.84375
vt 0.390625 0.984375
vt 0.46875 0.984375
f 90/273 89/274 93/275 94/276
vt 0.546875 0.984375
vt 0.46875 0.984375
vt 0.46875 0.84375
vt 0.546875 0.84375
f 95/277 96/278 92/279 91/280
vt 0.46875 0.78125
vt 0.390625 0.78125
vt 0.390625 0.84375
vt 0.46875 0.84375
f 91/281 92/282 89/283 90/284
vt 0.6171875 0.78125
vt 0.5390625 0.78125
vt 0.5390625 0.84375
vt 0.6171875 0.84375
f 96/285 95/286 94/287 93/288
o baseModel12
v -2.655854 12 -0.5085088
v 2.259058 12 -3.949967
v 2.259058 7 -3.949967
v -2.655854 7 -0.5085088
v 1.359181 12 5.225556
v 6.274093 12 1.784097
v 6.274093 7 1.784097
v 1.359181 7 5.225556
vt 0.7890625 0.796875
vt 0.734375 0.796875
vt 0.734375 0.875
vt 0.7890625 0.875
f 103/289 99/290 98/291 102/292
vt 0.6875 0.796875
vt 0.6328125 0.796875
vt 0.6328125 0.875
vt 0.6875 0.875
f 100/293 104/294 101/295 97/296
vt 0.734375 0.875
vt 0.6875 0.875
vt 0.6875 0.984375
vt 0.734375 0.984375
f 98/297 97/298 101/299 102/300
vt 0.78125 0.984375
vt 0.734375 0.984375
vt 0.734375 0.875
vt 0.78125 0.875
f 103/301 104/302 100/303 99/304
vt 0.734375 0.796875
vt 0.6875 0.796875
vt 0.6875 0.875
vt 0.734375 0.875
f 99/305 100/306 97/307 98/308
vt 0.8359375 0.796875
vt 0.7890625 0.796875
vt 0.7890625 0.875
vt 0.8359375 0.875
f 104/309 103/310 102/311 101/312
o baseModel13
v -1.969924 13 0.7143347
v 2.315913 13 -1.860855
v 2.315913 11 -1.860855
v -1.969924 11 0.7143347
v 0.0902281 13 4.143004
v 4.376065 13 1.567814
v 4.376065 11 1.567814
v 0.0902281 11 4.143004
vt 0.921875 0.890625
vt 0.890625 0.890625
vt 0.890625 0.921875
vt 0.921875 0.921875
f 111/313 107/314 106/315 110/316
vt 0.8515625 0.890625
vt 0.8203125 0.890625
vt 0.8203125 0.921875
vt 0.8515625 0.921875
f 108/317 112/318 109/319 105/320
vt 0.890625 0.921875
vt 0.8515625 0.921875
vt 0.8515625 0.984375
vt 0.890625 0.984375
f 106/321 105/322 109/323 110/324
vt 0.9296875 0.984375
vt 0.890625 0.984375
vt 0.890625 0.921875
vt 0.9296875 0.921875
f 111/325 112/326 108/327 107/328
vt 0.890625 0.890625
vt 0.8515625 0.890625
vt 0.8515625 0.921875
vt 0.890625 0.921875
f 107/329 108/330 105/331 106/332
vt 0.9609375 0.890625
vt 0.921875 0.890625
vt 0.921875 0.921875
vt 0.9609375 0.921875
f 112/333 111/334 110/335 109/336
o baseModel14
v -1.786707 13.82164 2.121921
v 0.1377931 13.65327 1.604283
v 0.05063738 12.65707 1.604283
v -1.873863 12.82545 2.121921
v -1.271039 13.77653 4.053773
v 0.6534615 13.60815 3.536135
v 0.5663057 12.61196 3.536135
v -1.358195 12.78033 4.053773
vt 0.3046875 0.9375
vt 0.2890625 0.9375
vt 0.2890625 0.953125
vt 0.3046875 0.953125
f 119/337 115/338 114/339 118/340
vt 0.2734375 0.9375
vt 0.2578125 0.9375
vt 0.2578125 0.953125
vt 0.2734375 0.953125
f 116/341 120/342 117/343 113/344
vt 0.2890625 0.953125
vt 0.2734375 0.953125
vt 0.2734375 0.984375
vt 0.2890625 0.984375
f 114/345 113/346 117/347 118/348
vt 0.3046875 0.984375
vt 0.2890625 0.984375
vt 0.2890625 0.953125
vt 0.3046875 0.953125
f 119/349 120/350 116/351 115/352
vt 0.2890625 0.9375
vt 0.2734375 0.9375
vt 0.2734375 0.953125
vt 0.2890625 0.953125
f 115/353 116/354 113/355 114/356
vt 0.3203125 0.9375
vt 0.3046875 0.9375
vt 0.3046875 0.953125
vt 0.3203125 0.953125
f 120/357 119/358 118/359 117/360
o baseModel15
v -3 1 -1
v 4.281153 1 -6.290067
v 4.281153 -0 -6.290067
v -3 -0 -1
v 1.702282 1 5.472136
v 8.983435 1 0.1820691
v 8.983435 -0 0.1820691
v 1.702282 -0 5.472136
vt 0.203125 0.59375
vt 0.140625 0.59375
vt 0.140625 0.609375
vt 0.203125 0.609375
f 127/361 123/362 122/363 126/364
vt 0.0703125 0.59375
vt 0.0078125 0.59375
vt 0.0078125 0.609375
vt 0.0703125 0.609375
f 124/365 128/366 125/367 121/368
vt 0.140625 0.609375
vt 0.0703125 0.609375
vt 0.0703125 0.734375
vt 0.140625 0.734375
f 122/369 121/370 125/371 126/372
vt 0.2109375 0.734375
vt 0.140625 0.734375
vt 0.140625 0.609375
vt 0.2109375 0.609375
f 127/373 128/374 124/375 123/376
vt 0.140625 0.59375
vt 0.0703125 0.59375
vt 0.0703125 0.609375
vt 0.140625 0.609375
f 123/377 124/378 121/379 122/380
vt 0.2734375 0.59375
vt 0.203125 0.59375
vt 0.203125 0.609375
vt 0.2734375 0.609375
f 128/381 127/382 126/383 125/384
o baseModel16
v 3.614289 7 -5.6099
v 4.357434 7 -6.279031
v 4.357434 5 -6.279031
v 3.614289 5 -5.6099
v 7.629073 7 -1.151031
v 8.372218 7 -1.820162
v 8.372218 5 -1.820162
v 7.629073 5 -1.151031
vt 0.921875 0.734375
vt 0.875 0.734375
vt 0.875 0.765625
vt 0.921875 0.765625
f 135/385 131/386 130/387 134/388
vt 0.8671875 0.734375
vt 0.8203125 0.734375
vt 0.8203125 0.765625
vt 0.8671875 0.765625
f 132/389 136/390 133/391 129/392
vt 0.875 0.765625
vt 0.8671875 0.765625
vt 0.8671875 0.859375
vt 0.875 0.859375
f 130/393 129/394 133/395 134/396
vt 0.8828125 0.859375
vt 0.875 0.859375
vt 0.875 0.765625
vt 0.8828125 0.765625
f 135/397 136/398 132/399 131/400
vt 0.875 0.734375
vt 0.8671875 0.734375
vt 0.8671875 0.765625
vt 0.875 0.765625
f 131/401 132/402 129/403 130/404
vt 0.9296875 0.734375
vt 0.921875 0.734375
vt 0.921875 0.765625
vt 0.9296875 0.765625
f 136/405 135/406 134/407 133/408
o baseModel17
v 2.727787 9.004613 -6.189339
v 3.615403 8.926957 -6.64333
v 3.528247 7.930762 -6.64333
v 2.640631 8.008419 -6.189339
v 4.536839 8.846342 -2.625313
v 5.424455 8.768685 -3.079304
v 5.337299 7.772491 -3.079304
v 4.449683 7.850147 -2.625313
vt 0.640625 0.90625
vt 0.609375 0.90625
vt 0.609375 0.921875
vt 0.640625 0.921875
f 143/409 139/410 138/411 142/412
vt 0.6015625 0.90625
vt 0.5703125 0.90625
vt 0.5703125 0.921875
vt 0.6015625 0.921875
f 140/413 144/414 141/415 137/416
vt 0.609375 0.921875
vt 0.6015625 0.921875
vt 0.6015625 0.984375
vt 0.609375 0.984375
f 138/417 137/418 141/419 142/420
vt 0.6171875 0.984375
vt 0.609375 0.984375
vt 0.609375 0.921875
vt 0.6171875 0.921875
f 143/421 144/422 140/423 139/424
vt 0.609375 0.90625
vt 0.6015625 0.90625
vt 0.6015625 0.921875
vt 0.609375 0.921875
f 139/425 140/426 137/427 138/428
vt 0.6484375 0.90625
vt 0.640625 0.90625
vt 0.640625 0.921875
vt 0.6484375 0.921875
f 144/429 143/430 142/431 141/432
o baseModel18
v 0.5290209 12.5 3.954393
v 2.326609 12.5 3.077651
v 2.326609 11.5 3.077651
v 0.5290209 11.5 3.954393
v 0.967392 12.5 4.853187
v 2.76498 12.5 3.976445
v 2.76498 11.5 3.976445
v 0.967392 11.5 4.853187
vt 0.6640625 0.953125
vt 0.65625 0.953125
vt 0.65625 0.96875
vt 0.6640625 0.96875
f 151/433 147/434 146/435 150/436
vt 0.640625 0.953125
vt 0.6328125 0.953125
vt 0.6328125 0.96875
vt 0.640625 0.96875
f 148/437 152/438 149/439 145/440
vt 0.65625 0.96875
vt 0.640625 0.96875
vt 0.640625 0.984375
vt 0.65625 0.984375
f 146/441 145/442 149/443 150/444
vt 0.671875 0.984375
vt 0.65625 0.984375
vt 0.65625 0.96875
vt 0.671875 0.96875
f 151/445 152/446 148/447 147/448
vt 0.65625 0.953125
vt 0.640625 0.953125
vt 0.640625 0.96875
vt 0.65625 0.96875
f 147/449 148/450 145/451 146/452
vt 0.6796875 0.953125
vt 0.6640625 0.953125
vt 0.6640625 0.96875
vt 0.6796875 0.96875
f 152/453 151/454 150/455 149/456
o baseModel19
v -3 7 -1
v 3.389084 7 -5.81452
v 3.389084 4 -5.81452
v -3 4 -1
v 1.81452 7 5.389084
v 8.203604 7 0.5745642
v 8.203604 4 0.5745642
v 1.81452 4 5.389084
vt 0.1953125 0.8125
vt 0.1328125 0.8125
vt 0.1328125 0.859375
vt 0.1953125 0.859375
f 159/457 155/458 154/459 158/460
vt 0.0703125 0.8125
vt 0.0078125 0.8125
vt 0.0078125 0.859375
vt 0.0703125 0.859375
f 156/461 160/462 157/463 153/464
vt 0.1328125 0.859375
vt 0.0703125 0.859375
vt 0.0703125 0.984375
vt 0.1328125 0.984375
f 154/465 153/466 157/467 158/468
vt 0.1953125 0.984375
vt 0.1328125 0.984375
vt 0.1328125 0.859375
vt 0.1953125 0.859375
f 159/469 160/470 156/471 155/472
vt 0.1328125 0.8125
vt 0.0703125 0.8125
vt 0.0703125 0.859375
vt 0.1328125 0.859375
f 155/473 156/474 153/475 154/476
vt 0.2578125 0.8125
vt 0.1953125 0.8125
vt 0.1953125 0.859375
vt 0.2578125 0.859375
f 160/477 159/478 158/479 157/480
