# Converted from Decimation Beardie model: gasMaskMilitary.bmodel
# Coordinates retain the original Beardie model units.
mtllib gas_mask_military.mtl
usemtl gas_mask_military_material
o bodyModel0
v 4.5 50.93 -1.866667
v 7.463065 50.93 -1.397364
v 7.495769 48.94096 -1.603847
v 4.532704 48.94096 -2.07315
v 4.344423 50.82547 -0.8843893
v 7.307488 50.82547 -0.415086
v 7.340191 48.83643 -0.6215692
v 4.377126 48.83643 -1.090872
vt 0.009765625 0.80859375
vt 0.0078125 0.80859375
vt 0.0078125 0.8125
vt 0.009765625 0.8125
f 7/1 3/2 2/3 6/4
vt 0.001953125 0.80859375
vt 0 0.80859375
vt 0 0.8125
vt 0.001953125 0.8125
f 4/5 8/6 5/7 1/8
vt 0.0078125 0.8125
vt 0.001953125 0.8125
vt 0.001953125 0.814453125
vt 0.0078125 0.814453125
f 2/9 1/10 5/11 6/12
vt 0.013671875 0.814453125
vt 0.0078125 0.814453125
vt 0.0078125 0.8125
vt 0.013671875 0.8125
f 7/13 8/14 4/15 3/16
vt 0.0078125 0.80859375
vt 0.001953125 0.80859375
vt 0.001953125 0.8125
vt 0.0078125 0.8125
f 3/17 4/18 1/19 2/20
vt 0.015625 0.80859375
vt 0.009765625 0.80859375
vt 0.009765625 0.8125
vt 0.015625 0.8125
f 8/21 7/22 6/23 5/24
o bodyModel1
v 2 52.13334 8
v 6 52.13334 8
v 6 48.13334 8
v 2 48.13334 8
v 2 52.13334 9
v 6 52.13334 9
v 6 48.13334 9
v 2 48.13334 9
vt 0.01171875 0.880859375
vt 0.009765625 0.880859375
vt 0.009765625 0.888671875
vt 0.01171875 0.888671875
f 15/25 11/26 10/27 14/28
vt 0.001953125 0.880859375
vt 0 0.880859375
vt 0 0.888671875
vt 0.001953125 0.888671875
f 12/29 16/30 13/31 9/32
vt 0.009765625 0.888671875
vt 0.001953125 0.888671875
vt 0.001953125 0.890625
vt 0.009765625 0.890625
f 10/33 9/34 13/35 14/36
vt 0.017578125 0.890625
vt 0.009765625 0.890625
vt 0.009765625 0.888671875
vt 0.017578125 0.888671875
f 15/37 16/38 12/39 11/40
vt 0.009765625 0.880859375
vt 0.001953125 0.880859375
vt 0.001953125 0.888671875
vt 0.009765625 0.888671875
f 11/41 12/42 9/43 10/44
vt 0.01953125 0.880859375
vt 0.01171875 0.880859375
vt 0.01171875 0.888671875
vt 0.01953125 0.888671875
f 16/45 15/46 14/47 13/48
o bodyModel2
v 2.9 51.9 -1.066667
v 4.9 51.9 -1.066667
v 4.9 48.94558 -1.587611
v 2.9 48.94558 -1.587611
v 2.9 51.72635 -0.08185924
v 4.9 51.72635 -0.08185924
v 4.9 48.77193 -0.6028037
v 2.9 48.77193 -0.6028037
vt 0.0078125 0.8828125
vt 0.005859375 0.8828125
vt 0.005859375 0.888671875
vt 0.0078125 0.888671875
f 23/49 19/50 18/51 22/52
vt 0.001953125 0.8828125
vt 0 0.8828125
vt 0 0.888671875
vt 0.001953125 0.888671875
f 20/53 24/54 21/55 17/56
vt 0.005859375 0.888671875
vt 0.001953125 0.888671875
vt 0.001953125 0.890625
vt 0.005859375 0.890625
f 18/57 17/58 21/59 22/60
vt 0.009765625 0.890625
vt 0.005859375 0.890625
vt 0.005859375 0.888671875
vt 0.009765625 0.888671875
f 23/61 24/62 20/63 19/64
vt 0.005859375 0.8828125
vt 0.001953125 0.8828125
vt 0.001953125 0.888671875
vt 0.005859375 0.888671875
f 19/65 20/66 17/67 18/68
vt 0.01171875 0.8828125
vt 0.0078125 0.8828125
vt 0.0078125 0.888671875
vt 0.01171875 0.888671875
f 24/69 23/70 22/71 21/72
o bodyModel3
v 0.436935 50.93 -1.397364
v 3.4 50.93 -1.866667
v 3.367296 48.94096 -2.07315
v 0.4042312 48.94096 -1.603847
v 0.5925124 50.82547 -0.415086
v 3.555577 50.82547 -0.8843893
v 3.522874 48.83643 -1.090872
v 0.5598087 48.83643 -0.6215692
vt 0.009765625 0.80859375
vt 0.0078125 0.80859375
vt 0.0078125 0.8125
vt 0.009765625 0.8125
f 31/73 27/74 26/75 30/76
vt 0.001953125 0.80859375
vt 0 0.80859375
vt 0 0.8125
vt 0.001953125 0.8125
f 28/77 32/78 29/79 25/80
vt 0.0078125 0.8125
vt 0.001953125 0.8125
vt 0.001953125 0.814453125
vt 0.0078125 0.814453125
f 26/81 25/82 29/83 30/84
vt 0.013671875 0.814453125
vt 0.0078125 0.814453125
vt 0.0078125 0.8125
vt 0.013671875 0.8125
f 31/85 32/86 28/87 27/88
vt 0.0078125 0.80859375
vt 0.001953125 0.80859375
vt 0.001953125 0.8125
vt 0.0078125 0.8125
f 27/89 28/90 25/91 26/92
vt 0.015625 0.80859375
vt 0.009765625 0.80859375
vt 0.009765625 0.8125
vt 0.015625 0.8125
f 32/93 31/94 30/95 29/96
o bodyModel4
v 4.887391 49 -1.584743
v 6.8 49 -1
v 6.759185 45.00244 -0.8665018
v 4.846576 45.00244 -1.451245
v 4.595197 49.0349 -0.6290213
v 6.507806 49.0349 -0.04427781
v 6.466992 45.03734 0.08922043
v 4.554382 45.03734 -0.495523
vt 0.0078125 0.880859375
vt 0.005859375 0.880859375
vt 0.005859375 0.888671875
vt 0.0078125 0.888671875
f 39/97 35/98 34/99 38/100
vt 0.001953125 0.880859375
vt 0 0.880859375
vt 0 0.888671875
vt 0.001953125 0.888671875
f 36/101 40/102 37/103 33/104
vt 0.005859375 0.888671875
vt 0.001953125 0.888671875
vt 0.001953125 0.890625
vt 0.005859375 0.890625
f 34/105 33/106 37/107 38/108
vt 0.009765625 0.890625
vt 0.005859375 0.890625
vt 0.005859375 0.888671875
vt 0.009765625 0.888671875
f 39/109 40/110 36/111 35/112
vt 0.005859375 0.880859375
vt 0.001953125 0.880859375
vt 0.001953125 0.888671875
vt 0.005859375 0.888671875
f 35/113 36/114 33/115 34/116
vt 0.01171875 0.880859375
vt 0.0078125 0.880859375
vt 0.0078125 0.888671875
vt 0.01171875 0.888671875
f 40/117 39/118 38/119 37/120
o bodyModel5
v 1 49 -1
v 2.912609 49 -1.584743
v 2.953424 45.00244 -1.451245
v 1.040815 45.00244 -0.8665018
v 1.292194 49.0349 -0.04427781
v 3.204803 49.0349 -0.6290213
v 3.245618 45.03734 -0.495523
v 1.333008 45.03734 0.08922043
vt 0.0078125 0.880859375
vt 0.005859375 0.880859375
vt 0.005859375 0.888671875
vt 0.0078125 0.888671875
f 47/121 43/122 42/123 46/124
vt 0.001953125 0.880859375
vt 0 0.880859375
vt 0 0.888671875
vt 0.001953125 0.888671875
f 44/125 48/126 45/127 41/128
vt 0.005859375 0.888671875
vt 0.001953125 0.888671875
vt 0.001953125 0.890625
vt 0.005859375 0.890625
f 42/129 41/130 45/131 46/132
vt 0.009765625 0.890625
vt 0.005859375 0.890625
vt 0.005859375 0.888671875
vt 0.009765625 0.888671875
f 47/133 48/134 44/135 43/136
vt 0.005859375 0.880859375
vt 0.001953125 0.880859375
vt 0.001953125 0.888671875
vt 0.005859375 0.888671875
f 43/137 44/138 41/139 42/140
vt 0.01171875 0.880859375
vt 0.0078125 0.880859375
vt 0.0078125 0.888671875
vt 0.01171875 0.888671875
f 48/141 47/142 46/143 45/144
o bodyModel6
v 2.9 49 -1.6
v 4.9 49 -1.6
v 4.9 45 -1.6
v 2.9 45 -1.6
v 2.9 49 -0.6
v 4.9 49 -0.6
v 4.9 45 -0.6
v 2.9 45 -0.6
vt 0.0078125 0.880859375
vt 0.005859375 0.880859375
vt 0.005859375 0.888671875
vt 0.0078125 0.888671875
f 55/145 51/146 50/147 54/148
vt 0.001953125 0.880859375
vt 0 0.880859375
vt 0 0.888671875
vt 0.001953125 0.888671875
f 52/149 56/150 53/151 49/152
vt 0.005859375 0.888671875
vt 0.001953125 0.888671875
vt 0.001953125 0.890625
vt 0.005859375 0.890625
f 50/153 49/154 53/155 54/156
vt 0.009765625 0.890625
vt 0.005859375 0.890625
vt 0.005859375 0.888671875
vt 0.009765625 0.888671875
f 55/157 56/158 52/159 51/160
vt 0.005859375 0.880859375
vt 0.001953125 0.880859375
vt 0.001953125 0.888671875
vt 0.005859375 0.888671875
f 51/161 52/162 49/163 50/164
vt 0.01171875 0.880859375
vt 0.0078125 0.880859375
vt 0.0078125 0.888671875
vt 0.01171875 0.888671875
f 56/165 55/166 54/167 53/168
o bodyModel7
v 7.2 47.4 -2.4
v 8.797271 47.4 -1.19637
v 8.797271 45.4 -1.19637
v 7.2 45.4 -2.4
v 5.99637 47.4 -0.802729
v 7.593641 47.4 0.4009011
v 7.593641 45.4 0.4009011
v 5.99637 45.4 -0.802729
vt 0.01171875 0.791015625
vt 0.0078125 0.791015625
vt 0.0078125 0.794921875
vt 0.01171875 0.794921875
f 63/169 59/170 58/171 62/172
vt 0.00390625 0.791015625
vt 0 0.791015625
vt 0 0.794921875
vt 0.00390625 0.794921875
f 60/173 64/174 61/175 57/176
vt 0.0078125 0.794921875
vt 0.00390625 0.794921875
vt 0.00390625 0.798828125
vt 0.0078125 0.798828125
f 58/177 57/178 61/179 62/180
vt 0.01171875 0.798828125
vt 0.0078125 0.798828125
vt 0.0078125 0.794921875
vt 0.01171875 0.794921875
f 63/181 64/182 60/183 59/184
vt 0.0078125 0.791015625
vt 0.00390625 0.791015625
vt 0.00390625 0.794921875
vt 0.0078125 0.794921875
f 59/185 60/186 57/187 58/188
vt 0.015625 0.791015625
vt 0.01171875 0.791015625
vt 0.01171875 0.794921875
vt 0.015625 0.794921875
f 64/189 63/190 62/191 61/192
o bodyModel8
v 2.4 47.93333 -2.6
v 5.4 47.93333 -2.6
v 5.4 44.94475 -2.338533
v 2.4 44.94475 -2.338533
v 2.4 48.10764 -0.6076106
v 5.4 48.10764 -0.6076106
v 5.4 45.11906 -0.3461434
v 2.4 45.11906 -0.3461434
vt 0.013671875 0.767578125
vt 0.009765625 0.767578125
vt 0.009765625 0.7734375
vt 0.013671875 0.7734375
f 71/193 67/194 66/195 70/196
vt 0.00390625 0.767578125
vt 0 0.767578125
vt 0 0.7734375
vt 0.00390625 0.7734375
f 68/197 72/198 69/199 65/200
vt 0.009765625 0.7734375
vt 0.00390625 0.7734375
vt 0.00390625 0.77734375
vt 0.009765625 0.77734375
f 66/201 65/202 69/203 70/204
vt 0.015625 0.77734375
vt 0.009765625 0.77734375
vt 0.009765625 0.7734375
vt 0.015625 0.7734375
f 71/205 72/206 68/207 67/208
vt 0.009765625 0.767578125
vt 0.00390625 0.767578125
vt 0.00390625 0.7734375
vt 0.009765625 0.7734375
f 67/209 68/210 65/211 66/212
vt 0.01953125 0.767578125
vt 0.013671875 0.767578125
vt 0.013671875 0.7734375
vt 0.01953125 0.7734375
f 72/213 71/214 70/215 69/216
o bodyModel9
v 7.2 47.93333 -3.4
v 9.595907 47.93333 -1.594555
v 9.595907 44.93333 -1.594555
v 7.2 44.93333 -3.4
v 5.99637 47.93333 -1.802729
v 8.392277 47.93333 0.002716062
v 8.392277 44.93333 0.002716062
v 5.99637 44.93333 -1.802729
vt 0.013671875 0.767578125
vt 0.009765625 0.767578125
vt 0.009765625 0.7734375
vt 0.013671875 0.7734375
f 79/217 75/218 74/219 78/220
vt 0.00390625 0.767578125
vt 0 0.767578125
vt 0 0.7734375
vt 0.00390625 0.7734375
f 76/221 80/222 77/223 73/224
vt 0.009765625 0.7734375
vt 0.00390625 0.7734375
vt 0.00390625 0.77734375
vt 0.009765625 0.77734375
f 74/225 73/226 77/227 78/228
vt 0.015625 0.77734375
vt 0.009765625 0.77734375
vt 0.009765625 0.7734375
vt 0.015625 0.7734375
f 79/229 80/230 76/231 75/232
vt 0.009765625 0.767578125
vt 0.00390625 0.767578125
vt 0.00390625 0.7734375
vt 0.009765625 0.7734375
f 75/233 76/234 73/235 74/236
vt 0.01953125 0.767578125
vt 0.013671875 0.767578125
vt 0.013671875 0.7734375
vt 0.01953125 0.7734375
f 80/237 79/238 78/239 77/240
o bodyModel10
v 3 53.53333 -0.4666667
v 5 53.53333 -0.4666667
v 5 52.53333 -0.4666667
v 3 52.53333 -0.4666667
v 3 53.53333 8.533333
v 5 53.53333 8.533333
v 5 52.53333 8.533333
v 3 52.53333 8.533333
vt 0.0390625 0.87109375
vt 0.021484375 0.87109375
vt 0.021484375 0.873046875
vt 0.0390625 0.873046875
f 87/241 83/242 82/243 86/244
vt 0.017578125 0.87109375
vt 0 0.87109375
vt 0 0.873046875
vt 0.017578125 0.873046875
f 84/245 88/246 85/247 81/248
vt 0.021484375 0.873046875
vt 0.017578125 0.873046875
vt 0.017578125 0.890625
vt 0.021484375 0.890625
f 82/249 81/250 85/251 86/252
vt 0.025390625 0.890625
vt 0.021484375 0.890625
vt 0.021484375 0.873046875
vt 0.025390625 0.873046875
f 87/253 88/254 84/255 83/256
vt 0.021484375 0.87109375
vt 0.017578125 0.87109375
vt 0.017578125 0.873046875
vt 0.021484375 0.873046875
f 83/257 84/258 81/259 82/260
vt 0.04296875 0.87109375
vt 0.0390625 0.87109375
vt 0.0390625 0.873046875
vt 0.04296875 0.873046875
f 88/261 87/262 86/263 85/264
o bodyModel11
v 7.533333 51.13334 -0.4666667
v 8.533333 51.13334 -0.4666667
v 8.533333 49.13334 -0.4666667
v 7.533333 49.13334 -0.4666667
v 7.533333 51.13334 8.533333
v 8.533333 51.13334 8.533333
v 8.533333 49.13334 8.533333
v 7.533333 49.13334 8.533333
vt 0.037109375 0.869140625
vt 0.01953125 0.869140625
vt 0.01953125 0.873046875
vt 0.037109375 0.873046875
f 95/265 91/266 90/267 94/268
vt 0.017578125 0.869140625
vt 0 0.869140625
vt 0 0.873046875
vt 0.017578125 0.873046875
f 92/269 96/270 93/271 89/272
vt 0.01953125 0.873046875
vt 0.017578125 0.873046875
vt 0.017578125 0.890625
vt 0.01953125 0.890625
f 90/273 89/274 93/275 94/276
vt 0.021484375 0.890625
vt 0.01953125 0.890625
vt 0.01953125 0.873046875
vt 0.021484375 0.873046875
f 95/277 96/278 92/279 91/280
vt 0.01953125 0.869140625
vt 0.017578125 0.869140625
vt 0.017578125 0.873046875
vt 0.01953125 0.873046875
f 91/281 92/282 89/283 90/284
vt 0.0390625 0.869140625
vt 0.037109375 0.869140625
vt 0.037109375 0.873046875
vt 0.0390625 0.873046875
f 96/285 95/286 94/287 93/288
o bodyModel12
v 0.5333334 51.13334 7.533333
v 7.533333 51.13334 7.533333
v 7.533333 49.13334 7.533333
v 0.5333334 49.13334 7.533333
v 0.5333334 51.13334 8.533333
v 7.533333 51.13334 8.533333
v 7.533333 49.13334 8.533333
v 0.5333334 49.13334 8.533333
vt 0.017578125 0.8671875
vt 0.015625 0.8671875
vt 0.015625 0.87109375
vt 0.017578125 0.87109375
f 103/289 99/290 98/291 102/292
vt 0.001953125 0.8671875
vt 0 0.8671875
vt 0 0.87109375
vt 0.001953125 0.87109375
f 100/293 104/294 101/295 97/296
vt 0.015625 0.87109375
vt 0.001953125 0.87109375
vt 0.001953125 0.873046875
vt 0.015625 0.873046875
f 98/297 97/298 101/299 102/300
vt 0.029296875 0.873046875
vt 0.015625 0.873046875
vt 0.015625 0.87109375
vt 0.029296875 0.87109375
f 103/301 104/302 100/303 99/304
vt 0.015625 0.8671875
vt 0.001953125 0.8671875
vt 0.001953125 0.87109375
vt 0.015625 0.87109375
f 99/305 100/306 97/307 98/308
vt 0.03125 0.8671875
vt 0.017578125 0.8671875
vt 0.017578125 0.87109375
vt 0.03125 0.87109375
f 104/309 103/310 102/311 101/312
o bodyModel13
v -0.4666667 51.13334 -0.4666667
v 0.5333333 51.13334 -0.4666667
v 0.5333333 49.13334 -0.4666667
v -0.4666667 49.13334 -0.4666667
v -0.4666667 51.13334 8.533333
v 0.5333333 51.13334 8.533333
v 0.5333333 49.13334 8.533333
v -0.4666667 49.13334 8.533333
vt 0.037109375 0.869140625
vt 0.01953125 0.869140625
vt 0.01953125 0.873046875
vt 0.037109375 0.873046875
f 111/313 107/314 106/315 110/316
vt 0.017578125 0.869140625
vt 0 0.869140625
vt 0 0.873046875
vt 0.017578125 0.873046875
f 108/317 112/318 109/319 105/320
vt 0.01953125 0.873046875
vt 0.017578125 0.873046875
vt 0.017578125 0.890625
vt 0.01953125 0.890625
f 106/321 105/322 109/323 110/324
vt 0.021484375 0.890625
vt 0.01953125 0.890625
vt 0.01953125 0.873046875
vt 0.021484375 0.873046875
f 111/325 112/326 108/327 107/328
vt 0.01953125 0.869140625
vt 0.017578125 0.869140625
vt 0.017578125 0.873046875
vt 0.01953125 0.873046875
f 107/329 108/330 105/331 106/332
vt 0.0390625 0.869140625
vt 0.037109375 0.869140625
vt 0.037109375 0.873046875
vt 0.0390625 0.873046875
f 112/333 111/334 110/335 109/336
o bodyModel14
v 3 52.53333 7.533333
v 5 52.53333 7.533333
v 5 49.53333 7.533333
v 3 49.53333 7.533333
v 3 52.53333 8.533333
v 5 52.53333 8.533333
v 5 49.53333 8.533333
v 3 49.53333 8.533333
vt 0.0078125 0.8828125
vt 0.005859375 0.8828125
vt 0.005859375 0.888671875
vt 0.0078125 0.888671875
f 119/337 115/338 114/339 118/340
vt 0.001953125 0.8828125
vt 0 0.8828125
vt 0 0.888671875
vt 0.001953125 0.888671875
f 116/341 120/342 117/343 113/344
vt 0.005859375 0.888671875
vt 0.001953125 0.888671875
vt 0.001953125 0.890625
vt 0.005859375 0.890625
f 114/345 113/346 117/347 118/348
vt 0.009765625 0.890625
vt 0.005859375 0.890625
vt 0.005859375 0.888671875
vt 0.009765625 0.888671875
f 119/349 120/350 116/351 115/352
vt 0.005859375 0.8828125
vt 0.001953125 0.8828125
vt 0.001953125 0.888671875
vt 0.005859375 0.888671875
f 115/353 116/354 113/355 114/356
vt 0.01171875 0.8828125
vt 0.0078125 0.8828125
vt 0.0078125 0.888671875
vt 0.01171875 0.888671875
f 120/357 119/358 118/359 117/360
o bodyModel15
v 0 53 -1
v 8 53 -1
v 8 45 -1
v 0 45 -1
v 0 53 0
v 8 53 0
v 8 45 0
v 0 45 0
vt 0.01953125 0.873046875
vt 0.017578125 0.873046875
vt 0.017578125 0.888671875
vt 0.01953125 0.888671875
f 127/361 123/362 122/363 126/364
vt 0.001953125 0.873046875
vt 0 0.873046875
vt 0 0.888671875
vt 0.001953125 0.888671875
f 124/365 128/366 125/367 121/368
vt 0.017578125 0.888671875
vt 0.001953125 0.888671875
vt 0.001953125 0.890625
vt 0.017578125 0.890625
f 122/369 121/370 125/371 126/372
vt 0.033203125 0.890625
vt 0.017578125 0.890625
vt 0.017578125 0.888671875
vt 0.033203125 0.888671875
f 127/373 128/374 124/375 123/376
vt 0.017578125 0.873046875
vt 0.001953125 0.873046875
vt 0.001953125 0.888671875
vt 0.017578125 0.888671875
f 123/377 124/378 121/379 122/380
vt 0.03515625 0.873046875
vt 0.01953125 0.873046875
vt 0.01953125 0.888671875
vt 0.03515625 0.888671875
f 128/381 127/382 126/383 125/384
