# Converted from Decimation Beardie model: flashlight.bmodel
# Coordinates retain the original Beardie model units.
mtllib flashlight.mtl
usemtl flashlight_material
o grip
v 17.65 3.55 0.0999999
v 18.45 3.55 0.0999999
v 18.45 2.95 0.0999999
v 17.65 2.95 0.0999999
v 17.7 3.45 0.2999999
v 18.45 3.45 0.2999999
v 18.45 3.05 0.2999999
v 17.7 3.05 0.2999999
vt 0.00234375 0.9984375
vt 0.001953125 0.9984375
vt 0.001953125 0.999609375
vt 0.00234375 0.999609375
f 7/1 3/2 2/3 6/4
vt 0.000390625 0.9984375
vt 0 0.9984375
vt 0 0.999609375
vt 0.000390625 0.999609375
f 4/5 8/6 5/7 1/8
vt 0.001953125 0.999609375
vt 0.000390625 0.999609375
vt 0.000390625 1
vt 0.001953125 1
f 2/9 1/10 5/11 6/12
vt 0.003515625 1
vt 0.001953125 1
vt 0.001953125 0.999609375
vt 0.003515625 0.999609375
f 7/13 8/14 4/15 3/16
vt 0.001953125 0.9984375
vt 0.000390625 0.9984375
vt 0.000390625 0.999609375
vt 0.001953125 0.999609375
f 3/17 4/18 1/19 2/20
vt 0.00390625 0.9984375
vt 0.00234375 0.9984375
vt 0.00234375 0.999609375
vt 0.00390625 0.999609375
f 8/21 7/22 6/23 5/24
o grip1
v 17.65 3.15 -6e-08
v 18.45 3.15 -6e-08
v 18.45 2.95 -6e-08
v 17.65 2.95 -6e-08
v 17.65 3.15 0.09999994
v 18.45 3.15 0.09999994
v 18.45 2.95 0.09999994
v 17.65 2.95 0.09999994
vt 0.001953125 0.999414062
vt 0.0017578125 0.999414062
vt 0.0017578125 0.999804687
vt 0.001953125 0.999804687
f 15/25 11/26 10/27 14/28
vt 0.0001953125 0.999414062
vt 0 0.999414062
vt 0 0.999804687
vt 0.0001953125 0.999804687
f 12/29 16/30 13/31 9/32
vt 0.0017578125 0.999804687
vt 0.0001953125 0.999804687
vt 0.0001953125 1
vt 0.0017578125 1
f 10/33 9/34 13/35 14/36
vt 0.0033203125 1
vt 0.0017578125 1
vt 0.0017578125 0.999804687
vt 0.0033203125 0.999804687
f 15/37 16/38 12/39 11/40
vt 0.0017578125 0.999414062
vt 0.0001953125 0.999414062
vt 0.0001953125 0.999804687
vt 0.0017578125 0.999804687
f 11/41 12/42 9/43 10/44
vt 0.003515625 0.999414062
vt 0.001953125 0.999414062
vt 0.001953125 0.999804687
vt 0.003515625 0.999804687
f 16/45 15/46 14/47 13/48
o grip2
v 17.65 3.55 -6e-08
v 18.45 3.55 -6e-08
v 18.45 3.35 -6e-08
v 17.65 3.35 -6e-08
v 17.65 3.55 0.09999994
v 18.45 3.55 0.09999994
v 18.45 3.35 0.09999994
v 17.65 3.35 0.09999994
vt 0.001953125 0.999414062
vt 0.0017578125 0.999414062
vt 0.0017578125 0.999804687
vt 0.001953125 0.999804687
f 23/49 19/50 18/51 22/52
vt 0.0001953125 0.999414062
vt 0 0.999414062
vt 0 0.999804687
vt 0.0001953125 0.999804687
f 20/53 24/54 21/55 17/56
vt 0.0017578125 0.999804687
vt 0.0001953125 0.999804687
vt 0.0001953125 1
vt 0.0017578125 1
f 18/57 17/58 21/59 22/60
vt 0.0033203125 1
vt 0.0017578125 1
vt 0.0017578125 0.999804687
vt 0.0033203125 0.999804687
f 23/61 24/62 20/63 19/64
vt 0.0017578125 0.999414062
vt 0.0001953125 0.999414062
vt 0.0001953125 0.999804687
vt 0.0017578125 0.999804687
f 19/65 20/66 17/67 18/68
vt 0.003515625 0.999414062
vt 0.001953125 0.999414062
vt 0.001953125 0.999804687
vt 0.003515625 0.999804687
f 24/69 23/70 22/71 21/72
o grip3
v 18.45 3.5 0.02499991
v 18.65 3.5 0.02499991
v 18.65 3.4 0.02499991
v 18.45 3.4 0.02499991
v 18.45 3.55 0.1249999
v 18.65 3.55 0.1249999
v 18.65 3.35 0.1249999
v 18.45 3.35 0.1249999
vt 0.00078125 0.999414062
vt 0.0005859375 0.999414062
vt 0.0005859375 0.999804687
vt 0.00078125 0.999804687
f 31/73 27/74 26/75 30/76
vt 0.0001953125 0.999414062
vt 0 0.999414062
vt 0 0.999804687
vt 0.0001953125 0.999804687
f 28/77 32/78 29/79 25/80
vt 0.0005859375 0.999804687
vt 0.0001953125 0.999804687
vt 0.0001953125 1
vt 0.0005859375 1
f 26/81 25/82 29/83 30/84
vt 0.0009765625 1
vt 0.0005859375 1
vt 0.0005859375 0.999804687
vt 0.0009765625 0.999804687
f 31/85 32/86 28/87 27/88
vt 0.0005859375 0.999414062
vt 0.0001953125 0.999414062
vt 0.0001953125 0.999804687
vt 0.0005859375 0.999804687
f 27/89 28/90 25/91 26/92
vt 0.001171875 0.999414062
vt 0.00078125 0.999414062
vt 0.00078125 0.999804687
vt 0.001171875 0.999804687
f 32/93 31/94 30/95 29/96
o grip4
v 18.45 3.55 0.1249999
v 18.65 3.55 0.1249999
v 18.65 3.35 0.1249999
v 18.45 3.35 0.1249999
v 18.45 3.5 0.2249999
v 18.65 3.5 0.2249999
v 18.65 3.4 0.2249999
v 18.45 3.4 0.2249999
vt 0.00078125 0.999414062
vt 0.0005859375 0.999414062
vt 0.0005859375 0.999804687
vt 0.00078125 0.999804687
f 39/97 35/98 34/99 38/100
vt 0.0001953125 0.999414062
vt 0 0.999414062
vt 0 0.999804687
vt 0.0001953125 0.999804687
f 36/101 40/102 37/103 33/104
vt 0.0005859375 0.999804687
vt 0.0001953125 0.999804687
vt 0.0001953125 1
vt 0.0005859375 1
f 34/105 33/106 37/107 38/108
vt 0.0009765625 1
vt 0.0005859375 1
vt 0.0005859375 0.999804687
vt 0.0009765625 0.999804687
f 39/109 40/110 36/111 35/112
vt 0.0005859375 0.999414062
vt 0.0001953125 0.999414062
vt 0.0001953125 0.999804687
vt 0.0005859375 0.999804687
f 35/113 36/114 33/115 34/116
vt 0.001171875 0.999414062
vt 0.00078125 0.999414062
vt 0.00078125 0.999804687
vt 0.001171875 0.999804687
f 40/117 39/118 38/119 37/120
