# Converted from Decimation Beardie model: santahat.bmodel
# Coordinates retain the original Beardie model units.
mtllib santahat.mtl
usemtl santahat_material
o headModel0
v -4.2 8.1 -4.5
v 4.2 8.1 -4.5
v 4.3 7 -4.7
v -4.3 7 -4.7
v -4.2 8.1 4.5
v 4.2 8.1 4.5
v 4.3 7 4.7
v -4.3 7 4.7
vt 0.5234375 0.9140625
vt 0.453125 0.9140625
vt 0.453125 0.921875
vt 0.5234375 0.921875
f 7/1 3/2 2/3 6/4
vt 0.390625 0.9140625
vt 0.3203125 0.9140625
vt 0.3203125 0.921875
vt 0.390625 0.921875
f 4/5 8/6 5/7 1/8
vt 0.453125 0.921875
vt 0.390625 0.921875
vt 0.390625 0.9921875
vt 0.453125 0.9921875
f 2/9 1/10 5/11 6/12
vt 0.515625 0.9921875
vt 0.453125 0.9921875
vt 0.453125 0.921875
vt 0.515625 0.921875
f 7/13 8/14 4/15 3/16
vt 0.453125 0.9140625
vt 0.390625 0.9140625
vt 0.390625 0.921875
vt 0.453125 0.921875
f 3/17 4/18 1/19 2/20
vt 0.5859375 0.9140625
vt 0.5234375 0.9140625
vt 0.5234375 0.921875
vt 0.5859375 0.921875
f 8/21 7/22 6/23 5/24
o headModel1
v 0.8 10.1 -3.7
v 5.2 10.1 -1.7
v 4.2 8.1 -3.3
v 0.8 8.1 -4.5
v 1.8 10.1 3.7
v 5.2 10.1 1.7
v 4.2 8.1 3.3
v 0.8 8.1 4.5
vt 0.796875 0.9140625
vt 0.7265625 0.9140625
vt 0.7265625 0.921875
vt 0.796875 0.921875
f 15/25 11/26 10/27 14/28
vt 0.703125 0.9140625
vt 0.6328125 0.9140625
vt 0.6328125 0.921875
vt 0.703125 0.921875
f 12/29 16/30 13/31 9/32
vt 0.7265625 0.921875
vt 0.703125 0.921875
vt 0.703125 0.9921875
vt 0.7265625 0.9921875
f 10/33 9/34 13/35 14/36
vt 0.75 0.9921875
vt 0.7265625 0.9921875
vt 0.7265625 0.921875
vt 0.75 0.921875
f 15/37 16/38 12/39 11/40
vt 0.7265625 0.9140625
vt 0.703125 0.9140625
vt 0.703125 0.921875
vt 0.7265625 0.921875
f 11/41 12/42 9/43 10/44
vt 0.8203125 0.9140625
vt 0.796875 0.9140625
vt 0.796875 0.921875
vt 0.8203125 0.921875
f 16/45 15/46 14/47 13/48
o headModel2
v -4.4 7 -4.9
v 4.4 7 -4.9
v 4.5 6 -5
v -4.5 6 -5
v -4.4 7 4.9
v 4.4 7 4.9
v 4.5 6 5
v -4.5 6 5
vt 0.2109375 0.7734375
vt 0.140625 0.7734375
vt 0.140625 0.796875
vt 0.2109375 0.796875
f 23/49 19/50 18/51 22/52
vt 0.078125 0.7734375
vt 0.0078125 0.7734375
vt 0.0078125 0.796875
vt 0.078125 0.796875
f 20/53 24/54 21/55 17/56
vt 0.140625 0.796875
vt 0.078125 0.796875
vt 0.078125 0.8671875
vt 0.140625 0.8671875
f 18/57 17/58 21/59 22/60
vt 0.203125 0.8671875
vt 0.140625 0.8671875
vt 0.140625 0.796875
vt 0.203125 0.796875
f 23/61 24/62 20/63 19/64
vt 0.140625 0.7734375
vt 0.078125 0.7734375
vt 0.078125 0.796875
vt 0.140625 0.796875
f 19/65 20/66 17/67 18/68
vt 0.2734375 0.7734375
vt 0.2109375 0.7734375
vt 0.2109375 0.796875
vt 0.2734375 0.796875
f 24/69 23/70 22/71 21/72
o headModel3
v 5.2 10.1 -1.7
v 7.2 8.1 -1.2
v 4.2 6.1 -1
v 4.2 8.1 -3.3
v 5.2 10.1 1.7
v 7.2 8.1 1.2
v 4.2 6.1 1
v 4.2 8.1 3.3
vt 0.3671875 0.9375
vt 0.3203125 0.9375
vt 0.3203125 0.9453125
vt 0.3671875 0.9453125
f 31/73 27/74 26/75 30/76
vt 0.3046875 0.9375
vt 0.2578125 0.9375
vt 0.2578125 0.9453125
vt 0.3046875 0.9453125
f 28/77 32/78 29/79 25/80
vt 0.3203125 0.9453125
vt 0.3046875 0.9453125
vt 0.3046875 0.9921875
vt 0.3203125 0.9921875
f 26/81 25/82 29/83 30/84
vt 0.3359375 0.9921875
vt 0.3203125 0.9921875
vt 0.3203125 0.9453125
vt 0.3359375 0.9453125
f 31/85 32/86 28/87 27/88
vt 0.3203125 0.9375
vt 0.3046875 0.9375
vt 0.3046875 0.9453125
vt 0.3203125 0.9453125
f 27/89 28/90 25/91 26/92
vt 0.3828125 0.9375
vt 0.3671875 0.9375
vt 0.3671875 0.9453125
vt 0.3828125 0.9453125
f 32/93 31/94 30/95 29/96
o headModel4
v -3.2 10.1 -1.7
v 0.8 10.1 -3.7
v 0.8 8.1 -4.5
v -4.2 8.1 -3.3
v -3.2 10.1 1.7
v 1.8 10.1 3.7
v 0.8 8.1 4.5
v -4.2 8.1 3.3
vt 0.921875 0.8515625
vt 0.8515625 0.8515625
vt 0.8515625 0.859375
vt 0.921875 0.859375
f 39/97 35/98 34/99 38/100
vt 0.828125 0.8515625
vt 0.7578125 0.8515625
vt 0.7578125 0.859375
vt 0.828125 0.859375
f 36/101 40/102 37/103 33/104
vt 0.8515625 0.859375
vt 0.828125 0.859375
vt 0.828125 0.9296875
vt 0.8515625 0.9296875
f 34/105 33/106 37/107 38/108
vt 0.875 0.9296875
vt 0.8515625 0.9296875
vt 0.8515625 0.859375
vt 0.875 0.859375
f 39/109 40/110 36/111 35/112
vt 0.8515625 0.8515625
vt 0.828125 0.8515625
vt 0.828125 0.859375
vt 0.8515625 0.859375
f 35/113 36/114 33/115 34/116
vt 0.9453125 0.8515625
vt 0.921875 0.8515625
vt 0.921875 0.859375
vt 0.9453125 0.859375
f 40/117 39/118 38/119 37/120
o headModel5
v -3.2 9.1 -4.5
v 0.8 10.1 -3.7
v 0.8 8.1 -4.5
v -4.2 8.1 -4.5
v -3.2 10.1 -1.7
v 0.8 10.1 -3.7
v 0.8 8.1 -1.5
v -4.2 8.1 -3.3
vt 0.65625 0.9609375
vt 0.6328125 0.9609375
vt 0.6328125 0.96875
vt 0.65625 0.96875
f 47/121 43/122 42/123 46/124
vt 0.59375 0.9609375
vt 0.5703125 0.9609375
vt 0.5703125 0.96875
vt 0.59375 0.96875
f 44/125 48/126 45/127 41/128
vt 0.6328125 0.96875
vt 0.59375 0.96875
vt 0.59375 0.9921875
vt 0.6328125 0.9921875
f 42/129 41/130 45/131 46/132
vt 0.671875 0.9921875
vt 0.6328125 0.9921875
vt 0.6328125 0.96875
vt 0.671875 0.96875
f 47/133 48/134 44/135 43/136
vt 0.6328125 0.9609375
vt 0.59375 0.9609375
vt 0.59375 0.96875
vt 0.6328125 0.96875
f 43/137 44/138 41/139 42/140
vt 0.6953125 0.9609375
vt 0.65625 0.9609375
vt 0.65625 0.96875
vt 0.6953125 0.96875
f 48/141 47/142 46/143 45/144
o headModel6
v -3.2 10.1 1.7
v 1.8 10.1 3.7
v 0.8 8.1 1.5
v -4.2 8.1 3.3
v -4.2 8.1 4.5
v 1.8 10.1 3.7
v 0.8 8.1 4.5
v -4.2 8.1 4.5
vt 0.84375 0.9609375
vt 0.8203125 0.9609375
vt 0.8203125 0.96875
vt 0.84375 0.96875
f 55/145 51/146 50/147 54/148
vt 0.78125 0.9609375
vt 0.7578125 0.9609375
vt 0.7578125 0.96875
vt 0.78125 0.96875
f 52/149 56/150 53/151 49/152
vt 0.8203125 0.96875
vt 0.78125 0.96875
vt 0.78125 0.9921875
vt 0.8203125 0.9921875
f 50/153 49/154 53/155 54/156
vt 0.859375 0.9921875
vt 0.8203125 0.9921875
vt 0.8203125 0.96875
vt 0.859375 0.96875
f 55/157 56/158 52/159 51/160
vt 0.8203125 0.9609375
vt 0.78125 0.9609375
vt 0.78125 0.96875
vt 0.8203125 0.96875
f 51/161 52/162 49/163 50/164
vt 0.8828125 0.9609375
vt 0.84375 0.9609375
vt 0.84375 0.96875
vt 0.8828125 0.96875
f 56/165 55/166 54/167 53/168
o headModel7
v 1.2 9.1 -3.5
v 4.2 9.1 -2.5
v 4.2 8.1 -4.5
v 0.8 8.1 -4.5
v 1.2 9.1 -1.5
v 4.2 9.1 -1.5
v 4.2 8.1 -1.5
v 1.2 8.1 -1.5
vt 0.953125 0.8984375
vt 0.9296875 0.8984375
vt 0.9296875 0.90625
vt 0.953125 0.90625
f 63/169 59/170 58/171 62/172
vt 0.90625 0.8984375
vt 0.8828125 0.8984375
vt 0.8828125 0.90625
vt 0.90625 0.90625
f 60/173 64/174 61/175 57/176
vt 0.9296875 0.90625
vt 0.90625 0.90625
vt 0.90625 0.9296875
vt 0.9296875 0.9296875
f 58/177 57/178 61/179 62/180
vt 0.953125 0.9296875
vt 0.9296875 0.9296875
vt 0.9296875 0.90625
vt 0.953125 0.90625
f 63/181 64/182 60/183 59/184
vt 0.9296875 0.8984375
vt 0.90625 0.8984375
vt 0.90625 0.90625
vt 0.9296875 0.90625
f 59/185 60/186 57/187 58/188
vt 0.9765625 0.8984375
vt 0.953125 0.8984375
vt 0.953125 0.90625
vt 0.9765625 0.90625
f 64/189 63/190 62/191 61/192
o headModel8
v 1.2 9.1 1.5
v 4.2 9.1 1.5
v 4.2 8.1 1.5
v 1.2 8.1 1.5
v 1.2 9.1 3.5
v 4.2 9.1 2.5
v 4.2 8.1 4.5
v 0.8 8.1 4.5
vt 0.328125 0.8359375
vt 0.3046875 0.8359375
vt 0.3046875 0.84375
vt 0.328125 0.84375
f 71/193 67/194 66/195 70/196
vt 0.28125 0.8359375
vt 0.2578125 0.8359375
vt 0.2578125 0.84375
vt 0.28125 0.84375
f 68/197 72/198 69/199 65/200
vt 0.3046875 0.84375
vt 0.28125 0.84375
vt 0.28125 0.8671875
vt 0.3046875 0.8671875
f 66/201 65/202 69/203 70/204
vt 0.328125 0.8671875
vt 0.3046875 0.8671875
vt 0.3046875 0.84375
vt 0.328125 0.84375
f 71/205 72/206 68/207 67/208
vt 0.3046875 0.8359375
vt 0.28125 0.8359375
vt 0.28125 0.84375
vt 0.3046875 0.84375
f 67/209 68/210 65/211 66/212
vt 0.3515625 0.8359375
vt 0.328125 0.8359375
vt 0.328125 0.84375
vt 0.3515625 0.84375
f 72/213 71/214 70/215 69/216
o headModel9
v 7.2 8.1 -1.2
v 7.2 5.1 -1
v 5.2 5.1 -0.7
v 4.2 6.1 -1
v 7.2 8.1 1.2
v 7.2 5.1 1
v 5.2 5.1 0.7
v 4.2 6.1 1
vt 0.4296875 0.8125
vt 0.3828125 0.8125
vt 0.3828125 0.8203125
vt 0.4296875 0.8203125
f 79/217 75/218 74/219 78/220
vt 0.3671875 0.8125
vt 0.3203125 0.8125
vt 0.3203125 0.8203125
vt 0.3671875 0.8203125
f 76/221 80/222 77/223 73/224
vt 0.3828125 0.8203125
vt 0.3671875 0.8203125
vt 0.3671875 0.8671875
vt 0.3828125 0.8671875
f 74/225 73/226 77/227 78/228
vt 0.3984375 0.8671875
vt 0.3828125 0.8671875
vt 0.3828125 0.8203125
vt 0.3984375 0.8203125
f 79/229 80/230 76/231 75/232
vt 0.3828125 0.8125
vt 0.3671875 0.8125
vt 0.3671875 0.8203125
vt 0.3828125 0.8203125
f 75/233 76/234 73/235 74/236
vt 0.4453125 0.8125
vt 0.4296875 0.8125
vt 0.4296875 0.8203125
vt 0.4453125 0.8203125
f 80/237 79/238 78/239 77/240
o headModel10
v 5 5.2 -1.2
v 7.4 5.2 -1.2
v 7.4 2.8 -1.2
v 5 2.8 -1.2
v 5 5.2 1.2
v 7.4 5.2 1.2
v 7.4 2.8 1.2
v 5 2.8 1.2
vt 0.578125 0.8203125
vt 0.5546875 0.8203125
vt 0.5546875 0.84375
vt 0.578125 0.84375
f 87/241 83/242 82/243 86/244
vt 0.53125 0.8203125
vt 0.5078125 0.8203125
vt 0.5078125 0.84375
vt 0.53125 0.84375
f 84/245 88/246 85/247 81/248
vt 0.5546875 0.84375
vt 0.53125 0.84375
vt 0.53125 0.8671875
vt 0.5546875 0.8671875
f 82/249 81/250 85/251 86/252
vt 0.578125 0.8671875
vt 0.5546875 0.8671875
vt 0.5546875 0.84375
vt 0.578125 0.84375
f 87/253 88/254 84/255 83/256
vt 0.5546875 0.8203125
vt 0.53125 0.8203125
vt 0.53125 0.84375
vt 0.5546875 0.84375
f 83/257 84/258 81/259 82/260
vt 0.6015625 0.8203125
vt 0.578125 0.8203125
vt 0.578125 0.84375
vt 0.6015625 0.84375
f 88/261 87/262 86/263 85/264
o headModel11
v -4.5 6 -5
v 4.5 6 -5
v 4.3 4.8 -4.8
v -4.3 4.8 -4.8
v -4.5 6 5
v 4.5 6 5
v 4.3 4.8 4.8
v -4.3 4.8 4.8
vt 0.4609375 0.7109375
vt 0.390625 0.7109375
vt 0.390625 0.734375
vt 0.4609375 0.734375
f 95/265 91/266 90/267 94/268
vt 0.328125 0.7109375
vt 0.2578125 0.7109375
vt 0.2578125 0.734375
vt 0.328125 0.734375
f 92/269 96/270 93/271 89/272
vt 0.390625 0.734375
vt 0.328125 0.734375
vt 0.328125 0.8046875
vt 0.390625 0.8046875
f 90/273 89/274 93/275 94/276
vt 0.453125 0.8046875
vt 0.390625 0.8046875
vt 0.390625 0.734375
vt 0.453125 0.734375
f 95/277 96/278 92/279 91/280
vt 0.390625 0.7109375
vt 0.328125 0.7109375
vt 0.328125 0.734375
vt 0.390625 0.734375
f 91/281 92/282 89/283 90/284
vt 0.5234375 0.7109375
vt 0.4609375 0.7109375
vt 0.4609375 0.734375
vt 0.5234375 0.734375
f 96/285 95/286 94/287 93/288
