# Converted from Decimation Beardie model: bodybag.bmodel
# Coordinates retain the original Beardie model units.
mtllib bodybag.mtl
usemtl bodybag_material
o baseModel0
v -4 4 -9
v 4 4 -9
v 4 -0 -9
v -4 -0 -9
v -4 4 3
v 4 4 3
v 4 -0 3
v -4 -0 3
vt 0.2578125 0.8671875
vt 0.1640625 0.8671875
vt 0.1640625 0.8984375
vt 0.2578125 0.8984375
f 7/1 3/2 2/3 6/4
vt 0.1015625 0.8671875
vt 0.0078125 0.8671875
vt 0.0078125 0.8984375
vt 0.1015625 0.8984375
f 4/5 8/6 5/7 1/8
vt 0.1640625 0.8984375
vt 0.1015625 0.8984375
vt 0.1015625 0.9921875
vt 0.1640625 0.9921875
f 2/9 1/10 5/11 6/12
vt 0.2265625 0.9921875
vt 0.1640625 0.9921875
vt 0.1640625 0.8984375
vt 0.2265625 0.8984375
f 7/13 8/14 4/15 3/16
vt 0.1640625 0.8671875
vt 0.1015625 0.8671875
vt 0.1015625 0.8984375
vt 0.1640625 0.8984375
f 3/17 4/18 1/19 2/20
vt 0.3203125 0.8671875
vt 0.2578125 0.8671875
vt 0.2578125 0.8984375
vt 0.3203125 0.8984375
f 8/21 7/22 6/23 5/24
o baseModel1
v -7.997425 4.711399 -9.091878
v -3.049101 5.40684 -9.266376
v -2.506575 1.459148 -9.614787
v -7.4549 0.7637062 -9.440289
v -7.438728 3.733771 2.855176
v -2.490404 4.429213 2.680678
v -1.947878 0.4815201 2.332268
v -6.896203 -0.2139213 2.506765
vt 0.609375 0.8671875
vt 0.515625 0.8671875
vt 0.515625 0.8984375
vt 0.609375 0.8984375
f 15/25 11/26 10/27 14/28
vt 0.4765625 0.8671875
vt 0.3828125 0.8671875
vt 0.3828125 0.8984375
vt 0.4765625 0.8984375
f 12/29 16/30 13/31 9/32
vt 0.515625 0.8984375
vt 0.4765625 0.8984375
vt 0.4765625 0.9921875
vt 0.515625 0.9921875
f 10/33 9/34 13/35 14/36
vt 0.5546875 0.9921875
vt 0.515625 0.9921875
vt 0.515625 0.8984375
vt 0.5546875 0.8984375
f 15/37 16/38 12/39 11/40
vt 0.515625 0.8671875
vt 0.4765625 0.8671875
vt 0.4765625 0.8984375
vt 0.515625 0.8984375
f 11/41 12/42 9/43 10/44
vt 0.6484375 0.8671875
vt 0.609375 0.8671875
vt 0.609375 0.8984375
vt 0.6484375 0.8984375
f 16/45 15/46 14/47 13/48
o baseModel2
v 3.049101 5.40684 -9.266376
v 7.997425 4.711399 -9.091878
v 7.4549 0.7637062 -9.440289
v 2.506575 1.459148 -9.614787
v 2.490404 4.429213 2.680678
v 7.438728 3.733771 2.855176
v 6.896203 -0.2139213 2.506765
v 1.947878 0.4815201 2.332268
vt 0.921875 0.8671875
vt 0.828125 0.8671875
vt 0.828125 0.8984375
vt 0.921875 0.8984375
f 23/49 19/50 18/51 22/52
vt 0.7890625 0.8671875
vt 0.6953125 0.8671875
vt 0.6953125 0.8984375
vt 0.7890625 0.8984375
f 20/53 24/54 21/55 17/56
vt 0.828125 0.8984375
vt 0.7890625 0.8984375
vt 0.7890625 0.9921875
vt 0.828125 0.9921875
f 18/57 17/58 21/59 22/60
vt 0.8671875 0.9921875
vt 0.828125 0.9921875
vt 0.828125 0.8984375
vt 0.8671875 0.8984375
f 23/61 24/62 20/63 19/64
vt 0.828125 0.8671875
vt 0.7890625 0.8671875
vt 0.7890625 0.8984375
vt 0.828125 0.8984375
f 19/65 20/66 17/67 18/68
vt 0.9609375 0.8671875
vt 0.921875 0.8671875
vt 0.921875 0.8984375
vt 0.9609375 0.8984375
f 24/69 23/70 22/71 21/72
o baseModel3
v 0 4.01 3
v 3.99391 3.800688 3.06981
v 3.787126 -0.1915242 2.930233
v -0.2067833 0.01778771 2.860423
v -0.2309324 3.602734 14.99086
v 3.762977 3.393422 15.06067
v 3.556194 -0.5987903 14.9211
v -0.4377157 -0.3894784 14.85129
vt 0.2265625 0.6796875
vt 0.1328125 0.6796875
vt 0.1328125 0.7109375
vt 0.2265625 0.7109375
f 31/73 27/74 26/75 30/76
vt 0.1015625 0.6796875
vt 0.0078125 0.6796875
vt 0.0078125 0.7109375
vt 0.1015625 0.7109375
f 28/77 32/78 29/79 25/80
vt 0.1328125 0.7109375
vt 0.1015625 0.7109375
vt 0.1015625 0.8046875
vt 0.1328125 0.8046875
f 26/81 25/82 29/83 30/84
vt 0.1640625 0.8046875
vt 0.1328125 0.8046875
vt 0.1328125 0.7109375
vt 0.1640625 0.7109375
f 31/85 32/86 28/87 27/88
vt 0.1328125 0.6796875
vt 0.1015625 0.6796875
vt 0.1015625 0.7109375
vt 0.1328125 0.7109375
f 27/89 28/90 25/91 26/92
vt 0.2578125 0.6796875
vt 0.2265625 0.6796875
vt 0.2265625 0.7109375
vt 0.2578125 0.7109375
f 32/93 31/94 30/95 29/96
o baseModel4
v -3.99391 3.800688 3.06981
v 0 4.01 3
v 0.2067833 0.01778771 2.860423
v -3.787126 -0.1915242 2.930233
v -3.762977 3.393422 15.06067
v 0.2309324 3.602734 14.99086
v 0.4377157 -0.3894784 14.85129
v -3.556194 -0.5987903 14.9211
vt 0.5390625 0.6796875
vt 0.4453125 0.6796875
vt 0.4453125 0.7109375
vt 0.5390625 0.7109375
f 39/97 35/98 34/99 38/100
vt 0.4140625 0.6796875
vt 0.3203125 0.6796875
vt 0.3203125 0.7109375
vt 0.4140625 0.7109375
f 36/101 40/102 37/103 33/104
vt 0.4453125 0.7109375
vt 0.4140625 0.7109375
vt 0.4140625 0.8046875
vt 0.4453125 0.8046875
f 34/105 33/106 37/107 38/108
vt 0.4765625 0.8046875
vt 0.4453125 0.8046875
vt 0.4453125 0.7109375
vt 0.4765625 0.7109375
f 39/109 40/110 36/111 35/112
vt 0.4453125 0.6796875
vt 0.4140625 0.6796875
vt 0.4140625 0.7109375
vt 0.4453125 0.7109375
f 35/113 36/114 33/115 34/116
vt 0.5703125 0.6796875
vt 0.5390625 0.6796875
vt 0.5390625 0.7109375
vt 0.5703125 0.7109375
f 40/117 39/118 38/119 37/120
o baseModel5
v -4 6 -16
v 4 6 -16
v 4 -0.9733629 -15.38991
v -4 -0.9733629 -15.38991
v -4 6.697246 -8.030442
v 4 6.697246 -8.030442
v 4 -0.276117 -7.420352
v -4 -0.276117 -7.420352
vt 0.8203125 0.6875
vt 0.7578125 0.6875
vt 0.7578125 0.7421875
vt 0.8203125 0.7421875
f 47/121 43/122 42/123 46/124
vt 0.6953125 0.6875
vt 0.6328125 0.6875
vt 0.6328125 0.7421875
vt 0.6953125 0.7421875
f 44/125 48/126 45/127 41/128
vt 0.7578125 0.7421875
vt 0.6953125 0.7421875
vt 0.6953125 0.8046875
vt 0.7578125 0.8046875
f 42/129 41/130 45/131 46/132
vt 0.8203125 0.8046875
vt 0.7578125 0.8046875
vt 0.7578125 0.7421875
vt 0.8203125 0.7421875
f 47/133 48/134 44/135 43/136
vt 0.7578125 0.6875
vt 0.6953125 0.6875
vt 0.6953125 0.7421875
vt 0.7578125 0.7421875
f 43/137 44/138 41/139 42/140
vt 0.8828125 0.6875
vt 0.8203125 0.6875
vt 0.8203125 0.7421875
vt 0.8828125 0.7421875
f 48/141 47/142 46/143 45/144
o baseModel6
v 3.035509 3.01 -10.03429
v 9.031854 3.01 -9.824893
v 9.031854 0.01 -9.824893
v 3.035509 0.01 -10.03429
v 2.546916 3.01 3.957181
v 8.543261 3.01 4.166578
v 8.543261 0.01 4.166578
v 2.546916 0.01 3.957181
vt 0.7734375 0.546875
vt 0.6640625 0.546875
vt 0.6640625 0.5703125
vt 0.7734375 0.5703125
f 55/145 51/146 50/147 54/148
vt 0.6171875 0.546875
vt 0.5078125 0.546875
vt 0.5078125 0.5703125
vt 0.6171875 0.5703125
f 52/149 56/150 53/151 49/152
vt 0.6640625 0.5703125
vt 0.6171875 0.5703125
vt 0.6171875 0.6796875
vt 0.6640625 0.6796875
f 50/153 49/154 53/155 54/156
vt 0.7109375 0.6796875
vt 0.6640625 0.6796875
vt 0.6640625 0.5703125
vt 0.7109375 0.5703125
f 55/157 56/158 52/159 51/160
vt 0.6640625 0.546875
vt 0.6171875 0.546875
vt 0.6171875 0.5703125
vt 0.6640625 0.5703125
f 51/161 52/162 49/163 50/164
vt 0.8203125 0.546875
vt 0.7734375 0.546875
vt 0.7734375 0.5703125
vt 0.8203125 0.5703125
f 56/165 55/166 54/167 53/168
o baseModel7
v 3.035509 3.02 -10.03429
v 9.031854 3.02 -9.824893
v 10.06614 0.02 -10.78938
v 2.071017 0.02 -11.06858
v 2.546916 3.02 3.957181
v 8.543261 3.02 4.166578
v 9.507752 0.02 5.200869
v 1.512625 0.02 4.921673
vt 0.3203125 0.484375
vt 0.1953125 0.484375
vt 0.1953125 0.4921875
vt 0.3203125 0.4921875
f 63/169 59/170 58/171 62/172
vt 0.1328125 0.484375
vt 0.0078125 0.484375
vt 0.0078125 0.4921875
vt 0.1328125 0.4921875
f 60/173 64/174 61/175 57/176
vt 0.1953125 0.4921875
vt 0.1328125 0.4921875
vt 0.1328125 0.6171875
vt 0.1953125 0.6171875
f 58/177 57/178 61/179 62/180
vt 0.2578125 0.6171875
vt 0.1953125 0.6171875
vt 0.1953125 0.4921875
vt 0.2578125 0.4921875
f 63/181 64/182 60/183 59/184
vt 0.1953125 0.484375
vt 0.1328125 0.484375
vt 0.1328125 0.4921875
vt 0.1953125 0.4921875
f 59/185 60/186 57/187 58/188
vt 0.3828125 0.484375
vt 0.3203125 0.484375
vt 0.3203125 0.4921875
vt 0.3828125 0.4921875
f 64/189 63/190 62/191 61/192
o baseModel8
v -3.99 5.798174 -8.008514
v 4.01 5.798174 -8.008514
v 4.01 4.807906 -8.147687
v -3.99 4.807906 -8.147687
v -3.99 3.571405 7.835775
v 4.01 3.571405 7.835775
v 4.01 2.581137 7.696602
v -3.99 2.581137 7.696602
vt 0.6328125 0.359375
vt 0.5078125 0.359375
vt 0.5078125 0.3671875
vt 0.6328125 0.3671875
f 71/193 67/194 66/195 70/196
vt 0.4453125 0.359375
vt 0.3203125 0.359375
vt 0.3203125 0.3671875
vt 0.4453125 0.3671875
f 68/197 72/198 69/199 65/200
vt 0.5078125 0.3671875
vt 0.4453125 0.3671875
vt 0.4453125 0.4921875
vt 0.5078125 0.4921875
f 66/201 65/202 69/203 70/204
vt 0.5703125 0.4921875
vt 0.5078125 0.4921875
vt 0.5078125 0.3671875
vt 0.5703125 0.3671875
f 71/205 72/206 68/207 67/208
vt 0.5078125 0.359375
vt 0.4453125 0.359375
vt 0.4453125 0.3671875
vt 0.5078125 0.3671875
f 67/209 68/210 65/211 66/212
vt 0.6953125 0.359375
vt 0.6328125 0.359375
vt 0.6328125 0.3671875
vt 0.6953125 0.3671875
f 72/213 71/214 70/215 69/216
o baseModel9
v -8.996954 3.02 -8.825502
v -3.000609 3.02 -9.0349
v -3.000609 0.02 -9.0349
v -8.996954 0.02 -8.825502
v -8.543261 3.02 4.166578
v -2.546916 3.02 3.957181
v -2.546916 0.02 3.957181
v -8.543261 0.02 4.166578
vt 0.2578125 0.3046875
vt 0.15625 0.3046875
vt 0.15625 0.328125
vt 0.2578125 0.328125
f 79/217 75/218 74/219 78/220
vt 0.109375 0.3046875
vt 0.0078125 0.3046875
vt 0.0078125 0.328125
vt 0.109375 0.328125
f 76/221 80/222 77/223 73/224
vt 0.15625 0.328125
vt 0.109375 0.328125
vt 0.109375 0.4296875
vt 0.15625 0.4296875
f 74/225 73/226 77/227 78/228
vt 0.203125 0.4296875
vt 0.15625 0.4296875
vt 0.15625 0.328125
vt 0.203125 0.328125
f 79/229 80/230 76/231 75/232
vt 0.15625 0.3046875
vt 0.109375 0.3046875
vt 0.109375 0.328125
vt 0.15625 0.328125
f 75/233 76/234 73/235 74/236
vt 0.3046875 0.3046875
vt 0.2578125 0.3046875
vt 0.2578125 0.328125
vt 0.3046875 0.328125
f 80/237 79/238 78/239 77/240
o baseModel10
v -8.996954 3.01 -8.825502
v -3.000609 3.01 -9.0349
v -2.036118 0.01 -10.06919
v -10.03124 0.01 -9.789994
v -8.543261 3.01 4.166578
v -2.546916 3.01 3.957181
v -1.512625 0.01 4.921673
v -9.507752 0.01 5.200869
vt 0.9296875 0.3046875
vt 0.8125 0.3046875
vt 0.8125 0.3125
vt 0.9296875 0.3125
f 87/241 83/242 82/243 86/244
vt 0.75 0.3046875
vt 0.6328125 0.3046875
vt 0.6328125 0.3125
vt 0.75 0.3125
f 84/245 88/246 85/247 81/248
vt 0.8125 0.3125
vt 0.75 0.3125
vt 0.75 0.4296875
vt 0.8125 0.4296875
f 82/249 81/250 85/251 86/252
vt 0.875 0.4296875
vt 0.8125 0.4296875
vt 0.8125 0.3125
vt 0.875 0.3125
f 87/253 88/254 84/255 83/256
vt 0.8125 0.3046875
vt 0.75 0.3046875
vt 0.75 0.3125
vt 0.8125 0.3125
f 83/257 84/258 81/259 82/260
vt 0.9921875 0.3046875
vt 0.9296875 0.3046875
vt 0.9296875 0.3125
vt 0.9921875 0.3125
f 88/261 87/262 86/263 85/264
o baseModel11
v -0.9554288 3.04 1.957332
v 5.03886 3.04 2.219049
v 5.03886 0.04 2.219049
v -0.9554288 0.04 1.957332
v -1.5661 3.04 15.94401
v 4.428189 3.04 16.20572
v 4.428189 0.04 16.20572
v -1.5661 0.04 15.94401
vt 0.5234375 0.171875
vt 0.4140625 0.171875
vt 0.4140625 0.1953125
vt 0.5234375 0.1953125
f 95/265 91/266 90/267 94/268
vt 0.3671875 0.171875
vt 0.2578125 0.171875
vt 0.2578125 0.1953125
vt 0.3671875 0.1953125
f 92/269 96/270 93/271 89/272
vt 0.4140625 0.1953125
vt 0.3671875 0.1953125
vt 0.3671875 0.3046875
vt 0.4140625 0.3046875
f 90/273 89/274 93/275 94/276
vt 0.4609375 0.3046875
vt 0.4140625 0.3046875
vt 0.4140625 0.1953125
vt 0.4609375 0.1953125
f 95/277 96/278 92/279 91/280
vt 0.4140625 0.171875
vt 0.3671875 0.171875
vt 0.3671875 0.1953125
vt 0.4140625 0.1953125
f 91/281 92/282 89/283 90/284
vt 0.5703125 0.171875
vt 0.5234375 0.171875
vt 0.5234375 0.1953125
vt 0.5703125 0.1953125
f 96/285 95/286 94/287 93/288
o baseModel12
v -0.9554288 3 1.957332
v 5.03886 3 2.219049
v 6.081528 -0 1.26362
v -1.910858 -0 0.9146648
v -1.5661 3 15.94401
v 4.428189 3 16.20572
v 5.383618 -0 17.24839
v -2.608768 -0 16.89944
vt 0.8203125 0.109375
vt 0.6953125 0.109375
vt 0.6953125 0.1171875
vt 0.8203125 0.1171875
f 103/289 99/290 98/291 102/292
vt 0.6328125 0.109375
vt 0.5078125 0.109375
vt 0.5078125 0.1171875
vt 0.6328125 0.1171875
f 100/293 104/294 101/295 97/296
vt 0.6953125 0.1171875
vt 0.6328125 0.1171875
vt 0.6328125 0.2421875
vt 0.6953125 0.2421875
f 98/297 97/298 101/299 102/300
vt 0.7578125 0.2421875
vt 0.6953125 0.2421875
vt 0.6953125 0.1171875
vt 0.7578125 0.1171875
f 103/301 104/302 100/303 99/304
vt 0.6953125 0.109375
vt 0.6328125 0.109375
vt 0.6328125 0.1171875
vt 0.6953125 0.1171875
f 99/305 100/306 97/307 98/308
vt 0.8828125 0.109375
vt 0.8203125 0.109375
vt 0.8203125 0.1171875
vt 0.8828125 0.1171875
f 104/309 103/310 102/311 101/312
o baseModel13
v -5.008536 3.03 2.043671
v 0.9912354 3.03 1.991312
v 0.9912354 0.03 1.991312
v -5.008536 0.03 2.043671
v -4.886365 3.03 16.04314
v 1.113407 3.03 15.99078
v 1.113407 0.03 15.99078
v -4.886365 0.03 16.04314
vt 0.2734375 0.109375
vt 0.1640625 0.109375
vt 0.1640625 0.1328125
vt 0.2734375 0.1328125
f 111/313 107/314 106/315 110/316
vt 0.1171875 0.109375
vt 0.0078125 0.109375
vt 0.0078125 0.1328125
vt 0.1171875 0.1328125
f 108/317 112/318 109/319 105/320
vt 0.1640625 0.1328125
vt 0.1171875 0.1328125
vt 0.1171875 0.2421875
vt 0.1640625 0.2421875
f 106/321 105/322 109/323 110/324
vt 0.2109375 0.2421875
vt 0.1640625 0.2421875
vt 0.1640625 0.1328125
vt 0.2109375 0.1328125
f 111/325 112/326 108/327 107/328
vt 0.1640625 0.109375
vt 0.1171875 0.109375
vt 0.1171875 0.1328125
vt 0.1640625 0.1328125
f 107/329 108/330 105/331 106/332
vt 0.3203125 0.109375
vt 0.2734375 0.109375
vt 0.2734375 0.1328125
vt 0.3203125 0.1328125
f 112/333 111/334 110/335 109/336
o baseModel14
v -5.008536 2.99 2.043671
v 0.9912354 2.99 1.991312
v 1.982471 -0.01 0.9826231
v -6.017225 -0.01 1.052435
v -4.886365 2.99 16.04314
v 1.113407 2.99 15.99078
v 2.122095 -0.01 16.98201
v -5.8776 -0.01 17.05183
vt 0.8203125 0.109375
vt 0.6953125 0.109375
vt 0.6953125 0.1171875
vt 0.8203125 0.1171875
f 119/337 115/338 114/339 118/340
vt 0.6328125 0.109375
vt 0.5078125 0.109375
vt 0.5078125 0.1171875
vt 0.6328125 0.1171875
f 116/341 120/342 117/343 113/344
vt 0.6953125 0.1171875
vt 0.6328125 0.1171875
vt 0.6328125 0.2421875
vt 0.6953125 0.2421875
f 114/345 113/346 117/347 118/348
vt 0.7578125 0.2421875
vt 0.6953125 0.2421875
vt 0.6953125 0.1171875
vt 0.7578125 0.1171875
f 119/349 120/350 116/351 115/352
vt 0.6953125 0.109375
vt 0.6328125 0.109375
vt 0.6328125 0.1171875
vt 0.6953125 0.1171875
f 115/353 116/354 113/355 114/356
vt 0.8828125 0.109375
vt 0.8203125 0.109375
vt 0.8203125 0.1171875
vt 0.8828125 0.1171875
f 120/357 119/358 118/359 117/360
o baseModel15
v -4.5 6 -6
v 4.5 6 -6
v 4.5 5 -6
v -4.5 5 -6
v -4.5 6 -5
v 4.5 6 -5
v 4.5 5 -5
v -4.5 5 -5
vt 0.3828125 0.5234375
vt 0.375 0.5234375
vt 0.375 0.53125
vt 0.3828125 0.53125
f 127/361 123/362 122/363 126/364
vt 0.3046875 0.5234375
vt 0.296875 0.5234375
vt 0.296875 0.53125
vt 0.3046875 0.53125
f 124/365 128/366 125/367 121/368
vt 0.375 0.53125
vt 0.3046875 0.53125
vt 0.3046875 0.5390625
vt 0.375 0.5390625
f 122/369 121/370 125/371 126/372
vt 0.4453125 0.5390625
vt 0.375 0.5390625
vt 0.375 0.53125
vt 0.4453125 0.53125
f 127/373 128/374 124/375 123/376
vt 0.375 0.5234375
vt 0.3046875 0.5234375
vt 0.3046875 0.53125
vt 0.375 0.53125
f 123/377 124/378 121/379 122/380
vt 0.453125 0.5234375
vt 0.3828125 0.5234375
vt 0.3828125 0.53125
vt 0.453125 0.53125
f 128/381 127/382 126/383 125/384
o baseModel16
v -8.39748 5.100196 -6
v -4.5 6 -6
v -4.275049 5.02563 -6
v -8.172529 4.125826 -6
v -8.39748 5.100196 -5
v -4.5 6 -5
v -4.275049 5.02563 -5
v -8.172529 4.125826 -5
vt 0.34375 0.5234375
vt 0.3359375 0.5234375
vt 0.3359375 0.53125
vt 0.34375 0.53125
f 135/385 131/386 130/387 134/388
vt 0.3046875 0.5234375
vt 0.296875 0.5234375
vt 0.296875 0.53125
vt 0.3046875 0.53125
f 132/389 136/390 133/391 129/392
vt 0.3359375 0.53125
vt 0.3046875 0.53125
vt 0.3046875 0.5390625
vt 0.3359375 0.5390625
f 130/393 129/394 133/395 134/396
vt 0.3671875 0.5390625
vt 0.3359375 0.5390625
vt 0.3359375 0.53125
vt 0.3671875 0.53125
f 135/397 136/398 132/399 131/400
vt 0.3359375 0.5234375
vt 0.3046875 0.5234375
vt 0.3046875 0.53125
vt 0.3359375 0.53125
f 131/401 132/402 129/403 130/404
vt 0.375 0.5234375
vt 0.34375 0.5234375
vt 0.34375 0.53125
vt 0.375 0.53125
f 136/405 135/406 134/407 133/408
o baseModel17
v -10.9 0.7698719 -6
v -8.4 5.1 -6
v -7.533974 4.6 -6
v -10.03397 0.2698722 -6
v -10.9 0.7698719 -5
v -8.4 5.1 -5
v -7.533974 4.6 -5
v -10.03397 0.2698722 -5
vt 0.3515625 0.5234375
vt 0.34375 0.5234375
vt 0.34375 0.53125
vt 0.3515625 0.53125
f 143/409 139/410 138/411 142/412
vt 0.3046875 0.5234375
vt 0.296875 0.5234375
vt 0.296875 0.53125
vt 0.3046875 0.53125
f 140/413 144/414 141/415 137/416
vt 0.34375 0.53125
vt 0.3046875 0.53125
vt 0.3046875 0.5390625
vt 0.34375 0.5390625
f 138/417 137/418 141/419 142/420
vt 0.3828125 0.5390625
vt 0.34375 0.5390625
vt 0.34375 0.53125
vt 0.3828125 0.53125
f 143/421 144/422 140/423 139/424
vt 0.34375 0.5234375
vt 0.3046875 0.5234375
vt 0.3046875 0.53125
vt 0.34375 0.53125
f 139/425 140/426 137/427 138/428
vt 0.390625 0.5234375
vt 0.3515625 0.5234375
vt 0.3515625 0.53125
vt 0.390625 0.53125
f 144/429 143/430 142/431 141/432
o baseModel18
v 4.5 6 -6
v 8.39748 5.100196 -6
v 8.172529 4.125826 -6
v 4.275049 5.02563 -6
v 4.5 6 -5
v 8.39748 5.100196 -5
v 8.172529 4.125826 -5
v 4.275049 5.02563 -5
vt 0.34375 0.5234375
vt 0.3359375 0.5234375
vt 0.3359375 0.53125
vt 0.34375 0.53125
f 151/433 147/434 146/435 150/436
vt 0.3046875 0.5234375
vt 0.296875 0.5234375
vt 0.296875 0.53125
vt 0.3046875 0.53125
f 148/437 152/438 149/439 145/440
vt 0.3359375 0.53125
vt 0.3046875 0.53125
vt 0.3046875 0.5390625
vt 0.3359375 0.5390625
f 146/441 145/442 149/443 150/444
vt 0.3671875 0.5390625
vt 0.3359375 0.5390625
vt 0.3359375 0.53125
vt 0.3671875 0.53125
f 151/445 152/446 148/447 147/448
vt 0.3359375 0.5234375
vt 0.3046875 0.5234375
vt 0.3046875 0.53125
vt 0.3359375 0.53125
f 147/449 148/450 145/451 146/452
vt 0.375 0.5234375
vt 0.34375 0.5234375
vt 0.34375 0.53125
vt 0.375 0.53125
f 152/453 151/454 150/455 149/456
o baseModel19
v 8.4 5.1 -6
v 10.9 0.7698719 -6
v 10.03397 0.2698722 -6
v 7.533974 4.6 -6
v 8.4 5.1 -5
v 10.9 0.7698719 -5
v 10.03397 0.2698722 -5
v 7.533974 4.6 -5
vt 0.3515625 0.5234375
vt 0.34375 0.5234375
vt 0.34375 0.53125
vt 0.3515625 0.53125
f 159/457 155/458 154/459 158/460
vt 0.3046875 0.5234375
vt 0.296875 0.5234375
vt 0.296875 0.53125
vt 0.3046875 0.53125
f 156/461 160/462 157/463 153/464
vt 0.34375 0.53125
vt 0.3046875 0.53125
vt 0.3046875 0.5390625
vt 0.34375 0.5390625
f 154/465 153/466 157/467 158/468
vt 0.3828125 0.5390625
vt 0.34375 0.5390625
vt 0.34375 0.53125
vt 0.3828125 0.53125
f 159/469 160/470 156/471 155/472
vt 0.34375 0.5234375
vt 0.3046875 0.5234375
vt 0.3046875 0.53125
vt 0.34375 0.53125
f 155/473 156/474 153/475 154/476
vt 0.390625 0.5234375
vt 0.3515625 0.5234375
vt 0.3515625 0.53125
vt 0.390625 0.53125
f 160/477 159/478 158/479 157/480
o baseModel20
v 8.4 4.6 -1
v 10.9 0.2698719 -1
v 10.03397 -0.2301278 -1
v 7.533974 4.1 -1
v 8.4 4.6 0
v 10.9 0.2698719 0
v 10.03397 -0.2301278 0
v 7.533974 4.1 0
vt 0.3515625 0.5234375
vt 0.34375 0.5234375
vt 0.34375 0.53125
vt 0.3515625 0.53125
f 167/481 163/482 162/483 166/484
vt 0.3046875 0.5234375
vt 0.296875 0.5234375
vt 0.296875 0.53125
vt 0.3046875 0.53125
f 164/485 168/486 165/487 161/488
vt 0.34375 0.53125
vt 0.3046875 0.53125
vt 0.3046875 0.5390625
vt 0.34375 0.5390625
f 162/489 161/490 165/491 166/492
vt 0.3828125 0.5390625
vt 0.34375 0.5390625
vt 0.34375 0.53125
vt 0.3828125 0.53125
f 167/493 168/494 164/495 163/496
vt 0.34375 0.5234375
vt 0.3046875 0.5234375
vt 0.3046875 0.53125
vt 0.34375 0.53125
f 163/497 164/498 161/499 162/500
vt 0.390625 0.5234375
vt 0.3515625 0.5234375
vt 0.3515625 0.53125
vt 0.390625 0.53125
f 168/501 167/502 166/503 165/504
o baseModel21
v 4.5 5.5 -1
v 8.39748 4.600196 -1
v 8.172529 3.625826 -1
v 4.275049 4.52563 -1
v 4.5 5.5 0
v 8.39748 4.600196 0
v 8.172529 3.625826 0
v 4.275049 4.52563 0
vt 0.34375 0.5234375
vt 0.3359375 0.5234375
vt 0.3359375 0.53125
vt 0.34375 0.53125
f 175/505 171/506 170/507 174/508
vt 0.3046875 0.5234375
vt 0.296875 0.5234375
vt 0.296875 0.53125
vt 0.3046875 0.53125
f 172/509 176/510 173/511 169/512
vt 0.3359375 0.53125
vt 0.3046875 0.53125
vt 0.3046875 0.5390625
vt 0.3359375 0.5390625
f 170/513 169/514 173/515 174/516
vt 0.3671875 0.5390625
vt 0.3359375 0.5390625
vt 0.3359375 0.53125
vt 0.3671875 0.53125
f 175/517 176/518 172/519 171/520
vt 0.3359375 0.5234375
vt 0.3046875 0.5234375
vt 0.3046875 0.53125
vt 0.3359375 0.53125
f 171/521 172/522 169/523 170/524
vt 0.375 0.5234375
vt 0.34375 0.5234375
vt 0.34375 0.53125
vt 0.375 0.53125
f 176/525 175/526 174/527 173/528
o baseModel22
v -4.5 5.5 -1
v 4.5 5.5 -1
v 4.5 4.5 -1
v -4.5 4.5 -1
v -4.5 5.5 0
v 4.5 5.5 0
v 4.5 4.5 0
v -4.5 4.5 0
vt 0.3828125 0.5234375
vt 0.375 0.5234375
vt 0.375 0.53125
vt 0.3828125 0.53125
f 183/529 179/530 178/531 182/532
vt 0.3046875 0.5234375
vt 0.296875 0.5234375
vt 0.296875 0.53125
vt 0.3046875 0.53125
f 180/533 184/534 181/535 177/536
vt 0.375 0.53125
vt 0.3046875 0.53125
vt 0.3046875 0.5390625
vt 0.375 0.5390625
f 178/537 177/538 181/539 182/540
vt 0.4453125 0.5390625
vt 0.375 0.5390625
vt 0.375 0.53125
vt 0.4453125 0.53125
f 183/541 184/542 180/543 179/544
vt 0.375 0.5234375
vt 0.3046875 0.5234375
vt 0.3046875 0.53125
vt 0.375 0.53125
f 179/545 180/546 177/547 178/548
vt 0.453125 0.5234375
vt 0.3828125 0.5234375
vt 0.3828125 0.53125
vt 0.453125 0.53125
f 184/549 183/550 182/551 181/552
o baseModel23
v -8.39748 4.600196 -1
v -4.5 5.5 -1
v -4.275049 4.52563 -1
v -8.172529 3.625826 -1
v -8.39748 4.600196 0
v -4.5 5.5 0
v -4.275049 4.52563 0
v -8.172529 3.625826 0
vt 0.34375 0.5234375
vt 0.3359375 0.5234375
vt 0.3359375 0.53125
vt 0.34375 0.53125
f 191/553 187/554 186/555 190/556
vt 0.3046875 0.5234375
vt 0.296875 0.5234375
vt 0.296875 0.53125
vt 0.3046875 0.53125
f 188/557 192/558 189/559 185/560
vt 0.3359375 0.53125
vt 0.3046875 0.53125
vt 0.3046875 0.5390625
vt 0.3359375 0.5390625
f 186/561 185/562 189/563 190/564
vt 0.3671875 0.5390625
vt 0.3359375 0.5390625
vt 0.3359375 0.53125
vt 0.3671875 0.53125
f 191/565 192/566 188/567 187/568
vt 0.3359375 0.5234375
vt 0.3046875 0.5234375
vt 0.3046875 0.53125
vt 0.3359375 0.53125
f 187/569 188/570 185/571 186/572
vt 0.375 0.5234375
vt 0.34375 0.5234375
vt 0.34375 0.53125
vt 0.375 0.53125
f 192/573 191/574 190/575 189/576
o baseModel24
v -10.9 0.2698719 -1
v -8.4 4.6 -1
v -7.533974 4.1 -1
v -10.03397 -0.2301278 -1
v -10.9 0.2698719 0
v -8.4 4.6 0
v -7.533974 4.1 0
v -10.03397 -0.2301278 0
vt 0.3515625 0.5234375
vt 0.34375 0.5234375
vt 0.34375 0.53125
vt 0.3515625 0.53125
f 199/577 195/578 194/579 198/580
vt 0.3046875 0.5234375
vt 0.296875 0.5234375
vt 0.296875 0.53125
vt 0.3046875 0.53125
f 196/581 200/582 197/583 193/584
vt 0.34375 0.53125
vt 0.3046875 0.53125
vt 0.3046875 0.5390625
vt 0.34375 0.5390625
f 194/585 193/586 197/587 198/588
vt 0.3828125 0.5390625
vt 0.34375 0.5390625
vt 0.34375 0.53125
vt 0.3828125 0.53125
f 199/589 200/590 196/591 195/592
vt 0.34375 0.5234375
vt 0.3046875 0.5234375
vt 0.3046875 0.53125
vt 0.34375 0.53125
f 195/593 196/594 193/595 194/596
vt 0.390625 0.5234375
vt 0.3515625 0.5234375
vt 0.3515625 0.53125
vt 0.390625 0.53125
f 200/597 199/598 198/599 197/600
o baseModel25
v 8.4 4 4.5
v 10.9 -0.3301281 4.5
v 10.03397 -0.8301278 4.5
v 7.533974 3.5 4.5
v 8.4 4 5.5
v 10.9 -0.3301281 5.5
v 10.03397 -0.8301278 5.5
v 7.533974 3.5 5.5
vt 0.3515625 0.5234375
vt 0.34375 0.5234375
vt 0.34375 0.53125
vt 0.3515625 0.53125
f 207/601 203/602 202/603 206/604
vt 0.3046875 0.5234375
vt 0.296875 0.5234375
vt 0.296875 0.53125
vt 0.3046875 0.53125
f 204/605 208/606 205/607 201/608
vt 0.34375 0.53125
vt 0.3046875 0.53125
vt 0.3046875 0.5390625
vt 0.34375 0.5390625
f 202/609 201/610 205/611 206/612
vt 0.3828125 0.5390625
vt 0.34375 0.5390625
vt 0.34375 0.53125
vt 0.3828125 0.53125
f 207/613 208/614 204/615 203/616
vt 0.34375 0.5234375
vt 0.3046875 0.5234375
vt 0.3046875 0.53125
vt 0.34375 0.53125
f 203/617 204/618 201/619 202/620
vt 0.390625 0.5234375
vt 0.3515625 0.5234375
vt 0.3515625 0.53125
vt 0.390625 0.53125
f 208/621 207/622 206/623 205/624
o baseModel26
v 4.5 4.9 4.5
v 8.39748 4.000196 4.5
v 8.172529 3.025826 4.5
v 4.275049 3.92563 4.5
v 4.5 4.9 5.5
v 8.39748 4.000196 5.5
v 8.172529 3.025826 5.5
v 4.275049 3.92563 5.5
vt 0.34375 0.5234375
vt 0.3359375 0.5234375
vt 0.3359375 0.53125
vt 0.34375 0.53125
f 215/625 211/626 210/627 214/628
vt 0.3046875 0.5234375
vt 0.296875 0.5234375
vt 0.296875 0.53125
vt 0.3046875 0.53125
f 212/629 216/630 213/631 209/632
vt 0.3359375 0.53125
vt 0.3046875 0.53125
vt 0.3046875 0.5390625
vt 0.3359375 0.5390625
f 210/633 209/634 213/635 214/636
vt 0.3671875 0.5390625
vt 0.3359375 0.5390625
vt 0.3359375 0.53125
vt 0.3671875 0.53125
f 215/637 216/638 212/639 211/640
vt 0.3359375 0.5234375
vt 0.3046875 0.5234375
vt 0.3046875 0.53125
vt 0.3359375 0.53125
f 211/641 212/642 209/643 210/644
vt 0.375 0.5234375
vt 0.34375 0.5234375
vt 0.34375 0.53125
vt 0.375 0.53125
f 216/645 215/646 214/647 213/648
o baseModel27
v -4.5 4.9 4.5
v 4.5 4.9 4.5
v 4.5 3.9 4.5
v -4.5 3.9 4.5
v -4.5 4.9 5.5
v 4.5 4.9 5.5
v 4.5 3.9 5.5
v -4.5 3.9 5.5
vt 0.3828125 0.5234375
vt 0.375 0.5234375
vt 0.375 0.53125
vt 0.3828125 0.53125
f 223/649 219/650 218/651 222/652
vt 0.3046875 0.5234375
vt 0.296875 0.5234375
vt 0.296875 0.53125
vt 0.3046875 0.53125
f 220/653 224/654 221/655 217/656
vt 0.375 0.53125
vt 0.3046875 0.53125
vt 0.3046875 0.5390625
vt 0.375 0.5390625
f 218/657 217/658 221/659 222/660
vt 0.4453125 0.5390625
vt 0.375 0.5390625
vt 0.375 0.53125
vt 0.4453125 0.53125
f 223/661 224/662 220/663 219/664
vt 0.375 0.5234375
vt 0.3046875 0.5234375
vt 0.3046875 0.53125
vt 0.375 0.53125
f 219/665 220/666 217/667 218/668
vt 0.453125 0.5234375
vt 0.3828125 0.5234375
vt 0.3828125 0.53125
vt 0.453125 0.53125
f 224/669 223/670 222/671 221/672
o baseModel28
v -8.39748 4.000196 4.5
v -4.5 4.9 4.5
v -4.275049 3.92563 4.5
v -8.172529 3.025826 4.5
v -8.39748 4.000196 5.5
v -4.5 4.9 5.5
v -4.275049 3.92563 5.5
v -8.172529 3.025826 5.5
vt 0.34375 0.5234375
vt 0.3359375 0.5234375
vt 0.3359375 0.53125
vt 0.34375 0.53125
f 231/673 227/674 226/675 230/676
vt 0.3046875 0.5234375
vt 0.296875 0.5234375
vt 0.296875 0.53125
vt 0.3046875 0.53125
f 228/677 232/678 229/679 225/680
vt 0.3359375 0.53125
vt 0.3046875 0.53125
vt 0.3046875 0.5390625
vt 0.3359375 0.5390625
f 226/681 225/682 229/683 230/684
vt 0.3671875 0.5390625
vt 0.3359375 0.5390625
vt 0.3359375 0.53125
vt 0.3671875 0.53125
f 231/685 232/686 228/687 227/688
vt 0.3359375 0.5234375
vt 0.3046875 0.5234375
vt 0.3046875 0.53125
vt 0.3359375 0.53125
f 227/689 228/690 225/691 226/692
vt 0.375 0.5234375
vt 0.34375 0.5234375
vt 0.34375 0.53125
vt 0.375 0.53125
f 232/693 231/694 230/695 229/696
o baseModel29
v -10.9 -0.3301281 4.5
v -8.4 4 4.5
v -7.533974 3.5 4.5
v -10.03397 -0.8301278 4.5
v -10.9 -0.3301281 5.5
v -8.4 4 5.5
v -7.533974 3.5 5.5
v -10.03397 -0.8301278 5.5
vt 0.3515625 0.5234375
vt 0.34375 0.5234375
vt 0.34375 0.53125
vt 0.3515625 0.53125
f 239/697 235/698 234/699 238/700
vt 0.3046875 0.5234375
vt 0.296875 0.5234375
vt 0.296875 0.53125
vt 0.3046875 0.53125
f 236/701 240/702 237/703 233/704
vt 0.34375 0.53125
vt 0.3046875 0.53125
vt 0.3046875 0.5390625
vt 0.34375 0.5390625
f 234/705 233/706 237/707 238/708
vt 0.3828125 0.5390625
vt 0.34375 0.5390625
vt 0.34375 0.53125
vt 0.3828125 0.53125
f 239/709 240/710 236/711 235/712
vt 0.34375 0.5234375
vt 0.3046875 0.5234375
vt 0.3046875 0.53125
vt 0.34375 0.53125
f 235/713 236/714 233/715 234/716
vt 0.390625 0.5234375
vt 0.3515625 0.5234375
vt 0.3515625 0.53125
vt 0.390625 0.53125
f 240/717 239/718 238/719 237/720
o baseModel30
v -0.4300993 4.507349 3.089216
v -0.2331378 4.507349 3.123946
v -0.2397645 4.311024 3.161528
v -0.436726 4.311024 3.126798
v -0.6005571 4.698158 4.05593
v -0.4035955 4.698158 4.09066
v -0.4102222 4.501833 4.128242
v -0.6071838 4.501833 4.093512
vt 0.3828125 0.5234375
vt 0.375 0.5234375
vt 0.375 0.53125
vt 0.3828125 0.53125
f 247/721 243/722 242/723 246/724
vt 0.3046875 0.5234375
vt 0.296875 0.5234375
vt 0.296875 0.53125
vt 0.3046875 0.53125
f 244/725 248/726 245/727 241/728
vt 0.375 0.53125
vt 0.3046875 0.53125
vt 0.3046875 0.5390625
vt 0.375 0.5390625
f 242/729 241/730 245/731 246/732
vt 0.4453125 0.5390625
vt 0.375 0.5390625
vt 0.375 0.53125
vt 0.4453125 0.53125
f 247/733 248/734 244/735 243/736
vt 0.375 0.5234375
vt 0.3046875 0.5234375
vt 0.3046875 0.53125
vt 0.375 0.53125
f 243/737 244/738 241/739 242/740
vt 0.453125 0.5234375
vt 0.3828125 0.5234375
vt 0.3828125 0.53125
vt 0.453125 0.53125
f 248/741 247/742 246/743 245/744
