# Converted from Decimation Beardie model: guitar.bmodel
# Coordinates retain the original Beardie model units.
mtllib guitar.mtl
usemtl guitar_material
o gunModel0
v -3.5 1 -1.4
v 3.5 1 -1.4
v 4.75 -2 -1.4
v -4.75 -2 -1.4
v -3.5 1 1.6
v 3.5 1 1.6
v 4.75 -2 1.6
v -4.75 -2 1.6
vt 0.02734375 0.986328125
vt 0.021484375 0.986328125
vt 0.021484375 0.9921875
vt 0.02734375 0.9921875
f 7/1 3/2 2/3 6/4
vt 0.0078125 0.986328125
vt 0.001953125 0.986328125
vt 0.001953125 0.9921875
vt 0.0078125 0.9921875
f 4/5 8/6 5/7 1/8
vt 0.021484375 0.9921875
vt 0.0078125 0.9921875
vt 0.0078125 0.998046875
vt 0.021484375 0.998046875
f 2/9 1/10 5/11 6/12
vt 0.03515625 0.998046875
vt 0.021484375 0.998046875
vt 0.021484375 0.9921875
vt 0.03515625 0.9921875
f 7/13 8/14 4/15 3/16
vt 0.021484375 0.986328125
vt 0.0078125 0.986328125
vt 0.0078125 0.9921875
vt 0.021484375 0.9921875
f 3/17 4/18 1/19 2/20
vt 0.041015625 0.986328125
vt 0.02734375 0.986328125
vt 0.02734375 0.9921875
vt 0.041015625 0.9921875
f 8/21 7/22 6/23 5/24
o gunModel1
v -4.75 -2 -1.4
v 4.75 -2 -1.4
v 5 -4 -1.4
v -5 -4 -1.4
v -4.75 -2 1.6
v 4.75 -2 1.6
v 5 -4 1.6
v -5 -4 1.6
vt 0.078125 0.98828125
vt 0.072265625 0.98828125
vt 0.072265625 0.9921875
vt 0.078125 0.9921875
f 15/25 11/26 10/27 14/28
vt 0.0546875 0.98828125
vt 0.048828125 0.98828125
vt 0.048828125 0.9921875
vt 0.0546875 0.9921875
f 12/29 16/30 13/31 9/32
vt 0.072265625 0.9921875
vt 0.0546875 0.9921875
vt 0.0546875 0.998046875
vt 0.072265625 0.998046875
f 10/33 9/34 13/35 14/36
vt 0.08984375 0.998046875
vt 0.072265625 0.998046875
vt 0.072265625 0.9921875
vt 0.08984375 0.9921875
f 15/37 16/38 12/39 11/40
vt 0.072265625 0.98828125
vt 0.0546875 0.98828125
vt 0.0546875 0.9921875
vt 0.072265625 0.9921875
f 11/41 12/42 9/43 10/44
vt 0.095703125 0.98828125
vt 0.078125 0.98828125
vt 0.078125 0.9921875
vt 0.095703125 0.9921875
f 16/45 15/46 14/47 13/48
o gunModel2
v -5 -4 -1.4
v 5 -4 -1.4
v 4.5 -6 -1.4
v -4.5 -6 -1.4
v -5 -4 1.6
v 5 -4 1.6
v 4.5 -6 1.6
v -4.5 -6 1.6
vt 0.140625 0.98828125
vt 0.134765625 0.98828125
vt 0.134765625 0.9921875
vt 0.140625 0.9921875
f 23/49 19/50 18/51 22/52
vt 0.1171875 0.98828125
vt 0.111328125 0.98828125
vt 0.111328125 0.9921875
vt 0.1171875 0.9921875
f 20/53 24/54 21/55 17/56
vt 0.134765625 0.9921875
vt 0.1171875 0.9921875
vt 0.1171875 0.998046875
vt 0.134765625 0.998046875
f 18/57 17/58 21/59 22/60
vt 0.15234375 0.998046875
vt 0.134765625 0.998046875
vt 0.134765625 0.9921875
vt 0.15234375 0.9921875
f 23/61 24/62 20/63 19/64
vt 0.134765625 0.98828125
vt 0.1171875 0.98828125
vt 0.1171875 0.9921875
vt 0.134765625 0.9921875
f 19/65 20/66 17/67 18/68
vt 0.158203125 0.98828125
vt 0.140625 0.98828125
vt 0.140625 0.9921875
vt 0.158203125 0.9921875
f 24/69 23/70 22/71 21/72
o gunModel3
v -4.5 -6 -1.4
v 4.5 -6 -1.4
v 3 -7 -1.4
v -3 -7 -1.4
v -4.5 -6 1.6
v 4.5 -6 1.6
v 3 -7 1.6
v -3 -7 1.6
vt 0.201171875 0.990234375
vt 0.1953125 0.990234375
vt 0.1953125 0.9921875
vt 0.201171875 0.9921875
f 31/73 27/74 26/75 30/76
vt 0.1796875 0.990234375
vt 0.173828125 0.990234375
vt 0.173828125 0.9921875
vt 0.1796875 0.9921875
f 28/77 32/78 29/79 25/80
vt 0.1953125 0.9921875
vt 0.1796875 0.9921875
vt 0.1796875 0.998046875
vt 0.1953125 0.998046875
f 26/81 25/82 29/83 30/84
vt 0.2109375 0.998046875
vt 0.1953125 0.998046875
vt 0.1953125 0.9921875
vt 0.2109375 0.9921875
f 31/85 32/86 28/87 27/88
vt 0.1953125 0.990234375
vt 0.1796875 0.990234375
vt 0.1796875 0.9921875
vt 0.1953125 0.9921875
f 27/89 28/90 25/91 26/92
vt 0.216796875 0.990234375
vt 0.201171875 0.990234375
vt 0.201171875 0.9921875
vt 0.216796875 0.9921875
f 32/93 31/94 30/95 29/96
o gunModel4
v -2.5 6 -1.4
v 2.5 6 -1.4
v 3.5 5 -1.4
v -3.5 5 -1.4
v -2.5 6 1.6
v 2.5 6 1.6
v 3.5 5 1.6
v -3.5 5 1.6
vt 0.2421875 0.990234375
vt 0.236328125 0.990234375
vt 0.236328125 0.9921875
vt 0.2421875 0.9921875
f 39/97 35/98 34/99 38/100
vt 0.2265625 0.990234375
vt 0.220703125 0.990234375
vt 0.220703125 0.9921875
vt 0.2265625 0.9921875
f 36/101 40/102 37/103 33/104
vt 0.236328125 0.9921875
vt 0.2265625 0.9921875
vt 0.2265625 0.998046875
vt 0.236328125 0.998046875
f 34/105 33/106 37/107 38/108
vt 0.24609375 0.998046875
vt 0.236328125 0.998046875
vt 0.236328125 0.9921875
vt 0.24609375 0.9921875
f 39/109 40/110 36/111 35/112
vt 0.236328125 0.990234375
vt 0.2265625 0.990234375
vt 0.2265625 0.9921875
vt 0.236328125 0.9921875
f 35/113 36/114 33/115 34/116
vt 0.251953125 0.990234375
vt 0.2421875 0.990234375
vt 0.2421875 0.9921875
vt 0.251953125 0.9921875
f 40/117 39/118 38/119 37/120
o gunModel5
v -3.5 5 -1.4
v 3.5 5 -1.4
v 3.75 4 -1.4
v -3.75 4 -1.4
v -3.5 5 1.6
v 3.5 5 1.6
v 3.75 4 1.6
v -3.75 4 1.6
vt 0.2890625 0.990234375
vt 0.283203125 0.990234375
vt 0.283203125 0.9921875
vt 0.2890625 0.9921875
f 47/121 43/122 42/123 46/124
vt 0.2734375 0.990234375
vt 0.267578125 0.990234375
vt 0.267578125 0.9921875
vt 0.2734375 0.9921875
f 44/125 48/126 45/127 41/128
vt 0.283203125 0.9921875
vt 0.2734375 0.9921875
vt 0.2734375 0.998046875
vt 0.283203125 0.998046875
f 42/129 41/130 45/131 46/132
vt 0.29296875 0.998046875
vt 0.283203125 0.998046875
vt 0.283203125 0.9921875
vt 0.29296875 0.9921875
f 47/133 48/134 44/135 43/136
vt 0.283203125 0.990234375
vt 0.2734375 0.990234375
vt 0.2734375 0.9921875
vt 0.283203125 0.9921875
f 43/137 44/138 41/139 42/140
vt 0.298828125 0.990234375
vt 0.2890625 0.990234375
vt 0.2890625 0.9921875
vt 0.298828125 0.9921875
f 48/141 47/142 46/143 45/144
o gunModel6
v -3.75 4 -1.4
v 3.75 4 -1.4
v 3.75 3.5 -1.4
v -3.75 3.5 -1.4
v -3.75 4 1.6
v 3.75 4 1.6
v 3.75 3.5 1.6
v -3.75 3.5 1.6
vt 0.3359375 0.990234375
vt 0.330078125 0.990234375
vt 0.330078125 0.9921875
vt 0.3359375 0.9921875
f 55/145 51/146 50/147 54/148
vt 0.3203125 0.990234375
vt 0.314453125 0.990234375
vt 0.314453125 0.9921875
vt 0.3203125 0.9921875
f 52/149 56/150 53/151 49/152
vt 0.330078125 0.9921875
vt 0.3203125 0.9921875
vt 0.3203125 0.998046875
vt 0.330078125 0.998046875
f 50/153 49/154 53/155 54/156
vt 0.33984375 0.998046875
vt 0.330078125 0.998046875
vt 0.330078125 0.9921875
vt 0.33984375 0.9921875
f 55/157 56/158 52/159 51/160
vt 0.330078125 0.990234375
vt 0.3203125 0.990234375
vt 0.3203125 0.9921875
vt 0.330078125 0.9921875
f 51/161 52/162 49/163 50/164
vt 0.345703125 0.990234375
vt 0.3359375 0.990234375
vt 0.3359375 0.9921875
vt 0.345703125 0.9921875
f 56/165 55/166 54/167 53/168
o gunModel7
v -3.75 2.75 -0.4
v -1.25 2.75 -0.4
v -1.25 1.75 -0.4
v -3.5 1.75 -0.4
v -3.75 2.75 1.6
v -1.25 2.75 1.6
v -1.25 1.75 1.6
v -3.5 1.75 1.6
vt 0.373046875 0.9921875
vt 0.369140625 0.9921875
vt 0.369140625 0.994140625
vt 0.373046875 0.994140625
f 63/169 59/170 58/171 62/172
vt 0.365234375 0.9921875
vt 0.361328125 0.9921875
vt 0.361328125 0.994140625
vt 0.365234375 0.994140625
f 60/173 64/174 61/175 57/176
vt 0.369140625 0.994140625
vt 0.365234375 0.994140625
vt 0.365234375 0.998046875
vt 0.369140625 0.998046875
f 58/177 57/178 61/179 62/180
vt 0.373046875 0.998046875
vt 0.369140625 0.998046875
vt 0.369140625 0.994140625
vt 0.373046875 0.994140625
f 63/181 64/182 60/183 59/184
vt 0.369140625 0.9921875
vt 0.365234375 0.9921875
vt 0.365234375 0.994140625
vt 0.369140625 0.994140625
f 59/185 60/186 57/187 58/188
vt 0.376953125 0.9921875
vt 0.373046875 0.9921875
vt 0.373046875 0.994140625
vt 0.376953125 0.994140625
f 64/189 63/190 62/191 61/192
o gunModel8
v 1.25 2.75 -0.4
v 3.75 2.75 -0.4
v 3.5 1.75 -0.4
v 1.25 1.75 -0.4
v 1.25 2.75 1.6
v 3.75 2.75 1.6
v 3.5 1.75 1.6
v 1.25 1.75 1.6
vt 0.404296875 0.9921875
vt 0.400390625 0.9921875
vt 0.400390625 0.994140625
vt 0.404296875 0.994140625
f 71/193 67/194 66/195 70/196
vt 0.396484375 0.9921875
vt 0.392578125 0.9921875
vt 0.392578125 0.994140625
vt 0.396484375 0.994140625
f 68/197 72/198 69/199 65/200
vt 0.400390625 0.994140625
vt 0.396484375 0.994140625
vt 0.396484375 0.998046875
vt 0.400390625 0.998046875
f 66/201 65/202 69/203 70/204
vt 0.404296875 0.998046875
vt 0.400390625 0.998046875
vt 0.400390625 0.994140625
vt 0.404296875 0.994140625
f 71/205 72/206 68/207 67/208
vt 0.400390625 0.9921875
vt 0.396484375 0.9921875
vt 0.396484375 0.994140625
vt 0.400390625 0.994140625
f 67/209 68/210 65/211 66/212
vt 0.408203125 0.9921875
vt 0.404296875 0.9921875
vt 0.404296875 0.994140625
vt 0.408203125 0.994140625
f 72/213 71/214 70/215 69/216
o gunModel9
v -3.5 1.75 -0.4
v -1.25 1.75 -0.4
v -0.5 1 -0.4
v -3.5 1 -0.4
v -3.5 1.75 1.6
v -1.25 1.75 1.6
v -0.5 1 1.6
v -3.5 1 1.6
vt 0.435546875 0.9921875
vt 0.431640625 0.9921875
vt 0.431640625 0.994140625
vt 0.435546875 0.994140625
f 79/217 75/218 74/219 78/220
vt 0.427734375 0.9921875
vt 0.423828125 0.9921875
vt 0.423828125 0.994140625
vt 0.427734375 0.994140625
f 76/221 80/222 77/223 73/224
vt 0.431640625 0.994140625
vt 0.427734375 0.994140625
vt 0.427734375 0.998046875
vt 0.431640625 0.998046875
f 74/225 73/226 77/227 78/228
vt 0.435546875 0.998046875
vt 0.431640625 0.998046875
vt 0.431640625 0.994140625
vt 0.435546875 0.994140625
f 79/229 80/230 76/231 75/232
vt 0.431640625 0.9921875
vt 0.427734375 0.9921875
vt 0.427734375 0.994140625
vt 0.431640625 0.994140625
f 75/233 76/234 73/235 74/236
vt 0.439453125 0.9921875
vt 0.435546875 0.9921875
vt 0.435546875 0.994140625
vt 0.439453125 0.994140625
f 80/237 79/238 78/239 77/240
o gunModel10
v 1.25 1.75 -0.4
v 3.5 1.75 -0.4
v 3.5 1 -0.4
v 0.5 1 -0.4
v 1.25 1.75 1.6
v 3.5 1.75 1.6
v 3.5 1 1.6
v 0.5 1 1.6
vt 0.466796875 0.9921875
vt 0.462890625 0.9921875
vt 0.462890625 0.994140625
vt 0.466796875 0.994140625
f 87/241 83/242 82/243 86/244
vt 0.458984375 0.9921875
vt 0.455078125 0.9921875
vt 0.455078125 0.994140625
vt 0.458984375 0.994140625
f 84/245 88/246 85/247 81/248
vt 0.462890625 0.994140625
vt 0.458984375 0.994140625
vt 0.458984375 0.998046875
vt 0.462890625 0.998046875
f 82/249 81/250 85/251 86/252
vt 0.466796875 0.998046875
vt 0.462890625 0.998046875
vt 0.462890625 0.994140625
vt 0.466796875 0.994140625
f 87/253 88/254 84/255 83/256
vt 0.462890625 0.9921875
vt 0.458984375 0.9921875
vt 0.458984375 0.994140625
vt 0.462890625 0.994140625
f 83/257 84/258 81/259 82/260
vt 0.470703125 0.9921875
vt 0.466796875 0.9921875
vt 0.466796875 0.994140625
vt 0.470703125 0.994140625
f 88/261 87/262 86/263 85/264
o gunModel11
v 0.5 3.5 -0.4
v 3.75 3.5 -0.4
v 3.75 2.75 -0.4
v 1.25 2.75 -0.4
v 0.5 3.5 1.6
v 3.75 3.5 1.6
v 3.75 2.75 1.6
v 1.25 2.75 1.6
vt 0.498046875 0.9921875
vt 0.494140625 0.9921875
vt 0.494140625 0.994140625
vt 0.498046875 0.994140625
f 95/265 91/266 90/267 94/268
vt 0.490234375 0.9921875
vt 0.486328125 0.9921875
vt 0.486328125 0.994140625
vt 0.490234375 0.994140625
f 92/269 96/270 93/271 89/272
vt 0.494140625 0.994140625
vt 0.490234375 0.994140625
vt 0.490234375 0.998046875
vt 0.494140625 0.998046875
f 90/273 89/274 93/275 94/276
vt 0.498046875 0.998046875
vt 0.494140625 0.998046875
vt 0.494140625 0.994140625
vt 0.498046875 0.994140625
f 95/277 96/278 92/279 91/280
vt 0.494140625 0.9921875
vt 0.490234375 0.9921875
vt 0.490234375 0.994140625
vt 0.494140625 0.994140625
f 91/281 92/282 89/283 90/284
vt 0.501953125 0.9921875
vt 0.498046875 0.9921875
vt 0.498046875 0.994140625
vt 0.501953125 0.994140625
f 96/285 95/286 94/287 93/288
o gunModel12
v -3.75 3.5 -0.4
v -0.5 3.5 -0.4
v -1.25 2.75 -0.4
v -3.75 2.75 -0.4
v -3.75 3.5 1.6
v -0.5 3.5 1.6
v -1.25 2.75 1.6
v -3.75 2.75 1.6
vt 0.529296875 0.9921875
vt 0.525390625 0.9921875
vt 0.525390625 0.994140625
vt 0.529296875 0.994140625
f 103/289 99/290 98/291 102/292
vt 0.521484375 0.9921875
vt 0.517578125 0.9921875
vt 0.517578125 0.994140625
vt 0.521484375 0.994140625
f 100/293 104/294 101/295 97/296
vt 0.525390625 0.994140625
vt 0.521484375 0.994140625
vt 0.521484375 0.998046875
vt 0.525390625 0.998046875
f 98/297 97/298 101/299 102/300
vt 0.529296875 0.998046875
vt 0.525390625 0.998046875
vt 0.525390625 0.994140625
vt 0.529296875 0.994140625
f 103/301 104/302 100/303 99/304
vt 0.525390625 0.9921875
vt 0.521484375 0.9921875
vt 0.521484375 0.994140625
vt 0.525390625 0.994140625
f 99/305 100/306 97/307 98/308
vt 0.533203125 0.9921875
vt 0.529296875 0.9921875
vt 0.529296875 0.994140625
vt 0.533203125 0.994140625
f 104/309 103/310 102/311 101/312
o gunModel13
v -3.75 3.5 -1.4
v 3.75 3.5 -1.4
v 3.75 2.75 -1.4
v -3.75 2.75 -1.4
v -3.75 3.5 -0.4
v 3.75 3.5 -0.4
v 3.75 2.75 -0.4
v -3.75 2.75 -0.4
vt 0.564453125 0.994140625
vt 0.5625 0.994140625
vt 0.5625 0.99609375
vt 0.564453125 0.99609375
f 111/313 107/314 106/315 110/316
vt 0.55078125 0.994140625
vt 0.548828125 0.994140625
vt 0.548828125 0.99609375
vt 0.55078125 0.99609375
f 108/317 112/318 109/319 105/320
vt 0.5625 0.99609375
vt 0.55078125 0.99609375
vt 0.55078125 0.998046875
vt 0.5625 0.998046875
f 106/321 105/322 109/323 110/324
vt 0.57421875 0.998046875
vt 0.5625 0.998046875
vt 0.5625 0.99609375
vt 0.57421875 0.99609375
f 111/325 112/326 108/327 107/328
vt 0.5625 0.994140625
vt 0.55078125 0.994140625
vt 0.55078125 0.99609375
vt 0.5625 0.99609375
f 107/329 108/330 105/331 106/332
vt 0.576171875 0.994140625
vt 0.564453125 0.994140625
vt 0.564453125 0.99609375
vt 0.576171875 0.99609375
f 112/333 111/334 110/335 109/336
o gunModel14
v -3.75 2.75 -1.4
v 3.75 2.75 -1.4
v 3.5 1.75 -1.4
v -3.5 1.75 -1.4
v -3.75 2.75 -0.4
v 3.75 2.75 -0.4
v 3.5 1.75 -0.4
v -3.5 1.75 -0.4
vt 0.59765625 0.994140625
vt 0.595703125 0.994140625
vt 0.595703125 0.99609375
vt 0.59765625 0.99609375
f 119/337 115/338 114/339 118/340
vt 0.58203125 0.994140625
vt 0.580078125 0.994140625
vt 0.580078125 0.99609375
vt 0.58203125 0.99609375
f 116/341 120/342 117/343 113/344
vt 0.595703125 0.99609375
vt 0.58203125 0.99609375
vt 0.58203125 0.998046875
vt 0.595703125 0.998046875
f 114/345 113/346 117/347 118/348
vt 0.609375 0.998046875
vt 0.595703125 0.998046875
vt 0.595703125 0.99609375
vt 0.609375 0.99609375
f 119/349 120/350 116/351 115/352
vt 0.595703125 0.994140625
vt 0.58203125 0.994140625
vt 0.58203125 0.99609375
vt 0.595703125 0.99609375
f 115/353 116/354 113/355 114/356
vt 0.611328125 0.994140625
vt 0.59765625 0.994140625
vt 0.59765625 0.99609375
vt 0.611328125 0.99609375
f 120/357 119/358 118/359 117/360
o gunModel15
v -3.5 1.75 -1.4
v 3.5 1.75 -1.4
v 3.5 1 -1.4
v -3.5 1 -1.4
v -3.5 1.75 -0.4
v 3.5 1.75 -0.4
v 3.5 1 -0.4
v -3.5 1 -0.4
vt 0.642578125 0.994140625
vt 0.640625 0.994140625
vt 0.640625 0.99609375
vt 0.642578125 0.99609375
f 127/361 123/362 122/363 126/364
vt 0.62890625 0.994140625
vt 0.626953125 0.994140625
vt 0.626953125 0.99609375
vt 0.62890625 0.99609375
f 124/365 128/366 125/367 121/368
vt 0.640625 0.99609375
vt 0.62890625 0.99609375
vt 0.62890625 0.998046875
vt 0.640625 0.998046875
f 122/369 121/370 125/371 126/372
vt 0.65234375 0.998046875
vt 0.640625 0.998046875
vt 0.640625 0.99609375
vt 0.65234375 0.99609375
f 127/373 128/374 124/375 123/376
vt 0.640625 0.994140625
vt 0.62890625 0.994140625
vt 0.62890625 0.99609375
vt 0.640625 0.99609375
f 123/377 124/378 121/379 122/380
vt 0.654296875 0.994140625
vt 0.642578125 0.994140625
vt 0.642578125 0.99609375
vt 0.654296875 0.99609375
f 128/381 127/382 126/383 125/384
o gunModel16
v -0.5 15.5 1.5
v 0.5 15.5 1.5
v 1 4.5 1
v -1 4.5 1
v -0.5 15.5 2
v 0.5 15.5 2
v 1 4.5 2
v -1 4.5 2
vt 0.666015625 0.974609375
vt 0.6640625 0.974609375
vt 0.6640625 0.99609375
vt 0.666015625 0.99609375
f 135/385 131/386 130/387 134/388
vt 0.66015625 0.974609375
vt 0.658203125 0.974609375
vt 0.658203125 0.99609375
vt 0.66015625 0.99609375
f 132/389 136/390 133/391 129/392
vt 0.6640625 0.99609375
vt 0.66015625 0.99609375
vt 0.66015625 0.998046875
vt 0.6640625 0.998046875
f 130/393 129/394 133/395 134/396
vt 0.66796875 0.998046875
vt 0.6640625 0.998046875
vt 0.6640625 0.99609375
vt 0.66796875 0.99609375
f 135/397 136/398 132/399 131/400
vt 0.6640625 0.974609375
vt 0.66015625 0.974609375
vt 0.66015625 0.99609375
vt 0.6640625 0.99609375
f 131/401 132/402 129/403 130/404
vt 0.669921875 0.974609375
vt 0.666015625 0.974609375
vt 0.666015625 0.99609375
vt 0.669921875 0.99609375
f 136/405 135/406 134/407 133/408
o gunModel17
v -0.75 6.5 0.5
v 0.75 6.5 0.5
v 0.75 5.25 0.5
v -0.75 5.25 0.5
v -0.75 7.25 1.5
v 0.75 7.25 1.5
v 0.75 5.25 1.5
v -0.75 5.25 1.5
vt 0.1015625 0.994140625
vt 0.099609375 0.994140625
vt 0.099609375 0.99609375
vt 0.1015625 0.99609375
f 143/409 139/410 138/411 142/412
vt 0.09765625 0.994140625
vt 0.095703125 0.994140625
vt 0.095703125 0.99609375
vt 0.09765625 0.99609375
f 140/413 144/414 141/415 137/416
vt 0.099609375 0.99609375
vt 0.09765625 0.99609375
vt 0.09765625 0.998046875
vt 0.099609375 0.998046875
f 138/417 137/418 141/419 142/420
vt 0.1015625 0.998046875
vt 0.099609375 0.998046875
vt 0.099609375 0.99609375
vt 0.1015625 0.99609375
f 143/421 144/422 140/423 139/424
vt 0.099609375 0.994140625
vt 0.09765625 0.994140625
vt 0.09765625 0.99609375
vt 0.099609375 0.99609375
f 139/425 140/426 137/427 138/428
vt 0.103515625 0.994140625
vt 0.1015625 0.994140625
vt 0.1015625 0.99609375
vt 0.103515625 0.99609375
f 144/429 143/430 142/431 141/432
o gunModel18
v -1 17.5 1
v 1 17.5 1
v 1 16.5 1.25
v -1 16.5 1.25
v -1 17.5 1.5
v 1 17.5 1.5
v 1 16.5 1.75
v -1 16.5 1.75
vt 0.166015625 0.994140625
vt 0.1640625 0.994140625
vt 0.1640625 0.99609375
vt 0.166015625 0.99609375
f 151/433 147/434 146/435 150/436
vt 0.16015625 0.994140625
vt 0.158203125 0.994140625
vt 0.158203125 0.99609375
vt 0.16015625 0.99609375
f 148/437 152/438 149/439 145/440
vt 0.1640625 0.99609375
vt 0.16015625 0.99609375
vt 0.16015625 0.998046875
vt 0.1640625 0.998046875
f 146/441 145/442 149/443 150/444
vt 0.16796875 0.998046875
vt 0.1640625 0.998046875
vt 0.1640625 0.99609375
vt 0.16796875 0.99609375
f 151/445 152/446 148/447 147/448
vt 0.1640625 0.994140625
vt 0.16015625 0.994140625
vt 0.16015625 0.99609375
vt 0.1640625 0.99609375
f 147/449 148/450 145/451 146/452
vt 0.169921875 0.994140625
vt 0.166015625 0.994140625
vt 0.166015625 0.99609375
vt 0.169921875 0.99609375
f 152/453 151/454 150/455 149/456
o gunModel19
v -1 18.5 0.75
v 1 18.5 0.75
v 1 17.5 1
v -1 17.5 1
v -1 18.5 1.25
v 1 18.5 1.25
v 1 17.5 1.5
v -1 17.5 1.5
vt 0.259765625 0.994140625
vt 0.2578125 0.994140625
vt 0.2578125 0.99609375
vt 0.259765625 0.99609375
f 159/457 155/458 154/459 158/460
vt 0.25390625 0.994140625
vt 0.251953125 0.994140625
vt 0.251953125 0.99609375
vt 0.25390625 0.99609375
f 156/461 160/462 157/463 153/464
vt 0.2578125 0.99609375
vt 0.25390625 0.99609375
vt 0.25390625 0.998046875
vt 0.2578125 0.998046875
f 154/465 153/466 157/467 158/468
vt 0.26171875 0.998046875
vt 0.2578125 0.998046875
vt 0.2578125 0.99609375
vt 0.26171875 0.99609375
f 159/469 160/470 156/471 155/472
vt 0.2578125 0.994140625
vt 0.25390625 0.994140625
vt 0.25390625 0.99609375
vt 0.2578125 0.99609375
f 155/473 156/474 153/475 154/476
vt 0.263671875 0.994140625
vt 0.259765625 0.994140625
vt 0.259765625 0.99609375
vt 0.263671875 0.99609375
f 160/477 159/478 158/479 157/480
o gunModel20
v -0.75 18.75 0.65
v 0.75 18.75 0.65
v 1 18.5 0.75
v -1 18.5 0.75
v -0.75 19 1.15
v 0.75 19 1.15
v 1 18.5 1.25
v -1 18.5 1.25
vt 0.306640625 0.994140625
vt 0.3046875 0.994140625
vt 0.3046875 0.99609375
vt 0.306640625 0.99609375
f 167/481 163/482 162/483 166/484
vt 0.30078125 0.994140625
vt 0.298828125 0.994140625
vt 0.298828125 0.99609375
vt 0.30078125 0.99609375
f 164/485 168/486 165/487 161/488
vt 0.3046875 0.99609375
vt 0.30078125 0.99609375
vt 0.30078125 0.998046875
vt 0.3046875 0.998046875
f 162/489 161/490 165/491 166/492
vt 0.30859375 0.998046875
vt 0.3046875 0.998046875
vt 0.3046875 0.99609375
vt 0.30859375 0.99609375
f 167/493 168/494 164/495 163/496
vt 0.3046875 0.994140625
vt 0.30078125 0.994140625
vt 0.30078125 0.99609375
vt 0.3046875 0.99609375
f 163/497 164/498 161/499 162/500
vt 0.310546875 0.994140625
vt 0.306640625 0.994140625
vt 0.306640625 0.99609375
vt 0.310546875 0.99609375
f 168/501 167/502 166/503 165/504
o gunModel21
v -1 4.5 1
v 1 4.5 1
v 0.5 3.5 1.5
v -0.5 3.5 1.5
v -1 4.5 2
v 1 4.5 2
v 0.5 3.5 2
v -0.5 3.5 2
vt 0.353515625 0.994140625
vt 0.3515625 0.994140625
vt 0.3515625 0.99609375
vt 0.353515625 0.99609375
f 175/505 171/506 170/507 174/508
vt 0.34765625 0.994140625
vt 0.345703125 0.994140625
vt 0.345703125 0.99609375
vt 0.34765625 0.99609375
f 172/509 176/510 173/511 169/512
vt 0.3515625 0.99609375
vt 0.34765625 0.99609375
vt 0.34765625 0.998046875
vt 0.3515625 0.998046875
f 170/513 169/514 173/515 174/516
vt 0.35546875 0.998046875
vt 0.3515625 0.998046875
vt 0.3515625 0.99609375
vt 0.35546875 0.99609375
f 175/517 176/518 172/519 171/520
vt 0.3515625 0.994140625
vt 0.34765625 0.994140625
vt 0.34765625 0.99609375
vt 0.3515625 0.99609375
f 171/521 172/522 169/523 170/524
vt 0.357421875 0.994140625
vt 0.353515625 0.994140625
vt 0.353515625 0.99609375
vt 0.357421875 0.99609375
f 176/525 175/526 174/527 173/528
o gunModel22
v 0.55 18.26673 1.156901
v 0.75 18.26673 1.156901
v 0.75 18.07355 1.208665
v 0.55 18.07355 1.208665
v 0.55 18.39614 1.639864
v 0.75 18.39614 1.639864
v 0.75 18.20296 1.691627
v 0.55 18.20296 1.691627
vt 0.6796875 0.994140625
vt 0.677734375 0.994140625
vt 0.677734375 0.99609375
vt 0.6796875 0.99609375
f 183/529 179/530 178/531 182/532
vt 0.67578125 0.994140625
vt 0.673828125 0.994140625
vt 0.673828125 0.99609375
vt 0.67578125 0.99609375
f 180/533 184/534 181/535 177/536
vt 0.677734375 0.99609375
vt 0.67578125 0.99609375
vt 0.67578125 0.998046875
vt 0.677734375 0.998046875
f 178/537 177/538 181/539 182/540
vt 0.6796875 0.998046875
vt 0.677734375 0.998046875
vt 0.677734375 0.99609375
vt 0.6796875 0.99609375
f 183/541 184/542 180/543 179/544
vt 0.677734375 0.994140625
vt 0.67578125 0.994140625
vt 0.67578125 0.99609375
vt 0.677734375 0.99609375
f 179/545 180/546 177/547 178/548
vt 0.681640625 0.994140625
vt 0.6796875 0.994140625
vt 0.6796875 0.99609375
vt 0.681640625 0.99609375
f 184/549 183/550 182/551 181/552
o gunModel23
v -0.75 18.26673 1.156901
v -0.55 18.26673 1.156901
v -0.55 18.07355 1.208665
v -0.75 18.07355 1.208665
v -0.75 18.39614 1.639864
v -0.55 18.39614 1.639864
v -0.55 18.20296 1.691627
v -0.75 18.20296 1.691627
vt 0.6953125 0.994140625
vt 0.693359375 0.994140625
vt 0.693359375 0.99609375
vt 0.6953125 0.99609375
f 191/553 187/554 186/555 190/556
vt 0.69140625 0.994140625
vt 0.689453125 0.994140625
vt 0.689453125 0.99609375
vt 0.69140625 0.99609375
f 188/557 192/558 189/559 185/560
vt 0.693359375 0.99609375
vt 0.69140625 0.99609375
vt 0.69140625 0.998046875
vt 0.693359375 0.998046875
f 186/561 185/562 189/563 190/564
vt 0.6953125 0.998046875
vt 0.693359375 0.998046875
vt 0.693359375 0.99609375
vt 0.6953125 0.99609375
f 191/565 192/566 188/567 187/568
vt 0.693359375 0.994140625
vt 0.69140625 0.994140625
vt 0.69140625 0.99609375
vt 0.693359375 0.99609375
f 187/569 188/570 185/571 186/572
vt 0.697265625 0.994140625
vt 0.6953125 0.994140625
vt 0.6953125 0.99609375
vt 0.697265625 0.99609375
f 192/573 191/574 190/575 189/576
o gunModel24
v -0.75 17.3974 1.389838
v -0.55 17.3974 1.389838
v -0.55 17.20422 1.441602
v -0.75 17.20422 1.441602
v -0.75 17.52681 1.872801
v -0.55 17.52681 1.872801
v -0.55 17.33363 1.924565
v -0.75 17.33363 1.924565
vt 0.7109375 0.994140625
vt 0.708984375 0.994140625
vt 0.708984375 0.99609375
vt 0.7109375 0.99609375
f 199/577 195/578 194/579 198/580
vt 0.70703125 0.994140625
vt 0.705078125 0.994140625
vt 0.705078125 0.99609375
vt 0.70703125 0.99609375
f 196/581 200/582 197/583 193/584
vt 0.708984375 0.99609375
vt 0.70703125 0.99609375
vt 0.70703125 0.998046875
vt 0.708984375 0.998046875
f 194/585 193/586 197/587 198/588
vt 0.7109375 0.998046875
vt 0.708984375 0.998046875
vt 0.708984375 0.99609375
vt 0.7109375 0.99609375
f 199/589 200/590 196/591 195/592
vt 0.708984375 0.994140625
vt 0.70703125 0.994140625
vt 0.70703125 0.99609375
vt 0.708984375 0.99609375
f 195/593 196/594 193/595 194/596
vt 0.712890625 0.994140625
vt 0.7109375 0.994140625
vt 0.7109375 0.99609375
vt 0.712890625 0.99609375
f 200/597 199/598 198/599 197/600
o gunModel25
v 0.55 17.3974 1.389838
v 0.75 17.3974 1.389838
v 0.75 17.20422 1.441602
v 0.55 17.20422 1.441602
v 0.55 17.52681 1.872801
v 0.75 17.52681 1.872801
v 0.75 17.33363 1.924565
v 0.55 17.33363 1.924565
vt 0.7265625 0.994140625
vt 0.724609375 0.994140625
vt 0.724609375 0.99609375
vt 0.7265625 0.99609375
f 207/601 203/602 202/603 206/604
vt 0.72265625 0.994140625
vt 0.720703125 0.994140625
vt 0.720703125 0.99609375
vt 0.72265625 0.99609375
f 204/605 208/606 205/607 201/608
vt 0.724609375 0.99609375
vt 0.72265625 0.99609375
vt 0.72265625 0.998046875
vt 0.724609375 0.998046875
f 202/609 201/610 205/611 206/612
vt 0.7265625 0.998046875
vt 0.724609375 0.998046875
vt 0.724609375 0.99609375
vt 0.7265625 0.99609375
f 207/613 208/614 204/615 203/616
vt 0.724609375 0.994140625
vt 0.72265625 0.994140625
vt 0.72265625 0.99609375
vt 0.724609375 0.99609375
f 203/617 204/618 201/619 202/620
vt 0.728515625 0.994140625
vt 0.7265625 0.994140625
vt 0.7265625 0.99609375
vt 0.728515625 0.99609375
f 208/621 207/622 206/623 205/624
o gunModel26
v -0.75 16.47977 1.635716
v -0.55 16.47977 1.635716
v -0.55 16.28659 1.68748
v -0.75 16.28659 1.68748
v -0.75 16.60918 2.118679
v -0.55 16.60918 2.118679
v -0.55 16.416 2.170443
v -0.75 16.416 2.170443
vt 0.7421875 0.994140625
vt 0.740234375 0.994140625
vt 0.740234375 0.99609375
vt 0.7421875 0.99609375
f 215/625 211/626 210/627 214/628
vt 0.73828125 0.994140625
vt 0.736328125 0.994140625
vt 0.736328125 0.99609375
vt 0.73828125 0.99609375
f 212/629 216/630 213/631 209/632
vt 0.740234375 0.99609375
vt 0.73828125 0.99609375
vt 0.73828125 0.998046875
vt 0.740234375 0.998046875
f 210/633 209/634 213/635 214/636
vt 0.7421875 0.998046875
vt 0.740234375 0.998046875
vt 0.740234375 0.99609375
vt 0.7421875 0.99609375
f 215/637 216/638 212/639 211/640
vt 0.740234375 0.994140625
vt 0.73828125 0.994140625
vt 0.73828125 0.99609375
vt 0.740234375 0.99609375
f 211/641 212/642 209/643 210/644
vt 0.744140625 0.994140625
vt 0.7421875 0.994140625
vt 0.7421875 0.99609375
vt 0.744140625 0.99609375
f 216/645 215/646 214/647 213/648
o gunModel27
v 0.55 16.47977 1.635716
v 0.75 16.47977 1.635716
v 0.75 16.28659 1.68748
v 0.55 16.28659 1.68748
v 0.55 16.60918 2.118679
v 0.75 16.60918 2.118679
v 0.75 16.416 2.170443
v 0.55 16.416 2.170443
vt 0.7578125 0.994140625
vt 0.755859375 0.994140625
vt 0.755859375 0.99609375
vt 0.7578125 0.99609375
f 223/649 219/650 218/651 222/652
vt 0.75390625 0.994140625
vt 0.751953125 0.994140625
vt 0.751953125 0.99609375
vt 0.75390625 0.99609375
f 220/653 224/654 221/655 217/656
vt 0.755859375 0.99609375
vt 0.75390625 0.99609375
vt 0.75390625 0.998046875
vt 0.755859375 0.998046875
f 218/657 217/658 221/659 222/660
vt 0.7578125 0.998046875
vt 0.755859375 0.998046875
vt 0.755859375 0.99609375
vt 0.7578125 0.99609375
f 223/661 224/662 220/663 219/664
vt 0.755859375 0.994140625
vt 0.75390625 0.994140625
vt 0.75390625 0.99609375
vt 0.755859375 0.99609375
f 219/665 220/666 217/667 218/668
vt 0.759765625 0.994140625
vt 0.7578125 0.994140625
vt 0.7578125 0.99609375
vt 0.759765625 0.99609375
f 224/669 223/670 222/671 221/672
o gunModel28
v 0.5 16.54101 1.671071
v 0.8 16.54101 1.671071
v 0.8 16.25123 1.748717
v 0.5 16.25123 1.748717
v 0.5 16.59277 1.864256
v 0.8 16.59277 1.864256
v 0.8 16.303 1.941902
v 0.5 16.303 1.941902
vt 0.7734375 0.994140625
vt 0.771484375 0.994140625
vt 0.771484375 0.99609375
vt 0.7734375 0.99609375
f 231/673 227/674 226/675 230/676
vt 0.76953125 0.994140625
vt 0.767578125 0.994140625
vt 0.767578125 0.99609375
vt 0.76953125 0.99609375
f 228/677 232/678 229/679 225/680
vt 0.771484375 0.99609375
vt 0.76953125 0.99609375
vt 0.76953125 0.998046875
vt 0.771484375 0.998046875
f 226/681 225/682 229/683 230/684
vt 0.7734375 0.998046875
vt 0.771484375 0.998046875
vt 0.771484375 0.99609375
vt 0.7734375 0.99609375
f 231/685 232/686 228/687 227/688
vt 0.771484375 0.994140625
vt 0.76953125 0.994140625
vt 0.76953125 0.99609375
vt 0.771484375 0.99609375
f 227/689 228/690 225/691 226/692
vt 0.775390625 0.994140625
vt 0.7734375 0.994140625
vt 0.7734375 0.99609375
vt 0.775390625 0.99609375
f 232/693 231/694 230/695 229/696
o gunModel29
v -0.8 16.54101 1.671071
v -0.5 16.54101 1.671071
v -0.5 16.25123 1.748717
v -0.8 16.25123 1.748717
v -0.8 16.59277 1.864256
v -0.5 16.59277 1.864256
v -0.5 16.303 1.941902
v -0.8 16.303 1.941902
vt 0.7890625 0.994140625
vt 0.787109375 0.994140625
vt 0.787109375 0.99609375
vt 0.7890625 0.99609375
f 239/697 235/698 234/699 238/700
vt 0.78515625 0.994140625
vt 0.783203125 0.994140625
vt 0.783203125 0.99609375
vt 0.78515625 0.99609375
f 236/701 240/702 237/703 233/704
vt 0.787109375 0.99609375
vt 0.78515625 0.99609375
vt 0.78515625 0.998046875
vt 0.787109375 0.998046875
f 234/705 233/706 237/707 238/708
vt 0.7890625 0.998046875
vt 0.787109375 0.998046875
vt 0.787109375 0.99609375
vt 0.7890625 0.99609375
f 239/709 240/710 236/711 235/712
vt 0.787109375 0.994140625
vt 0.78515625 0.994140625
vt 0.78515625 0.99609375
vt 0.787109375 0.99609375
f 235/713 236/714 233/715 234/716
vt 0.791015625 0.994140625
vt 0.7890625 0.994140625
vt 0.7890625 0.99609375
vt 0.791015625 0.99609375
f 240/717 239/718 238/719 237/720
o gunModel30
v -0.8 17.45864 1.425193
v -0.5 17.45864 1.425193
v -0.5 17.16886 1.502839
v -0.8 17.16886 1.502839
v -0.8 17.5104 1.618378
v -0.5 17.5104 1.618378
v -0.5 17.22062 1.696024
v -0.8 17.22062 1.696024
vt 0.8046875 0.994140625
vt 0.802734375 0.994140625
vt 0.802734375 0.99609375
vt 0.8046875 0.99609375
f 247/721 243/722 242/723 246/724
vt 0.80078125 0.994140625
vt 0.798828125 0.994140625
vt 0.798828125 0.99609375
vt 0.80078125 0.99609375
f 244/725 248/726 245/727 241/728
vt 0.802734375 0.99609375
vt 0.80078125 0.99609375
vt 0.80078125 0.998046875
vt 0.802734375 0.998046875
f 242/729 241/730 245/731 246/732
vt 0.8046875 0.998046875
vt 0.802734375 0.998046875
vt 0.802734375 0.99609375
vt 0.8046875 0.99609375
f 247/733 248/734 244/735 243/736
vt 0.802734375 0.994140625
vt 0.80078125 0.994140625
vt 0.80078125 0.99609375
vt 0.802734375 0.99609375
f 243/737 244/738 241/739 242/740
vt 0.806640625 0.994140625
vt 0.8046875 0.994140625
vt 0.8046875 0.99609375
vt 0.806640625 0.99609375
f 248/741 247/742 246/743 245/744
o gunModel31
v 0.5 17.45864 1.425193
v 0.8 17.45864 1.425193
v 0.8 17.16886 1.502839
v 0.5 17.16886 1.502839
v 0.5 17.5104 1.618378
v 0.8 17.5104 1.618378
v 0.8 17.22062 1.696024
v 0.5 17.22062 1.696024
vt 0.8203125 0.994140625
vt 0.818359375 0.994140625
vt 0.818359375 0.99609375
vt 0.8203125 0.99609375
f 255/745 251/746 250/747 254/748
vt 0.81640625 0.994140625
vt 0.814453125 0.994140625
vt 0.814453125 0.99609375
vt 0.81640625 0.99609375
f 252/749 256/750 253/751 249/752
vt 0.818359375 0.99609375
vt 0.81640625 0.99609375
vt 0.81640625 0.998046875
vt 0.818359375 0.998046875
f 250/753 249/754 253/755 254/756
vt 0.8203125 0.998046875
vt 0.818359375 0.998046875
vt 0.818359375 0.99609375
vt 0.8203125 0.99609375
f 255/757 256/758 252/759 251/760
vt 0.818359375 0.994140625
vt 0.81640625 0.994140625
vt 0.81640625 0.99609375
vt 0.818359375 0.99609375
f 251/761 252/762 249/763 250/764
vt 0.822265625 0.994140625
vt 0.8203125 0.994140625
vt 0.8203125 0.99609375
vt 0.822265625 0.99609375
f 256/765 255/766 254/767 253/768
o gunModel32
v -0.8 18.32797 1.192256
v -0.5 18.32797 1.192256
v -0.5 18.03819 1.269902
v -0.8 18.03819 1.269902
v -0.8 18.37974 1.385441
v -0.5 18.37974 1.385441
v -0.5 18.08996 1.463087
v -0.8 18.08996 1.463087
vt 0.8359375 0.994140625
vt 0.833984375 0.994140625
vt 0.833984375 0.99609375
vt 0.8359375 0.99609375
f 263/769 259/770 258/771 262/772
vt 0.83203125 0.994140625
vt 0.830078125 0.994140625
vt 0.830078125 0.99609375
vt 0.83203125 0.99609375
f 260/773 264/774 261/775 257/776
vt 0.833984375 0.99609375
vt 0.83203125 0.99609375
vt 0.83203125 0.998046875
vt 0.833984375 0.998046875
f 258/777 257/778 261/779 262/780
vt 0.8359375 0.998046875
vt 0.833984375 0.998046875
vt 0.833984375 0.99609375
vt 0.8359375 0.99609375
f 263/781 264/782 260/783 259/784
vt 0.833984375 0.994140625
vt 0.83203125 0.994140625
vt 0.83203125 0.99609375
vt 0.833984375 0.99609375
f 259/785 260/786 257/787 258/788
vt 0.837890625 0.994140625
vt 0.8359375 0.994140625
vt 0.8359375 0.99609375
vt 0.837890625 0.99609375
f 264/789 263/790 262/791 261/792
o gunModel33
v 0.5 18.32797 1.192256
v 0.8 18.32797 1.192256
v 0.8 18.03819 1.269902
v 0.5 18.03819 1.269902
v 0.5 18.37974 1.385441
v 0.8 18.37974 1.385441
v 0.8 18.08996 1.463087
v 0.5 18.08996 1.463087
vt 0.8515625 0.994140625
vt 0.849609375 0.994140625
vt 0.849609375 0.99609375
vt 0.8515625 0.99609375
f 271/793 267/794 266/795 270/796
vt 0.84765625 0.994140625
vt 0.845703125 0.994140625
vt 0.845703125 0.99609375
vt 0.84765625 0.99609375
f 268/797 272/798 269/799 265/800
vt 0.849609375 0.99609375
vt 0.84765625 0.99609375
vt 0.84765625 0.998046875
vt 0.849609375 0.998046875
f 266/801 265/802 269/803 270/804
vt 0.8515625 0.998046875
vt 0.849609375 0.998046875
vt 0.849609375 0.99609375
vt 0.8515625 0.99609375
f 271/805 272/806 268/807 267/808
vt 0.849609375 0.994140625
vt 0.84765625 0.994140625
vt 0.84765625 0.99609375
vt 0.849609375 0.99609375
f 267/809 268/810 265/811 266/812
vt 0.853515625 0.994140625
vt 0.8515625 0.994140625
vt 0.8515625 0.99609375
vt 0.853515625 0.99609375
f 272/813 271/814 270/815 269/816
o gunModel34
v 0.3998601 15.50916 2.1
v 0.4998134 15.51222 2.1
v 0.9884296 -0.480322 2.1
v 0.8884763 -0.4833759 2.1
v 0.3998601 15.50916 2.2
v 0.4998134 15.51222 2.2
v 0.9884296 -0.480322 2.2
v 0.8884763 -0.4833759 2.2
vt 0.8671875 0.96484375
vt 0.865234375 0.96484375
vt 0.865234375 0.99609375
vt 0.8671875 0.99609375
f 279/817 275/818 274/819 278/820
vt 0.86328125 0.96484375
vt 0.861328125 0.96484375
vt 0.861328125 0.99609375
vt 0.86328125 0.99609375
f 276/821 280/822 277/823 273/824
vt 0.865234375 0.99609375
vt 0.86328125 0.99609375
vt 0.86328125 0.998046875
vt 0.865234375 0.998046875
f 274/825 273/826 277/827 278/828
vt 0.8671875 0.998046875
vt 0.865234375 0.998046875
vt 0.865234375 0.99609375
vt 0.8671875 0.99609375
f 279/829 280/830 276/831 275/832
vt 0.865234375 0.96484375
vt 0.86328125 0.96484375
vt 0.86328125 0.99609375
vt 0.865234375 0.99609375
f 275/833 276/834 273/835 274/836
vt 0.869140625 0.96484375
vt 0.8671875 0.96484375
vt 0.8671875 0.99609375
vt 0.869140625 0.99609375
f 280/837 279/838 278/839 277/840
o gunModel35
v 0.1999543 15.50524 2.1
v 0.2999391 15.50698 2.1
v 0.5791775 -0.4905822 2.1
v 0.4791928 -0.4923274 2.1
v 0.1999543 15.50524 2.2
v 0.2999391 15.50698 2.2
v 0.5791775 -0.4905822 2.2
v 0.4791928 -0.4923274 2.2
vt 0.8828125 0.96484375
vt 0.880859375 0.96484375
vt 0.880859375 0.99609375
vt 0.8828125 0.99609375
f 287/841 283/842 282/843 286/844
vt 0.87890625 0.96484375
vt 0.876953125 0.96484375
vt 0.876953125 0.99609375
vt 0.87890625 0.99609375
f 284/845 288/846 285/847 281/848
vt 0.880859375 0.99609375
vt 0.87890625 0.99609375
vt 0.87890625 0.998046875
vt 0.880859375 0.998046875
f 282/849 281/850 285/851 286/852
vt 0.8828125 0.998046875
vt 0.880859375 0.998046875
vt 0.880859375 0.99609375
vt 0.8828125 0.99609375
f 287/853 288/854 284/855 283/856
vt 0.880859375 0.96484375
vt 0.87890625 0.96484375
vt 0.87890625 0.99609375
vt 0.880859375 0.99609375
f 283/857 284/858 281/859 282/860
vt 0.884765625 0.96484375
vt 0.8828125 0.96484375
vt 0.8828125 0.99609375
vt 0.884765625 0.99609375
f 288/861 287/862 286/863 285/864
o gunModel36
v -1.142309e-05 15.50262 2.1
v 0.09998477 15.50349 2.1
v 0.2396094 -0.4959002 2.1
v 0.1396132 -0.4967728 2.1
v -1.142309e-05 15.50262 2.2
v 0.09998477 15.50349 2.2
v 0.2396094 -0.4959002 2.2
v 0.1396132 -0.4967728 2.2
vt 0.8984375 0.96484375
vt 0.896484375 0.96484375
vt 0.896484375 0.99609375
vt 0.8984375 0.99609375
f 295/865 291/866 290/867 294/868
vt 0.89453125 0.96484375
vt 0.892578125 0.96484375
vt 0.892578125 0.99609375
vt 0.89453125 0.99609375
f 292/869 296/870 293/871 289/872
vt 0.896484375 0.99609375
vt 0.89453125 0.99609375
vt 0.89453125 0.998046875
vt 0.896484375 0.998046875
f 290/873 289/874 293/875 294/876
vt 0.8984375 0.998046875
vt 0.896484375 0.998046875
vt 0.896484375 0.99609375
vt 0.8984375 0.99609375
f 295/877 296/878 292/879 291/880
vt 0.896484375 0.96484375
vt 0.89453125 0.96484375
vt 0.89453125 0.99609375
vt 0.896484375 0.99609375
f 291/881 292/882 289/883 290/884
vt 0.900390625 0.96484375
vt 0.8984375 0.96484375
vt 0.8984375 0.99609375
vt 0.900390625 0.99609375
f 296/885 295/886 294/887 293/888
o gunModel37
v -0.5501399 15.49084 2.1
v -0.4501866 15.48778 2.1
v -0.9388027 -0.5047529 2.1
v -1.038756 -0.501699 2.1
v -0.5501399 15.49084 2.2
v -0.4501866 15.48778 2.2
v -0.9388027 -0.5047529 2.2
v -1.038756 -0.501699 2.2
vt 0.9140625 0.96484375
vt 0.912109375 0.96484375
vt 0.912109375 0.99609375
vt 0.9140625 0.99609375
f 303/889 299/890 298/891 302/892
vt 0.91015625 0.96484375
vt 0.908203125 0.96484375
vt 0.908203125 0.99609375
vt 0.91015625 0.99609375
f 300/893 304/894 301/895 297/896
vt 0.912109375 0.99609375
vt 0.91015625 0.99609375
vt 0.91015625 0.998046875
vt 0.912109375 0.998046875
f 298/897 297/898 301/899 302/900
vt 0.9140625 0.998046875
vt 0.912109375 0.998046875
vt 0.912109375 0.99609375
vt 0.9140625 0.99609375
f 303/901 304/902 300/903 299/904
vt 0.912109375 0.96484375
vt 0.91015625 0.96484375
vt 0.91015625 0.99609375
vt 0.912109375 0.99609375
f 299/905 300/906 297/907 298/908
vt 0.916015625 0.96484375
vt 0.9140625 0.96484375
vt 0.9140625 0.99609375
vt 0.916015625 0.99609375
f 304/909 303/910 302/911 301/912
o gunModel38
v -0.3500457 15.49476 2.1
v -0.2500609 15.49302 2.1
v -0.5292994 -0.5045441 2.1
v -0.6292842 -0.5027988 2.1
v -0.3500457 15.49476 2.2
v -0.2500609 15.49302 2.2
v -0.5292994 -0.5045441 2.2
v -0.6292842 -0.5027988 2.2
vt 0.9296875 0.96484375
vt 0.927734375 0.96484375
vt 0.927734375 0.99609375
vt 0.9296875 0.99609375
f 311/913 307/914 306/915 310/916
vt 0.92578125 0.96484375
vt 0.923828125 0.96484375
vt 0.923828125 0.99609375
vt 0.92578125 0.99609375
f 308/917 312/918 309/919 305/920
vt 0.927734375 0.99609375
vt 0.92578125 0.99609375
vt 0.92578125 0.998046875
vt 0.927734375 0.998046875
f 306/921 305/922 309/923 310/924
vt 0.9296875 0.998046875
vt 0.927734375 0.998046875
vt 0.927734375 0.99609375
vt 0.9296875 0.99609375
f 311/925 312/926 308/927 307/928
vt 0.927734375 0.96484375
vt 0.92578125 0.96484375
vt 0.92578125 0.99609375
vt 0.927734375 0.99609375
f 307/929 308/930 305/931 306/932
vt 0.931640625 0.96484375
vt 0.9296875 0.96484375
vt 0.9296875 0.99609375
vt 0.931640625 0.99609375
f 312/933 311/934 310/935 309/936
o gunModel39
v -0.1500114 15.49738 2.1
v -0.05001523 15.49651 2.1
v -0.1896399 -0.5028814 2.1
v -0.2896361 -0.5020087 2.1
v -0.1500114 15.49738 2.2
v -0.05001523 15.49651 2.2
v -0.1896399 -0.5028814 2.2
v -0.2896361 -0.5020087 2.2
vt 0.9453125 0.96484375
vt 0.943359375 0.96484375
vt 0.943359375 0.99609375
vt 0.9453125 0.99609375
f 319/937 315/938 314/939 318/940
vt 0.94140625 0.96484375
vt 0.939453125 0.96484375
vt 0.939453125 0.99609375
vt 0.94140625 0.99609375
f 316/941 320/942 317/943 313/944
vt 0.943359375 0.99609375
vt 0.94140625 0.99609375
vt 0.94140625 0.998046875
vt 0.943359375 0.998046875
f 314/945 313/946 317/947 318/948
vt 0.9453125 0.998046875
vt 0.943359375 0.998046875
vt 0.943359375 0.99609375
vt 0.9453125 0.99609375
f 319/949 320/950 316/951 315/952
vt 0.943359375 0.96484375
vt 0.94140625 0.96484375
vt 0.94140625 0.99609375
vt 0.943359375 0.99609375
f 315/953 316/954 313/955 314/956
vt 0.947265625 0.96484375
vt 0.9453125 0.96484375
vt 0.9453125 0.99609375
vt 0.947265625 0.99609375
f 320/957 319/958 318/959 317/960
o gunModel40
v 0.6219306 16.46601 1.94446
v 0.7218839 16.46296 1.94446
v 0.4918147 15.48184 2.100894
v 0.3918613 15.48489 2.100894
v 0.6224083 16.48165 2.043229
v 0.7223616 16.47859 2.043229
v 0.4922924 15.49747 2.199663
v 0.392339 15.50053 2.199663
vt 0.9609375 0.994140625
vt 0.958984375 0.994140625
vt 0.958984375 0.99609375
vt 0.9609375 0.99609375
f 327/961 323/962 322/963 326/964
vt 0.95703125 0.994140625
vt 0.955078125 0.994140625
vt 0.955078125 0.99609375
vt 0.95703125 0.99609375
f 324/965 328/966 325/967 321/968
vt 0.958984375 0.99609375
vt 0.95703125 0.99609375
vt 0.95703125 0.998046875
vt 0.958984375 0.998046875
f 322/969 321/970 325/971 326/972
vt 0.9609375 0.998046875
vt 0.958984375 0.998046875
vt 0.958984375 0.99609375
vt 0.9609375 0.99609375
f 327/973 328/974 324/975 323/976
vt 0.958984375 0.994140625
vt 0.95703125 0.994140625
vt 0.95703125 0.99609375
vt 0.958984375 0.99609375
f 323/977 324/978 321/979 322/980
vt 0.962890625 0.994140625
vt 0.9609375 0.994140625
vt 0.9609375 0.99609375
vt 0.962890625 0.99609375
f 328/981 327/982 326/983 325/984
o gunModel41
v -0.7279762 16.47212 1.94446
v -0.6280228 16.46906 1.94446
v -0.4582786 15.47573 2.100894
v -0.558232 15.47878 2.100894
v -0.7274984 16.48775 2.043229
v -0.6275451 16.4847 2.043229
v -0.4578009 15.49136 2.199663
v -0.5577542 15.49442 2.199663
vt 0.9765625 0.994140625
vt 0.974609375 0.994140625
vt 0.974609375 0.99609375
vt 0.9765625 0.99609375
f 335/985 331/986 330/987 334/988
vt 0.97265625 0.994140625
vt 0.970703125 0.994140625
vt 0.970703125 0.99609375
vt 0.97265625 0.99609375
f 332/989 336/990 333/991 329/992
vt 0.974609375 0.99609375
vt 0.97265625 0.99609375
vt 0.97265625 0.998046875
vt 0.974609375 0.998046875
f 330/993 329/994 333/995 334/996
vt 0.9765625 0.998046875
vt 0.974609375 0.998046875
vt 0.974609375 0.99609375
vt 0.9765625 0.99609375
f 335/997 336/998 332/999 331/1000
vt 0.974609375 0.994140625
vt 0.97265625 0.994140625
vt 0.97265625 0.99609375
vt 0.974609375 0.99609375
f 331/1001 332/1002 329/1003 330/1004
vt 0.978515625 0.994140625
vt 0.9765625 0.994140625
vt 0.9765625 0.99609375
vt 0.978515625 0.99609375
f 336/1005 335/1006 334/1007 333/1008
o gunModel42
v 0.5716451 17.45514 1.745075
v 0.6715984 17.45208 1.745075
v 0.3116521 15.49461 2.107329
v 0.2116988 15.49766 2.107329
v 0.5721228 17.47077 1.843844
v 0.6720761 17.46772 1.843844
v 0.3121299 15.51024 2.206097
v 0.2121765 15.5133 2.206097
vt 0.9921875 0.9921875
vt 0.990234375 0.9921875
vt 0.990234375 0.99609375
vt 0.9921875 0.99609375
f 343/1009 339/1010 338/1011 342/1012
vt 0.98828125 0.9921875
vt 0.986328125 0.9921875
vt 0.986328125 0.99609375
vt 0.98828125 0.99609375
f 340/1013 344/1014 341/1015 337/1016
vt 0.990234375 0.99609375
vt 0.98828125 0.99609375
vt 0.98828125 0.998046875
vt 0.990234375 0.998046875
f 338/1017 337/1018 341/1019 342/1020
vt 0.9921875 0.998046875
vt 0.990234375 0.998046875
vt 0.990234375 0.99609375
vt 0.9921875 0.99609375
f 343/1021 344/1022 340/1023 339/1024
vt 0.990234375 0.9921875
vt 0.98828125 0.9921875
vt 0.98828125 0.99609375
vt 0.990234375 0.99609375
f 339/1025 340/1026 337/1027 338/1028
vt 0.994140625 0.9921875
vt 0.9921875 0.9921875
vt 0.9921875 0.99609375
vt 0.994140625 0.99609375
f 344/1029 343/1030 342/1031 341/1032
o gunModel43
v 0.5980438 18.32375 1.51195
v 0.6979972 18.3207 1.51195
v 0.1114756 15.49646 2.113763
v 0.01152226 15.49952 2.113763
v 0.5985215 18.33939 1.610719
v 0.6984749 18.33634 1.610719
v 0.1119533 15.5121 2.212532
v 0.01199998 15.51515 2.212532
vt 0.0078125 0.974609375
vt 0.005859375 0.974609375
vt 0.005859375 0.98046875
vt 0.0078125 0.98046875
f 351/1033 347/1034 346/1035 350/1036
vt 0.00390625 0.974609375
vt 0.001953125 0.974609375
vt 0.001953125 0.98046875
vt 0.00390625 0.98046875
f 348/1037 352/1038 349/1039 345/1040
vt 0.005859375 0.98046875
vt 0.00390625 0.98046875
vt 0.00390625 0.982421875
vt 0.005859375 0.982421875
f 346/1041 345/1042 349/1043 350/1044
vt 0.0078125 0.982421875
vt 0.005859375 0.982421875
vt 0.005859375 0.98046875
vt 0.0078125 0.98046875
f 351/1045 352/1046 348/1047 347/1048
vt 0.005859375 0.974609375
vt 0.00390625 0.974609375
vt 0.00390625 0.98046875
vt 0.005859375 0.98046875
f 347/1049 348/1050 345/1051 346/1052
vt 0.009765625 0.974609375
vt 0.0078125 0.974609375
vt 0.0078125 0.98046875
vt 0.009765625 0.98046875
f 352/1053 351/1054 350/1055 349/1056
o gunModel44
v -0.6780285 17.47651 1.745075
v -0.5780751 17.47346 1.745075
v -0.2383479 15.49461 2.107329
v -0.3383012 15.49766 2.107329
v -0.6775507 17.49215 1.843844
v -0.5775974 17.4891 1.843844
v -0.2378701 15.51024 2.206097
v -0.3378235 15.5133 2.206097
vt 0.0234375 0.9765625
vt 0.021484375 0.9765625
vt 0.021484375 0.98046875
vt 0.0234375 0.98046875
f 359/1057 355/1058 354/1059 358/1060
vt 0.01953125 0.9765625
vt 0.017578125 0.9765625
vt 0.017578125 0.98046875
vt 0.01953125 0.98046875
f 356/1061 360/1062 357/1063 353/1064
vt 0.021484375 0.98046875
vt 0.01953125 0.98046875
vt 0.01953125 0.982421875
vt 0.021484375 0.982421875
f 354/1065 353/1066 357/1067 358/1068
vt 0.0234375 0.982421875
vt 0.021484375 0.982421875
vt 0.021484375 0.98046875
vt 0.0234375 0.98046875
f 359/1069 360/1070 356/1071 355/1072
vt 0.021484375 0.9765625
vt 0.01953125 0.9765625
vt 0.01953125 0.98046875
vt 0.021484375 0.98046875
f 355/1073 356/1074 353/1075 354/1076
vt 0.025390625 0.9765625
vt 0.0234375 0.9765625
vt 0.0234375 0.98046875
vt 0.025390625 0.98046875
f 360/1077 359/1078 358/1079 357/1080
o gunModel45
v -1 16.5 1.25
v 1 16.5 1.25
v 0.5 15.5 1.5
v -0.5 15.5 1.5
v -1 16.5 1.75
v 1 16.5 1.75
v 0.5 15.5 2
v -0.5 15.5 2
vt 0.041015625 0.978515625
vt 0.0390625 0.978515625
vt 0.0390625 0.98046875
vt 0.041015625 0.98046875
f 367/1081 363/1082 362/1083 366/1084
vt 0.03515625 0.978515625
vt 0.033203125 0.978515625
vt 0.033203125 0.98046875
vt 0.03515625 0.98046875
f 364/1085 368/1086 365/1087 361/1088
vt 0.0390625 0.98046875
vt 0.03515625 0.98046875
vt 0.03515625 0.982421875
vt 0.0390625 0.982421875
f 362/1089 361/1090 365/1091 366/1092
vt 0.04296875 0.982421875
vt 0.0390625 0.982421875
vt 0.0390625 0.98046875
vt 0.04296875 0.98046875
f 367/1093 368/1094 364/1095 363/1096
vt 0.0390625 0.978515625
vt 0.03515625 0.978515625
vt 0.03515625 0.98046875
vt 0.0390625 0.98046875
f 363/1097 364/1098 361/1099 362/1100
vt 0.044921875 0.978515625
vt 0.041015625 0.978515625
vt 0.041015625 0.98046875
vt 0.044921875 0.98046875
f 368/1101 367/1102 366/1103 365/1104
o gunModel46
v -0.6514431 18.35735 1.51195
v -0.5514898 18.35429 1.51195
v -0.03852439 15.49646 2.113763
v -0.1384777 15.49952 2.113763
v -0.6509654 18.37298 1.610719
v -0.5510121 18.36993 1.610719
v -0.03804666 15.5121 2.212532
v -0.138 15.51515 2.212532
vt 0.0546875 0.974609375
vt 0.052734375 0.974609375
vt 0.052734375 0.98046875
vt 0.0546875 0.98046875
f 375/1105 371/1106 370/1107 374/1108
vt 0.05078125 0.974609375
vt 0.048828125 0.974609375
vt 0.048828125 0.98046875
vt 0.05078125 0.98046875
f 372/1109 376/1110 373/1111 369/1112
vt 0.052734375 0.98046875
vt 0.05078125 0.98046875
vt 0.05078125 0.982421875
vt 0.052734375 0.982421875
f 370/1113 369/1114 373/1115 374/1116
vt 0.0546875 0.982421875
vt 0.052734375 0.982421875
vt 0.052734375 0.98046875
vt 0.0546875 0.98046875
f 375/1117 376/1118 372/1119 371/1120
vt 0.052734375 0.974609375
vt 0.05078125 0.974609375
vt 0.05078125 0.98046875
vt 0.052734375 0.98046875
f 371/1121 372/1122 369/1123 370/1124
vt 0.056640625 0.974609375
vt 0.0546875 0.974609375
vt 0.0546875 0.98046875
vt 0.056640625 0.98046875
f 376/1125 375/1126 374/1127 373/1128
o gunModel47
v 0.5 -0 1.15
v 2.5 -0 1.15
v 2.5 -0.5 1.15
v 0.5 -1 1.15
v 0.5 -0 2.15
v 1.5 -0 2.15
v 1.5 -0.5 2.15
v 0.5 -1 2.15
vt 0.0703125 0.978515625
vt 0.068359375 0.978515625
vt 0.068359375 0.98046875
vt 0.0703125 0.98046875
f 383/1129 379/1130 378/1131 382/1132
vt 0.06640625 0.978515625
vt 0.064453125 0.978515625
vt 0.064453125 0.98046875
vt 0.06640625 0.98046875
f 380/1133 384/1134 381/1135 377/1136
vt 0.068359375 0.98046875
vt 0.06640625 0.98046875
vt 0.06640625 0.982421875
vt 0.068359375 0.982421875
f 378/1137 377/1138 381/1139 382/1140
vt 0.0703125 0.982421875
vt 0.068359375 0.982421875
vt 0.068359375 0.98046875
vt 0.0703125 0.98046875
f 383/1141 384/1142 380/1143 379/1144
vt 0.068359375 0.978515625
vt 0.06640625 0.978515625
vt 0.06640625 0.98046875
vt 0.068359375 0.98046875
f 379/1145 380/1146 377/1147 378/1148
vt 0.072265625 0.978515625
vt 0.0703125 0.978515625
vt 0.0703125 0.98046875
vt 0.072265625 0.98046875
f 384/1149 383/1150 382/1151 381/1152
o gunModel48
v -2.5 -0 1.15
v -0.5 -0 1.15
v -0.5 -1 1.15
v -2.5 -0.5 1.15
v -1.5 -0 2.15
v -0.5 -0 2.15
v -0.5 -1 2.15
v -1.5 -0.5 2.15
vt 0.0859375 0.978515625
vt 0.083984375 0.978515625
vt 0.083984375 0.98046875
vt 0.0859375 0.98046875
f 391/1153 387/1154 386/1155 390/1156
vt 0.08203125 0.978515625
vt 0.080078125 0.978515625
vt 0.080078125 0.98046875
vt 0.08203125 0.98046875
f 388/1157 392/1158 389/1159 385/1160
vt 0.083984375 0.98046875
vt 0.08203125 0.98046875
vt 0.08203125 0.982421875
vt 0.083984375 0.982421875
f 386/1161 385/1162 389/1163 390/1164
vt 0.0859375 0.982421875
vt 0.083984375 0.982421875
vt 0.083984375 0.98046875
vt 0.0859375 0.98046875
f 391/1165 392/1166 388/1167 387/1168
vt 0.083984375 0.978515625
vt 0.08203125 0.978515625
vt 0.08203125 0.98046875
vt 0.083984375 0.98046875
f 387/1169 388/1170 385/1171 386/1172
vt 0.087890625 0.978515625
vt 0.0859375 0.978515625
vt 0.0859375 0.98046875
vt 0.087890625 0.98046875
f 392/1173 391/1174 390/1175 389/1176
o gunModel49
v -0.5 -0 1.15
v 0.5 -0 1.15
v 0.5 -1 1.15
v -0.5 -1 1.15
v -0.5 -0 2.15
v 0.5 -0 2.15
v 0.5 -1 2.15
v -0.5 -1 2.15
vt 0.1015625 0.978515625
vt 0.099609375 0.978515625
vt 0.099609375 0.98046875
vt 0.1015625 0.98046875
f 399/1177 395/1178 394/1179 398/1180
vt 0.09765625 0.978515625
vt 0.095703125 0.978515625
vt 0.095703125 0.98046875
vt 0.09765625 0.98046875
f 396/1181 400/1182 397/1183 393/1184
vt 0.099609375 0.98046875
vt 0.09765625 0.98046875
vt 0.09765625 0.982421875
vt 0.099609375 0.982421875
f 394/1185 393/1186 397/1187 398/1188
vt 0.1015625 0.982421875
vt 0.099609375 0.982421875
vt 0.099609375 0.98046875
vt 0.1015625 0.98046875
f 399/1189 400/1190 396/1191 395/1192
vt 0.099609375 0.978515625
vt 0.09765625 0.978515625
vt 0.09765625 0.98046875
vt 0.099609375 0.98046875
f 395/1193 396/1194 393/1195 394/1196
vt 0.103515625 0.978515625
vt 0.1015625 0.978515625
vt 0.1015625 0.98046875
vt 0.103515625 0.98046875
f 400/1197 399/1198 398/1199 397/1200
o gunModel50
v 0.07 0.05 2.05
v 0.27 0.05 2.05
v 0.27 -0.55 2.05
v 0.07 -0.55 2.05
v 0.07 0.05 2.25
v 0.27 0.05 2.25
v 0.27 -0.55 2.25
v 0.07 -0.55 2.25
vt 0.1171875 0.978515625
vt 0.115234375 0.978515625
vt 0.115234375 0.98046875
vt 0.1171875 0.98046875
f 407/1201 403/1202 402/1203 406/1204
vt 0.11328125 0.978515625
vt 0.111328125 0.978515625
vt 0.111328125 0.98046875
vt 0.11328125 0.98046875
f 404/1205 408/1206 405/1207 401/1208
vt 0.115234375 0.98046875
vt 0.11328125 0.98046875
vt 0.11328125 0.982421875
vt 0.115234375 0.982421875
f 402/1209 401/1210 405/1211 406/1212
vt 0.1171875 0.982421875
vt 0.115234375 0.982421875
vt 0.115234375 0.98046875
vt 0.1171875 0.98046875
f 407/1213 408/1214 404/1215 403/1216
vt 0.115234375 0.978515625
vt 0.11328125 0.978515625
vt 0.11328125 0.98046875
vt 0.115234375 0.98046875
f 403/1217 404/1218 401/1219 402/1220
vt 0.119140625 0.978515625
vt 0.1171875 0.978515625
vt 0.1171875 0.98046875
vt 0.119140625 0.98046875
f 408/1221 407/1222 406/1223 405/1224
o gunModel51
v -0.35 0.05 2.05
v -0.15 0.05 2.05
v -0.15 -0.55 2.05
v -0.35 -0.55 2.05
v -0.35 0.05 2.25
v -0.15 0.05 2.25
v -0.15 -0.55 2.25
v -0.35 -0.55 2.25
vt 0.1328125 0.978515625
vt 0.130859375 0.978515625
vt 0.130859375 0.98046875
vt 0.1328125 0.98046875
f 415/1225 411/1226 410/1227 414/1228
vt 0.12890625 0.978515625
vt 0.126953125 0.978515625
vt 0.126953125 0.98046875
vt 0.12890625 0.98046875
f 412/1229 416/1230 413/1231 409/1232
vt 0.130859375 0.98046875
vt 0.12890625 0.98046875
vt 0.12890625 0.982421875
vt 0.130859375 0.982421875
f 410/1233 409/1234 413/1235 414/1236
vt 0.1328125 0.982421875
vt 0.130859375 0.982421875
vt 0.130859375 0.98046875
vt 0.1328125 0.98046875
f 415/1237 416/1238 412/1239 411/1240
vt 0.130859375 0.978515625
vt 0.12890625 0.978515625
vt 0.12890625 0.98046875
vt 0.130859375 0.98046875
f 411/1241 412/1242 409/1243 410/1244
vt 0.134765625 0.978515625
vt 0.1328125 0.978515625
vt 0.1328125 0.98046875
vt 0.134765625 0.98046875
f 416/1245 415/1246 414/1247 413/1248
o gunModel52
v -1.1 0.05 2.05
v -0.9 0.05 2.05
v -0.9 -0.55 2.05
v -1.1 -0.55 2.05
v -1.1 0.05 2.25
v -0.9 0.05 2.25
v -0.9 -0.55 2.25
v -1.1 -0.55 2.25
vt 0.1484375 0.978515625
vt 0.146484375 0.978515625
vt 0.146484375 0.98046875
vt 0.1484375 0.98046875
f 423/1249 419/1250 418/1251 422/1252
vt 0.14453125 0.978515625
vt 0.142578125 0.978515625
vt 0.142578125 0.98046875
vt 0.14453125 0.98046875
f 420/1253 424/1254 421/1255 417/1256
vt 0.146484375 0.98046875
vt 0.14453125 0.98046875
vt 0.14453125 0.982421875
vt 0.146484375 0.982421875
f 418/1257 417/1258 421/1259 422/1260
vt 0.1484375 0.982421875
vt 0.146484375 0.982421875
vt 0.146484375 0.98046875
vt 0.1484375 0.98046875
f 423/1261 424/1262 420/1263 419/1264
vt 0.146484375 0.978515625
vt 0.14453125 0.978515625
vt 0.14453125 0.98046875
vt 0.146484375 0.98046875
f 419/1265 420/1266 417/1267 418/1268
vt 0.150390625 0.978515625
vt 0.1484375 0.978515625
vt 0.1484375 0.98046875
vt 0.150390625 0.98046875
f 424/1269 423/1270 422/1271 421/1272
o gunModel53
v -0.68 0.05 2.05
v -0.48 0.05 2.05
v -0.48 -0.55 2.05
v -0.68 -0.55 2.05
v -0.68 0.05 2.25
v -0.48 0.05 2.25
v -0.48 -0.55 2.25
v -0.68 -0.55 2.25
vt 0.1640625 0.978515625
vt 0.162109375 0.978515625
vt 0.162109375 0.98046875
vt 0.1640625 0.98046875
f 431/1273 427/1274 426/1275 430/1276
vt 0.16015625 0.978515625
vt 0.158203125 0.978515625
vt 0.158203125 0.98046875
vt 0.16015625 0.98046875
f 428/1277 432/1278 429/1279 425/1280
vt 0.162109375 0.98046875
vt 0.16015625 0.98046875
vt 0.16015625 0.982421875
vt 0.162109375 0.982421875
f 426/1281 425/1282 429/1283 430/1284
vt 0.1640625 0.982421875
vt 0.162109375 0.982421875
vt 0.162109375 0.98046875
vt 0.1640625 0.98046875
f 431/1285 432/1286 428/1287 427/1288
vt 0.162109375 0.978515625
vt 0.16015625 0.978515625
vt 0.16015625 0.98046875
vt 0.162109375 0.98046875
f 427/1289 428/1290 425/1291 426/1292
vt 0.166015625 0.978515625
vt 0.1640625 0.978515625
vt 0.1640625 0.98046875
vt 0.166015625 0.98046875
f 432/1293 431/1294 430/1295 429/1296
o gunModel54
v 0.4 0.05 2.05
v 0.6 0.05 2.05
v 0.6 -0.55 2.05
v 0.4 -0.55 2.05
v 0.4 0.05 2.25
v 0.6 0.05 2.25
v 0.6 -0.55 2.25
v 0.4 -0.55 2.25
vt 0.1796875 0.978515625
vt 0.177734375 0.978515625
vt 0.177734375 0.98046875
vt 0.1796875 0.98046875
f 439/1297 435/1298 434/1299 438/1300
vt 0.17578125 0.978515625
vt 0.173828125 0.978515625
vt 0.173828125 0.98046875
vt 0.17578125 0.98046875
f 436/1301 440/1302 437/1303 433/1304
vt 0.177734375 0.98046875
vt 0.17578125 0.98046875
vt 0.17578125 0.982421875
vt 0.177734375 0.982421875
f 434/1305 433/1306 437/1307 438/1308
vt 0.1796875 0.982421875
vt 0.177734375 0.982421875
vt 0.177734375 0.98046875
vt 0.1796875 0.98046875
f 439/1309 440/1310 436/1311 435/1312
vt 0.177734375 0.978515625
vt 0.17578125 0.978515625
vt 0.17578125 0.98046875
vt 0.177734375 0.98046875
f 435/1313 436/1314 433/1315 434/1316
vt 0.181640625 0.978515625
vt 0.1796875 0.978515625
vt 0.1796875 0.98046875
vt 0.181640625 0.98046875
f 440/1317 439/1318 438/1319 437/1320
o gunModel55
v 0.82 0.05 2.05
v 1.02 0.05 2.05
v 1.02 -0.55 2.05
v 0.82 -0.55 2.05
v 0.82 0.05 2.25
v 1.02 0.05 2.25
v 1.02 -0.55 2.25
v 0.82 -0.55 2.25
vt 0.1953125 0.978515625
vt 0.193359375 0.978515625
vt 0.193359375 0.98046875
vt 0.1953125 0.98046875
f 447/1321 443/1322 442/1323 446/1324
vt 0.19140625 0.978515625
vt 0.189453125 0.978515625
vt 0.189453125 0.98046875
vt 0.19140625 0.98046875
f 444/1325 448/1326 445/1327 441/1328
vt 0.193359375 0.98046875
vt 0.19140625 0.98046875
vt 0.19140625 0.982421875
vt 0.193359375 0.982421875
f 442/1329 441/1330 445/1331 446/1332
vt 0.1953125 0.982421875
vt 0.193359375 0.982421875
vt 0.193359375 0.98046875
vt 0.1953125 0.98046875
f 447/1333 448/1334 444/1335 443/1336
vt 0.193359375 0.978515625
vt 0.19140625 0.978515625
vt 0.19140625 0.98046875
vt 0.193359375 0.98046875
f 443/1337 444/1338 441/1339 442/1340
vt 0.197265625 0.978515625
vt 0.1953125 0.978515625
vt 0.1953125 0.98046875
vt 0.197265625 0.98046875
f 448/1341 447/1342 446/1343 445/1344
o gunModel56
v -1.25 17.36205 1.201075
v 1.25 17.36205 1.201075
v 1.25 17.16886 1.252839
v -1.25 17.16886 1.252839
v -1.25 17.41381 1.39426
v 1.25 17.41381 1.39426
v 1.25 17.22062 1.446024
v -1.25 17.22062 1.446024
vt 0.21484375 0.978515625
vt 0.212890625 0.978515625
vt 0.212890625 0.98046875
vt 0.21484375 0.98046875
f 455/1345 451/1346 450/1347 454/1348
vt 0.20703125 0.978515625
vt 0.205078125 0.978515625
vt 0.205078125 0.98046875
vt 0.20703125 0.98046875
f 452/1349 456/1350 453/1351 449/1352
vt 0.212890625 0.98046875
vt 0.20703125 0.98046875
vt 0.20703125 0.982421875
vt 0.212890625 0.982421875
f 450/1353 449/1354 453/1355 454/1356
vt 0.21875 0.982421875
vt 0.212890625 0.982421875
vt 0.212890625 0.98046875
vt 0.21875 0.98046875
f 455/1357 456/1358 452/1359 451/1360
vt 0.212890625 0.978515625
vt 0.20703125 0.978515625
vt 0.20703125 0.98046875
vt 0.212890625 0.98046875
f 451/1361 452/1362 449/1363 450/1364
vt 0.220703125 0.978515625
vt 0.21484375 0.978515625
vt 0.21484375 0.98046875
vt 0.220703125 0.98046875
f 456/1365 455/1366 454/1367 453/1368
o gunModel57
v -1.25 18.23138 0.9681379
v 1.25 18.23138 0.9681379
v 1.25 18.03819 1.019902
v -1.25 18.03819 1.019902
v -1.25 18.28314 1.161323
v 1.25 18.28314 1.161323
v 1.25 18.08996 1.213087
v -1.25 18.08996 1.213087
vt 0.24609375 0.978515625
vt 0.244140625 0.978515625
vt 0.244140625 0.98046875
vt 0.24609375 0.98046875
f 463/1369 459/1370 458/1371 462/1372
vt 0.23828125 0.978515625
vt 0.236328125 0.978515625
vt 0.236328125 0.98046875
vt 0.23828125 0.98046875
f 460/1373 464/1374 461/1375 457/1376
vt 0.244140625 0.98046875
vt 0.23828125 0.98046875
vt 0.23828125 0.982421875
vt 0.244140625 0.982421875
f 458/1377 457/1378 461/1379 462/1380
vt 0.25 0.982421875
vt 0.244140625 0.982421875
vt 0.244140625 0.98046875
vt 0.25 0.98046875
f 463/1381 464/1382 460/1383 459/1384
vt 0.244140625 0.978515625
vt 0.23828125 0.978515625
vt 0.23828125 0.98046875
vt 0.244140625 0.98046875
f 459/1385 460/1386 457/1387 458/1388
vt 0.251953125 0.978515625
vt 0.24609375 0.978515625
vt 0.24609375 0.98046875
vt 0.251953125 0.98046875
f 464/1389 463/1390 462/1391 461/1392
o gunModel58
v -1.25 16.44442 1.446953
v 1.25 16.44442 1.446953
v 1.25 16.25123 1.498717
v -1.25 16.25123 1.498717
v -1.25 16.49618 1.640138
v 1.25 16.49618 1.640138
v 1.25 16.303 1.691902
v -1.25 16.303 1.691902
vt 0.27734375 0.978515625
vt 0.275390625 0.978515625
vt 0.275390625 0.98046875
vt 0.27734375 0.98046875
f 471/1393 467/1394 466/1395 470/1396
vt 0.26953125 0.978515625
vt 0.267578125 0.978515625
vt 0.267578125 0.98046875
vt 0.26953125 0.98046875
f 468/1397 472/1398 469/1399 465/1400
vt 0.275390625 0.98046875
vt 0.26953125 0.98046875
vt 0.26953125 0.982421875
vt 0.275390625 0.982421875
f 466/1401 465/1402 469/1403 470/1404
vt 0.28125 0.982421875
vt 0.275390625 0.982421875
vt 0.275390625 0.98046875
vt 0.28125 0.98046875
f 471/1405 472/1406 468/1407 467/1408
vt 0.275390625 0.978515625
vt 0.26953125 0.978515625
vt 0.26953125 0.98046875
vt 0.275390625 0.98046875
f 467/1409 468/1410 465/1411 466/1412
vt 0.283203125 0.978515625
vt 0.27734375 0.978515625
vt 0.27734375 0.98046875
vt 0.283203125 0.98046875
f 472/1413 471/1414 470/1415 469/1416
o gunModel59
v 1.1 17.4457 1.126897
v 1.5 17.4457 1.126897
v 1.5 17.05933 1.230425
v 1.1 17.05933 1.230425
v 1.1 17.52334 1.416675
v 1.5 17.52334 1.416675
v 1.5 17.13697 1.520202
v 1.1 17.13697 1.520202
vt 0.3046875 0.978515625
vt 0.302734375 0.978515625
vt 0.302734375 0.98046875
vt 0.3046875 0.98046875
f 479/1417 475/1418 474/1419 478/1420
vt 0.30078125 0.978515625
vt 0.298828125 0.978515625
vt 0.298828125 0.98046875
vt 0.30078125 0.98046875
f 476/1421 480/1422 477/1423 473/1424
vt 0.302734375 0.98046875
vt 0.30078125 0.98046875
vt 0.30078125 0.982421875
vt 0.302734375 0.982421875
f 474/1425 473/1426 477/1427 478/1428
vt 0.3046875 0.982421875
vt 0.302734375 0.982421875
vt 0.302734375 0.98046875
vt 0.3046875 0.98046875
f 479/1429 480/1430 476/1431 475/1432
vt 0.302734375 0.978515625
vt 0.30078125 0.978515625
vt 0.30078125 0.98046875
vt 0.302734375 0.98046875
f 475/1433 476/1434 473/1435 474/1436
vt 0.306640625 0.978515625
vt 0.3046875 0.978515625
vt 0.3046875 0.98046875
vt 0.306640625 0.98046875
f 480/1437 479/1438 478/1439 477/1440
o gunModel60
v 1.1 18.31503 0.8939597
v 1.5 18.31503 0.8939597
v 1.5 17.92866 0.9974874
v 1.1 17.92866 0.9974874
v 1.1 18.39268 1.183737
v 1.5 18.39268 1.183737
v 1.5 18.00631 1.287265
v 1.1 18.00631 1.287265
vt 0.3203125 0.978515625
vt 0.318359375 0.978515625
vt 0.318359375 0.98046875
vt 0.3203125 0.98046875
f 487/1441 483/1442 482/1443 486/1444
vt 0.31640625 0.978515625
vt 0.314453125 0.978515625
vt 0.314453125 0.98046875
vt 0.31640625 0.98046875
f 484/1445 488/1446 485/1447 481/1448
vt 0.318359375 0.98046875
vt 0.31640625 0.98046875
vt 0.31640625 0.982421875
vt 0.318359375 0.982421875
f 482/1449 481/1450 485/1451 486/1452
vt 0.3203125 0.982421875
vt 0.318359375 0.982421875
vt 0.318359375 0.98046875
vt 0.3203125 0.98046875
f 487/1453 488/1454 484/1455 483/1456
vt 0.318359375 0.978515625
vt 0.31640625 0.978515625
vt 0.31640625 0.98046875
vt 0.318359375 0.98046875
f 483/1457 484/1458 481/1459 482/1460
vt 0.322265625 0.978515625
vt 0.3203125 0.978515625
vt 0.3203125 0.98046875
vt 0.322265625 0.98046875
f 488/1461 487/1462 486/1463 485/1464
o gunModel61
v 1.1 16.52807 1.372775
v 1.5 16.52807 1.372775
v 1.5 16.1417 1.476303
v 1.1 16.1417 1.476303
v 1.1 16.60571 1.662553
v 1.5 16.60571 1.662553
v 1.5 16.21934 1.76608
v 1.1 16.21934 1.76608
vt 0.3359375 0.978515625
vt 0.333984375 0.978515625
vt 0.333984375 0.98046875
vt 0.3359375 0.98046875
f 495/1465 491/1466 490/1467 494/1468
vt 0.33203125 0.978515625
vt 0.330078125 0.978515625
vt 0.330078125 0.98046875
vt 0.33203125 0.98046875
f 492/1469 496/1470 493/1471 489/1472
vt 0.333984375 0.98046875
vt 0.33203125 0.98046875
vt 0.33203125 0.982421875
vt 0.333984375 0.982421875
f 490/1473 489/1474 493/1475 494/1476
vt 0.3359375 0.982421875
vt 0.333984375 0.982421875
vt 0.333984375 0.98046875
vt 0.3359375 0.98046875
f 495/1477 496/1478 492/1479 491/1480
vt 0.333984375 0.978515625
vt 0.33203125 0.978515625
vt 0.33203125 0.98046875
vt 0.333984375 0.98046875
f 491/1481 492/1482 489/1483 490/1484
vt 0.337890625 0.978515625
vt 0.3359375 0.978515625
vt 0.3359375 0.98046875
vt 0.337890625 0.98046875
f 496/1485 495/1486 494/1487 493/1488
o gunModel62
v -1.5 16.52807 1.372775
v -1.1 16.52807 1.372775
v -1.1 16.1417 1.476303
v -1.5 16.1417 1.476303
v -1.5 16.60571 1.662553
v -1.1 16.60571 1.662553
v -1.1 16.21934 1.76608
v -1.5 16.21934 1.76608
vt 0.3515625 0.978515625
vt 0.349609375 0.978515625
vt 0.349609375 0.98046875
vt 0.3515625 0.98046875
f 503/1489 499/1490 498/1491 502/1492
vt 0.34765625 0.978515625
vt 0.345703125 0.978515625
vt 0.345703125 0.98046875
vt 0.34765625 0.98046875
f 500/1493 504/1494 501/1495 497/1496
vt 0.349609375 0.98046875
vt 0.34765625 0.98046875
vt 0.34765625 0.982421875
vt 0.349609375 0.982421875
f 498/1497 497/1498 501/1499 502/1500
vt 0.3515625 0.982421875
vt 0.349609375 0.982421875
vt 0.349609375 0.98046875
vt 0.3515625 0.98046875
f 503/1501 504/1502 500/1503 499/1504
vt 0.349609375 0.978515625
vt 0.34765625 0.978515625
vt 0.34765625 0.98046875
vt 0.349609375 0.98046875
f 499/1505 500/1506 497/1507 498/1508
vt 0.353515625 0.978515625
vt 0.3515625 0.978515625
vt 0.3515625 0.98046875
vt 0.353515625 0.98046875
f 504/1509 503/1510 502/1511 501/1512
o gunModel63
v -1.5 17.4457 1.126897
v -1.1 17.4457 1.126897
v -1.1 17.05933 1.230425
v -1.5 17.05933 1.230425
v -1.5 17.52334 1.416675
v -1.1 17.52334 1.416675
v -1.1 17.13697 1.520202
v -1.5 17.13697 1.520202
vt 0.3671875 0.978515625
vt 0.365234375 0.978515625
vt 0.365234375 0.98046875
vt 0.3671875 0.98046875
f 511/1513 507/1514 506/1515 510/1516
vt 0.36328125 0.978515625
vt 0.361328125 0.978515625
vt 0.361328125 0.98046875
vt 0.36328125 0.98046875
f 508/1517 512/1518 509/1519 505/1520
vt 0.365234375 0.98046875
vt 0.36328125 0.98046875
vt 0.36328125 0.982421875
vt 0.365234375 0.982421875
f 506/1521 505/1522 509/1523 510/1524
vt 0.3671875 0.982421875
vt 0.365234375 0.982421875
vt 0.365234375 0.98046875
vt 0.3671875 0.98046875
f 511/1525 512/1526 508/1527 507/1528
vt 0.365234375 0.978515625
vt 0.36328125 0.978515625
vt 0.36328125 0.98046875
vt 0.365234375 0.98046875
f 507/1529 508/1530 505/1531 506/1532
vt 0.369140625 0.978515625
vt 0.3671875 0.978515625
vt 0.3671875 0.98046875
vt 0.369140625 0.98046875
f 512/1533 511/1534 510/1535 509/1536
o gunModel64
v -1.5 18.31503 0.8939597
v -1.1 18.31503 0.8939597
v -1.1 17.92866 0.9974874
v -1.5 17.92866 0.9974874
v -1.5 18.39268 1.183737
v -1.1 18.39268 1.183737
v -1.1 18.00631 1.287265
v -1.5 18.00631 1.287265
vt 0.3828125 0.978515625
vt 0.380859375 0.978515625
vt 0.380859375 0.98046875
vt 0.3828125 0.98046875
f 519/1537 515/1538 514/1539 518/1540
vt 0.37890625 0.978515625
vt 0.376953125 0.978515625
vt 0.376953125 0.98046875
vt 0.37890625 0.98046875
f 516/1541 520/1542 517/1543 513/1544
vt 0.380859375 0.98046875
vt 0.37890625 0.98046875
vt 0.37890625 0.982421875
vt 0.380859375 0.982421875
f 514/1545 513/1546 517/1547 518/1548
vt 0.3828125 0.982421875
vt 0.380859375 0.982421875
vt 0.380859375 0.98046875
vt 0.3828125 0.98046875
f 519/1549 520/1550 516/1551 515/1552
vt 0.380859375 0.978515625
vt 0.37890625 0.978515625
vt 0.37890625 0.98046875
vt 0.380859375 0.98046875
f 515/1553 516/1554 513/1555 514/1556
vt 0.384765625 0.978515625
vt 0.3828125 0.978515625
vt 0.3828125 0.98046875
vt 0.384765625 0.98046875
f 520/1557 519/1558 518/1559 517/1560
