# Converted from Decimation Beardie model: turretStand.bmodel
# Coordinates retain the original Beardie model units.
mtllib turret_stand.mtl
usemtl turret_stand_material
o gunModel0
v 3 -6 -3
v 6 -6 -3
v 7 -8 -4
v 3 -8 -4
v 3 -6 3
v 6 -6 3
v 7 -8 4
v 3 -8 4
vt 0.03125 0.982421875
vt 0.01953125 0.982421875
vt 0.01953125 0.986328125
vt 0.03125 0.986328125
f 7/1 3/2 2/3 6/4
vt 0.013671875 0.982421875
vt 0.001953125 0.982421875
vt 0.001953125 0.986328125
vt 0.013671875 0.986328125
f 4/5 8/6 5/7 1/8
vt 0.01953125 0.986328125
vt 0.013671875 0.986328125
vt 0.013671875 0.998046875
vt 0.01953125 0.998046875
f 2/9 1/10 5/11 6/12
vt 0.025390625 0.998046875
vt 0.01953125 0.998046875
vt 0.01953125 0.986328125
vt 0.025390625 0.986328125
f 7/13 8/14 4/15 3/16
vt 0.01953125 0.982421875
vt 0.013671875 0.982421875
vt 0.013671875 0.986328125
vt 0.01953125 0.986328125
f 3/17 4/18 1/19 2/20
vt 0.037109375 0.982421875
vt 0.03125 0.982421875
vt 0.03125 0.986328125
vt 0.037109375 0.986328125
f 8/21 7/22 6/23 5/24
o gunModel1
v 1 -6 -1
v 3 -6 -3
v 3 -8 -4
v 0 -8 -2
v 1 -6 1
v 3 -6 3
v 3 -8 4
v 0 -8 2
vt 0.076171875 0.982421875
vt 0.064453125 0.982421875
vt 0.064453125 0.986328125
vt 0.076171875 0.986328125
f 15/25 11/26 10/27 14/28
vt 0.060546875 0.982421875
vt 0.048828125 0.982421875
vt 0.048828125 0.986328125
vt 0.060546875 0.986328125
f 12/29 16/30 13/31 9/32
vt 0.064453125 0.986328125
vt 0.060546875 0.986328125
vt 0.060546875 0.998046875
vt 0.064453125 0.998046875
f 10/33 9/34 13/35 14/36
vt 0.068359375 0.998046875
vt 0.064453125 0.998046875
vt 0.064453125 0.986328125
vt 0.068359375 0.986328125
f 15/37 16/38 12/39 11/40
vt 0.064453125 0.982421875
vt 0.060546875 0.982421875
vt 0.060546875 0.986328125
vt 0.064453125 0.986328125
f 11/41 12/42 9/43 10/44
vt 0.080078125 0.982421875
vt 0.076171875 0.982421875
vt 0.076171875 0.986328125
vt 0.080078125 0.986328125
f 16/45 15/46 14/47 13/48
o gunModel2
v 0 -8 -2
v 3 -8 -4
v 3 -10 -3
v 1 -10 -1
v 0 -8 2
v 3 -8 4
v 3 -10 3
v 1 -10 1
vt 0.123046875 0.982421875
vt 0.111328125 0.982421875
vt 0.111328125 0.986328125
vt 0.123046875 0.986328125
f 23/49 19/50 18/51 22/52
vt 0.107421875 0.982421875
vt 0.095703125 0.982421875
vt 0.095703125 0.986328125
vt 0.107421875 0.986328125
f 20/53 24/54 21/55 17/56
vt 0.111328125 0.986328125
vt 0.107421875 0.986328125
vt 0.107421875 0.998046875
vt 0.111328125 0.998046875
f 18/57 17/58 21/59 22/60
vt 0.115234375 0.998046875
vt 0.111328125 0.998046875
vt 0.111328125 0.986328125
vt 0.115234375 0.986328125
f 23/61 24/62 20/63 19/64
vt 0.111328125 0.982421875
vt 0.107421875 0.982421875
vt 0.107421875 0.986328125
vt 0.111328125 0.986328125
f 19/65 20/66 17/67 18/68
vt 0.126953125 0.982421875
vt 0.123046875 0.982421875
vt 0.123046875 0.986328125
vt 0.126953125 0.986328125
f 24/69 23/70 22/71 21/72
o gunModel3
v 3 -8 -4
v 7 -8 -4
v 6 -10 -3
v 3 -10 -3
v 3 -8 4
v 7 -8 4
v 6 -10 3
v 3 -10 3
vt 0.171875 0.982421875
vt 0.16015625 0.982421875
vt 0.16015625 0.986328125
vt 0.171875 0.986328125
f 31/73 27/74 26/75 30/76
vt 0.154296875 0.982421875
vt 0.142578125 0.982421875
vt 0.142578125 0.986328125
vt 0.154296875 0.986328125
f 28/77 32/78 29/79 25/80
vt 0.16015625 0.986328125
vt 0.154296875 0.986328125
vt 0.154296875 0.998046875
vt 0.16015625 0.998046875
f 26/81 25/82 29/83 30/84
vt 0.166015625 0.998046875
vt 0.16015625 0.998046875
vt 0.16015625 0.986328125
vt 0.166015625 0.986328125
f 31/85 32/86 28/87 27/88
vt 0.16015625 0.982421875
vt 0.154296875 0.982421875
vt 0.154296875 0.986328125
vt 0.16015625 0.986328125
f 27/89 28/90 25/91 26/92
vt 0.177734375 0.982421875
vt 0.171875 0.982421875
vt 0.171875 0.986328125
vt 0.177734375 0.986328125
f 32/93 31/94 30/95 29/96
o gunModel4
v 5 -8 -2
v 7 -8 -2
v 12 -22 -0.5
v 11 -22 -0.5
v 5 -8 2
v 7 -8 2
v 12 -22 0.5
v 11 -22 0.5
vt 0.20703125 0.962890625
vt 0.19921875 0.962890625
vt 0.19921875 0.990234375
vt 0.20703125 0.990234375
f 39/97 35/98 34/99 38/100
vt 0.197265625 0.962890625
vt 0.189453125 0.962890625
vt 0.189453125 0.990234375
vt 0.197265625 0.990234375
f 36/101 40/102 37/103 33/104
vt 0.19921875 0.990234375
vt 0.197265625 0.990234375
vt 0.197265625 0.998046875
vt 0.19921875 0.998046875
f 34/105 33/106 37/107 38/108
vt 0.201171875 0.998046875
vt 0.19921875 0.998046875
vt 0.19921875 0.990234375
vt 0.201171875 0.990234375
f 39/109 40/110 36/111 35/112
vt 0.19921875 0.962890625
vt 0.197265625 0.962890625
vt 0.197265625 0.990234375
vt 0.19921875 0.990234375
f 35/113 36/114 33/115 34/116
vt 0.208984375 0.962890625
vt 0.20703125 0.962890625
vt 0.20703125 0.990234375
vt 0.208984375 0.990234375
f 40/117 39/118 38/119 37/120
o gunModel5
v 1.146727 -8 0.3117358
v 4.131263 -8 2.32483
v -0.3016435 -22 6.572105
v -1.130681 -22 6.012912
v 0.02834146 -8 1.969811
v 3.012877 -8 3.982905
v -0.8608364 -22 7.401143
v -1.689874 -22 6.84195
vt 0.232421875 0.96875
vt 0.23046875 0.96875
vt 0.23046875 0.99609375
vt 0.232421875 0.99609375
f 47/121 43/122 42/123 46/124
vt 0.22265625 0.96875
vt 0.220703125 0.96875
vt 0.220703125 0.99609375
vt 0.22265625 0.99609375
f 44/125 48/126 45/127 41/128
vt 0.23046875 0.99609375
vt 0.22265625 0.99609375
vt 0.22265625 0.998046875
vt 0.23046875 0.998046875
f 42/129 41/130 45/131 46/132
vt 0.23828125 0.998046875
vt 0.23046875 0.998046875
vt 0.23046875 0.99609375
vt 0.23828125 0.99609375
f 47/133 48/134 44/135 43/136
vt 0.23046875 0.96875
vt 0.22265625 0.96875
vt 0.22265625 0.99609375
vt 0.23046875 0.99609375
f 43/137 44/138 41/139 42/140
vt 0.240234375 0.96875
vt 0.232421875 0.96875
vt 0.232421875 0.99609375
vt 0.240234375 0.99609375
f 48/141 47/142 46/143 45/144
o gunModel6
v -0.02172681 -8 -1.971065
v 2.962809 -8 -3.98416
v -0.9109047 -22 -7.402397
v -1.739942 -22 -6.843204
v 1.096659 -8 -0.31299
v 4.081194 -8 -2.326084
v -0.3517118 -22 -6.573359
v -1.180749 -22 -6.014166
vt 0.263671875 0.96875
vt 0.26171875 0.96875
vt 0.26171875 0.99609375
vt 0.263671875 0.99609375
f 55/145 51/146 50/147 54/148
vt 0.25390625 0.96875
vt 0.251953125 0.96875
vt 0.251953125 0.99609375
vt 0.25390625 0.99609375
f 52/149 56/150 53/151 49/152
vt 0.26171875 0.99609375
vt 0.25390625 0.99609375
vt 0.25390625 0.998046875
vt 0.26171875 0.998046875
f 50/153 49/154 53/155 54/156
vt 0.26953125 0.998046875
vt 0.26171875 0.998046875
vt 0.26171875 0.99609375
vt 0.26953125 0.99609375
f 55/157 56/158 52/159 51/160
vt 0.26171875 0.96875
vt 0.25390625 0.96875
vt 0.25390625 0.99609375
vt 0.26171875 0.99609375
f 51/161 52/162 49/163 50/164
vt 0.271484375 0.96875
vt 0.263671875 0.96875
vt 0.263671875 0.99609375
vt 0.271484375 0.99609375
f 56/165 55/166 54/167 53/168
o gunModel7
v 2 -5.5 -1.75
v 5.5 -5.5 -1.75
v 5.5 -10.5 -1.75
v 2 -10.5 -1.75
v 2 -5.5 1.75
v 5.5 -5.5 1.75
v 5.5 -10.5 1.75
v 2 -10.5 1.75
vt 0.30078125 0.982421875
vt 0.294921875 0.982421875
vt 0.294921875 0.9921875
vt 0.30078125 0.9921875
f 63/169 59/170 58/171 62/172
vt 0.2890625 0.982421875
vt 0.283203125 0.982421875
vt 0.283203125 0.9921875
vt 0.2890625 0.9921875
f 60/173 64/174 61/175 57/176
vt 0.294921875 0.9921875
vt 0.2890625 0.9921875
vt 0.2890625 0.998046875
vt 0.294921875 0.998046875
f 58/177 57/178 61/179 62/180
vt 0.30078125 0.998046875
vt 0.294921875 0.998046875
vt 0.294921875 0.9921875
vt 0.30078125 0.9921875
f 63/181 64/182 60/183 59/184
vt 0.294921875 0.982421875
vt 0.2890625 0.982421875
vt 0.2890625 0.9921875
vt 0.294921875 0.9921875
f 59/185 60/186 57/187 58/188
vt 0.306640625 0.982421875
vt 0.30078125 0.982421875
vt 0.30078125 0.9921875
vt 0.306640625 0.9921875
f 64/189 63/190 62/191 61/192
o gunModel8
v 6 -7 -1
v 7 -7 -1
v 8 -10 -1
v 6 -10 -1
v 6 -7 1
v 7 -7 1
v 8 -10 1
v 6 -10 1
vt 0.091796875 0.97265625
vt 0.087890625 0.97265625
vt 0.087890625 0.978515625
vt 0.091796875 0.978515625
f 71/193 67/194 66/195 70/196
vt 0.083984375 0.97265625
vt 0.080078125 0.97265625
vt 0.080078125 0.978515625
vt 0.083984375 0.978515625
f 68/197 72/198 69/199 65/200
vt 0.087890625 0.978515625
vt 0.083984375 0.978515625
vt 0.083984375 0.982421875
vt 0.087890625 0.982421875
f 66/201 65/202 69/203 70/204
vt 0.091796875 0.982421875
vt 0.087890625 0.982421875
vt 0.087890625 0.978515625
vt 0.091796875 0.978515625
f 71/205 72/206 68/207 67/208
vt 0.087890625 0.97265625
vt 0.083984375 0.97265625
vt 0.083984375 0.978515625
vt 0.087890625 0.978515625
f 67/209 68/210 65/211 66/212
vt 0.095703125 0.97265625
vt 0.091796875 0.97265625
vt 0.091796875 0.978515625
vt 0.095703125 0.978515625
f 72/213 71/214 70/215 69/216
o gunModel9
v 0 -6.25 -1
v 1 -6 -1
v 1 -8 -1
v 0 -8 -1
v 0 -6.25 1
v 1 -6 1
v 1 -8 1
v 0 -8 1
vt 0.13671875 0.974609375
vt 0.1328125 0.974609375
vt 0.1328125 0.978515625
vt 0.13671875 0.978515625
f 79/217 75/218 74/219 78/220
vt 0.130859375 0.974609375
vt 0.126953125 0.974609375
vt 0.126953125 0.978515625
vt 0.130859375 0.978515625
f 76/221 80/222 77/223 73/224
vt 0.1328125 0.978515625
vt 0.130859375 0.978515625
vt 0.130859375 0.982421875
vt 0.1328125 0.982421875
f 74/225 73/226 77/227 78/228
vt 0.134765625 0.982421875
vt 0.1328125 0.982421875
vt 0.1328125 0.978515625
vt 0.134765625 0.978515625
f 79/229 80/230 76/231 75/232
vt 0.1328125 0.974609375
vt 0.130859375 0.974609375
vt 0.130859375 0.978515625
vt 0.1328125 0.978515625
f 75/233 76/234 73/235 74/236
vt 0.138671875 0.974609375
vt 0.13671875 0.974609375
vt 0.13671875 0.978515625
vt 0.138671875 0.978515625
f 80/237 79/238 78/239 77/240
o gunModel10
v 3.5 -6 3
v 5.5 -6 3
v 5.5 -8 3
v 3.5 -8 3
v 3.5 -6.25 4
v 5.5 -6.25 4
v 5.5 -8 4
v 3.5 -8 4
vt 0.322265625 0.9765625
vt 0.3203125 0.9765625
vt 0.3203125 0.98046875
vt 0.322265625 0.98046875
f 87/241 83/242 82/243 86/244
vt 0.31640625 0.9765625
vt 0.314453125 0.9765625
vt 0.314453125 0.98046875
vt 0.31640625 0.98046875
f 84/245 88/246 85/247 81/248
vt 0.3203125 0.98046875
vt 0.31640625 0.98046875
vt 0.31640625 0.982421875
vt 0.3203125 0.982421875
f 82/249 81/250 85/251 86/252
vt 0.32421875 0.982421875
vt 0.3203125 0.982421875
vt 0.3203125 0.98046875
vt 0.32421875 0.98046875
f 87/253 88/254 84/255 83/256
vt 0.3203125 0.9765625
vt 0.31640625 0.9765625
vt 0.31640625 0.98046875
vt 0.3203125 0.98046875
f 83/257 84/258 81/259 82/260
vt 0.326171875 0.9765625
vt 0.322265625 0.9765625
vt 0.322265625 0.98046875
vt 0.326171875 0.98046875
f 88/261 87/262 86/263 85/264
o gunModel11
v 3.5 -6.25 -4
v 5.5 -6.25 -4
v 5.5 -8 -4
v 3.5 -8 -4
v 3.5 -6 -3
v 5.5 -6 -3
v 5.5 -8 -3
v 3.5 -8 -3
vt 0.337890625 0.9765625
vt 0.3359375 0.9765625
vt 0.3359375 0.98046875
vt 0.337890625 0.98046875
f 95/265 91/266 90/267 94/268
vt 0.33203125 0.9765625
vt 0.330078125 0.9765625
vt 0.330078125 0.98046875
vt 0.33203125 0.98046875
f 92/269 96/270 93/271 89/272
vt 0.3359375 0.98046875
vt 0.33203125 0.98046875
vt 0.33203125 0.982421875
vt 0.3359375 0.982421875
f 90/273 89/274 93/275 94/276
vt 0.33984375 0.982421875
vt 0.3359375 0.982421875
vt 0.3359375 0.98046875
vt 0.33984375 0.98046875
f 95/277 96/278 92/279 91/280
vt 0.3359375 0.9765625
vt 0.33203125 0.9765625
vt 0.33203125 0.98046875
vt 0.3359375 0.98046875
f 91/281 92/282 89/283 90/284
vt 0.341796875 0.9765625
vt 0.337890625 0.9765625
vt 0.337890625 0.98046875
vt 0.341796875 0.98046875
f 96/285 95/286 94/287 93/288
